%TF.GenerationSoftware,KiCad,Pcbnew,8.0.6*%
%TF.CreationDate,2025-03-02T19:30:28-05:00*%
%TF.ProjectId,receiver,72656365-6976-4657-922e-6b696361645f,rev?*%
%TF.SameCoordinates,Original*%
%TF.FileFunction,Soldermask,Bot*%
%TF.FilePolarity,Negative*%
%FSLAX46Y46*%
G04 Gerber Fmt 4.6, Leading zero omitted, Abs format (unit mm)*
G04 Created by KiCad (PCBNEW 8.0.6) date 2025-03-02 19:30:28*
%MOMM*%
%LPD*%
G01*
G04 APERTURE LIST*
G04 Aperture macros list*
%AMRoundRect*
0 Rectangle with rounded corners*
0 $1 Rounding radius*
0 $2 $3 $4 $5 $6 $7 $8 $9 X,Y pos of 4 corners*
0 Add a 4 corners polygon primitive as box body*
4,1,4,$2,$3,$4,$5,$6,$7,$8,$9,$2,$3,0*
0 Add four circle primitives for the rounded corners*
1,1,$1+$1,$2,$3*
1,1,$1+$1,$4,$5*
1,1,$1+$1,$6,$7*
1,1,$1+$1,$8,$9*
0 Add four rect primitives between the rounded corners*
20,1,$1+$1,$2,$3,$4,$5,0*
20,1,$1+$1,$4,$5,$6,$7,0*
20,1,$1+$1,$6,$7,$8,$9,0*
20,1,$1+$1,$8,$9,$2,$3,0*%
G04 Aperture macros list end*
%ADD10C,2.276000*%
%ADD11RoundRect,0.038000X-0.675000X-0.675000X0.675000X-0.675000X0.675000X0.675000X-0.675000X0.675000X0*%
%ADD12O,1.426000X1.426000*%
%ADD13RoundRect,0.038000X0.675000X-0.675000X0.675000X0.675000X-0.675000X0.675000X-0.675000X-0.675000X0*%
%ADD14RoundRect,0.206712X-0.981288X0.981288X-0.981288X-0.981288X0.981288X-0.981288X0.981288X0.981288X0*%
%ADD15C,2.576000*%
%ADD16RoundRect,0.038000X-0.900000X0.900000X-0.900000X-0.900000X0.900000X-0.900000X0.900000X0.900000X0*%
%ADD17C,1.876000*%
%ADD18RoundRect,0.769000X-0.769000X1.269000X-0.769000X-1.269000X0.769000X-1.269000X0.769000X1.269000X0*%
%ADD19C,2.076000*%
%ADD20RoundRect,0.336500X1.176500X0.336500X-1.176500X0.336500X-1.176500X-0.336500X1.176500X-0.336500X0*%
%ADD21C,2.235000*%
G04 APERTURE END LIST*
D10*
%TO.C,REF\u002A\u002A*%
X119893173Y-128304555D03*
%TD*%
D11*
%TO.C,PWR_J1*%
X101999565Y-117092575D03*
D12*
X101999565Y-119092575D03*
%TD*%
D10*
%TO.C,REF\u002A\u002A*%
X174801556Y-128304555D03*
%TD*%
D13*
%TO.C,J3*%
X122631959Y-76597438D03*
D12*
X124631959Y-76597438D03*
X126631959Y-76597438D03*
X128631959Y-76597438D03*
%TD*%
D10*
%TO.C,REF\u002A\u002A*%
X189107658Y-77640082D03*
%TD*%
D11*
%TO.C,J2*%
X186415391Y-89603771D03*
D12*
X186415391Y-91603771D03*
X186415391Y-93603771D03*
X186415391Y-95603771D03*
X186415391Y-97603771D03*
%TD*%
D10*
%TO.C,REF\u002A\u002A*%
X112197458Y-77640082D03*
%TD*%
D14*
%TO.C,J1*%
X190338188Y-109992891D03*
D15*
X192878188Y-107452891D03*
X187798188Y-107452891D03*
X192878188Y-112532891D03*
X187798188Y-112532891D03*
%TD*%
D16*
%TO.C,RV1*%
X122855079Y-110819387D03*
D17*
X125355079Y-110819387D03*
X127855079Y-110819387D03*
D18*
X129755079Y-117819387D03*
X120955079Y-117819387D03*
%TD*%
D19*
%TO.C,SW3*%
X161834957Y-106771352D03*
X155334957Y-106771352D03*
X161834957Y-111271352D03*
X155334957Y-111271352D03*
%TD*%
%TO.C,SW1*%
X144834957Y-106771352D03*
X138334957Y-106771352D03*
X144834957Y-111271352D03*
X138334957Y-111271352D03*
%TD*%
%TO.C,SW4*%
X161834957Y-123771352D03*
X155334957Y-123771352D03*
X161834957Y-128271352D03*
X155334957Y-128271352D03*
%TD*%
%TO.C,SW2*%
X144834957Y-123771352D03*
X138334957Y-123771352D03*
X144834957Y-128271352D03*
X138334957Y-128271352D03*
%TD*%
D20*
%TO.C,RF1*%
X182306803Y-109980279D03*
X182306803Y-111980279D03*
X182306803Y-113980279D03*
X182306803Y-115980279D03*
X182306803Y-117980279D03*
X182306803Y-119980279D03*
X182306803Y-121980279D03*
X182306803Y-123980279D03*
X167256803Y-109980279D03*
X167256803Y-111980279D03*
X167256803Y-113980279D03*
X167256803Y-115980279D03*
X167256803Y-117980279D03*
X167256803Y-119980279D03*
X167256803Y-121980279D03*
X167256803Y-123980279D03*
%TD*%
D21*
%TO.C,SW5*%
X108760540Y-112361013D03*
X108760540Y-116961014D03*
%TD*%
M02*
