%TF.GenerationSoftware,KiCad,Pcbnew,8.0.6*%
%TF.CreationDate,2025-03-02T19:30:28-05:00*%
%TF.ProjectId,receiver,72656365-6976-4657-922e-6b696361645f,rev?*%
%TF.SameCoordinates,Original*%
%TF.FileFunction,Copper,L2,Bot*%
%TF.FilePolarity,Positive*%
%FSLAX46Y46*%
G04 Gerber Fmt 4.6, Leading zero omitted, Abs format (unit mm)*
G04 Created by KiCad (PCBNEW 8.0.6) date 2025-03-02 19:30:28*
%MOMM*%
%LPD*%
G01*
G04 APERTURE LIST*
G04 Aperture macros list*
%AMRoundRect*
0 Rectangle with rounded corners*
0 $1 Rounding radius*
0 $2 $3 $4 $5 $6 $7 $8 $9 X,Y pos of 4 corners*
0 Add a 4 corners polygon primitive as box body*
4,1,4,$2,$3,$4,$5,$6,$7,$8,$9,$2,$3,0*
0 Add four circle primitives for the rounded corners*
1,1,$1+$1,$2,$3*
1,1,$1+$1,$4,$5*
1,1,$1+$1,$6,$7*
1,1,$1+$1,$8,$9*
0 Add four rect primitives between the rounded corners*
20,1,$1+$1,$2,$3,$4,$5,0*
20,1,$1+$1,$4,$5,$6,$7,0*
20,1,$1+$1,$6,$7,$8,$9,0*
20,1,$1+$1,$8,$9,$2,$3,0*%
G04 Aperture macros list end*
%TA.AperFunction,ComponentPad*%
%ADD10R,1.350000X1.350000*%
%TD*%
%TA.AperFunction,ComponentPad*%
%ADD11O,1.350000X1.350000*%
%TD*%
%TA.AperFunction,ComponentPad*%
%ADD12RoundRect,0.200100X-0.949900X0.949900X-0.949900X-0.949900X0.949900X-0.949900X0.949900X0.949900X0*%
%TD*%
%TA.AperFunction,ComponentPad*%
%ADD13C,2.500000*%
%TD*%
%TA.AperFunction,ComponentPad*%
%ADD14R,1.800000X1.800000*%
%TD*%
%TA.AperFunction,ComponentPad*%
%ADD15C,1.800000*%
%TD*%
%TA.AperFunction,ComponentPad*%
%ADD16RoundRect,0.750000X-0.750000X1.250000X-0.750000X-1.250000X0.750000X-1.250000X0.750000X1.250000X0*%
%TD*%
%TA.AperFunction,ComponentPad*%
%ADD17C,2.000000*%
%TD*%
%TA.AperFunction,SMDPad,CuDef*%
%ADD18RoundRect,0.317500X1.157500X0.317500X-1.157500X0.317500X-1.157500X-0.317500X1.157500X-0.317500X0*%
%TD*%
%TA.AperFunction,ComponentPad*%
%ADD19C,2.159000*%
%TD*%
%TA.AperFunction,ViaPad*%
%ADD20C,0.800000*%
%TD*%
%TA.AperFunction,Conductor*%
%ADD21C,0.500000*%
%TD*%
%TA.AperFunction,Conductor*%
%ADD22C,0.250000*%
%TD*%
%TA.AperFunction,Conductor*%
%ADD23C,1.082160*%
%TD*%
G04 APERTURE END LIST*
D10*
%TO.P,PWR_J1,1,Pin_1*%
%TO.N,Net-(PWR_J1-Pin_1)*%
X101999565Y-117092575D03*
D11*
%TO.P,PWR_J1,2,Pin_2*%
%TO.N,GND*%
X101999565Y-119092575D03*
%TD*%
D10*
%TO.P,J3,1,GND*%
%TO.N,+5V*%
X122631959Y-76597438D03*
D11*
%TO.P,J3,2,VCC*%
%TO.N,I2C_SDA*%
X124631959Y-76597438D03*
%TO.P,J3,3,SDA*%
%TO.N,GND*%
X126631959Y-76597438D03*
%TO.P,J3,4,SCL*%
%TO.N,I2C_SCL*%
X128631959Y-76597438D03*
%TD*%
D10*
%TO.P,J2,1,Pin_1*%
%TO.N,SYS_SWDIO*%
X186415391Y-89603771D03*
D11*
%TO.P,J2,2,Pin_2*%
%TO.N,SYS_SWCLK*%
X186415391Y-91603771D03*
%TO.P,J2,3,Pin_3*%
%TO.N,+3.3V*%
X186415391Y-93603771D03*
%TO.P,J2,4,Pin_4*%
%TO.N,SYS_TRACESWO*%
X186415391Y-95603771D03*
%TO.P,J2,5,Pin_5*%
%TO.N,GND*%
X186415391Y-97603771D03*
%TD*%
D12*
%TO.P,J1,1,In*%
%TO.N,/Capteurs/ANT*%
X190338188Y-109992891D03*
D13*
%TO.P,J1,2,Ext*%
%TO.N,GND*%
X192878188Y-107452891D03*
X187798188Y-107452891D03*
X192878188Y-112532891D03*
X187798188Y-112532891D03*
%TD*%
D14*
%TO.P,RV1,1,1*%
%TO.N,Net-(BUZ_R1-Pad1)*%
X122855079Y-110819387D03*
D15*
%TO.P,RV1,2,2*%
%TO.N,Net-(BUZ_D1-K)*%
X125355079Y-110819387D03*
%TO.P,RV1,3,3*%
X127855079Y-110819387D03*
D16*
%TO.P,RV1,MP*%
%TO.N,N/C*%
X129755079Y-117819387D03*
X120955079Y-117819387D03*
%TD*%
D17*
%TO.P,SW3,1,1*%
%TO.N,PUSH_3*%
X161834957Y-106771352D03*
X155334957Y-106771352D03*
%TO.P,SW3,2,2*%
%TO.N,GND*%
X161834957Y-111271352D03*
X155334957Y-111271352D03*
%TD*%
%TO.P,SW1,1,1*%
%TO.N,PUSH_1*%
X144834957Y-106771352D03*
X138334957Y-106771352D03*
%TO.P,SW1,2,2*%
%TO.N,GND*%
X144834957Y-111271352D03*
X138334957Y-111271352D03*
%TD*%
%TO.P,SW4,1,1*%
%TO.N,PUSH_4*%
X161834957Y-123771352D03*
X155334957Y-123771352D03*
%TO.P,SW4,2,2*%
%TO.N,GND*%
X161834957Y-128271352D03*
X155334957Y-128271352D03*
%TD*%
%TO.P,SW2,1,1*%
%TO.N,PUSH_2*%
X144834957Y-123771352D03*
X138334957Y-123771352D03*
%TO.P,SW2,2,2*%
%TO.N,GND*%
X144834957Y-128271352D03*
X138334957Y-128271352D03*
%TD*%
D18*
%TO.P,RF1,1,ANT*%
%TO.N,/Capteurs/ANT*%
X182306803Y-109980279D03*
%TO.P,RF1,2,GND*%
%TO.N,GND*%
X182306803Y-111980279D03*
%TO.P,RF1,3,RX_ANT*%
%TO.N,unconnected-(RF1-RX_ANT-Pad3)*%
X182306803Y-113980279D03*
%TO.P,RF1,4,TX_ANT*%
%TO.N,unconnected-(RF1-TX_ANT-Pad4)*%
X182306803Y-115980279D03*
%TO.P,RF1,5,VCC*%
%TO.N,+3.3V*%
X182306803Y-117980279D03*
%TO.P,RF1,6,GPIO_0*%
%TO.N,RFM_GPIO1*%
X182306803Y-119980279D03*
%TO.P,RF1,7,GPIO_1*%
%TO.N,RFM_GPIO2*%
X182306803Y-121980279D03*
%TO.P,RF1,8,GPIO_2*%
%TO.N,RFM_GPIO3*%
X182306803Y-123980279D03*
%TO.P,RF1,9,GND*%
%TO.N,GND*%
X167256803Y-109980279D03*
%TO.P,RF1,10,SDN*%
%TO.N,RFM_SDN*%
X167256803Y-111980279D03*
%TO.P,RF1,11,NIRQ*%
%TO.N,RFM_NIRQ*%
X167256803Y-113980279D03*
%TO.P,RF1,12,NSEL*%
%TO.N,SPI_RFM_CS*%
X167256803Y-115980279D03*
%TO.P,RF1,13,SCK*%
%TO.N,SPI_SCK*%
X167256803Y-117980279D03*
%TO.P,RF1,14,SDI*%
%TO.N,SPI_MOSI*%
X167256803Y-119980279D03*
%TO.P,RF1,15,SDO*%
%TO.N,SPI_MISO*%
X167256803Y-121980279D03*
%TO.P,RF1,16,GND*%
%TO.N,GND*%
X167256803Y-123980279D03*
%TD*%
D19*
%TO.P,SW5,1,A*%
%TO.N,VCC*%
X108760540Y-112361013D03*
%TO.P,SW5,2,B*%
%TO.N,Net-(PWR_J1-Pin_1)*%
X108760540Y-116961014D03*
%TD*%
D20*
%TO.N,GND*%
X145153352Y-87577745D03*
X180054268Y-108247554D03*
X107877846Y-88083617D03*
X151947561Y-80807730D03*
X105891461Y-84468777D03*
X109650883Y-88070828D03*
X190497889Y-104974600D03*
X191611040Y-114973900D03*
X192476448Y-104974600D03*
X116908249Y-91776694D03*
X162795432Y-90465679D03*
X113747482Y-101674964D03*
X152798446Y-77640184D03*
X185506961Y-104974600D03*
X152948744Y-93365246D03*
X187684545Y-114973900D03*
X105860848Y-86418066D03*
X177165933Y-78353737D03*
X105926433Y-88053342D03*
X180054268Y-111454807D03*
X182225160Y-104974600D03*
X193589599Y-114973900D03*
X109650359Y-86311104D03*
X105185430Y-99829869D03*
X190655741Y-114973900D03*
X180054268Y-104979270D03*
X174692612Y-98552224D03*
X146510751Y-82079389D03*
X180054268Y-114513440D03*
X109598426Y-84381349D03*
X181119575Y-104974600D03*
X188549953Y-104974600D03*
X171428529Y-98496269D03*
X189542590Y-104974600D03*
X137309136Y-84159221D03*
X193518691Y-104974600D03*
X136417611Y-96206117D03*
X167992494Y-82732435D03*
X185514527Y-114973900D03*
X107801444Y-86311104D03*
X188707805Y-114973900D03*
X184480457Y-114973900D03*
X187594654Y-104974600D03*
X167185894Y-107837632D03*
X180054268Y-107145109D03*
X180054268Y-110394858D03*
X180054268Y-112449066D03*
X184401376Y-104974600D03*
X183289593Y-104974600D03*
X177869526Y-82706395D03*
X149747447Y-87438800D03*
X169085396Y-75813742D03*
X146058684Y-92082389D03*
X191521149Y-104974600D03*
X177966020Y-98524246D03*
X192634300Y-114973900D03*
X178788247Y-75835172D03*
X186620112Y-114973900D03*
X180054268Y-113430624D03*
X189663104Y-114973900D03*
X180054268Y-106042665D03*
X180054268Y-109298775D03*
X180879374Y-80413610D03*
X132922122Y-85265965D03*
X186571394Y-104974600D03*
X107832005Y-84416349D03*
%TO.N,+3.3V*%
X174156531Y-76786052D03*
X173627098Y-78554493D03*
X185273867Y-117971299D03*
%TO.N,BUZZER*%
X142286589Y-97778732D03*
X161955360Y-85684709D03*
%TO.N,I2C_SDA*%
X159110483Y-77192994D03*
X176362567Y-80895588D03*
%TO.N,I2C_SCL*%
X161614484Y-76171461D03*
X172539990Y-79422423D03*
%TO.N,SYS_SWCLK*%
X181798701Y-83002161D03*
X174505161Y-79896163D03*
%TO.N,SYS_TRACESWO*%
X175534422Y-84610894D03*
X158872150Y-81702057D03*
%TO.N,+5V*%
X122643006Y-82246359D03*
%TO.N,SPI_SCK*%
X156374038Y-94014085D03*
%TO.N,SPI_MOSI*%
X158267007Y-94251488D03*
%TO.N,SPI_MISO*%
X157367378Y-93564271D03*
%TO.N,RFM_NIRQ*%
X162641298Y-87461128D03*
%TO.N,SPI_RFM_CS*%
X156896404Y-89973420D03*
%TO.N,RFM_GPIO2*%
X159704359Y-89257016D03*
%TO.N,RFM_GPIO3*%
X160372884Y-90000709D03*
%TO.N,RFM_SDN*%
X157749142Y-89064176D03*
%TO.N,RFM_GPIO1*%
X158757451Y-88842409D03*
%TD*%
D21*
%TO.N,+3.3V*%
X182306803Y-117980279D02*
X185264887Y-117980279D01*
D22*
X173627098Y-78554493D02*
X174156531Y-78025060D01*
D21*
X185264887Y-117980279D02*
X185273867Y-117971299D01*
D22*
X174156531Y-78025060D02*
X174156531Y-76786052D01*
%TO.N,BUZZER*%
X157708404Y-85684709D02*
X161955360Y-85684709D01*
X153902125Y-89490988D02*
X157708404Y-85684709D01*
X149961751Y-97778732D02*
X153902125Y-93838358D01*
X153902125Y-93838358D02*
X153902125Y-89490988D01*
X142286589Y-97778732D02*
X149961751Y-97778732D01*
%TO.N,I2C_SDA*%
X129458650Y-77990471D02*
X126024992Y-77990471D01*
X158056472Y-76138983D02*
X131310138Y-76138983D01*
X159110483Y-77192994D02*
X158056472Y-76138983D01*
X131310138Y-76138983D02*
X129458650Y-77990471D01*
X162813077Y-80895588D02*
X159110483Y-77192994D01*
X126024992Y-77990471D02*
X124631959Y-76597438D01*
X176362567Y-80895588D02*
X162813077Y-80895588D01*
%TO.N,I2C_SCL*%
X161614484Y-76171461D02*
X160448326Y-75005303D01*
X171721471Y-78603904D02*
X164046927Y-78603904D01*
X172539990Y-79422423D02*
X171721471Y-78603904D01*
X160448326Y-75005303D02*
X130224094Y-75005303D01*
X130224094Y-75005303D02*
X128631959Y-76597438D01*
X164046927Y-78603904D02*
X161614484Y-76171461D01*
D23*
%TO.N,/Capteurs/ANT*%
X182306803Y-109980279D02*
X190325576Y-109980279D01*
X190325576Y-109980279D02*
X190338188Y-109992891D01*
D22*
%TO.N,SYS_SWCLK*%
X178692703Y-79896163D02*
X174505161Y-79896163D01*
X181798701Y-83002161D02*
X178692703Y-79896163D01*
%TO.N,SYS_TRACESWO*%
X161780987Y-84610894D02*
X158872150Y-81702057D01*
X175534422Y-84610894D02*
X161780987Y-84610894D01*
D21*
%TO.N,+5V*%
X122631959Y-82235312D02*
X122631959Y-76597438D01*
X122643006Y-82246359D02*
X122631959Y-82235312D01*
D22*
%TO.N,SPI_SCK*%
X168731803Y-117980279D02*
X170844802Y-115867280D01*
X170844802Y-115867280D02*
X170844802Y-107545809D01*
X167256803Y-117980279D02*
X168731803Y-117980279D01*
X170844802Y-107545809D02*
X158312666Y-95013673D01*
X158312666Y-95013673D02*
X157373626Y-95013673D01*
X157373626Y-95013673D02*
X156374038Y-94014085D01*
%TO.N,SPI_MOSI*%
X158794790Y-94251488D02*
X171788105Y-107244803D01*
X158267007Y-94251488D02*
X158794790Y-94251488D01*
X168731803Y-119980279D02*
X167256803Y-119980279D01*
X171788105Y-107244803D02*
X171788105Y-116923977D01*
X171788105Y-116923977D02*
X168731803Y-119980279D01*
%TO.N,SPI_MISO*%
X172613970Y-118098112D02*
X172613970Y-106949677D01*
X159190781Y-93526488D02*
X157405161Y-93526488D01*
X172613970Y-106949677D02*
X159190781Y-93526488D01*
X167256803Y-121980279D02*
X168731803Y-121980279D01*
X168731803Y-121980279D02*
X172613970Y-118098112D01*
X157405161Y-93526488D02*
X157367378Y-93564271D01*
%TO.N,RFM_NIRQ*%
X164339426Y-105117284D02*
X164339426Y-111886017D01*
X164339426Y-111886017D02*
X166433688Y-113980279D01*
X166433688Y-113980279D02*
X167256803Y-113980279D01*
X156830301Y-87461128D02*
X154462625Y-89828804D01*
X162641298Y-87461128D02*
X156830301Y-87461128D01*
X154462625Y-95240483D02*
X164339426Y-105117284D01*
X154462625Y-89828804D02*
X154462625Y-95240483D01*
%TO.N,SPI_RFM_CS*%
X155649038Y-94337984D02*
X155649038Y-91220786D01*
X155649038Y-91220786D02*
X156896404Y-89973420D01*
X169094343Y-115980279D02*
X169902416Y-115172206D01*
X169902416Y-115172206D02*
X169902416Y-107934355D01*
X167256803Y-115980279D02*
X169094343Y-115980279D01*
X169902416Y-107934355D02*
X157486091Y-95518030D01*
X157486091Y-95518030D02*
X156829084Y-95518030D01*
X156829084Y-95518030D02*
X155649038Y-94337984D01*
%TO.N,RFM_GPIO2*%
X161097884Y-92933933D02*
X174439952Y-106276001D01*
X161097884Y-89700404D02*
X161097884Y-92933933D01*
X159704359Y-89257016D02*
X160654496Y-89257016D01*
X174439952Y-115857051D02*
X180563180Y-121980279D01*
X174439952Y-106276001D02*
X174439952Y-115857051D01*
X180563180Y-121980279D02*
X182306803Y-121980279D01*
X160654496Y-89257016D02*
X161097884Y-89700404D01*
%TO.N,RFM_GPIO3*%
X160372884Y-93353761D02*
X160372884Y-90000709D01*
X180831803Y-123980279D02*
X173578871Y-116727347D01*
X173578871Y-106559748D02*
X160372884Y-93353761D01*
X173578871Y-116727347D02*
X173578871Y-106559748D01*
X182306803Y-123980279D02*
X180831803Y-123980279D01*
%TO.N,RFM_SDN*%
X165170051Y-104550201D02*
X165170051Y-111368527D01*
X165170051Y-111368527D02*
X165781803Y-111980279D01*
X156166654Y-89064176D02*
X155070387Y-90160443D01*
X155070387Y-94450537D02*
X165170051Y-104550201D01*
X157749142Y-89064176D02*
X156166654Y-89064176D01*
X165781803Y-111980279D02*
X167256803Y-111980279D01*
X155070387Y-90160443D02*
X155070387Y-94450537D01*
%TO.N,RFM_GPIO1*%
X161738411Y-89433454D02*
X161738411Y-92383577D01*
X158757451Y-88842409D02*
X159067844Y-88532016D01*
X181317314Y-119980279D02*
X182306803Y-119980279D01*
X161738411Y-92383577D02*
X175387658Y-106032824D01*
X175387658Y-114050623D02*
X181317314Y-119980279D01*
X159067844Y-88532016D02*
X160836973Y-88532016D01*
X175387658Y-106032824D02*
X175387658Y-114050623D01*
X160836973Y-88532016D02*
X161738411Y-89433454D01*
%TD*%
%TA.AperFunction,Conductor*%
%TO.N,GND*%
G36*
X194777796Y-73068076D02*
G01*
X194823551Y-73120880D01*
X194834757Y-73172119D01*
X194841124Y-76075385D01*
X194841124Y-104686559D01*
X179103158Y-104667577D01*
X179028696Y-116807071D01*
X176049477Y-113827852D01*
X176015992Y-113766529D01*
X176013158Y-113740171D01*
X176013158Y-105971218D01*
X176005804Y-105934248D01*
X175989121Y-105850373D01*
X175952193Y-105761222D01*
X175941969Y-105736538D01*
X175893242Y-105663613D01*
X175873516Y-105634090D01*
X175783295Y-105543869D01*
X175783264Y-105543840D01*
X162400230Y-92160806D01*
X162366745Y-92099483D01*
X162363911Y-92073125D01*
X162363911Y-91603770D01*
X185234855Y-91603770D01*
X185234855Y-91603771D01*
X185254955Y-91820689D01*
X185314575Y-92030233D01*
X185411679Y-92225243D01*
X185542965Y-92399095D01*
X185666963Y-92512134D01*
X185703245Y-92571845D01*
X185701484Y-92641693D01*
X185666963Y-92695408D01*
X185542965Y-92808446D01*
X185411679Y-92982298D01*
X185314575Y-93177308D01*
X185254955Y-93386852D01*
X185234855Y-93603770D01*
X185234855Y-93603771D01*
X185254955Y-93820689D01*
X185314575Y-94030233D01*
X185411679Y-94225243D01*
X185542965Y-94399095D01*
X185666963Y-94512134D01*
X185703245Y-94571845D01*
X185701484Y-94641693D01*
X185666963Y-94695408D01*
X185542965Y-94808446D01*
X185411679Y-94982298D01*
X185314575Y-95177308D01*
X185254955Y-95386852D01*
X185234855Y-95603770D01*
X185234855Y-95603771D01*
X185254955Y-95820689D01*
X185314575Y-96030233D01*
X185411679Y-96225243D01*
X185542965Y-96399095D01*
X185667335Y-96512472D01*
X185703617Y-96572183D01*
X185701856Y-96642030D01*
X185667335Y-96695746D01*
X185543336Y-96808784D01*
X185412106Y-96982562D01*
X185315042Y-97177490D01*
X185264885Y-97353770D01*
X185264886Y-97353771D01*
X186099705Y-97353771D01*
X186095311Y-97358165D01*
X186042650Y-97449377D01*
X186015391Y-97551110D01*
X186015391Y-97656432D01*
X186042650Y-97758165D01*
X186095311Y-97849377D01*
X186099705Y-97853771D01*
X185264886Y-97853771D01*
X185315042Y-98030051D01*
X185412106Y-98224979D01*
X185543336Y-98398756D01*
X185704259Y-98545456D01*
X185889403Y-98660093D01*
X185889414Y-98660098D01*
X186092451Y-98738755D01*
X186165391Y-98752390D01*
X186165391Y-97919457D01*
X186169785Y-97923851D01*
X186260997Y-97976512D01*
X186362730Y-98003771D01*
X186468052Y-98003771D01*
X186569785Y-97976512D01*
X186660997Y-97923851D01*
X186665391Y-97919457D01*
X186665391Y-98752390D01*
X186738330Y-98738755D01*
X186941367Y-98660098D01*
X186941378Y-98660093D01*
X187126521Y-98545456D01*
X187126522Y-98545456D01*
X187287445Y-98398756D01*
X187418675Y-98224979D01*
X187515739Y-98030051D01*
X187565896Y-97853771D01*
X186731077Y-97853771D01*
X186735471Y-97849377D01*
X186788132Y-97758165D01*
X186815391Y-97656432D01*
X186815391Y-97551110D01*
X186788132Y-97449377D01*
X186735471Y-97358165D01*
X186731077Y-97353771D01*
X187565896Y-97353771D01*
X187565896Y-97353770D01*
X187515739Y-97177490D01*
X187418675Y-96982562D01*
X187287447Y-96808788D01*
X187163446Y-96695747D01*
X187127165Y-96636036D01*
X187128925Y-96566188D01*
X187163443Y-96512475D01*
X187287818Y-96399093D01*
X187419103Y-96225243D01*
X187516208Y-96030230D01*
X187575826Y-95820694D01*
X187595927Y-95603771D01*
X187575826Y-95386848D01*
X187516208Y-95177312D01*
X187419103Y-94982299D01*
X187287818Y-94808449D01*
X187163814Y-94695405D01*
X187127536Y-94635698D01*
X187129296Y-94565850D01*
X187163814Y-94512136D01*
X187287818Y-94399093D01*
X187419103Y-94225243D01*
X187516208Y-94030230D01*
X187575826Y-93820694D01*
X187595927Y-93603771D01*
X187575826Y-93386848D01*
X187516208Y-93177312D01*
X187419103Y-92982299D01*
X187287818Y-92808449D01*
X187163814Y-92695405D01*
X187127536Y-92635698D01*
X187129296Y-92565850D01*
X187163814Y-92512136D01*
X187287818Y-92399093D01*
X187419103Y-92225243D01*
X187516208Y-92030230D01*
X187575826Y-91820694D01*
X187595927Y-91603771D01*
X187575826Y-91386848D01*
X187516208Y-91177312D01*
X187419103Y-90982299D01*
X187337642Y-90874427D01*
X187312951Y-90809068D01*
X187327516Y-90740733D01*
X187362286Y-90700436D01*
X187409936Y-90664764D01*
X187447937Y-90636317D01*
X187534187Y-90521102D01*
X187584482Y-90386254D01*
X187590891Y-90326644D01*
X187590890Y-88880899D01*
X187584482Y-88821288D01*
X187534187Y-88686440D01*
X187534186Y-88686439D01*
X187534184Y-88686435D01*
X187447938Y-88571226D01*
X187447935Y-88571223D01*
X187332726Y-88484977D01*
X187332719Y-88484973D01*
X187197873Y-88434679D01*
X187197874Y-88434679D01*
X187138274Y-88428272D01*
X187138272Y-88428271D01*
X187138264Y-88428271D01*
X187138255Y-88428271D01*
X185692520Y-88428271D01*
X185692514Y-88428272D01*
X185632907Y-88434679D01*
X185498062Y-88484973D01*
X185498055Y-88484977D01*
X185382846Y-88571223D01*
X185382843Y-88571226D01*
X185296597Y-88686435D01*
X185296593Y-88686442D01*
X185246299Y-88821288D01*
X185239892Y-88880887D01*
X185239892Y-88880894D01*
X185239891Y-88880906D01*
X185239891Y-90326641D01*
X185239892Y-90326647D01*
X185246299Y-90386254D01*
X185296593Y-90521099D01*
X185296597Y-90521106D01*
X185365749Y-90613480D01*
X185382845Y-90636317D01*
X185468496Y-90700435D01*
X185510366Y-90756368D01*
X185515350Y-90826060D01*
X185493139Y-90874427D01*
X185411679Y-90982299D01*
X185314575Y-91177308D01*
X185254955Y-91386852D01*
X185234855Y-91603770D01*
X162363911Y-91603770D01*
X162363911Y-89371851D01*
X162363911Y-89371848D01*
X162361698Y-89360724D01*
X162345033Y-89276939D01*
X162339874Y-89251002D01*
X162309314Y-89177224D01*
X162292723Y-89137169D01*
X162262711Y-89092254D01*
X162251118Y-89074903D01*
X162251118Y-89074904D01*
X162224269Y-89034721D01*
X162224266Y-89034718D01*
X162224264Y-89034715D01*
X162134048Y-88944499D01*
X162134017Y-88944470D01*
X161487856Y-88298309D01*
X161454371Y-88236986D01*
X161459355Y-88167294D01*
X161501227Y-88111361D01*
X161566691Y-88086944D01*
X161575537Y-88086628D01*
X161937550Y-88086628D01*
X162004589Y-88106313D01*
X162029698Y-88127654D01*
X162035424Y-88134013D01*
X162035428Y-88134017D01*
X162188563Y-88245276D01*
X162188568Y-88245279D01*
X162361490Y-88322270D01*
X162361495Y-88322272D01*
X162546652Y-88361628D01*
X162546653Y-88361628D01*
X162735942Y-88361628D01*
X162735944Y-88361628D01*
X162921101Y-88322272D01*
X163094028Y-88245279D01*
X163247169Y-88134016D01*
X163373831Y-87993344D01*
X163468477Y-87829412D01*
X163526972Y-87649384D01*
X163546758Y-87461128D01*
X163526972Y-87272872D01*
X163468477Y-87092844D01*
X163373831Y-86928912D01*
X163247169Y-86788240D01*
X163247168Y-86788239D01*
X163094032Y-86676979D01*
X163094027Y-86676976D01*
X162921105Y-86599985D01*
X162921100Y-86599983D01*
X162775299Y-86568993D01*
X162735944Y-86560628D01*
X162656929Y-86560628D01*
X162589890Y-86540943D01*
X162544135Y-86488139D01*
X162534191Y-86418981D01*
X162563216Y-86355425D01*
X162564752Y-86353685D01*
X162687893Y-86216925D01*
X162782539Y-86052993D01*
X162841034Y-85872965D01*
X162860820Y-85684709D01*
X162841034Y-85496453D01*
X162809276Y-85398712D01*
X162807281Y-85328871D01*
X162843361Y-85269038D01*
X162906062Y-85238210D01*
X162927207Y-85236394D01*
X174830674Y-85236394D01*
X174897713Y-85256079D01*
X174922822Y-85277420D01*
X174928548Y-85283779D01*
X174928552Y-85283783D01*
X175081687Y-85395042D01*
X175081692Y-85395045D01*
X175254614Y-85472036D01*
X175254619Y-85472038D01*
X175439776Y-85511394D01*
X175439777Y-85511394D01*
X175629066Y-85511394D01*
X175629068Y-85511394D01*
X175814225Y-85472038D01*
X175987152Y-85395045D01*
X176140293Y-85283782D01*
X176266955Y-85143110D01*
X176361601Y-84979178D01*
X176420096Y-84799150D01*
X176439882Y-84610894D01*
X176420096Y-84422638D01*
X176361601Y-84242610D01*
X176266955Y-84078678D01*
X176140293Y-83938006D01*
X176140292Y-83938005D01*
X175987156Y-83826745D01*
X175987151Y-83826742D01*
X175814229Y-83749751D01*
X175814224Y-83749749D01*
X175668423Y-83718759D01*
X175629068Y-83710394D01*
X175439776Y-83710394D01*
X175407319Y-83717292D01*
X175254619Y-83749749D01*
X175254614Y-83749751D01*
X175081692Y-83826742D01*
X175081687Y-83826745D01*
X174928552Y-83938004D01*
X174928548Y-83938008D01*
X174922822Y-83944368D01*
X174863335Y-83981015D01*
X174830674Y-83985394D01*
X162091439Y-83985394D01*
X162024400Y-83965709D01*
X162003758Y-83949075D01*
X159811110Y-81756427D01*
X159777625Y-81695104D01*
X159775473Y-81681728D01*
X159757824Y-81513801D01*
X159699329Y-81333773D01*
X159604683Y-81169841D01*
X159478021Y-81029169D01*
X159478020Y-81029168D01*
X159324884Y-80917908D01*
X159324879Y-80917905D01*
X159151957Y-80840914D01*
X159151952Y-80840912D01*
X159006151Y-80809922D01*
X158966796Y-80801557D01*
X158777504Y-80801557D01*
X158745047Y-80808455D01*
X158592347Y-80840912D01*
X158592342Y-80840914D01*
X158419420Y-80917905D01*
X158419415Y-80917908D01*
X158266279Y-81029168D01*
X158139616Y-81169842D01*
X158044971Y-81333772D01*
X158044968Y-81333779D01*
X157986477Y-81513797D01*
X157986476Y-81513801D01*
X157966690Y-81702057D01*
X157986476Y-81890313D01*
X157986477Y-81890316D01*
X158044968Y-82070334D01*
X158044971Y-82070341D01*
X158139617Y-82234273D01*
X158225155Y-82329272D01*
X158266279Y-82374945D01*
X158419415Y-82486205D01*
X158419420Y-82486208D01*
X158592342Y-82563199D01*
X158592347Y-82563201D01*
X158777504Y-82602557D01*
X158836698Y-82602557D01*
X158903737Y-82622242D01*
X158924379Y-82638876D01*
X161133031Y-84847528D01*
X161166516Y-84908851D01*
X161161532Y-84978543D01*
X161119660Y-85034476D01*
X161054196Y-85058893D01*
X161045350Y-85059209D01*
X157646793Y-85059209D01*
X157586375Y-85071227D01*
X157543147Y-85079825D01*
X157525950Y-85083246D01*
X157412120Y-85130396D01*
X157309669Y-85198851D01*
X157309666Y-85198854D01*
X154421894Y-88086628D01*
X153503394Y-89005128D01*
X153503392Y-89005130D01*
X153473807Y-89034715D01*
X153416267Y-89092254D01*
X153400700Y-89115552D01*
X153385237Y-89138695D01*
X153366525Y-89166698D01*
X153347813Y-89194701D01*
X153324492Y-89251002D01*
X153324493Y-89251003D01*
X153300662Y-89308536D01*
X153300661Y-89308539D01*
X153300661Y-89308540D01*
X153300660Y-89308543D01*
X153288694Y-89368697D01*
X153288695Y-89368698D01*
X153278670Y-89419102D01*
X153278670Y-89419103D01*
X153276625Y-89429384D01*
X153276625Y-93527905D01*
X153256940Y-93594944D01*
X153240306Y-93615586D01*
X149738980Y-97116913D01*
X149677657Y-97150398D01*
X149651299Y-97153232D01*
X142990337Y-97153232D01*
X142923298Y-97133547D01*
X142898189Y-97112206D01*
X142892462Y-97105846D01*
X142892458Y-97105842D01*
X142739323Y-96994583D01*
X142739318Y-96994580D01*
X142566396Y-96917589D01*
X142566391Y-96917587D01*
X142420590Y-96886597D01*
X142381235Y-96878232D01*
X142191943Y-96878232D01*
X142159486Y-96885130D01*
X142006786Y-96917587D01*
X142006781Y-96917589D01*
X141833859Y-96994580D01*
X141833854Y-96994583D01*
X141680718Y-97105843D01*
X141554055Y-97246517D01*
X141459410Y-97410447D01*
X141459407Y-97410454D01*
X141400916Y-97590472D01*
X141400915Y-97590476D01*
X141381129Y-97778732D01*
X141400915Y-97966988D01*
X141400916Y-97966991D01*
X141459407Y-98147009D01*
X141459410Y-98147016D01*
X141554056Y-98310948D01*
X141674990Y-98445258D01*
X141680718Y-98451620D01*
X141833854Y-98562880D01*
X141833859Y-98562883D01*
X142006781Y-98639874D01*
X142006786Y-98639876D01*
X142191943Y-98679232D01*
X142191944Y-98679232D01*
X142381233Y-98679232D01*
X142381235Y-98679232D01*
X142566392Y-98639876D01*
X142739319Y-98562883D01*
X142892460Y-98451620D01*
X142895377Y-98448379D01*
X142898189Y-98445258D01*
X142957676Y-98408611D01*
X142990337Y-98404232D01*
X150023359Y-98404232D01*
X150023359Y-98404231D01*
X150087729Y-98391428D01*
X150087730Y-98391428D01*
X150106901Y-98387614D01*
X150144203Y-98380195D01*
X150177543Y-98366384D01*
X150258037Y-98333044D01*
X150309260Y-98298816D01*
X150360484Y-98264590D01*
X150447609Y-98177465D01*
X150447609Y-98177463D01*
X150457817Y-98167256D01*
X150457818Y-98167253D01*
X153625446Y-94999626D01*
X153686767Y-94966143D01*
X153756459Y-94971127D01*
X153812392Y-95012999D01*
X153836809Y-95078463D01*
X153837125Y-95087309D01*
X153837125Y-95302094D01*
X153861160Y-95422927D01*
X153861165Y-95422944D01*
X153908310Y-95536763D01*
X153908315Y-95536772D01*
X153942539Y-95587990D01*
X153942540Y-95587992D01*
X153976766Y-95639216D01*
X154068211Y-95730661D01*
X154068233Y-95730681D01*
X163677607Y-105340055D01*
X163711092Y-105401378D01*
X163713926Y-105427736D01*
X163713926Y-111824410D01*
X163713926Y-111947624D01*
X163713926Y-111947626D01*
X163713925Y-111947626D01*
X163718374Y-111969987D01*
X163718374Y-111969989D01*
X163718375Y-111969989D01*
X163718375Y-111969990D01*
X163732675Y-112041886D01*
X163732675Y-112041887D01*
X163737960Y-112068461D01*
X163737963Y-112068468D01*
X163785114Y-112182303D01*
X163810225Y-112219883D01*
X163810226Y-112219886D01*
X163810227Y-112219886D01*
X163853566Y-112284748D01*
X163853567Y-112284749D01*
X163853568Y-112284750D01*
X163940693Y-112371875D01*
X163940694Y-112371875D01*
X163947761Y-112378942D01*
X163947760Y-112378942D01*
X163947764Y-112378945D01*
X165244984Y-113676165D01*
X165278469Y-113737488D01*
X165281303Y-113763846D01*
X165281303Y-114343721D01*
X165296764Y-114480950D01*
X165357648Y-114654944D01*
X165455718Y-114811021D01*
X165537295Y-114892598D01*
X165570780Y-114953921D01*
X165565796Y-115023613D01*
X165537295Y-115067960D01*
X165455718Y-115149536D01*
X165357648Y-115305613D01*
X165296764Y-115479607D01*
X165281303Y-115616836D01*
X165281303Y-116343721D01*
X165296764Y-116480950D01*
X165357648Y-116654944D01*
X165455718Y-116811021D01*
X165537295Y-116892598D01*
X165570780Y-116953921D01*
X165565796Y-117023613D01*
X165537295Y-117067960D01*
X165455718Y-117149536D01*
X165357648Y-117305613D01*
X165296764Y-117479607D01*
X165281303Y-117616836D01*
X165281303Y-118343721D01*
X165296764Y-118480950D01*
X165357648Y-118654944D01*
X165455718Y-118811021D01*
X165537295Y-118892598D01*
X165570780Y-118953921D01*
X165565796Y-119023613D01*
X165537295Y-119067960D01*
X165455718Y-119149536D01*
X165357648Y-119305613D01*
X165296764Y-119479607D01*
X165281303Y-119616836D01*
X165281303Y-120343721D01*
X165296764Y-120480950D01*
X165331733Y-120580883D01*
X165356149Y-120650662D01*
X165357648Y-120654944D01*
X165455718Y-120811021D01*
X165537295Y-120892598D01*
X165570780Y-120953921D01*
X165565796Y-121023613D01*
X165537295Y-121067960D01*
X165455718Y-121149536D01*
X165357648Y-121305613D01*
X165296764Y-121479607D01*
X165281303Y-121616836D01*
X165281303Y-122343721D01*
X165296764Y-122480950D01*
X165357648Y-122654944D01*
X165455718Y-122811021D01*
X165537648Y-122892951D01*
X165571133Y-122954274D01*
X165566149Y-123023966D01*
X165537649Y-123068313D01*
X165456110Y-123149852D01*
X165358099Y-123305835D01*
X165297255Y-123479719D01*
X165297254Y-123479725D01*
X165281803Y-123616860D01*
X165281803Y-123730279D01*
X169231803Y-123730279D01*
X169231803Y-123616864D01*
X169231802Y-123616860D01*
X169216351Y-123479725D01*
X169216350Y-123479719D01*
X169155506Y-123305835D01*
X169057494Y-123149850D01*
X168975957Y-123068313D01*
X168942472Y-123006990D01*
X168947456Y-122937298D01*
X168975953Y-122892955D01*
X169057888Y-122811021D01*
X169155959Y-122654942D01*
X169216840Y-122480953D01*
X169224822Y-122410104D01*
X169251887Y-122345694D01*
X169260351Y-122336319D01*
X173012699Y-118583972D01*
X173012703Y-118583970D01*
X173099828Y-118496845D01*
X173168281Y-118394398D01*
X173215433Y-118280564D01*
X173239470Y-118159718D01*
X173239470Y-117571898D01*
X173259155Y-117504859D01*
X173311959Y-117459104D01*
X173381117Y-117449160D01*
X173444673Y-117478185D01*
X173451151Y-117484217D01*
X180303243Y-124336309D01*
X180336728Y-124397632D01*
X180338782Y-124410105D01*
X180346764Y-124480947D01*
X180346765Y-124480952D01*
X180346766Y-124480953D01*
X180360241Y-124519462D01*
X180407647Y-124654943D01*
X180505521Y-124810707D01*
X180505718Y-124811021D01*
X180636061Y-124941364D01*
X180792140Y-125039435D01*
X180924362Y-125085701D01*
X180966131Y-125100317D01*
X181053893Y-125110204D01*
X181103360Y-125115778D01*
X181103361Y-125115779D01*
X181103365Y-125115779D01*
X183510245Y-125115779D01*
X183510245Y-125115778D01*
X183572476Y-125108766D01*
X183647474Y-125100317D01*
X183648877Y-125099826D01*
X183821466Y-125039435D01*
X183977545Y-124941364D01*
X184107888Y-124811021D01*
X184205959Y-124654942D01*
X184266840Y-124480953D01*
X184266840Y-124480952D01*
X184266841Y-124480950D01*
X184276228Y-124397632D01*
X184282303Y-124343717D01*
X184282303Y-123616841D01*
X184276728Y-123567369D01*
X184266841Y-123479607D01*
X184252225Y-123437838D01*
X184205959Y-123305616D01*
X184107888Y-123149537D01*
X184026311Y-123067960D01*
X183992826Y-123006637D01*
X183997810Y-122936945D01*
X184026311Y-122892598D01*
X184107888Y-122811021D01*
X184205959Y-122654942D01*
X184266840Y-122480953D01*
X184266840Y-122480952D01*
X184266841Y-122480950D01*
X184276804Y-122392521D01*
X184282303Y-122343717D01*
X184282303Y-121616841D01*
X184276728Y-121567369D01*
X184266841Y-121479607D01*
X184252225Y-121437838D01*
X184205959Y-121305616D01*
X184107888Y-121149537D01*
X184026311Y-121067960D01*
X183992826Y-121006637D01*
X183997810Y-120936945D01*
X184026311Y-120892598D01*
X184107888Y-120811021D01*
X184205959Y-120654942D01*
X184266840Y-120480953D01*
X184266840Y-120480952D01*
X184266841Y-120480950D01*
X184275290Y-120405952D01*
X184282303Y-120343717D01*
X184282303Y-119616841D01*
X184276728Y-119567369D01*
X184266841Y-119479607D01*
X184218891Y-119342575D01*
X184205959Y-119305616D01*
X184107888Y-119149537D01*
X184026311Y-119067960D01*
X183992826Y-119006637D01*
X183997810Y-118936945D01*
X184026311Y-118892598D01*
X184047110Y-118871799D01*
X184107888Y-118811021D01*
X184121847Y-118788806D01*
X184174182Y-118742515D01*
X184226840Y-118730779D01*
X184746890Y-118730779D01*
X184813929Y-118750464D01*
X184819776Y-118754461D01*
X184821137Y-118755450D01*
X184994059Y-118832441D01*
X184994064Y-118832443D01*
X185179221Y-118871799D01*
X185179222Y-118871799D01*
X185368511Y-118871799D01*
X185368513Y-118871799D01*
X185553670Y-118832443D01*
X185726597Y-118755450D01*
X185879738Y-118644187D01*
X186006400Y-118503515D01*
X186101046Y-118339583D01*
X186159541Y-118159555D01*
X186179327Y-117971299D01*
X186159541Y-117783043D01*
X186101046Y-117603015D01*
X186006400Y-117439083D01*
X185879738Y-117298411D01*
X185879737Y-117298410D01*
X185726601Y-117187150D01*
X185726596Y-117187147D01*
X185553674Y-117110156D01*
X185553669Y-117110154D01*
X185407868Y-117079164D01*
X185368513Y-117070799D01*
X185179221Y-117070799D01*
X185146764Y-117077697D01*
X184994064Y-117110154D01*
X184994059Y-117110156D01*
X184821137Y-117187147D01*
X184821132Y-117187150D01*
X184795055Y-117206097D01*
X184729249Y-117229577D01*
X184722170Y-117229779D01*
X184226840Y-117229779D01*
X184159801Y-117210094D01*
X184121847Y-117171752D01*
X184107889Y-117149538D01*
X184026311Y-117067960D01*
X184001623Y-117022748D01*
X194841124Y-116992346D01*
X194841124Y-132386666D01*
X194821439Y-132453705D01*
X194768635Y-132499460D01*
X194717391Y-132510666D01*
X126505323Y-132657391D01*
X100008720Y-132657391D01*
X99941681Y-132637706D01*
X99895926Y-132584902D01*
X99884720Y-132533347D01*
X99886248Y-128198268D01*
X118542673Y-128198268D01*
X118542673Y-128410842D01*
X118575927Y-128620798D01*
X118641091Y-128821352D01*
X118641617Y-128822969D01*
X118738124Y-129012375D01*
X118863063Y-129184341D01*
X119013386Y-129334664D01*
X119185352Y-129459603D01*
X119185354Y-129459604D01*
X119185357Y-129459606D01*
X119374761Y-129556112D01*
X119576930Y-129621801D01*
X119786886Y-129655055D01*
X119786887Y-129655055D01*
X119999459Y-129655055D01*
X119999460Y-129655055D01*
X120209416Y-129621801D01*
X120411585Y-129556112D01*
X120600989Y-129459606D01*
X120622962Y-129443641D01*
X120772959Y-129334664D01*
X120772961Y-129334661D01*
X120772965Y-129334659D01*
X120923277Y-129184347D01*
X120923279Y-129184343D01*
X120923282Y-129184341D01*
X121048221Y-129012375D01*
X121048220Y-129012375D01*
X121048224Y-129012371D01*
X121144730Y-128822967D01*
X121210419Y-128620798D01*
X121243673Y-128410842D01*
X121243673Y-128271346D01*
X136829816Y-128271346D01*
X136829816Y-128271357D01*
X136850342Y-128519081D01*
X136850344Y-128519090D01*
X136911369Y-128760069D01*
X137011223Y-128987716D01*
X137111521Y-129141234D01*
X137811169Y-128441586D01*
X137822439Y-128483644D01*
X137894847Y-128609060D01*
X137997249Y-128711462D01*
X138122665Y-128783870D01*
X138164722Y-128795139D01*
X137464899Y-129494961D01*
X137511725Y-129531407D01*
X137511727Y-129531408D01*
X137730342Y-129649716D01*
X137730353Y-129649721D01*
X137965463Y-129730435D01*
X138210664Y-129771352D01*
X138459250Y-129771352D01*
X138704450Y-129730435D01*
X138939560Y-129649721D01*
X138939571Y-129649716D01*
X139158185Y-129531409D01*
X139158188Y-129531407D01*
X139205013Y-129494961D01*
X138505191Y-128795139D01*
X138547249Y-128783870D01*
X138672665Y-128711462D01*
X138775067Y-128609060D01*
X138847475Y-128483644D01*
X138858744Y-128441587D01*
X139558391Y-129141234D01*
X139658688Y-128987721D01*
X139758544Y-128760069D01*
X139819569Y-128519090D01*
X139819571Y-128519081D01*
X139840098Y-128271357D01*
X139840098Y-128271346D01*
X143329816Y-128271346D01*
X143329816Y-128271357D01*
X143350342Y-128519081D01*
X143350344Y-128519090D01*
X143411369Y-128760069D01*
X143511223Y-128987716D01*
X143611521Y-129141234D01*
X144311169Y-128441586D01*
X144322439Y-128483644D01*
X144394847Y-128609060D01*
X144497249Y-128711462D01*
X144622665Y-128783870D01*
X144664722Y-128795139D01*
X143964899Y-129494961D01*
X144011725Y-129531407D01*
X144011727Y-129531408D01*
X144230342Y-129649716D01*
X144230353Y-129649721D01*
X144465463Y-129730435D01*
X144710664Y-129771352D01*
X144959250Y-129771352D01*
X145204450Y-129730435D01*
X145439560Y-129649721D01*
X145439571Y-129649716D01*
X145658185Y-129531409D01*
X145658188Y-129531407D01*
X145705013Y-129494961D01*
X145005191Y-128795139D01*
X145047249Y-128783870D01*
X145172665Y-128711462D01*
X145275067Y-128609060D01*
X145347475Y-128483644D01*
X145358744Y-128441587D01*
X146058391Y-129141234D01*
X146158688Y-128987721D01*
X146258544Y-128760069D01*
X146319569Y-128519090D01*
X146319571Y-128519081D01*
X146340098Y-128271357D01*
X146340098Y-128271346D01*
X153829816Y-128271346D01*
X153829816Y-128271357D01*
X153850342Y-128519081D01*
X153850344Y-128519090D01*
X153911369Y-128760069D01*
X154011223Y-128987716D01*
X154111521Y-129141234D01*
X154811169Y-128441586D01*
X154822439Y-128483644D01*
X154894847Y-128609060D01*
X154997249Y-128711462D01*
X155122665Y-128783870D01*
X155164722Y-128795139D01*
X154464899Y-129494961D01*
X154511725Y-129531407D01*
X154511727Y-129531408D01*
X154730342Y-129649716D01*
X154730353Y-129649721D01*
X154965463Y-129730435D01*
X155210664Y-129771352D01*
X155459250Y-129771352D01*
X155704450Y-129730435D01*
X155939560Y-129649721D01*
X155939571Y-129649716D01*
X156158185Y-129531409D01*
X156158188Y-129531407D01*
X156205013Y-129494961D01*
X155505191Y-128795139D01*
X155547249Y-128783870D01*
X155672665Y-128711462D01*
X155775067Y-128609060D01*
X155847475Y-128483644D01*
X155858744Y-128441587D01*
X156558391Y-129141234D01*
X156658688Y-128987721D01*
X156758544Y-128760069D01*
X156819569Y-128519090D01*
X156819571Y-128519081D01*
X156840098Y-128271357D01*
X156840098Y-128271346D01*
X160329816Y-128271346D01*
X160329816Y-128271357D01*
X160350342Y-128519081D01*
X160350344Y-128519090D01*
X160411369Y-128760069D01*
X160511223Y-128987716D01*
X160611521Y-129141234D01*
X161311169Y-128441586D01*
X161322439Y-128483644D01*
X161394847Y-128609060D01*
X161497249Y-128711462D01*
X161622665Y-128783870D01*
X161664722Y-128795139D01*
X160964899Y-129494961D01*
X161011725Y-129531407D01*
X161011727Y-129531408D01*
X161230342Y-129649716D01*
X161230353Y-129649721D01*
X161465463Y-129730435D01*
X161710664Y-129771352D01*
X161959250Y-129771352D01*
X162204450Y-129730435D01*
X162439560Y-129649721D01*
X162439571Y-129649716D01*
X162658185Y-129531409D01*
X162658188Y-129531407D01*
X162705013Y-129494961D01*
X162005191Y-128795139D01*
X162047249Y-128783870D01*
X162172665Y-128711462D01*
X162275067Y-128609060D01*
X162347475Y-128483644D01*
X162358744Y-128441587D01*
X163058391Y-129141234D01*
X163158688Y-128987721D01*
X163258544Y-128760069D01*
X163319569Y-128519090D01*
X163319571Y-128519081D01*
X163340098Y-128271357D01*
X163340098Y-128271346D01*
X163334043Y-128198268D01*
X173451056Y-128198268D01*
X173451056Y-128410842D01*
X173484310Y-128620798D01*
X173549474Y-128821352D01*
X173550000Y-128822969D01*
X173646507Y-129012375D01*
X173771446Y-129184341D01*
X173921769Y-129334664D01*
X174093735Y-129459603D01*
X174093737Y-129459604D01*
X174093740Y-129459606D01*
X174283144Y-129556112D01*
X174485313Y-129621801D01*
X174695269Y-129655055D01*
X174695270Y-129655055D01*
X174907842Y-129655055D01*
X174907843Y-129655055D01*
X175117799Y-129621801D01*
X175319968Y-129556112D01*
X175509372Y-129459606D01*
X175531345Y-129443641D01*
X175681342Y-129334664D01*
X175681344Y-129334661D01*
X175681348Y-129334659D01*
X175831660Y-129184347D01*
X175831662Y-129184343D01*
X175831665Y-129184341D01*
X175956604Y-129012375D01*
X175956603Y-129012375D01*
X175956607Y-129012371D01*
X176053113Y-128822967D01*
X176118802Y-128620798D01*
X176152056Y-128410842D01*
X176152056Y-128198268D01*
X176118802Y-127988312D01*
X176053113Y-127786143D01*
X175956607Y-127596739D01*
X175956605Y-127596736D01*
X175956604Y-127596734D01*
X175831665Y-127424768D01*
X175681342Y-127274445D01*
X175509376Y-127149506D01*
X175319970Y-127052999D01*
X175319969Y-127052998D01*
X175319968Y-127052998D01*
X175117799Y-126987309D01*
X175117797Y-126987308D01*
X175117796Y-126987308D01*
X174956513Y-126961763D01*
X174907843Y-126954055D01*
X174695269Y-126954055D01*
X174646598Y-126961763D01*
X174485316Y-126987308D01*
X174283141Y-127052999D01*
X174093735Y-127149506D01*
X173921769Y-127274445D01*
X173771446Y-127424768D01*
X173646507Y-127596734D01*
X173550000Y-127786140D01*
X173484309Y-127988315D01*
X173451056Y-128198268D01*
X163334043Y-128198268D01*
X163319571Y-128023622D01*
X163319569Y-128023613D01*
X163258544Y-127782634D01*
X163158688Y-127554982D01*
X163058391Y-127401468D01*
X162358744Y-128101116D01*
X162347475Y-128059060D01*
X162275067Y-127933644D01*
X162172665Y-127831242D01*
X162047249Y-127758834D01*
X162005192Y-127747564D01*
X162705014Y-127047742D01*
X162705013Y-127047741D01*
X162658186Y-127011295D01*
X162439571Y-126892987D01*
X162439560Y-126892982D01*
X162204450Y-126812268D01*
X161959250Y-126771352D01*
X161710664Y-126771352D01*
X161465463Y-126812268D01*
X161230353Y-126892982D01*
X161230347Y-126892984D01*
X161011718Y-127011301D01*
X160964899Y-127047740D01*
X160964899Y-127047742D01*
X161664722Y-127747564D01*
X161622665Y-127758834D01*
X161497249Y-127831242D01*
X161394847Y-127933644D01*
X161322439Y-128059060D01*
X161311169Y-128101116D01*
X160611521Y-127401468D01*
X160511224Y-127554984D01*
X160411369Y-127782634D01*
X160350344Y-128023613D01*
X160350342Y-128023622D01*
X160329816Y-128271346D01*
X156840098Y-128271346D01*
X156819571Y-128023622D01*
X156819569Y-128023613D01*
X156758544Y-127782634D01*
X156658688Y-127554982D01*
X156558391Y-127401468D01*
X155858744Y-128101116D01*
X155847475Y-128059060D01*
X155775067Y-127933644D01*
X155672665Y-127831242D01*
X155547249Y-127758834D01*
X155505192Y-127747564D01*
X156205014Y-127047742D01*
X156205013Y-127047741D01*
X156158186Y-127011295D01*
X155939571Y-126892987D01*
X155939560Y-126892982D01*
X155704450Y-126812268D01*
X155459250Y-126771352D01*
X155210664Y-126771352D01*
X154965463Y-126812268D01*
X154730353Y-126892982D01*
X154730347Y-126892984D01*
X154511718Y-127011301D01*
X154464899Y-127047740D01*
X154464899Y-127047742D01*
X155164722Y-127747564D01*
X155122665Y-127758834D01*
X154997249Y-127831242D01*
X154894847Y-127933644D01*
X154822439Y-128059060D01*
X154811169Y-128101116D01*
X154111521Y-127401468D01*
X154011224Y-127554984D01*
X153911369Y-127782634D01*
X153850344Y-128023613D01*
X153850342Y-128023622D01*
X153829816Y-128271346D01*
X146340098Y-128271346D01*
X146319571Y-128023622D01*
X146319569Y-128023613D01*
X146258544Y-127782634D01*
X146158688Y-127554982D01*
X146058391Y-127401468D01*
X145358744Y-128101116D01*
X145347475Y-128059060D01*
X145275067Y-127933644D01*
X145172665Y-127831242D01*
X145047249Y-127758834D01*
X145005192Y-127747564D01*
X145705014Y-127047742D01*
X145705013Y-127047741D01*
X145658186Y-127011295D01*
X145439571Y-126892987D01*
X145439560Y-126892982D01*
X145204450Y-126812268D01*
X144959250Y-126771352D01*
X144710664Y-126771352D01*
X144465463Y-126812268D01*
X144230353Y-126892982D01*
X144230347Y-126892984D01*
X144011718Y-127011301D01*
X143964899Y-127047740D01*
X143964899Y-127047742D01*
X144664722Y-127747564D01*
X144622665Y-127758834D01*
X144497249Y-127831242D01*
X144394847Y-127933644D01*
X144322439Y-128059060D01*
X144311169Y-128101116D01*
X143611521Y-127401468D01*
X143511224Y-127554984D01*
X143411369Y-127782634D01*
X143350344Y-128023613D01*
X143350342Y-128023622D01*
X143329816Y-128271346D01*
X139840098Y-128271346D01*
X139819571Y-128023622D01*
X139819569Y-128023613D01*
X139758544Y-127782634D01*
X139658688Y-127554982D01*
X139558391Y-127401468D01*
X138858744Y-128101116D01*
X138847475Y-128059060D01*
X138775067Y-127933644D01*
X138672665Y-127831242D01*
X138547249Y-127758834D01*
X138505192Y-127747564D01*
X139205014Y-127047742D01*
X139205013Y-127047741D01*
X139158186Y-127011295D01*
X138939571Y-126892987D01*
X138939560Y-126892982D01*
X138704450Y-126812268D01*
X138459250Y-126771352D01*
X138210664Y-126771352D01*
X137965463Y-126812268D01*
X137730353Y-126892982D01*
X137730347Y-126892984D01*
X137511718Y-127011301D01*
X137464899Y-127047740D01*
X137464899Y-127047742D01*
X138164722Y-127747564D01*
X138122665Y-127758834D01*
X137997249Y-127831242D01*
X137894847Y-127933644D01*
X137822439Y-128059060D01*
X137811169Y-128101116D01*
X137111521Y-127401468D01*
X137011224Y-127554984D01*
X136911369Y-127782634D01*
X136850344Y-128023613D01*
X136850342Y-128023622D01*
X136829816Y-128271346D01*
X121243673Y-128271346D01*
X121243673Y-128198268D01*
X121210419Y-127988312D01*
X121144730Y-127786143D01*
X121048224Y-127596739D01*
X121048222Y-127596736D01*
X121048221Y-127596734D01*
X120923282Y-127424768D01*
X120772959Y-127274445D01*
X120600993Y-127149506D01*
X120411587Y-127052999D01*
X120411586Y-127052998D01*
X120411585Y-127052998D01*
X120209416Y-126987309D01*
X120209414Y-126987308D01*
X120209413Y-126987308D01*
X120048130Y-126961763D01*
X119999460Y-126954055D01*
X119786886Y-126954055D01*
X119738215Y-126961763D01*
X119576933Y-126987308D01*
X119374758Y-127052999D01*
X119185352Y-127149506D01*
X119013386Y-127274445D01*
X118863063Y-127424768D01*
X118738124Y-127596734D01*
X118641617Y-127786140D01*
X118575926Y-127988315D01*
X118542673Y-128198268D01*
X99886248Y-128198268D01*
X99887808Y-123771346D01*
X136829314Y-123771346D01*
X136829314Y-123771357D01*
X136849847Y-124019164D01*
X136849849Y-124019176D01*
X136910893Y-124260233D01*
X137010783Y-124487958D01*
X137146790Y-124696134D01*
X137146793Y-124696137D01*
X137315213Y-124879090D01*
X137511448Y-125031826D01*
X137511450Y-125031827D01*
X137666579Y-125115779D01*
X137730147Y-125150180D01*
X137965343Y-125230923D01*
X138210622Y-125271852D01*
X138459292Y-125271852D01*
X138704571Y-125230923D01*
X138939767Y-125150180D01*
X139158466Y-125031826D01*
X139354701Y-124879090D01*
X139523121Y-124696137D01*
X139659130Y-124487959D01*
X139759020Y-124260233D01*
X139820065Y-124019173D01*
X139840600Y-123771352D01*
X139840600Y-123771346D01*
X143329314Y-123771346D01*
X143329314Y-123771357D01*
X143349847Y-124019164D01*
X143349849Y-124019176D01*
X143410893Y-124260233D01*
X143510783Y-124487958D01*
X143646790Y-124696134D01*
X143646793Y-124696137D01*
X143815213Y-124879090D01*
X144011448Y-125031826D01*
X144011450Y-125031827D01*
X144166579Y-125115779D01*
X144230147Y-125150180D01*
X144465343Y-125230923D01*
X144710622Y-125271852D01*
X144959292Y-125271852D01*
X145204571Y-125230923D01*
X145439767Y-125150180D01*
X145658466Y-125031826D01*
X145854701Y-124879090D01*
X146023121Y-124696137D01*
X146159130Y-124487959D01*
X146259020Y-124260233D01*
X146320065Y-124019173D01*
X146340600Y-123771352D01*
X146340600Y-123771346D01*
X153829314Y-123771346D01*
X153829314Y-123771357D01*
X153849847Y-124019164D01*
X153849849Y-124019176D01*
X153910893Y-124260233D01*
X154010783Y-124487958D01*
X154146790Y-124696134D01*
X154146793Y-124696137D01*
X154315213Y-124879090D01*
X154511448Y-125031826D01*
X154511450Y-125031827D01*
X154666579Y-125115779D01*
X154730147Y-125150180D01*
X154965343Y-125230923D01*
X155210622Y-125271852D01*
X155459292Y-125271852D01*
X155704571Y-125230923D01*
X155939767Y-125150180D01*
X156158466Y-125031826D01*
X156354701Y-124879090D01*
X156523121Y-124696137D01*
X156659130Y-124487959D01*
X156759020Y-124260233D01*
X156820065Y-124019173D01*
X156840600Y-123771352D01*
X156840600Y-123771346D01*
X160329314Y-123771346D01*
X160329314Y-123771357D01*
X160349847Y-124019164D01*
X160349849Y-124019176D01*
X160410893Y-124260233D01*
X160510783Y-124487958D01*
X160646790Y-124696134D01*
X160646793Y-124696137D01*
X160815213Y-124879090D01*
X161011448Y-125031826D01*
X161011450Y-125031827D01*
X161166579Y-125115779D01*
X161230147Y-125150180D01*
X161465343Y-125230923D01*
X161710622Y-125271852D01*
X161959292Y-125271852D01*
X162204571Y-125230923D01*
X162439767Y-125150180D01*
X162658466Y-125031826D01*
X162854701Y-124879090D01*
X163023121Y-124696137D01*
X163159130Y-124487959D01*
X163222409Y-124343697D01*
X165281803Y-124343697D01*
X165297254Y-124480832D01*
X165297255Y-124480838D01*
X165358099Y-124654722D01*
X165456111Y-124810707D01*
X165586374Y-124940970D01*
X165742359Y-125038982D01*
X165916243Y-125099826D01*
X165916249Y-125099827D01*
X166053384Y-125115278D01*
X166053388Y-125115279D01*
X167006803Y-125115279D01*
X167506803Y-125115279D01*
X168460218Y-125115279D01*
X168460221Y-125115278D01*
X168597356Y-125099827D01*
X168597362Y-125099826D01*
X168771246Y-125038982D01*
X168927231Y-124940970D01*
X169057494Y-124810707D01*
X169155506Y-124654722D01*
X169216350Y-124480838D01*
X169216351Y-124480832D01*
X169231802Y-124343697D01*
X169231803Y-124343693D01*
X169231803Y-124230279D01*
X167506803Y-124230279D01*
X167506803Y-125115279D01*
X167006803Y-125115279D01*
X167006803Y-124230279D01*
X165281803Y-124230279D01*
X165281803Y-124343697D01*
X163222409Y-124343697D01*
X163259020Y-124260233D01*
X163320065Y-124019173D01*
X163340600Y-123771352D01*
X163327798Y-123616860D01*
X163320066Y-123523539D01*
X163320064Y-123523527D01*
X163259020Y-123282470D01*
X163159130Y-123054745D01*
X163023123Y-122846569D01*
X162990396Y-122811018D01*
X162854701Y-122663614D01*
X162658466Y-122510878D01*
X162658464Y-122510877D01*
X162658463Y-122510876D01*
X162439768Y-122392524D01*
X162439759Y-122392521D01*
X162204573Y-122311781D01*
X161959292Y-122270852D01*
X161710622Y-122270852D01*
X161465340Y-122311781D01*
X161230154Y-122392521D01*
X161230145Y-122392524D01*
X161011450Y-122510876D01*
X160815214Y-122663613D01*
X160646790Y-122846569D01*
X160510783Y-123054745D01*
X160410893Y-123282470D01*
X160349849Y-123523527D01*
X160349847Y-123523539D01*
X160329314Y-123771346D01*
X156840600Y-123771346D01*
X156827798Y-123616860D01*
X156820066Y-123523539D01*
X156820064Y-123523527D01*
X156759020Y-123282470D01*
X156659130Y-123054745D01*
X156523123Y-122846569D01*
X156490396Y-122811018D01*
X156354701Y-122663614D01*
X156158466Y-122510878D01*
X156158464Y-122510877D01*
X156158463Y-122510876D01*
X155939768Y-122392524D01*
X155939759Y-122392521D01*
X155704573Y-122311781D01*
X155459292Y-122270852D01*
X155210622Y-122270852D01*
X154965340Y-122311781D01*
X154730154Y-122392521D01*
X154730145Y-122392524D01*
X154511450Y-122510876D01*
X154315214Y-122663613D01*
X154146790Y-122846569D01*
X154010783Y-123054745D01*
X153910893Y-123282470D01*
X153849849Y-123523527D01*
X153849847Y-123523539D01*
X153829314Y-123771346D01*
X146340600Y-123771346D01*
X146327798Y-123616860D01*
X146320066Y-123523539D01*
X146320064Y-123523527D01*
X146259020Y-123282470D01*
X146159130Y-123054745D01*
X146023123Y-122846569D01*
X145990396Y-122811018D01*
X145854701Y-122663614D01*
X145658466Y-122510878D01*
X145658464Y-122510877D01*
X145658463Y-122510876D01*
X145439768Y-122392524D01*
X145439759Y-122392521D01*
X145204573Y-122311781D01*
X144959292Y-122270852D01*
X144710622Y-122270852D01*
X144465340Y-122311781D01*
X144230154Y-122392521D01*
X144230145Y-122392524D01*
X144011450Y-122510876D01*
X143815214Y-122663613D01*
X143646790Y-122846569D01*
X143510783Y-123054745D01*
X143410893Y-123282470D01*
X143349849Y-123523527D01*
X143349847Y-123523539D01*
X143329314Y-123771346D01*
X139840600Y-123771346D01*
X139827798Y-123616860D01*
X139820066Y-123523539D01*
X139820064Y-123523527D01*
X139759020Y-123282470D01*
X139659130Y-123054745D01*
X139523123Y-122846569D01*
X139490396Y-122811018D01*
X139354701Y-122663614D01*
X139158466Y-122510878D01*
X139158464Y-122510877D01*
X139158463Y-122510876D01*
X138939768Y-122392524D01*
X138939759Y-122392521D01*
X138704573Y-122311781D01*
X138459292Y-122270852D01*
X138210622Y-122270852D01*
X137965340Y-122311781D01*
X137730154Y-122392521D01*
X137730145Y-122392524D01*
X137511450Y-122510876D01*
X137315214Y-122663613D01*
X137146790Y-122846569D01*
X137010783Y-123054745D01*
X136910893Y-123282470D01*
X136849849Y-123523527D01*
X136849847Y-123523539D01*
X136829314Y-123771346D01*
X99887808Y-123771346D01*
X99889125Y-120033212D01*
X99890416Y-116369710D01*
X100824065Y-116369710D01*
X100824065Y-117815445D01*
X100824066Y-117815451D01*
X100830473Y-117875058D01*
X100880767Y-118009903D01*
X100880771Y-118009910D01*
X100967017Y-118125119D01*
X100967020Y-118125122D01*
X101053069Y-118189539D01*
X101094940Y-118245473D01*
X101099924Y-118315164D01*
X101077713Y-118363531D01*
X100996279Y-118471367D01*
X100899216Y-118666294D01*
X100849059Y-118842574D01*
X100849060Y-118842575D01*
X101683879Y-118842575D01*
X101679485Y-118846969D01*
X101626824Y-118938181D01*
X101599565Y-119039914D01*
X101599565Y-119145236D01*
X101626824Y-119246969D01*
X101679485Y-119338181D01*
X101683879Y-119342575D01*
X100849060Y-119342575D01*
X100899216Y-119518855D01*
X100996280Y-119713783D01*
X101127510Y-119887560D01*
X101288433Y-120034260D01*
X101473577Y-120148897D01*
X101473588Y-120148902D01*
X101676625Y-120227559D01*
X101749565Y-120241194D01*
X101749565Y-119408261D01*
X101753959Y-119412655D01*
X101845171Y-119465316D01*
X101946904Y-119492575D01*
X102052226Y-119492575D01*
X102153959Y-119465316D01*
X102245171Y-119412655D01*
X102249565Y-119408261D01*
X102249565Y-120241194D01*
X102322504Y-120227559D01*
X102525541Y-120148902D01*
X102525552Y-120148897D01*
X102710695Y-120034260D01*
X102710696Y-120034260D01*
X102871619Y-119887560D01*
X103002849Y-119713783D01*
X103099913Y-119518855D01*
X103150070Y-119342575D01*
X102315251Y-119342575D01*
X102319645Y-119338181D01*
X102372306Y-119246969D01*
X102399565Y-119145236D01*
X102399565Y-119039914D01*
X102372306Y-118938181D01*
X102319645Y-118846969D01*
X102315251Y-118842575D01*
X103150070Y-118842575D01*
X103150070Y-118842574D01*
X103099913Y-118666294D01*
X103002849Y-118471366D01*
X102921417Y-118363532D01*
X102896725Y-118298170D01*
X102911290Y-118229836D01*
X102946058Y-118189540D01*
X103032111Y-118125121D01*
X103118361Y-118009906D01*
X103168656Y-117875058D01*
X103175065Y-117815448D01*
X103175064Y-116961014D01*
X107175654Y-116961014D01*
X107195167Y-117208948D01*
X107253224Y-117450773D01*
X107348395Y-117680537D01*
X107478336Y-117892582D01*
X107478337Y-117892584D01*
X107488112Y-117904029D01*
X107639856Y-118081698D01*
X107766122Y-118189539D01*
X107828969Y-118243216D01*
X107828971Y-118243217D01*
X108041016Y-118373158D01*
X108270780Y-118468329D01*
X108270781Y-118468329D01*
X108270783Y-118468330D01*
X108512609Y-118526387D01*
X108760540Y-118545900D01*
X109008471Y-118526387D01*
X109250297Y-118468330D01*
X109480063Y-118373158D01*
X109692113Y-118243214D01*
X109881224Y-118081698D01*
X110042740Y-117892587D01*
X110172684Y-117680537D01*
X110267856Y-117450771D01*
X110325913Y-117208945D01*
X110345426Y-116961014D01*
X110325913Y-116713083D01*
X110275996Y-116505164D01*
X118954579Y-116505164D01*
X118954579Y-119133595D01*
X118954580Y-119133610D01*
X118964983Y-119265800D01*
X118964984Y-119265807D01*
X119019981Y-119484065D01*
X119019982Y-119484068D01*
X119113070Y-119689009D01*
X119113076Y-119689019D01*
X119241253Y-119874032D01*
X119241257Y-119874037D01*
X119241260Y-119874041D01*
X119400425Y-120033206D01*
X119400429Y-120033209D01*
X119400433Y-120033212D01*
X119401946Y-120034260D01*
X119585453Y-120161394D01*
X119790396Y-120254483D01*
X119790400Y-120254484D01*
X120008658Y-120309481D01*
X120008660Y-120309481D01*
X120008667Y-120309483D01*
X120140862Y-120319887D01*
X121769295Y-120319886D01*
X121901491Y-120309483D01*
X122119762Y-120254483D01*
X122324705Y-120161394D01*
X122509733Y-120033206D01*
X122668898Y-119874041D01*
X122797086Y-119689013D01*
X122890175Y-119484070D01*
X122945175Y-119265799D01*
X122955579Y-119133604D01*
X122955578Y-116505171D01*
X122955577Y-116505164D01*
X127754579Y-116505164D01*
X127754579Y-119133595D01*
X127754580Y-119133610D01*
X127764983Y-119265800D01*
X127764984Y-119265807D01*
X127819981Y-119484065D01*
X127819982Y-119484068D01*
X127913070Y-119689009D01*
X127913076Y-119689019D01*
X128041253Y-119874032D01*
X128041257Y-119874037D01*
X128041260Y-119874041D01*
X128200425Y-120033206D01*
X128200429Y-120033209D01*
X128200433Y-120033212D01*
X128201946Y-120034260D01*
X128385453Y-120161394D01*
X128590396Y-120254483D01*
X128590400Y-120254484D01*
X128808658Y-120309481D01*
X128808660Y-120309481D01*
X128808667Y-120309483D01*
X128940862Y-120319887D01*
X130569295Y-120319886D01*
X130701491Y-120309483D01*
X130919762Y-120254483D01*
X131124705Y-120161394D01*
X131309733Y-120033206D01*
X131468898Y-119874041D01*
X131597086Y-119689013D01*
X131690175Y-119484070D01*
X131745175Y-119265799D01*
X131755579Y-119133604D01*
X131755578Y-116505171D01*
X131745175Y-116372975D01*
X131744352Y-116369710D01*
X131690176Y-116154708D01*
X131690175Y-116154705D01*
X131647171Y-116060029D01*
X131597086Y-115949761D01*
X131468898Y-115764733D01*
X131309733Y-115605568D01*
X131309729Y-115605565D01*
X131309724Y-115605561D01*
X131124711Y-115477384D01*
X131124709Y-115477382D01*
X131124705Y-115477380D01*
X131072567Y-115453698D01*
X130919760Y-115384290D01*
X130919757Y-115384289D01*
X130701499Y-115329292D01*
X130701492Y-115329291D01*
X130657426Y-115325823D01*
X130569296Y-115318887D01*
X130569294Y-115318887D01*
X128940870Y-115318887D01*
X128940855Y-115318888D01*
X128808665Y-115329291D01*
X128808658Y-115329292D01*
X128590400Y-115384289D01*
X128590397Y-115384290D01*
X128385456Y-115477378D01*
X128385446Y-115477384D01*
X128200433Y-115605561D01*
X128200421Y-115605571D01*
X128041263Y-115764729D01*
X128041253Y-115764741D01*
X127913076Y-115949754D01*
X127913070Y-115949764D01*
X127819982Y-116154705D01*
X127819981Y-116154708D01*
X127764984Y-116372966D01*
X127764983Y-116372973D01*
X127754579Y-116505164D01*
X122955577Y-116505164D01*
X122945175Y-116372975D01*
X122944352Y-116369710D01*
X122890176Y-116154708D01*
X122890175Y-116154705D01*
X122847171Y-116060029D01*
X122797086Y-115949761D01*
X122668898Y-115764733D01*
X122509733Y-115605568D01*
X122509729Y-115605565D01*
X122509724Y-115605561D01*
X122324711Y-115477384D01*
X122324709Y-115477382D01*
X122324705Y-115477380D01*
X122272567Y-115453698D01*
X122119760Y-115384290D01*
X122119757Y-115384289D01*
X121901499Y-115329292D01*
X121901492Y-115329291D01*
X121857426Y-115325823D01*
X121769296Y-115318887D01*
X121769294Y-115318887D01*
X120140870Y-115318887D01*
X120140855Y-115318888D01*
X120008665Y-115329291D01*
X120008658Y-115329292D01*
X119790400Y-115384289D01*
X119790397Y-115384290D01*
X119585456Y-115477378D01*
X119585446Y-115477384D01*
X119400433Y-115605561D01*
X119400421Y-115605571D01*
X119241263Y-115764729D01*
X119241253Y-115764741D01*
X119113076Y-115949754D01*
X119113070Y-115949764D01*
X119019982Y-116154705D01*
X119019981Y-116154708D01*
X118964984Y-116372966D01*
X118964983Y-116372973D01*
X118954579Y-116505164D01*
X110275996Y-116505164D01*
X110267856Y-116471257D01*
X110267855Y-116471254D01*
X110172684Y-116241490D01*
X110042743Y-116029445D01*
X110042742Y-116029443D01*
X109946770Y-115917075D01*
X109881224Y-115840330D01*
X109756193Y-115733544D01*
X109692110Y-115678811D01*
X109692108Y-115678810D01*
X109480063Y-115548869D01*
X109250299Y-115453698D01*
X109008474Y-115395641D01*
X108760540Y-115376128D01*
X108512605Y-115395641D01*
X108270780Y-115453698D01*
X108041016Y-115548869D01*
X107828971Y-115678810D01*
X107828969Y-115678811D01*
X107639856Y-115840330D01*
X107478337Y-116029443D01*
X107478336Y-116029445D01*
X107348395Y-116241490D01*
X107253224Y-116471254D01*
X107195167Y-116713079D01*
X107175654Y-116961014D01*
X103175064Y-116961014D01*
X103175064Y-116369703D01*
X103168656Y-116310092D01*
X103118361Y-116175244D01*
X103118360Y-116175243D01*
X103118358Y-116175239D01*
X103032112Y-116060030D01*
X103032109Y-116060027D01*
X102916900Y-115973781D01*
X102916893Y-115973777D01*
X102782047Y-115923483D01*
X102782048Y-115923483D01*
X102722448Y-115917076D01*
X102722446Y-115917075D01*
X102722438Y-115917075D01*
X102722429Y-115917075D01*
X101276694Y-115917075D01*
X101276688Y-115917076D01*
X101217081Y-115923483D01*
X101082236Y-115973777D01*
X101082229Y-115973781D01*
X100967020Y-116060027D01*
X100967017Y-116060030D01*
X100880771Y-116175239D01*
X100880767Y-116175246D01*
X100830473Y-116310092D01*
X100826858Y-116343721D01*
X100824066Y-116369698D01*
X100824065Y-116369710D01*
X99890416Y-116369710D01*
X99891829Y-112361013D01*
X107175654Y-112361013D01*
X107195167Y-112608947D01*
X107253224Y-112850772D01*
X107348395Y-113080536D01*
X107478336Y-113292581D01*
X107478337Y-113292583D01*
X107533070Y-113356666D01*
X107639856Y-113481697D01*
X107786246Y-113606726D01*
X107828969Y-113643215D01*
X107828971Y-113643216D01*
X108041016Y-113773157D01*
X108270780Y-113868328D01*
X108270781Y-113868328D01*
X108270783Y-113868329D01*
X108512609Y-113926386D01*
X108760540Y-113945899D01*
X109008471Y-113926386D01*
X109250297Y-113868329D01*
X109480063Y-113773157D01*
X109692113Y-113643213D01*
X109881224Y-113481697D01*
X110042740Y-113292586D01*
X110172684Y-113080536D01*
X110267856Y-112850770D01*
X110325913Y-112608944D01*
X110345426Y-112361013D01*
X110325913Y-112113082D01*
X110267856Y-111871256D01*
X110261839Y-111856729D01*
X110172684Y-111641489D01*
X110042743Y-111429444D01*
X110042742Y-111429442D01*
X110006253Y-111386719D01*
X109881224Y-111240329D01*
X109717290Y-111100316D01*
X109692110Y-111078810D01*
X109692108Y-111078809D01*
X109480063Y-110948868D01*
X109250299Y-110853697D01*
X109008474Y-110795640D01*
X108760540Y-110776127D01*
X108512605Y-110795640D01*
X108270780Y-110853697D01*
X108041016Y-110948868D01*
X107828971Y-111078809D01*
X107828969Y-111078810D01*
X107639856Y-111240329D01*
X107478337Y-111429442D01*
X107478336Y-111429444D01*
X107348395Y-111641489D01*
X107253224Y-111871253D01*
X107195167Y-112113078D01*
X107175654Y-112361013D01*
X99891829Y-112361013D01*
X99892706Y-109871522D01*
X121454579Y-109871522D01*
X121454579Y-111767257D01*
X121454580Y-111767263D01*
X121460987Y-111826870D01*
X121511281Y-111961715D01*
X121511285Y-111961722D01*
X121597531Y-112076931D01*
X121597534Y-112076934D01*
X121712743Y-112163180D01*
X121712750Y-112163184D01*
X121847596Y-112213478D01*
X121847595Y-112213478D01*
X121854523Y-112214222D01*
X121907206Y-112219887D01*
X123802951Y-112219886D01*
X123862562Y-112213478D01*
X123997410Y-112163183D01*
X124112625Y-112076933D01*
X124198875Y-111961718D01*
X124217171Y-111912661D01*
X124259040Y-111856729D01*
X124324504Y-111832311D01*
X124392778Y-111847162D01*
X124409515Y-111858142D01*
X124586444Y-111995851D01*
X124586450Y-111995855D01*
X124586453Y-111995857D01*
X124790576Y-112106323D01*
X124892268Y-112141234D01*
X125010094Y-112181684D01*
X125010096Y-112181684D01*
X125010098Y-112181685D01*
X125239030Y-112219887D01*
X125239031Y-112219887D01*
X125471127Y-112219887D01*
X125471128Y-112219887D01*
X125700060Y-112181685D01*
X125919582Y-112106323D01*
X126123705Y-111995857D01*
X126306863Y-111853300D01*
X126464058Y-111682540D01*
X126501270Y-111625583D01*
X126554416Y-111580226D01*
X126623648Y-111570802D01*
X126686983Y-111600304D01*
X126708888Y-111625583D01*
X126746095Y-111682534D01*
X126746098Y-111682538D01*
X126746100Y-111682540D01*
X126903295Y-111853300D01*
X126903298Y-111853302D01*
X126903301Y-111853305D01*
X127086444Y-111995851D01*
X127086450Y-111995855D01*
X127086453Y-111995857D01*
X127290576Y-112106323D01*
X127392268Y-112141234D01*
X127510094Y-112181684D01*
X127510096Y-112181684D01*
X127510098Y-112181685D01*
X127739030Y-112219887D01*
X127739031Y-112219887D01*
X127971127Y-112219887D01*
X127971128Y-112219887D01*
X128200060Y-112181685D01*
X128419582Y-112106323D01*
X128623705Y-111995857D01*
X128806863Y-111853300D01*
X128964058Y-111682540D01*
X129091003Y-111488236D01*
X129184236Y-111275687D01*
X129185335Y-111271346D01*
X136829816Y-111271346D01*
X136829816Y-111271357D01*
X136850342Y-111519081D01*
X136850344Y-111519090D01*
X136911369Y-111760069D01*
X137011223Y-111987716D01*
X137111521Y-112141234D01*
X137811169Y-111441586D01*
X137822439Y-111483644D01*
X137894847Y-111609060D01*
X137997249Y-111711462D01*
X138122665Y-111783870D01*
X138164722Y-111795139D01*
X137464899Y-112494961D01*
X137511725Y-112531407D01*
X137511727Y-112531408D01*
X137730342Y-112649716D01*
X137730353Y-112649721D01*
X137965463Y-112730435D01*
X138210664Y-112771352D01*
X138459250Y-112771352D01*
X138704450Y-112730435D01*
X138939560Y-112649721D01*
X138939571Y-112649716D01*
X139158185Y-112531409D01*
X139158188Y-112531407D01*
X139205013Y-112494961D01*
X138505191Y-111795139D01*
X138547249Y-111783870D01*
X138672665Y-111711462D01*
X138775067Y-111609060D01*
X138847475Y-111483644D01*
X138858744Y-111441587D01*
X139558391Y-112141234D01*
X139658688Y-111987721D01*
X139758544Y-111760069D01*
X139819569Y-111519090D01*
X139819571Y-111519081D01*
X139840098Y-111271357D01*
X139840098Y-111271346D01*
X143329816Y-111271346D01*
X143329816Y-111271357D01*
X143350342Y-111519081D01*
X143350344Y-111519090D01*
X143411369Y-111760069D01*
X143511223Y-111987716D01*
X143611521Y-112141234D01*
X144311169Y-111441586D01*
X144322439Y-111483644D01*
X144394847Y-111609060D01*
X144497249Y-111711462D01*
X144622665Y-111783870D01*
X144664722Y-111795139D01*
X143964899Y-112494961D01*
X144011725Y-112531407D01*
X144011727Y-112531408D01*
X144230342Y-112649716D01*
X144230353Y-112649721D01*
X144465463Y-112730435D01*
X144710664Y-112771352D01*
X144959250Y-112771352D01*
X145204450Y-112730435D01*
X145439560Y-112649721D01*
X145439571Y-112649716D01*
X145658185Y-112531409D01*
X145658188Y-112531407D01*
X145705013Y-112494961D01*
X145005191Y-111795139D01*
X145047249Y-111783870D01*
X145172665Y-111711462D01*
X145275067Y-111609060D01*
X145347475Y-111483644D01*
X145358744Y-111441587D01*
X146058391Y-112141234D01*
X146158688Y-111987721D01*
X146258544Y-111760069D01*
X146319569Y-111519090D01*
X146319571Y-111519081D01*
X146340098Y-111271357D01*
X146340098Y-111271346D01*
X153829816Y-111271346D01*
X153829816Y-111271357D01*
X153850342Y-111519081D01*
X153850344Y-111519090D01*
X153911369Y-111760069D01*
X154011223Y-111987716D01*
X154111521Y-112141234D01*
X154811169Y-111441586D01*
X154822439Y-111483644D01*
X154894847Y-111609060D01*
X154997249Y-111711462D01*
X155122665Y-111783870D01*
X155164722Y-111795139D01*
X154464899Y-112494961D01*
X154511725Y-112531407D01*
X154511727Y-112531408D01*
X154730342Y-112649716D01*
X154730353Y-112649721D01*
X154965463Y-112730435D01*
X155210664Y-112771352D01*
X155459250Y-112771352D01*
X155704450Y-112730435D01*
X155939560Y-112649721D01*
X155939571Y-112649716D01*
X156158185Y-112531409D01*
X156158188Y-112531407D01*
X156205013Y-112494961D01*
X155505191Y-111795139D01*
X155547249Y-111783870D01*
X155672665Y-111711462D01*
X155775067Y-111609060D01*
X155847475Y-111483644D01*
X155858744Y-111441587D01*
X156558391Y-112141234D01*
X156658688Y-111987721D01*
X156758544Y-111760069D01*
X156819569Y-111519090D01*
X156819571Y-111519081D01*
X156840098Y-111271357D01*
X156840098Y-111271346D01*
X160329816Y-111271346D01*
X160329816Y-111271357D01*
X160350342Y-111519081D01*
X160350344Y-111519090D01*
X160411369Y-111760069D01*
X160511223Y-111987716D01*
X160611521Y-112141234D01*
X161311169Y-111441586D01*
X161322439Y-111483644D01*
X161394847Y-111609060D01*
X161497249Y-111711462D01*
X161622665Y-111783870D01*
X161664722Y-111795139D01*
X160964899Y-112494961D01*
X161011725Y-112531407D01*
X161011727Y-112531408D01*
X161230342Y-112649716D01*
X161230353Y-112649721D01*
X161465463Y-112730435D01*
X161710664Y-112771352D01*
X161959250Y-112771352D01*
X162204450Y-112730435D01*
X162439560Y-112649721D01*
X162439571Y-112649716D01*
X162658185Y-112531409D01*
X162658188Y-112531407D01*
X162705013Y-112494961D01*
X162005191Y-111795139D01*
X162047249Y-111783870D01*
X162172665Y-111711462D01*
X162275067Y-111609060D01*
X162347475Y-111483644D01*
X162358744Y-111441587D01*
X163058391Y-112141234D01*
X163158688Y-111987721D01*
X163258544Y-111760069D01*
X163319569Y-111519090D01*
X163319571Y-111519081D01*
X163340098Y-111271357D01*
X163340098Y-111271346D01*
X163319571Y-111023622D01*
X163319569Y-111023613D01*
X163258544Y-110782634D01*
X163158688Y-110554982D01*
X163058391Y-110401468D01*
X162358744Y-111101116D01*
X162347475Y-111059060D01*
X162275067Y-110933644D01*
X162172665Y-110831242D01*
X162047249Y-110758834D01*
X162005192Y-110747564D01*
X162705014Y-110047742D01*
X162705013Y-110047741D01*
X162658186Y-110011295D01*
X162439571Y-109892987D01*
X162439560Y-109892982D01*
X162204450Y-109812268D01*
X161959250Y-109771352D01*
X161710664Y-109771352D01*
X161465463Y-109812268D01*
X161230353Y-109892982D01*
X161230347Y-109892984D01*
X161011718Y-110011301D01*
X160964899Y-110047740D01*
X160964899Y-110047742D01*
X161664722Y-110747564D01*
X161622665Y-110758834D01*
X161497249Y-110831242D01*
X161394847Y-110933644D01*
X161322439Y-111059060D01*
X161311169Y-111101116D01*
X160611521Y-110401468D01*
X160511224Y-110554984D01*
X160411369Y-110782634D01*
X160350344Y-111023613D01*
X160350342Y-111023622D01*
X160329816Y-111271346D01*
X156840098Y-111271346D01*
X156819571Y-111023622D01*
X156819569Y-111023613D01*
X156758544Y-110782634D01*
X156658688Y-110554982D01*
X156558391Y-110401468D01*
X155858744Y-111101116D01*
X155847475Y-111059060D01*
X155775067Y-110933644D01*
X155672665Y-110831242D01*
X155547249Y-110758834D01*
X155505192Y-110747564D01*
X156205014Y-110047742D01*
X156205013Y-110047741D01*
X156158186Y-110011295D01*
X155939571Y-109892987D01*
X155939560Y-109892982D01*
X155704450Y-109812268D01*
X155459250Y-109771352D01*
X155210664Y-109771352D01*
X154965463Y-109812268D01*
X154730353Y-109892982D01*
X154730347Y-109892984D01*
X154511718Y-110011301D01*
X154464899Y-110047740D01*
X154464899Y-110047742D01*
X155164722Y-110747564D01*
X155122665Y-110758834D01*
X154997249Y-110831242D01*
X154894847Y-110933644D01*
X154822439Y-111059060D01*
X154811169Y-111101116D01*
X154111521Y-110401468D01*
X154011224Y-110554984D01*
X153911369Y-110782634D01*
X153850344Y-111023613D01*
X153850342Y-111023622D01*
X153829816Y-111271346D01*
X146340098Y-111271346D01*
X146319571Y-111023622D01*
X146319569Y-111023613D01*
X146258544Y-110782634D01*
X146158688Y-110554982D01*
X146058391Y-110401468D01*
X145358744Y-111101116D01*
X145347475Y-111059060D01*
X145275067Y-110933644D01*
X145172665Y-110831242D01*
X145047249Y-110758834D01*
X145005192Y-110747564D01*
X145705014Y-110047742D01*
X145705013Y-110047741D01*
X145658186Y-110011295D01*
X145439571Y-109892987D01*
X145439560Y-109892982D01*
X145204450Y-109812268D01*
X144959250Y-109771352D01*
X144710664Y-109771352D01*
X144465463Y-109812268D01*
X144230353Y-109892982D01*
X144230347Y-109892984D01*
X144011718Y-110011301D01*
X143964899Y-110047740D01*
X143964899Y-110047742D01*
X144664722Y-110747564D01*
X144622665Y-110758834D01*
X144497249Y-110831242D01*
X144394847Y-110933644D01*
X144322439Y-111059060D01*
X144311169Y-111101116D01*
X143611521Y-110401468D01*
X143511224Y-110554984D01*
X143411369Y-110782634D01*
X143350344Y-111023613D01*
X143350342Y-111023622D01*
X143329816Y-111271346D01*
X139840098Y-111271346D01*
X139819571Y-111023622D01*
X139819569Y-111023613D01*
X139758544Y-110782634D01*
X139658688Y-110554982D01*
X139558391Y-110401468D01*
X138858744Y-111101116D01*
X138847475Y-111059060D01*
X138775067Y-110933644D01*
X138672665Y-110831242D01*
X138547249Y-110758834D01*
X138505192Y-110747564D01*
X139205014Y-110047742D01*
X139205013Y-110047741D01*
X139158186Y-110011295D01*
X138939571Y-109892987D01*
X138939560Y-109892982D01*
X138704450Y-109812268D01*
X138459250Y-109771352D01*
X138210664Y-109771352D01*
X137965463Y-109812268D01*
X137730353Y-109892982D01*
X137730347Y-109892984D01*
X137511718Y-110011301D01*
X137464899Y-110047740D01*
X137464899Y-110047742D01*
X138164722Y-110747564D01*
X138122665Y-110758834D01*
X137997249Y-110831242D01*
X137894847Y-110933644D01*
X137822439Y-111059060D01*
X137811169Y-111101116D01*
X137111521Y-110401468D01*
X137011224Y-110554984D01*
X136911369Y-110782634D01*
X136850344Y-111023613D01*
X136850342Y-111023622D01*
X136829816Y-111271346D01*
X129185335Y-111271346D01*
X129241213Y-111050692D01*
X129243823Y-111019194D01*
X129260379Y-110819393D01*
X129260379Y-110819380D01*
X129241214Y-110588089D01*
X129241212Y-110588078D01*
X129184236Y-110363086D01*
X129091003Y-110150538D01*
X128964062Y-109956239D01*
X128964059Y-109956236D01*
X128964058Y-109956234D01*
X128806863Y-109785474D01*
X128806858Y-109785470D01*
X128806856Y-109785468D01*
X128623713Y-109642922D01*
X128623707Y-109642918D01*
X128419583Y-109532451D01*
X128419574Y-109532448D01*
X128200063Y-109457089D01*
X128009529Y-109425295D01*
X127971128Y-109418887D01*
X127739030Y-109418887D01*
X127700629Y-109425295D01*
X127510094Y-109457089D01*
X127290583Y-109532448D01*
X127290574Y-109532451D01*
X127086450Y-109642918D01*
X127086444Y-109642922D01*
X126903301Y-109785468D01*
X126903298Y-109785471D01*
X126903295Y-109785473D01*
X126903295Y-109785474D01*
X126755579Y-109945938D01*
X126746094Y-109956241D01*
X126708887Y-110013191D01*
X126655741Y-110058548D01*
X126586509Y-110067971D01*
X126523174Y-110038469D01*
X126501271Y-110013191D01*
X126464063Y-109956241D01*
X126464061Y-109956239D01*
X126464058Y-109956234D01*
X126306863Y-109785474D01*
X126306858Y-109785470D01*
X126306856Y-109785468D01*
X126123713Y-109642922D01*
X126123707Y-109642918D01*
X125919583Y-109532451D01*
X125919574Y-109532448D01*
X125700063Y-109457089D01*
X125509529Y-109425295D01*
X125471128Y-109418887D01*
X125239030Y-109418887D01*
X125200629Y-109425295D01*
X125010094Y-109457089D01*
X124790583Y-109532448D01*
X124790574Y-109532451D01*
X124586451Y-109642918D01*
X124409515Y-109780632D01*
X124344521Y-109806274D01*
X124275981Y-109792707D01*
X124225656Y-109744239D01*
X124217171Y-109726110D01*
X124198877Y-109677060D01*
X124198872Y-109677051D01*
X124112626Y-109561842D01*
X124112623Y-109561839D01*
X123997414Y-109475593D01*
X123997407Y-109475589D01*
X123862561Y-109425295D01*
X123862562Y-109425295D01*
X123802962Y-109418888D01*
X123802960Y-109418887D01*
X123802952Y-109418887D01*
X123802943Y-109418887D01*
X121907208Y-109418887D01*
X121907202Y-109418888D01*
X121847595Y-109425295D01*
X121712750Y-109475589D01*
X121712743Y-109475593D01*
X121597534Y-109561839D01*
X121597531Y-109561842D01*
X121511285Y-109677051D01*
X121511281Y-109677058D01*
X121460987Y-109811904D01*
X121454580Y-109871503D01*
X121454579Y-109871522D01*
X99892706Y-109871522D01*
X99893799Y-106771346D01*
X136829314Y-106771346D01*
X136829314Y-106771357D01*
X136849847Y-107019164D01*
X136849849Y-107019176D01*
X136910893Y-107260233D01*
X137010783Y-107487958D01*
X137146790Y-107696134D01*
X137146793Y-107696137D01*
X137315213Y-107879090D01*
X137511448Y-108031826D01*
X137730147Y-108150180D01*
X137965343Y-108230923D01*
X138210622Y-108271852D01*
X138459292Y-108271852D01*
X138704571Y-108230923D01*
X138939767Y-108150180D01*
X139158466Y-108031826D01*
X139354701Y-107879090D01*
X139523121Y-107696137D01*
X139659130Y-107487959D01*
X139759020Y-107260233D01*
X139820065Y-107019173D01*
X139840600Y-106771352D01*
X139840600Y-106771346D01*
X143329314Y-106771346D01*
X143329314Y-106771357D01*
X143349847Y-107019164D01*
X143349849Y-107019176D01*
X143410893Y-107260233D01*
X143510783Y-107487958D01*
X143646790Y-107696134D01*
X143646793Y-107696137D01*
X143815213Y-107879090D01*
X144011448Y-108031826D01*
X144230147Y-108150180D01*
X144465343Y-108230923D01*
X144710622Y-108271852D01*
X144959292Y-108271852D01*
X145204571Y-108230923D01*
X145439767Y-108150180D01*
X145658466Y-108031826D01*
X145854701Y-107879090D01*
X146023121Y-107696137D01*
X146159130Y-107487959D01*
X146259020Y-107260233D01*
X146320065Y-107019173D01*
X146340600Y-106771352D01*
X146340600Y-106771346D01*
X153829314Y-106771346D01*
X153829314Y-106771357D01*
X153849847Y-107019164D01*
X153849849Y-107019176D01*
X153910893Y-107260233D01*
X154010783Y-107487958D01*
X154146790Y-107696134D01*
X154146793Y-107696137D01*
X154315213Y-107879090D01*
X154511448Y-108031826D01*
X154730147Y-108150180D01*
X154965343Y-108230923D01*
X155210622Y-108271852D01*
X155459292Y-108271852D01*
X155704571Y-108230923D01*
X155939767Y-108150180D01*
X156158466Y-108031826D01*
X156354701Y-107879090D01*
X156523121Y-107696137D01*
X156659130Y-107487959D01*
X156759020Y-107260233D01*
X156820065Y-107019173D01*
X156840600Y-106771352D01*
X156840600Y-106771346D01*
X160329314Y-106771346D01*
X160329314Y-106771357D01*
X160349847Y-107019164D01*
X160349849Y-107019176D01*
X160410893Y-107260233D01*
X160510783Y-107487958D01*
X160646790Y-107696134D01*
X160646793Y-107696137D01*
X160815213Y-107879090D01*
X161011448Y-108031826D01*
X161230147Y-108150180D01*
X161465343Y-108230923D01*
X161710622Y-108271852D01*
X161959292Y-108271852D01*
X162204571Y-108230923D01*
X162439767Y-108150180D01*
X162658466Y-108031826D01*
X162854701Y-107879090D01*
X163023121Y-107696137D01*
X163159130Y-107487959D01*
X163259020Y-107260233D01*
X163320065Y-107019173D01*
X163340600Y-106771352D01*
X163320065Y-106523531D01*
X163259020Y-106282471D01*
X163159130Y-106054745D01*
X163023123Y-105846569D01*
X162921829Y-105736535D01*
X162854701Y-105663614D01*
X162658466Y-105510878D01*
X162658464Y-105510877D01*
X162658463Y-105510876D01*
X162439768Y-105392524D01*
X162439759Y-105392521D01*
X162204573Y-105311781D01*
X161959292Y-105270852D01*
X161710622Y-105270852D01*
X161465340Y-105311781D01*
X161230154Y-105392521D01*
X161230145Y-105392524D01*
X161011450Y-105510876D01*
X160815214Y-105663613D01*
X160646790Y-105846569D01*
X160510783Y-106054745D01*
X160410893Y-106282470D01*
X160349849Y-106523527D01*
X160349847Y-106523539D01*
X160329314Y-106771346D01*
X156840600Y-106771346D01*
X156820065Y-106523531D01*
X156759020Y-106282471D01*
X156659130Y-106054745D01*
X156523123Y-105846569D01*
X156421829Y-105736535D01*
X156354701Y-105663614D01*
X156158466Y-105510878D01*
X156158464Y-105510877D01*
X156158463Y-105510876D01*
X155939768Y-105392524D01*
X155939759Y-105392521D01*
X155704573Y-105311781D01*
X155459292Y-105270852D01*
X155210622Y-105270852D01*
X154965340Y-105311781D01*
X154730154Y-105392521D01*
X154730145Y-105392524D01*
X154511450Y-105510876D01*
X154315214Y-105663613D01*
X154146790Y-105846569D01*
X154010783Y-106054745D01*
X153910893Y-106282470D01*
X153849849Y-106523527D01*
X153849847Y-106523539D01*
X153829314Y-106771346D01*
X146340600Y-106771346D01*
X146320065Y-106523531D01*
X146259020Y-106282471D01*
X146159130Y-106054745D01*
X146023123Y-105846569D01*
X145921829Y-105736535D01*
X145854701Y-105663614D01*
X145658466Y-105510878D01*
X145658464Y-105510877D01*
X145658463Y-105510876D01*
X145439768Y-105392524D01*
X145439759Y-105392521D01*
X145204573Y-105311781D01*
X144959292Y-105270852D01*
X144710622Y-105270852D01*
X144465340Y-105311781D01*
X144230154Y-105392521D01*
X144230145Y-105392524D01*
X144011450Y-105510876D01*
X143815214Y-105663613D01*
X143646790Y-105846569D01*
X143510783Y-106054745D01*
X143410893Y-106282470D01*
X143349849Y-106523527D01*
X143349847Y-106523539D01*
X143329314Y-106771346D01*
X139840600Y-106771346D01*
X139820065Y-106523531D01*
X139759020Y-106282471D01*
X139659130Y-106054745D01*
X139523123Y-105846569D01*
X139421829Y-105736535D01*
X139354701Y-105663614D01*
X139158466Y-105510878D01*
X139158464Y-105510877D01*
X139158463Y-105510876D01*
X138939768Y-105392524D01*
X138939759Y-105392521D01*
X138704573Y-105311781D01*
X138459292Y-105270852D01*
X138210622Y-105270852D01*
X137965340Y-105311781D01*
X137730154Y-105392521D01*
X137730145Y-105392524D01*
X137511450Y-105510876D01*
X137315214Y-105663613D01*
X137146790Y-105846569D01*
X137010783Y-106054745D01*
X136910893Y-106282470D01*
X136849849Y-106523527D01*
X136849847Y-106523539D01*
X136829314Y-106771346D01*
X99893799Y-106771346D01*
X99904104Y-77533795D01*
X110846958Y-77533795D01*
X110846958Y-77746368D01*
X110877956Y-77942085D01*
X110880212Y-77956325D01*
X110931177Y-78113179D01*
X110945902Y-78158496D01*
X111042409Y-78347902D01*
X111167348Y-78519868D01*
X111317671Y-78670191D01*
X111489637Y-78795130D01*
X111489639Y-78795131D01*
X111489642Y-78795133D01*
X111679046Y-78891639D01*
X111881215Y-78957328D01*
X112091171Y-78990582D01*
X112091172Y-78990582D01*
X112303744Y-78990582D01*
X112303745Y-78990582D01*
X112513701Y-78957328D01*
X112715870Y-78891639D01*
X112905274Y-78795133D01*
X112977375Y-78742749D01*
X113077244Y-78670191D01*
X113077246Y-78670188D01*
X113077250Y-78670186D01*
X113227562Y-78519874D01*
X113227564Y-78519870D01*
X113227567Y-78519868D01*
X113352506Y-78347902D01*
X113352505Y-78347902D01*
X113352509Y-78347898D01*
X113449015Y-78158494D01*
X113514704Y-77956325D01*
X113547958Y-77746369D01*
X113547958Y-77533795D01*
X113514704Y-77323839D01*
X113449015Y-77121670D01*
X113352509Y-76932266D01*
X113352507Y-76932263D01*
X113352506Y-76932261D01*
X113227567Y-76760295D01*
X113077244Y-76609972D01*
X112905278Y-76485033D01*
X112715872Y-76388526D01*
X112715871Y-76388525D01*
X112715870Y-76388525D01*
X112513701Y-76322836D01*
X112513699Y-76322835D01*
X112513698Y-76322835D01*
X112352415Y-76297290D01*
X112303745Y-76289582D01*
X112091171Y-76289582D01*
X112042500Y-76297290D01*
X111881218Y-76322835D01*
X111679043Y-76388526D01*
X111489637Y-76485033D01*
X111317671Y-76609972D01*
X111167348Y-76760295D01*
X111042409Y-76932261D01*
X110945902Y-77121667D01*
X110945901Y-77121669D01*
X110945901Y-77121670D01*
X110922726Y-77192994D01*
X110880211Y-77323842D01*
X110846958Y-77533795D01*
X99904104Y-77533795D01*
X99904689Y-75874573D01*
X121456459Y-75874573D01*
X121456459Y-77320308D01*
X121456460Y-77320314D01*
X121462867Y-77379921D01*
X121513161Y-77514766D01*
X121513165Y-77514773D01*
X121599411Y-77629982D01*
X121599414Y-77629985D01*
X121714623Y-77716231D01*
X121714630Y-77716235D01*
X121800792Y-77748371D01*
X121856725Y-77790242D01*
X121881143Y-77855706D01*
X121881459Y-77864553D01*
X121881459Y-81731170D01*
X121864846Y-81793170D01*
X121815827Y-81878073D01*
X121757333Y-82058099D01*
X121757332Y-82058103D01*
X121737546Y-82246359D01*
X121757332Y-82434615D01*
X121757333Y-82434618D01*
X121815824Y-82614636D01*
X121815827Y-82614643D01*
X121910473Y-82778575D01*
X122037135Y-82919247D01*
X122190271Y-83030507D01*
X122190276Y-83030510D01*
X122363198Y-83107501D01*
X122363203Y-83107503D01*
X122548360Y-83146859D01*
X122548361Y-83146859D01*
X122737650Y-83146859D01*
X122737652Y-83146859D01*
X122922809Y-83107503D01*
X123095736Y-83030510D01*
X123248877Y-82919247D01*
X123375539Y-82778575D01*
X123470185Y-82614643D01*
X123528680Y-82434615D01*
X123548466Y-82246359D01*
X123528680Y-82058103D01*
X123470185Y-81878075D01*
X123422850Y-81796088D01*
X123399072Y-81754902D01*
X123382459Y-81692902D01*
X123382459Y-77864553D01*
X123402144Y-77797514D01*
X123454948Y-77751759D01*
X123463126Y-77748371D01*
X123474103Y-77744277D01*
X123549290Y-77716234D01*
X123664505Y-77629984D01*
X123726744Y-77546842D01*
X123782677Y-77504973D01*
X123852369Y-77499989D01*
X123909547Y-77529516D01*
X123920527Y-77539526D01*
X123920529Y-77539527D01*
X123920530Y-77539528D01*
X124105745Y-77654208D01*
X124105751Y-77654211D01*
X124105968Y-77654295D01*
X124308890Y-77732908D01*
X124523033Y-77772938D01*
X124523035Y-77772938D01*
X124740884Y-77772938D01*
X124740885Y-77772938D01*
X124829959Y-77756287D01*
X124899473Y-77763317D01*
X124940425Y-77790494D01*
X125536008Y-78386077D01*
X125536037Y-78386108D01*
X125626255Y-78476326D01*
X125626259Y-78476329D01*
X125728699Y-78544778D01*
X125728703Y-78544780D01*
X125728706Y-78544782D01*
X125842540Y-78591934D01*
X125902963Y-78603952D01*
X125963385Y-78615971D01*
X129520257Y-78615971D01*
X129580679Y-78603952D01*
X129641102Y-78591934D01*
X129641105Y-78591932D01*
X129641108Y-78591932D01*
X129674437Y-78578125D01*
X129674436Y-78578125D01*
X129674442Y-78578123D01*
X129754936Y-78544783D01*
X129806159Y-78510555D01*
X129806649Y-78510228D01*
X129821773Y-78500122D01*
X129857383Y-78476329D01*
X129944508Y-78389204D01*
X129944508Y-78389202D01*
X129954716Y-78378995D01*
X129954717Y-78378992D01*
X131532910Y-76800802D01*
X131594233Y-76767317D01*
X131620591Y-76764483D01*
X157746020Y-76764483D01*
X157813059Y-76784168D01*
X157833701Y-76800802D01*
X158171521Y-77138623D01*
X158205006Y-77199946D01*
X158207161Y-77213342D01*
X158210737Y-77247364D01*
X158224809Y-77381250D01*
X158224810Y-77381253D01*
X158283301Y-77561271D01*
X158283304Y-77561278D01*
X158377950Y-77725210D01*
X158503415Y-77864553D01*
X158504612Y-77865882D01*
X158657748Y-77977142D01*
X158657753Y-77977145D01*
X158830675Y-78054136D01*
X158830680Y-78054138D01*
X159015837Y-78093494D01*
X159075031Y-78093494D01*
X159142070Y-78113179D01*
X159162712Y-78129813D01*
X162414340Y-81381443D01*
X162414344Y-81381446D01*
X162516787Y-81449897D01*
X162516788Y-81449897D01*
X162516792Y-81449900D01*
X162546507Y-81462208D01*
X162630625Y-81497051D01*
X162650674Y-81501039D01*
X162684273Y-81507722D01*
X162751469Y-81521089D01*
X162751471Y-81521089D01*
X162880798Y-81521089D01*
X162880818Y-81521088D01*
X175658819Y-81521088D01*
X175725858Y-81540773D01*
X175750967Y-81562114D01*
X175756693Y-81568473D01*
X175756697Y-81568477D01*
X175909832Y-81679736D01*
X175909837Y-81679739D01*
X176082759Y-81756730D01*
X176082764Y-81756732D01*
X176267921Y-81796088D01*
X176267922Y-81796088D01*
X176457211Y-81796088D01*
X176457213Y-81796088D01*
X176642370Y-81756732D01*
X176815297Y-81679739D01*
X176968438Y-81568476D01*
X177095100Y-81427804D01*
X177189746Y-81263872D01*
X177248241Y-81083844D01*
X177268027Y-80895588D01*
X177248241Y-80707332D01*
X177245230Y-80698066D01*
X177240654Y-80683980D01*
X177238659Y-80614139D01*
X177274740Y-80554307D01*
X177337441Y-80523479D01*
X177358585Y-80521663D01*
X178382251Y-80521663D01*
X178449290Y-80541348D01*
X178469932Y-80557982D01*
X180859739Y-82947790D01*
X180893224Y-83009113D01*
X180895379Y-83022509D01*
X180903669Y-83101388D01*
X180913027Y-83190417D01*
X180913028Y-83190420D01*
X180971519Y-83370438D01*
X180971522Y-83370445D01*
X181066168Y-83534377D01*
X181192830Y-83675049D01*
X181345966Y-83786309D01*
X181345971Y-83786312D01*
X181518893Y-83863303D01*
X181518898Y-83863305D01*
X181704055Y-83902661D01*
X181704056Y-83902661D01*
X181893345Y-83902661D01*
X181893347Y-83902661D01*
X182078504Y-83863305D01*
X182251431Y-83786312D01*
X182404572Y-83675049D01*
X182531234Y-83534377D01*
X182625880Y-83370445D01*
X182684375Y-83190417D01*
X182704161Y-83002161D01*
X182684375Y-82813905D01*
X182625880Y-82633877D01*
X182531234Y-82469945D01*
X182404572Y-82329273D01*
X182404571Y-82329272D01*
X182251435Y-82218012D01*
X182251430Y-82218009D01*
X182078508Y-82141018D01*
X182078503Y-82141016D01*
X181932702Y-82110026D01*
X181893347Y-82101661D01*
X181893346Y-82101661D01*
X181834154Y-82101661D01*
X181767115Y-82081976D01*
X181746473Y-82065342D01*
X179185631Y-79504501D01*
X179185628Y-79504497D01*
X179185628Y-79504498D01*
X179178561Y-79497431D01*
X179178561Y-79497430D01*
X179091436Y-79410305D01*
X179091435Y-79410304D01*
X179091434Y-79410303D01*
X179040212Y-79376078D01*
X178988989Y-79341851D01*
X178988986Y-79341849D01*
X178988983Y-79341848D01*
X178908495Y-79308510D01*
X178875156Y-79294700D01*
X178865130Y-79292706D01*
X178814732Y-79282681D01*
X178754313Y-79270663D01*
X178754310Y-79270663D01*
X178754309Y-79270663D01*
X175208909Y-79270663D01*
X175141870Y-79250978D01*
X175116761Y-79229637D01*
X175111034Y-79223277D01*
X175111030Y-79223273D01*
X174957895Y-79112014D01*
X174957890Y-79112011D01*
X174784968Y-79035020D01*
X174784963Y-79035018D01*
X174599805Y-78995662D01*
X174593339Y-78994983D01*
X174593507Y-78993384D01*
X174534228Y-78975978D01*
X174488473Y-78923174D01*
X174478529Y-78854016D01*
X174483336Y-78833345D01*
X174495752Y-78795130D01*
X174512772Y-78742749D01*
X174530419Y-78574839D01*
X174557002Y-78510228D01*
X174566046Y-78500134D01*
X174642388Y-78423794D01*
X174643953Y-78421453D01*
X174710842Y-78321346D01*
X174757994Y-78207512D01*
X174782031Y-78086666D01*
X174782031Y-77533795D01*
X187757158Y-77533795D01*
X187757158Y-77746368D01*
X187788156Y-77942085D01*
X187790412Y-77956325D01*
X187841377Y-78113179D01*
X187856102Y-78158496D01*
X187952609Y-78347902D01*
X188077548Y-78519868D01*
X188227871Y-78670191D01*
X188399837Y-78795130D01*
X188399839Y-78795131D01*
X188399842Y-78795133D01*
X188589246Y-78891639D01*
X188791415Y-78957328D01*
X189001371Y-78990582D01*
X189001372Y-78990582D01*
X189213944Y-78990582D01*
X189213945Y-78990582D01*
X189423901Y-78957328D01*
X189626070Y-78891639D01*
X189815474Y-78795133D01*
X189887575Y-78742749D01*
X189987444Y-78670191D01*
X189987446Y-78670188D01*
X189987450Y-78670186D01*
X190137762Y-78519874D01*
X190137764Y-78519870D01*
X190137767Y-78519868D01*
X190262706Y-78347902D01*
X190262705Y-78347902D01*
X190262709Y-78347898D01*
X190359215Y-78158494D01*
X190424904Y-77956325D01*
X190458158Y-77746369D01*
X190458158Y-77533795D01*
X190424904Y-77323839D01*
X190359215Y-77121670D01*
X190262709Y-76932266D01*
X190262707Y-76932263D01*
X190262706Y-76932261D01*
X190137767Y-76760295D01*
X189987444Y-76609972D01*
X189815478Y-76485033D01*
X189626072Y-76388526D01*
X189626071Y-76388525D01*
X189626070Y-76388525D01*
X189423901Y-76322836D01*
X189423899Y-76322835D01*
X189423898Y-76322835D01*
X189262615Y-76297290D01*
X189213945Y-76289582D01*
X189001371Y-76289582D01*
X188952700Y-76297290D01*
X188791418Y-76322835D01*
X188589243Y-76388526D01*
X188399837Y-76485033D01*
X188227871Y-76609972D01*
X188077548Y-76760295D01*
X187952609Y-76932261D01*
X187856102Y-77121667D01*
X187856101Y-77121669D01*
X187856101Y-77121670D01*
X187832926Y-77192994D01*
X187790411Y-77323842D01*
X187757158Y-77533795D01*
X174782031Y-77533795D01*
X174782031Y-77484739D01*
X174801716Y-77417700D01*
X174813881Y-77401767D01*
X174847012Y-77364971D01*
X174889064Y-77318268D01*
X174983710Y-77154336D01*
X175042205Y-76974308D01*
X175061991Y-76786052D01*
X175042205Y-76597796D01*
X174983710Y-76417768D01*
X174889064Y-76253836D01*
X174762402Y-76113164D01*
X174762401Y-76113163D01*
X174609265Y-76001903D01*
X174609260Y-76001900D01*
X174436338Y-75924909D01*
X174436333Y-75924907D01*
X174256841Y-75886756D01*
X174251177Y-75885552D01*
X174061885Y-75885552D01*
X174056221Y-75886756D01*
X173876728Y-75924907D01*
X173876723Y-75924909D01*
X173703801Y-76001900D01*
X173703796Y-76001903D01*
X173550660Y-76113163D01*
X173423997Y-76253837D01*
X173329352Y-76417767D01*
X173329349Y-76417774D01*
X173274810Y-76585629D01*
X173270857Y-76597796D01*
X173251071Y-76786052D01*
X173270857Y-76974308D01*
X173270858Y-76974311D01*
X173329349Y-77154329D01*
X173329352Y-77154336D01*
X173423998Y-77318268D01*
X173466050Y-77364971D01*
X173499181Y-77401767D01*
X173529411Y-77464758D01*
X173531031Y-77484739D01*
X173531031Y-77553881D01*
X173511346Y-77620920D01*
X173458542Y-77666675D01*
X173432813Y-77675171D01*
X173347294Y-77693349D01*
X173347290Y-77693350D01*
X173174368Y-77770341D01*
X173174363Y-77770344D01*
X173021227Y-77881604D01*
X172894564Y-78022278D01*
X172799919Y-78186208D01*
X172799916Y-78186215D01*
X172747381Y-78347902D01*
X172741424Y-78366237D01*
X172736731Y-78410887D01*
X172710147Y-78475499D01*
X172652850Y-78515484D01*
X172613411Y-78521923D01*
X172575442Y-78521923D01*
X172508403Y-78502238D01*
X172487761Y-78485604D01*
X172214399Y-78212242D01*
X172214396Y-78212238D01*
X172214396Y-78212239D01*
X172207329Y-78205172D01*
X172207329Y-78205171D01*
X172120204Y-78118046D01*
X172120203Y-78118045D01*
X172120202Y-78118044D01*
X172068980Y-78083819D01*
X172024557Y-78054136D01*
X172017757Y-78049592D01*
X171934750Y-78015210D01*
X171934748Y-78015208D01*
X171903926Y-78002442D01*
X171903924Y-78002441D01*
X171903923Y-78002441D01*
X171843500Y-77990422D01*
X171783081Y-77978404D01*
X171783078Y-77978404D01*
X171783077Y-77978404D01*
X164357379Y-77978404D01*
X164290340Y-77958719D01*
X164269698Y-77942085D01*
X162553444Y-76225831D01*
X162519959Y-76164508D01*
X162517807Y-76151132D01*
X162500158Y-75983205D01*
X162441663Y-75803177D01*
X162347017Y-75639245D01*
X162220355Y-75498573D01*
X162220354Y-75498572D01*
X162067218Y-75387312D01*
X162067213Y-75387309D01*
X161894291Y-75310318D01*
X161894286Y-75310316D01*
X161748485Y-75279326D01*
X161709130Y-75270961D01*
X161709129Y-75270961D01*
X161649937Y-75270961D01*
X161582898Y-75251276D01*
X161562256Y-75234642D01*
X160941254Y-74613641D01*
X160941251Y-74613637D01*
X160941251Y-74613638D01*
X160934184Y-74606571D01*
X160934184Y-74606570D01*
X160847059Y-74519445D01*
X160847058Y-74519444D01*
X160847057Y-74519443D01*
X160795835Y-74485218D01*
X160744613Y-74450992D01*
X160744612Y-74450991D01*
X160744609Y-74450989D01*
X160744606Y-74450988D01*
X160664118Y-74417650D01*
X160630779Y-74403840D01*
X160620753Y-74401846D01*
X160570355Y-74391821D01*
X160509936Y-74379803D01*
X160509933Y-74379803D01*
X160509932Y-74379803D01*
X130285701Y-74379803D01*
X130162487Y-74379803D01*
X130162483Y-74379803D01*
X130102065Y-74391821D01*
X130041642Y-74403840D01*
X130041637Y-74403841D01*
X130008301Y-74417650D01*
X129994491Y-74423370D01*
X129972263Y-74432577D01*
X129927807Y-74450991D01*
X129917651Y-74457778D01*
X129917543Y-74457850D01*
X129825362Y-74519443D01*
X129781799Y-74563006D01*
X129738236Y-74606570D01*
X129738233Y-74606573D01*
X128940425Y-75404380D01*
X128879102Y-75437865D01*
X128829961Y-75438588D01*
X128740885Y-75421938D01*
X128523033Y-75421938D01*
X128308890Y-75461968D01*
X128265855Y-75478640D01*
X128105751Y-75540664D01*
X128105745Y-75540667D01*
X127920535Y-75655344D01*
X127920525Y-75655351D01*
X127759533Y-75802114D01*
X127730599Y-75840429D01*
X127674489Y-75882065D01*
X127604777Y-75886756D01*
X127543596Y-75853014D01*
X127532690Y-75840428D01*
X127504010Y-75802449D01*
X127504009Y-75802448D01*
X127343090Y-75655752D01*
X127157946Y-75541115D01*
X127157944Y-75541114D01*
X126954890Y-75462451D01*
X126954880Y-75462448D01*
X126881960Y-75448816D01*
X126881959Y-75448817D01*
X126881959Y-76281752D01*
X126877565Y-76277358D01*
X126786353Y-76224697D01*
X126684620Y-76197438D01*
X126579298Y-76197438D01*
X126477565Y-76224697D01*
X126386353Y-76277358D01*
X126381959Y-76281752D01*
X126381959Y-75448817D01*
X126381957Y-75448816D01*
X126309037Y-75462448D01*
X126309027Y-75462451D01*
X126105973Y-75541114D01*
X126105971Y-75541115D01*
X125920828Y-75655752D01*
X125920827Y-75655752D01*
X125759904Y-75802452D01*
X125731226Y-75840428D01*
X125675116Y-75882064D01*
X125605404Y-75886755D01*
X125544223Y-75853013D01*
X125533318Y-75840428D01*
X125524506Y-75828759D01*
X125504386Y-75802116D01*
X125481399Y-75781161D01*
X125387955Y-75695975D01*
X125343391Y-75655350D01*
X125343387Y-75655347D01*
X125343382Y-75655344D01*
X125158172Y-75540667D01*
X125158166Y-75540664D01*
X125049515Y-75498573D01*
X124955028Y-75461968D01*
X124740885Y-75421938D01*
X124523033Y-75421938D01*
X124308890Y-75461968D01*
X124265855Y-75478640D01*
X124105751Y-75540664D01*
X124105745Y-75540667D01*
X123920524Y-75655351D01*
X123909544Y-75665361D01*
X123846739Y-75695975D01*
X123777352Y-75687774D01*
X123726744Y-75648032D01*
X123700807Y-75613386D01*
X123664505Y-75564892D01*
X123664503Y-75564891D01*
X123664503Y-75564890D01*
X123549294Y-75478644D01*
X123549287Y-75478640D01*
X123414441Y-75428346D01*
X123414442Y-75428346D01*
X123354842Y-75421939D01*
X123354840Y-75421938D01*
X123354832Y-75421938D01*
X123354823Y-75421938D01*
X121909088Y-75421938D01*
X121909082Y-75421939D01*
X121849475Y-75428346D01*
X121714630Y-75478640D01*
X121714623Y-75478644D01*
X121599414Y-75564890D01*
X121599411Y-75564893D01*
X121513165Y-75680102D01*
X121513161Y-75680109D01*
X121462867Y-75814955D01*
X121456460Y-75874554D01*
X121456459Y-75874573D01*
X99904689Y-75874573D01*
X99905593Y-73308365D01*
X99925301Y-73241335D01*
X99978121Y-73195598D01*
X100029344Y-73184411D01*
X168573735Y-73048391D01*
X194710757Y-73048391D01*
X194777796Y-73068076D01*
G37*
%TD.AperFunction*%
%TA.AperFunction,Conductor*%
G36*
X180587295Y-117067960D02*
G01*
X180505718Y-117149536D01*
X180407648Y-117305613D01*
X180346764Y-117479607D01*
X180331303Y-117616836D01*
X180331303Y-117810316D01*
X180311618Y-117877355D01*
X180258814Y-117923110D01*
X180189656Y-117933054D01*
X180126100Y-117904029D01*
X180119622Y-117897997D01*
X179257678Y-117036053D01*
X180610237Y-117032260D01*
X180587295Y-117067960D01*
G37*
%TD.AperFunction*%
%TA.AperFunction,Conductor*%
G36*
X166000754Y-104917729D02*
G01*
X166007232Y-104923761D01*
X169240597Y-108157126D01*
X169274082Y-108218449D01*
X169276916Y-108244807D01*
X169276916Y-109070625D01*
X169257231Y-109137664D01*
X169204427Y-109183419D01*
X169135269Y-109193363D01*
X169071713Y-109164338D01*
X169062476Y-109154717D01*
X169062419Y-109154775D01*
X168927231Y-109019587D01*
X168771246Y-108921575D01*
X168597362Y-108860731D01*
X168597356Y-108860730D01*
X168460221Y-108845279D01*
X167506803Y-108845279D01*
X167506803Y-110106279D01*
X167487118Y-110173318D01*
X167434314Y-110219073D01*
X167382803Y-110230279D01*
X167130803Y-110230279D01*
X167063764Y-110210594D01*
X167018009Y-110157790D01*
X167006803Y-110106279D01*
X167006803Y-108845279D01*
X166053384Y-108845279D01*
X165933434Y-108858794D01*
X165864612Y-108846739D01*
X165813233Y-108799390D01*
X165795551Y-108735574D01*
X165795551Y-105011442D01*
X165815236Y-104944403D01*
X165868040Y-104898648D01*
X165937198Y-104888704D01*
X166000754Y-104917729D01*
G37*
%TD.AperFunction*%
%TD*%
%TA.AperFunction,Conductor*%
%TO.N,GND*%
G36*
X194841124Y-104686559D02*
G01*
X194841124Y-116992346D01*
X179027288Y-117036700D01*
X179035964Y-115622226D01*
X180631303Y-115622226D01*
X180631303Y-116338331D01*
X180641299Y-116421574D01*
X180693539Y-116554045D01*
X180779577Y-116667504D01*
X180893036Y-116753542D01*
X180893039Y-116753544D01*
X181025506Y-116805782D01*
X181108751Y-116815779D01*
X183504855Y-116815779D01*
X183588100Y-116805782D01*
X183720567Y-116753544D01*
X183834028Y-116667504D01*
X183920068Y-116554043D01*
X183972306Y-116421576D01*
X183982303Y-116338331D01*
X183982303Y-115622227D01*
X183972306Y-115538982D01*
X183920068Y-115406515D01*
X183920066Y-115406512D01*
X183834028Y-115293053D01*
X183720569Y-115207015D01*
X183720567Y-115207014D01*
X183588100Y-115154776D01*
X183588099Y-115154775D01*
X183588098Y-115154775D01*
X183504855Y-115144779D01*
X181108751Y-115144779D01*
X181025507Y-115154775D01*
X180893036Y-115207015D01*
X180779577Y-115293053D01*
X180693539Y-115406512D01*
X180641299Y-115538983D01*
X180631303Y-115622226D01*
X179035964Y-115622226D01*
X179048232Y-113622226D01*
X180631303Y-113622226D01*
X180631303Y-114338331D01*
X180641299Y-114421574D01*
X180693539Y-114554045D01*
X180779577Y-114667504D01*
X180893036Y-114753542D01*
X180893039Y-114753544D01*
X181025506Y-114805782D01*
X181108751Y-114815779D01*
X183504855Y-114815779D01*
X183588100Y-114805782D01*
X183720567Y-114753544D01*
X183834028Y-114667504D01*
X183920068Y-114554043D01*
X183972306Y-114421576D01*
X183982303Y-114338331D01*
X183982303Y-113622227D01*
X183972306Y-113538982D01*
X183920068Y-113406515D01*
X183920066Y-113406512D01*
X183834028Y-113293053D01*
X183720569Y-113207015D01*
X183720567Y-113207014D01*
X183588100Y-113154776D01*
X183588099Y-113154775D01*
X183588098Y-113154775D01*
X183504855Y-113144779D01*
X181108751Y-113144779D01*
X181025507Y-113154775D01*
X180893036Y-113207015D01*
X180779577Y-113293053D01*
X180693539Y-113406512D01*
X180641299Y-113538983D01*
X180631303Y-113622226D01*
X179048232Y-113622226D01*
X179072767Y-109622226D01*
X180631303Y-109622226D01*
X180631303Y-110338331D01*
X180641299Y-110421574D01*
X180693539Y-110554045D01*
X180779577Y-110667504D01*
X180884483Y-110747056D01*
X180893039Y-110753544D01*
X181025506Y-110805782D01*
X181108751Y-110815779D01*
X183504855Y-110815779D01*
X183588100Y-110805782D01*
X183720567Y-110753544D01*
X183729123Y-110747056D01*
X183794434Y-110722232D01*
X183804049Y-110721859D01*
X188863689Y-110721859D01*
X188930728Y-110741544D01*
X188976483Y-110794348D01*
X188987689Y-110845859D01*
X188987689Y-110974321D01*
X189002545Y-111068126D01*
X189060156Y-111181193D01*
X189060158Y-111181195D01*
X189060160Y-111181198D01*
X189149880Y-111270918D01*
X189149882Y-111270919D01*
X189149886Y-111270923D01*
X189262953Y-111328534D01*
X189262954Y-111328534D01*
X189262956Y-111328535D01*
X189262955Y-111328535D01*
X189356751Y-111343390D01*
X189356757Y-111343391D01*
X191319618Y-111343390D01*
X191413423Y-111328534D01*
X191526490Y-111270923D01*
X191616220Y-111181193D01*
X191673831Y-111068126D01*
X191688688Y-110974322D01*
X191688687Y-109011461D01*
X191673831Y-108917656D01*
X191616220Y-108804589D01*
X191616216Y-108804585D01*
X191616215Y-108804583D01*
X191526495Y-108714863D01*
X191526492Y-108714861D01*
X191526490Y-108714859D01*
X191413423Y-108657248D01*
X191413422Y-108657247D01*
X191413419Y-108657246D01*
X191413420Y-108657246D01*
X191319624Y-108642391D01*
X189356758Y-108642391D01*
X189275778Y-108655216D01*
X189262953Y-108657248D01*
X189149886Y-108714859D01*
X189149885Y-108714860D01*
X189149880Y-108714863D01*
X189060160Y-108804583D01*
X189060157Y-108804588D01*
X189002543Y-108917659D01*
X188987688Y-109011454D01*
X188987688Y-109114699D01*
X188968003Y-109181738D01*
X188915199Y-109227493D01*
X188863688Y-109238699D01*
X183804049Y-109238699D01*
X183737010Y-109219014D01*
X183729123Y-109213502D01*
X183720569Y-109207015D01*
X183720567Y-109207014D01*
X183588100Y-109154776D01*
X183588099Y-109154775D01*
X183588098Y-109154775D01*
X183504855Y-109144779D01*
X181108751Y-109144779D01*
X181025507Y-109154775D01*
X180893036Y-109207015D01*
X180779577Y-109293053D01*
X180693539Y-109406512D01*
X180641299Y-109538983D01*
X180631303Y-109622226D01*
X179072767Y-109622226D01*
X179103158Y-104667577D01*
X194841124Y-104686559D01*
G37*
%TD.AperFunction*%
%TD*%
M02*
