M48
INCH
T1C0.0118
T2C0.0315
T3C0.0394
T4C0.0433
T5C0.0591
T6C0.0650
T7C0.0669
T8C0.0709
%
G90
G05
T1
X4.1412Y-3.9303
X4.1677Y-3.4023
X4.169Y-3.3255
X4.1703Y-3.4667
X4.2442Y-3.3981
X4.2454Y-3.3235
X4.2472Y-3.4679
X4.3149Y-3.3221
X4.3169Y-3.3981
X4.317Y-3.4674
X4.4782Y-4.003
X4.6027Y-3.6133
X4.8285Y-3.238
X5.2332Y-3.3569
X5.3708Y-3.7876
X5.4059Y-3.3134
X5.6018Y-3.8496
X5.7147Y-3.4479
X5.7503Y-3.6253
X5.7681Y-3.2315
X5.8956Y-3.4425
X5.9822Y-3.1814
X6.0157Y-3.0567
X6.0216Y-3.6758
X6.1565Y-3.7013
X6.177Y-3.5423
X6.1956Y-3.6836
X6.2106Y-3.5065
X6.231Y-3.7107
X6.2503Y-3.4977
X6.2548Y-3.2166
X6.2642Y-3.0391
X6.2876Y-3.5141
X6.3139Y-3.5433
X6.3628Y-2.9989
X6.3762Y-3.3734
X6.4032Y-3.4434
X6.4093Y-3.5616
X6.5821Y-4.2456
X6.6139Y-3.2572
X6.6569Y-2.9848
X6.7492Y-3.8778
X6.7929Y-3.1269
X6.8357Y-3.0927
X6.8566Y-3.0231
X6.8703Y-3.1455
X6.8777Y-3.88
X6.9108Y-3.3311
X6.9434Y-3.1849
X6.975Y-3.0848
X7.0027Y-3.2562
X7.0065Y-3.8789
X7.0389Y-2.9856
X7.0888Y-4.133
X7.0888Y-4.1749
X7.0888Y-4.2183
X7.0888Y-4.2617
X7.0888Y-4.3031
X7.0888Y-4.3463
X7.0888Y-4.388
X7.0888Y-4.4271
X7.0888Y-4.4658
X7.0888Y-4.5084
X7.1212Y-3.1659
X7.1307Y-4.1329
X7.1574Y-3.2678
X7.1742Y-4.1329
X7.2161Y-4.1329
X7.2599Y-4.1329
X7.263Y-4.5265
X7.2942Y-4.6445
X7.3034Y-4.1329
X7.3037Y-4.5265
X7.3453Y-4.1329
X7.3472Y-4.5265
X7.3856Y-4.1329
X7.3892Y-4.5265
X7.4232Y-4.1329
X7.4294Y-4.5265
X7.4623Y-4.1329
X7.4671Y-4.5265
X7.4999Y-4.1329
X7.5061Y-4.5265
X7.5402Y-4.1329
X7.5437Y-4.5265
X7.5778Y-4.1329
X7.584Y-4.5265
X7.6188Y-4.1329
X7.6216Y-4.5265
T2
X4.0157Y-4.6099
X4.0157Y-4.6887
X4.828Y-3.0156
X4.9068Y-3.0156
X4.9855Y-3.0156
X5.0643Y-3.0156
X7.3392Y-3.5277
X7.3392Y-3.6064
X7.3392Y-3.6852
X7.3392Y-3.7639
X7.3392Y-3.8427
T3
X4.8368Y-4.363
X4.9352Y-4.363
X5.0337Y-4.363
T4
X5.4463Y-4.2036
X5.4463Y-4.3808
X5.4463Y-4.8729
X5.4463Y-5.0501
X5.7022Y-4.2036
X5.7022Y-4.3808
X5.7022Y-4.8729
X5.7022Y-5.0501
X6.1155Y-4.2036
X6.1155Y-4.3808
X6.1155Y-4.8729
X6.1155Y-5.0501
X6.3715Y-4.2036
X6.3715Y-4.3808
X6.3715Y-4.8729
X6.3715Y-5.0501
T5
X7.4936Y-4.3304
T6
X4.2819Y-4.4237
X4.2819Y-4.6048
T7
X7.3936Y-4.2304
X7.3936Y-4.4304
X7.5936Y-4.2304
X7.5936Y-4.4304
T8
G00X4.762Y-4.6307
M15
G01X4.762Y-4.6464
M16
G05
G00X5.1085Y-4.6307
M15
G01X5.1085Y-4.6464
M16
G05
M30
