M48
INCH
T1C0.0157
T2C0.0220
T3C0.0394
T4C0.0433
T5C0.0591
T6C0.0630
T7C0.0669
T8C0.0709
%
G90
G05
T1
X4.9568Y-4.2008
X5.0096Y-4.5054
X5.0334Y-2.1215
X5.0342Y-2.0274
X5.0342Y-2.2341
X5.0429Y-4.6532
X5.0981Y-2.2996
X5.104Y-1.9786
X5.1897Y-2.3013
X5.2124Y-1.9778
X5.2863Y-2.3022
X5.3141Y-1.9769
X5.318Y-2.5254
X5.3186Y-2.813
X5.3592Y-1.737
X5.3737Y-2.0509
X5.3754Y-2.1467
X5.3779Y-2.2433
X5.4463Y-2.5216
X5.4482Y-2.8145
X5.4574Y-4.1762
X5.4678Y-5.1185
X5.5754Y-2.3905
X5.5763Y-2.5222
X5.5797Y-2.8138
X5.5927Y-1.9405
X5.5943Y-1.6418
X5.6967Y-2.9888
X5.8045Y-1.9061
X5.8274Y-2.841
X5.8616Y-2.2034
X5.9234Y-2.598
X6.0256Y-4.3393
X6.0625Y-2.54
X6.0626Y-2.6342
X6.0743Y-5.3146
X6.1154Y-2.1693
X6.1246Y-5.3111
X6.1746Y-4.3382
X6.2015Y-2.6997
X6.2225Y-4.452
X6.2497Y-2.5699
X6.2692Y-2.4301
X6.2696Y-2.4705
X6.2696Y-2.5097
X6.2735Y-4.6059
X6.2928Y-2.364
X6.306Y-2.2965
X6.313Y-2.5227
X6.3156Y-2.1956
X6.3333Y-2.4892
X6.3547Y-2.1932
X6.3562Y-2.4574
X6.3688Y-4.1353
X6.3705Y-5.0556
X6.3796Y-2.4261
X6.396Y-3.2434
X6.4154Y-2.4101
X6.4192Y-4.6426
X6.4244Y-3.0934
X6.4559Y-2.4099
X6.4875Y-2.4331
X6.5157Y-2.4603
X6.5397Y-2.4913
X6.5606Y-2.0528
X6.5614Y-2.001
X6.5626Y-2.523
X6.6249Y-2.6905
X6.6261Y-2.0717
X6.671Y-2.1281
X6.7066Y-2.089
X6.7129Y-2.4406
X6.7521Y-2.4399
X6.7673Y-4.1715
X6.7723Y-5.1202
X6.7814Y-2.5333
X6.7912Y-2.4422
X6.8303Y-2.4437
X6.842Y-2.1961
X6.8806Y-2.6097
X6.8808Y-2.5255
X6.8819Y-2.3185
X6.8829Y-2.6488
X6.9195Y-2.674
X6.921Y-2.3174
X6.9685Y-2.4424
X6.9795Y-2.7438
X7.3126Y-3.9278
X7.6715Y-4.0121
T2
X5.9751Y-3.9826
X6.0243Y-3.9826
X6.0365Y-1.7461
X6.0735Y-3.9826
X6.0857Y-1.7461
X6.1228Y-3.9826
X6.135Y-1.7461
X6.172Y-3.9826
X6.1842Y-1.7461
X6.2212Y-3.9826
X6.2334Y-1.7461
X6.2704Y-3.9826
X6.2826Y-1.7461
X6.3196Y-3.9826
X6.3318Y-1.7461
X6.3688Y-3.9826
X6.381Y-1.7461
X6.418Y-3.9826
X6.4302Y-1.7461
X6.4794Y-1.7461
T3
X4.4258Y-4.5125
X4.4258Y-4.6125
X4.4258Y-4.7125
X4.4258Y-4.8125
X5.0437Y-2.9426
X5.0437Y-3.0426
X6.1663Y-2.8801
X6.1663Y-2.9589
X6.1663Y-3.0376
X6.1663Y-3.1164
X6.1663Y-3.1951
X6.1663Y-3.2738
X6.1663Y-3.3526
X6.1663Y-3.4313
X6.7962Y-2.8801
X6.7962Y-2.9589
X6.7962Y-3.0376
X6.7962Y-3.1164
X6.7962Y-3.1951
X6.7962Y-3.2738
X6.7962Y-3.3526
X6.7962Y-3.4313
X6.8066Y-1.6113
X6.9066Y-1.6113
X7.2094Y-1.9071
X7.2094Y-2.0071
X7.2094Y-2.1071
X7.2094Y-2.2071
X7.2094Y-2.3071
X7.6097Y-4.6619
X7.7081Y-4.6619
X7.8065Y-4.6619
T4
X5.3707Y-4.3678
X5.3707Y-4.5449
X5.3707Y-5.3446
X5.3707Y-5.5218
X5.6266Y-4.3678
X5.6266Y-4.5449
X5.6266Y-5.3446
X5.6266Y-5.5218
X6.6111Y-4.3678
X6.6111Y-4.5449
X6.6111Y-5.3446
X6.6111Y-5.5218
X6.867Y-4.3678
X6.867Y-4.5449
X6.867Y-5.3446
X6.867Y-5.5218
T5
X7.1371Y-3.025
T6
X5.4946Y-2.9731
X5.4946Y-3.1581
X5.4946Y-3.3431
T7
X7.0371Y-2.925
X7.0371Y-3.125
X7.2371Y-2.925
X7.2371Y-3.125
T8
G00X7.5349Y-4.9296
M15
G01X7.5349Y-4.9453
M16
G05
G00X7.8813Y-4.9296
M15
G01X7.8813Y-4.9453
M16
G05
M30
