%TF.GenerationSoftware,KiCad,Pcbnew,8.0.6*%
%TF.CreationDate,2025-07-11T21:38:47-04:00*%
%TF.ProjectId,receiver,72656365-6976-4657-922e-6b696361645f,rev?*%
%TF.SameCoordinates,Original*%
%TF.FileFunction,Copper,L2,Bot*%
%TF.FilePolarity,Positive*%
%FSLAX46Y46*%
G04 Gerber Fmt 4.6, Leading zero omitted, Abs format (unit mm)*
G04 Created by KiCad (PCBNEW 8.0.6) date 2025-07-11 21:38:47*
%MOMM*%
%LPD*%
G01*
G04 APERTURE LIST*
G04 Aperture macros list*
%AMRoundRect*
0 Rectangle with rounded corners*
0 $1 Rounding radius*
0 $2 $3 $4 $5 $6 $7 $8 $9 X,Y pos of 4 corners*
0 Add a 4 corners polygon primitive as box body*
4,1,4,$2,$3,$4,$5,$6,$7,$8,$9,$2,$3,0*
0 Add four circle primitives for the rounded corners*
1,1,$1+$1,$2,$3*
1,1,$1+$1,$4,$5*
1,1,$1+$1,$6,$7*
1,1,$1+$1,$8,$9*
0 Add four rect primitives between the rounded corners*
20,1,$1+$1,$2,$3,$4,$5,0*
20,1,$1+$1,$4,$5,$6,$7,0*
20,1,$1+$1,$6,$7,$8,$9,0*
20,1,$1+$1,$8,$9,$2,$3,0*%
G04 Aperture macros list end*
%TA.AperFunction,ComponentPad*%
%ADD10R,1.800000X1.800000*%
%TD*%
%TA.AperFunction,ComponentPad*%
%ADD11C,1.800000*%
%TD*%
%TA.AperFunction,ComponentPad*%
%ADD12RoundRect,0.750000X-0.750000X1.250000X-0.750000X-1.250000X0.750000X-1.250000X0.750000X1.250000X0*%
%TD*%
%TA.AperFunction,ComponentPad*%
%ADD13R,1.700000X1.700000*%
%TD*%
%TA.AperFunction,ComponentPad*%
%ADD14O,1.700000X1.700000*%
%TD*%
%TA.AperFunction,ComponentPad*%
%ADD15C,2.000000*%
%TD*%
%TA.AperFunction,ComponentPad*%
%ADD16C,1.066800*%
%TD*%
%TA.AperFunction,ComponentPad*%
%ADD17RoundRect,0.200100X-0.949900X0.949900X-0.949900X-0.949900X0.949900X-0.949900X0.949900X0.949900X0*%
%TD*%
%TA.AperFunction,ComponentPad*%
%ADD18C,2.500000*%
%TD*%
%TA.AperFunction,ComponentPad*%
%ADD19R,2.108200X2.108200*%
%TD*%
%TA.AperFunction,ComponentPad*%
%ADD20C,2.108200*%
%TD*%
%TA.AperFunction,SMDPad,CuDef*%
%ADD21R,3.000000X3.000000*%
%TD*%
%TA.AperFunction,SMDPad,CuDef*%
%ADD22RoundRect,0.250000X-0.312500X-0.625000X0.312500X-0.625000X0.312500X0.625000X-0.312500X0.625000X0*%
%TD*%
%TA.AperFunction,SMDPad,CuDef*%
%ADD23RoundRect,0.250000X0.312500X0.625000X-0.312500X0.625000X-0.312500X-0.625000X0.312500X-0.625000X0*%
%TD*%
%TA.AperFunction,SMDPad,CuDef*%
%ADD24RoundRect,0.250000X-0.325000X-0.650000X0.325000X-0.650000X0.325000X0.650000X-0.325000X0.650000X0*%
%TD*%
%TA.AperFunction,SMDPad,CuDef*%
%ADD25RoundRect,0.033750X-0.101250X0.526250X-0.101250X-0.526250X0.101250X-0.526250X0.101250X0.526250X0*%
%TD*%
%TA.AperFunction,SMDPad,CuDef*%
%ADD26RoundRect,0.225000X0.225000X0.375000X-0.225000X0.375000X-0.225000X-0.375000X0.225000X-0.375000X0*%
%TD*%
%TA.AperFunction,SMDPad,CuDef*%
%ADD27RoundRect,0.150000X-0.150000X0.587500X-0.150000X-0.587500X0.150000X-0.587500X0.150000X0.587500X0*%
%TD*%
%TA.AperFunction,SMDPad,CuDef*%
%ADD28RoundRect,0.250000X0.325000X0.650000X-0.325000X0.650000X-0.325000X-0.650000X0.325000X-0.650000X0*%
%TD*%
%TA.AperFunction,ComponentPad*%
%ADD29RoundRect,0.350000X1.125000X0.350000X-1.125000X0.350000X-1.125000X-0.350000X1.125000X-0.350000X0*%
%TD*%
%TA.AperFunction,ViaPad*%
%ADD30C,0.800000*%
%TD*%
%TA.AperFunction,Conductor*%
%ADD31C,0.250000*%
%TD*%
%TA.AperFunction,Conductor*%
%ADD32C,0.500000*%
%TD*%
%TA.AperFunction,Conductor*%
%ADD33C,1.082160*%
%TD*%
G04 APERTURE END LIST*
D10*
%TO.P,RV1,1,1*%
%TO.N,Net-(BUZ_R1-Pad1)*%
X198285888Y-118411743D03*
D11*
%TO.P,RV1,2,2*%
%TO.N,Net-(BUZ_D1-K)*%
X195785888Y-118411743D03*
%TO.P,RV1,3,3*%
X193285888Y-118411743D03*
D12*
%TO.P,RV1,MP*%
%TO.N,N/C*%
X200185888Y-125411743D03*
X191385888Y-125411743D03*
%TD*%
D13*
%TO.P,PWR_J1,1,Pin_1*%
%TO.N,Net-(PWR_J1-Pin_1)*%
X128108863Y-77282777D03*
D14*
%TO.P,PWR_J1,2,Pin_2*%
%TO.N,GND*%
X128108863Y-74742777D03*
%TD*%
D15*
%TO.P,SW3,1,1*%
%TO.N,PUSH_3_IB*%
X136415298Y-135752778D03*
X142915298Y-135752778D03*
%TO.P,SW3,2,2*%
%TO.N,GND_IB*%
X136415298Y-140252778D03*
X142915298Y-140252778D03*
%TD*%
%TO.P,SW1,1,1*%
%TO.N,PUSH_1_IB*%
X167921788Y-110941627D03*
X174421788Y-110941627D03*
%TO.P,SW1,2,2*%
%TO.N,GND_IB*%
X167921788Y-115441627D03*
X174421788Y-115441627D03*
%TD*%
D16*
%TO.P,IF1,1,P1*%
%TO.N,GND*%
X164577829Y-44350546D03*
%TO.P,IF1,2,P2*%
%TO.N,PUSH_4*%
X163327829Y-44350546D03*
%TO.P,IF1,3,P3*%
%TO.N,PUSH_3*%
X162077829Y-44350546D03*
%TO.P,IF1,4,P4*%
%TO.N,PUSH_2*%
X160827829Y-44350546D03*
%TO.P,IF1,5,P5*%
%TO.N,PUSH_1*%
X159577829Y-44350546D03*
%TO.P,IF1,6,P6*%
%TO.N,I2C_SCL*%
X158327829Y-44350546D03*
%TO.P,IF1,7,P7*%
%TO.N,I2C_SDA*%
X157077829Y-44350546D03*
%TO.P,IF1,8,P8*%
%TO.N,BUZZER*%
X155827829Y-44350546D03*
%TO.P,IF1,9,P9*%
%TO.N,+3.3V*%
X154577829Y-44350546D03*
%TO.P,IF1,10,P10*%
%TO.N,+5V*%
X153327829Y-44350546D03*
%TD*%
D15*
%TO.P,SW4,1,1*%
%TO.N,PUSH_4_IB*%
X136415298Y-110941627D03*
X142915298Y-110941627D03*
%TO.P,SW4,2,2*%
%TO.N,GND_IB*%
X136415298Y-115441627D03*
X142915298Y-115441627D03*
%TD*%
D13*
%TO.P,J3,1,Pin_1*%
%TO.N,UART4_TX*%
X175428337Y-40927890D03*
D14*
%TO.P,J3,2,Pin_2*%
%TO.N,UART4_RX*%
X172888337Y-40927890D03*
%TD*%
D15*
%TO.P,SW2,1,1*%
%TO.N,PUSH_2_IB*%
X167921788Y-135752778D03*
X174421788Y-135752778D03*
%TO.P,SW2,2,2*%
%TO.N,GND_IB*%
X167921788Y-140252778D03*
X174421788Y-140252778D03*
%TD*%
D13*
%TO.P,J2,1,Pin_1*%
%TO.N,SYS_SWDIO*%
X183117816Y-48439839D03*
D14*
%TO.P,J2,2,Pin_2*%
%TO.N,SYS_SWCLK*%
X183117816Y-50979839D03*
%TO.P,J2,3,Pin_3*%
%TO.N,+3.3V*%
X183117816Y-53519839D03*
%TO.P,J2,4,Pin_4*%
%TO.N,SYS_TRACESWO*%
X183117816Y-56059839D03*
%TO.P,J2,5,Pin_5*%
%TO.N,GND*%
X183117816Y-58599839D03*
%TD*%
D17*
%TO.P,J1,1,In*%
%TO.N,/Capteurs/ANT*%
X181282612Y-76833861D03*
D18*
%TO.P,J1,2,Ext*%
%TO.N,GND*%
X183822612Y-74293861D03*
X178742612Y-74293861D03*
X183822612Y-79373861D03*
X178742612Y-79373861D03*
%TD*%
D19*
%TO.P,SW5,1,A*%
%TO.N,Net-(Q2-D)*%
X139561857Y-84915114D03*
D20*
%TO.P,SW5,2,B*%
%TO.N,Net-(PWR_J1-Pin_1)*%
X139561857Y-80216114D03*
%TO.P,SW5,3,C*%
%TO.N,unconnected-(SW5-C-Pad3)*%
X139561857Y-75517114D03*
%TD*%
D16*
%TO.P,IF2,1,P1*%
%TO.N,+5V_IB*%
X163018039Y-101157615D03*
%TO.P,IF2,2,P2*%
%TO.N,+3.3V_IB*%
X161768039Y-101157615D03*
%TO.P,IF2,3,P3*%
%TO.N,BUZZER_IB*%
X160518039Y-101157615D03*
%TO.P,IF2,4,P4*%
%TO.N,I2C_SDA_IB*%
X159268039Y-101157615D03*
%TO.P,IF2,5,P5*%
%TO.N,I2C_SCL_IB*%
X158018039Y-101157615D03*
%TO.P,IF2,6,P6*%
%TO.N,PUSH_1_IB*%
X156768039Y-101157615D03*
%TO.P,IF2,7,P7*%
%TO.N,PUSH_2_IB*%
X155518039Y-101157615D03*
%TO.P,IF2,8,P8*%
%TO.N,PUSH_3_IB*%
X154268039Y-101157615D03*
%TO.P,IF2,9,P9*%
%TO.N,PUSH_4_IB*%
X153018039Y-101157615D03*
%TO.P,IF2,10,P10*%
%TO.N,GND_IB*%
X151768039Y-101157615D03*
%TD*%
D21*
%TO.P,BZ1,1,-*%
%TO.N,Net-(BUZ_D1-K)*%
X200487407Y-139324589D03*
%TO.P,BZ1,2,+*%
%TO.N,Net-(BUZ_D1-A)*%
X192087407Y-139324589D03*
%TD*%
D22*
%TO.P,BUT_R3,1*%
%TO.N,+3.3V_IB*%
X138244227Y-132163294D03*
%TO.P,BUT_R3,2*%
%TO.N,PUSH_3_IB*%
X141169227Y-132163294D03*
%TD*%
D23*
%TO.P,BUT_R1,1*%
%TO.N,+3.3V_IB*%
X172707257Y-107912404D03*
%TO.P,BUT_R1,2*%
%TO.N,PUSH_1_IB*%
X169782257Y-107912404D03*
%TD*%
%TO.P,BUZ_R1,1*%
%TO.N,Net-(BUZ_R1-Pad1)*%
X198161742Y-115422974D03*
%TO.P,BUZ_R1,2*%
%TO.N,+5V_IB*%
X195236742Y-115422974D03*
%TD*%
D22*
%TO.P,BUT_R4,1*%
%TO.N,+3.3V_IB*%
X137888033Y-107853039D03*
%TO.P,BUT_R4,2*%
%TO.N,PUSH_4_IB*%
X140813033Y-107853039D03*
%TD*%
D24*
%TO.P,LLS_C1,1*%
%TO.N,GND_IB*%
X122828004Y-112133987D03*
%TO.P,LLS_C1,2*%
%TO.N,+3.3V_IB*%
X125778004Y-112133987D03*
%TD*%
D13*
%TO.P,J4,1,GND*%
%TO.N,GND_IB*%
X112415550Y-122238730D03*
D14*
%TO.P,J4,2,VCC*%
%TO.N,+5V_IB*%
X112415550Y-119698730D03*
%TO.P,J4,3,SDA*%
%TO.N,Net-(J4-SDA)*%
X112415550Y-117158730D03*
%TO.P,J4,4,SCL*%
%TO.N,Net-(J4-SCL)*%
X112415550Y-114618730D03*
%TD*%
D25*
%TO.P,U5,1,B2*%
%TO.N,Net-(J4-SCL)*%
X123532048Y-114438266D03*
%TO.P,U5,2,GND*%
%TO.N,GND_IB*%
X124032048Y-114438266D03*
%TO.P,U5,3,VCCA*%
%TO.N,+3.3V_IB*%
X124532048Y-114438266D03*
%TO.P,U5,4,A2*%
%TO.N,I2C_SCL_IB*%
X125032048Y-114438266D03*
%TO.P,U5,5,A1*%
%TO.N,I2C_SDA_IB*%
X125032048Y-117248266D03*
%TO.P,U5,6,OE*%
%TO.N,+3.3V_IB*%
X124532048Y-117248266D03*
%TO.P,U5,7,VCCB*%
%TO.N,+5V_IB*%
X124032048Y-117248266D03*
%TO.P,U5,8,B1*%
%TO.N,Net-(J4-SDA)*%
X123532048Y-117248266D03*
%TD*%
D26*
%TO.P,BUZ_D1,1,K*%
%TO.N,Net-(BUZ_D1-K)*%
X189192870Y-146127445D03*
%TO.P,BUZ_D1,2,A*%
%TO.N,Net-(BUZ_D1-A)*%
X185892870Y-146127445D03*
%TD*%
D27*
%TO.P,Q1,1,C*%
%TO.N,Net-(BUZ_D1-A)*%
X187440594Y-139411476D03*
%TO.P,Q1,2,B*%
%TO.N,Net-(Q1-B)*%
X186490594Y-137536476D03*
%TO.P,Q1,3,E*%
%TO.N,GND_IB*%
X188390594Y-137536476D03*
%TD*%
D28*
%TO.P,LLS_C2,1*%
%TO.N,GND_IB*%
X125805134Y-119987997D03*
%TO.P,LLS_C2,2*%
%TO.N,+5V_IB*%
X122855134Y-119987997D03*
%TD*%
D23*
%TO.P,LLS_R2,1*%
%TO.N,+3.3V_IB*%
X125820556Y-123003474D03*
%TO.P,LLS_R2,2*%
%TO.N,GND_IB*%
X122895556Y-123003474D03*
%TD*%
D29*
%TO.P,RF1,1,ANT*%
%TO.N,/Capteurs/ANT*%
X172149215Y-73155492D03*
%TO.P,RF1,2,GND*%
%TO.N,GND*%
X172149215Y-75155492D03*
%TO.P,RF1,3,RX_ANT*%
%TO.N,RFM_GPIO4*%
X172149215Y-77155492D03*
%TO.P,RF1,4,TX_ANT*%
%TO.N,RFM_GPIO5*%
X172149215Y-79155492D03*
%TO.P,RF1,5,VCC*%
%TO.N,+3.3V*%
X172149215Y-81155492D03*
%TO.P,RF1,6,GPIO_0*%
%TO.N,RFM_GPIO1*%
X172149215Y-83155492D03*
%TO.P,RF1,7,GPIO_1*%
%TO.N,RFM_GPIO2*%
X172149215Y-85155492D03*
%TO.P,RF1,8,GPIO_2*%
%TO.N,RFM_GPIO3*%
X172149215Y-87155492D03*
%TO.P,RF1,9,GND*%
%TO.N,GND*%
X157099215Y-73155492D03*
%TO.P,RF1,10,SDN*%
%TO.N,RFM_SDN*%
X157099215Y-75155492D03*
%TO.P,RF1,11,NIRQ*%
%TO.N,RFM_NIRQ*%
X157099215Y-77155492D03*
%TO.P,RF1,12,NSEL*%
%TO.N,SPI_RFM_CS*%
X157099215Y-79155492D03*
%TO.P,RF1,13,SCK*%
%TO.N,SPI_SCK*%
X157099215Y-81155492D03*
%TO.P,RF1,14,SDI*%
%TO.N,SPI_MOSI*%
X157099215Y-83155492D03*
%TO.P,RF1,15,SDO*%
%TO.N,SPI_MISO*%
X157099215Y-85155492D03*
%TO.P,RF1,16,GND*%
%TO.N,GND*%
X157099215Y-87155492D03*
%TD*%
D22*
%TO.P,BUZ_R2,1*%
%TO.N,BUZZER_IB*%
X185844786Y-134688525D03*
%TO.P,BUZ_R2,2*%
%TO.N,Net-(Q1-B)*%
X188769786Y-134688525D03*
%TD*%
D23*
%TO.P,BUT_R2,1*%
%TO.N,+3.3V_IB*%
X172833409Y-132816316D03*
%TO.P,BUT_R2,2*%
%TO.N,PUSH_2_IB*%
X169908409Y-132816316D03*
%TD*%
D30*
%TO.N,GND*%
X132394258Y-50235288D03*
X153988978Y-66908813D03*
X159838059Y-60044940D03*
X177278570Y-69693425D03*
X136599561Y-56980851D03*
X141723367Y-71469344D03*
X155331844Y-55099983D03*
X168273575Y-68339953D03*
X153987380Y-64516701D03*
X142094537Y-41701394D03*
X129491104Y-58411082D03*
X177001094Y-62036645D03*
X134977211Y-50213942D03*
X135091653Y-71450369D03*
X157519345Y-68572119D03*
X134272769Y-58475122D03*
X141616040Y-60718899D03*
X127868753Y-56746038D03*
X148014719Y-72160147D03*
X172248581Y-64345469D03*
X131817896Y-58453775D03*
X138383792Y-71488319D03*
X144695304Y-75915391D03*
X129640531Y-50256635D03*
X173785544Y-55780099D03*
X150453581Y-65989167D03*
X166660779Y-50826667D03*
X148885309Y-55966527D03*
X147434207Y-48413702D03*
X127868753Y-51494745D03*
X127847407Y-53885577D03*
X136535521Y-54525979D03*
X142054834Y-49288917D03*
X136492828Y-52092453D03*
X136122818Y-44120640D03*
%TO.N,PUSH_1*%
X170507492Y-61990663D03*
%TO.N,PUSH_2*%
X171502336Y-61972898D03*
%TO.N,PUSH_3*%
X172495549Y-62032539D03*
%TO.N,PUSH_4*%
X173489838Y-62070210D03*
%TO.N,BUZZER*%
X160172716Y-58331479D03*
%TO.N,I2C_SDA*%
X160415890Y-55768302D03*
X174825773Y-67278692D03*
%TO.N,I2C_SCL*%
X161409091Y-55708454D03*
X174766410Y-66285462D03*
%TO.N,SYS_SWCLK*%
X170346406Y-53060514D03*
%TO.N,SYS_TRACESWO*%
X169443138Y-54054781D03*
%TO.N,LED1*%
X159237329Y-61725469D03*
X135076725Y-64145364D03*
%TO.N,LED2*%
X159246816Y-62750111D03*
X138336252Y-64048711D03*
%TO.N,LED3*%
X159246816Y-63745114D03*
X141637879Y-64064879D03*
%TO.N,PUSH_1_IB*%
X156833571Y-110189770D03*
%TO.N,SPI_SCK*%
X160864723Y-63225458D03*
%TO.N,SPI_MOSI*%
X162043080Y-61621930D03*
X162459227Y-82383465D03*
%TO.N,+3.3V_IB*%
X161768039Y-105036422D03*
X138882315Y-130010218D03*
X172015176Y-130054120D03*
X171889891Y-105956591D03*
X125902744Y-106700959D03*
X161809840Y-128411669D03*
X138617639Y-106075323D03*
%TO.N,SPI_MISO*%
X161446955Y-62418589D03*
%TO.N,RFM_NIRQ*%
X160349267Y-64076536D03*
%TO.N,SPI_RFM_CS*%
X163179227Y-78573076D03*
X162952305Y-61217775D03*
%TO.N,RFM_GPIO2*%
X164781871Y-61801108D03*
%TO.N,RFM_GPIO3*%
X163980209Y-61211728D03*
%TO.N,RFM_SDN*%
X158741808Y-65275744D03*
%TO.N,RFM_GPIO1*%
X165497609Y-62492301D03*
%TO.N,MLX_INT*%
X174799103Y-58889154D03*
X174771516Y-64148814D03*
%TO.N,PUSH_2_IB*%
X155564629Y-134900744D03*
%TO.N,PUSH_3_IB*%
X154288268Y-134989795D03*
%TO.N,MLX_INT{slash}TRIG*%
X175793742Y-58862271D03*
X175756132Y-67919275D03*
%TO.N,PUSH_4_IB*%
X153049010Y-110219456D03*
%TO.N,+5V_IB*%
X194855759Y-101907355D03*
X163048359Y-117922726D03*
%TO.N,BUZZER_IB*%
X185741037Y-99766226D03*
%TO.N,I2C_SCL_IB*%
X127243350Y-114437800D03*
X158050439Y-113079808D03*
%TO.N,I2C_SDA_IB*%
X159346590Y-116989698D03*
X128090546Y-118191854D03*
%TO.N,RFM_GPIO4*%
X166689673Y-64085370D03*
%TO.N,RFM_GPIO5*%
X166107635Y-63278366D03*
%TO.N,UART4_TX*%
X168301865Y-52622222D03*
%TO.N,UART4_RX*%
X166638402Y-52140374D03*
%TD*%
D31*
%TO.N,PUSH_1*%
X159597540Y-44370257D02*
X159597540Y-51080711D01*
X159577829Y-44350546D02*
X159597540Y-44370257D01*
X159597540Y-51080711D02*
X170507492Y-61990663D01*
%TO.N,PUSH_2*%
X170790789Y-61270663D02*
X170805726Y-61270663D01*
X170805726Y-61270663D02*
X171502336Y-61967273D01*
X160827829Y-51307703D02*
X170790789Y-61270663D01*
X160827829Y-44350546D02*
X160827829Y-51307703D01*
X171502336Y-61967273D02*
X171502336Y-61972898D01*
%TO.N,PUSH_3*%
X162077829Y-44350546D02*
X162077829Y-51549071D01*
X162077829Y-51549071D02*
X171781656Y-61252898D01*
X172495549Y-61947877D02*
X172495549Y-62032539D01*
X171800570Y-61252898D02*
X172495549Y-61947877D01*
X171781656Y-61252898D02*
X171800570Y-61252898D01*
%TO.N,PUSH_4*%
X172793783Y-61312539D02*
X173489838Y-62008594D01*
X163327829Y-51934529D02*
X172705839Y-61312539D01*
X173489838Y-62008594D02*
X173489838Y-62070210D01*
X163327829Y-44350546D02*
X163327829Y-51934529D01*
X172705839Y-61312539D02*
X172793783Y-61312539D01*
%TO.N,Net-(BUZ_D1-K)*%
X193684551Y-146127445D02*
X200487407Y-139324589D01*
D32*
X193285888Y-118411743D02*
X195785888Y-118411743D01*
D31*
X189192870Y-146127445D02*
X193684551Y-146127445D01*
D32*
X195785888Y-134623070D02*
X200487407Y-139324589D01*
X195785888Y-118411743D02*
X195785888Y-134623070D01*
D31*
%TO.N,Net-(BUZ_D1-A)*%
X185892870Y-145519126D02*
X192087407Y-139324589D01*
D32*
X187440594Y-139411476D02*
X192000520Y-139411476D01*
D31*
X185892870Y-146127445D02*
X185892870Y-145519126D01*
D32*
X192000520Y-139411476D02*
X192087407Y-139324589D01*
D31*
%TO.N,BUZZER*%
X160172716Y-58331479D02*
X155827829Y-53986592D01*
X155827829Y-53986592D02*
X155827829Y-44350546D01*
%TO.N,Net-(Q1-B)*%
X186490594Y-137536476D02*
X188769786Y-135257284D01*
X188769786Y-135257284D02*
X188769786Y-134688525D01*
%TO.N,I2C_SDA*%
X157077829Y-52184011D02*
X157077829Y-44350546D01*
X160415890Y-55768302D02*
X160415890Y-55522072D01*
X160415890Y-55768302D02*
X160450705Y-55768302D01*
X171961095Y-67278692D02*
X174825773Y-67278692D01*
X160450705Y-55768302D02*
X171961095Y-67278692D01*
X160415890Y-55522072D02*
X157077829Y-52184011D01*
%TO.N,I2C_SCL*%
X161409091Y-54838370D02*
X161409091Y-55708454D01*
X161409091Y-55708454D02*
X171986099Y-66285462D01*
X158327829Y-51757108D02*
X161409091Y-54838370D01*
X171986099Y-66285462D02*
X174766410Y-66285462D01*
X158327829Y-44350546D02*
X158327829Y-51757108D01*
D33*
%TO.N,/Capteurs/ANT*%
X172624215Y-73155492D02*
X173670262Y-73155492D01*
X177348631Y-76833861D02*
X181282612Y-76833861D01*
X173670262Y-73155492D02*
X177348631Y-76833861D01*
D31*
%TO.N,SYS_SWCLK*%
X181037141Y-53060514D02*
X183117816Y-50979839D01*
X170346406Y-53060514D02*
X181037141Y-53060514D01*
%TO.N,SYS_TRACESWO*%
X181112758Y-54054781D02*
X183117816Y-56059839D01*
X169443138Y-54054781D02*
X181112758Y-54054781D01*
%TO.N,LED1*%
X159237329Y-61725469D02*
X137496620Y-61725469D01*
X137496620Y-61725469D02*
X135076725Y-64145364D01*
%TO.N,LED2*%
X139634852Y-62750111D02*
X138336252Y-64048711D01*
X159246816Y-62750111D02*
X139634852Y-62750111D01*
%TO.N,LED3*%
X141957644Y-63745114D02*
X141637879Y-64064879D01*
X159246816Y-63745114D02*
X141957644Y-63745114D01*
%TO.N,PUSH_1_IB*%
X167921788Y-110941627D02*
X174421788Y-110941627D01*
X156833571Y-110189770D02*
X156768039Y-110124238D01*
X156768039Y-110124238D02*
X156768039Y-101157615D01*
X169782257Y-109081158D02*
X167921788Y-110941627D01*
X169782257Y-107912404D02*
X169782257Y-109081158D01*
%TO.N,SPI_SCK*%
X161069267Y-64374770D02*
X161069267Y-63430002D01*
X156624215Y-81155492D02*
X158852169Y-81155492D01*
X158852169Y-81155492D02*
X160954284Y-79053377D01*
X160954284Y-64489753D02*
X161069267Y-64374770D01*
X161069267Y-63430002D02*
X160864723Y-63225458D01*
X160954284Y-79053377D02*
X160954284Y-64489753D01*
%TO.N,SPI_MOSI*%
X162459227Y-82383465D02*
X162459227Y-62038077D01*
X162459227Y-62038077D02*
X162043080Y-61621930D01*
D32*
%TO.N,+3.3V_IB*%
X172015176Y-130054120D02*
X172833409Y-130872353D01*
D31*
X124532048Y-113379943D02*
X125778004Y-112133987D01*
D32*
X161768039Y-128369868D02*
X161809840Y-128411669D01*
X137888033Y-107853039D02*
X137888033Y-106804929D01*
D31*
X124532048Y-114438266D02*
X124532048Y-113379943D01*
X124532048Y-117248266D02*
X124532048Y-114438266D01*
D32*
X172707257Y-106773957D02*
X172707257Y-107912404D01*
X125902744Y-106700959D02*
X125778004Y-106825699D01*
X138244227Y-132163294D02*
X138244227Y-130648306D01*
X138244227Y-130648306D02*
X138882315Y-130010218D01*
X161768039Y-101157615D02*
X161768039Y-105036422D01*
X137888033Y-106804929D02*
X138617639Y-106075323D01*
X172833409Y-130872353D02*
X172833409Y-132816316D01*
X161768039Y-105036422D02*
X161768039Y-128369868D01*
D31*
X125820556Y-123003474D02*
X124532048Y-121714966D01*
D32*
X171889891Y-105956591D02*
X172707257Y-106773957D01*
D31*
X124532048Y-121714966D02*
X124532048Y-117248266D01*
D32*
X125778004Y-106825699D02*
X125778004Y-112133987D01*
D31*
%TO.N,SPI_MISO*%
X159142859Y-85155492D02*
X161584723Y-82713628D01*
X156624215Y-85155492D02*
X159142859Y-85155492D01*
X161584723Y-82713628D02*
X161584723Y-62556357D01*
X161584723Y-62556357D02*
X161446955Y-62418589D01*
%TO.N,RFM_NIRQ*%
X160349267Y-75757670D02*
X160349267Y-64076536D01*
X156624215Y-77155492D02*
X158951445Y-77155492D01*
X158951445Y-77155492D02*
X160349267Y-75757670D01*
%TO.N,SPI_RFM_CS*%
X163179227Y-78573076D02*
X163179227Y-61444697D01*
X163179227Y-61444697D02*
X162952305Y-61217775D01*
%TO.N,RFM_GPIO2*%
X164777609Y-79662730D02*
X164777609Y-61805370D01*
X164777609Y-61805370D02*
X164781871Y-61801108D01*
X172624215Y-85155492D02*
X170270371Y-85155492D01*
X170270371Y-85155492D02*
X164777609Y-79662730D01*
%TO.N,RFM_GPIO3*%
X169967053Y-87121263D02*
X163980209Y-81134419D01*
X163980209Y-81134419D02*
X163980209Y-61211728D01*
X171772653Y-87155492D02*
X171738424Y-87121263D01*
X171738424Y-87121263D02*
X169967053Y-87121263D01*
X172624215Y-87155492D02*
X171772653Y-87155492D01*
%TO.N,RFM_SDN*%
X158741808Y-65275744D02*
X154742389Y-69275163D01*
X155788260Y-75155492D02*
X156624215Y-75155492D01*
X154742389Y-74109621D02*
X155788260Y-75155492D01*
X154742389Y-69275163D02*
X154742389Y-74109621D01*
%TO.N,RFM_GPIO1*%
X172624215Y-83155492D02*
X170318488Y-83155492D01*
X170318488Y-83155492D02*
X165387635Y-78224639D01*
X165387635Y-62602275D02*
X165497609Y-62492301D01*
X165387635Y-78224639D02*
X165387635Y-62602275D01*
%TO.N,MLX_INT*%
X174799103Y-64121227D02*
X174799103Y-58889154D01*
X174771516Y-64148814D02*
X174799103Y-64121227D01*
%TO.N,PUSH_2_IB*%
X167921788Y-135752778D02*
X174421788Y-135752778D01*
X155564629Y-134900744D02*
X155518039Y-134854154D01*
X155518039Y-134854154D02*
X155518039Y-101157615D01*
X169908409Y-132816316D02*
X169908409Y-133766157D01*
X169908409Y-133766157D02*
X167921788Y-135752778D01*
%TO.N,PUSH_3_IB*%
X154288268Y-134989795D02*
X154268039Y-134969566D01*
X141169227Y-134006707D02*
X142915298Y-135752778D01*
X141169227Y-132163294D02*
X141169227Y-134006707D01*
X154268039Y-134969566D02*
X154268039Y-101157615D01*
X136415298Y-135752778D02*
X142915298Y-135752778D01*
%TO.N,MLX_INT{slash}TRIG*%
X175756132Y-67919275D02*
X175756132Y-58899881D01*
X175756132Y-58899881D02*
X175793742Y-58862271D01*
D32*
%TO.N,Net-(BUZ_R1-Pad1)*%
X198161742Y-115422974D02*
X198161742Y-118287597D01*
X198161742Y-118287597D02*
X198285888Y-118411743D01*
D31*
%TO.N,PUSH_4_IB*%
X153049010Y-110219456D02*
X153018039Y-110188485D01*
X136415298Y-110941627D02*
X142915298Y-110941627D01*
X140813033Y-108839362D02*
X142915298Y-110941627D01*
X140813033Y-107853039D02*
X140813033Y-108839362D01*
X153018039Y-110188485D02*
X153018039Y-101157615D01*
%TO.N,+5V_IB*%
X112415550Y-119698730D02*
X122565867Y-119698730D01*
D32*
X195236742Y-102288338D02*
X195236742Y-115422974D01*
D31*
X122565867Y-119698730D02*
X122855134Y-119987997D01*
X122855134Y-119987997D02*
X124032048Y-118811083D01*
X124032048Y-118811083D02*
X124032048Y-117248266D01*
D32*
X194855759Y-101907355D02*
X195236742Y-102288338D01*
X163018039Y-101157615D02*
X163018039Y-117892406D01*
X163018039Y-117892406D02*
X163048359Y-117922726D01*
%TO.N,BUZZER_IB*%
X185741037Y-99766226D02*
X185844786Y-99869975D01*
X185844786Y-99869975D02*
X185844786Y-134688525D01*
D31*
%TO.N,GND_IB*%
X124032048Y-113338031D02*
X122828004Y-112133987D01*
X124032048Y-114438266D02*
X124032048Y-113338031D01*
%TO.N,I2C_SCL_IB*%
X158050439Y-113079808D02*
X158018039Y-113047408D01*
X127242884Y-114438266D02*
X127243350Y-114437800D01*
X125032048Y-114438266D02*
X127242884Y-114438266D01*
X158018039Y-113047408D02*
X158018039Y-101157615D01*
%TO.N,I2C_SDA_IB*%
X127146958Y-117248266D02*
X128090546Y-118191854D01*
X159311149Y-101157615D02*
X159268039Y-101157615D01*
X159346590Y-116989698D02*
X159346590Y-101193056D01*
X125032048Y-117248266D02*
X127146958Y-117248266D01*
X159346590Y-101193056D02*
X159311149Y-101157615D01*
%TO.N,Net-(J4-SCL)*%
X123351584Y-114618730D02*
X123532048Y-114438266D01*
X112415550Y-114618730D02*
X123351584Y-114618730D01*
%TO.N,Net-(J4-SDA)*%
X112415550Y-117158730D02*
X123442512Y-117158730D01*
X123442512Y-117158730D02*
X123532048Y-117248266D01*
%TO.N,RFM_GPIO4*%
X169480712Y-77155492D02*
X166689673Y-74364453D01*
X172624215Y-77155492D02*
X169480712Y-77155492D01*
X166689673Y-74364453D02*
X166689673Y-64085370D01*
%TO.N,RFM_GPIO5*%
X169872594Y-79155492D02*
X165949416Y-75232314D01*
X165949416Y-75232314D02*
X165949416Y-63436585D01*
X172624215Y-79155492D02*
X169872594Y-79155492D01*
X165949416Y-63436585D02*
X166107635Y-63278366D01*
%TO.N,UART4_TX*%
X168775140Y-52622222D02*
X175428337Y-45969025D01*
X168301865Y-52622222D02*
X168775140Y-52622222D01*
X175428337Y-45969025D02*
X175428337Y-40927890D01*
%TO.N,UART4_RX*%
X166638402Y-52140374D02*
X166653875Y-52140374D01*
X166653875Y-52140374D02*
X172888337Y-45905912D01*
X172888337Y-45905912D02*
X172888337Y-40927890D01*
%TD*%
%TA.AperFunction,Conductor*%
%TO.N,GND*%
G36*
X185529048Y-39077635D02*
G01*
X185574803Y-39130439D01*
X185586009Y-39181950D01*
X185586009Y-71057722D01*
X185566324Y-71124761D01*
X185513520Y-71170516D01*
X185461404Y-71181721D01*
X169184901Y-71102327D01*
X169184859Y-71102327D01*
X169251622Y-76041812D01*
X167351492Y-74141682D01*
X167318007Y-74080359D01*
X167315173Y-74054001D01*
X167315173Y-64784057D01*
X167334858Y-64717018D01*
X167347023Y-64701085D01*
X167368188Y-64677578D01*
X167422206Y-64617586D01*
X167516852Y-64453654D01*
X167575347Y-64273626D01*
X167595133Y-64085370D01*
X167595132Y-64085367D01*
X167595354Y-64083263D01*
X167621938Y-64018648D01*
X167679236Y-63978663D01*
X167749055Y-63976003D01*
X167806356Y-64008543D01*
X171562358Y-67764547D01*
X171562362Y-67764550D01*
X171664803Y-67833000D01*
X171664810Y-67833004D01*
X171728599Y-67859426D01*
X171778643Y-67880155D01*
X171798692Y-67884143D01*
X171832291Y-67890826D01*
X171899487Y-67904193D01*
X171899489Y-67904193D01*
X172028816Y-67904193D01*
X172028836Y-67904192D01*
X174122025Y-67904192D01*
X174189064Y-67923877D01*
X174214173Y-67945218D01*
X174219899Y-67951577D01*
X174219903Y-67951581D01*
X174373038Y-68062840D01*
X174373043Y-68062843D01*
X174545965Y-68139834D01*
X174545970Y-68139836D01*
X174731127Y-68179192D01*
X174803651Y-68179192D01*
X174870690Y-68198877D01*
X174916445Y-68251681D01*
X174921582Y-68264874D01*
X174928950Y-68287553D01*
X174928953Y-68287559D01*
X175023599Y-68451491D01*
X175150261Y-68592163D01*
X175303397Y-68703423D01*
X175303402Y-68703426D01*
X175476324Y-68780417D01*
X175476329Y-68780419D01*
X175661486Y-68819775D01*
X175661487Y-68819775D01*
X175850776Y-68819775D01*
X175850778Y-68819775D01*
X176035935Y-68780419D01*
X176208862Y-68703426D01*
X176362003Y-68592163D01*
X176488665Y-68451491D01*
X176583311Y-68287559D01*
X176641806Y-68107531D01*
X176661592Y-67919275D01*
X176641806Y-67731019D01*
X176583311Y-67550991D01*
X176488665Y-67387059D01*
X176413482Y-67303559D01*
X176383252Y-67240567D01*
X176381632Y-67220587D01*
X176381632Y-59602727D01*
X176401317Y-59535688D01*
X176413472Y-59519766D01*
X176526275Y-59394487D01*
X176620921Y-59230555D01*
X176679416Y-59050527D01*
X176699202Y-58862271D01*
X176679416Y-58674015D01*
X176620921Y-58493987D01*
X176526275Y-58330055D01*
X176399613Y-58189383D01*
X176399612Y-58189382D01*
X176246476Y-58078122D01*
X176246471Y-58078119D01*
X176073549Y-58001128D01*
X176073544Y-58001126D01*
X175927743Y-57970136D01*
X175888388Y-57961771D01*
X175699096Y-57961771D01*
X175666639Y-57968669D01*
X175513939Y-58001126D01*
X175513934Y-58001128D01*
X175341009Y-58078121D01*
X175335384Y-58081369D01*
X175334599Y-58080010D01*
X175276268Y-58100807D01*
X175218782Y-58090287D01*
X175078910Y-58028011D01*
X175078905Y-58028009D01*
X174933104Y-57997019D01*
X174893749Y-57988654D01*
X174704457Y-57988654D01*
X174672000Y-57995552D01*
X174519300Y-58028009D01*
X174519295Y-58028011D01*
X174346373Y-58105002D01*
X174346368Y-58105005D01*
X174193232Y-58216265D01*
X174066569Y-58356939D01*
X173971924Y-58520869D01*
X173971921Y-58520876D01*
X173913430Y-58700894D01*
X173913429Y-58700898D01*
X173893643Y-58889154D01*
X173913429Y-59077410D01*
X173913430Y-59077413D01*
X173971921Y-59257431D01*
X173971924Y-59257438D01*
X174066570Y-59421370D01*
X174109875Y-59469464D01*
X174141753Y-59504869D01*
X174171983Y-59567860D01*
X174173603Y-59587841D01*
X174173603Y-61210551D01*
X174153918Y-61277590D01*
X174101114Y-61323345D01*
X174031956Y-61333289D01*
X173976719Y-61310870D01*
X173942571Y-61286061D01*
X173942567Y-61286058D01*
X173769645Y-61209067D01*
X173769640Y-61209065D01*
X173584482Y-61169709D01*
X173578016Y-61169030D01*
X173578212Y-61167157D01*
X173519867Y-61150025D01*
X173499225Y-61133391D01*
X173286711Y-60920877D01*
X173286708Y-60920873D01*
X173286708Y-60920874D01*
X173279641Y-60913807D01*
X173279641Y-60913806D01*
X173192516Y-60826681D01*
X173192515Y-60826680D01*
X173192514Y-60826679D01*
X173129846Y-60784806D01*
X173109819Y-60771424D01*
X173090068Y-60758226D01*
X173047233Y-60740484D01*
X173020755Y-60729517D01*
X172980527Y-60702637D01*
X164418264Y-52140374D01*
X165732942Y-52140374D01*
X165752728Y-52328630D01*
X165752729Y-52328633D01*
X165811220Y-52508651D01*
X165811223Y-52508658D01*
X165905869Y-52672590D01*
X166017577Y-52796654D01*
X166032531Y-52813262D01*
X166185667Y-52924522D01*
X166185672Y-52924525D01*
X166358594Y-53001516D01*
X166358599Y-53001518D01*
X166543756Y-53040874D01*
X166543757Y-53040874D01*
X166733046Y-53040874D01*
X166733048Y-53040874D01*
X166918205Y-53001518D01*
X167091132Y-52924525D01*
X167244273Y-52813262D01*
X167244277Y-52813257D01*
X167246012Y-52811997D01*
X167311819Y-52788517D01*
X167379872Y-52804342D01*
X167428567Y-52854448D01*
X167436829Y-52873996D01*
X167474684Y-52990502D01*
X167474686Y-52990506D01*
X167569332Y-53154438D01*
X167613018Y-53202956D01*
X167695994Y-53295110D01*
X167849130Y-53406370D01*
X167849135Y-53406373D01*
X168022057Y-53483364D01*
X168022062Y-53483366D01*
X168207219Y-53522722D01*
X168207220Y-53522722D01*
X168396509Y-53522722D01*
X168396511Y-53522722D01*
X168482018Y-53504547D01*
X168551684Y-53509863D01*
X168607418Y-53552000D01*
X168631523Y-53617580D01*
X168617604Y-53680123D01*
X168618600Y-53680567D01*
X168616413Y-53685476D01*
X168616346Y-53685781D01*
X168616024Y-53686350D01*
X168615956Y-53686503D01*
X168557465Y-53866521D01*
X168557464Y-53866525D01*
X168537678Y-54054781D01*
X168557464Y-54243037D01*
X168557465Y-54243040D01*
X168615956Y-54423058D01*
X168615959Y-54423065D01*
X168710605Y-54586997D01*
X168827300Y-54716600D01*
X168837267Y-54727669D01*
X168990403Y-54838929D01*
X168990408Y-54838932D01*
X169163330Y-54915923D01*
X169163335Y-54915925D01*
X169348492Y-54955281D01*
X169348493Y-54955281D01*
X169537782Y-54955281D01*
X169537784Y-54955281D01*
X169722941Y-54915925D01*
X169895868Y-54838932D01*
X170049009Y-54727669D01*
X170051926Y-54724428D01*
X170054738Y-54721307D01*
X170114225Y-54684660D01*
X170146886Y-54680281D01*
X180802306Y-54680281D01*
X180869345Y-54699966D01*
X180889987Y-54716600D01*
X181777578Y-55604191D01*
X181811063Y-55665514D01*
X181809672Y-55723965D01*
X181782754Y-55824425D01*
X181782752Y-55824435D01*
X181762157Y-56059838D01*
X181762157Y-56059839D01*
X181782752Y-56295242D01*
X181782754Y-56295252D01*
X181843910Y-56523494D01*
X181843912Y-56523498D01*
X181843913Y-56523502D01*
X181893315Y-56629444D01*
X181943781Y-56737669D01*
X181943783Y-56737673D01*
X182079317Y-56931234D01*
X182079322Y-56931241D01*
X182246413Y-57098332D01*
X182246419Y-57098337D01*
X182432410Y-57228569D01*
X182476035Y-57283146D01*
X182483229Y-57352644D01*
X182451706Y-57414999D01*
X182432411Y-57431719D01*
X182246738Y-57561729D01*
X182246736Y-57561730D01*
X182079707Y-57728759D01*
X182079702Y-57728765D01*
X181944216Y-57922259D01*
X181944215Y-57922261D01*
X181844386Y-58136346D01*
X181844383Y-58136352D01*
X181787180Y-58349838D01*
X181787180Y-58349839D01*
X182684804Y-58349839D01*
X182651891Y-58406846D01*
X182617816Y-58534013D01*
X182617816Y-58665665D01*
X182651891Y-58792832D01*
X182684804Y-58849839D01*
X181787180Y-58849839D01*
X181844383Y-59063325D01*
X181844386Y-59063331D01*
X181944215Y-59277417D01*
X182079710Y-59470921D01*
X182246733Y-59637944D01*
X182440237Y-59773439D01*
X182654323Y-59873268D01*
X182654332Y-59873272D01*
X182867816Y-59930473D01*
X182867816Y-59032851D01*
X182924823Y-59065764D01*
X183051990Y-59099839D01*
X183183642Y-59099839D01*
X183310809Y-59065764D01*
X183367816Y-59032851D01*
X183367816Y-59930472D01*
X183581299Y-59873272D01*
X183581308Y-59873268D01*
X183795394Y-59773439D01*
X183988898Y-59637944D01*
X184155921Y-59470921D01*
X184291416Y-59277417D01*
X184391245Y-59063331D01*
X184391248Y-59063325D01*
X184448452Y-58849839D01*
X183550828Y-58849839D01*
X183583741Y-58792832D01*
X183617816Y-58665665D01*
X183617816Y-58534013D01*
X183583741Y-58406846D01*
X183550828Y-58349839D01*
X184448452Y-58349839D01*
X184448451Y-58349838D01*
X184391248Y-58136352D01*
X184391245Y-58136346D01*
X184291416Y-57922261D01*
X184291415Y-57922259D01*
X184155929Y-57728765D01*
X184155924Y-57728759D01*
X183988894Y-57561729D01*
X183803221Y-57431718D01*
X183759596Y-57377141D01*
X183752404Y-57307643D01*
X183783926Y-57245288D01*
X183803222Y-57228569D01*
X183989217Y-57098334D01*
X184156311Y-56931240D01*
X184291851Y-56737669D01*
X184391719Y-56523502D01*
X184452879Y-56295247D01*
X184473475Y-56059839D01*
X184452879Y-55824431D01*
X184391719Y-55596176D01*
X184291851Y-55382010D01*
X184262555Y-55340170D01*
X184156310Y-55188436D01*
X183989218Y-55021345D01*
X183989212Y-55021340D01*
X183803658Y-54891414D01*
X183760033Y-54836837D01*
X183752839Y-54767339D01*
X183784362Y-54704984D01*
X183803658Y-54688264D01*
X183878991Y-54635515D01*
X183989217Y-54558334D01*
X184156311Y-54391240D01*
X184291851Y-54197669D01*
X184391719Y-53983502D01*
X184452879Y-53755247D01*
X184473475Y-53519839D01*
X184452879Y-53284431D01*
X184391719Y-53056176D01*
X184291851Y-52842010D01*
X184269773Y-52810478D01*
X184156310Y-52648436D01*
X183989218Y-52481345D01*
X183989212Y-52481340D01*
X183803658Y-52351414D01*
X183760033Y-52296837D01*
X183752839Y-52227339D01*
X183784362Y-52164984D01*
X183803658Y-52148264D01*
X183890402Y-52087525D01*
X183989217Y-52018334D01*
X184156311Y-51851240D01*
X184291851Y-51657669D01*
X184391719Y-51443502D01*
X184452879Y-51215247D01*
X184473475Y-50979839D01*
X184452879Y-50744431D01*
X184391719Y-50516176D01*
X184291851Y-50302010D01*
X184156311Y-50108438D01*
X184034383Y-49986510D01*
X184000900Y-49925190D01*
X184005884Y-49855498D01*
X184047755Y-49799564D01*
X184078731Y-49782649D01*
X184210147Y-49733635D01*
X184325362Y-49647385D01*
X184411612Y-49532170D01*
X184461907Y-49397322D01*
X184468316Y-49337712D01*
X184468315Y-47541967D01*
X184461907Y-47482356D01*
X184411612Y-47347508D01*
X184411611Y-47347507D01*
X184411609Y-47347503D01*
X184325363Y-47232294D01*
X184325360Y-47232291D01*
X184210151Y-47146045D01*
X184210144Y-47146041D01*
X184075298Y-47095747D01*
X184075299Y-47095747D01*
X184015699Y-47089340D01*
X184015697Y-47089339D01*
X184015689Y-47089339D01*
X184015680Y-47089339D01*
X182219945Y-47089339D01*
X182219939Y-47089340D01*
X182160332Y-47095747D01*
X182025487Y-47146041D01*
X182025480Y-47146045D01*
X181910271Y-47232291D01*
X181910268Y-47232294D01*
X181824022Y-47347503D01*
X181824018Y-47347510D01*
X181773724Y-47482356D01*
X181767317Y-47541955D01*
X181767317Y-47541962D01*
X181767316Y-47541974D01*
X181767316Y-49337709D01*
X181767317Y-49337715D01*
X181773724Y-49397322D01*
X181824018Y-49532167D01*
X181824022Y-49532174D01*
X181910268Y-49647383D01*
X181910271Y-49647386D01*
X182025480Y-49733632D01*
X182025487Y-49733636D01*
X182156897Y-49782649D01*
X182212831Y-49824520D01*
X182237248Y-49889984D01*
X182222396Y-49958257D01*
X182201246Y-49986512D01*
X182079319Y-50108439D01*
X181943781Y-50302008D01*
X181943780Y-50302010D01*
X181843914Y-50516174D01*
X181843910Y-50516183D01*
X181782754Y-50744425D01*
X181782752Y-50744435D01*
X181762157Y-50979838D01*
X181762157Y-50979839D01*
X181782752Y-51215242D01*
X181782754Y-51215252D01*
X181809672Y-51315711D01*
X181808009Y-51385561D01*
X181777578Y-51435485D01*
X180814370Y-52398695D01*
X180753047Y-52432180D01*
X180726689Y-52435014D01*
X171050154Y-52435014D01*
X170983115Y-52415329D01*
X170958006Y-52393988D01*
X170952279Y-52387628D01*
X170952275Y-52387624D01*
X170799140Y-52276365D01*
X170799135Y-52276362D01*
X170626213Y-52199371D01*
X170626208Y-52199369D01*
X170464434Y-52164984D01*
X170441052Y-52160014D01*
X170421299Y-52160014D01*
X170354260Y-52140329D01*
X170308505Y-52087525D01*
X170298561Y-52018367D01*
X170327586Y-51954811D01*
X170333618Y-51948333D01*
X175914191Y-46367762D01*
X175914194Y-46367759D01*
X175982648Y-46265311D01*
X176029800Y-46151477D01*
X176053837Y-46030632D01*
X176053837Y-45907419D01*
X176053837Y-43874139D01*
X179516730Y-43874139D01*
X179516730Y-44086713D01*
X179549984Y-44296669D01*
X179590662Y-44421863D01*
X179615674Y-44498840D01*
X179712181Y-44688246D01*
X179837120Y-44860212D01*
X179987443Y-45010535D01*
X180159409Y-45135474D01*
X180159411Y-45135475D01*
X180159414Y-45135477D01*
X180348818Y-45231983D01*
X180550987Y-45297672D01*
X180760943Y-45330926D01*
X180760944Y-45330926D01*
X180973516Y-45330926D01*
X180973517Y-45330926D01*
X181183473Y-45297672D01*
X181385642Y-45231983D01*
X181575046Y-45135477D01*
X181644301Y-45085161D01*
X181747016Y-45010535D01*
X181747018Y-45010532D01*
X181747022Y-45010530D01*
X181897334Y-44860218D01*
X181897336Y-44860214D01*
X181897339Y-44860212D01*
X182022278Y-44688246D01*
X182022277Y-44688246D01*
X182022281Y-44688242D01*
X182118787Y-44498838D01*
X182184476Y-44296669D01*
X182217730Y-44086713D01*
X182217730Y-43874139D01*
X182184476Y-43664183D01*
X182118787Y-43462014D01*
X182022281Y-43272610D01*
X182022279Y-43272607D01*
X182022278Y-43272605D01*
X181897339Y-43100639D01*
X181747016Y-42950316D01*
X181575050Y-42825377D01*
X181385644Y-42728870D01*
X181385643Y-42728869D01*
X181385642Y-42728869D01*
X181183473Y-42663180D01*
X181183471Y-42663179D01*
X181183470Y-42663179D01*
X181022187Y-42637634D01*
X180973517Y-42629926D01*
X180760943Y-42629926D01*
X180712272Y-42637634D01*
X180550990Y-42663179D01*
X180348815Y-42728870D01*
X180159409Y-42825377D01*
X179987443Y-42950316D01*
X179837120Y-43100639D01*
X179712181Y-43272605D01*
X179615674Y-43462011D01*
X179549983Y-43664186D01*
X179532691Y-43773367D01*
X179516730Y-43874139D01*
X176053837Y-43874139D01*
X176053837Y-42402389D01*
X176073522Y-42335350D01*
X176126326Y-42289595D01*
X176177837Y-42278389D01*
X176326208Y-42278389D01*
X176326209Y-42278389D01*
X176385820Y-42271981D01*
X176520668Y-42221686D01*
X176635883Y-42135436D01*
X176722133Y-42020221D01*
X176772428Y-41885373D01*
X176778837Y-41825763D01*
X176778836Y-40030018D01*
X176772428Y-39970407D01*
X176771147Y-39966973D01*
X176722134Y-39835561D01*
X176722130Y-39835554D01*
X176635884Y-39720345D01*
X176635881Y-39720342D01*
X176520672Y-39634096D01*
X176520665Y-39634092D01*
X176385819Y-39583798D01*
X176385820Y-39583798D01*
X176326220Y-39577391D01*
X176326218Y-39577390D01*
X176326210Y-39577390D01*
X176326201Y-39577390D01*
X174530466Y-39577390D01*
X174530460Y-39577391D01*
X174470853Y-39583798D01*
X174336008Y-39634092D01*
X174336001Y-39634096D01*
X174220792Y-39720342D01*
X174220789Y-39720345D01*
X174134543Y-39835554D01*
X174134540Y-39835559D01*
X174085526Y-39966973D01*
X174043654Y-40022906D01*
X173978190Y-40047323D01*
X173909917Y-40032471D01*
X173881663Y-40011320D01*
X173759739Y-39889396D01*
X173759732Y-39889391D01*
X173566171Y-39753857D01*
X173566167Y-39753855D01*
X173566165Y-39753854D01*
X173352000Y-39653987D01*
X173351996Y-39653986D01*
X173351992Y-39653984D01*
X173123750Y-39592828D01*
X173123740Y-39592826D01*
X172888338Y-39572231D01*
X172888336Y-39572231D01*
X172652933Y-39592826D01*
X172652923Y-39592828D01*
X172424681Y-39653984D01*
X172424672Y-39653988D01*
X172210508Y-39753854D01*
X172210506Y-39753855D01*
X172016934Y-39889395D01*
X171849842Y-40056487D01*
X171714302Y-40250059D01*
X171714301Y-40250061D01*
X171614435Y-40464225D01*
X171614431Y-40464234D01*
X171553275Y-40692476D01*
X171553273Y-40692486D01*
X171532678Y-40927889D01*
X171532678Y-40927890D01*
X171553273Y-41163293D01*
X171553275Y-41163303D01*
X171614431Y-41391545D01*
X171614433Y-41391549D01*
X171614434Y-41391553D01*
X171698836Y-41572553D01*
X171714302Y-41605720D01*
X171714304Y-41605724D01*
X171822618Y-41760411D01*
X171849842Y-41799291D01*
X172016936Y-41966385D01*
X172209961Y-42101543D01*
X172253585Y-42156118D01*
X172262837Y-42203116D01*
X172262837Y-45595459D01*
X172243152Y-45662498D01*
X172226518Y-45683140D01*
X166706104Y-51203555D01*
X166644781Y-51237040D01*
X166618423Y-51239874D01*
X166543756Y-51239874D01*
X166511299Y-51246772D01*
X166358599Y-51279229D01*
X166358594Y-51279231D01*
X166185672Y-51356222D01*
X166185667Y-51356225D01*
X166032531Y-51467485D01*
X165905868Y-51608159D01*
X165811223Y-51772089D01*
X165811220Y-51772096D01*
X165753958Y-51948333D01*
X165752728Y-51952118D01*
X165732942Y-52140374D01*
X164418264Y-52140374D01*
X163989648Y-51711758D01*
X163956163Y-51650435D01*
X163953329Y-51624077D01*
X163953329Y-45395385D01*
X163973014Y-45328346D01*
X164025818Y-45282591D01*
X164094976Y-45272647D01*
X164135783Y-45286027D01*
X164180447Y-45309901D01*
X164375250Y-45368993D01*
X164375246Y-45368993D01*
X164577829Y-45388945D01*
X164780409Y-45368993D01*
X164975209Y-45309901D01*
X165111032Y-45237302D01*
X164489997Y-44616267D01*
X164541045Y-44629946D01*
X164614613Y-44629946D01*
X164685673Y-44610905D01*
X164749385Y-44574122D01*
X164801405Y-44522102D01*
X164838188Y-44458390D01*
X164857229Y-44387330D01*
X164857229Y-44350545D01*
X164931382Y-44350545D01*
X164931382Y-44350546D01*
X165464585Y-44883749D01*
X165537184Y-44747926D01*
X165596276Y-44553126D01*
X165616228Y-44350546D01*
X165596276Y-44147965D01*
X165537184Y-43953165D01*
X165464584Y-43817342D01*
X164931382Y-44350545D01*
X164857229Y-44350545D01*
X164857229Y-44313762D01*
X164838188Y-44242702D01*
X164801405Y-44178990D01*
X164749385Y-44126970D01*
X164685673Y-44090187D01*
X164614613Y-44071146D01*
X164541045Y-44071146D01*
X164489994Y-44084825D01*
X164577829Y-43996992D01*
X165111031Y-43463789D01*
X164975210Y-43391190D01*
X164780407Y-43332098D01*
X164780411Y-43332098D01*
X164577829Y-43312146D01*
X164375248Y-43332098D01*
X164180446Y-43391191D01*
X164180443Y-43391192D01*
X164011813Y-43481327D01*
X163943410Y-43495569D01*
X163894907Y-43481327D01*
X163725401Y-43390725D01*
X163530511Y-43331605D01*
X163327829Y-43311643D01*
X163125146Y-43331605D01*
X162930256Y-43390725D01*
X162761282Y-43481044D01*
X162692879Y-43495286D01*
X162644376Y-43481044D01*
X162475401Y-43390725D01*
X162280511Y-43331605D01*
X162077829Y-43311643D01*
X161875146Y-43331605D01*
X161680256Y-43390725D01*
X161511282Y-43481044D01*
X161442879Y-43495286D01*
X161394376Y-43481044D01*
X161225401Y-43390725D01*
X161030511Y-43331605D01*
X160827829Y-43311643D01*
X160625146Y-43331605D01*
X160430256Y-43390725D01*
X160261282Y-43481044D01*
X160192879Y-43495286D01*
X160144376Y-43481044D01*
X159975401Y-43390725D01*
X159780511Y-43331605D01*
X159577829Y-43311643D01*
X159375146Y-43331605D01*
X159180256Y-43390725D01*
X159011282Y-43481044D01*
X158942879Y-43495286D01*
X158894376Y-43481044D01*
X158725401Y-43390725D01*
X158530511Y-43331605D01*
X158327829Y-43311643D01*
X158125146Y-43331605D01*
X157930256Y-43390725D01*
X157761282Y-43481044D01*
X157692879Y-43495286D01*
X157644376Y-43481044D01*
X157475401Y-43390725D01*
X157280511Y-43331605D01*
X157077829Y-43311643D01*
X156875146Y-43331605D01*
X156680256Y-43390725D01*
X156511282Y-43481044D01*
X156442879Y-43495286D01*
X156394376Y-43481044D01*
X156225401Y-43390725D01*
X156030511Y-43331605D01*
X155827829Y-43311643D01*
X155625146Y-43331605D01*
X155430256Y-43390725D01*
X155261282Y-43481044D01*
X155192879Y-43495286D01*
X155144376Y-43481044D01*
X154975401Y-43390725D01*
X154780511Y-43331605D01*
X154577829Y-43311643D01*
X154375146Y-43331605D01*
X154180256Y-43390725D01*
X154011282Y-43481044D01*
X153942879Y-43495286D01*
X153894376Y-43481044D01*
X153725401Y-43390725D01*
X153530511Y-43331605D01*
X153327829Y-43311643D01*
X153125146Y-43331605D01*
X152930256Y-43390725D01*
X152750650Y-43486726D01*
X152750643Y-43486730D01*
X152593213Y-43615930D01*
X152464013Y-43773360D01*
X152464009Y-43773367D01*
X152368008Y-43952973D01*
X152308888Y-44147863D01*
X152288926Y-44350546D01*
X152308888Y-44553228D01*
X152368008Y-44748118D01*
X152464009Y-44927724D01*
X152464013Y-44927731D01*
X152593213Y-45085161D01*
X152750643Y-45214361D01*
X152750650Y-45214365D01*
X152884721Y-45286027D01*
X152930258Y-45310367D01*
X153125149Y-45369487D01*
X153327829Y-45389449D01*
X153530509Y-45369487D01*
X153725400Y-45310367D01*
X153814849Y-45262555D01*
X153894376Y-45220048D01*
X153962779Y-45205806D01*
X154011282Y-45220048D01*
X154155907Y-45297351D01*
X154180258Y-45310367D01*
X154375149Y-45369487D01*
X154577829Y-45389449D01*
X154780509Y-45369487D01*
X154975400Y-45310367D01*
X155019877Y-45286593D01*
X155088277Y-45272352D01*
X155153521Y-45297351D01*
X155194892Y-45353656D01*
X155202329Y-45395952D01*
X155202329Y-54048203D01*
X155226364Y-54169036D01*
X155226369Y-54169053D01*
X155273513Y-54282870D01*
X155273516Y-54282876D01*
X155282940Y-54296979D01*
X155282941Y-54296981D01*
X155341970Y-54385324D01*
X155341973Y-54385328D01*
X155433415Y-54476770D01*
X155433437Y-54476790D01*
X159233754Y-58277107D01*
X159267239Y-58338430D01*
X159269394Y-58351826D01*
X159275177Y-58406846D01*
X159287042Y-58519735D01*
X159287043Y-58519738D01*
X159345534Y-58699756D01*
X159345537Y-58699763D01*
X159440183Y-58863695D01*
X159562857Y-58999938D01*
X159566845Y-59004367D01*
X159719981Y-59115627D01*
X159719986Y-59115630D01*
X159892908Y-59192621D01*
X159892913Y-59192623D01*
X160078070Y-59231979D01*
X160078071Y-59231979D01*
X160267360Y-59231979D01*
X160267362Y-59231979D01*
X160452519Y-59192623D01*
X160625446Y-59115630D01*
X160778587Y-59004367D01*
X160905249Y-58863695D01*
X160999895Y-58699763D01*
X161058390Y-58519735D01*
X161078176Y-58331479D01*
X161058390Y-58143223D01*
X160999895Y-57963195D01*
X160905249Y-57799263D01*
X160778587Y-57658591D01*
X160778586Y-57658590D01*
X160625450Y-57547330D01*
X160625445Y-57547327D01*
X160452523Y-57470336D01*
X160452518Y-57470334D01*
X160270843Y-57431719D01*
X160267362Y-57430979D01*
X160267361Y-57430979D01*
X160208168Y-57430979D01*
X160141129Y-57411294D01*
X160120487Y-57394660D01*
X156489648Y-53763821D01*
X156456163Y-53702498D01*
X156453329Y-53676140D01*
X156453329Y-52743465D01*
X156473014Y-52676426D01*
X156525818Y-52630671D01*
X156594976Y-52620727D01*
X156658532Y-52649752D01*
X156665010Y-52655784D01*
X156683415Y-52674189D01*
X156683437Y-52674209D01*
X159494011Y-55484783D01*
X159527496Y-55546106D01*
X159529650Y-55585422D01*
X159510430Y-55768302D01*
X159530216Y-55956558D01*
X159530217Y-55956561D01*
X159588708Y-56136579D01*
X159588711Y-56136586D01*
X159683357Y-56300518D01*
X159810019Y-56441190D01*
X159963155Y-56552450D01*
X159963160Y-56552453D01*
X160136082Y-56629444D01*
X160136087Y-56629446D01*
X160321244Y-56668802D01*
X160415253Y-56668802D01*
X160482292Y-56688487D01*
X160502934Y-56705121D01*
X163908377Y-60110564D01*
X163941862Y-60171887D01*
X163936878Y-60241579D01*
X163895006Y-60297512D01*
X163846477Y-60319535D01*
X163700406Y-60350583D01*
X163700401Y-60350585D01*
X163527479Y-60427576D01*
X163522965Y-60430183D01*
X163455064Y-60446652D01*
X163410534Y-60436072D01*
X163232112Y-60356632D01*
X163232107Y-60356630D01*
X163086306Y-60325640D01*
X163046951Y-60317275D01*
X162857659Y-60317275D01*
X162825202Y-60324173D01*
X162672502Y-60356630D01*
X162672497Y-60356632D01*
X162499575Y-60433623D01*
X162499570Y-60433626D01*
X162346434Y-60544886D01*
X162224415Y-60680402D01*
X162164928Y-60717051D01*
X162132265Y-60721430D01*
X161948434Y-60721430D01*
X161932175Y-60724886D01*
X161763277Y-60760785D01*
X161763272Y-60760787D01*
X161590350Y-60837778D01*
X161590345Y-60837781D01*
X161437209Y-60949041D01*
X161310546Y-61089715D01*
X161215901Y-61253645D01*
X161215898Y-61253652D01*
X161157407Y-61433669D01*
X161157406Y-61433671D01*
X161150763Y-61496876D01*
X161124177Y-61561491D01*
X161077878Y-61597192D01*
X160994224Y-61634437D01*
X160841084Y-61745700D01*
X160714421Y-61886374D01*
X160619776Y-62050304D01*
X160619773Y-62050311D01*
X160561282Y-62230328D01*
X160561281Y-62230330D01*
X160552830Y-62310735D01*
X160526244Y-62375349D01*
X160479946Y-62411051D01*
X160411991Y-62441307D01*
X160292256Y-62528299D01*
X160226450Y-62551778D01*
X160158396Y-62535952D01*
X160109702Y-62485846D01*
X160101441Y-62466297D01*
X160073998Y-62381835D01*
X160073996Y-62381831D01*
X160073995Y-62381827D01*
X160021884Y-62291570D01*
X160005413Y-62223675D01*
X160021884Y-62167578D01*
X160064508Y-62093753D01*
X160123003Y-61913725D01*
X160142789Y-61725469D01*
X160123003Y-61537213D01*
X160064508Y-61357185D01*
X159969862Y-61193253D01*
X159843200Y-61052581D01*
X159843199Y-61052580D01*
X159690063Y-60941320D01*
X159690058Y-60941317D01*
X159517136Y-60864326D01*
X159517131Y-60864324D01*
X159340029Y-60826681D01*
X159331975Y-60824969D01*
X159142683Y-60824969D01*
X159134629Y-60826681D01*
X158957526Y-60864324D01*
X158957521Y-60864326D01*
X158784599Y-60941317D01*
X158784594Y-60941320D01*
X158631459Y-61052579D01*
X158631455Y-61052583D01*
X158625729Y-61058943D01*
X158566242Y-61095590D01*
X158533581Y-61099969D01*
X137558226Y-61099969D01*
X137435013Y-61099969D01*
X137375765Y-61111754D01*
X137375764Y-61111753D01*
X137314175Y-61124004D01*
X137314165Y-61124007D01*
X137200336Y-61171156D01*
X137122454Y-61223196D01*
X137122453Y-61223196D01*
X137097890Y-61239608D01*
X137097882Y-61239614D01*
X135128954Y-63208545D01*
X135067631Y-63242030D01*
X135041273Y-63244864D01*
X134982079Y-63244864D01*
X134949622Y-63251762D01*
X134796922Y-63284219D01*
X134796917Y-63284221D01*
X134623995Y-63361212D01*
X134623990Y-63361215D01*
X134470854Y-63472475D01*
X134344191Y-63613149D01*
X134249546Y-63777079D01*
X134249543Y-63777086D01*
X134217202Y-63876623D01*
X134191051Y-63957108D01*
X134171265Y-64145364D01*
X134191051Y-64333620D01*
X134191052Y-64333623D01*
X134249543Y-64513641D01*
X134249546Y-64513648D01*
X134344192Y-64677580D01*
X134398385Y-64737767D01*
X134470854Y-64818252D01*
X134623990Y-64929512D01*
X134623995Y-64929515D01*
X134796917Y-65006506D01*
X134796922Y-65006508D01*
X134982079Y-65045864D01*
X134982080Y-65045864D01*
X135171369Y-65045864D01*
X135171371Y-65045864D01*
X135356528Y-65006508D01*
X135529455Y-64929515D01*
X135682596Y-64818252D01*
X135809258Y-64677580D01*
X135903904Y-64513648D01*
X135962399Y-64333620D01*
X135980046Y-64165708D01*
X136006629Y-64101098D01*
X136015676Y-64091002D01*
X137719392Y-62387288D01*
X137780715Y-62353803D01*
X137807073Y-62350969D01*
X138850041Y-62350969D01*
X138917080Y-62370654D01*
X138962835Y-62423458D01*
X138972779Y-62492616D01*
X138943754Y-62556172D01*
X138937722Y-62562650D01*
X138388481Y-63111892D01*
X138327158Y-63145377D01*
X138300800Y-63148211D01*
X138241606Y-63148211D01*
X138209149Y-63155109D01*
X138056449Y-63187566D01*
X138056444Y-63187568D01*
X137883522Y-63264559D01*
X137883517Y-63264562D01*
X137730381Y-63375822D01*
X137603718Y-63516496D01*
X137509073Y-63680426D01*
X137509070Y-63680433D01*
X137476547Y-63780530D01*
X137450578Y-63860455D01*
X137430792Y-64048711D01*
X137450578Y-64236967D01*
X137450579Y-64236970D01*
X137509070Y-64416988D01*
X137509073Y-64416995D01*
X137603719Y-64580927D01*
X137711910Y-64701085D01*
X137730381Y-64721599D01*
X137883517Y-64832859D01*
X137883522Y-64832862D01*
X138056444Y-64909853D01*
X138056449Y-64909855D01*
X138241606Y-64949211D01*
X138241607Y-64949211D01*
X138430896Y-64949211D01*
X138430898Y-64949211D01*
X138616055Y-64909855D01*
X138788982Y-64832862D01*
X138942123Y-64721599D01*
X139068785Y-64580927D01*
X139163431Y-64416995D01*
X139221926Y-64236967D01*
X139239573Y-64069055D01*
X139266156Y-64004445D01*
X139275202Y-63994350D01*
X139857624Y-63411930D01*
X139918947Y-63378445D01*
X139945305Y-63375611D01*
X140781246Y-63375611D01*
X140848285Y-63395296D01*
X140894040Y-63448100D01*
X140903984Y-63517258D01*
X140888633Y-63561611D01*
X140810700Y-63696594D01*
X140810697Y-63696601D01*
X140757458Y-63860455D01*
X140752205Y-63876623D01*
X140732419Y-64064879D01*
X140752205Y-64253135D01*
X140752206Y-64253138D01*
X140810697Y-64433156D01*
X140810700Y-64433163D01*
X140905346Y-64597095D01*
X141017450Y-64721599D01*
X141032008Y-64737767D01*
X141185144Y-64849027D01*
X141185149Y-64849030D01*
X141358071Y-64926021D01*
X141358076Y-64926023D01*
X141543233Y-64965379D01*
X141543234Y-64965379D01*
X141732523Y-64965379D01*
X141732525Y-64965379D01*
X141917682Y-64926023D01*
X142090609Y-64849030D01*
X142243750Y-64737767D01*
X142370412Y-64597095D01*
X142465058Y-64433163D01*
X142465057Y-64433163D01*
X142465375Y-64432614D01*
X142515942Y-64384399D01*
X142572762Y-64370614D01*
X158073958Y-64370614D01*
X158140997Y-64390299D01*
X158186752Y-64443103D01*
X158196696Y-64512261D01*
X158167671Y-64575817D01*
X158146845Y-64594930D01*
X158141959Y-64598480D01*
X158135935Y-64602857D01*
X158009274Y-64743529D01*
X157914629Y-64907459D01*
X157914626Y-64907466D01*
X157861040Y-65072389D01*
X157856134Y-65087488D01*
X157849961Y-65146226D01*
X157838487Y-65255393D01*
X157811902Y-65320007D01*
X157802847Y-65330112D01*
X154343658Y-68789303D01*
X154256533Y-68876427D01*
X154256527Y-68876435D01*
X154188081Y-68978868D01*
X154188073Y-68978882D01*
X154154736Y-69059370D01*
X154149212Y-69072706D01*
X154140926Y-69092708D01*
X154140924Y-69092716D01*
X154116889Y-69213552D01*
X154116889Y-74171231D01*
X154140924Y-74292067D01*
X154140928Y-74292079D01*
X154149096Y-74311797D01*
X154149097Y-74311800D01*
X154188074Y-74405902D01*
X154188076Y-74405905D01*
X154188077Y-74405907D01*
X154208032Y-74435770D01*
X154222303Y-74457128D01*
X154222304Y-74457130D01*
X154256530Y-74508354D01*
X154347975Y-74599799D01*
X154347997Y-74599819D01*
X155087396Y-75339218D01*
X155120881Y-75400541D01*
X155123715Y-75426899D01*
X155123715Y-75579443D01*
X155126532Y-75620991D01*
X155171178Y-75800513D01*
X155171179Y-75800515D01*
X155253371Y-75966242D01*
X155253372Y-75966243D01*
X155253373Y-75966245D01*
X155343048Y-76077804D01*
X155369707Y-76142388D01*
X155357217Y-76211132D01*
X155343048Y-76233180D01*
X155253371Y-76344741D01*
X155171179Y-76510468D01*
X155171178Y-76510470D01*
X155126532Y-76689992D01*
X155123715Y-76731540D01*
X155123715Y-77579443D01*
X155126532Y-77620991D01*
X155171178Y-77800513D01*
X155171179Y-77800515D01*
X155253371Y-77966242D01*
X155343048Y-78077804D01*
X155369707Y-78142388D01*
X155357217Y-78211132D01*
X155343049Y-78233177D01*
X155297647Y-78289660D01*
X155253371Y-78344741D01*
X155171179Y-78510468D01*
X155171178Y-78510470D01*
X155126532Y-78689992D01*
X155123715Y-78731540D01*
X155123715Y-79579443D01*
X155126532Y-79620991D01*
X155171178Y-79800513D01*
X155171179Y-79800515D01*
X155253371Y-79966242D01*
X155343048Y-80077804D01*
X155369707Y-80142388D01*
X155357217Y-80211132D01*
X155343049Y-80233177D01*
X155297647Y-80289660D01*
X155253371Y-80344741D01*
X155171179Y-80510468D01*
X155171178Y-80510470D01*
X155126532Y-80689992D01*
X155123715Y-80731540D01*
X155123715Y-81579443D01*
X155126532Y-81620991D01*
X155171178Y-81800513D01*
X155171179Y-81800515D01*
X155253371Y-81966242D01*
X155253372Y-81966243D01*
X155253373Y-81966245D01*
X155309419Y-82035968D01*
X155343048Y-82077804D01*
X155369707Y-82142388D01*
X155357217Y-82211132D01*
X155343048Y-82233180D01*
X155253371Y-82344741D01*
X155171179Y-82510468D01*
X155171178Y-82510470D01*
X155126532Y-82689992D01*
X155123715Y-82731540D01*
X155123715Y-83579443D01*
X155126532Y-83620991D01*
X155171178Y-83800513D01*
X155171179Y-83800515D01*
X155253371Y-83966242D01*
X155343048Y-84077804D01*
X155369707Y-84142388D01*
X155357217Y-84211132D01*
X155343049Y-84233177D01*
X155343049Y-84233179D01*
X155343048Y-84233180D01*
X155253371Y-84344741D01*
X155171179Y-84510468D01*
X155171178Y-84510470D01*
X155126532Y-84689992D01*
X155123715Y-84731540D01*
X155123715Y-85579443D01*
X155126532Y-85620991D01*
X155171178Y-85800513D01*
X155171179Y-85800515D01*
X155253371Y-85966242D01*
X155343368Y-86078203D01*
X155370027Y-86142787D01*
X155357537Y-86211532D01*
X155343368Y-86233578D01*
X155253796Y-86345010D01*
X155171650Y-86510642D01*
X155127030Y-86690060D01*
X155124215Y-86731580D01*
X155124215Y-86905492D01*
X156191203Y-86905492D01*
X156158290Y-86962499D01*
X156124215Y-87089666D01*
X156124215Y-87221318D01*
X156158290Y-87348485D01*
X156191203Y-87405492D01*
X155124216Y-87405492D01*
X155124216Y-87579409D01*
X155127029Y-87620915D01*
X155127029Y-87620917D01*
X155171650Y-87800341D01*
X155253796Y-87965973D01*
X155369629Y-88110076D01*
X155369630Y-88110077D01*
X155513733Y-88225910D01*
X155679365Y-88308056D01*
X155858783Y-88352676D01*
X155900303Y-88355491D01*
X156849214Y-88355491D01*
X157349215Y-88355491D01*
X158298126Y-88355491D01*
X158298132Y-88355490D01*
X158339638Y-88352677D01*
X158339640Y-88352677D01*
X158519064Y-88308056D01*
X158684696Y-88225910D01*
X158828799Y-88110077D01*
X158828800Y-88110076D01*
X158944633Y-87965973D01*
X159026779Y-87800341D01*
X159071399Y-87620923D01*
X159074215Y-87579403D01*
X159074215Y-87405492D01*
X157349215Y-87405492D01*
X157349215Y-88355491D01*
X156849214Y-88355491D01*
X156849215Y-88355490D01*
X156849215Y-87602937D01*
X156931222Y-87555591D01*
X157024314Y-87462499D01*
X157090140Y-87348485D01*
X157124215Y-87221318D01*
X157124215Y-87089666D01*
X157090140Y-86962499D01*
X157057227Y-86905492D01*
X159074214Y-86905492D01*
X159074214Y-86731581D01*
X159074213Y-86731574D01*
X159071400Y-86690068D01*
X159071400Y-86690066D01*
X159026779Y-86510642D01*
X158944633Y-86345010D01*
X158855061Y-86233578D01*
X158828402Y-86168994D01*
X158840892Y-86100250D01*
X158855058Y-86078207D01*
X158945057Y-85966245D01*
X158972059Y-85911799D01*
X159002760Y-85849898D01*
X159050181Y-85798585D01*
X159113848Y-85780992D01*
X159204467Y-85780992D01*
X159204467Y-85780991D01*
X159297946Y-85762398D01*
X159297947Y-85762398D01*
X159307150Y-85760567D01*
X159325311Y-85756955D01*
X159325316Y-85756952D01*
X159325319Y-85756952D01*
X159358646Y-85743146D01*
X159358645Y-85743146D01*
X159358651Y-85743144D01*
X159439145Y-85709804D01*
X159490368Y-85675576D01*
X159541592Y-85641350D01*
X159628717Y-85554225D01*
X159628718Y-85554223D01*
X159635784Y-85547157D01*
X159635787Y-85547153D01*
X161952345Y-83230594D01*
X162013666Y-83197111D01*
X162083358Y-83202095D01*
X162090418Y-83204980D01*
X162179424Y-83244609D01*
X162364581Y-83283965D01*
X162364582Y-83283965D01*
X162553871Y-83283965D01*
X162553873Y-83283965D01*
X162739030Y-83244609D01*
X162911957Y-83167616D01*
X163065098Y-83056353D01*
X163191760Y-82915681D01*
X163286406Y-82751749D01*
X163344901Y-82571721D01*
X163364687Y-82383465D01*
X163344901Y-82195209D01*
X163286406Y-82015181D01*
X163191760Y-81851249D01*
X163146079Y-81800515D01*
X163116577Y-81767749D01*
X163086347Y-81704757D01*
X163084727Y-81684777D01*
X163084727Y-79597576D01*
X163104412Y-79530537D01*
X163157216Y-79484782D01*
X163208727Y-79473576D01*
X163230709Y-79473576D01*
X163297748Y-79493261D01*
X163343503Y-79546065D01*
X163354709Y-79597576D01*
X163354709Y-81196026D01*
X163358900Y-81217094D01*
X163358900Y-81217098D01*
X163378744Y-81316863D01*
X163378745Y-81316869D01*
X163387476Y-81337946D01*
X163387475Y-81337946D01*
X163425894Y-81430700D01*
X163425899Y-81430709D01*
X163457296Y-81477696D01*
X163457298Y-81477699D01*
X163457300Y-81477701D01*
X163481890Y-81514503D01*
X163494352Y-81533154D01*
X163585795Y-81624597D01*
X163585817Y-81624617D01*
X169478069Y-87516869D01*
X169478098Y-87516900D01*
X169568317Y-87607119D01*
X169568320Y-87607121D01*
X169601672Y-87629406D01*
X169670767Y-87675575D01*
X169751260Y-87708915D01*
X169784601Y-87722726D01*
X169845024Y-87734744D01*
X169905446Y-87746763D01*
X169905447Y-87746763D01*
X170117607Y-87746763D01*
X170184646Y-87766448D01*
X170228692Y-87815665D01*
X170303373Y-87966245D01*
X170303374Y-87966246D01*
X170419274Y-88110432D01*
X170501388Y-88176437D01*
X170563462Y-88226334D01*
X170729194Y-88308529D01*
X170908716Y-88353174D01*
X170908717Y-88353174D01*
X170908720Y-88353175D01*
X170950261Y-88355992D01*
X170950263Y-88355992D01*
X173348167Y-88355992D01*
X173348169Y-88355992D01*
X173389710Y-88353175D01*
X173569236Y-88308529D01*
X173734968Y-88226334D01*
X173879155Y-88110432D01*
X173995057Y-87966245D01*
X174077252Y-87800513D01*
X174121898Y-87620987D01*
X174124715Y-87579446D01*
X174124715Y-86731538D01*
X174121898Y-86689997D01*
X174077252Y-86510471D01*
X173995057Y-86344739D01*
X173905381Y-86233178D01*
X173878723Y-86168596D01*
X173891213Y-86099852D01*
X173905382Y-86077804D01*
X173906273Y-86076696D01*
X173995057Y-85966245D01*
X174077252Y-85800513D01*
X174121898Y-85620987D01*
X174124715Y-85579446D01*
X174124715Y-84731538D01*
X174121898Y-84689997D01*
X174077252Y-84510471D01*
X173995057Y-84344739D01*
X173905381Y-84233178D01*
X173878723Y-84168596D01*
X173891213Y-84099852D01*
X173905382Y-84077804D01*
X173995057Y-83966245D01*
X174040737Y-83874139D01*
X179516730Y-83874139D01*
X179516730Y-84086713D01*
X179549984Y-84296669D01*
X179592528Y-84427606D01*
X179615674Y-84498840D01*
X179712181Y-84688246D01*
X179837120Y-84860212D01*
X179987443Y-85010535D01*
X180159409Y-85135474D01*
X180159411Y-85135475D01*
X180159414Y-85135477D01*
X180348818Y-85231983D01*
X180550987Y-85297672D01*
X180760943Y-85330926D01*
X180760944Y-85330926D01*
X180973516Y-85330926D01*
X180973517Y-85330926D01*
X181183473Y-85297672D01*
X181385642Y-85231983D01*
X181575046Y-85135477D01*
X181597019Y-85119512D01*
X181747016Y-85010535D01*
X181747018Y-85010532D01*
X181747022Y-85010530D01*
X181897334Y-84860218D01*
X181897336Y-84860214D01*
X181897339Y-84860212D01*
X182021006Y-84689997D01*
X182022281Y-84688242D01*
X182118787Y-84498838D01*
X182184476Y-84296669D01*
X182217730Y-84086713D01*
X182217730Y-83874139D01*
X182184476Y-83664183D01*
X182118787Y-83462014D01*
X182022281Y-83272610D01*
X182022279Y-83272607D01*
X182022278Y-83272605D01*
X181897339Y-83100639D01*
X181747016Y-82950316D01*
X181575050Y-82825377D01*
X181385644Y-82728870D01*
X181385643Y-82728869D01*
X181385642Y-82728869D01*
X181183473Y-82663180D01*
X181183471Y-82663179D01*
X181183470Y-82663179D01*
X181022187Y-82637634D01*
X180973517Y-82629926D01*
X180760943Y-82629926D01*
X180712272Y-82637634D01*
X180550990Y-82663179D01*
X180348815Y-82728870D01*
X180159409Y-82825377D01*
X179987443Y-82950316D01*
X179837120Y-83100639D01*
X179712181Y-83272605D01*
X179615674Y-83462011D01*
X179549983Y-83664186D01*
X179528391Y-83800513D01*
X179516730Y-83874139D01*
X174040737Y-83874139D01*
X174077252Y-83800513D01*
X174121898Y-83620987D01*
X174124715Y-83579446D01*
X174124715Y-82731538D01*
X174121898Y-82689997D01*
X174077252Y-82510471D01*
X173995057Y-82344739D01*
X173905381Y-82233178D01*
X173878723Y-82168596D01*
X173891213Y-82099852D01*
X173905382Y-82077804D01*
X173995057Y-81966245D01*
X174077252Y-81800513D01*
X174102295Y-81699811D01*
X185586009Y-81699811D01*
X185586009Y-88542950D01*
X185566324Y-88609989D01*
X185513520Y-88655744D01*
X185462009Y-88666950D01*
X126101009Y-88666950D01*
X126033970Y-88647265D01*
X125988215Y-88594461D01*
X125977009Y-88542950D01*
X125977009Y-83874139D01*
X129516730Y-83874139D01*
X129516730Y-84086713D01*
X129549984Y-84296669D01*
X129592528Y-84427606D01*
X129615674Y-84498840D01*
X129712181Y-84688246D01*
X129837120Y-84860212D01*
X129987443Y-85010535D01*
X130159409Y-85135474D01*
X130159411Y-85135475D01*
X130159414Y-85135477D01*
X130348818Y-85231983D01*
X130550987Y-85297672D01*
X130760943Y-85330926D01*
X130760944Y-85330926D01*
X130973516Y-85330926D01*
X130973517Y-85330926D01*
X131183473Y-85297672D01*
X131385642Y-85231983D01*
X131575046Y-85135477D01*
X131597019Y-85119512D01*
X131747016Y-85010535D01*
X131747018Y-85010532D01*
X131747022Y-85010530D01*
X131897334Y-84860218D01*
X131897336Y-84860214D01*
X131897339Y-84860212D01*
X132021006Y-84689997D01*
X132022281Y-84688242D01*
X132118787Y-84498838D01*
X132184476Y-84296669D01*
X132217730Y-84086713D01*
X132217730Y-83874139D01*
X132208070Y-83813149D01*
X138007257Y-83813149D01*
X138007257Y-86017084D01*
X138007258Y-86017090D01*
X138013665Y-86076697D01*
X138063959Y-86211542D01*
X138063963Y-86211549D01*
X138150209Y-86326758D01*
X138150212Y-86326761D01*
X138265421Y-86413007D01*
X138265428Y-86413011D01*
X138400274Y-86463305D01*
X138400273Y-86463305D01*
X138407201Y-86464049D01*
X138459884Y-86469714D01*
X140663829Y-86469713D01*
X140723440Y-86463305D01*
X140858288Y-86413010D01*
X140973503Y-86326760D01*
X141059753Y-86211545D01*
X141110048Y-86076697D01*
X141116457Y-86017087D01*
X141116456Y-83813142D01*
X141110048Y-83753531D01*
X141076723Y-83664183D01*
X141059754Y-83618685D01*
X141059750Y-83618678D01*
X140973504Y-83503469D01*
X140973501Y-83503466D01*
X140858292Y-83417220D01*
X140858285Y-83417216D01*
X140723439Y-83366922D01*
X140723440Y-83366922D01*
X140663840Y-83360515D01*
X140663838Y-83360514D01*
X140663830Y-83360514D01*
X140663821Y-83360514D01*
X138459886Y-83360514D01*
X138459880Y-83360515D01*
X138400273Y-83366922D01*
X138265428Y-83417216D01*
X138265421Y-83417220D01*
X138150212Y-83503466D01*
X138150209Y-83503469D01*
X138063963Y-83618678D01*
X138063959Y-83618685D01*
X138013665Y-83753531D01*
X138008614Y-83800515D01*
X138007258Y-83813137D01*
X138007257Y-83813149D01*
X132208070Y-83813149D01*
X132184476Y-83664183D01*
X132118787Y-83462014D01*
X132022281Y-83272610D01*
X132022279Y-83272607D01*
X132022278Y-83272605D01*
X131897339Y-83100639D01*
X131747016Y-82950316D01*
X131575050Y-82825377D01*
X131385644Y-82728870D01*
X131385643Y-82728869D01*
X131385642Y-82728869D01*
X131183473Y-82663180D01*
X131183471Y-82663179D01*
X131183470Y-82663179D01*
X131022187Y-82637634D01*
X130973517Y-82629926D01*
X130760943Y-82629926D01*
X130712272Y-82637634D01*
X130550990Y-82663179D01*
X130348815Y-82728870D01*
X130159409Y-82825377D01*
X129987443Y-82950316D01*
X129837120Y-83100639D01*
X129712181Y-83272605D01*
X129615674Y-83462011D01*
X129549983Y-83664186D01*
X129528391Y-83800513D01*
X129516730Y-83874139D01*
X125977009Y-83874139D01*
X125977009Y-80216114D01*
X138002450Y-80216114D01*
X138021649Y-80460062D01*
X138078772Y-80697997D01*
X138078772Y-80697998D01*
X138172412Y-80924066D01*
X138172414Y-80924069D01*
X138300266Y-81132704D01*
X138300267Y-81132707D01*
X138300270Y-81132710D01*
X138459190Y-81318781D01*
X138590230Y-81430700D01*
X138645263Y-81477703D01*
X138645266Y-81477704D01*
X138853901Y-81605556D01*
X138853904Y-81605558D01*
X139079973Y-81699198D01*
X139216358Y-81731941D01*
X139317912Y-81756322D01*
X139561857Y-81775521D01*
X139805802Y-81756322D01*
X140043740Y-81699198D01*
X140043741Y-81699198D01*
X140269809Y-81605558D01*
X140269810Y-81605557D01*
X140269813Y-81605556D01*
X140478453Y-81477701D01*
X140664524Y-81318781D01*
X140823444Y-81132710D01*
X140951299Y-80924070D01*
X140951301Y-80924066D01*
X141044941Y-80697998D01*
X141044941Y-80697997D01*
X141102064Y-80460062D01*
X141102065Y-80460059D01*
X141121264Y-80216114D01*
X141102065Y-79972169D01*
X141072710Y-79849898D01*
X141044941Y-79734229D01*
X140951301Y-79508161D01*
X140951299Y-79508158D01*
X140823447Y-79299523D01*
X140823446Y-79299520D01*
X140787544Y-79257484D01*
X140664524Y-79113447D01*
X140541502Y-79008376D01*
X140478450Y-78954524D01*
X140478447Y-78954523D01*
X140269812Y-78826671D01*
X140269809Y-78826669D01*
X140043740Y-78733029D01*
X139805805Y-78675906D01*
X139561857Y-78656707D01*
X139317908Y-78675906D01*
X139079973Y-78733029D01*
X139079972Y-78733029D01*
X138853904Y-78826669D01*
X138853901Y-78826671D01*
X138645266Y-78954523D01*
X138645263Y-78954524D01*
X138459190Y-79113447D01*
X138300267Y-79299520D01*
X138300266Y-79299523D01*
X138172414Y-79508158D01*
X138172412Y-79508161D01*
X138078773Y-79734229D01*
X138021649Y-79972165D01*
X138002450Y-80216114D01*
X125977009Y-80216114D01*
X125977009Y-76384912D01*
X126758363Y-76384912D01*
X126758363Y-78180647D01*
X126758364Y-78180653D01*
X126764771Y-78240260D01*
X126815065Y-78375105D01*
X126815069Y-78375112D01*
X126901315Y-78490321D01*
X126901318Y-78490324D01*
X127016527Y-78576570D01*
X127016534Y-78576574D01*
X127151380Y-78626868D01*
X127151379Y-78626868D01*
X127158307Y-78627612D01*
X127210990Y-78633277D01*
X129006735Y-78633276D01*
X129066346Y-78626868D01*
X129201194Y-78576573D01*
X129316409Y-78490323D01*
X129402659Y-78375108D01*
X129452954Y-78240260D01*
X129459363Y-78180650D01*
X129459362Y-76384905D01*
X129452954Y-76325294D01*
X129418835Y-76233817D01*
X129402660Y-76190448D01*
X129402656Y-76190441D01*
X129316410Y-76075232D01*
X129316407Y-76075229D01*
X129201198Y-75988983D01*
X129201191Y-75988979D01*
X129069264Y-75939774D01*
X129013330Y-75897903D01*
X128988913Y-75832439D01*
X129003765Y-75764166D01*
X129024916Y-75735910D01*
X129146971Y-75613855D01*
X129214711Y-75517114D01*
X138002450Y-75517114D01*
X138021649Y-75761062D01*
X138078772Y-75998997D01*
X138078772Y-75998998D01*
X138172412Y-76225066D01*
X138172414Y-76225069D01*
X138300266Y-76433704D01*
X138300267Y-76433707D01*
X138300270Y-76433710D01*
X138459190Y-76619781D01*
X138590040Y-76731538D01*
X138645263Y-76778703D01*
X138645265Y-76778703D01*
X138801465Y-76874423D01*
X138853901Y-76906556D01*
X138853904Y-76906558D01*
X139079973Y-77000198D01*
X139284158Y-77049218D01*
X139317912Y-77057322D01*
X139561857Y-77076521D01*
X139805802Y-77057322D01*
X140043740Y-77000198D01*
X140043741Y-77000198D01*
X140269809Y-76906558D01*
X140269810Y-76906557D01*
X140269813Y-76906556D01*
X140478453Y-76778701D01*
X140664524Y-76619781D01*
X140823444Y-76433710D01*
X140951299Y-76225070D01*
X140951301Y-76225066D01*
X141044941Y-75998998D01*
X141044941Y-75998997D01*
X141067332Y-75905733D01*
X141102065Y-75761059D01*
X141121264Y-75517114D01*
X141102065Y-75273169D01*
X141044941Y-75035231D01*
X141044941Y-75035230D01*
X141044941Y-75035229D01*
X140951301Y-74809161D01*
X140951299Y-74809158D01*
X140823447Y-74600523D01*
X140823446Y-74600520D01*
X140746536Y-74510471D01*
X140664524Y-74414447D01*
X140506269Y-74279284D01*
X140478450Y-74255524D01*
X140478447Y-74255523D01*
X140269812Y-74127671D01*
X140269809Y-74127669D01*
X140043740Y-74034029D01*
X139805805Y-73976906D01*
X139561857Y-73957707D01*
X139317908Y-73976906D01*
X139079973Y-74034029D01*
X139079972Y-74034029D01*
X138853904Y-74127669D01*
X138853901Y-74127671D01*
X138645266Y-74255523D01*
X138645263Y-74255524D01*
X138459190Y-74414447D01*
X138300267Y-74600520D01*
X138300266Y-74600523D01*
X138172414Y-74809158D01*
X138172412Y-74809161D01*
X138078772Y-75035229D01*
X138078772Y-75035230D01*
X138021649Y-75273165D01*
X138002450Y-75517114D01*
X129214711Y-75517114D01*
X129282463Y-75420355D01*
X129382292Y-75206269D01*
X129382295Y-75206263D01*
X129439499Y-74992777D01*
X128541875Y-74992777D01*
X128574788Y-74935770D01*
X128608863Y-74808603D01*
X128608863Y-74676951D01*
X128574788Y-74549784D01*
X128541875Y-74492777D01*
X129439499Y-74492777D01*
X129439498Y-74492776D01*
X129382295Y-74279290D01*
X129382292Y-74279284D01*
X129282463Y-74065199D01*
X129282462Y-74065197D01*
X129146976Y-73871703D01*
X129146971Y-73871697D01*
X128979945Y-73704671D01*
X128786441Y-73569176D01*
X128572355Y-73469347D01*
X128572349Y-73469344D01*
X128358863Y-73412141D01*
X128358863Y-74309765D01*
X128301856Y-74276852D01*
X128174689Y-74242777D01*
X128043037Y-74242777D01*
X127915870Y-74276852D01*
X127858863Y-74309765D01*
X127858863Y-73412141D01*
X127858862Y-73412141D01*
X127645376Y-73469344D01*
X127645370Y-73469347D01*
X127431285Y-73569176D01*
X127431283Y-73569177D01*
X127237789Y-73704663D01*
X127237783Y-73704668D01*
X127070754Y-73871697D01*
X127070749Y-73871703D01*
X126935263Y-74065197D01*
X126935262Y-74065199D01*
X126835433Y-74279284D01*
X126835430Y-74279290D01*
X126778227Y-74492776D01*
X126778227Y-74492777D01*
X127675851Y-74492777D01*
X127642938Y-74549784D01*
X127608863Y-74676951D01*
X127608863Y-74808603D01*
X127642938Y-74935770D01*
X127675851Y-74992777D01*
X126778227Y-74992777D01*
X126835430Y-75206263D01*
X126835433Y-75206269D01*
X126935262Y-75420355D01*
X127070757Y-75613859D01*
X127192809Y-75735911D01*
X127226294Y-75797234D01*
X127221310Y-75866926D01*
X127179438Y-75922859D01*
X127148461Y-75939774D01*
X127016534Y-75988979D01*
X127016527Y-75988983D01*
X126901318Y-76075229D01*
X126901315Y-76075232D01*
X126815069Y-76190441D01*
X126815065Y-76190448D01*
X126764771Y-76325294D01*
X126760267Y-76367191D01*
X126758364Y-76384900D01*
X126758363Y-76384912D01*
X125977009Y-76384912D01*
X125977009Y-43874139D01*
X129516730Y-43874139D01*
X129516730Y-44086713D01*
X129549984Y-44296669D01*
X129590662Y-44421863D01*
X129615674Y-44498840D01*
X129712181Y-44688246D01*
X129837120Y-44860212D01*
X129987443Y-45010535D01*
X130159409Y-45135474D01*
X130159411Y-45135475D01*
X130159414Y-45135477D01*
X130348818Y-45231983D01*
X130550987Y-45297672D01*
X130760943Y-45330926D01*
X130760944Y-45330926D01*
X130973516Y-45330926D01*
X130973517Y-45330926D01*
X131183473Y-45297672D01*
X131385642Y-45231983D01*
X131575046Y-45135477D01*
X131644301Y-45085161D01*
X131747016Y-45010535D01*
X131747018Y-45010532D01*
X131747022Y-45010530D01*
X131897334Y-44860218D01*
X131897336Y-44860214D01*
X131897339Y-44860212D01*
X132022278Y-44688246D01*
X132022277Y-44688246D01*
X132022281Y-44688242D01*
X132118787Y-44498838D01*
X132184476Y-44296669D01*
X132217730Y-44086713D01*
X132217730Y-43874139D01*
X132184476Y-43664183D01*
X132118787Y-43462014D01*
X132022281Y-43272610D01*
X132022279Y-43272607D01*
X132022278Y-43272605D01*
X131897339Y-43100639D01*
X131747016Y-42950316D01*
X131575050Y-42825377D01*
X131385644Y-42728870D01*
X131385643Y-42728869D01*
X131385642Y-42728869D01*
X131183473Y-42663180D01*
X131183471Y-42663179D01*
X131183470Y-42663179D01*
X131022187Y-42637634D01*
X130973517Y-42629926D01*
X130760943Y-42629926D01*
X130712272Y-42637634D01*
X130550990Y-42663179D01*
X130348815Y-42728870D01*
X130159409Y-42825377D01*
X129987443Y-42950316D01*
X129837120Y-43100639D01*
X129712181Y-43272605D01*
X129615674Y-43462011D01*
X129549983Y-43664186D01*
X129532691Y-43773367D01*
X129516730Y-43874139D01*
X125977009Y-43874139D01*
X125977009Y-39181950D01*
X125996694Y-39114911D01*
X126049498Y-39069156D01*
X126101009Y-39057950D01*
X185462009Y-39057950D01*
X185529048Y-39077635D01*
G37*
%TD.AperFunction*%
%TA.AperFunction,Conductor*%
G36*
X170177687Y-76518080D02*
G01*
X170134582Y-76529992D01*
X169791164Y-76529992D01*
X169724125Y-76510307D01*
X169703483Y-76493673D01*
X169443627Y-76233817D01*
X170177687Y-76518080D01*
G37*
%TD.AperFunction*%
%TA.AperFunction,Conductor*%
G36*
X159676417Y-65741243D02*
G01*
X159716947Y-65798157D01*
X159723767Y-65838715D01*
X159723767Y-75447217D01*
X159704082Y-75514256D01*
X159687448Y-75534898D01*
X159173836Y-76048509D01*
X159112513Y-76081994D01*
X159042821Y-76077010D01*
X158986888Y-76035138D01*
X158962471Y-75969674D01*
X158975066Y-75905736D01*
X159027252Y-75800513D01*
X159071898Y-75620987D01*
X159074715Y-75579446D01*
X159074715Y-74731538D01*
X159071898Y-74689997D01*
X159027252Y-74510471D01*
X158945057Y-74344739D01*
X158855060Y-74232779D01*
X158828402Y-74168197D01*
X158840892Y-74099453D01*
X158855061Y-74077406D01*
X158944633Y-73965973D01*
X159026779Y-73800341D01*
X159071399Y-73620923D01*
X159074215Y-73579403D01*
X159074215Y-73405492D01*
X157057227Y-73405492D01*
X157090140Y-73348485D01*
X157124215Y-73221318D01*
X157124215Y-73089666D01*
X157090140Y-72962499D01*
X157057227Y-72905492D01*
X157349215Y-72905492D01*
X159074214Y-72905492D01*
X159074214Y-72731581D01*
X159074213Y-72731574D01*
X159071400Y-72690068D01*
X159071400Y-72690066D01*
X159026779Y-72510642D01*
X158944633Y-72345010D01*
X158828800Y-72200907D01*
X158828799Y-72200906D01*
X158684696Y-72085073D01*
X158519064Y-72002927D01*
X158339646Y-71958307D01*
X158298127Y-71955492D01*
X157349215Y-71955492D01*
X157349215Y-72905492D01*
X157057227Y-72905492D01*
X157024314Y-72848485D01*
X156931222Y-72755393D01*
X156849215Y-72708046D01*
X156849215Y-71955492D01*
X155900304Y-71955492D01*
X155900297Y-71955493D01*
X155858791Y-71958306D01*
X155858789Y-71958306D01*
X155679363Y-72002928D01*
X155679362Y-72002928D01*
X155546983Y-72068582D01*
X155478178Y-72080734D01*
X155413726Y-72053757D01*
X155374091Y-71996218D01*
X155367889Y-71957494D01*
X155367889Y-69585615D01*
X155387574Y-69518576D01*
X155404208Y-69497934D01*
X158689580Y-66212563D01*
X158750903Y-66179078D01*
X158777261Y-66176244D01*
X158836452Y-66176244D01*
X158836454Y-66176244D01*
X159021611Y-66136888D01*
X159194538Y-66059895D01*
X159347679Y-65948632D01*
X159474341Y-65807960D01*
X159492380Y-65776714D01*
X159542945Y-65728500D01*
X159611552Y-65715276D01*
X159676417Y-65741243D01*
G37*
%TD.AperFunction*%
%TA.AperFunction,Conductor*%
G36*
X162204348Y-54578357D02*
G01*
X162230670Y-54598431D01*
X169568530Y-61936291D01*
X169602015Y-61997614D01*
X169604170Y-62011010D01*
X169608300Y-62050304D01*
X169621818Y-62178919D01*
X169621819Y-62178922D01*
X169680310Y-62358940D01*
X169680313Y-62358947D01*
X169774959Y-62522879D01*
X169901621Y-62663551D01*
X170054757Y-62774811D01*
X170054762Y-62774814D01*
X170227684Y-62851805D01*
X170227689Y-62851807D01*
X170412846Y-62891163D01*
X170412847Y-62891163D01*
X170602136Y-62891163D01*
X170602138Y-62891163D01*
X170787295Y-62851807D01*
X170960222Y-62774814D01*
X170960228Y-62774808D01*
X170961783Y-62773912D01*
X170962806Y-62773663D01*
X170966159Y-62772171D01*
X170966431Y-62772783D01*
X171029681Y-62757432D01*
X171074231Y-62768013D01*
X171222528Y-62834040D01*
X171222533Y-62834042D01*
X171407690Y-62873398D01*
X171407691Y-62873398D01*
X171596980Y-62873398D01*
X171596982Y-62873398D01*
X171782139Y-62834042D01*
X171893175Y-62784605D01*
X171962425Y-62775320D01*
X172016496Y-62797566D01*
X172042814Y-62816687D01*
X172042819Y-62816690D01*
X172215741Y-62893681D01*
X172215746Y-62893683D01*
X172400903Y-62933039D01*
X172400904Y-62933039D01*
X172590193Y-62933039D01*
X172590195Y-62933039D01*
X172775352Y-62893683D01*
X172905805Y-62835601D01*
X172975055Y-62826316D01*
X173029128Y-62848563D01*
X173037107Y-62854360D01*
X173037108Y-62854361D01*
X173210030Y-62931352D01*
X173210035Y-62931354D01*
X173395192Y-62970710D01*
X173395193Y-62970710D01*
X173584482Y-62970710D01*
X173584484Y-62970710D01*
X173769641Y-62931354D01*
X173942568Y-62854361D01*
X173976718Y-62829549D01*
X174042524Y-62806070D01*
X174110578Y-62821895D01*
X174159273Y-62872001D01*
X174173603Y-62929868D01*
X174173603Y-63419488D01*
X174153918Y-63486527D01*
X174141753Y-63502460D01*
X174038982Y-63616599D01*
X173944337Y-63780529D01*
X173944334Y-63780536D01*
X173913114Y-63876623D01*
X173885842Y-63960558D01*
X173866056Y-64148814D01*
X173885842Y-64337070D01*
X173885843Y-64337073D01*
X173944334Y-64517091D01*
X173944337Y-64517098D01*
X174038983Y-64681030D01*
X174095257Y-64743528D01*
X174165645Y-64821702D01*
X174318781Y-64932962D01*
X174318786Y-64932965D01*
X174491708Y-65009956D01*
X174491713Y-65009958D01*
X174676870Y-65049314D01*
X174676871Y-65049314D01*
X174866160Y-65049314D01*
X174866162Y-65049314D01*
X174980852Y-65024936D01*
X175050518Y-65030252D01*
X175106252Y-65072389D01*
X175130357Y-65137969D01*
X175130632Y-65146226D01*
X175130632Y-65289134D01*
X175110947Y-65356173D01*
X175058143Y-65401928D01*
X174988985Y-65411872D01*
X174980852Y-65410425D01*
X174940875Y-65401928D01*
X174861056Y-65384962D01*
X174671764Y-65384962D01*
X174639307Y-65391860D01*
X174486607Y-65424317D01*
X174486602Y-65424319D01*
X174313680Y-65501310D01*
X174313675Y-65501313D01*
X174160540Y-65612572D01*
X174160536Y-65612576D01*
X174154810Y-65618936D01*
X174095323Y-65655583D01*
X174062662Y-65659962D01*
X172296551Y-65659962D01*
X172229512Y-65640277D01*
X172208870Y-65623643D01*
X162348051Y-55762824D01*
X162314566Y-55701501D01*
X162312414Y-55688125D01*
X162294765Y-55520198D01*
X162236270Y-55340170D01*
X162141624Y-55176238D01*
X162066441Y-55092738D01*
X162036211Y-55029746D01*
X162034591Y-55009766D01*
X162034591Y-54906111D01*
X162034592Y-54906090D01*
X162034592Y-54776761D01*
X162021372Y-54710304D01*
X162027599Y-54640713D01*
X162070461Y-54585535D01*
X162136351Y-54562290D01*
X162204348Y-54578357D01*
G37*
%TD.AperFunction*%
%TD*%
%TA.AperFunction,Conductor*%
%TO.N,GND_IB*%
G36*
X205177766Y-95760412D02*
G01*
X205223521Y-95813216D01*
X205234727Y-95864727D01*
X205234727Y-155225727D01*
X205215042Y-155292766D01*
X205162238Y-155338521D01*
X205110727Y-155349727D01*
X105749727Y-155349727D01*
X105682688Y-155330042D01*
X105636933Y-155277238D01*
X105625727Y-155225727D01*
X105625727Y-150842205D01*
X108091250Y-150842205D01*
X108091250Y-151054778D01*
X108124503Y-151264731D01*
X108190194Y-151466906D01*
X108286701Y-151656312D01*
X108411640Y-151828278D01*
X108561963Y-151978601D01*
X108733929Y-152103540D01*
X108733931Y-152103541D01*
X108733934Y-152103543D01*
X108923338Y-152200049D01*
X109125507Y-152265738D01*
X109335463Y-152298992D01*
X109335464Y-152298992D01*
X109548036Y-152298992D01*
X109548037Y-152298992D01*
X109757993Y-152265738D01*
X109960162Y-152200049D01*
X110149566Y-152103543D01*
X110171539Y-152087578D01*
X110321536Y-151978601D01*
X110321538Y-151978598D01*
X110321542Y-151978596D01*
X110471854Y-151828284D01*
X110471856Y-151828280D01*
X110471859Y-151828278D01*
X110596798Y-151656312D01*
X110596797Y-151656312D01*
X110596801Y-151656308D01*
X110693307Y-151466904D01*
X110758996Y-151264735D01*
X110792250Y-151054779D01*
X110792250Y-150842205D01*
X199531250Y-150842205D01*
X199531250Y-151054778D01*
X199564503Y-151264731D01*
X199630194Y-151466906D01*
X199726701Y-151656312D01*
X199851640Y-151828278D01*
X200001963Y-151978601D01*
X200173929Y-152103540D01*
X200173931Y-152103541D01*
X200173934Y-152103543D01*
X200363338Y-152200049D01*
X200565507Y-152265738D01*
X200775463Y-152298992D01*
X200775464Y-152298992D01*
X200988036Y-152298992D01*
X200988037Y-152298992D01*
X201197993Y-152265738D01*
X201400162Y-152200049D01*
X201589566Y-152103543D01*
X201611539Y-152087578D01*
X201761536Y-151978601D01*
X201761538Y-151978598D01*
X201761542Y-151978596D01*
X201911854Y-151828284D01*
X201911856Y-151828280D01*
X201911859Y-151828278D01*
X202036798Y-151656312D01*
X202036797Y-151656312D01*
X202036801Y-151656308D01*
X202133307Y-151466904D01*
X202198996Y-151264735D01*
X202232250Y-151054779D01*
X202232250Y-150842205D01*
X202198996Y-150632249D01*
X202133307Y-150430080D01*
X202036801Y-150240676D01*
X202036799Y-150240673D01*
X202036798Y-150240671D01*
X201911859Y-150068705D01*
X201761536Y-149918382D01*
X201589570Y-149793443D01*
X201400164Y-149696936D01*
X201400163Y-149696935D01*
X201400162Y-149696935D01*
X201197993Y-149631246D01*
X201197991Y-149631245D01*
X201197990Y-149631245D01*
X201036707Y-149605700D01*
X200988037Y-149597992D01*
X200775463Y-149597992D01*
X200726792Y-149605700D01*
X200565510Y-149631245D01*
X200363335Y-149696936D01*
X200173929Y-149793443D01*
X200001963Y-149918382D01*
X199851640Y-150068705D01*
X199726701Y-150240671D01*
X199630194Y-150430077D01*
X199564503Y-150632252D01*
X199531250Y-150842205D01*
X110792250Y-150842205D01*
X110758996Y-150632249D01*
X110693307Y-150430080D01*
X110596801Y-150240676D01*
X110596799Y-150240673D01*
X110596798Y-150240671D01*
X110471859Y-150068705D01*
X110321536Y-149918382D01*
X110149570Y-149793443D01*
X109960164Y-149696936D01*
X109960163Y-149696935D01*
X109960162Y-149696935D01*
X109757993Y-149631246D01*
X109757991Y-149631245D01*
X109757990Y-149631245D01*
X109596707Y-149605700D01*
X109548037Y-149597992D01*
X109335463Y-149597992D01*
X109286792Y-149605700D01*
X109125510Y-149631245D01*
X108923335Y-149696936D01*
X108733929Y-149793443D01*
X108561963Y-149918382D01*
X108411640Y-150068705D01*
X108286701Y-150240671D01*
X108190194Y-150430077D01*
X108124503Y-150632252D01*
X108091250Y-150842205D01*
X105625727Y-150842205D01*
X105625727Y-145704092D01*
X184942370Y-145704092D01*
X184942370Y-146550782D01*
X184942371Y-146550800D01*
X184952520Y-146650152D01*
X184952521Y-146650155D01*
X185005866Y-146811139D01*
X185005871Y-146811150D01*
X185094899Y-146955485D01*
X185094902Y-146955489D01*
X185214825Y-147075412D01*
X185214829Y-147075415D01*
X185359164Y-147164443D01*
X185359167Y-147164444D01*
X185359173Y-147164448D01*
X185520162Y-147217794D01*
X185619525Y-147227945D01*
X186166214Y-147227944D01*
X186166222Y-147227943D01*
X186166225Y-147227943D01*
X186220630Y-147222385D01*
X186265578Y-147217794D01*
X186426567Y-147164448D01*
X186570914Y-147075413D01*
X186690838Y-146955489D01*
X186779873Y-146811142D01*
X186833219Y-146650153D01*
X186843370Y-146550790D01*
X186843369Y-145704101D01*
X186843368Y-145704092D01*
X188242370Y-145704092D01*
X188242370Y-146550782D01*
X188242371Y-146550800D01*
X188252520Y-146650152D01*
X188252521Y-146650155D01*
X188305866Y-146811139D01*
X188305871Y-146811150D01*
X188394899Y-146955485D01*
X188394902Y-146955489D01*
X188514825Y-147075412D01*
X188514829Y-147075415D01*
X188659164Y-147164443D01*
X188659167Y-147164444D01*
X188659173Y-147164448D01*
X188820162Y-147217794D01*
X188919525Y-147227945D01*
X189466214Y-147227944D01*
X189466222Y-147227943D01*
X189466225Y-147227943D01*
X189520630Y-147222385D01*
X189565578Y-147217794D01*
X189726567Y-147164448D01*
X189870914Y-147075413D01*
X189990838Y-146955489D01*
X190079438Y-146811848D01*
X190131386Y-146765123D01*
X190184976Y-146752945D01*
X193746158Y-146752945D01*
X193806580Y-146740926D01*
X193867003Y-146728908D01*
X193867006Y-146728906D01*
X193867009Y-146728906D01*
X193900338Y-146715099D01*
X193900337Y-146715099D01*
X193900343Y-146715097D01*
X193980837Y-146681757D01*
X194032060Y-146647529D01*
X194083284Y-146613303D01*
X194170409Y-146526178D01*
X194170410Y-146526176D01*
X194177476Y-146519110D01*
X194177479Y-146519106D01*
X199335178Y-141361407D01*
X199396501Y-141327922D01*
X199422859Y-141325088D01*
X202035278Y-141325088D01*
X202035279Y-141325088D01*
X202094890Y-141318680D01*
X202229738Y-141268385D01*
X202344953Y-141182135D01*
X202431203Y-141066920D01*
X202481498Y-140932072D01*
X202487907Y-140872462D01*
X202487906Y-137776717D01*
X202481498Y-137717106D01*
X202431203Y-137582258D01*
X202431202Y-137582257D01*
X202431200Y-137582253D01*
X202344954Y-137467044D01*
X202344951Y-137467041D01*
X202229742Y-137380795D01*
X202229735Y-137380791D01*
X202094889Y-137330497D01*
X202094890Y-137330497D01*
X202035290Y-137324090D01*
X202035288Y-137324089D01*
X202035280Y-137324089D01*
X202035272Y-137324089D01*
X199599637Y-137324089D01*
X199532598Y-137304404D01*
X199511956Y-137287770D01*
X196572707Y-134348521D01*
X196539222Y-134287198D01*
X196536388Y-134260840D01*
X196536388Y-124097520D01*
X198185388Y-124097520D01*
X198185388Y-126725951D01*
X198185389Y-126725966D01*
X198195792Y-126858156D01*
X198195793Y-126858163D01*
X198250790Y-127076421D01*
X198250791Y-127076424D01*
X198343879Y-127281365D01*
X198343885Y-127281375D01*
X198472062Y-127466388D01*
X198472066Y-127466393D01*
X198472069Y-127466397D01*
X198631234Y-127625562D01*
X198631238Y-127625565D01*
X198631242Y-127625568D01*
X198770491Y-127722040D01*
X198816262Y-127753750D01*
X199021205Y-127846839D01*
X199021209Y-127846840D01*
X199239467Y-127901837D01*
X199239469Y-127901837D01*
X199239476Y-127901839D01*
X199371671Y-127912243D01*
X201000104Y-127912242D01*
X201132300Y-127901839D01*
X201350571Y-127846839D01*
X201555514Y-127753750D01*
X201740542Y-127625562D01*
X201899707Y-127466397D01*
X202027895Y-127281369D01*
X202120984Y-127076426D01*
X202175984Y-126858155D01*
X202186388Y-126725960D01*
X202186387Y-124097527D01*
X202175984Y-123965331D01*
X202171514Y-123947593D01*
X202120985Y-123747064D01*
X202120984Y-123747061D01*
X202089839Y-123678493D01*
X202027895Y-123542117D01*
X201996185Y-123496346D01*
X201899713Y-123357097D01*
X201899710Y-123357093D01*
X201899707Y-123357089D01*
X201740542Y-123197924D01*
X201740538Y-123197921D01*
X201740533Y-123197917D01*
X201555520Y-123069740D01*
X201555518Y-123069738D01*
X201555514Y-123069736D01*
X201350571Y-122976647D01*
X201350569Y-122976646D01*
X201350566Y-122976645D01*
X201132308Y-122921648D01*
X201132301Y-122921647D01*
X201088235Y-122918179D01*
X201000105Y-122911243D01*
X201000103Y-122911243D01*
X199371679Y-122911243D01*
X199371664Y-122911244D01*
X199239474Y-122921647D01*
X199239467Y-122921648D01*
X199021209Y-122976645D01*
X199021206Y-122976646D01*
X198816265Y-123069734D01*
X198816255Y-123069740D01*
X198631242Y-123197917D01*
X198631230Y-123197927D01*
X198472072Y-123357085D01*
X198472062Y-123357097D01*
X198343885Y-123542110D01*
X198343879Y-123542120D01*
X198250791Y-123747061D01*
X198250790Y-123747064D01*
X198195793Y-123965322D01*
X198195792Y-123965329D01*
X198185388Y-124097520D01*
X196536388Y-124097520D01*
X196536388Y-119662941D01*
X196556073Y-119595902D01*
X196584226Y-119565088D01*
X196731451Y-119450498D01*
X196796445Y-119424855D01*
X196864985Y-119438421D01*
X196915309Y-119486890D01*
X196923795Y-119505018D01*
X196942090Y-119554071D01*
X196942094Y-119554078D01*
X197028340Y-119669287D01*
X197028343Y-119669290D01*
X197143552Y-119755536D01*
X197143559Y-119755540D01*
X197278405Y-119805834D01*
X197278404Y-119805834D01*
X197285332Y-119806578D01*
X197338015Y-119812243D01*
X199233760Y-119812242D01*
X199293371Y-119805834D01*
X199428219Y-119755539D01*
X199543434Y-119669289D01*
X199629684Y-119554074D01*
X199679979Y-119419226D01*
X199686388Y-119359616D01*
X199686387Y-117463871D01*
X199679979Y-117404260D01*
X199677949Y-117398818D01*
X199629685Y-117269414D01*
X199629681Y-117269407D01*
X199543435Y-117154198D01*
X199543432Y-117154195D01*
X199428223Y-117067949D01*
X199428216Y-117067945D01*
X199293370Y-117017651D01*
X199293371Y-117017651D01*
X199233771Y-117011244D01*
X199233769Y-117011243D01*
X199233761Y-117011243D01*
X199233753Y-117011243D01*
X199036242Y-117011243D01*
X198969203Y-116991558D01*
X198923448Y-116938754D01*
X198912242Y-116887243D01*
X198912242Y-116722704D01*
X198931927Y-116655665D01*
X198948561Y-116635023D01*
X198989249Y-116594335D01*
X199066954Y-116516630D01*
X199159056Y-116367308D01*
X199214241Y-116200771D01*
X199224742Y-116097983D01*
X199224741Y-114747966D01*
X199222421Y-114725259D01*
X199214241Y-114645177D01*
X199214240Y-114645174D01*
X199189907Y-114571743D01*
X199159056Y-114478640D01*
X199066954Y-114329318D01*
X198942898Y-114205262D01*
X198793576Y-114113160D01*
X198627039Y-114057975D01*
X198627037Y-114057974D01*
X198524252Y-114047474D01*
X197799240Y-114047474D01*
X197799222Y-114047475D01*
X197696445Y-114057974D01*
X197696442Y-114057975D01*
X197529910Y-114113159D01*
X197529905Y-114113161D01*
X197380584Y-114205263D01*
X197256531Y-114329316D01*
X197164429Y-114478637D01*
X197164428Y-114478640D01*
X197109243Y-114645177D01*
X197109243Y-114645178D01*
X197109242Y-114645178D01*
X197098742Y-114747957D01*
X197098742Y-116097975D01*
X197098743Y-116097992D01*
X197109242Y-116200770D01*
X197109243Y-116200773D01*
X197164427Y-116367305D01*
X197164429Y-116367310D01*
X197199311Y-116423862D01*
X197254627Y-116513545D01*
X197256531Y-116516631D01*
X197374923Y-116635023D01*
X197408408Y-116696346D01*
X197411242Y-116722704D01*
X197411242Y-116891987D01*
X197391557Y-116959026D01*
X197338753Y-117004781D01*
X197300496Y-117015277D01*
X197278404Y-117017651D01*
X197143559Y-117067945D01*
X197143552Y-117067949D01*
X197028343Y-117154195D01*
X197028340Y-117154198D01*
X196942094Y-117269407D01*
X196942090Y-117269414D01*
X196923795Y-117318467D01*
X196881923Y-117374401D01*
X196816459Y-117398818D01*
X196748186Y-117383966D01*
X196731451Y-117372988D01*
X196601276Y-117271669D01*
X196554514Y-117235273D01*
X196460858Y-117184588D01*
X196350392Y-117124807D01*
X196350383Y-117124804D01*
X196130872Y-117049445D01*
X195926111Y-117015277D01*
X195901937Y-117011243D01*
X195796679Y-117011243D01*
X195729640Y-116991558D01*
X195683885Y-116938754D01*
X195673941Y-116869596D01*
X195702966Y-116806040D01*
X195757675Y-116769537D01*
X195868576Y-116732788D01*
X196017898Y-116640686D01*
X196141954Y-116516630D01*
X196234056Y-116367308D01*
X196289241Y-116200771D01*
X196299742Y-116097983D01*
X196299741Y-114747966D01*
X196297421Y-114725259D01*
X196289241Y-114645177D01*
X196289240Y-114645174D01*
X196264907Y-114571743D01*
X196234056Y-114478640D01*
X196141954Y-114329318D01*
X196023561Y-114210925D01*
X195990076Y-114149602D01*
X195987242Y-114123244D01*
X195987242Y-102214417D01*
X195958401Y-102069430D01*
X195958400Y-102069429D01*
X195958400Y-102069425D01*
X195945214Y-102037591D01*
X195901829Y-101932849D01*
X195901822Y-101932836D01*
X195819693Y-101809922D01*
X195819690Y-101809918D01*
X195768530Y-101758759D01*
X195738281Y-101709398D01*
X195691271Y-101564716D01*
X195682940Y-101539076D01*
X195682937Y-101539070D01*
X195624016Y-101437015D01*
X195588292Y-101375139D01*
X195461630Y-101234467D01*
X195454016Y-101228935D01*
X195308493Y-101123206D01*
X195308488Y-101123203D01*
X195135566Y-101046212D01*
X195135561Y-101046210D01*
X194989760Y-101015220D01*
X194950405Y-101006855D01*
X194761113Y-101006855D01*
X194728656Y-101013753D01*
X194575956Y-101046210D01*
X194575951Y-101046212D01*
X194403029Y-101123203D01*
X194403024Y-101123206D01*
X194249888Y-101234466D01*
X194123225Y-101375140D01*
X194028580Y-101539070D01*
X194028577Y-101539077D01*
X193988098Y-101663660D01*
X193970085Y-101719099D01*
X193950299Y-101907355D01*
X193970085Y-102095611D01*
X193970086Y-102095614D01*
X194028577Y-102275632D01*
X194028580Y-102275639D01*
X194123226Y-102439571D01*
X194249888Y-102580243D01*
X194403024Y-102691503D01*
X194403029Y-102691506D01*
X194412678Y-102695802D01*
X194465915Y-102741052D01*
X194486236Y-102807901D01*
X194486242Y-102809081D01*
X194486242Y-114123244D01*
X194466557Y-114190283D01*
X194449923Y-114210925D01*
X194331531Y-114329316D01*
X194239429Y-114478637D01*
X194239428Y-114478640D01*
X194184243Y-114645177D01*
X194184243Y-114645178D01*
X194184242Y-114645178D01*
X194173742Y-114747957D01*
X194173742Y-116097975D01*
X194173743Y-116097992D01*
X194184242Y-116200770D01*
X194184243Y-116200773D01*
X194239427Y-116367305D01*
X194239429Y-116367310D01*
X194274311Y-116423862D01*
X194331530Y-116516630D01*
X194455586Y-116640686D01*
X194604908Y-116732788D01*
X194771445Y-116787973D01*
X194874233Y-116798474D01*
X195448439Y-116798473D01*
X195515478Y-116818157D01*
X195561233Y-116870961D01*
X195571177Y-116940120D01*
X195542152Y-117003676D01*
X195483374Y-117041450D01*
X195468850Y-117044782D01*
X195440902Y-117049445D01*
X195221392Y-117124804D01*
X195221383Y-117124807D01*
X195017259Y-117235274D01*
X195017253Y-117235278D01*
X194834110Y-117377824D01*
X194834107Y-117377827D01*
X194834104Y-117377829D01*
X194834104Y-117377830D01*
X194806603Y-117407705D01*
X194676903Y-117548597D01*
X194640011Y-117605065D01*
X194586865Y-117650421D01*
X194536203Y-117661243D01*
X194535573Y-117661243D01*
X194468534Y-117641558D01*
X194431765Y-117605065D01*
X194394872Y-117548597D01*
X194394870Y-117548595D01*
X194394867Y-117548590D01*
X194237672Y-117377830D01*
X194237667Y-117377826D01*
X194237665Y-117377824D01*
X194054522Y-117235278D01*
X194054516Y-117235274D01*
X193850392Y-117124807D01*
X193850383Y-117124804D01*
X193630872Y-117049445D01*
X193426111Y-117015277D01*
X193401937Y-117011243D01*
X193169839Y-117011243D01*
X193145665Y-117015277D01*
X192940903Y-117049445D01*
X192721392Y-117124804D01*
X192721383Y-117124807D01*
X192517259Y-117235274D01*
X192517253Y-117235278D01*
X192334110Y-117377824D01*
X192334107Y-117377827D01*
X192334104Y-117377829D01*
X192334104Y-117377830D01*
X192309774Y-117404260D01*
X192176904Y-117548595D01*
X192049963Y-117742894D01*
X191956730Y-117955442D01*
X191899754Y-118180434D01*
X191899752Y-118180445D01*
X191880588Y-118411736D01*
X191880588Y-118411749D01*
X191899752Y-118643040D01*
X191899754Y-118643051D01*
X191956730Y-118868043D01*
X192049963Y-119080591D01*
X192176904Y-119274890D01*
X192176907Y-119274894D01*
X192176909Y-119274896D01*
X192334104Y-119445656D01*
X192334107Y-119445658D01*
X192334110Y-119445661D01*
X192517253Y-119588207D01*
X192517259Y-119588211D01*
X192517262Y-119588213D01*
X192721385Y-119698679D01*
X192835375Y-119737811D01*
X192940903Y-119774040D01*
X192940905Y-119774040D01*
X192940907Y-119774041D01*
X193169839Y-119812243D01*
X193169840Y-119812243D01*
X193401936Y-119812243D01*
X193401937Y-119812243D01*
X193630869Y-119774041D01*
X193850391Y-119698679D01*
X194054514Y-119588213D01*
X194084227Y-119565087D01*
X194214969Y-119463326D01*
X194237672Y-119445656D01*
X194394867Y-119274896D01*
X194401802Y-119264280D01*
X194431765Y-119218421D01*
X194484911Y-119173065D01*
X194535573Y-119162243D01*
X194536203Y-119162243D01*
X194603242Y-119181928D01*
X194640011Y-119218421D01*
X194676903Y-119274888D01*
X194676905Y-119274890D01*
X194676909Y-119274896D01*
X194834104Y-119445656D01*
X194987550Y-119565087D01*
X195028363Y-119621798D01*
X195035388Y-119662941D01*
X195035388Y-134696988D01*
X195035388Y-134696990D01*
X195035387Y-134696990D01*
X195064228Y-134841977D01*
X195064231Y-134841987D01*
X195120801Y-134978560D01*
X195120806Y-134978569D01*
X195128308Y-134989796D01*
X195128310Y-134989798D01*
X195194595Y-135089003D01*
X195202939Y-135101490D01*
X195202940Y-135101491D01*
X198450588Y-138349138D01*
X198484073Y-138410461D01*
X198486907Y-138436819D01*
X198486907Y-140389136D01*
X198467222Y-140456175D01*
X198450588Y-140476817D01*
X193461780Y-145465626D01*
X193400457Y-145499111D01*
X193374099Y-145501945D01*
X190184976Y-145501945D01*
X190117937Y-145482260D01*
X190079438Y-145443042D01*
X189990840Y-145299404D01*
X189990837Y-145299400D01*
X189870914Y-145179477D01*
X189870910Y-145179474D01*
X189726575Y-145090446D01*
X189726569Y-145090443D01*
X189726567Y-145090442D01*
X189610224Y-145051890D01*
X189565579Y-145037096D01*
X189466216Y-145026945D01*
X188919532Y-145026945D01*
X188919514Y-145026946D01*
X188820162Y-145037095D01*
X188820159Y-145037096D01*
X188659175Y-145090441D01*
X188659164Y-145090446D01*
X188514829Y-145179474D01*
X188514825Y-145179477D01*
X188394902Y-145299400D01*
X188394899Y-145299404D01*
X188305871Y-145443739D01*
X188305866Y-145443750D01*
X188252521Y-145604735D01*
X188242370Y-145704092D01*
X186843368Y-145704092D01*
X186833219Y-145604737D01*
X186822090Y-145571154D01*
X186819688Y-145501328D01*
X186852113Y-145444471D01*
X190935178Y-141361407D01*
X190996501Y-141327922D01*
X191022859Y-141325088D01*
X193635278Y-141325088D01*
X193635279Y-141325088D01*
X193694890Y-141318680D01*
X193829738Y-141268385D01*
X193944953Y-141182135D01*
X194031203Y-141066920D01*
X194081498Y-140932072D01*
X194087907Y-140872462D01*
X194087906Y-137776717D01*
X194081498Y-137717106D01*
X194031203Y-137582258D01*
X194031202Y-137582257D01*
X194031200Y-137582253D01*
X193944954Y-137467044D01*
X193944951Y-137467041D01*
X193829742Y-137380795D01*
X193829735Y-137380791D01*
X193694889Y-137330497D01*
X193694890Y-137330497D01*
X193635290Y-137324090D01*
X193635288Y-137324089D01*
X193635280Y-137324089D01*
X193635271Y-137324089D01*
X190539536Y-137324089D01*
X190539530Y-137324090D01*
X190479923Y-137330497D01*
X190345078Y-137380791D01*
X190345071Y-137380795D01*
X190229862Y-137467041D01*
X190229859Y-137467044D01*
X190143613Y-137582253D01*
X190143609Y-137582260D01*
X190093315Y-137717106D01*
X190086908Y-137776705D01*
X190086908Y-137776712D01*
X190086907Y-137776724D01*
X190086907Y-138536976D01*
X190067222Y-138604015D01*
X190014418Y-138649770D01*
X189962907Y-138660976D01*
X189195571Y-138660976D01*
X189128532Y-138641291D01*
X189082777Y-138588487D01*
X189072833Y-138519329D01*
X189088839Y-138473855D01*
X189141876Y-138384172D01*
X189141877Y-138384169D01*
X189187693Y-138226471D01*
X189187694Y-138226465D01*
X189190593Y-138189625D01*
X189190594Y-138189610D01*
X189190594Y-137786476D01*
X187590594Y-137786476D01*
X187590594Y-138049476D01*
X187570909Y-138116515D01*
X187518105Y-138162270D01*
X187466594Y-138173476D01*
X187415094Y-138173476D01*
X187348055Y-138153791D01*
X187302300Y-138100987D01*
X187291094Y-138049476D01*
X187291094Y-137671928D01*
X187310779Y-137604889D01*
X187327413Y-137584247D01*
X187588865Y-137322795D01*
X187650188Y-137289310D01*
X187676546Y-137286476D01*
X189190594Y-137286476D01*
X189190594Y-136883341D01*
X189190593Y-136883326D01*
X189187694Y-136846486D01*
X189187693Y-136846480D01*
X189141877Y-136688782D01*
X189141876Y-136688779D01*
X189058279Y-136547423D01*
X189058272Y-136547414D01*
X188942155Y-136431297D01*
X188942146Y-136431290D01*
X188794077Y-136343723D01*
X188795057Y-136342064D01*
X188749233Y-136303926D01*
X188728219Y-136237292D01*
X188746566Y-136169874D01*
X188764507Y-136147151D01*
X188811318Y-136100340D01*
X188872641Y-136066857D01*
X188898997Y-136064024D01*
X189132288Y-136064024D01*
X189132294Y-136064024D01*
X189235083Y-136053524D01*
X189401620Y-135998339D01*
X189550942Y-135906237D01*
X189674998Y-135782181D01*
X189767100Y-135632859D01*
X189822285Y-135466322D01*
X189832786Y-135363534D01*
X189832785Y-134013517D01*
X189822285Y-133910728D01*
X189767100Y-133744191D01*
X189674998Y-133594869D01*
X189550942Y-133470813D01*
X189401620Y-133378711D01*
X189235083Y-133323526D01*
X189235081Y-133323525D01*
X189132296Y-133313025D01*
X188407284Y-133313025D01*
X188407266Y-133313026D01*
X188304489Y-133323525D01*
X188304486Y-133323526D01*
X188137954Y-133378710D01*
X188137949Y-133378712D01*
X187988628Y-133470814D01*
X187864575Y-133594867D01*
X187772473Y-133744188D01*
X187772471Y-133744193D01*
X187764746Y-133767505D01*
X187717287Y-133910728D01*
X187717287Y-133910729D01*
X187717286Y-133910729D01*
X187706786Y-134013508D01*
X187706786Y-135363526D01*
X187706788Y-135363552D01*
X187707487Y-135370398D01*
X187694711Y-135439089D01*
X187671809Y-135470669D01*
X186870907Y-136271571D01*
X186809584Y-136305056D01*
X186748635Y-136302968D01*
X186743163Y-136301378D01*
X186743157Y-136301377D01*
X186706295Y-136298476D01*
X186706288Y-136298476D01*
X186337446Y-136298476D01*
X186270407Y-136278791D01*
X186267601Y-136275553D01*
X186218668Y-136307001D01*
X186218328Y-136307100D01*
X186080200Y-136347230D01*
X186080197Y-136347231D01*
X185938731Y-136430893D01*
X185938723Y-136430899D01*
X185822517Y-136547105D01*
X185822511Y-136547113D01*
X185738849Y-136688579D01*
X185738848Y-136688582D01*
X185692996Y-136846402D01*
X185692995Y-136846408D01*
X185690094Y-136883274D01*
X185690094Y-138189677D01*
X185692995Y-138226543D01*
X185692996Y-138226549D01*
X185738848Y-138384369D01*
X185738849Y-138384372D01*
X185738850Y-138384374D01*
X185754278Y-138410461D01*
X185822511Y-138525838D01*
X185822517Y-138525846D01*
X185938723Y-138642052D01*
X185938727Y-138642055D01*
X185938729Y-138642057D01*
X186080196Y-138725720D01*
X186121818Y-138737812D01*
X186238020Y-138771573D01*
X186238023Y-138771573D01*
X186238025Y-138771574D01*
X186274900Y-138774476D01*
X186516094Y-138774476D01*
X186583133Y-138794161D01*
X186628888Y-138846965D01*
X186640094Y-138898476D01*
X186640094Y-140064677D01*
X186642995Y-140101543D01*
X186642996Y-140101549D01*
X186688848Y-140259369D01*
X186688849Y-140259372D01*
X186772511Y-140400838D01*
X186772517Y-140400846D01*
X186888723Y-140517052D01*
X186888727Y-140517055D01*
X186888729Y-140517057D01*
X187030196Y-140600720D01*
X187049509Y-140606331D01*
X187188020Y-140646573D01*
X187188023Y-140646573D01*
X187188025Y-140646574D01*
X187224900Y-140649476D01*
X187224908Y-140649476D01*
X187656280Y-140649476D01*
X187656288Y-140649476D01*
X187693163Y-140646574D01*
X187693165Y-140646573D01*
X187693167Y-140646573D01*
X187734785Y-140634481D01*
X187850992Y-140600720D01*
X187992459Y-140517057D01*
X188108675Y-140400841D01*
X188192338Y-140259374D01*
X188194254Y-140252779D01*
X188194661Y-140251380D01*
X188232268Y-140192494D01*
X188295741Y-140163289D01*
X188313737Y-140161976D01*
X189962908Y-140161976D01*
X190029947Y-140181661D01*
X190075702Y-140234465D01*
X190086907Y-140285974D01*
X190086907Y-140358921D01*
X190086907Y-140389136D01*
X190067222Y-140456175D01*
X190050588Y-140476816D01*
X185496296Y-145031108D01*
X185447620Y-145061133D01*
X185359172Y-145090442D01*
X185359167Y-145090444D01*
X185214826Y-145179476D01*
X185094902Y-145299400D01*
X185094899Y-145299404D01*
X185005871Y-145443739D01*
X185005866Y-145443750D01*
X184952521Y-145604735D01*
X184942370Y-145704092D01*
X105625727Y-145704092D01*
X105625727Y-142808929D01*
X128879670Y-142808929D01*
X128879670Y-143021502D01*
X128912923Y-143231455D01*
X128978614Y-143433630D01*
X129075121Y-143623036D01*
X129200060Y-143795002D01*
X129350383Y-143945325D01*
X129522349Y-144070264D01*
X129522351Y-144070265D01*
X129522354Y-144070267D01*
X129711758Y-144166773D01*
X129913927Y-144232462D01*
X130123883Y-144265716D01*
X130123884Y-144265716D01*
X130336456Y-144265716D01*
X130336457Y-144265716D01*
X130546413Y-144232462D01*
X130748582Y-144166773D01*
X130937986Y-144070267D01*
X130959959Y-144054302D01*
X131109956Y-143945325D01*
X131109958Y-143945322D01*
X131109962Y-143945320D01*
X131260274Y-143795008D01*
X131260276Y-143795004D01*
X131260279Y-143795002D01*
X131385218Y-143623036D01*
X131385217Y-143623036D01*
X131385221Y-143623032D01*
X131481727Y-143433628D01*
X131547416Y-143231459D01*
X131580670Y-143021503D01*
X131580670Y-142808929D01*
X178879670Y-142808929D01*
X178879670Y-143021502D01*
X178912923Y-143231455D01*
X178978614Y-143433630D01*
X179075121Y-143623036D01*
X179200060Y-143795002D01*
X179350383Y-143945325D01*
X179522349Y-144070264D01*
X179522351Y-144070265D01*
X179522354Y-144070267D01*
X179711758Y-144166773D01*
X179913927Y-144232462D01*
X180123883Y-144265716D01*
X180123884Y-144265716D01*
X180336456Y-144265716D01*
X180336457Y-144265716D01*
X180546413Y-144232462D01*
X180748582Y-144166773D01*
X180937986Y-144070267D01*
X180959959Y-144054302D01*
X181109956Y-143945325D01*
X181109958Y-143945322D01*
X181109962Y-143945320D01*
X181260274Y-143795008D01*
X181260276Y-143795004D01*
X181260279Y-143795002D01*
X181385218Y-143623036D01*
X181385217Y-143623036D01*
X181385221Y-143623032D01*
X181481727Y-143433628D01*
X181547416Y-143231459D01*
X181580670Y-143021503D01*
X181580670Y-142808929D01*
X181547416Y-142598973D01*
X181481727Y-142396804D01*
X181385221Y-142207400D01*
X181385219Y-142207397D01*
X181385218Y-142207395D01*
X181260279Y-142035429D01*
X181109956Y-141885106D01*
X180937990Y-141760167D01*
X180748584Y-141663660D01*
X180748583Y-141663659D01*
X180748582Y-141663659D01*
X180546413Y-141597970D01*
X180546411Y-141597969D01*
X180546410Y-141597969D01*
X180385127Y-141572424D01*
X180336457Y-141564716D01*
X180123883Y-141564716D01*
X180075212Y-141572424D01*
X179913930Y-141597969D01*
X179711755Y-141663660D01*
X179522349Y-141760167D01*
X179350383Y-141885106D01*
X179200060Y-142035429D01*
X179075121Y-142207395D01*
X178978614Y-142396801D01*
X178912923Y-142598976D01*
X178879670Y-142808929D01*
X131580670Y-142808929D01*
X131547416Y-142598973D01*
X131481727Y-142396804D01*
X131385221Y-142207400D01*
X131385219Y-142207397D01*
X131385218Y-142207395D01*
X131260279Y-142035429D01*
X131109956Y-141885106D01*
X130937990Y-141760167D01*
X130748584Y-141663660D01*
X130748583Y-141663659D01*
X130748582Y-141663659D01*
X130546413Y-141597970D01*
X130546411Y-141597969D01*
X130546410Y-141597969D01*
X130385127Y-141572424D01*
X130336457Y-141564716D01*
X130123883Y-141564716D01*
X130075212Y-141572424D01*
X129913930Y-141597969D01*
X129711755Y-141663660D01*
X129522349Y-141760167D01*
X129350383Y-141885106D01*
X129200060Y-142035429D01*
X129075121Y-142207395D01*
X128978614Y-142396801D01*
X128912923Y-142598976D01*
X128879670Y-142808929D01*
X105625727Y-142808929D01*
X105625727Y-140252772D01*
X134910157Y-140252772D01*
X134910157Y-140252783D01*
X134930683Y-140500507D01*
X134930685Y-140500516D01*
X134991710Y-140741495D01*
X135091564Y-140969142D01*
X135191862Y-141122660D01*
X135891510Y-140423012D01*
X135902780Y-140465070D01*
X135975188Y-140590486D01*
X136077590Y-140692888D01*
X136203006Y-140765296D01*
X136245063Y-140776565D01*
X135545240Y-141476387D01*
X135592066Y-141512833D01*
X135592068Y-141512834D01*
X135810683Y-141631142D01*
X135810694Y-141631147D01*
X136045804Y-141711861D01*
X136291005Y-141752778D01*
X136539591Y-141752778D01*
X136784791Y-141711861D01*
X137019901Y-141631147D01*
X137019912Y-141631142D01*
X137238526Y-141512835D01*
X137238529Y-141512833D01*
X137285354Y-141476387D01*
X136585532Y-140776565D01*
X136627590Y-140765296D01*
X136753006Y-140692888D01*
X136855408Y-140590486D01*
X136927816Y-140465070D01*
X136939085Y-140423013D01*
X137638732Y-141122660D01*
X137739029Y-140969147D01*
X137838885Y-140741495D01*
X137899910Y-140500516D01*
X137899912Y-140500507D01*
X137920439Y-140252783D01*
X137920439Y-140252772D01*
X141410157Y-140252772D01*
X141410157Y-140252783D01*
X141430683Y-140500507D01*
X141430685Y-140500516D01*
X141491710Y-140741495D01*
X141591564Y-140969142D01*
X141691862Y-141122660D01*
X142391510Y-140423012D01*
X142402780Y-140465070D01*
X142475188Y-140590486D01*
X142577590Y-140692888D01*
X142703006Y-140765296D01*
X142745063Y-140776565D01*
X142045240Y-141476387D01*
X142092066Y-141512833D01*
X142092068Y-141512834D01*
X142310683Y-141631142D01*
X142310694Y-141631147D01*
X142545804Y-141711861D01*
X142791005Y-141752778D01*
X143039591Y-141752778D01*
X143284791Y-141711861D01*
X143519901Y-141631147D01*
X143519912Y-141631142D01*
X143738526Y-141512835D01*
X143738529Y-141512833D01*
X143785354Y-141476387D01*
X143085532Y-140776565D01*
X143127590Y-140765296D01*
X143253006Y-140692888D01*
X143355408Y-140590486D01*
X143427816Y-140465070D01*
X143439085Y-140423013D01*
X144138732Y-141122660D01*
X144239029Y-140969147D01*
X144338885Y-140741495D01*
X144399910Y-140500516D01*
X144399912Y-140500507D01*
X144420439Y-140252783D01*
X144420439Y-140252772D01*
X166416647Y-140252772D01*
X166416647Y-140252783D01*
X166437173Y-140500507D01*
X166437175Y-140500516D01*
X166498200Y-140741495D01*
X166598054Y-140969142D01*
X166698352Y-141122660D01*
X167398000Y-140423012D01*
X167409270Y-140465070D01*
X167481678Y-140590486D01*
X167584080Y-140692888D01*
X167709496Y-140765296D01*
X167751553Y-140776565D01*
X167051730Y-141476387D01*
X167098556Y-141512833D01*
X167098558Y-141512834D01*
X167317173Y-141631142D01*
X167317184Y-141631147D01*
X167552294Y-141711861D01*
X167797495Y-141752778D01*
X168046081Y-141752778D01*
X168291281Y-141711861D01*
X168526391Y-141631147D01*
X168526402Y-141631142D01*
X168745016Y-141512835D01*
X168745019Y-141512833D01*
X168791844Y-141476387D01*
X168092022Y-140776565D01*
X168134080Y-140765296D01*
X168259496Y-140692888D01*
X168361898Y-140590486D01*
X168434306Y-140465070D01*
X168445575Y-140423013D01*
X169145222Y-141122660D01*
X169245519Y-140969147D01*
X169345375Y-140741495D01*
X169406400Y-140500516D01*
X169406402Y-140500507D01*
X169426929Y-140252783D01*
X169426929Y-140252772D01*
X172916647Y-140252772D01*
X172916647Y-140252783D01*
X172937173Y-140500507D01*
X172937175Y-140500516D01*
X172998200Y-140741495D01*
X173098054Y-140969142D01*
X173198352Y-141122660D01*
X173898000Y-140423012D01*
X173909270Y-140465070D01*
X173981678Y-140590486D01*
X174084080Y-140692888D01*
X174209496Y-140765296D01*
X174251553Y-140776565D01*
X173551730Y-141476387D01*
X173598556Y-141512833D01*
X173598558Y-141512834D01*
X173817173Y-141631142D01*
X173817184Y-141631147D01*
X174052294Y-141711861D01*
X174297495Y-141752778D01*
X174546081Y-141752778D01*
X174791281Y-141711861D01*
X175026391Y-141631147D01*
X175026402Y-141631142D01*
X175245016Y-141512835D01*
X175245019Y-141512833D01*
X175291844Y-141476387D01*
X174592022Y-140776565D01*
X174634080Y-140765296D01*
X174759496Y-140692888D01*
X174861898Y-140590486D01*
X174934306Y-140465070D01*
X174945575Y-140423013D01*
X175645222Y-141122660D01*
X175745519Y-140969147D01*
X175845375Y-140741495D01*
X175906400Y-140500516D01*
X175906402Y-140500507D01*
X175926929Y-140252783D01*
X175926929Y-140252772D01*
X175906402Y-140005048D01*
X175906400Y-140005039D01*
X175845375Y-139764060D01*
X175745519Y-139536408D01*
X175645222Y-139382894D01*
X174945575Y-140082542D01*
X174934306Y-140040486D01*
X174861898Y-139915070D01*
X174759496Y-139812668D01*
X174634080Y-139740260D01*
X174592023Y-139728990D01*
X175291845Y-139029168D01*
X175291844Y-139029167D01*
X175245017Y-138992721D01*
X175026402Y-138874413D01*
X175026391Y-138874408D01*
X174791281Y-138793694D01*
X174546081Y-138752778D01*
X174297495Y-138752778D01*
X174052294Y-138793694D01*
X173817184Y-138874408D01*
X173817178Y-138874410D01*
X173598549Y-138992727D01*
X173551730Y-139029166D01*
X173551730Y-139029168D01*
X174251553Y-139728990D01*
X174209496Y-139740260D01*
X174084080Y-139812668D01*
X173981678Y-139915070D01*
X173909270Y-140040486D01*
X173898000Y-140082542D01*
X173198352Y-139382894D01*
X173098055Y-139536410D01*
X172998200Y-139764060D01*
X172937175Y-140005039D01*
X172937173Y-140005048D01*
X172916647Y-140252772D01*
X169426929Y-140252772D01*
X169406402Y-140005048D01*
X169406400Y-140005039D01*
X169345375Y-139764060D01*
X169245519Y-139536408D01*
X169145222Y-139382894D01*
X168445575Y-140082542D01*
X168434306Y-140040486D01*
X168361898Y-139915070D01*
X168259496Y-139812668D01*
X168134080Y-139740260D01*
X168092023Y-139728990D01*
X168791845Y-139029168D01*
X168791844Y-139029167D01*
X168745017Y-138992721D01*
X168526402Y-138874413D01*
X168526391Y-138874408D01*
X168291281Y-138793694D01*
X168046081Y-138752778D01*
X167797495Y-138752778D01*
X167552294Y-138793694D01*
X167317184Y-138874408D01*
X167317178Y-138874410D01*
X167098549Y-138992727D01*
X167051730Y-139029166D01*
X167051730Y-139029168D01*
X167751553Y-139728990D01*
X167709496Y-139740260D01*
X167584080Y-139812668D01*
X167481678Y-139915070D01*
X167409270Y-140040486D01*
X167398000Y-140082542D01*
X166698352Y-139382894D01*
X166598055Y-139536410D01*
X166498200Y-139764060D01*
X166437175Y-140005039D01*
X166437173Y-140005048D01*
X166416647Y-140252772D01*
X144420439Y-140252772D01*
X144399912Y-140005048D01*
X144399910Y-140005039D01*
X144338885Y-139764060D01*
X144239029Y-139536408D01*
X144138732Y-139382894D01*
X143439085Y-140082542D01*
X143427816Y-140040486D01*
X143355408Y-139915070D01*
X143253006Y-139812668D01*
X143127590Y-139740260D01*
X143085533Y-139728990D01*
X143785355Y-139029168D01*
X143785354Y-139029167D01*
X143738527Y-138992721D01*
X143519912Y-138874413D01*
X143519901Y-138874408D01*
X143284791Y-138793694D01*
X143039591Y-138752778D01*
X142791005Y-138752778D01*
X142545804Y-138793694D01*
X142310694Y-138874408D01*
X142310688Y-138874410D01*
X142092059Y-138992727D01*
X142045240Y-139029166D01*
X142045240Y-139029168D01*
X142745063Y-139728990D01*
X142703006Y-139740260D01*
X142577590Y-139812668D01*
X142475188Y-139915070D01*
X142402780Y-140040486D01*
X142391510Y-140082542D01*
X141691862Y-139382894D01*
X141591565Y-139536410D01*
X141491710Y-139764060D01*
X141430685Y-140005039D01*
X141430683Y-140005048D01*
X141410157Y-140252772D01*
X137920439Y-140252772D01*
X137899912Y-140005048D01*
X137899910Y-140005039D01*
X137838885Y-139764060D01*
X137739029Y-139536408D01*
X137638732Y-139382894D01*
X136939085Y-140082542D01*
X136927816Y-140040486D01*
X136855408Y-139915070D01*
X136753006Y-139812668D01*
X136627590Y-139740260D01*
X136585533Y-139728990D01*
X137285355Y-139029168D01*
X137285354Y-139029167D01*
X137238527Y-138992721D01*
X137019912Y-138874413D01*
X137019901Y-138874408D01*
X136784791Y-138793694D01*
X136539591Y-138752778D01*
X136291005Y-138752778D01*
X136045804Y-138793694D01*
X135810694Y-138874408D01*
X135810688Y-138874410D01*
X135592059Y-138992727D01*
X135545240Y-139029166D01*
X135545240Y-139029168D01*
X136245063Y-139728990D01*
X136203006Y-139740260D01*
X136077590Y-139812668D01*
X135975188Y-139915070D01*
X135902780Y-140040486D01*
X135891510Y-140082542D01*
X135191862Y-139382894D01*
X135091565Y-139536410D01*
X134991710Y-139764060D01*
X134930685Y-140005039D01*
X134930683Y-140005048D01*
X134910157Y-140252772D01*
X105625727Y-140252772D01*
X105625727Y-135752772D01*
X134909655Y-135752772D01*
X134909655Y-135752783D01*
X134930188Y-136000590D01*
X134930190Y-136000602D01*
X134991234Y-136241659D01*
X135091124Y-136469384D01*
X135227131Y-136677560D01*
X135227134Y-136677563D01*
X135395554Y-136860516D01*
X135591789Y-137013252D01*
X135810488Y-137131606D01*
X136045684Y-137212349D01*
X136290963Y-137253278D01*
X136539633Y-137253278D01*
X136784912Y-137212349D01*
X137020108Y-137131606D01*
X137238807Y-137013252D01*
X137435042Y-136860516D01*
X137603462Y-136677563D01*
X137739471Y-136469385D01*
X137739473Y-136469381D01*
X137746893Y-136452467D01*
X137791849Y-136398981D01*
X137858585Y-136378292D01*
X137860448Y-136378278D01*
X141470148Y-136378278D01*
X141537187Y-136397963D01*
X141582942Y-136450767D01*
X141583703Y-136452467D01*
X141591122Y-136469381D01*
X141727131Y-136677560D01*
X141727134Y-136677563D01*
X141895554Y-136860516D01*
X142091789Y-137013252D01*
X142310488Y-137131606D01*
X142545684Y-137212349D01*
X142790963Y-137253278D01*
X143039633Y-137253278D01*
X143284912Y-137212349D01*
X143520108Y-137131606D01*
X143738807Y-137013252D01*
X143935042Y-136860516D01*
X144103462Y-136677563D01*
X144239471Y-136469385D01*
X144339361Y-136241659D01*
X144400406Y-136000599D01*
X144400407Y-136000590D01*
X144420941Y-135752783D01*
X144420941Y-135752772D01*
X144400407Y-135504965D01*
X144400405Y-135504953D01*
X144339361Y-135263896D01*
X144239471Y-135036171D01*
X144103464Y-134827995D01*
X143997132Y-134712488D01*
X143935042Y-134645040D01*
X143738807Y-134492304D01*
X143738805Y-134492303D01*
X143738804Y-134492302D01*
X143520109Y-134373950D01*
X143520100Y-134373947D01*
X143284914Y-134293207D01*
X143039633Y-134252278D01*
X142790963Y-134252278D01*
X142545684Y-134293206D01*
X142466009Y-134320558D01*
X142396210Y-134323707D01*
X142338067Y-134290957D01*
X141831046Y-133783936D01*
X141797561Y-133722613D01*
X141794727Y-133696255D01*
X141794727Y-133546221D01*
X141814412Y-133479182D01*
X141853628Y-133440684D01*
X141950383Y-133381006D01*
X142074439Y-133256950D01*
X142166541Y-133107628D01*
X142221726Y-132941091D01*
X142232227Y-132838303D01*
X142232226Y-131488286D01*
X142228449Y-131451316D01*
X142221726Y-131385497D01*
X142221725Y-131385494D01*
X142166541Y-131218960D01*
X142074439Y-131069638D01*
X141950383Y-130945582D01*
X141801061Y-130853480D01*
X141634524Y-130798295D01*
X141634522Y-130798294D01*
X141531737Y-130787794D01*
X140806725Y-130787794D01*
X140806707Y-130787795D01*
X140703930Y-130798294D01*
X140703927Y-130798295D01*
X140537395Y-130853479D01*
X140537390Y-130853481D01*
X140388069Y-130945583D01*
X140264016Y-131069636D01*
X140171914Y-131218957D01*
X140171913Y-131218960D01*
X140116728Y-131385497D01*
X140116728Y-131385498D01*
X140116727Y-131385498D01*
X140106227Y-131488277D01*
X140106227Y-132838295D01*
X140106228Y-132838312D01*
X140116727Y-132941090D01*
X140116728Y-132941093D01*
X140171912Y-133107625D01*
X140171913Y-133107628D01*
X140264015Y-133256950D01*
X140388071Y-133381006D01*
X140484824Y-133440683D01*
X140531548Y-133492629D01*
X140543727Y-133546221D01*
X140543727Y-134068317D01*
X140567762Y-134189151D01*
X140567765Y-134189161D01*
X140581574Y-134222499D01*
X140581574Y-134222500D01*
X140614912Y-134302988D01*
X140614915Y-134302993D01*
X140642358Y-134344063D01*
X140642359Y-134344066D01*
X140642360Y-134344066D01*
X140683368Y-134405440D01*
X140774813Y-134496885D01*
X140774835Y-134496905D01*
X141193527Y-134915597D01*
X141227012Y-134976920D01*
X141222028Y-135046612D01*
X141180156Y-135102545D01*
X141114692Y-135126962D01*
X141105846Y-135127278D01*
X137860448Y-135127278D01*
X137793409Y-135107593D01*
X137747654Y-135054789D01*
X137746893Y-135053089D01*
X137739473Y-135036174D01*
X137603464Y-134827995D01*
X137497132Y-134712488D01*
X137435042Y-134645040D01*
X137238807Y-134492304D01*
X137238805Y-134492303D01*
X137238804Y-134492302D01*
X137020109Y-134373950D01*
X137020100Y-134373947D01*
X136784914Y-134293207D01*
X136539633Y-134252278D01*
X136290963Y-134252278D01*
X136045681Y-134293207D01*
X135810495Y-134373947D01*
X135810486Y-134373950D01*
X135591791Y-134492302D01*
X135395555Y-134645039D01*
X135227131Y-134827995D01*
X135091124Y-135036171D01*
X134991234Y-135263896D01*
X134930190Y-135504953D01*
X134930188Y-135504965D01*
X134909655Y-135752772D01*
X105625727Y-135752772D01*
X105625727Y-131488277D01*
X137181227Y-131488277D01*
X137181227Y-132838295D01*
X137181228Y-132838312D01*
X137191727Y-132941090D01*
X137191728Y-132941093D01*
X137246912Y-133107625D01*
X137246913Y-133107628D01*
X137339015Y-133256950D01*
X137463071Y-133381006D01*
X137612393Y-133473108D01*
X137778930Y-133528293D01*
X137881718Y-133538794D01*
X138606735Y-133538793D01*
X138606743Y-133538792D01*
X138606746Y-133538792D01*
X138663029Y-133533042D01*
X138709524Y-133528293D01*
X138876061Y-133473108D01*
X139025383Y-133381006D01*
X139149439Y-133256950D01*
X139241541Y-133107628D01*
X139296726Y-132941091D01*
X139307227Y-132838303D01*
X139307226Y-131488286D01*
X139303449Y-131451316D01*
X139296726Y-131385497D01*
X139296725Y-131385494D01*
X139241541Y-131218960D01*
X139149439Y-131069638D01*
X139143728Y-131063927D01*
X139110243Y-131002604D01*
X139115227Y-130932912D01*
X139157099Y-130876979D01*
X139180973Y-130862967D01*
X139335045Y-130794369D01*
X139488186Y-130683106D01*
X139614848Y-130542434D01*
X139709494Y-130378502D01*
X139767989Y-130198474D01*
X139787775Y-130010218D01*
X139767989Y-129821962D01*
X139709494Y-129641934D01*
X139614848Y-129478002D01*
X139488186Y-129337330D01*
X139399386Y-129272813D01*
X139335049Y-129226069D01*
X139335044Y-129226066D01*
X139162122Y-129149075D01*
X139162117Y-129149073D01*
X139016316Y-129118083D01*
X138976961Y-129109718D01*
X138787669Y-129109718D01*
X138755212Y-129116616D01*
X138602512Y-129149073D01*
X138602507Y-129149075D01*
X138429585Y-129226066D01*
X138429580Y-129226069D01*
X138276444Y-129337329D01*
X138149781Y-129478003D01*
X138055136Y-129641933D01*
X138055134Y-129641937D01*
X137999794Y-129812257D01*
X137969544Y-129861619D01*
X137661276Y-130169887D01*
X137612039Y-130243577D01*
X137579148Y-130292802D01*
X137579141Y-130292814D01*
X137522569Y-130429392D01*
X137522567Y-130429398D01*
X137493727Y-130574385D01*
X137493727Y-130863564D01*
X137474042Y-130930603D01*
X137457408Y-130951245D01*
X137339016Y-131069636D01*
X137246914Y-131218957D01*
X137246913Y-131218960D01*
X137191728Y-131385497D01*
X137191728Y-131385498D01*
X137191727Y-131385498D01*
X137181227Y-131488277D01*
X105625727Y-131488277D01*
X105625727Y-123678460D01*
X121833057Y-123678460D01*
X121843550Y-123781171D01*
X121898697Y-123947593D01*
X121898699Y-123947598D01*
X121990740Y-124096819D01*
X122114710Y-124220789D01*
X122263931Y-124312830D01*
X122263936Y-124312832D01*
X122430358Y-124367979D01*
X122430365Y-124367980D01*
X122533075Y-124378473D01*
X122645555Y-124378473D01*
X123145556Y-124378473D01*
X123258028Y-124378473D01*
X123258042Y-124378472D01*
X123360753Y-124367979D01*
X123527175Y-124312832D01*
X123527180Y-124312830D01*
X123676401Y-124220789D01*
X123800371Y-124096819D01*
X123892412Y-123947598D01*
X123892414Y-123947593D01*
X123947561Y-123781171D01*
X123947562Y-123781164D01*
X123958055Y-123678460D01*
X123958056Y-123678447D01*
X123958056Y-123253474D01*
X123145556Y-123253474D01*
X123145556Y-124378473D01*
X122645555Y-124378473D01*
X122645556Y-124378472D01*
X122645556Y-123253474D01*
X121833057Y-123253474D01*
X121833057Y-123678460D01*
X105625727Y-123678460D01*
X105625727Y-114618729D01*
X111059891Y-114618729D01*
X111059891Y-114618730D01*
X111080486Y-114854133D01*
X111080488Y-114854143D01*
X111141644Y-115082385D01*
X111141646Y-115082389D01*
X111141647Y-115082393D01*
X111217113Y-115244230D01*
X111241515Y-115296560D01*
X111241517Y-115296564D01*
X111333406Y-115427794D01*
X111377051Y-115490126D01*
X111377056Y-115490132D01*
X111544147Y-115657223D01*
X111544153Y-115657228D01*
X111729708Y-115787155D01*
X111773333Y-115841732D01*
X111780527Y-115911230D01*
X111749004Y-115973585D01*
X111729708Y-115990305D01*
X111544147Y-116120235D01*
X111377055Y-116287327D01*
X111241515Y-116480899D01*
X111241514Y-116480901D01*
X111141648Y-116695065D01*
X111141644Y-116695074D01*
X111080488Y-116923316D01*
X111080486Y-116923326D01*
X111059891Y-117158729D01*
X111059891Y-117158730D01*
X111080486Y-117394133D01*
X111080488Y-117394143D01*
X111141644Y-117622385D01*
X111141646Y-117622389D01*
X111141647Y-117622393D01*
X111193908Y-117734466D01*
X111241515Y-117836560D01*
X111241517Y-117836564D01*
X111301849Y-117922726D01*
X111377051Y-118030126D01*
X111377056Y-118030132D01*
X111544147Y-118197223D01*
X111544153Y-118197228D01*
X111729708Y-118327155D01*
X111773333Y-118381732D01*
X111780527Y-118451230D01*
X111749004Y-118513585D01*
X111729708Y-118530305D01*
X111544147Y-118660235D01*
X111377055Y-118827327D01*
X111241515Y-119020899D01*
X111241514Y-119020901D01*
X111141648Y-119235065D01*
X111141644Y-119235074D01*
X111080488Y-119463316D01*
X111080486Y-119463326D01*
X111059891Y-119698729D01*
X111059891Y-119698730D01*
X111080486Y-119934133D01*
X111080488Y-119934143D01*
X111141644Y-120162385D01*
X111141646Y-120162389D01*
X111141647Y-120162393D01*
X111143100Y-120165508D01*
X111241515Y-120376560D01*
X111241517Y-120376564D01*
X111349831Y-120531251D01*
X111377051Y-120570126D01*
X111377056Y-120570132D01*
X111499368Y-120692444D01*
X111532853Y-120753767D01*
X111527869Y-120823459D01*
X111485997Y-120879392D01*
X111455021Y-120896307D01*
X111323462Y-120945376D01*
X111323456Y-120945379D01*
X111208362Y-121031539D01*
X111208359Y-121031542D01*
X111122199Y-121146636D01*
X111122195Y-121146643D01*
X111071953Y-121281350D01*
X111071951Y-121281357D01*
X111065550Y-121340885D01*
X111065550Y-121988730D01*
X111982538Y-121988730D01*
X111949625Y-122045737D01*
X111915550Y-122172904D01*
X111915550Y-122304556D01*
X111949625Y-122431723D01*
X111982538Y-122488730D01*
X111065550Y-122488730D01*
X111065550Y-123136574D01*
X111071951Y-123196102D01*
X111071953Y-123196109D01*
X111122195Y-123330816D01*
X111122199Y-123330823D01*
X111208359Y-123445917D01*
X111208362Y-123445920D01*
X111323456Y-123532080D01*
X111323463Y-123532084D01*
X111458170Y-123582326D01*
X111458177Y-123582328D01*
X111517705Y-123588729D01*
X111517722Y-123588730D01*
X112165550Y-123588730D01*
X112165550Y-122671742D01*
X112222557Y-122704655D01*
X112349724Y-122738730D01*
X112481376Y-122738730D01*
X112608543Y-122704655D01*
X112665550Y-122671742D01*
X112665550Y-123588730D01*
X113313378Y-123588730D01*
X113313394Y-123588729D01*
X113372922Y-123582328D01*
X113372929Y-123582326D01*
X113507636Y-123532084D01*
X113507643Y-123532080D01*
X113622737Y-123445920D01*
X113622740Y-123445917D01*
X113708900Y-123330823D01*
X113708904Y-123330816D01*
X113759146Y-123196109D01*
X113759148Y-123196102D01*
X113765549Y-123136574D01*
X113765550Y-123136557D01*
X113765550Y-122488730D01*
X112848562Y-122488730D01*
X112881475Y-122431723D01*
X112915550Y-122304556D01*
X112915550Y-122172904D01*
X112881475Y-122045737D01*
X112848562Y-121988730D01*
X113765550Y-121988730D01*
X113765550Y-121340902D01*
X113765549Y-121340885D01*
X113759148Y-121281357D01*
X113759146Y-121281350D01*
X113708904Y-121146643D01*
X113708900Y-121146636D01*
X113622740Y-121031542D01*
X113622737Y-121031539D01*
X113507643Y-120945379D01*
X113507638Y-120945376D01*
X113376078Y-120896307D01*
X113320145Y-120854435D01*
X113295728Y-120788971D01*
X113310580Y-120720698D01*
X113331725Y-120692450D01*
X113454045Y-120570131D01*
X113589202Y-120377107D01*
X113643779Y-120333482D01*
X113690777Y-120324230D01*
X121655635Y-120324230D01*
X121722674Y-120343915D01*
X121768429Y-120396719D01*
X121779635Y-120448230D01*
X121779635Y-120688015D01*
X121790134Y-120790793D01*
X121790135Y-120790796D01*
X121841358Y-120945376D01*
X121845320Y-120957331D01*
X121937422Y-121106653D01*
X122061478Y-121230709D01*
X122210800Y-121322811D01*
X122377337Y-121377996D01*
X122473621Y-121387832D01*
X122538312Y-121414228D01*
X122578463Y-121471408D01*
X122581327Y-121541219D01*
X122545993Y-121601496D01*
X122483681Y-121633101D01*
X122473621Y-121634548D01*
X122430358Y-121638968D01*
X122263936Y-121694115D01*
X122263931Y-121694117D01*
X122114710Y-121786158D01*
X121990740Y-121910128D01*
X121898699Y-122059349D01*
X121898697Y-122059354D01*
X121843550Y-122225776D01*
X121843549Y-122225783D01*
X121833056Y-122328487D01*
X121833056Y-122753474D01*
X123958055Y-122753474D01*
X123958055Y-122325340D01*
X123959643Y-122325340D01*
X123974345Y-122263425D01*
X124024677Y-122214964D01*
X124093218Y-122201408D01*
X124158209Y-122227060D01*
X124169713Y-122237221D01*
X124721237Y-122788745D01*
X124754722Y-122850068D01*
X124757556Y-122876426D01*
X124757556Y-123678475D01*
X124757557Y-123678493D01*
X124768056Y-123781270D01*
X124768057Y-123781273D01*
X124823241Y-123947805D01*
X124823243Y-123947810D01*
X124834049Y-123965329D01*
X124915344Y-124097130D01*
X125039400Y-124221186D01*
X125188722Y-124313288D01*
X125355259Y-124368473D01*
X125458047Y-124378974D01*
X126183064Y-124378973D01*
X126183072Y-124378972D01*
X126183075Y-124378972D01*
X126239358Y-124373222D01*
X126285853Y-124368473D01*
X126452390Y-124313288D01*
X126601712Y-124221186D01*
X126725768Y-124097130D01*
X126817870Y-123947808D01*
X126873055Y-123781271D01*
X126883556Y-123678483D01*
X126883555Y-122328466D01*
X126873055Y-122225677D01*
X126817870Y-122059140D01*
X126725768Y-121909818D01*
X126601712Y-121785762D01*
X126452390Y-121693660D01*
X126285853Y-121638475D01*
X126285850Y-121638474D01*
X126214567Y-121631192D01*
X126149875Y-121604796D01*
X126109724Y-121547615D01*
X126106861Y-121477804D01*
X126142196Y-121417527D01*
X126204509Y-121385922D01*
X126214569Y-121384476D01*
X126282830Y-121377503D01*
X126449253Y-121322355D01*
X126449258Y-121322353D01*
X126598479Y-121230312D01*
X126722449Y-121106342D01*
X126814490Y-120957121D01*
X126814492Y-120957116D01*
X126869639Y-120790694D01*
X126869640Y-120790687D01*
X126880133Y-120687983D01*
X126880134Y-120687970D01*
X126880134Y-120237997D01*
X125679134Y-120237997D01*
X125612095Y-120218312D01*
X125566340Y-120165508D01*
X125555134Y-120113997D01*
X125555134Y-119737997D01*
X126055134Y-119737997D01*
X126880133Y-119737997D01*
X126880133Y-119288025D01*
X126880132Y-119288010D01*
X126869639Y-119185299D01*
X126814492Y-119018877D01*
X126814490Y-119018872D01*
X126722449Y-118869651D01*
X126598479Y-118745681D01*
X126449258Y-118653640D01*
X126449253Y-118653638D01*
X126282831Y-118598491D01*
X126282824Y-118598490D01*
X126180120Y-118587997D01*
X126055134Y-118587997D01*
X126055134Y-119737997D01*
X125555134Y-119737997D01*
X125555134Y-118587997D01*
X125430161Y-118587997D01*
X125430146Y-118587998D01*
X125327434Y-118598491D01*
X125320548Y-118600773D01*
X125250720Y-118603173D01*
X125190679Y-118567439D01*
X125159489Y-118504918D01*
X125157548Y-118483066D01*
X125157548Y-118420877D01*
X125177233Y-118353838D01*
X125230037Y-118308083D01*
X125253538Y-118301480D01*
X125253267Y-118300406D01*
X125260977Y-118298456D01*
X125260979Y-118298456D01*
X125397601Y-118244579D01*
X125514622Y-118155840D01*
X125603361Y-118038819D01*
X125618842Y-117999561D01*
X125637490Y-117952276D01*
X125680396Y-117897132D01*
X125746304Y-117873939D01*
X125752844Y-117873766D01*
X126836506Y-117873766D01*
X126903545Y-117893451D01*
X126924187Y-117910085D01*
X127151584Y-118137482D01*
X127185069Y-118198805D01*
X127187224Y-118212201D01*
X127194685Y-118283192D01*
X127204872Y-118380110D01*
X127204873Y-118380113D01*
X127263364Y-118560131D01*
X127263367Y-118560138D01*
X127358013Y-118724070D01*
X127423193Y-118796459D01*
X127484675Y-118864742D01*
X127637811Y-118976002D01*
X127637816Y-118976005D01*
X127810738Y-119052996D01*
X127810743Y-119052998D01*
X127995900Y-119092354D01*
X127995901Y-119092354D01*
X128185190Y-119092354D01*
X128185192Y-119092354D01*
X128370349Y-119052998D01*
X128543276Y-118976005D01*
X128696417Y-118864742D01*
X128823079Y-118724070D01*
X128917725Y-118560138D01*
X128976220Y-118380110D01*
X128996006Y-118191854D01*
X128976220Y-118003598D01*
X128917725Y-117823570D01*
X128823079Y-117659638D01*
X128696417Y-117518966D01*
X128696416Y-117518965D01*
X128543280Y-117407705D01*
X128543275Y-117407702D01*
X128370353Y-117330711D01*
X128370348Y-117330709D01*
X128224547Y-117299719D01*
X128185192Y-117291354D01*
X128185191Y-117291354D01*
X128125998Y-117291354D01*
X128058959Y-117271669D01*
X128038317Y-117255035D01*
X127637156Y-116853874D01*
X127637136Y-116853852D01*
X127545691Y-116762407D01*
X127494467Y-116728181D01*
X127454809Y-116701682D01*
X127443244Y-116693954D01*
X127443241Y-116693952D01*
X127443238Y-116693951D01*
X127362750Y-116660613D01*
X127329411Y-116646803D01*
X127319385Y-116644809D01*
X127268987Y-116634784D01*
X127208568Y-116622766D01*
X127208565Y-116622766D01*
X127208564Y-116622766D01*
X125752844Y-116622766D01*
X125685805Y-116603081D01*
X125640050Y-116550277D01*
X125637490Y-116544256D01*
X125606276Y-116465105D01*
X125603361Y-116457713D01*
X125514622Y-116340692D01*
X125444249Y-116287327D01*
X125397603Y-116251954D01*
X125397597Y-116251951D01*
X125260978Y-116198075D01*
X125253267Y-116196126D01*
X125253982Y-116193296D01*
X125202516Y-116171205D01*
X125163404Y-116113309D01*
X125157548Y-116075654D01*
X125157548Y-115610877D01*
X125177233Y-115543838D01*
X125230037Y-115498083D01*
X125253538Y-115491480D01*
X125253267Y-115490406D01*
X125260977Y-115488456D01*
X125260979Y-115488456D01*
X125379744Y-115441621D01*
X134910157Y-115441621D01*
X134910157Y-115441632D01*
X134930683Y-115689356D01*
X134930685Y-115689365D01*
X134991710Y-115930344D01*
X135091564Y-116157991D01*
X135191862Y-116311509D01*
X135891510Y-115611861D01*
X135902780Y-115653919D01*
X135975188Y-115779335D01*
X136077590Y-115881737D01*
X136203006Y-115954145D01*
X136245063Y-115965414D01*
X135545240Y-116665236D01*
X135592066Y-116701682D01*
X135592068Y-116701683D01*
X135810683Y-116819991D01*
X135810694Y-116819996D01*
X136045804Y-116900710D01*
X136291005Y-116941627D01*
X136539591Y-116941627D01*
X136784791Y-116900710D01*
X137019901Y-116819996D01*
X137019912Y-116819991D01*
X137238526Y-116701684D01*
X137238529Y-116701682D01*
X137285354Y-116665236D01*
X136585532Y-115965414D01*
X136627590Y-115954145D01*
X136753006Y-115881737D01*
X136855408Y-115779335D01*
X136927816Y-115653919D01*
X136939085Y-115611862D01*
X137638732Y-116311509D01*
X137739029Y-116157996D01*
X137838885Y-115930344D01*
X137899910Y-115689365D01*
X137899912Y-115689356D01*
X137920439Y-115441632D01*
X137920439Y-115441621D01*
X141410157Y-115441621D01*
X141410157Y-115441632D01*
X141430683Y-115689356D01*
X141430685Y-115689365D01*
X141491710Y-115930344D01*
X141591564Y-116157991D01*
X141691862Y-116311509D01*
X142391510Y-115611861D01*
X142402780Y-115653919D01*
X142475188Y-115779335D01*
X142577590Y-115881737D01*
X142703006Y-115954145D01*
X142745063Y-115965414D01*
X142045240Y-116665236D01*
X142092066Y-116701682D01*
X142092068Y-116701683D01*
X142310683Y-116819991D01*
X142310694Y-116819996D01*
X142545804Y-116900710D01*
X142791005Y-116941627D01*
X143039591Y-116941627D01*
X143284791Y-116900710D01*
X143519901Y-116819996D01*
X143519912Y-116819991D01*
X143738526Y-116701684D01*
X143738529Y-116701682D01*
X143785354Y-116665236D01*
X143085532Y-115965414D01*
X143127590Y-115954145D01*
X143253006Y-115881737D01*
X143355408Y-115779335D01*
X143427816Y-115653919D01*
X143439085Y-115611862D01*
X144138732Y-116311509D01*
X144239029Y-116157996D01*
X144338885Y-115930344D01*
X144399910Y-115689365D01*
X144399912Y-115689356D01*
X144420439Y-115441632D01*
X144420439Y-115441621D01*
X144399912Y-115193897D01*
X144399910Y-115193888D01*
X144338885Y-114952909D01*
X144239029Y-114725257D01*
X144138732Y-114571743D01*
X143439085Y-115271391D01*
X143427816Y-115229335D01*
X143355408Y-115103919D01*
X143253006Y-115001517D01*
X143127590Y-114929109D01*
X143085533Y-114917839D01*
X143785355Y-114218017D01*
X143785354Y-114218016D01*
X143738527Y-114181570D01*
X143519912Y-114063262D01*
X143519901Y-114063257D01*
X143284791Y-113982543D01*
X143039591Y-113941627D01*
X142791005Y-113941627D01*
X142545804Y-113982543D01*
X142310694Y-114063257D01*
X142310688Y-114063259D01*
X142092059Y-114181576D01*
X142045240Y-114218015D01*
X142045240Y-114218017D01*
X142745063Y-114917839D01*
X142703006Y-114929109D01*
X142577590Y-115001517D01*
X142475188Y-115103919D01*
X142402780Y-115229335D01*
X142391510Y-115271391D01*
X141691862Y-114571743D01*
X141591565Y-114725259D01*
X141491710Y-114952909D01*
X141430685Y-115193888D01*
X141430683Y-115193897D01*
X141410157Y-115441621D01*
X137920439Y-115441621D01*
X137899912Y-115193897D01*
X137899910Y-115193888D01*
X137838885Y-114952909D01*
X137739029Y-114725257D01*
X137638732Y-114571743D01*
X136939085Y-115271391D01*
X136927816Y-115229335D01*
X136855408Y-115103919D01*
X136753006Y-115001517D01*
X136627590Y-114929109D01*
X136585533Y-114917839D01*
X137285355Y-114218017D01*
X137285354Y-114218016D01*
X137238527Y-114181570D01*
X137019912Y-114063262D01*
X137019901Y-114063257D01*
X136784791Y-113982543D01*
X136539591Y-113941627D01*
X136291005Y-113941627D01*
X136045804Y-113982543D01*
X135810694Y-114063257D01*
X135810688Y-114063259D01*
X135592059Y-114181576D01*
X135545240Y-114218015D01*
X135545240Y-114218017D01*
X136245063Y-114917839D01*
X136203006Y-114929109D01*
X136077590Y-115001517D01*
X135975188Y-115103919D01*
X135902780Y-115229335D01*
X135891510Y-115271391D01*
X135191862Y-114571743D01*
X135091565Y-114725259D01*
X134991710Y-114952909D01*
X134930685Y-115193888D01*
X134930683Y-115193897D01*
X134910157Y-115441621D01*
X125379744Y-115441621D01*
X125397601Y-115434579D01*
X125514622Y-115345840D01*
X125603361Y-115228819D01*
X125618842Y-115189561D01*
X125637490Y-115142276D01*
X125680396Y-115087132D01*
X125746304Y-115063939D01*
X125752844Y-115063766D01*
X126540022Y-115063766D01*
X126607061Y-115083451D01*
X126632168Y-115104789D01*
X126637479Y-115110688D01*
X126637483Y-115110692D01*
X126637485Y-115110693D01*
X126790615Y-115221948D01*
X126790620Y-115221951D01*
X126963542Y-115298942D01*
X126963547Y-115298944D01*
X127148704Y-115338300D01*
X127148705Y-115338300D01*
X127337994Y-115338300D01*
X127337996Y-115338300D01*
X127523153Y-115298944D01*
X127696080Y-115221951D01*
X127849221Y-115110688D01*
X127975883Y-114970016D01*
X128070529Y-114806084D01*
X128129024Y-114626056D01*
X128148810Y-114437800D01*
X128129024Y-114249544D01*
X128070529Y-114069516D01*
X127975883Y-113905584D01*
X127849221Y-113764912D01*
X127849220Y-113764911D01*
X127696084Y-113653651D01*
X127696079Y-113653648D01*
X127523157Y-113576657D01*
X127523152Y-113576655D01*
X127377351Y-113545665D01*
X127337996Y-113537300D01*
X127148704Y-113537300D01*
X127116247Y-113544198D01*
X126963547Y-113576655D01*
X126963542Y-113576657D01*
X126790620Y-113653648D01*
X126790615Y-113653651D01*
X126637479Y-113764911D01*
X126631333Y-113771738D01*
X126571847Y-113808387D01*
X126539183Y-113812766D01*
X125752844Y-113812766D01*
X125685805Y-113793081D01*
X125640050Y-113740277D01*
X125637490Y-113734256D01*
X125625549Y-113703976D01*
X125619267Y-113634390D01*
X125651604Y-113572453D01*
X125712292Y-113537832D01*
X125740903Y-113534486D01*
X126153006Y-113534486D01*
X126153012Y-113534486D01*
X126255801Y-113523986D01*
X126422338Y-113468801D01*
X126571660Y-113376699D01*
X126695716Y-113252643D01*
X126787818Y-113103321D01*
X126843003Y-112936784D01*
X126853504Y-112833996D01*
X126853503Y-111433979D01*
X126853148Y-111430508D01*
X126843003Y-111331190D01*
X126843002Y-111331187D01*
X126796031Y-111189439D01*
X126787818Y-111164653D01*
X126695716Y-111015331D01*
X126622006Y-110941621D01*
X134909655Y-110941621D01*
X134909655Y-110941632D01*
X134930188Y-111189439D01*
X134930190Y-111189451D01*
X134991234Y-111430508D01*
X135091124Y-111658233D01*
X135227131Y-111866409D01*
X135227134Y-111866412D01*
X135395554Y-112049365D01*
X135591789Y-112202101D01*
X135810488Y-112320455D01*
X136045684Y-112401198D01*
X136290963Y-112442127D01*
X136539633Y-112442127D01*
X136784912Y-112401198D01*
X137020108Y-112320455D01*
X137238807Y-112202101D01*
X137435042Y-112049365D01*
X137603462Y-111866412D01*
X137739471Y-111658234D01*
X137739473Y-111658230D01*
X137746893Y-111641316D01*
X137791849Y-111587830D01*
X137858585Y-111567141D01*
X137860448Y-111567127D01*
X141470148Y-111567127D01*
X141537187Y-111586812D01*
X141582942Y-111639616D01*
X141583703Y-111641316D01*
X141591122Y-111658230D01*
X141727131Y-111866409D01*
X141727134Y-111866412D01*
X141895554Y-112049365D01*
X142091789Y-112202101D01*
X142310488Y-112320455D01*
X142545684Y-112401198D01*
X142790963Y-112442127D01*
X143039633Y-112442127D01*
X143284912Y-112401198D01*
X143520108Y-112320455D01*
X143738807Y-112202101D01*
X143935042Y-112049365D01*
X144103462Y-111866412D01*
X144239471Y-111658234D01*
X144339361Y-111430508D01*
X144400406Y-111189448D01*
X144402443Y-111164867D01*
X144420941Y-110941632D01*
X144420941Y-110941621D01*
X144400407Y-110693814D01*
X144400405Y-110693802D01*
X144339361Y-110452745D01*
X144239471Y-110225020D01*
X144103464Y-110016844D01*
X144081855Y-109993371D01*
X143935042Y-109833889D01*
X143738807Y-109681153D01*
X143738805Y-109681152D01*
X143738804Y-109681151D01*
X143520109Y-109562799D01*
X143520100Y-109562796D01*
X143284914Y-109482056D01*
X143039633Y-109441127D01*
X142790963Y-109441127D01*
X142545684Y-109482055D01*
X142466011Y-109509407D01*
X142396212Y-109512556D01*
X142338068Y-109479806D01*
X142080478Y-109222216D01*
X141820652Y-108962391D01*
X141787168Y-108901069D01*
X141792152Y-108831378D01*
X141802796Y-108809613D01*
X141810347Y-108797373D01*
X141865532Y-108630836D01*
X141876033Y-108528048D01*
X141876032Y-107178031D01*
X141865532Y-107075242D01*
X141810347Y-106908705D01*
X141718245Y-106759383D01*
X141594189Y-106635327D01*
X141451644Y-106547405D01*
X141444869Y-106543226D01*
X141444864Y-106543224D01*
X141443395Y-106542737D01*
X141278330Y-106488040D01*
X141278328Y-106488039D01*
X141175543Y-106477539D01*
X140450531Y-106477539D01*
X140450513Y-106477540D01*
X140347736Y-106488039D01*
X140347733Y-106488040D01*
X140181201Y-106543224D01*
X140181196Y-106543226D01*
X140031875Y-106635328D01*
X139907822Y-106759381D01*
X139815720Y-106908702D01*
X139815718Y-106908707D01*
X139806329Y-106937041D01*
X139760534Y-107075242D01*
X139760534Y-107075243D01*
X139760533Y-107075243D01*
X139750033Y-107178022D01*
X139750033Y-108528040D01*
X139750034Y-108528057D01*
X139760533Y-108630835D01*
X139760534Y-108630838D01*
X139780206Y-108690203D01*
X139815719Y-108797373D01*
X139907821Y-108946695D01*
X140031877Y-109070751D01*
X140181199Y-109162853D01*
X140263680Y-109190184D01*
X140321126Y-109229956D01*
X140326590Y-109237382D01*
X140327172Y-109238091D01*
X140327175Y-109238095D01*
X140414300Y-109325220D01*
X140414302Y-109325221D01*
X140421368Y-109332287D01*
X140421367Y-109332287D01*
X140421371Y-109332290D01*
X141193527Y-110104446D01*
X141227012Y-110165769D01*
X141222028Y-110235461D01*
X141180156Y-110291394D01*
X141114692Y-110315811D01*
X141105846Y-110316127D01*
X137860448Y-110316127D01*
X137793409Y-110296442D01*
X137747654Y-110243638D01*
X137746893Y-110241938D01*
X137739473Y-110225023D01*
X137603464Y-110016844D01*
X137581855Y-109993371D01*
X137435042Y-109833889D01*
X137238807Y-109681153D01*
X137238805Y-109681152D01*
X137238804Y-109681151D01*
X137020109Y-109562799D01*
X137020100Y-109562796D01*
X136784914Y-109482056D01*
X136539633Y-109441127D01*
X136290963Y-109441127D01*
X136045681Y-109482056D01*
X135810495Y-109562796D01*
X135810486Y-109562799D01*
X135591791Y-109681151D01*
X135395555Y-109833888D01*
X135227131Y-110016844D01*
X135091124Y-110225020D01*
X134991234Y-110452745D01*
X134930190Y-110693802D01*
X134930188Y-110693814D01*
X134909655Y-110941621D01*
X126622006Y-110941621D01*
X126571660Y-110891275D01*
X126566553Y-110886168D01*
X126568439Y-110884281D01*
X126535216Y-110837362D01*
X126528504Y-110797119D01*
X126528504Y-107399357D01*
X126548189Y-107332318D01*
X126560354Y-107316385D01*
X126635277Y-107233175D01*
X126667120Y-107178022D01*
X136825033Y-107178022D01*
X136825033Y-108528040D01*
X136825034Y-108528057D01*
X136835533Y-108630835D01*
X136835534Y-108630838D01*
X136855206Y-108690203D01*
X136890719Y-108797373D01*
X136982821Y-108946695D01*
X137106877Y-109070751D01*
X137256199Y-109162853D01*
X137422736Y-109218038D01*
X137525524Y-109228539D01*
X138250541Y-109228538D01*
X138250549Y-109228537D01*
X138250552Y-109228537D01*
X138312430Y-109222216D01*
X138353330Y-109218038D01*
X138519867Y-109162853D01*
X138669189Y-109070751D01*
X138793245Y-108946695D01*
X138885347Y-108797373D01*
X138940532Y-108630836D01*
X138951033Y-108528048D01*
X138951032Y-107178031D01*
X138940532Y-107075242D01*
X138930242Y-107044192D01*
X138927841Y-106974367D01*
X138963572Y-106914324D01*
X138997506Y-106891914D01*
X139070369Y-106859474D01*
X139223510Y-106748211D01*
X139350172Y-106607539D01*
X139444818Y-106443607D01*
X139503313Y-106263579D01*
X139523099Y-106075323D01*
X139503313Y-105887067D01*
X139444818Y-105707039D01*
X139350172Y-105543107D01*
X139223510Y-105402435D01*
X139223509Y-105402434D01*
X139070373Y-105291174D01*
X139070368Y-105291171D01*
X138897446Y-105214180D01*
X138897441Y-105214178D01*
X138751640Y-105183188D01*
X138712285Y-105174823D01*
X138522993Y-105174823D01*
X138490536Y-105181721D01*
X138337836Y-105214178D01*
X138337831Y-105214180D01*
X138164909Y-105291171D01*
X138164904Y-105291174D01*
X138011768Y-105402434D01*
X137885105Y-105543108D01*
X137790460Y-105707038D01*
X137790457Y-105707045D01*
X137735118Y-105877362D01*
X137704868Y-105926725D01*
X137305078Y-106326515D01*
X137274003Y-106373026D01*
X137274001Y-106373029D01*
X137222948Y-106449434D01*
X137174700Y-106565917D01*
X137130859Y-106620320D01*
X137125238Y-106624002D01*
X137106875Y-106635328D01*
X136982822Y-106759381D01*
X136890720Y-106908702D01*
X136890718Y-106908707D01*
X136881329Y-106937041D01*
X136835534Y-107075242D01*
X136835534Y-107075243D01*
X136835533Y-107075243D01*
X136825033Y-107178022D01*
X126667120Y-107178022D01*
X126729923Y-107069243D01*
X126788418Y-106889215D01*
X126808204Y-106700959D01*
X126788418Y-106512703D01*
X126729923Y-106332675D01*
X126635277Y-106168743D01*
X126508615Y-106028071D01*
X126508614Y-106028070D01*
X126355478Y-105916810D01*
X126355473Y-105916807D01*
X126182551Y-105839816D01*
X126182546Y-105839814D01*
X126032835Y-105807993D01*
X125997390Y-105800459D01*
X125808098Y-105800459D01*
X125775641Y-105807357D01*
X125622941Y-105839814D01*
X125622936Y-105839816D01*
X125450014Y-105916807D01*
X125450009Y-105916810D01*
X125296873Y-106028070D01*
X125170210Y-106168744D01*
X125075565Y-106332674D01*
X125075562Y-106332681D01*
X125024835Y-106488805D01*
X125017070Y-106512703D01*
X124997284Y-106700959D01*
X125017070Y-106889215D01*
X125017071Y-106889218D01*
X125021435Y-106902649D01*
X125027504Y-106940967D01*
X125027504Y-110797119D01*
X125007819Y-110864158D01*
X124988620Y-110885333D01*
X124989455Y-110886168D01*
X124860293Y-111015329D01*
X124768191Y-111164650D01*
X124768189Y-111164655D01*
X124759973Y-111189451D01*
X124713005Y-111331190D01*
X124713005Y-111331191D01*
X124713004Y-111331191D01*
X124702504Y-111433970D01*
X124702504Y-112273534D01*
X124682819Y-112340573D01*
X124666185Y-112361215D01*
X124133318Y-112894082D01*
X124133315Y-112894085D01*
X124114683Y-112912717D01*
X124053359Y-112946200D01*
X123983667Y-112941214D01*
X123927735Y-112899341D01*
X123903320Y-112833876D01*
X123903004Y-112825033D01*
X123903004Y-112383987D01*
X123078004Y-112383987D01*
X123078004Y-113451370D01*
X123058319Y-113518409D01*
X123052808Y-113526295D01*
X122960736Y-113647710D01*
X122960733Y-113647716D01*
X122906858Y-113784333D01*
X122896546Y-113870203D01*
X122896326Y-113873893D01*
X122895198Y-113873825D01*
X122876863Y-113936269D01*
X122824059Y-113982024D01*
X122772548Y-113993230D01*
X113690777Y-113993230D01*
X113623738Y-113973545D01*
X113589202Y-113940353D01*
X113454044Y-113747327D01*
X113286952Y-113580236D01*
X113286945Y-113580231D01*
X113281839Y-113576656D01*
X113220899Y-113533985D01*
X113093384Y-113444697D01*
X113093380Y-113444695D01*
X113087500Y-113441953D01*
X112879213Y-113344827D01*
X112879209Y-113344826D01*
X112879205Y-113344824D01*
X112650963Y-113283668D01*
X112650953Y-113283666D01*
X112415551Y-113263071D01*
X112415549Y-113263071D01*
X112180146Y-113283666D01*
X112180136Y-113283668D01*
X111951894Y-113344824D01*
X111951885Y-113344828D01*
X111737721Y-113444694D01*
X111737719Y-113444695D01*
X111544147Y-113580235D01*
X111377055Y-113747327D01*
X111241515Y-113940899D01*
X111241514Y-113940901D01*
X111141648Y-114155065D01*
X111141644Y-114155074D01*
X111080488Y-114383316D01*
X111080486Y-114383326D01*
X111059891Y-114618729D01*
X105625727Y-114618729D01*
X105625727Y-112833973D01*
X121753005Y-112833973D01*
X121763498Y-112936684D01*
X121818645Y-113103106D01*
X121818647Y-113103111D01*
X121910688Y-113252332D01*
X122034658Y-113376302D01*
X122183879Y-113468343D01*
X122183884Y-113468345D01*
X122350306Y-113523492D01*
X122350313Y-113523493D01*
X122453023Y-113533986D01*
X122578003Y-113533986D01*
X122578004Y-113533985D01*
X122578004Y-112383987D01*
X121753005Y-112383987D01*
X121753005Y-112833973D01*
X105625727Y-112833973D01*
X105625727Y-111434000D01*
X121753004Y-111434000D01*
X121753004Y-111883987D01*
X122578004Y-111883987D01*
X123078004Y-111883987D01*
X123903003Y-111883987D01*
X123903003Y-111434015D01*
X123903002Y-111434000D01*
X123892509Y-111331289D01*
X123837362Y-111164867D01*
X123837360Y-111164862D01*
X123745319Y-111015641D01*
X123621349Y-110891671D01*
X123472128Y-110799630D01*
X123472123Y-110799628D01*
X123305701Y-110744481D01*
X123305694Y-110744480D01*
X123202990Y-110733987D01*
X123078004Y-110733987D01*
X123078004Y-111883987D01*
X122578004Y-111883987D01*
X122578004Y-110733987D01*
X122453031Y-110733987D01*
X122453016Y-110733988D01*
X122350306Y-110744481D01*
X122183884Y-110799628D01*
X122183879Y-110799630D01*
X122034658Y-110891671D01*
X121910688Y-111015641D01*
X121818647Y-111164862D01*
X121818645Y-111164867D01*
X121763498Y-111331289D01*
X121763497Y-111331296D01*
X121753004Y-111434000D01*
X105625727Y-111434000D01*
X105625727Y-102808929D01*
X128879670Y-102808929D01*
X128879670Y-103021502D01*
X128912923Y-103231455D01*
X128978614Y-103433630D01*
X129075121Y-103623036D01*
X129200060Y-103795002D01*
X129350383Y-103945325D01*
X129522349Y-104070264D01*
X129522351Y-104070265D01*
X129522354Y-104070267D01*
X129711758Y-104166773D01*
X129913927Y-104232462D01*
X130123883Y-104265716D01*
X130123884Y-104265716D01*
X130336456Y-104265716D01*
X130336457Y-104265716D01*
X130546413Y-104232462D01*
X130748582Y-104166773D01*
X130937986Y-104070267D01*
X130959959Y-104054302D01*
X131109956Y-103945325D01*
X131109958Y-103945322D01*
X131109962Y-103945320D01*
X131260274Y-103795008D01*
X131260276Y-103795004D01*
X131260279Y-103795002D01*
X131385218Y-103623036D01*
X131385217Y-103623036D01*
X131385221Y-103623032D01*
X131481727Y-103433628D01*
X131547416Y-103231459D01*
X131580670Y-103021503D01*
X131580670Y-102808929D01*
X131547416Y-102598973D01*
X131481727Y-102396804D01*
X131385221Y-102207400D01*
X131385219Y-102207397D01*
X131385218Y-102207395D01*
X131260279Y-102035429D01*
X131109956Y-101885106D01*
X130937990Y-101760167D01*
X130748584Y-101663660D01*
X130748583Y-101663659D01*
X130748582Y-101663659D01*
X130546413Y-101597970D01*
X130546411Y-101597969D01*
X130546410Y-101597969D01*
X130385127Y-101572424D01*
X130336457Y-101564716D01*
X130123883Y-101564716D01*
X130075212Y-101572424D01*
X129913930Y-101597969D01*
X129711755Y-101663660D01*
X129522349Y-101760167D01*
X129350383Y-101885106D01*
X129200060Y-102035429D01*
X129075121Y-102207395D01*
X128978614Y-102396801D01*
X128912923Y-102598976D01*
X128879670Y-102808929D01*
X105625727Y-102808929D01*
X105625727Y-100042205D01*
X108091250Y-100042205D01*
X108091250Y-100254779D01*
X108097430Y-100293795D01*
X108117893Y-100422999D01*
X108124504Y-100464735D01*
X108162095Y-100580429D01*
X108190194Y-100666906D01*
X108286701Y-100856312D01*
X108411640Y-101028278D01*
X108561963Y-101178601D01*
X108733929Y-101303540D01*
X108733931Y-101303541D01*
X108733934Y-101303543D01*
X108923338Y-101400049D01*
X109125507Y-101465738D01*
X109335463Y-101498992D01*
X109335464Y-101498992D01*
X109548036Y-101498992D01*
X109548037Y-101498992D01*
X109757993Y-101465738D01*
X109960162Y-101400049D01*
X110149566Y-101303543D01*
X110171539Y-101287578D01*
X110321536Y-101178601D01*
X110321538Y-101178598D01*
X110321542Y-101178596D01*
X110342523Y-101157615D01*
X150729639Y-101157615D01*
X150749591Y-101360195D01*
X150808683Y-101554996D01*
X150881282Y-101690817D01*
X151414486Y-101157615D01*
X151414486Y-101157614D01*
X150881282Y-100624411D01*
X150808682Y-100760237D01*
X150749591Y-100955034D01*
X150729639Y-101157615D01*
X110342523Y-101157615D01*
X110471854Y-101028284D01*
X110471856Y-101028280D01*
X110471859Y-101028278D01*
X110596798Y-100856312D01*
X110596797Y-100856312D01*
X110596801Y-100856308D01*
X110693307Y-100666904D01*
X110758996Y-100464735D01*
X110789703Y-100270858D01*
X151234835Y-100270858D01*
X151855870Y-100891893D01*
X151804823Y-100878215D01*
X151731255Y-100878215D01*
X151660195Y-100897256D01*
X151596483Y-100934039D01*
X151544463Y-100986059D01*
X151507680Y-101049771D01*
X151488639Y-101120831D01*
X151488639Y-101194399D01*
X151507680Y-101265459D01*
X151544463Y-101329171D01*
X151596483Y-101381191D01*
X151660195Y-101417974D01*
X151731255Y-101437015D01*
X151804823Y-101437015D01*
X151855867Y-101423337D01*
X151234835Y-102044370D01*
X151370658Y-102116970D01*
X151565460Y-102176062D01*
X151565456Y-102176062D01*
X151768039Y-102196014D01*
X151970619Y-102176062D01*
X152165420Y-102116970D01*
X152210085Y-102093096D01*
X152278488Y-102078854D01*
X152343732Y-102103853D01*
X152385103Y-102160158D01*
X152392539Y-102202454D01*
X152392539Y-109555164D01*
X152372854Y-109622203D01*
X152360689Y-109638136D01*
X152316480Y-109687234D01*
X152316475Y-109687241D01*
X152221831Y-109851171D01*
X152221828Y-109851178D01*
X152163337Y-110031196D01*
X152163336Y-110031200D01*
X152143550Y-110219456D01*
X152163336Y-110407712D01*
X152163337Y-110407715D01*
X152221828Y-110587733D01*
X152221831Y-110587740D01*
X152316477Y-110751672D01*
X152332249Y-110769188D01*
X152443139Y-110892344D01*
X152596275Y-111003604D01*
X152596280Y-111003607D01*
X152769202Y-111080598D01*
X152769207Y-111080600D01*
X152954364Y-111119956D01*
X152954365Y-111119956D01*
X153143654Y-111119956D01*
X153143656Y-111119956D01*
X153328813Y-111080600D01*
X153468104Y-111018582D01*
X153537352Y-111009298D01*
X153600629Y-111038925D01*
X153637843Y-111098060D01*
X153642539Y-111131862D01*
X153642539Y-134313574D01*
X153622854Y-134380613D01*
X153610689Y-134396546D01*
X153555734Y-134457579D01*
X153461089Y-134621510D01*
X153461086Y-134621517D01*
X153402595Y-134801535D01*
X153402594Y-134801539D01*
X153382808Y-134989795D01*
X153402594Y-135178051D01*
X153402595Y-135178054D01*
X153461086Y-135358072D01*
X153461089Y-135358079D01*
X153555735Y-135522011D01*
X153650084Y-135626796D01*
X153682397Y-135662683D01*
X153835533Y-135773943D01*
X153835538Y-135773946D01*
X154008460Y-135850937D01*
X154008465Y-135850939D01*
X154193622Y-135890295D01*
X154193623Y-135890295D01*
X154382912Y-135890295D01*
X154382914Y-135890295D01*
X154568071Y-135850939D01*
X154740998Y-135773946D01*
X154894139Y-135662683D01*
X154894142Y-135662678D01*
X154898969Y-135658334D01*
X154899962Y-135659437D01*
X154952922Y-135626796D01*
X155022779Y-135628114D01*
X155058492Y-135646093D01*
X155111894Y-135684892D01*
X155111899Y-135684895D01*
X155284821Y-135761886D01*
X155284826Y-135761888D01*
X155469983Y-135801244D01*
X155469984Y-135801244D01*
X155659273Y-135801244D01*
X155659275Y-135801244D01*
X155844432Y-135761888D01*
X155864907Y-135752772D01*
X166416145Y-135752772D01*
X166416145Y-135752783D01*
X166436678Y-136000590D01*
X166436680Y-136000602D01*
X166497724Y-136241659D01*
X166597614Y-136469384D01*
X166733621Y-136677560D01*
X166733624Y-136677563D01*
X166902044Y-136860516D01*
X167098279Y-137013252D01*
X167316978Y-137131606D01*
X167552174Y-137212349D01*
X167797453Y-137253278D01*
X168046123Y-137253278D01*
X168291402Y-137212349D01*
X168526598Y-137131606D01*
X168745297Y-137013252D01*
X168941532Y-136860516D01*
X169109952Y-136677563D01*
X169245961Y-136469385D01*
X169245963Y-136469381D01*
X169253383Y-136452467D01*
X169298339Y-136398981D01*
X169365075Y-136378292D01*
X169366938Y-136378278D01*
X172976638Y-136378278D01*
X173043677Y-136397963D01*
X173089432Y-136450767D01*
X173090193Y-136452467D01*
X173097612Y-136469381D01*
X173233621Y-136677560D01*
X173233624Y-136677563D01*
X173402044Y-136860516D01*
X173598279Y-137013252D01*
X173816978Y-137131606D01*
X174052174Y-137212349D01*
X174297453Y-137253278D01*
X174546123Y-137253278D01*
X174791402Y-137212349D01*
X175026598Y-137131606D01*
X175245297Y-137013252D01*
X175441532Y-136860516D01*
X175609952Y-136677563D01*
X175745961Y-136469385D01*
X175845851Y-136241659D01*
X175906896Y-136000599D01*
X175906897Y-136000590D01*
X175927431Y-135752783D01*
X175927431Y-135752772D01*
X175906897Y-135504965D01*
X175906895Y-135504953D01*
X175845851Y-135263896D01*
X175745961Y-135036171D01*
X175609954Y-134827995D01*
X175503622Y-134712488D01*
X175441532Y-134645040D01*
X175245297Y-134492304D01*
X175245295Y-134492303D01*
X175245294Y-134492302D01*
X175026599Y-134373950D01*
X175026590Y-134373947D01*
X174791404Y-134293207D01*
X174546123Y-134252278D01*
X174297453Y-134252278D01*
X174052171Y-134293207D01*
X173816985Y-134373947D01*
X173816976Y-134373950D01*
X173598281Y-134492302D01*
X173402045Y-134645039D01*
X173233621Y-134827995D01*
X173097612Y-135036174D01*
X173090193Y-135053089D01*
X173045237Y-135106575D01*
X172978501Y-135127264D01*
X172976638Y-135127278D01*
X169731241Y-135127278D01*
X169664202Y-135107593D01*
X169618447Y-135054789D01*
X169608503Y-134985631D01*
X169637528Y-134922075D01*
X169643560Y-134915597D01*
X169771871Y-134787285D01*
X170359111Y-134200044D01*
X170407783Y-134170022D01*
X170540243Y-134126130D01*
X170689565Y-134034028D01*
X170813621Y-133909972D01*
X170905723Y-133760650D01*
X170960908Y-133594113D01*
X170971409Y-133491325D01*
X170971408Y-132141308D01*
X170960908Y-132038519D01*
X170905723Y-131871982D01*
X170813621Y-131722660D01*
X170689565Y-131598604D01*
X170540243Y-131506502D01*
X170373706Y-131451317D01*
X170373704Y-131451316D01*
X170270919Y-131440816D01*
X169545907Y-131440816D01*
X169545889Y-131440817D01*
X169443112Y-131451316D01*
X169443109Y-131451317D01*
X169276577Y-131506501D01*
X169276572Y-131506503D01*
X169127251Y-131598605D01*
X169003198Y-131722658D01*
X168911096Y-131871979D01*
X168911095Y-131871982D01*
X168855910Y-132038519D01*
X168855910Y-132038520D01*
X168855909Y-132038520D01*
X168845409Y-132141299D01*
X168845409Y-133491317D01*
X168845410Y-133491334D01*
X168855909Y-133594112D01*
X168855910Y-133594115D01*
X168911096Y-133760653D01*
X168912005Y-133762602D01*
X168912227Y-133764064D01*
X168913367Y-133767505D01*
X168912778Y-133767699D01*
X168922489Y-133831681D01*
X168893963Y-133895462D01*
X168887298Y-133902676D01*
X168499016Y-134290957D01*
X168437693Y-134324442D01*
X168371072Y-134320557D01*
X168291404Y-134293207D01*
X168046123Y-134252278D01*
X167797453Y-134252278D01*
X167552171Y-134293207D01*
X167316985Y-134373947D01*
X167316976Y-134373950D01*
X167098281Y-134492302D01*
X166902045Y-134645039D01*
X166733621Y-134827995D01*
X166597614Y-135036171D01*
X166497724Y-135263896D01*
X166436680Y-135504953D01*
X166436678Y-135504965D01*
X166416145Y-135752772D01*
X155864907Y-135752772D01*
X156017359Y-135684895D01*
X156170500Y-135573632D01*
X156297162Y-135432960D01*
X156391808Y-135269028D01*
X156450303Y-135089000D01*
X156470089Y-134900744D01*
X156450303Y-134712488D01*
X156391808Y-134532460D01*
X156297162Y-134368528D01*
X156192490Y-134252278D01*
X156175389Y-134233285D01*
X156145159Y-134170293D01*
X156143539Y-134150313D01*
X156143539Y-130054120D01*
X171109716Y-130054120D01*
X171129502Y-130242376D01*
X171129503Y-130242379D01*
X171187994Y-130422397D01*
X171187997Y-130422404D01*
X171282643Y-130586336D01*
X171409305Y-130727008D01*
X171562441Y-130838268D01*
X171562446Y-130838271D01*
X171735367Y-130915262D01*
X171735370Y-130915262D01*
X171735373Y-130915264D01*
X171769397Y-130922495D01*
X171800505Y-130929108D01*
X171861987Y-130962300D01*
X171862406Y-130962717D01*
X172046590Y-131146901D01*
X172080075Y-131208224D01*
X172082909Y-131234582D01*
X172082909Y-131516586D01*
X172063224Y-131583625D01*
X172046590Y-131604267D01*
X171928198Y-131722658D01*
X171836096Y-131871979D01*
X171836095Y-131871982D01*
X171780910Y-132038519D01*
X171780910Y-132038520D01*
X171780909Y-132038520D01*
X171770409Y-132141299D01*
X171770409Y-133491317D01*
X171770410Y-133491334D01*
X171780909Y-133594112D01*
X171780910Y-133594115D01*
X171823491Y-133722613D01*
X171836095Y-133760650D01*
X171928197Y-133909972D01*
X172052253Y-134034028D01*
X172201575Y-134126130D01*
X172368112Y-134181315D01*
X172470900Y-134191816D01*
X173195917Y-134191815D01*
X173195925Y-134191814D01*
X173195928Y-134191814D01*
X173252211Y-134186064D01*
X173298706Y-134181315D01*
X173465243Y-134126130D01*
X173614565Y-134034028D01*
X173635085Y-134013508D01*
X184781786Y-134013508D01*
X184781786Y-135363526D01*
X184781787Y-135363543D01*
X184792286Y-135466321D01*
X184792287Y-135466324D01*
X184827846Y-135573632D01*
X184847472Y-135632859D01*
X184939574Y-135782181D01*
X185063630Y-135906237D01*
X185212952Y-135998339D01*
X185379489Y-136053524D01*
X185482277Y-136064025D01*
X186183733Y-136064024D01*
X186250772Y-136083708D01*
X186253577Y-136086946D01*
X186302511Y-136055499D01*
X186309374Y-136053759D01*
X186318927Y-136050593D01*
X186476620Y-135998339D01*
X186625942Y-135906237D01*
X186749998Y-135782181D01*
X186842100Y-135632859D01*
X186897285Y-135466322D01*
X186907786Y-135363534D01*
X186907785Y-134013517D01*
X186897285Y-133910728D01*
X186842100Y-133744191D01*
X186749998Y-133594869D01*
X186631605Y-133476476D01*
X186598120Y-133415153D01*
X186595286Y-133388795D01*
X186595286Y-124097520D01*
X189385388Y-124097520D01*
X189385388Y-126725951D01*
X189385389Y-126725966D01*
X189395792Y-126858156D01*
X189395793Y-126858163D01*
X189450790Y-127076421D01*
X189450791Y-127076424D01*
X189543879Y-127281365D01*
X189543885Y-127281375D01*
X189672062Y-127466388D01*
X189672066Y-127466393D01*
X189672069Y-127466397D01*
X189831234Y-127625562D01*
X189831238Y-127625565D01*
X189831242Y-127625568D01*
X189970491Y-127722040D01*
X190016262Y-127753750D01*
X190221205Y-127846839D01*
X190221209Y-127846840D01*
X190439467Y-127901837D01*
X190439469Y-127901837D01*
X190439476Y-127901839D01*
X190571671Y-127912243D01*
X192200104Y-127912242D01*
X192332300Y-127901839D01*
X192550571Y-127846839D01*
X192755514Y-127753750D01*
X192940542Y-127625562D01*
X193099707Y-127466397D01*
X193227895Y-127281369D01*
X193320984Y-127076426D01*
X193375984Y-126858155D01*
X193386388Y-126725960D01*
X193386387Y-124097527D01*
X193375984Y-123965331D01*
X193371514Y-123947593D01*
X193320985Y-123747064D01*
X193320984Y-123747061D01*
X193289839Y-123678493D01*
X193227895Y-123542117D01*
X193196185Y-123496346D01*
X193099713Y-123357097D01*
X193099710Y-123357093D01*
X193099707Y-123357089D01*
X192940542Y-123197924D01*
X192940538Y-123197921D01*
X192940533Y-123197917D01*
X192755520Y-123069740D01*
X192755518Y-123069738D01*
X192755514Y-123069736D01*
X192550571Y-122976647D01*
X192550569Y-122976646D01*
X192550566Y-122976645D01*
X192332308Y-122921648D01*
X192332301Y-122921647D01*
X192288235Y-122918179D01*
X192200105Y-122911243D01*
X192200103Y-122911243D01*
X190571679Y-122911243D01*
X190571664Y-122911244D01*
X190439474Y-122921647D01*
X190439467Y-122921648D01*
X190221209Y-122976645D01*
X190221206Y-122976646D01*
X190016265Y-123069734D01*
X190016255Y-123069740D01*
X189831242Y-123197917D01*
X189831230Y-123197927D01*
X189672072Y-123357085D01*
X189672062Y-123357097D01*
X189543885Y-123542110D01*
X189543879Y-123542120D01*
X189450791Y-123747061D01*
X189450790Y-123747064D01*
X189395793Y-123965322D01*
X189395792Y-123965329D01*
X189385388Y-124097520D01*
X186595286Y-124097520D01*
X186595286Y-100070837D01*
X186599821Y-100042205D01*
X199531250Y-100042205D01*
X199531250Y-100254779D01*
X199537430Y-100293795D01*
X199557893Y-100422999D01*
X199564504Y-100464735D01*
X199602095Y-100580429D01*
X199630194Y-100666906D01*
X199726701Y-100856312D01*
X199851640Y-101028278D01*
X200001963Y-101178601D01*
X200173929Y-101303540D01*
X200173931Y-101303541D01*
X200173934Y-101303543D01*
X200363338Y-101400049D01*
X200565507Y-101465738D01*
X200775463Y-101498992D01*
X200775464Y-101498992D01*
X200988036Y-101498992D01*
X200988037Y-101498992D01*
X201197993Y-101465738D01*
X201400162Y-101400049D01*
X201589566Y-101303543D01*
X201611539Y-101287578D01*
X201761536Y-101178601D01*
X201761538Y-101178598D01*
X201761542Y-101178596D01*
X201911854Y-101028284D01*
X201911856Y-101028280D01*
X201911859Y-101028278D01*
X202036798Y-100856312D01*
X202036797Y-100856312D01*
X202036801Y-100856308D01*
X202133307Y-100666904D01*
X202198996Y-100464735D01*
X202232250Y-100254779D01*
X202232250Y-100042205D01*
X202198996Y-99832249D01*
X202133307Y-99630080D01*
X202036801Y-99440676D01*
X202036799Y-99440673D01*
X202036798Y-99440671D01*
X201911859Y-99268705D01*
X201761536Y-99118382D01*
X201589570Y-98993443D01*
X201400164Y-98896936D01*
X201400163Y-98896935D01*
X201400162Y-98896935D01*
X201197993Y-98831246D01*
X201197991Y-98831245D01*
X201197990Y-98831245D01*
X201036707Y-98805700D01*
X200988037Y-98797992D01*
X200775463Y-98797992D01*
X200726792Y-98805700D01*
X200565510Y-98831245D01*
X200363335Y-98896936D01*
X200173929Y-98993443D01*
X200001963Y-99118382D01*
X199851640Y-99268705D01*
X199726701Y-99440671D01*
X199630194Y-99630077D01*
X199564503Y-99832252D01*
X199532784Y-100032519D01*
X199531250Y-100042205D01*
X186599821Y-100042205D01*
X186601355Y-100032519D01*
X186603068Y-100027246D01*
X186626711Y-99954482D01*
X186646497Y-99766226D01*
X186626711Y-99577970D01*
X186568216Y-99397942D01*
X186473570Y-99234010D01*
X186346908Y-99093338D01*
X186346907Y-99093337D01*
X186193771Y-98982077D01*
X186193766Y-98982074D01*
X186020844Y-98905083D01*
X186020839Y-98905081D01*
X185875038Y-98874091D01*
X185835683Y-98865726D01*
X185646391Y-98865726D01*
X185613934Y-98872624D01*
X185461234Y-98905081D01*
X185461229Y-98905083D01*
X185288307Y-98982074D01*
X185288302Y-98982077D01*
X185135166Y-99093337D01*
X185008503Y-99234011D01*
X184913858Y-99397941D01*
X184913855Y-99397948D01*
X184855364Y-99577966D01*
X184855363Y-99577970D01*
X184835577Y-99766226D01*
X184855363Y-99954482D01*
X184855364Y-99954485D01*
X184913855Y-100134503D01*
X184913858Y-100134510D01*
X185008501Y-100298438D01*
X185008502Y-100298440D01*
X185008504Y-100298442D01*
X185062437Y-100358340D01*
X185092666Y-100421330D01*
X185094286Y-100441311D01*
X185094286Y-133388795D01*
X185074601Y-133455834D01*
X185057967Y-133476476D01*
X184939575Y-133594867D01*
X184847473Y-133744188D01*
X184847471Y-133744193D01*
X184839746Y-133767505D01*
X184792287Y-133910728D01*
X184792287Y-133910729D01*
X184792286Y-133910729D01*
X184781786Y-134013508D01*
X173635085Y-134013508D01*
X173738621Y-133909972D01*
X173830723Y-133760650D01*
X173885908Y-133594113D01*
X173896409Y-133491325D01*
X173896408Y-132141308D01*
X173885908Y-132038519D01*
X173830723Y-131871982D01*
X173738621Y-131722660D01*
X173620228Y-131604267D01*
X173586743Y-131542944D01*
X173583909Y-131516586D01*
X173583909Y-130798432D01*
X173555068Y-130653445D01*
X173555067Y-130653444D01*
X173555067Y-130653440D01*
X173522323Y-130574388D01*
X173498496Y-130516864D01*
X173498489Y-130516851D01*
X173416361Y-130393938D01*
X173400918Y-130378495D01*
X173311825Y-130289402D01*
X172927946Y-129905522D01*
X172897697Y-129856161D01*
X172842355Y-129685836D01*
X172747709Y-129521904D01*
X172621047Y-129381232D01*
X172621046Y-129381231D01*
X172467910Y-129269971D01*
X172467905Y-129269968D01*
X172294983Y-129192977D01*
X172294978Y-129192975D01*
X172149177Y-129161985D01*
X172109822Y-129153620D01*
X171920530Y-129153620D01*
X171888073Y-129160518D01*
X171735373Y-129192975D01*
X171735368Y-129192977D01*
X171562446Y-129269968D01*
X171562441Y-129269971D01*
X171409305Y-129381231D01*
X171282642Y-129521905D01*
X171187997Y-129685835D01*
X171187994Y-129685842D01*
X171132655Y-129856159D01*
X171129502Y-129865864D01*
X171109716Y-130054120D01*
X156143539Y-130054120D01*
X156143539Y-111044874D01*
X156163224Y-110977835D01*
X156216028Y-110932080D01*
X156285186Y-110922136D01*
X156340423Y-110944555D01*
X156380840Y-110973920D01*
X156380841Y-110973921D01*
X156553763Y-111050912D01*
X156553768Y-111050914D01*
X156738925Y-111090270D01*
X156738926Y-111090270D01*
X156928215Y-111090270D01*
X156928217Y-111090270D01*
X157113374Y-111050914D01*
X157218103Y-111004284D01*
X157287352Y-110995000D01*
X157350629Y-111024628D01*
X157387843Y-111083762D01*
X157392539Y-111117564D01*
X157392539Y-112417103D01*
X157372854Y-112484142D01*
X157360689Y-112500075D01*
X157317909Y-112547586D01*
X157317904Y-112547593D01*
X157223260Y-112711523D01*
X157223257Y-112711530D01*
X157164766Y-112891548D01*
X157164765Y-112891552D01*
X157144979Y-113079808D01*
X157164765Y-113268064D01*
X157164766Y-113268067D01*
X157223257Y-113448085D01*
X157223260Y-113448092D01*
X157317906Y-113612024D01*
X157400700Y-113703976D01*
X157444568Y-113752696D01*
X157597704Y-113863956D01*
X157597709Y-113863959D01*
X157770631Y-113940950D01*
X157770636Y-113940952D01*
X157955793Y-113980308D01*
X157955794Y-113980308D01*
X158145083Y-113980308D01*
X158145085Y-113980308D01*
X158330242Y-113940952D01*
X158503169Y-113863959D01*
X158506571Y-113861486D01*
X158524205Y-113848676D01*
X158590011Y-113825196D01*
X158658065Y-113841021D01*
X158706760Y-113891127D01*
X158721090Y-113948994D01*
X158721090Y-116291010D01*
X158701405Y-116358049D01*
X158689240Y-116373982D01*
X158614056Y-116457482D01*
X158519411Y-116621413D01*
X158519408Y-116621420D01*
X158461880Y-116798474D01*
X158460916Y-116801442D01*
X158441130Y-116989698D01*
X158460916Y-117177954D01*
X158460917Y-117177957D01*
X158519408Y-117357975D01*
X158519411Y-117357982D01*
X158614057Y-117521914D01*
X158643351Y-117554448D01*
X158740719Y-117662586D01*
X158893855Y-117773846D01*
X158893860Y-117773849D01*
X159066782Y-117850840D01*
X159066787Y-117850842D01*
X159251944Y-117890198D01*
X159251945Y-117890198D01*
X159441234Y-117890198D01*
X159441236Y-117890198D01*
X159626393Y-117850842D01*
X159799320Y-117773849D01*
X159952461Y-117662586D01*
X160079123Y-117521914D01*
X160173769Y-117357982D01*
X160232264Y-117177954D01*
X160252050Y-116989698D01*
X160232264Y-116801442D01*
X160173769Y-116621414D01*
X160079123Y-116457482D01*
X160003940Y-116373982D01*
X159973710Y-116310990D01*
X159972090Y-116291010D01*
X159972090Y-102239620D01*
X159991775Y-102172581D01*
X160044579Y-102126826D01*
X160113737Y-102116882D01*
X160132082Y-102120959D01*
X160315359Y-102176556D01*
X160518039Y-102196518D01*
X160720719Y-102176556D01*
X160857544Y-102135049D01*
X160927410Y-102134426D01*
X160986523Y-102171673D01*
X161016114Y-102234967D01*
X161017539Y-102253710D01*
X161017539Y-104502099D01*
X161000926Y-104564099D01*
X160940860Y-104668136D01*
X160882366Y-104848162D01*
X160882365Y-104848166D01*
X160862579Y-105036422D01*
X160882365Y-105224678D01*
X160882366Y-105224681D01*
X160940857Y-105404699D01*
X160940860Y-105404706D01*
X160952216Y-105424376D01*
X161000926Y-105508743D01*
X161017539Y-105570743D01*
X161017539Y-127949748D01*
X161000926Y-128011748D01*
X160982661Y-128043383D01*
X160924167Y-128223409D01*
X160924166Y-128223413D01*
X160904380Y-128411669D01*
X160924166Y-128599925D01*
X160924167Y-128599928D01*
X160982658Y-128779946D01*
X160982661Y-128779953D01*
X161077307Y-128943885D01*
X161203969Y-129084557D01*
X161357105Y-129195817D01*
X161357110Y-129195820D01*
X161530032Y-129272811D01*
X161530037Y-129272813D01*
X161715194Y-129312169D01*
X161715195Y-129312169D01*
X161904484Y-129312169D01*
X161904486Y-129312169D01*
X162089643Y-129272813D01*
X162262570Y-129195820D01*
X162415711Y-129084557D01*
X162542373Y-128943885D01*
X162637019Y-128779953D01*
X162695514Y-128599925D01*
X162715300Y-128411669D01*
X162695514Y-128223413D01*
X162637019Y-128043385D01*
X162542373Y-127879453D01*
X162542372Y-127879451D01*
X162542221Y-127879243D01*
X162542170Y-127879102D01*
X162539124Y-127873825D01*
X162540089Y-127873267D01*
X162518741Y-127813437D01*
X162518539Y-127806358D01*
X162518539Y-118863498D01*
X162538224Y-118796459D01*
X162591028Y-118750704D01*
X162660186Y-118740760D01*
X162692975Y-118750219D01*
X162732465Y-118767801D01*
X162768556Y-118783870D01*
X162953713Y-118823226D01*
X162953714Y-118823226D01*
X163143003Y-118823226D01*
X163143005Y-118823226D01*
X163328162Y-118783870D01*
X163501089Y-118706877D01*
X163654230Y-118595614D01*
X163780892Y-118454942D01*
X163875538Y-118291010D01*
X163934033Y-118110982D01*
X163953819Y-117922726D01*
X163934033Y-117734470D01*
X163875538Y-117554442D01*
X163785151Y-117397888D01*
X163768539Y-117335889D01*
X163768539Y-115441621D01*
X166416647Y-115441621D01*
X166416647Y-115441632D01*
X166437173Y-115689356D01*
X166437175Y-115689365D01*
X166498200Y-115930344D01*
X166598054Y-116157991D01*
X166698352Y-116311509D01*
X167398000Y-115611861D01*
X167409270Y-115653919D01*
X167481678Y-115779335D01*
X167584080Y-115881737D01*
X167709496Y-115954145D01*
X167751553Y-115965414D01*
X167051730Y-116665236D01*
X167098556Y-116701682D01*
X167098558Y-116701683D01*
X167317173Y-116819991D01*
X167317184Y-116819996D01*
X167552294Y-116900710D01*
X167797495Y-116941627D01*
X168046081Y-116941627D01*
X168291281Y-116900710D01*
X168526391Y-116819996D01*
X168526402Y-116819991D01*
X168745016Y-116701684D01*
X168745019Y-116701682D01*
X168791844Y-116665236D01*
X168092022Y-115965414D01*
X168134080Y-115954145D01*
X168259496Y-115881737D01*
X168361898Y-115779335D01*
X168434306Y-115653919D01*
X168445575Y-115611862D01*
X169145222Y-116311509D01*
X169245519Y-116157996D01*
X169345375Y-115930344D01*
X169406400Y-115689365D01*
X169406402Y-115689356D01*
X169426929Y-115441632D01*
X169426929Y-115441621D01*
X172916647Y-115441621D01*
X172916647Y-115441632D01*
X172937173Y-115689356D01*
X172937175Y-115689365D01*
X172998200Y-115930344D01*
X173098054Y-116157991D01*
X173198352Y-116311509D01*
X173898000Y-115611861D01*
X173909270Y-115653919D01*
X173981678Y-115779335D01*
X174084080Y-115881737D01*
X174209496Y-115954145D01*
X174251553Y-115965414D01*
X173551730Y-116665236D01*
X173598556Y-116701682D01*
X173598558Y-116701683D01*
X173817173Y-116819991D01*
X173817184Y-116819996D01*
X174052294Y-116900710D01*
X174297495Y-116941627D01*
X174546081Y-116941627D01*
X174791281Y-116900710D01*
X175026391Y-116819996D01*
X175026402Y-116819991D01*
X175245016Y-116701684D01*
X175245019Y-116701682D01*
X175291844Y-116665236D01*
X174592022Y-115965414D01*
X174634080Y-115954145D01*
X174759496Y-115881737D01*
X174861898Y-115779335D01*
X174934306Y-115653919D01*
X174945575Y-115611862D01*
X175645222Y-116311509D01*
X175745519Y-116157996D01*
X175845375Y-115930344D01*
X175906400Y-115689365D01*
X175906402Y-115689356D01*
X175926929Y-115441632D01*
X175926929Y-115441621D01*
X175906402Y-115193897D01*
X175906400Y-115193888D01*
X175845375Y-114952909D01*
X175745519Y-114725257D01*
X175645222Y-114571743D01*
X174945575Y-115271391D01*
X174934306Y-115229335D01*
X174861898Y-115103919D01*
X174759496Y-115001517D01*
X174634080Y-114929109D01*
X174592023Y-114917839D01*
X175291845Y-114218017D01*
X175291844Y-114218016D01*
X175245017Y-114181570D01*
X175026402Y-114063262D01*
X175026391Y-114063257D01*
X174791281Y-113982543D01*
X174546081Y-113941627D01*
X174297495Y-113941627D01*
X174052294Y-113982543D01*
X173817184Y-114063257D01*
X173817178Y-114063259D01*
X173598549Y-114181576D01*
X173551730Y-114218015D01*
X173551730Y-114218017D01*
X174251553Y-114917839D01*
X174209496Y-114929109D01*
X174084080Y-115001517D01*
X173981678Y-115103919D01*
X173909270Y-115229335D01*
X173898000Y-115271391D01*
X173198352Y-114571743D01*
X173098055Y-114725259D01*
X172998200Y-114952909D01*
X172937175Y-115193888D01*
X172937173Y-115193897D01*
X172916647Y-115441621D01*
X169426929Y-115441621D01*
X169406402Y-115193897D01*
X169406400Y-115193888D01*
X169345375Y-114952909D01*
X169245519Y-114725257D01*
X169145222Y-114571743D01*
X168445575Y-115271391D01*
X168434306Y-115229335D01*
X168361898Y-115103919D01*
X168259496Y-115001517D01*
X168134080Y-114929109D01*
X168092023Y-114917839D01*
X168791845Y-114218017D01*
X168791844Y-114218016D01*
X168745017Y-114181570D01*
X168526402Y-114063262D01*
X168526391Y-114063257D01*
X168291281Y-113982543D01*
X168046081Y-113941627D01*
X167797495Y-113941627D01*
X167552294Y-113982543D01*
X167317184Y-114063257D01*
X167317178Y-114063259D01*
X167098549Y-114181576D01*
X167051730Y-114218015D01*
X167051730Y-114218017D01*
X167751553Y-114917839D01*
X167709496Y-114929109D01*
X167584080Y-115001517D01*
X167481678Y-115103919D01*
X167409270Y-115229335D01*
X167398000Y-115271391D01*
X166698352Y-114571743D01*
X166598055Y-114725259D01*
X166498200Y-114952909D01*
X166437175Y-115193888D01*
X166437173Y-115193897D01*
X166416647Y-115441621D01*
X163768539Y-115441621D01*
X163768539Y-110941621D01*
X166416145Y-110941621D01*
X166416145Y-110941632D01*
X166436678Y-111189439D01*
X166436680Y-111189451D01*
X166497724Y-111430508D01*
X166597614Y-111658233D01*
X166733621Y-111866409D01*
X166733624Y-111866412D01*
X166902044Y-112049365D01*
X167098279Y-112202101D01*
X167316978Y-112320455D01*
X167552174Y-112401198D01*
X167797453Y-112442127D01*
X168046123Y-112442127D01*
X168291402Y-112401198D01*
X168526598Y-112320455D01*
X168745297Y-112202101D01*
X168941532Y-112049365D01*
X169109952Y-111866412D01*
X169245961Y-111658234D01*
X169245963Y-111658230D01*
X169253383Y-111641316D01*
X169298339Y-111587830D01*
X169365075Y-111567141D01*
X169366938Y-111567127D01*
X172976638Y-111567127D01*
X173043677Y-111586812D01*
X173089432Y-111639616D01*
X173090193Y-111641316D01*
X173097612Y-111658230D01*
X173233621Y-111866409D01*
X173233624Y-111866412D01*
X173402044Y-112049365D01*
X173598279Y-112202101D01*
X173816978Y-112320455D01*
X174052174Y-112401198D01*
X174297453Y-112442127D01*
X174546123Y-112442127D01*
X174791402Y-112401198D01*
X175026598Y-112320455D01*
X175245297Y-112202101D01*
X175441532Y-112049365D01*
X175609952Y-111866412D01*
X175745961Y-111658234D01*
X175845851Y-111430508D01*
X175906896Y-111189448D01*
X175908933Y-111164867D01*
X175927431Y-110941632D01*
X175927431Y-110941621D01*
X175906897Y-110693814D01*
X175906895Y-110693802D01*
X175845851Y-110452745D01*
X175745961Y-110225020D01*
X175609954Y-110016844D01*
X175588345Y-109993371D01*
X175441532Y-109833889D01*
X175245297Y-109681153D01*
X175245295Y-109681152D01*
X175245294Y-109681151D01*
X175026599Y-109562799D01*
X175026590Y-109562796D01*
X174791404Y-109482056D01*
X174546123Y-109441127D01*
X174297453Y-109441127D01*
X174052171Y-109482056D01*
X173816985Y-109562796D01*
X173816976Y-109562799D01*
X173598281Y-109681151D01*
X173402045Y-109833888D01*
X173233621Y-110016844D01*
X173097612Y-110225023D01*
X173090193Y-110241938D01*
X173045237Y-110295424D01*
X172978501Y-110316113D01*
X172976638Y-110316127D01*
X169731241Y-110316127D01*
X169664202Y-110296442D01*
X169618447Y-110243638D01*
X169608503Y-110174480D01*
X169637528Y-110110924D01*
X169643560Y-110104446D01*
X170268114Y-109479892D01*
X170294016Y-109441127D01*
X170336568Y-109377444D01*
X170380985Y-109270212D01*
X170424824Y-109215810D01*
X170430413Y-109212150D01*
X170563413Y-109130116D01*
X170687469Y-109006060D01*
X170779571Y-108856738D01*
X170834756Y-108690201D01*
X170845257Y-108587413D01*
X170845256Y-107237396D01*
X170834756Y-107134607D01*
X170779571Y-106968070D01*
X170687469Y-106818748D01*
X170563413Y-106694692D01*
X170422115Y-106607539D01*
X170414093Y-106602591D01*
X170414088Y-106602589D01*
X170407458Y-106600392D01*
X170247554Y-106547405D01*
X170247552Y-106547404D01*
X170144767Y-106536904D01*
X169419755Y-106536904D01*
X169419737Y-106536905D01*
X169316960Y-106547404D01*
X169316957Y-106547405D01*
X169150425Y-106602589D01*
X169150420Y-106602591D01*
X169001099Y-106694693D01*
X168877046Y-106818746D01*
X168784944Y-106968067D01*
X168784942Y-106968072D01*
X168759718Y-107044195D01*
X168729758Y-107134607D01*
X168729758Y-107134608D01*
X168729757Y-107134608D01*
X168719257Y-107237387D01*
X168719257Y-108587405D01*
X168719258Y-108587422D01*
X168729757Y-108690200D01*
X168729758Y-108690203D01*
X168784942Y-108856735D01*
X168784946Y-108856744D01*
X168862089Y-108981814D01*
X168880529Y-109049207D01*
X168859606Y-109115870D01*
X168844231Y-109134591D01*
X168499016Y-109479806D01*
X168437693Y-109513291D01*
X168371072Y-109509406D01*
X168291404Y-109482056D01*
X168046123Y-109441127D01*
X167797453Y-109441127D01*
X167552171Y-109482056D01*
X167316985Y-109562796D01*
X167316976Y-109562799D01*
X167098281Y-109681151D01*
X166902045Y-109833888D01*
X166733621Y-110016844D01*
X166597614Y-110225020D01*
X166497724Y-110452745D01*
X166436680Y-110693802D01*
X166436678Y-110693814D01*
X166416145Y-110941621D01*
X163768539Y-110941621D01*
X163768539Y-105956591D01*
X170984431Y-105956591D01*
X171004217Y-106144847D01*
X171004218Y-106144850D01*
X171062709Y-106324868D01*
X171062712Y-106324875D01*
X171157358Y-106488807D01*
X171284020Y-106629479D01*
X171437156Y-106740739D01*
X171437161Y-106740742D01*
X171610083Y-106817733D01*
X171610088Y-106817735D01*
X171614411Y-106818654D01*
X171675892Y-106851844D01*
X171709671Y-106913006D01*
X171706338Y-106978947D01*
X171654758Y-107134604D01*
X171654757Y-107134608D01*
X171644257Y-107237387D01*
X171644257Y-108587405D01*
X171644258Y-108587422D01*
X171654757Y-108690200D01*
X171654758Y-108690203D01*
X171709942Y-108856735D01*
X171709944Y-108856740D01*
X171732348Y-108893063D01*
X171802045Y-109006060D01*
X171926101Y-109130116D01*
X172075423Y-109222218D01*
X172241960Y-109277403D01*
X172344748Y-109287904D01*
X173069765Y-109287903D01*
X173069773Y-109287902D01*
X173069776Y-109287902D01*
X173126059Y-109282152D01*
X173172554Y-109277403D01*
X173339091Y-109222218D01*
X173488413Y-109130116D01*
X173612469Y-109006060D01*
X173704571Y-108856738D01*
X173759756Y-108690201D01*
X173770257Y-108587413D01*
X173770256Y-107237396D01*
X173759756Y-107134607D01*
X173704571Y-106968070D01*
X173612469Y-106818748D01*
X173488413Y-106694692D01*
X173486574Y-106693238D01*
X173485640Y-106691919D01*
X173483306Y-106689585D01*
X173483704Y-106689186D01*
X173446197Y-106636217D01*
X173441870Y-106620174D01*
X173428915Y-106555044D01*
X173425751Y-106547405D01*
X173372344Y-106418468D01*
X173372337Y-106418455D01*
X173290209Y-106295542D01*
X173258246Y-106263579D01*
X173185673Y-106191006D01*
X172802661Y-105807993D01*
X172772412Y-105758632D01*
X172717070Y-105588307D01*
X172622424Y-105424375D01*
X172495762Y-105283703D01*
X172495761Y-105283702D01*
X172342625Y-105172442D01*
X172342620Y-105172439D01*
X172169698Y-105095448D01*
X172169693Y-105095446D01*
X172023892Y-105064456D01*
X171984537Y-105056091D01*
X171795245Y-105056091D01*
X171762788Y-105062989D01*
X171610088Y-105095446D01*
X171610083Y-105095448D01*
X171437161Y-105172439D01*
X171437156Y-105172442D01*
X171284020Y-105283702D01*
X171157357Y-105424376D01*
X171062712Y-105588306D01*
X171062709Y-105588313D01*
X171024133Y-105707039D01*
X171004217Y-105768335D01*
X170984431Y-105956591D01*
X163768539Y-105956591D01*
X163768539Y-102808929D01*
X178879670Y-102808929D01*
X178879670Y-103021502D01*
X178912923Y-103231455D01*
X178978614Y-103433630D01*
X179075121Y-103623036D01*
X179200060Y-103795002D01*
X179350383Y-103945325D01*
X179522349Y-104070264D01*
X179522351Y-104070265D01*
X179522354Y-104070267D01*
X179711758Y-104166773D01*
X179913927Y-104232462D01*
X180123883Y-104265716D01*
X180123884Y-104265716D01*
X180336456Y-104265716D01*
X180336457Y-104265716D01*
X180546413Y-104232462D01*
X180748582Y-104166773D01*
X180937986Y-104070267D01*
X180959959Y-104054302D01*
X181109956Y-103945325D01*
X181109958Y-103945322D01*
X181109962Y-103945320D01*
X181260274Y-103795008D01*
X181260276Y-103795004D01*
X181260279Y-103795002D01*
X181385218Y-103623036D01*
X181385217Y-103623036D01*
X181385221Y-103623032D01*
X181481727Y-103433628D01*
X181547416Y-103231459D01*
X181580670Y-103021503D01*
X181580670Y-102808929D01*
X181547416Y-102598973D01*
X181481727Y-102396804D01*
X181385221Y-102207400D01*
X181385219Y-102207397D01*
X181385218Y-102207395D01*
X181260279Y-102035429D01*
X181109956Y-101885106D01*
X180937990Y-101760167D01*
X180748584Y-101663660D01*
X180748583Y-101663659D01*
X180748582Y-101663659D01*
X180546413Y-101597970D01*
X180546411Y-101597969D01*
X180546410Y-101597969D01*
X180385127Y-101572424D01*
X180336457Y-101564716D01*
X180123883Y-101564716D01*
X180075212Y-101572424D01*
X179913930Y-101597969D01*
X179711755Y-101663660D01*
X179522349Y-101760167D01*
X179350383Y-101885106D01*
X179200060Y-102035429D01*
X179075121Y-102207395D01*
X178978614Y-102396801D01*
X178912923Y-102598976D01*
X178879670Y-102808929D01*
X163768539Y-102808929D01*
X163768539Y-101917242D01*
X163788224Y-101850203D01*
X163796686Y-101838577D01*
X163861036Y-101760167D01*
X163881855Y-101734799D01*
X163977860Y-101555186D01*
X164036980Y-101360295D01*
X164056942Y-101157615D01*
X164036980Y-100954935D01*
X163977860Y-100760044D01*
X163881855Y-100580431D01*
X163881854Y-100580429D01*
X163752654Y-100422999D01*
X163595224Y-100293799D01*
X163595217Y-100293795D01*
X163415611Y-100197794D01*
X163220721Y-100138674D01*
X163018039Y-100118712D01*
X162815356Y-100138674D01*
X162620466Y-100197794D01*
X162451492Y-100288113D01*
X162383089Y-100302355D01*
X162334586Y-100288113D01*
X162165611Y-100197794D01*
X161970721Y-100138674D01*
X161768039Y-100118712D01*
X161565356Y-100138674D01*
X161370466Y-100197794D01*
X161201492Y-100288113D01*
X161133089Y-100302355D01*
X161084586Y-100288113D01*
X160915611Y-100197794D01*
X160720721Y-100138674D01*
X160518039Y-100118712D01*
X160315356Y-100138674D01*
X160120466Y-100197794D01*
X159951492Y-100288113D01*
X159883089Y-100302355D01*
X159834586Y-100288113D01*
X159665611Y-100197794D01*
X159470721Y-100138674D01*
X159268039Y-100118712D01*
X159065356Y-100138674D01*
X158870466Y-100197794D01*
X158701492Y-100288113D01*
X158633089Y-100302355D01*
X158584586Y-100288113D01*
X158415611Y-100197794D01*
X158220721Y-100138674D01*
X158018039Y-100118712D01*
X157815356Y-100138674D01*
X157620466Y-100197794D01*
X157451492Y-100288113D01*
X157383089Y-100302355D01*
X157334586Y-100288113D01*
X157165611Y-100197794D01*
X156970721Y-100138674D01*
X156768039Y-100118712D01*
X156565356Y-100138674D01*
X156370466Y-100197794D01*
X156201492Y-100288113D01*
X156133089Y-100302355D01*
X156084586Y-100288113D01*
X155915611Y-100197794D01*
X155720721Y-100138674D01*
X155518039Y-100118712D01*
X155315356Y-100138674D01*
X155120466Y-100197794D01*
X154951492Y-100288113D01*
X154883089Y-100302355D01*
X154834586Y-100288113D01*
X154665611Y-100197794D01*
X154470721Y-100138674D01*
X154268039Y-100118712D01*
X154065356Y-100138674D01*
X153870466Y-100197794D01*
X153701492Y-100288113D01*
X153633089Y-100302355D01*
X153584586Y-100288113D01*
X153415611Y-100197794D01*
X153220721Y-100138674D01*
X153018039Y-100118712D01*
X152815356Y-100138674D01*
X152620466Y-100197794D01*
X152450961Y-100288396D01*
X152382558Y-100302638D01*
X152334055Y-100288396D01*
X152165424Y-100198261D01*
X152165421Y-100198260D01*
X151970617Y-100139167D01*
X151970621Y-100139167D01*
X151768039Y-100119215D01*
X151565458Y-100139167D01*
X151370661Y-100198258D01*
X151234835Y-100270858D01*
X110789703Y-100270858D01*
X110792250Y-100254779D01*
X110792250Y-100042205D01*
X110758996Y-99832249D01*
X110693307Y-99630080D01*
X110596801Y-99440676D01*
X110596799Y-99440673D01*
X110596798Y-99440671D01*
X110471859Y-99268705D01*
X110321536Y-99118382D01*
X110149570Y-98993443D01*
X109960164Y-98896936D01*
X109960163Y-98896935D01*
X109960162Y-98896935D01*
X109757993Y-98831246D01*
X109757991Y-98831245D01*
X109757990Y-98831245D01*
X109596707Y-98805700D01*
X109548037Y-98797992D01*
X109335463Y-98797992D01*
X109286792Y-98805700D01*
X109125510Y-98831245D01*
X108923335Y-98896936D01*
X108733929Y-98993443D01*
X108561963Y-99118382D01*
X108411640Y-99268705D01*
X108286701Y-99440671D01*
X108190194Y-99630077D01*
X108124503Y-99832252D01*
X108092784Y-100032519D01*
X108091250Y-100042205D01*
X105625727Y-100042205D01*
X105625727Y-95864727D01*
X105645412Y-95797688D01*
X105698216Y-95751933D01*
X105749727Y-95740727D01*
X205110727Y-95740727D01*
X205177766Y-95760412D01*
G37*
%TD.AperFunction*%
%TD*%
%TA.AperFunction,Conductor*%
%TO.N,GND*%
G36*
X170303478Y-71143148D02*
G01*
X185462331Y-71182317D01*
X185529318Y-71202175D01*
X185574936Y-71255097D01*
X185586009Y-71306317D01*
X185586009Y-81699811D01*
X174008269Y-81699811D01*
X173888760Y-77955183D01*
X173684168Y-77875955D01*
X173730171Y-77815292D01*
X173758576Y-77777834D01*
X173814092Y-77637056D01*
X173824715Y-77548594D01*
X173824715Y-76762390D01*
X173814092Y-76673928D01*
X173758576Y-76533150D01*
X173758575Y-76533149D01*
X173758575Y-76533148D01*
X173667137Y-76412569D01*
X173546558Y-76321131D01*
X173405776Y-76265614D01*
X173360141Y-76260134D01*
X173317317Y-76254992D01*
X170981113Y-76254992D01*
X170942068Y-76259680D01*
X170892653Y-76265614D01*
X170751871Y-76321131D01*
X170631292Y-76412569D01*
X170539854Y-76533148D01*
X170497029Y-76641744D01*
X169253221Y-76160083D01*
X169207297Y-72762390D01*
X170473715Y-72762390D01*
X170473715Y-73548594D01*
X170479341Y-73595446D01*
X170484337Y-73637053D01*
X170539854Y-73777835D01*
X170631292Y-73898414D01*
X170751871Y-73989852D01*
X170751872Y-73989852D01*
X170751873Y-73989853D01*
X170892651Y-74045369D01*
X170981113Y-74055992D01*
X170981118Y-74055992D01*
X173317312Y-74055992D01*
X173317317Y-74055992D01*
X173405779Y-74045369D01*
X173405850Y-74045340D01*
X173405915Y-74045334D01*
X173413483Y-74043422D01*
X173413786Y-74044623D01*
X173475435Y-74039054D01*
X173537373Y-74071387D01*
X173539028Y-74073011D01*
X176768267Y-77302249D01*
X176768288Y-77302272D01*
X176875900Y-77409884D01*
X176997355Y-77491037D01*
X176997361Y-77491041D01*
X177045516Y-77510987D01*
X177132320Y-77546943D01*
X177275587Y-77575440D01*
X177275591Y-77575441D01*
X177275592Y-77575441D01*
X177421670Y-77575441D01*
X179808113Y-77575441D01*
X179875152Y-77595126D01*
X179920907Y-77647930D01*
X179932113Y-77699441D01*
X179932113Y-77815291D01*
X179946969Y-77909096D01*
X180004580Y-78022163D01*
X180004582Y-78022165D01*
X180004584Y-78022168D01*
X180094304Y-78111888D01*
X180094306Y-78111889D01*
X180094310Y-78111893D01*
X180207377Y-78169504D01*
X180207378Y-78169504D01*
X180207380Y-78169505D01*
X180207379Y-78169505D01*
X180301175Y-78184360D01*
X180301181Y-78184361D01*
X182264042Y-78184360D01*
X182357847Y-78169504D01*
X182470914Y-78111893D01*
X182560644Y-78022163D01*
X182618255Y-77909096D01*
X182633112Y-77815292D01*
X182633111Y-75852431D01*
X182618255Y-75758626D01*
X182560644Y-75645559D01*
X182560640Y-75645555D01*
X182560639Y-75645553D01*
X182470919Y-75555833D01*
X182470916Y-75555831D01*
X182470914Y-75555829D01*
X182357847Y-75498218D01*
X182357846Y-75498217D01*
X182357843Y-75498216D01*
X182357844Y-75498216D01*
X182264048Y-75483361D01*
X180301182Y-75483361D01*
X180220202Y-75496186D01*
X180207377Y-75498218D01*
X180094310Y-75555829D01*
X180094309Y-75555830D01*
X180094304Y-75555833D01*
X180004584Y-75645553D01*
X180004581Y-75645558D01*
X179946967Y-75758629D01*
X179932112Y-75852424D01*
X179932112Y-75968281D01*
X179912427Y-76035320D01*
X179859623Y-76081075D01*
X179808112Y-76092281D01*
X177707165Y-76092281D01*
X177640126Y-76072596D01*
X177619484Y-76055962D01*
X174142995Y-72579471D01*
X174142991Y-72579468D01*
X174021538Y-72498315D01*
X174021529Y-72498310D01*
X173942474Y-72465565D01*
X173886573Y-72442410D01*
X173886565Y-72442408D01*
X173743305Y-72413912D01*
X173743301Y-72413912D01*
X173710606Y-72413912D01*
X173643567Y-72394227D01*
X173635691Y-72388723D01*
X173546557Y-72321131D01*
X173546556Y-72321130D01*
X173405776Y-72265614D01*
X173360141Y-72260134D01*
X173317317Y-72254992D01*
X170981113Y-72254992D01*
X170942068Y-72259680D01*
X170892653Y-72265614D01*
X170751871Y-72321131D01*
X170631292Y-72412569D01*
X170539854Y-72533148D01*
X170484337Y-72673930D01*
X170478403Y-72723345D01*
X170473715Y-72762390D01*
X169207297Y-72762390D01*
X169184859Y-71102327D01*
X170303478Y-71143148D01*
G37*
%TD.AperFunction*%
%TD*%
M02*
