%TF.GenerationSoftware,KiCad,Pcbnew,8.0.6*%
%TF.CreationDate,2025-07-11T21:38:47-04:00*%
%TF.ProjectId,receiver,72656365-6976-4657-922e-6b696361645f,rev?*%
%TF.SameCoordinates,Original*%
%TF.FileFunction,Soldermask,Bot*%
%TF.FilePolarity,Negative*%
%FSLAX46Y46*%
G04 Gerber Fmt 4.6, Leading zero omitted, Abs format (unit mm)*
G04 Created by KiCad (PCBNEW 8.0.6) date 2025-07-11 21:38:47*
%MOMM*%
%LPD*%
G01*
G04 APERTURE LIST*
G04 Aperture macros list*
%AMRoundRect*
0 Rectangle with rounded corners*
0 $1 Rounding radius*
0 $2 $3 $4 $5 $6 $7 $8 $9 X,Y pos of 4 corners*
0 Add a 4 corners polygon primitive as box body*
4,1,4,$2,$3,$4,$5,$6,$7,$8,$9,$2,$3,0*
0 Add four circle primitives for the rounded corners*
1,1,$1+$1,$2,$3*
1,1,$1+$1,$4,$5*
1,1,$1+$1,$6,$7*
1,1,$1+$1,$8,$9*
0 Add four rect primitives between the rounded corners*
20,1,$1+$1,$2,$3,$4,$5,0*
20,1,$1+$1,$4,$5,$6,$7,0*
20,1,$1+$1,$6,$7,$8,$9,0*
20,1,$1+$1,$8,$9,$2,$3,0*%
G04 Aperture macros list end*
%ADD10RoundRect,0.038000X-0.900000X0.900000X-0.900000X-0.900000X0.900000X-0.900000X0.900000X0.900000X0*%
%ADD11C,1.876000*%
%ADD12RoundRect,0.769000X-0.769000X1.269000X-0.769000X-1.269000X0.769000X-1.269000X0.769000X1.269000X0*%
%ADD13C,2.276000*%
%ADD14RoundRect,0.038000X0.850000X0.850000X-0.850000X0.850000X-0.850000X-0.850000X0.850000X-0.850000X0*%
%ADD15O,1.776000X1.776000*%
%ADD16C,2.076000*%
%ADD17C,1.142800*%
%ADD18RoundRect,0.038000X-0.850000X0.850000X-0.850000X-0.850000X0.850000X-0.850000X0.850000X0.850000X0*%
%ADD19RoundRect,0.038000X-0.850000X-0.850000X0.850000X-0.850000X0.850000X0.850000X-0.850000X0.850000X0*%
%ADD20RoundRect,0.206712X-0.981288X0.981288X-0.981288X-0.981288X0.981288X-0.981288X0.981288X0.981288X0*%
%ADD21C,2.576000*%
%ADD22RoundRect,0.038000X1.054100X1.054100X-1.054100X1.054100X-1.054100X-1.054100X1.054100X-1.054100X0*%
%ADD23C,2.184200*%
%ADD24RoundRect,0.038000X1.500000X1.500000X-1.500000X1.500000X-1.500000X-1.500000X1.500000X-1.500000X0*%
%ADD25RoundRect,0.266889X-0.333611X-0.646111X0.333611X-0.646111X0.333611X0.646111X-0.333611X0.646111X0*%
%ADD26RoundRect,0.266889X0.333611X0.646111X-0.333611X0.646111X-0.333611X-0.646111X0.333611X-0.646111X0*%
%ADD27RoundRect,0.266521X-0.346479X-0.671479X0.346479X-0.671479X0.346479X0.671479X-0.346479X0.671479X0*%
%ADD28RoundRect,0.059250X-0.177750X0.602750X-0.177750X-0.602750X0.177750X-0.602750X0.177750X0.602750X0*%
%ADD29RoundRect,0.244000X0.244000X0.394000X-0.244000X0.394000X-0.244000X-0.394000X0.244000X-0.394000X0*%
%ADD30RoundRect,0.169000X-0.169000X0.606500X-0.169000X-0.606500X0.169000X-0.606500X0.169000X0.606500X0*%
%ADD31RoundRect,0.266521X0.346479X0.671479X-0.346479X0.671479X-0.346479X-0.671479X0.346479X-0.671479X0*%
%ADD32RoundRect,0.369000X1.144000X0.369000X-1.144000X0.369000X-1.144000X-0.369000X1.144000X-0.369000X0*%
G04 APERTURE END LIST*
D10*
%TO.C,RV1*%
X198285888Y-118411743D03*
D11*
X195785888Y-118411743D03*
X193285888Y-118411743D03*
D12*
X200185888Y-125411743D03*
X191385888Y-125411743D03*
%TD*%
D13*
%TO.C,HOLES1*%
X130867230Y-43980426D03*
X130867230Y-83980426D03*
X180867230Y-43980426D03*
X180867230Y-83980426D03*
%TD*%
D14*
%TO.C,PWR_J1*%
X128108863Y-77282777D03*
D15*
X128108863Y-74742777D03*
%TD*%
D16*
%TO.C,SW3*%
X136415298Y-135752778D03*
X142915298Y-135752778D03*
X136415298Y-140252778D03*
X142915298Y-140252778D03*
%TD*%
%TO.C,SW1*%
X167921788Y-110941627D03*
X174421788Y-110941627D03*
X167921788Y-115441627D03*
X174421788Y-115441627D03*
%TD*%
D13*
%TO.C,HOLES3*%
X109441750Y-100148492D03*
X109441750Y-150948492D03*
X200881750Y-100148492D03*
X200881750Y-150948492D03*
%TD*%
D17*
%TO.C,IF1*%
X164577829Y-44350546D03*
X163327829Y-44350546D03*
X162077829Y-44350546D03*
X160827829Y-44350546D03*
X159577829Y-44350546D03*
X158327829Y-44350546D03*
X157077829Y-44350546D03*
X155827829Y-44350546D03*
X154577829Y-44350546D03*
X153327829Y-44350546D03*
%TD*%
D16*
%TO.C,SW4*%
X136415298Y-110941627D03*
X142915298Y-110941627D03*
X136415298Y-115441627D03*
X142915298Y-115441627D03*
%TD*%
D18*
%TO.C,J3*%
X175428337Y-40927890D03*
D15*
X172888337Y-40927890D03*
%TD*%
D13*
%TO.C,HOLES2*%
X130230170Y-102915216D03*
X130230170Y-142915216D03*
X180230170Y-102915216D03*
X180230170Y-142915216D03*
%TD*%
D16*
%TO.C,SW2*%
X167921788Y-135752778D03*
X174421788Y-135752778D03*
X167921788Y-140252778D03*
X174421788Y-140252778D03*
%TD*%
D19*
%TO.C,J2*%
X183117816Y-48439839D03*
D15*
X183117816Y-50979839D03*
X183117816Y-53519839D03*
X183117816Y-56059839D03*
X183117816Y-58599839D03*
%TD*%
D20*
%TO.C,J1*%
X181282612Y-76833861D03*
D21*
X183822612Y-74293861D03*
X178742612Y-74293861D03*
X183822612Y-79373861D03*
X178742612Y-79373861D03*
%TD*%
D22*
%TO.C,SW5*%
X139561857Y-84915114D03*
D23*
X139561857Y-80216114D03*
X139561857Y-75517114D03*
%TD*%
D17*
%TO.C,IF2*%
X163018039Y-101157615D03*
X161768039Y-101157615D03*
X160518039Y-101157615D03*
X159268039Y-101157615D03*
X158018039Y-101157615D03*
X156768039Y-101157615D03*
X155518039Y-101157615D03*
X154268039Y-101157615D03*
X153018039Y-101157615D03*
X151768039Y-101157615D03*
%TD*%
D24*
%TO.C,BZ1*%
X200487407Y-139324589D03*
X192087407Y-139324589D03*
%TD*%
D25*
%TO.C,BUT_R3*%
X138244227Y-132163294D03*
X141169227Y-132163294D03*
%TD*%
D26*
%TO.C,BUT_R1*%
X172707257Y-107912404D03*
X169782257Y-107912404D03*
%TD*%
%TO.C,BUZ_R1*%
X198161742Y-115422974D03*
X195236742Y-115422974D03*
%TD*%
D25*
%TO.C,BUT_R4*%
X137888033Y-107853039D03*
X140813033Y-107853039D03*
%TD*%
D27*
%TO.C,LLS_C1*%
X122828004Y-112133987D03*
X125778004Y-112133987D03*
%TD*%
D19*
%TO.C,J4*%
X112415550Y-122238730D03*
D15*
X112415550Y-119698730D03*
X112415550Y-117158730D03*
X112415550Y-114618730D03*
%TD*%
D28*
%TO.C,U5*%
X123532048Y-114438266D03*
X124032048Y-114438266D03*
X124532048Y-114438266D03*
X125032048Y-114438266D03*
X125032048Y-117248266D03*
X124532048Y-117248266D03*
X124032048Y-117248266D03*
X123532048Y-117248266D03*
%TD*%
D29*
%TO.C,BUZ_D1*%
X189192870Y-146127445D03*
X185892870Y-146127445D03*
%TD*%
D30*
%TO.C,Q1*%
X187440594Y-139411476D03*
X186490594Y-137536476D03*
X188390594Y-137536476D03*
%TD*%
D31*
%TO.C,LLS_C2*%
X125805134Y-119987997D03*
X122855134Y-119987997D03*
%TD*%
D26*
%TO.C,LLS_R2*%
X125820556Y-123003474D03*
X122895556Y-123003474D03*
%TD*%
D32*
%TO.C,RF1*%
X172149215Y-73155492D03*
X172149215Y-75155492D03*
X172149215Y-77155492D03*
X172149215Y-79155492D03*
X172149215Y-81155492D03*
X172149215Y-83155492D03*
X172149215Y-85155492D03*
X172149215Y-87155492D03*
X157099215Y-73155492D03*
X157099215Y-75155492D03*
X157099215Y-77155492D03*
X157099215Y-79155492D03*
X157099215Y-81155492D03*
X157099215Y-83155492D03*
X157099215Y-85155492D03*
X157099215Y-87155492D03*
%TD*%
D25*
%TO.C,BUZ_R2*%
X185844786Y-134688525D03*
X188769786Y-134688525D03*
%TD*%
D26*
%TO.C,BUT_R2*%
X172833409Y-132816316D03*
X169908409Y-132816316D03*
%TD*%
M02*
