%TF.GenerationSoftware,KiCad,Pcbnew,8.0.6*%
%TF.CreationDate,2025-07-11T21:39:04-04:00*%
%TF.ProjectId,receiver,72656365-6976-4657-922e-6b696361645f,rev?*%
%TF.SameCoordinates,Original*%
%TF.FileFunction,Other,Comment*%
%FSLAX46Y46*%
G04 Gerber Fmt 4.6, Leading zero omitted, Abs format (unit mm)*
G04 Created by KiCad (PCBNEW 8.0.6) date 2025-07-11 21:39:04*
%MOMM*%
%LPD*%
G01*
G04 APERTURE LIST*
%ADD10C,0.250000*%
%ADD11C,0.150000*%
G04 APERTURE END LIST*
D10*
X179620565Y-173725542D02*
X179620565Y-171225542D01*
X181882469Y-173725542D02*
X181882469Y-171225542D01*
X181882469Y-173606495D02*
X181644374Y-173725542D01*
X181644374Y-173725542D02*
X181168183Y-173725542D01*
X181168183Y-173725542D02*
X180930088Y-173606495D01*
X180930088Y-173606495D02*
X180811041Y-173487447D01*
X180811041Y-173487447D02*
X180691993Y-173249352D01*
X180691993Y-173249352D02*
X180691993Y-172535066D01*
X180691993Y-172535066D02*
X180811041Y-172296971D01*
X180811041Y-172296971D02*
X180930088Y-172177923D01*
X180930088Y-172177923D02*
X181168183Y-172058875D01*
X181168183Y-172058875D02*
X181644374Y-172058875D01*
X181644374Y-172058875D02*
X181882469Y-172177923D01*
X184025327Y-173606495D02*
X183787231Y-173725542D01*
X183787231Y-173725542D02*
X183311041Y-173725542D01*
X183311041Y-173725542D02*
X183072946Y-173606495D01*
X183072946Y-173606495D02*
X182953898Y-173368399D01*
X182953898Y-173368399D02*
X182953898Y-172416018D01*
X182953898Y-172416018D02*
X183072946Y-172177923D01*
X183072946Y-172177923D02*
X183311041Y-172058875D01*
X183311041Y-172058875D02*
X183787231Y-172058875D01*
X183787231Y-172058875D02*
X184025327Y-172177923D01*
X184025327Y-172177923D02*
X184144374Y-172416018D01*
X184144374Y-172416018D02*
X184144374Y-172654114D01*
X184144374Y-172654114D02*
X182953898Y-172892209D01*
X186049136Y-172416018D02*
X185215803Y-172416018D01*
X185215803Y-173725542D02*
X185215803Y-171225542D01*
X185215803Y-171225542D02*
X186406279Y-171225542D01*
X187358660Y-173725542D02*
X187358660Y-171225542D01*
X188311040Y-171225542D02*
X189977707Y-173725542D01*
X189977707Y-171225542D02*
X188311040Y-173725542D01*
X192596754Y-172058875D02*
X193191992Y-173725542D01*
X193191992Y-173725542D02*
X193787231Y-172058875D01*
X194620564Y-171463637D02*
X194739612Y-171344590D01*
X194739612Y-171344590D02*
X194977707Y-171225542D01*
X194977707Y-171225542D02*
X195572945Y-171225542D01*
X195572945Y-171225542D02*
X195811040Y-171344590D01*
X195811040Y-171344590D02*
X195930088Y-171463637D01*
X195930088Y-171463637D02*
X196049135Y-171701733D01*
X196049135Y-171701733D02*
X196049135Y-171939828D01*
X196049135Y-171939828D02*
X195930088Y-172296971D01*
X195930088Y-172296971D02*
X194501516Y-173725542D01*
X194501516Y-173725542D02*
X196049135Y-173725542D01*
X199858659Y-172416018D02*
X200215802Y-172535066D01*
X200215802Y-172535066D02*
X200334849Y-172654114D01*
X200334849Y-172654114D02*
X200453897Y-172892209D01*
X200453897Y-172892209D02*
X200453897Y-173249352D01*
X200453897Y-173249352D02*
X200334849Y-173487447D01*
X200334849Y-173487447D02*
X200215802Y-173606495D01*
X200215802Y-173606495D02*
X199977707Y-173725542D01*
X199977707Y-173725542D02*
X199025326Y-173725542D01*
X199025326Y-173725542D02*
X199025326Y-171225542D01*
X199025326Y-171225542D02*
X199858659Y-171225542D01*
X199858659Y-171225542D02*
X200096754Y-171344590D01*
X200096754Y-171344590D02*
X200215802Y-171463637D01*
X200215802Y-171463637D02*
X200334849Y-171701733D01*
X200334849Y-171701733D02*
X200334849Y-171939828D01*
X200334849Y-171939828D02*
X200215802Y-172177923D01*
X200215802Y-172177923D02*
X200096754Y-172296971D01*
X200096754Y-172296971D02*
X199858659Y-172416018D01*
X199858659Y-172416018D02*
X199025326Y-172416018D01*
X202477707Y-173606495D02*
X202239611Y-173725542D01*
X202239611Y-173725542D02*
X201763421Y-173725542D01*
X201763421Y-173725542D02*
X201525326Y-173606495D01*
X201525326Y-173606495D02*
X201406278Y-173368399D01*
X201406278Y-173368399D02*
X201406278Y-172416018D01*
X201406278Y-172416018D02*
X201525326Y-172177923D01*
X201525326Y-172177923D02*
X201763421Y-172058875D01*
X201763421Y-172058875D02*
X202239611Y-172058875D01*
X202239611Y-172058875D02*
X202477707Y-172177923D01*
X202477707Y-172177923D02*
X202596754Y-172416018D01*
X202596754Y-172416018D02*
X202596754Y-172654114D01*
X202596754Y-172654114D02*
X201406278Y-172892209D01*
X204739611Y-173725542D02*
X204739611Y-172416018D01*
X204739611Y-172416018D02*
X204620564Y-172177923D01*
X204620564Y-172177923D02*
X204382468Y-172058875D01*
X204382468Y-172058875D02*
X203906278Y-172058875D01*
X203906278Y-172058875D02*
X203668183Y-172177923D01*
X204739611Y-173606495D02*
X204501516Y-173725542D01*
X204501516Y-173725542D02*
X203906278Y-173725542D01*
X203906278Y-173725542D02*
X203668183Y-173606495D01*
X203668183Y-173606495D02*
X203549135Y-173368399D01*
X203549135Y-173368399D02*
X203549135Y-173130304D01*
X203549135Y-173130304D02*
X203668183Y-172892209D01*
X203668183Y-172892209D02*
X203906278Y-172773161D01*
X203906278Y-172773161D02*
X204501516Y-172773161D01*
X204501516Y-172773161D02*
X204739611Y-172654114D01*
X207001516Y-173606495D02*
X206763421Y-173725542D01*
X206763421Y-173725542D02*
X206287230Y-173725542D01*
X206287230Y-173725542D02*
X206049135Y-173606495D01*
X206049135Y-173606495D02*
X205930088Y-173487447D01*
X205930088Y-173487447D02*
X205811040Y-173249352D01*
X205811040Y-173249352D02*
X205811040Y-172535066D01*
X205811040Y-172535066D02*
X205930088Y-172296971D01*
X205930088Y-172296971D02*
X206049135Y-172177923D01*
X206049135Y-172177923D02*
X206287230Y-172058875D01*
X206287230Y-172058875D02*
X206763421Y-172058875D01*
X206763421Y-172058875D02*
X207001516Y-172177923D01*
X208430087Y-173725542D02*
X208191992Y-173606495D01*
X208191992Y-173606495D02*
X208072945Y-173487447D01*
X208072945Y-173487447D02*
X207953897Y-173249352D01*
X207953897Y-173249352D02*
X207953897Y-172535066D01*
X207953897Y-172535066D02*
X208072945Y-172296971D01*
X208072945Y-172296971D02*
X208191992Y-172177923D01*
X208191992Y-172177923D02*
X208430087Y-172058875D01*
X208430087Y-172058875D02*
X208787230Y-172058875D01*
X208787230Y-172058875D02*
X209025326Y-172177923D01*
X209025326Y-172177923D02*
X209144373Y-172296971D01*
X209144373Y-172296971D02*
X209263421Y-172535066D01*
X209263421Y-172535066D02*
X209263421Y-173249352D01*
X209263421Y-173249352D02*
X209144373Y-173487447D01*
X209144373Y-173487447D02*
X209025326Y-173606495D01*
X209025326Y-173606495D02*
X208787230Y-173725542D01*
X208787230Y-173725542D02*
X208430087Y-173725542D01*
X210334850Y-172058875D02*
X210334850Y-173725542D01*
X210334850Y-172296971D02*
X210453897Y-172177923D01*
X210453897Y-172177923D02*
X210691992Y-172058875D01*
X210691992Y-172058875D02*
X211049135Y-172058875D01*
X211049135Y-172058875D02*
X211287231Y-172177923D01*
X211287231Y-172177923D02*
X211406278Y-172416018D01*
X211406278Y-172416018D02*
X211406278Y-173725542D01*
X216287231Y-171106495D02*
X214144374Y-174320780D01*
X219025327Y-173725542D02*
X219025327Y-172058875D01*
X219025327Y-171225542D02*
X218906279Y-171344590D01*
X218906279Y-171344590D02*
X219025327Y-171463637D01*
X219025327Y-171463637D02*
X219144374Y-171344590D01*
X219144374Y-171344590D02*
X219025327Y-171225542D01*
X219025327Y-171225542D02*
X219025327Y-171463637D01*
X220215803Y-172058875D02*
X220215803Y-173725542D01*
X220215803Y-172296971D02*
X220334850Y-172177923D01*
X220334850Y-172177923D02*
X220572945Y-172058875D01*
X220572945Y-172058875D02*
X220930088Y-172058875D01*
X220930088Y-172058875D02*
X221168184Y-172177923D01*
X221168184Y-172177923D02*
X221287231Y-172416018D01*
X221287231Y-172416018D02*
X221287231Y-173725542D01*
X222120565Y-172058875D02*
X223072946Y-172058875D01*
X222477708Y-171225542D02*
X222477708Y-173368399D01*
X222477708Y-173368399D02*
X222596755Y-173606495D01*
X222596755Y-173606495D02*
X222834850Y-173725542D01*
X222834850Y-173725542D02*
X223072946Y-173725542D01*
X224858660Y-173606495D02*
X224620564Y-173725542D01*
X224620564Y-173725542D02*
X224144374Y-173725542D01*
X224144374Y-173725542D02*
X223906279Y-173606495D01*
X223906279Y-173606495D02*
X223787231Y-173368399D01*
X223787231Y-173368399D02*
X223787231Y-172416018D01*
X223787231Y-172416018D02*
X223906279Y-172177923D01*
X223906279Y-172177923D02*
X224144374Y-172058875D01*
X224144374Y-172058875D02*
X224620564Y-172058875D01*
X224620564Y-172058875D02*
X224858660Y-172177923D01*
X224858660Y-172177923D02*
X224977707Y-172416018D01*
X224977707Y-172416018D02*
X224977707Y-172654114D01*
X224977707Y-172654114D02*
X223787231Y-172892209D01*
X226049136Y-173725542D02*
X226049136Y-172058875D01*
X226049136Y-172535066D02*
X226168183Y-172296971D01*
X226168183Y-172296971D02*
X226287231Y-172177923D01*
X226287231Y-172177923D02*
X226525326Y-172058875D01*
X226525326Y-172058875D02*
X226763421Y-172058875D01*
X227239612Y-172058875D02*
X228191993Y-172058875D01*
X227596755Y-173725542D02*
X227596755Y-171582685D01*
X227596755Y-171582685D02*
X227715802Y-171344590D01*
X227715802Y-171344590D02*
X227953897Y-171225542D01*
X227953897Y-171225542D02*
X228191993Y-171225542D01*
X230096754Y-173725542D02*
X230096754Y-172416018D01*
X230096754Y-172416018D02*
X229977707Y-172177923D01*
X229977707Y-172177923D02*
X229739611Y-172058875D01*
X229739611Y-172058875D02*
X229263421Y-172058875D01*
X229263421Y-172058875D02*
X229025326Y-172177923D01*
X230096754Y-173606495D02*
X229858659Y-173725542D01*
X229858659Y-173725542D02*
X229263421Y-173725542D01*
X229263421Y-173725542D02*
X229025326Y-173606495D01*
X229025326Y-173606495D02*
X228906278Y-173368399D01*
X228906278Y-173368399D02*
X228906278Y-173130304D01*
X228906278Y-173130304D02*
X229025326Y-172892209D01*
X229025326Y-172892209D02*
X229263421Y-172773161D01*
X229263421Y-172773161D02*
X229858659Y-172773161D01*
X229858659Y-172773161D02*
X230096754Y-172654114D01*
X232358659Y-173606495D02*
X232120564Y-173725542D01*
X232120564Y-173725542D02*
X231644373Y-173725542D01*
X231644373Y-173725542D02*
X231406278Y-173606495D01*
X231406278Y-173606495D02*
X231287231Y-173487447D01*
X231287231Y-173487447D02*
X231168183Y-173249352D01*
X231168183Y-173249352D02*
X231168183Y-172535066D01*
X231168183Y-172535066D02*
X231287231Y-172296971D01*
X231287231Y-172296971D02*
X231406278Y-172177923D01*
X231406278Y-172177923D02*
X231644373Y-172058875D01*
X231644373Y-172058875D02*
X232120564Y-172058875D01*
X232120564Y-172058875D02*
X232358659Y-172177923D01*
X234382469Y-173606495D02*
X234144373Y-173725542D01*
X234144373Y-173725542D02*
X233668183Y-173725542D01*
X233668183Y-173725542D02*
X233430088Y-173606495D01*
X233430088Y-173606495D02*
X233311040Y-173368399D01*
X233311040Y-173368399D02*
X233311040Y-172416018D01*
X233311040Y-172416018D02*
X233430088Y-172177923D01*
X233430088Y-172177923D02*
X233668183Y-172058875D01*
X233668183Y-172058875D02*
X234144373Y-172058875D01*
X234144373Y-172058875D02*
X234382469Y-172177923D01*
X234382469Y-172177923D02*
X234501516Y-172416018D01*
X234501516Y-172416018D02*
X234501516Y-172654114D01*
X234501516Y-172654114D02*
X233311040Y-172892209D01*
X237477707Y-173725542D02*
X237477707Y-171225542D01*
X237477707Y-172177923D02*
X237715802Y-172058875D01*
X237715802Y-172058875D02*
X238191992Y-172058875D01*
X238191992Y-172058875D02*
X238430088Y-172177923D01*
X238430088Y-172177923D02*
X238549135Y-172296971D01*
X238549135Y-172296971D02*
X238668183Y-172535066D01*
X238668183Y-172535066D02*
X238668183Y-173249352D01*
X238668183Y-173249352D02*
X238549135Y-173487447D01*
X238549135Y-173487447D02*
X238430088Y-173606495D01*
X238430088Y-173606495D02*
X238191992Y-173725542D01*
X238191992Y-173725542D02*
X237715802Y-173725542D01*
X237715802Y-173725542D02*
X237477707Y-173606495D01*
X240096754Y-173725542D02*
X239858659Y-173606495D01*
X239858659Y-173606495D02*
X239739612Y-173487447D01*
X239739612Y-173487447D02*
X239620564Y-173249352D01*
X239620564Y-173249352D02*
X239620564Y-172535066D01*
X239620564Y-172535066D02*
X239739612Y-172296971D01*
X239739612Y-172296971D02*
X239858659Y-172177923D01*
X239858659Y-172177923D02*
X240096754Y-172058875D01*
X240096754Y-172058875D02*
X240453897Y-172058875D01*
X240453897Y-172058875D02*
X240691993Y-172177923D01*
X240691993Y-172177923D02*
X240811040Y-172296971D01*
X240811040Y-172296971D02*
X240930088Y-172535066D01*
X240930088Y-172535066D02*
X240930088Y-173249352D01*
X240930088Y-173249352D02*
X240811040Y-173487447D01*
X240811040Y-173487447D02*
X240691993Y-173606495D01*
X240691993Y-173606495D02*
X240453897Y-173725542D01*
X240453897Y-173725542D02*
X240096754Y-173725542D01*
X243072945Y-173725542D02*
X243072945Y-172416018D01*
X243072945Y-172416018D02*
X242953898Y-172177923D01*
X242953898Y-172177923D02*
X242715802Y-172058875D01*
X242715802Y-172058875D02*
X242239612Y-172058875D01*
X242239612Y-172058875D02*
X242001517Y-172177923D01*
X243072945Y-173606495D02*
X242834850Y-173725542D01*
X242834850Y-173725542D02*
X242239612Y-173725542D01*
X242239612Y-173725542D02*
X242001517Y-173606495D01*
X242001517Y-173606495D02*
X241882469Y-173368399D01*
X241882469Y-173368399D02*
X241882469Y-173130304D01*
X241882469Y-173130304D02*
X242001517Y-172892209D01*
X242001517Y-172892209D02*
X242239612Y-172773161D01*
X242239612Y-172773161D02*
X242834850Y-172773161D01*
X242834850Y-172773161D02*
X243072945Y-172654114D01*
X244263422Y-173725542D02*
X244263422Y-172058875D01*
X244263422Y-172535066D02*
X244382469Y-172296971D01*
X244382469Y-172296971D02*
X244501517Y-172177923D01*
X244501517Y-172177923D02*
X244739612Y-172058875D01*
X244739612Y-172058875D02*
X244977707Y-172058875D01*
X246882469Y-173725542D02*
X246882469Y-171225542D01*
X246882469Y-173606495D02*
X246644374Y-173725542D01*
X246644374Y-173725542D02*
X246168183Y-173725542D01*
X246168183Y-173725542D02*
X245930088Y-173606495D01*
X245930088Y-173606495D02*
X245811041Y-173487447D01*
X245811041Y-173487447D02*
X245691993Y-173249352D01*
X245691993Y-173249352D02*
X245691993Y-172535066D01*
X245691993Y-172535066D02*
X245811041Y-172296971D01*
X245811041Y-172296971D02*
X245930088Y-172177923D01*
X245930088Y-172177923D02*
X246168183Y-172058875D01*
X246168183Y-172058875D02*
X246644374Y-172058875D01*
X246644374Y-172058875D02*
X246882469Y-172177923D01*
D11*
%TO.C,HOLES1*%
X132767230Y-43980426D02*
G75*
G02*
X128967230Y-43980426I-1900000J0D01*
G01*
X128967230Y-43980426D02*
G75*
G02*
X132767230Y-43980426I1900000J0D01*
G01*
X132767230Y-83980426D02*
G75*
G02*
X128967230Y-83980426I-1900000J0D01*
G01*
X128967230Y-83980426D02*
G75*
G02*
X132767230Y-83980426I1900000J0D01*
G01*
X182767230Y-43980426D02*
G75*
G02*
X178967230Y-43980426I-1900000J0D01*
G01*
X178967230Y-43980426D02*
G75*
G02*
X182767230Y-43980426I1900000J0D01*
G01*
X182767230Y-83980426D02*
G75*
G02*
X178967230Y-83980426I-1900000J0D01*
G01*
X178967230Y-83980426D02*
G75*
G02*
X182767230Y-83980426I1900000J0D01*
G01*
%TO.C,HOLES3*%
X111341750Y-100148492D02*
G75*
G02*
X107541750Y-100148492I-1900000J0D01*
G01*
X107541750Y-100148492D02*
G75*
G02*
X111341750Y-100148492I1900000J0D01*
G01*
X111341750Y-150948492D02*
G75*
G02*
X107541750Y-150948492I-1900000J0D01*
G01*
X107541750Y-150948492D02*
G75*
G02*
X111341750Y-150948492I1900000J0D01*
G01*
X202781750Y-100148492D02*
G75*
G02*
X198981750Y-100148492I-1900000J0D01*
G01*
X198981750Y-100148492D02*
G75*
G02*
X202781750Y-100148492I1900000J0D01*
G01*
X202781750Y-150948492D02*
G75*
G02*
X198981750Y-150948492I-1900000J0D01*
G01*
X198981750Y-150948492D02*
G75*
G02*
X202781750Y-150948492I1900000J0D01*
G01*
%TO.C,HOLES2*%
X132130170Y-102915216D02*
G75*
G02*
X128330170Y-102915216I-1900000J0D01*
G01*
X128330170Y-102915216D02*
G75*
G02*
X132130170Y-102915216I1900000J0D01*
G01*
X132130170Y-142915216D02*
G75*
G02*
X128330170Y-142915216I-1900000J0D01*
G01*
X128330170Y-142915216D02*
G75*
G02*
X132130170Y-142915216I1900000J0D01*
G01*
X182130170Y-102915216D02*
G75*
G02*
X178330170Y-102915216I-1900000J0D01*
G01*
X178330170Y-102915216D02*
G75*
G02*
X182130170Y-102915216I1900000J0D01*
G01*
X182130170Y-142915216D02*
G75*
G02*
X178330170Y-142915216I-1900000J0D01*
G01*
X178330170Y-142915216D02*
G75*
G02*
X182130170Y-142915216I1900000J0D01*
G01*
%TD*%
M02*
