%TF.GenerationSoftware,KiCad,Pcbnew,8.0.6*%
%TF.CreationDate,2025-03-03T18:48:18-05:00*%
%TF.ProjectId,receiver,72656365-6976-4657-922e-6b696361645f,rev?*%
%TF.SameCoordinates,Original*%
%TF.FileFunction,Legend,Bot*%
%TF.FilePolarity,Positive*%
%FSLAX46Y46*%
G04 Gerber Fmt 4.6, Leading zero omitted, Abs format (unit mm)*
G04 Created by KiCad (PCBNEW 8.0.6) date 2025-03-03 18:48:18*
%MOMM*%
%LPD*%
G01*
G04 APERTURE LIST*
G04 Aperture macros list*
%AMRoundRect*
0 Rectangle with rounded corners*
0 $1 Rounding radius*
0 $2 $3 $4 $5 $6 $7 $8 $9 X,Y pos of 4 corners*
0 Add a 4 corners polygon primitive as box body*
4,1,4,$2,$3,$4,$5,$6,$7,$8,$9,$2,$3,0*
0 Add four circle primitives for the rounded corners*
1,1,$1+$1,$2,$3*
1,1,$1+$1,$4,$5*
1,1,$1+$1,$6,$7*
1,1,$1+$1,$8,$9*
0 Add four rect primitives between the rounded corners*
20,1,$1+$1,$2,$3,$4,$5,0*
20,1,$1+$1,$4,$5,$6,$7,0*
20,1,$1+$1,$6,$7,$8,$9,0*
20,1,$1+$1,$8,$9,$2,$3,0*%
G04 Aperture macros list end*
%ADD10C,0.300000*%
%ADD11C,0.153000*%
%ADD12C,0.000000*%
%ADD13C,0.120000*%
%ADD14C,0.100000*%
%ADD15C,0.152400*%
%ADD16C,2.276000*%
%ADD17RoundRect,0.038000X-0.675000X-0.675000X0.675000X-0.675000X0.675000X0.675000X-0.675000X0.675000X0*%
%ADD18O,1.426000X1.426000*%
%ADD19RoundRect,0.038000X0.675000X-0.675000X0.675000X0.675000X-0.675000X0.675000X-0.675000X-0.675000X0*%
%ADD20RoundRect,0.206712X-0.981288X0.981288X-0.981288X-0.981288X0.981288X-0.981288X0.981288X0.981288X0*%
%ADD21C,2.576000*%
%ADD22RoundRect,0.038000X-0.900000X0.900000X-0.900000X-0.900000X0.900000X-0.900000X0.900000X0.900000X0*%
%ADD23C,1.876000*%
%ADD24RoundRect,0.769000X-0.769000X1.269000X-0.769000X-1.269000X0.769000X-1.269000X0.769000X1.269000X0*%
%ADD25C,2.076000*%
%ADD26RoundRect,0.336500X1.176500X0.336500X-1.176500X0.336500X-1.176500X-0.336500X1.176500X-0.336500X0*%
%ADD27C,2.235000*%
G04 APERTURE END LIST*
D10*
X138433174Y-101921361D02*
X138433174Y-100421361D01*
X137076031Y-101921361D02*
X137076031Y-100421361D01*
X137076031Y-101849933D02*
X137218888Y-101921361D01*
X137218888Y-101921361D02*
X137504602Y-101921361D01*
X137504602Y-101921361D02*
X137647459Y-101849933D01*
X137647459Y-101849933D02*
X137718888Y-101778504D01*
X137718888Y-101778504D02*
X137790316Y-101635647D01*
X137790316Y-101635647D02*
X137790316Y-101207075D01*
X137790316Y-101207075D02*
X137718888Y-101064218D01*
X137718888Y-101064218D02*
X137647459Y-100992790D01*
X137647459Y-100992790D02*
X137504602Y-100921361D01*
X137504602Y-100921361D02*
X137218888Y-100921361D01*
X137218888Y-100921361D02*
X137076031Y-100992790D01*
X135790316Y-101849933D02*
X135933173Y-101921361D01*
X135933173Y-101921361D02*
X136218888Y-101921361D01*
X136218888Y-101921361D02*
X136361745Y-101849933D01*
X136361745Y-101849933D02*
X136433173Y-101707075D01*
X136433173Y-101707075D02*
X136433173Y-101135647D01*
X136433173Y-101135647D02*
X136361745Y-100992790D01*
X136361745Y-100992790D02*
X136218888Y-100921361D01*
X136218888Y-100921361D02*
X135933173Y-100921361D01*
X135933173Y-100921361D02*
X135790316Y-100992790D01*
X135790316Y-100992790D02*
X135718888Y-101135647D01*
X135718888Y-101135647D02*
X135718888Y-101278504D01*
X135718888Y-101278504D02*
X136433173Y-101421361D01*
X135933173Y-100349933D02*
X136147459Y-100564218D01*
X135290316Y-100921361D02*
X134718888Y-100921361D01*
X135076031Y-101921361D02*
X135076031Y-100635647D01*
X135076031Y-100635647D02*
X135004602Y-100492790D01*
X135004602Y-100492790D02*
X134861745Y-100421361D01*
X134861745Y-100421361D02*
X134718888Y-100421361D01*
X134218888Y-101921361D02*
X134218888Y-100921361D01*
X134218888Y-100421361D02*
X134290316Y-100492790D01*
X134290316Y-100492790D02*
X134218888Y-100564218D01*
X134218888Y-100564218D02*
X134147459Y-100492790D01*
X134147459Y-100492790D02*
X134218888Y-100421361D01*
X134218888Y-100421361D02*
X134218888Y-100564218D01*
X133647459Y-101921361D02*
X132861745Y-100921361D01*
X133647459Y-100921361D02*
X132861745Y-101921361D01*
X130933173Y-101921361D02*
X131076030Y-101849933D01*
X131076030Y-101849933D02*
X131147459Y-101707075D01*
X131147459Y-101707075D02*
X131147459Y-100421361D01*
X129790316Y-101849933D02*
X129933173Y-101921361D01*
X129933173Y-101921361D02*
X130218888Y-101921361D01*
X130218888Y-101921361D02*
X130361745Y-101849933D01*
X130361745Y-101849933D02*
X130433173Y-101707075D01*
X130433173Y-101707075D02*
X130433173Y-101135647D01*
X130433173Y-101135647D02*
X130361745Y-100992790D01*
X130361745Y-100992790D02*
X130218888Y-100921361D01*
X130218888Y-100921361D02*
X129933173Y-100921361D01*
X129933173Y-100921361D02*
X129790316Y-100992790D01*
X129790316Y-100992790D02*
X129718888Y-101135647D01*
X129718888Y-101135647D02*
X129718888Y-101278504D01*
X129718888Y-101278504D02*
X130433173Y-101421361D01*
X127147459Y-100492790D02*
X127290317Y-100421361D01*
X127290317Y-100421361D02*
X127504602Y-100421361D01*
X127504602Y-100421361D02*
X127718888Y-100492790D01*
X127718888Y-100492790D02*
X127861745Y-100635647D01*
X127861745Y-100635647D02*
X127933174Y-100778504D01*
X127933174Y-100778504D02*
X128004602Y-101064218D01*
X128004602Y-101064218D02*
X128004602Y-101278504D01*
X128004602Y-101278504D02*
X127933174Y-101564218D01*
X127933174Y-101564218D02*
X127861745Y-101707075D01*
X127861745Y-101707075D02*
X127718888Y-101849933D01*
X127718888Y-101849933D02*
X127504602Y-101921361D01*
X127504602Y-101921361D02*
X127361745Y-101921361D01*
X127361745Y-101921361D02*
X127147459Y-101849933D01*
X127147459Y-101849933D02*
X127076031Y-101778504D01*
X127076031Y-101778504D02*
X127076031Y-101278504D01*
X127076031Y-101278504D02*
X127361745Y-101278504D01*
X126504602Y-101492790D02*
X125790317Y-101492790D01*
X126647459Y-101921361D02*
X126147459Y-100421361D01*
X126147459Y-100421361D02*
X125647459Y-101921361D01*
X125147460Y-100421361D02*
X125147460Y-101635647D01*
X125147460Y-101635647D02*
X125076031Y-101778504D01*
X125076031Y-101778504D02*
X125004603Y-101849933D01*
X125004603Y-101849933D02*
X124861745Y-101921361D01*
X124861745Y-101921361D02*
X124576031Y-101921361D01*
X124576031Y-101921361D02*
X124433174Y-101849933D01*
X124433174Y-101849933D02*
X124361745Y-101778504D01*
X124361745Y-101778504D02*
X124290317Y-101635647D01*
X124290317Y-101635647D02*
X124290317Y-100421361D01*
X122861745Y-101921361D02*
X123576031Y-101921361D01*
X123576031Y-101921361D02*
X123576031Y-100421361D01*
X122147459Y-101921361D02*
X122290316Y-101849933D01*
X122290316Y-101849933D02*
X122361745Y-101778504D01*
X122361745Y-101778504D02*
X122433173Y-101635647D01*
X122433173Y-101635647D02*
X122433173Y-101207075D01*
X122433173Y-101207075D02*
X122361745Y-101064218D01*
X122361745Y-101064218D02*
X122290316Y-100992790D01*
X122290316Y-100992790D02*
X122147459Y-100921361D01*
X122147459Y-100921361D02*
X121933173Y-100921361D01*
X121933173Y-100921361D02*
X121790316Y-100992790D01*
X121790316Y-100992790D02*
X121718888Y-101064218D01*
X121718888Y-101064218D02*
X121647459Y-101207075D01*
X121647459Y-101207075D02*
X121647459Y-101635647D01*
X121647459Y-101635647D02*
X121718888Y-101778504D01*
X121718888Y-101778504D02*
X121790316Y-101849933D01*
X121790316Y-101849933D02*
X121933173Y-101921361D01*
X121933173Y-101921361D02*
X122147459Y-101921361D01*
X121004602Y-101921361D02*
X121004602Y-100921361D01*
X121004602Y-100421361D02*
X121076030Y-100492790D01*
X121076030Y-100492790D02*
X121004602Y-100564218D01*
X121004602Y-100564218D02*
X120933173Y-100492790D01*
X120933173Y-100492790D02*
X121004602Y-100421361D01*
X121004602Y-100421361D02*
X121004602Y-100564218D01*
X120361744Y-101849933D02*
X120218887Y-101921361D01*
X120218887Y-101921361D02*
X119933173Y-101921361D01*
X119933173Y-101921361D02*
X119790316Y-101849933D01*
X119790316Y-101849933D02*
X119718887Y-101707075D01*
X119718887Y-101707075D02*
X119718887Y-101635647D01*
X119718887Y-101635647D02*
X119790316Y-101492790D01*
X119790316Y-101492790D02*
X119933173Y-101421361D01*
X119933173Y-101421361D02*
X120147459Y-101421361D01*
X120147459Y-101421361D02*
X120290316Y-101349933D01*
X120290316Y-101349933D02*
X120361744Y-101207075D01*
X120361744Y-101207075D02*
X120361744Y-101135647D01*
X120361744Y-101135647D02*
X120290316Y-100992790D01*
X120290316Y-100992790D02*
X120147459Y-100921361D01*
X120147459Y-100921361D02*
X119933173Y-100921361D01*
X119933173Y-100921361D02*
X119790316Y-100992790D01*
D11*
X134112669Y-118397620D02*
X134446002Y-117921429D01*
X134684097Y-118397620D02*
X134684097Y-117397620D01*
X134684097Y-117397620D02*
X134303145Y-117397620D01*
X134303145Y-117397620D02*
X134207907Y-117445239D01*
X134207907Y-117445239D02*
X134160288Y-117492858D01*
X134160288Y-117492858D02*
X134112669Y-117588096D01*
X134112669Y-117588096D02*
X134112669Y-117730953D01*
X134112669Y-117730953D02*
X134160288Y-117826191D01*
X134160288Y-117826191D02*
X134207907Y-117873810D01*
X134207907Y-117873810D02*
X134303145Y-117921429D01*
X134303145Y-117921429D02*
X134684097Y-117921429D01*
X133826954Y-117397620D02*
X133493621Y-118397620D01*
X133493621Y-118397620D02*
X133160288Y-117397620D01*
X132303145Y-118397620D02*
X132874573Y-118397620D01*
X132588859Y-118397620D02*
X132588859Y-117397620D01*
X132588859Y-117397620D02*
X132684097Y-117540477D01*
X132684097Y-117540477D02*
X132779335Y-117635715D01*
X132779335Y-117635715D02*
X132874573Y-117683334D01*
X159918289Y-105178396D02*
X159775432Y-105226015D01*
X159775432Y-105226015D02*
X159537337Y-105226015D01*
X159537337Y-105226015D02*
X159442099Y-105178396D01*
X159442099Y-105178396D02*
X159394480Y-105130776D01*
X159394480Y-105130776D02*
X159346861Y-105035538D01*
X159346861Y-105035538D02*
X159346861Y-104940300D01*
X159346861Y-104940300D02*
X159394480Y-104845062D01*
X159394480Y-104845062D02*
X159442099Y-104797443D01*
X159442099Y-104797443D02*
X159537337Y-104749824D01*
X159537337Y-104749824D02*
X159727813Y-104702205D01*
X159727813Y-104702205D02*
X159823051Y-104654586D01*
X159823051Y-104654586D02*
X159870670Y-104606967D01*
X159870670Y-104606967D02*
X159918289Y-104511729D01*
X159918289Y-104511729D02*
X159918289Y-104416491D01*
X159918289Y-104416491D02*
X159870670Y-104321253D01*
X159870670Y-104321253D02*
X159823051Y-104273634D01*
X159823051Y-104273634D02*
X159727813Y-104226015D01*
X159727813Y-104226015D02*
X159489718Y-104226015D01*
X159489718Y-104226015D02*
X159346861Y-104273634D01*
X159013527Y-104226015D02*
X158775432Y-105226015D01*
X158775432Y-105226015D02*
X158584956Y-104511729D01*
X158584956Y-104511729D02*
X158394480Y-105226015D01*
X158394480Y-105226015D02*
X158156385Y-104226015D01*
X157870670Y-104226015D02*
X157251623Y-104226015D01*
X157251623Y-104226015D02*
X157584956Y-104606967D01*
X157584956Y-104606967D02*
X157442099Y-104606967D01*
X157442099Y-104606967D02*
X157346861Y-104654586D01*
X157346861Y-104654586D02*
X157299242Y-104702205D01*
X157299242Y-104702205D02*
X157251623Y-104797443D01*
X157251623Y-104797443D02*
X157251623Y-105035538D01*
X157251623Y-105035538D02*
X157299242Y-105130776D01*
X157299242Y-105130776D02*
X157346861Y-105178396D01*
X157346861Y-105178396D02*
X157442099Y-105226015D01*
X157442099Y-105226015D02*
X157727813Y-105226015D01*
X157727813Y-105226015D02*
X157823051Y-105178396D01*
X157823051Y-105178396D02*
X157870670Y-105130776D01*
X142918289Y-105178396D02*
X142775432Y-105226015D01*
X142775432Y-105226015D02*
X142537337Y-105226015D01*
X142537337Y-105226015D02*
X142442099Y-105178396D01*
X142442099Y-105178396D02*
X142394480Y-105130776D01*
X142394480Y-105130776D02*
X142346861Y-105035538D01*
X142346861Y-105035538D02*
X142346861Y-104940300D01*
X142346861Y-104940300D02*
X142394480Y-104845062D01*
X142394480Y-104845062D02*
X142442099Y-104797443D01*
X142442099Y-104797443D02*
X142537337Y-104749824D01*
X142537337Y-104749824D02*
X142727813Y-104702205D01*
X142727813Y-104702205D02*
X142823051Y-104654586D01*
X142823051Y-104654586D02*
X142870670Y-104606967D01*
X142870670Y-104606967D02*
X142918289Y-104511729D01*
X142918289Y-104511729D02*
X142918289Y-104416491D01*
X142918289Y-104416491D02*
X142870670Y-104321253D01*
X142870670Y-104321253D02*
X142823051Y-104273634D01*
X142823051Y-104273634D02*
X142727813Y-104226015D01*
X142727813Y-104226015D02*
X142489718Y-104226015D01*
X142489718Y-104226015D02*
X142346861Y-104273634D01*
X142013527Y-104226015D02*
X141775432Y-105226015D01*
X141775432Y-105226015D02*
X141584956Y-104511729D01*
X141584956Y-104511729D02*
X141394480Y-105226015D01*
X141394480Y-105226015D02*
X141156385Y-104226015D01*
X140251623Y-105226015D02*
X140823051Y-105226015D01*
X140537337Y-105226015D02*
X140537337Y-104226015D01*
X140537337Y-104226015D02*
X140632575Y-104368872D01*
X140632575Y-104368872D02*
X140727813Y-104464110D01*
X140727813Y-104464110D02*
X140823051Y-104511729D01*
X159918289Y-122178396D02*
X159775432Y-122226015D01*
X159775432Y-122226015D02*
X159537337Y-122226015D01*
X159537337Y-122226015D02*
X159442099Y-122178396D01*
X159442099Y-122178396D02*
X159394480Y-122130776D01*
X159394480Y-122130776D02*
X159346861Y-122035538D01*
X159346861Y-122035538D02*
X159346861Y-121940300D01*
X159346861Y-121940300D02*
X159394480Y-121845062D01*
X159394480Y-121845062D02*
X159442099Y-121797443D01*
X159442099Y-121797443D02*
X159537337Y-121749824D01*
X159537337Y-121749824D02*
X159727813Y-121702205D01*
X159727813Y-121702205D02*
X159823051Y-121654586D01*
X159823051Y-121654586D02*
X159870670Y-121606967D01*
X159870670Y-121606967D02*
X159918289Y-121511729D01*
X159918289Y-121511729D02*
X159918289Y-121416491D01*
X159918289Y-121416491D02*
X159870670Y-121321253D01*
X159870670Y-121321253D02*
X159823051Y-121273634D01*
X159823051Y-121273634D02*
X159727813Y-121226015D01*
X159727813Y-121226015D02*
X159489718Y-121226015D01*
X159489718Y-121226015D02*
X159346861Y-121273634D01*
X159013527Y-121226015D02*
X158775432Y-122226015D01*
X158775432Y-122226015D02*
X158584956Y-121511729D01*
X158584956Y-121511729D02*
X158394480Y-122226015D01*
X158394480Y-122226015D02*
X158156385Y-121226015D01*
X157346861Y-121559348D02*
X157346861Y-122226015D01*
X157584956Y-121178396D02*
X157823051Y-121892681D01*
X157823051Y-121892681D02*
X157204004Y-121892681D01*
X142918289Y-122178396D02*
X142775432Y-122226015D01*
X142775432Y-122226015D02*
X142537337Y-122226015D01*
X142537337Y-122226015D02*
X142442099Y-122178396D01*
X142442099Y-122178396D02*
X142394480Y-122130776D01*
X142394480Y-122130776D02*
X142346861Y-122035538D01*
X142346861Y-122035538D02*
X142346861Y-121940300D01*
X142346861Y-121940300D02*
X142394480Y-121845062D01*
X142394480Y-121845062D02*
X142442099Y-121797443D01*
X142442099Y-121797443D02*
X142537337Y-121749824D01*
X142537337Y-121749824D02*
X142727813Y-121702205D01*
X142727813Y-121702205D02*
X142823051Y-121654586D01*
X142823051Y-121654586D02*
X142870670Y-121606967D01*
X142870670Y-121606967D02*
X142918289Y-121511729D01*
X142918289Y-121511729D02*
X142918289Y-121416491D01*
X142918289Y-121416491D02*
X142870670Y-121321253D01*
X142870670Y-121321253D02*
X142823051Y-121273634D01*
X142823051Y-121273634D02*
X142727813Y-121226015D01*
X142727813Y-121226015D02*
X142489718Y-121226015D01*
X142489718Y-121226015D02*
X142346861Y-121273634D01*
X142013527Y-121226015D02*
X141775432Y-122226015D01*
X141775432Y-122226015D02*
X141584956Y-121511729D01*
X141584956Y-121511729D02*
X141394480Y-122226015D01*
X141394480Y-122226015D02*
X141156385Y-121226015D01*
X140823051Y-121321253D02*
X140775432Y-121273634D01*
X140775432Y-121273634D02*
X140680194Y-121226015D01*
X140680194Y-121226015D02*
X140442099Y-121226015D01*
X140442099Y-121226015D02*
X140346861Y-121273634D01*
X140346861Y-121273634D02*
X140299242Y-121321253D01*
X140299242Y-121321253D02*
X140251623Y-121416491D01*
X140251623Y-121416491D02*
X140251623Y-121511729D01*
X140251623Y-121511729D02*
X140299242Y-121654586D01*
X140299242Y-121654586D02*
X140870670Y-122226015D01*
X140870670Y-122226015D02*
X140251623Y-122226015D01*
D12*
%TO.C,Id\u00E9fix le GAULois*%
G36*
X150384606Y-91686803D02*
G01*
X150395605Y-91709370D01*
X150394377Y-91715911D01*
X150347802Y-91757364D01*
X150236480Y-91809175D01*
X150064082Y-91869848D01*
X149834279Y-91937889D01*
X149743526Y-91962831D01*
X149605125Y-91998517D01*
X149511637Y-92016150D01*
X149448089Y-92016754D01*
X149399509Y-92001353D01*
X149350924Y-91970973D01*
X149291537Y-91920967D01*
X149283096Y-91881984D01*
X149336993Y-91854095D01*
X149457138Y-91832189D01*
X149486742Y-91827996D01*
X149622839Y-91805654D01*
X149789436Y-91775125D01*
X149957069Y-91741740D01*
X150140413Y-91704946D01*
X150266912Y-91683860D01*
X150345009Y-91678056D01*
X150384606Y-91686803D01*
G37*
G36*
X150278883Y-90649007D02*
G01*
X150271202Y-90734863D01*
X150257670Y-90782283D01*
X150204616Y-90912857D01*
X150128078Y-91066275D01*
X150040010Y-91219490D01*
X149952368Y-91349459D01*
X149904851Y-91403374D01*
X149761766Y-91518754D01*
X149574738Y-91627579D01*
X149361118Y-91719004D01*
X149185543Y-91762728D01*
X148928347Y-91774453D01*
X148665001Y-91734329D01*
X148417025Y-91644067D01*
X148284564Y-91569863D01*
X148159657Y-91478541D01*
X148075742Y-91391046D01*
X148045052Y-91318097D01*
X148053340Y-91288654D01*
X148105589Y-91268470D01*
X148196760Y-91289273D01*
X148316199Y-91349817D01*
X148400669Y-91398610D01*
X148622832Y-91498202D01*
X148832570Y-91552501D01*
X149014097Y-91556823D01*
X149095680Y-91541363D01*
X149328058Y-91455150D01*
X149562791Y-91310751D01*
X149789320Y-91115473D01*
X149997085Y-90876623D01*
X150106756Y-90740657D01*
X150194455Y-90653044D01*
X150252566Y-90622114D01*
X150278883Y-90649007D01*
G37*
G36*
X140755620Y-96334763D02*
G01*
X140772895Y-96365723D01*
X140788299Y-96466044D01*
X140786316Y-96613943D01*
X140769325Y-96797061D01*
X140739703Y-97003040D01*
X140699831Y-97219520D01*
X140652086Y-97434142D01*
X140598847Y-97634547D01*
X140542493Y-97808377D01*
X140485402Y-97943272D01*
X140429953Y-98026874D01*
X140372225Y-98067778D01*
X140240687Y-98093216D01*
X140066990Y-98062987D01*
X139850884Y-97977071D01*
X139840220Y-97971941D01*
X139653868Y-97873489D01*
X139535155Y-97792317D01*
X139483472Y-97730347D01*
X139498207Y-97689504D01*
X139578747Y-97671713D01*
X139724483Y-97678898D01*
X139934801Y-97712983D01*
X139996569Y-97724869D01*
X140131329Y-97745870D01*
X140209459Y-97747839D01*
X140238909Y-97731253D01*
X140240573Y-97724930D01*
X140254544Y-97661730D01*
X140278398Y-97547186D01*
X140309276Y-97395187D01*
X140344315Y-97219621D01*
X140355161Y-97165706D01*
X140422984Y-96867066D01*
X140491395Y-96630292D01*
X140559628Y-96457030D01*
X140626920Y-96348925D01*
X140692505Y-96307621D01*
X140755620Y-96334763D01*
G37*
G36*
X164500612Y-100345343D02*
G01*
X164495515Y-100454129D01*
X164471599Y-100629612D01*
X164428073Y-100871451D01*
X164385584Y-101070905D01*
X164296764Y-101389561D01*
X164191797Y-101646744D01*
X164067171Y-101847560D01*
X163919375Y-101997118D01*
X163744899Y-102100524D01*
X163540231Y-102162885D01*
X163397009Y-102179127D01*
X163209410Y-102164313D01*
X162989244Y-102108720D01*
X162894855Y-102071683D01*
X162782259Y-102009213D01*
X162685549Y-101937761D01*
X162613548Y-101866397D01*
X162575080Y-101804192D01*
X162578968Y-101760217D01*
X162634035Y-101743543D01*
X162682574Y-101750567D01*
X162782969Y-101776035D01*
X162902649Y-101813709D01*
X162962744Y-101832953D01*
X163224899Y-101881972D01*
X163466840Y-101870195D01*
X163682220Y-101799487D01*
X163864697Y-101671714D01*
X164007926Y-101488740D01*
X164020728Y-101465238D01*
X164074923Y-101347746D01*
X164139963Y-101186458D01*
X164208778Y-100999519D01*
X164274297Y-100805076D01*
X164348632Y-100584003D01*
X164410900Y-100422585D01*
X164457514Y-100329230D01*
X164487682Y-100303597D01*
X164500612Y-100345343D01*
G37*
G36*
X160923923Y-99116462D02*
G01*
X161081741Y-99119905D01*
X161189646Y-99125388D01*
X161251532Y-99132957D01*
X161271295Y-99142658D01*
X161270975Y-99145653D01*
X161234910Y-99172647D01*
X161157276Y-99185251D01*
X161143468Y-99185700D01*
X161056308Y-99189739D01*
X160915039Y-99197175D01*
X160731901Y-99207333D01*
X160519132Y-99219539D01*
X160288975Y-99233118D01*
X160251948Y-99235284D01*
X160009478Y-99247510D01*
X159743377Y-99258060D01*
X159462170Y-99266863D01*
X159174378Y-99273847D01*
X158888524Y-99278938D01*
X158613132Y-99282064D01*
X158356725Y-99283153D01*
X158127825Y-99282132D01*
X157934956Y-99278929D01*
X157786640Y-99273471D01*
X157691400Y-99265685D01*
X157657759Y-99255500D01*
X157670262Y-99231807D01*
X157711591Y-99210935D01*
X157786339Y-99192982D01*
X157899102Y-99177641D01*
X158054471Y-99164603D01*
X158257040Y-99153562D01*
X158511402Y-99144208D01*
X158822149Y-99136235D01*
X159193874Y-99129333D01*
X159631171Y-99123195D01*
X159715607Y-99122164D01*
X160112033Y-99117910D01*
X160442965Y-99115511D01*
X160712296Y-99115013D01*
X160923923Y-99116462D01*
G37*
G36*
X162607023Y-97963448D02*
G01*
X162639527Y-97982032D01*
X162625010Y-97998554D01*
X162547114Y-98026179D01*
X162401244Y-98056980D01*
X162186702Y-98091097D01*
X161902787Y-98128669D01*
X161533878Y-98173967D01*
X161130670Y-98222757D01*
X160785541Y-98263548D01*
X160492122Y-98297045D01*
X160244041Y-98323957D01*
X160034927Y-98344989D01*
X159858409Y-98360850D01*
X159708118Y-98372245D01*
X159553613Y-98382310D01*
X159378256Y-98392914D01*
X159230380Y-98400998D01*
X159131240Y-98405344D01*
X159012692Y-98404994D01*
X158874582Y-98398393D01*
X158736776Y-98387185D01*
X158616731Y-98373090D01*
X158531903Y-98357827D01*
X158499748Y-98343118D01*
X158500322Y-98341598D01*
X158540253Y-98329777D01*
X158630660Y-98319440D01*
X158754099Y-98312676D01*
X158857980Y-98308000D01*
X159060930Y-98295044D01*
X159320036Y-98275402D01*
X159627305Y-98249821D01*
X159974745Y-98219047D01*
X160354362Y-98183826D01*
X160758163Y-98144905D01*
X161178154Y-98103029D01*
X161606344Y-98058944D01*
X162034737Y-98013398D01*
X162455342Y-97967136D01*
X162516074Y-97961782D01*
X162607023Y-97963448D01*
G37*
G36*
X161324041Y-96890567D02*
G01*
X161433510Y-96900415D01*
X161475124Y-96918334D01*
X161463217Y-96937095D01*
X161391486Y-96970402D01*
X161261410Y-97010553D01*
X161079537Y-97056142D01*
X160852416Y-97105761D01*
X160586593Y-97158003D01*
X160288618Y-97211462D01*
X159965037Y-97264730D01*
X159622400Y-97316401D01*
X159517283Y-97328531D01*
X159300433Y-97343147D01*
X159042774Y-97351495D01*
X158762314Y-97353699D01*
X158477061Y-97349884D01*
X158205019Y-97340174D01*
X157964197Y-97324696D01*
X157772602Y-97303573D01*
X157758948Y-97301528D01*
X157525533Y-97260205D01*
X157336349Y-97214545D01*
X157195617Y-97166795D01*
X157107562Y-97119202D01*
X157076406Y-97074012D01*
X157106372Y-97033472D01*
X157201682Y-96999829D01*
X157244658Y-96994626D01*
X157356814Y-96989428D01*
X157519800Y-96986652D01*
X157722397Y-96986368D01*
X157953385Y-96988647D01*
X158201544Y-96993559D01*
X158533723Y-96999843D01*
X158883559Y-97000516D01*
X159215510Y-96993284D01*
X159557674Y-96977482D01*
X159938146Y-96952444D01*
X160244437Y-96931064D01*
X160606916Y-96909039D01*
X160908903Y-96894920D01*
X161148559Y-96888749D01*
X161324041Y-96890567D01*
G37*
G36*
X160378169Y-100729114D02*
G01*
X160478773Y-100790270D01*
X160571623Y-100850626D01*
X160828224Y-100973489D01*
X161126015Y-101066967D01*
X161447282Y-101126193D01*
X161774312Y-101146299D01*
X161877072Y-101143319D01*
X162002550Y-101132167D01*
X162145140Y-101110835D01*
X162314857Y-101077319D01*
X162521719Y-101029614D01*
X162775742Y-100965715D01*
X163086943Y-100883619D01*
X163191036Y-100856291D01*
X163394837Y-100807507D01*
X163534082Y-100782494D01*
X163609779Y-100781181D01*
X163622933Y-100803497D01*
X163574551Y-100849372D01*
X163532385Y-100875638D01*
X163415295Y-100934351D01*
X163253237Y-101005986D01*
X163060009Y-101085254D01*
X162849414Y-101166865D01*
X162635250Y-101245529D01*
X162431320Y-101315958D01*
X162251424Y-101372861D01*
X162109362Y-101410949D01*
X162024793Y-101426900D01*
X161797657Y-101448981D01*
X161542492Y-101452024D01*
X161283446Y-101437060D01*
X161044666Y-101405117D01*
X160850301Y-101357228D01*
X160687976Y-101295840D01*
X160503394Y-101207608D01*
X160359667Y-101116487D01*
X160270847Y-101030402D01*
X160231965Y-100941169D01*
X160219555Y-100839612D01*
X160233442Y-100751604D01*
X160273424Y-100702979D01*
X160298893Y-100701430D01*
X160378169Y-100729114D01*
G37*
G36*
X158895043Y-100154317D02*
G01*
X159200017Y-100162267D01*
X159485093Y-100174992D01*
X159735920Y-100192382D01*
X159938146Y-100214323D01*
X160223244Y-100255655D01*
X160549016Y-100306958D01*
X160841154Y-100357534D01*
X161093650Y-100406138D01*
X161300496Y-100451524D01*
X161455682Y-100492449D01*
X161553200Y-100527666D01*
X161587041Y-100555932D01*
X161560542Y-100570252D01*
X161469043Y-100580277D01*
X161316974Y-100583738D01*
X161109267Y-100580715D01*
X160850854Y-100571287D01*
X160546668Y-100555534D01*
X160201640Y-100533536D01*
X160143757Y-100529659D01*
X159867383Y-100513383D01*
X159550063Y-100497557D01*
X159215338Y-100483211D01*
X158886746Y-100471372D01*
X158587828Y-100463067D01*
X158406316Y-100458859D01*
X158000959Y-100448194D01*
X157663131Y-100437241D01*
X157390949Y-100425901D01*
X157182530Y-100414074D01*
X157035991Y-100401659D01*
X156949448Y-100388558D01*
X156921019Y-100374669D01*
X156921216Y-100372708D01*
X156958503Y-100342023D01*
X157051384Y-100305220D01*
X157186997Y-100266047D01*
X157352479Y-100228258D01*
X157534969Y-100195604D01*
X157573998Y-100190122D01*
X157763192Y-100172515D01*
X158004245Y-100160243D01*
X158282806Y-100153193D01*
X158584522Y-100151255D01*
X158895043Y-100154317D01*
G37*
G36*
X164202503Y-98575412D02*
G01*
X164300738Y-98656106D01*
X164439933Y-98792267D01*
X164517285Y-98874577D01*
X164685316Y-99080472D01*
X164801696Y-99268716D01*
X164863308Y-99433638D01*
X164867035Y-99569563D01*
X164862203Y-99589124D01*
X164785451Y-99742363D01*
X164647326Y-99881141D01*
X164455115Y-100000796D01*
X164216108Y-100096664D01*
X163937593Y-100164085D01*
X163860575Y-100174134D01*
X163717629Y-100184929D01*
X163548892Y-100192022D01*
X163373520Y-100195133D01*
X163210665Y-100193984D01*
X163079483Y-100188294D01*
X162999127Y-100177784D01*
X162962722Y-100165865D01*
X162919753Y-100131281D01*
X162942565Y-100091806D01*
X163028411Y-100050090D01*
X163174541Y-100008781D01*
X163314014Y-99976804D01*
X163497454Y-99934777D01*
X163656930Y-99898270D01*
X163711854Y-99885186D01*
X163944251Y-99818639D01*
X164157368Y-99740567D01*
X164334422Y-99657699D01*
X164458631Y-99576766D01*
X164491988Y-99548168D01*
X164543577Y-99492228D01*
X164553165Y-99438604D01*
X164530385Y-99357907D01*
X164529277Y-99354710D01*
X164482247Y-99243629D01*
X164428722Y-99147410D01*
X164425296Y-99142293D01*
X164376510Y-99063616D01*
X164309138Y-98948630D01*
X164236679Y-98820330D01*
X164228777Y-98805979D01*
X164158364Y-98665469D01*
X164130835Y-98580160D01*
X164145708Y-98550119D01*
X164202503Y-98575412D01*
G37*
G36*
X154958750Y-98626320D02*
G01*
X154862173Y-98756686D01*
X154722324Y-98870338D01*
X154544225Y-98957024D01*
X154474259Y-98975760D01*
X154338377Y-98996745D01*
X154196017Y-99005539D01*
X154133348Y-99005245D01*
X154023252Y-98995778D01*
X153944041Y-98967802D01*
X153868422Y-98913662D01*
X153837515Y-98886979D01*
X153785827Y-98828230D01*
X153769791Y-98762676D01*
X153778436Y-98659312D01*
X153783638Y-98617847D01*
X153786503Y-98591474D01*
X153983479Y-98591474D01*
X153984176Y-98694271D01*
X154041917Y-98760264D01*
X154092214Y-98779371D01*
X154234730Y-98790848D01*
X154416284Y-98763377D01*
X154464099Y-98750213D01*
X154602252Y-98686178D01*
X154691799Y-98603791D01*
X154732819Y-98514621D01*
X154725392Y-98430238D01*
X154669598Y-98362208D01*
X154565517Y-98322100D01*
X154413229Y-98321484D01*
X154323786Y-98333788D01*
X154196340Y-98357053D01*
X154114733Y-98385292D01*
X154063070Y-98425133D01*
X154025457Y-98483204D01*
X153983479Y-98591474D01*
X153786503Y-98591474D01*
X153796155Y-98502623D01*
X153802696Y-98418297D01*
X153830814Y-98353866D01*
X153918283Y-98283181D01*
X154068478Y-98207815D01*
X154284837Y-98125680D01*
X154311745Y-98116614D01*
X154498958Y-98069102D01*
X154649861Y-98067149D01*
X154781446Y-98113015D01*
X154910705Y-98208962D01*
X154938614Y-98237479D01*
X155001994Y-98356463D01*
X155007032Y-98489495D01*
X154998166Y-98514621D01*
X154958750Y-98626320D01*
G37*
G36*
X141514192Y-96263382D02*
G01*
X141528911Y-96369260D01*
X141514900Y-96533736D01*
X141499685Y-96621175D01*
X141466787Y-96774653D01*
X141432586Y-96902106D01*
X141385802Y-97067062D01*
X141333642Y-97363435D01*
X141333906Y-97621155D01*
X141386447Y-97837395D01*
X141491115Y-98009328D01*
X141517692Y-98037811D01*
X141627503Y-98116182D01*
X141735082Y-98127834D01*
X141840952Y-98072193D01*
X141945632Y-97948685D01*
X142049643Y-97756737D01*
X142153506Y-97495776D01*
X142257741Y-97165228D01*
X142292399Y-97046072D01*
X142354872Y-96845879D01*
X142407040Y-96704030D01*
X142452036Y-96613630D01*
X142492996Y-96567786D01*
X142533051Y-96559603D01*
X142555010Y-96569259D01*
X142575186Y-96606560D01*
X142583020Y-96684379D01*
X142581251Y-96817372D01*
X142573849Y-96933704D01*
X142535368Y-97194040D01*
X142470366Y-97454014D01*
X142383857Y-97702007D01*
X142280859Y-97926400D01*
X142166388Y-98115574D01*
X142045460Y-98257912D01*
X141923091Y-98341794D01*
X141906592Y-98348281D01*
X141736467Y-98376863D01*
X141558185Y-98349325D01*
X141392672Y-98271723D01*
X141260852Y-98150114D01*
X141242278Y-98124982D01*
X141151452Y-97965603D01*
X141095336Y-97783356D01*
X141070855Y-97564072D01*
X141074935Y-97293583D01*
X141098627Y-97018792D01*
X141140333Y-96775589D01*
X141202180Y-96573186D01*
X141287623Y-96397024D01*
X141336729Y-96320841D01*
X141414193Y-96236822D01*
X141474649Y-96218453D01*
X141514192Y-96263382D01*
G37*
G36*
X162538908Y-95518508D02*
G01*
X162753424Y-95522874D01*
X162916890Y-95535235D01*
X163043305Y-95558929D01*
X163146665Y-95597294D01*
X163240968Y-95653670D01*
X163340210Y-95731393D01*
X163433057Y-95827312D01*
X163552048Y-95995026D01*
X163662449Y-96195449D01*
X163753281Y-96408144D01*
X163813568Y-96612673D01*
X163814583Y-96617538D01*
X163821486Y-96696506D01*
X163803505Y-96726692D01*
X163793515Y-96724492D01*
X163744944Y-96687551D01*
X163668162Y-96602237D01*
X163560077Y-96464902D01*
X163417594Y-96271903D01*
X163408611Y-96259555D01*
X163273764Y-96092874D01*
X163138831Y-95970095D01*
X162990089Y-95885290D01*
X162813815Y-95832532D01*
X162596287Y-95805892D01*
X162323781Y-95799444D01*
X162203129Y-95800887D01*
X162038537Y-95808124D01*
X161906193Y-95824342D01*
X161782221Y-95852978D01*
X161642748Y-95897467D01*
X161569846Y-95923485D01*
X161357273Y-96013899D01*
X161200355Y-96108893D01*
X161087890Y-96214873D01*
X161045528Y-96281101D01*
X161031247Y-96385435D01*
X161075778Y-96511241D01*
X161094676Y-96553581D01*
X161106039Y-96634613D01*
X161074058Y-96676150D01*
X161010357Y-96676484D01*
X160926563Y-96633906D01*
X160834300Y-96546711D01*
X160771908Y-96448965D01*
X160738846Y-96297741D01*
X160772060Y-96142093D01*
X160870952Y-95991129D01*
X160954803Y-95911123D01*
X161127522Y-95795781D01*
X161354570Y-95692532D01*
X161643805Y-95597369D01*
X161665430Y-95591253D01*
X161789626Y-95560216D01*
X161911809Y-95539174D01*
X162050007Y-95526351D01*
X162222251Y-95519969D01*
X162446571Y-95518251D01*
X162538908Y-95518508D01*
G37*
G36*
X154208261Y-97427458D02*
G01*
X154172668Y-97541215D01*
X154160738Y-97570290D01*
X154044751Y-97754508D01*
X153874357Y-97915368D01*
X153662381Y-98042867D01*
X153421645Y-98127001D01*
X153336512Y-98144176D01*
X153068512Y-98163917D01*
X152803317Y-98136513D01*
X152553440Y-98066298D01*
X152331396Y-97957603D01*
X152149698Y-97814759D01*
X152020860Y-97642099D01*
X151983490Y-97555999D01*
X151946337Y-97365934D01*
X151955378Y-97216110D01*
X152161275Y-97216110D01*
X152164978Y-97394787D01*
X152232481Y-97561806D01*
X152360523Y-97709385D01*
X152545844Y-97829740D01*
X152681369Y-97883841D01*
X152913710Y-97931820D01*
X153153541Y-97935158D01*
X153386731Y-97896676D01*
X153599148Y-97819193D01*
X153776658Y-97705530D01*
X153905130Y-97558506D01*
X153962467Y-97418867D01*
X153958589Y-97273650D01*
X153887052Y-97127840D01*
X153746836Y-96977695D01*
X153707070Y-96944216D01*
X153488490Y-96802421D01*
X153254642Y-96712552D01*
X153019936Y-96678751D01*
X152798781Y-96705162D01*
X152732349Y-96724085D01*
X152532444Y-96791917D01*
X152387768Y-96863747D01*
X152286739Y-96946383D01*
X152217775Y-97046631D01*
X152161275Y-97216110D01*
X151955378Y-97216110D01*
X151958181Y-97169658D01*
X152013109Y-96979682D01*
X152105203Y-96808517D01*
X152228547Y-96668674D01*
X152377225Y-96572663D01*
X152545322Y-96532996D01*
X152563359Y-96531990D01*
X152702199Y-96513441D01*
X152831255Y-96481973D01*
X152941654Y-96457170D01*
X153152429Y-96454420D01*
X153379016Y-96497409D01*
X153600625Y-96583399D01*
X153802777Y-96700026D01*
X153983537Y-96850221D01*
X154109700Y-97022673D01*
X154189576Y-97226458D01*
X154211792Y-97331929D01*
X154208579Y-97418867D01*
X154208261Y-97427458D01*
G37*
G36*
X143980394Y-97734490D02*
G01*
X144000044Y-98049456D01*
X144004556Y-98164595D01*
X144009157Y-98334971D01*
X144007930Y-98454859D01*
X144000024Y-98537023D01*
X143984589Y-98594228D01*
X143960775Y-98639240D01*
X143942721Y-98664335D01*
X143874132Y-98717039D01*
X143808680Y-98704615D01*
X143749983Y-98631045D01*
X143701660Y-98500309D01*
X143667328Y-98316387D01*
X143641944Y-98113173D01*
X143415523Y-98064360D01*
X143359112Y-98052292D01*
X143259734Y-98034039D01*
X143202008Y-98034137D01*
X143166797Y-98054932D01*
X143134964Y-98098774D01*
X143095907Y-98154780D01*
X143011623Y-98259076D01*
X142923572Y-98352561D01*
X142846732Y-98419899D01*
X142796080Y-98445753D01*
X142765451Y-98428152D01*
X142747538Y-98364761D01*
X142749579Y-98337640D01*
X142775471Y-98224447D01*
X142826762Y-98066950D01*
X142897931Y-97878184D01*
X142957024Y-97735161D01*
X143343947Y-97735161D01*
X143345828Y-97738139D01*
X143387156Y-97762761D01*
X143465610Y-97798510D01*
X143485319Y-97806644D01*
X143564356Y-97837042D01*
X143605942Y-97849344D01*
X143612579Y-97823618D01*
X143618816Y-97740623D01*
X143623050Y-97613927D01*
X143624610Y-97457585D01*
X143623659Y-97317483D01*
X143620665Y-97190580D01*
X143616115Y-97107112D01*
X143610509Y-97080444D01*
X143605450Y-97089314D01*
X143578724Y-97148555D01*
X143536607Y-97247904D01*
X143486206Y-97369901D01*
X143434631Y-97497086D01*
X143388990Y-97611997D01*
X143356393Y-97697176D01*
X143343947Y-97735161D01*
X142957024Y-97735161D01*
X142983456Y-97671188D01*
X143077816Y-97459000D01*
X143175489Y-97254657D01*
X143270954Y-97071196D01*
X143358690Y-96921655D01*
X143374575Y-96897449D01*
X143486236Y-96761299D01*
X143593173Y-96686812D01*
X143690092Y-96674875D01*
X143771700Y-96726376D01*
X143832704Y-96842201D01*
X143860771Y-96938937D01*
X143908579Y-97163513D01*
X143949179Y-97433936D01*
X143951635Y-97457585D01*
X143980394Y-97734490D01*
G37*
G36*
X145325535Y-96912989D02*
G01*
X145461441Y-96950372D01*
X145534983Y-96990816D01*
X145664153Y-97108722D01*
X145770217Y-97264663D01*
X145837091Y-97437772D01*
X145842529Y-97462484D01*
X145863841Y-97646903D01*
X145865369Y-97867538D01*
X145848832Y-98098159D01*
X145815952Y-98312536D01*
X145768447Y-98484442D01*
X145738047Y-98556855D01*
X145623163Y-98752114D01*
X145482534Y-98900230D01*
X145326129Y-98989811D01*
X145293257Y-99001064D01*
X145203606Y-99028712D01*
X145150715Y-99040426D01*
X145079930Y-99032675D01*
X144952355Y-98993784D01*
X144817702Y-98932619D01*
X144704633Y-98860727D01*
X144695577Y-98853384D01*
X144583005Y-98731979D01*
X144485493Y-98574805D01*
X144407605Y-98397132D01*
X144353908Y-98214235D01*
X144328968Y-98041385D01*
X144337349Y-97893855D01*
X144383618Y-97786918D01*
X144461541Y-97731805D01*
X144591195Y-97705690D01*
X144749606Y-97717580D01*
X144921573Y-97766122D01*
X145091894Y-97849964D01*
X145172696Y-97908973D01*
X145195644Y-97954107D01*
X145155115Y-97984569D01*
X145049136Y-98001794D01*
X144875733Y-98007217D01*
X144571741Y-98007217D01*
X144571794Y-98100629D01*
X144572445Y-98115585D01*
X144601131Y-98230386D01*
X144663177Y-98370408D01*
X144745957Y-98513417D01*
X144836845Y-98637181D01*
X144923217Y-98719467D01*
X144928824Y-98723206D01*
X145065112Y-98778968D01*
X145198137Y-98772537D01*
X145322991Y-98711547D01*
X145434763Y-98603629D01*
X145528545Y-98456420D01*
X145599428Y-98277551D01*
X145642501Y-98074657D01*
X145652856Y-97855371D01*
X145625584Y-97627328D01*
X145572361Y-97452857D01*
X145474321Y-97297556D01*
X145338471Y-97201322D01*
X145164133Y-97163712D01*
X144950632Y-97184282D01*
X144889063Y-97196828D01*
X144792961Y-97210972D01*
X144739458Y-97205894D01*
X144711323Y-97181384D01*
X144695208Y-97137309D01*
X144715861Y-97065721D01*
X144786906Y-97002692D01*
X144895868Y-96952063D01*
X145030276Y-96917675D01*
X145177656Y-96903370D01*
X145325535Y-96912989D01*
G37*
G36*
X164442555Y-96080365D02*
G01*
X164693533Y-96126549D01*
X164736697Y-96135753D01*
X165033642Y-96219941D01*
X165268069Y-96329919D01*
X165443780Y-96469553D01*
X165564579Y-96642705D01*
X165634269Y-96853240D01*
X165656654Y-97105022D01*
X165655105Y-97151377D01*
X165636604Y-97305080D01*
X165603905Y-97449086D01*
X165578853Y-97534879D01*
X165568684Y-97602197D01*
X165584926Y-97646383D01*
X165630217Y-97691767D01*
X165717601Y-97778597D01*
X165846656Y-97937189D01*
X165963888Y-98114192D01*
X166059614Y-98292838D01*
X166124151Y-98456362D01*
X166147814Y-98587996D01*
X166119089Y-98778867D01*
X166026737Y-98968165D01*
X165876585Y-99130741D01*
X165674676Y-99258042D01*
X165638720Y-99274609D01*
X165476663Y-99335773D01*
X165359188Y-99356961D01*
X165290315Y-99340733D01*
X165274065Y-99289646D01*
X165314461Y-99206261D01*
X165415522Y-99093135D01*
X165481868Y-99025079D01*
X165587367Y-98899049D01*
X165676768Y-98771739D01*
X165738728Y-98659939D01*
X165761903Y-98580442D01*
X165750559Y-98505016D01*
X165710325Y-98369291D01*
X165645260Y-98195452D01*
X165559822Y-97996389D01*
X165461189Y-97779104D01*
X165336048Y-97946726D01*
X165293443Y-97999840D01*
X165150618Y-98142127D01*
X164987723Y-98265202D01*
X164824034Y-98355757D01*
X164678829Y-98400483D01*
X164585308Y-98404922D01*
X164540551Y-98382979D01*
X164546122Y-98329366D01*
X164602576Y-98238935D01*
X164710467Y-98106535D01*
X164710760Y-98106196D01*
X164817463Y-97967366D01*
X164927626Y-97800148D01*
X165017442Y-97640666D01*
X165041412Y-97592198D01*
X165098768Y-97464782D01*
X165130869Y-97358881D01*
X165144875Y-97244324D01*
X165147953Y-97090937D01*
X165147767Y-97035260D01*
X165143633Y-96906752D01*
X165130652Y-96822245D01*
X165104349Y-96762135D01*
X165060245Y-96706817D01*
X165025607Y-96676195D01*
X164926897Y-96609051D01*
X164793727Y-96532107D01*
X164644885Y-96456676D01*
X164529706Y-96401216D01*
X164319002Y-96290999D01*
X164174545Y-96201139D01*
X164096238Y-96132298D01*
X164083983Y-96085138D01*
X164137683Y-96060321D01*
X164257239Y-96058510D01*
X164442555Y-96080365D01*
G37*
G36*
X150578839Y-87275233D02*
G01*
X150541577Y-87561067D01*
X150485077Y-87890323D01*
X150408585Y-88270789D01*
X150311346Y-88710255D01*
X150179507Y-89230633D01*
X150030822Y-89702886D01*
X149868624Y-90109473D01*
X149691831Y-90452212D01*
X149499363Y-90732916D01*
X149290139Y-90953403D01*
X149063079Y-91115487D01*
X148817102Y-91220984D01*
X148603872Y-91251584D01*
X148383943Y-91221884D01*
X148177997Y-91136570D01*
X148005115Y-91000817D01*
X147952509Y-90936879D01*
X147850902Y-90774262D01*
X147753063Y-90572569D01*
X147668094Y-90351589D01*
X147605097Y-90131112D01*
X147600439Y-90109807D01*
X147571216Y-89920635D01*
X147549463Y-89678898D01*
X147535174Y-89399697D01*
X147528343Y-89098134D01*
X147528966Y-88789308D01*
X147537038Y-88488322D01*
X147552552Y-88210275D01*
X147575505Y-87970268D01*
X147605892Y-87783402D01*
X147610489Y-87760679D01*
X147612172Y-87694394D01*
X147580784Y-87675311D01*
X147521997Y-87649279D01*
X147443667Y-87579131D01*
X147363945Y-87482514D01*
X147299507Y-87377106D01*
X147260608Y-87278274D01*
X147213475Y-87090153D01*
X147179111Y-86868014D01*
X147159032Y-86632091D01*
X147154752Y-86402618D01*
X147167788Y-86199829D01*
X147199655Y-86043957D01*
X147211711Y-86008651D01*
X147273324Y-85849427D01*
X147340937Y-85701787D01*
X147407287Y-85579403D01*
X147465111Y-85495947D01*
X147507147Y-85465090D01*
X147530555Y-85470673D01*
X147547179Y-85502225D01*
X147549930Y-85574509D01*
X147540854Y-85701899D01*
X147539145Y-85721749D01*
X147529260Y-85857741D01*
X147518139Y-86038434D01*
X147507019Y-86242629D01*
X147497143Y-86449126D01*
X147491255Y-86664461D01*
X147498794Y-86939191D01*
X147526688Y-87151132D01*
X147575367Y-87303044D01*
X147645263Y-87397689D01*
X147662104Y-87409010D01*
X147717130Y-87410121D01*
X147776888Y-87356151D01*
X147843568Y-87243657D01*
X147919359Y-87069193D01*
X148006448Y-86829317D01*
X148015918Y-86801896D01*
X148117644Y-86533390D01*
X148244852Y-86233483D01*
X148390534Y-85916103D01*
X148547684Y-85595176D01*
X148709295Y-85284631D01*
X148868360Y-84998394D01*
X149017875Y-84750393D01*
X149150830Y-84554555D01*
X149325256Y-84328763D01*
X149608923Y-84004391D01*
X149882839Y-83745550D01*
X150146122Y-83552640D01*
X150397890Y-83426062D01*
X150637260Y-83366216D01*
X150863353Y-83373503D01*
X151075284Y-83448324D01*
X151272172Y-83591079D01*
X151439638Y-83780373D01*
X151603092Y-84059085D01*
X151723493Y-84391080D01*
X151800060Y-84774606D01*
X151805912Y-84823607D01*
X151817723Y-85028345D01*
X151811657Y-85229652D01*
X151789521Y-85411047D01*
X151753121Y-85556050D01*
X151704266Y-85648180D01*
X151649965Y-85691051D01*
X151562231Y-85706848D01*
X151486631Y-85662211D01*
X151469298Y-85622539D01*
X151438542Y-85523379D01*
X151399117Y-85378196D01*
X151354265Y-85198989D01*
X151307225Y-84997759D01*
X151234160Y-84683439D01*
X151167060Y-84417248D01*
X151107408Y-84208918D01*
X151053175Y-84052637D01*
X151002336Y-83942596D01*
X150952865Y-83872982D01*
X150902734Y-83837988D01*
X150831789Y-83817907D01*
X150680979Y-83817540D01*
X150512916Y-83871104D01*
X150323706Y-83980619D01*
X150109453Y-84148105D01*
X149866264Y-84375583D01*
X149753586Y-84492220D01*
X149408913Y-84906788D01*
X149090598Y-85380535D01*
X148802251Y-85907693D01*
X148547484Y-86482493D01*
X148449445Y-86721682D01*
X148325409Y-86996435D01*
X148210279Y-87215141D01*
X148100190Y-87384959D01*
X147991279Y-87513048D01*
X147844438Y-87659888D01*
X147821794Y-88044740D01*
X147807288Y-88299621D01*
X147788502Y-88673056D01*
X147776433Y-88988915D01*
X147771058Y-89254866D01*
X147772356Y-89478573D01*
X147780302Y-89667702D01*
X147794875Y-89829919D01*
X147816051Y-89972890D01*
X147833949Y-90064330D01*
X147911923Y-90350719D01*
X148012657Y-90587241D01*
X148132997Y-90767553D01*
X148269789Y-90885313D01*
X148356165Y-90929646D01*
X148494393Y-90966760D01*
X148643179Y-90957839D01*
X148824330Y-90903604D01*
X148911750Y-90865665D01*
X149135750Y-90719364D01*
X149347512Y-90509368D01*
X149543000Y-90240134D01*
X149718178Y-89916123D01*
X149794126Y-89753759D01*
X149652415Y-89734751D01*
X149643191Y-89733424D01*
X149492100Y-89680315D01*
X149367406Y-89570038D01*
X149267621Y-89400105D01*
X149191262Y-89168028D01*
X149136842Y-88871321D01*
X149108758Y-88570502D01*
X149104046Y-88235850D01*
X149125210Y-87908819D01*
X149169894Y-87595659D01*
X149235742Y-87302621D01*
X149284035Y-87150493D01*
X149660304Y-87150493D01*
X149671489Y-87344179D01*
X149711490Y-87487843D01*
X149782385Y-87591523D01*
X149798398Y-87607402D01*
X149861058Y-87659010D01*
X149916758Y-87667354D01*
X149998877Y-87639891D01*
X150034891Y-87622805D01*
X150106430Y-87561464D01*
X150153813Y-87464901D01*
X150181281Y-87321781D01*
X150193074Y-87120768D01*
X150193929Y-87031977D01*
X150183453Y-86860951D01*
X150151026Y-86737422D01*
X150091359Y-86646449D01*
X149999162Y-86573093D01*
X149977189Y-86561868D01*
X149893869Y-86561210D01*
X149813501Y-86617475D01*
X149743596Y-86720475D01*
X149691669Y-86860023D01*
X149665233Y-87025929D01*
X149660304Y-87150493D01*
X149284035Y-87150493D01*
X149320395Y-87035956D01*
X149421499Y-86801914D01*
X149536695Y-86606747D01*
X149663628Y-86456705D01*
X149799941Y-86358038D01*
X149943276Y-86316997D01*
X150091278Y-86339834D01*
X150164498Y-86366090D01*
X150204056Y-86377244D01*
X150211206Y-86364658D01*
X150204776Y-86298914D01*
X150180022Y-86188068D01*
X150140845Y-86044728D01*
X150091147Y-85881502D01*
X150034827Y-85710999D01*
X149975788Y-85545826D01*
X149917930Y-85398592D01*
X149865155Y-85281905D01*
X149800429Y-85138632D01*
X149770099Y-85029944D01*
X149782381Y-84976450D01*
X149835564Y-84979247D01*
X149927939Y-85039436D01*
X150057796Y-85158115D01*
X150126645Y-85229675D01*
X150195381Y-85314604D01*
X150248550Y-85406666D01*
X150297313Y-85526095D01*
X150352828Y-85693128D01*
X150373998Y-85761210D01*
X150434482Y-85966558D01*
X150492927Y-86178186D01*
X150539160Y-86359703D01*
X150550613Y-86410316D01*
X150582751Y-86600361D01*
X150598671Y-86802669D01*
X150597619Y-87025030D01*
X150597098Y-87031977D01*
X150578839Y-87275233D01*
G37*
G36*
X158003708Y-77857512D02*
G01*
X158243903Y-78283558D01*
X158427305Y-78689692D01*
X158556189Y-79082803D01*
X158632828Y-79469777D01*
X158659495Y-79857501D01*
X158638464Y-80252862D01*
X158606161Y-80471666D01*
X158545328Y-80748271D01*
X158465231Y-81025368D01*
X158370526Y-81291271D01*
X158265869Y-81534293D01*
X158155916Y-81742747D01*
X158045322Y-81904946D01*
X157938744Y-82009204D01*
X157891329Y-82043255D01*
X157824379Y-82096970D01*
X157798091Y-82126961D01*
X157800170Y-82134501D01*
X157825217Y-82191461D01*
X157872655Y-82289080D01*
X157934920Y-82411623D01*
X157972518Y-82488203D01*
X158050400Y-82663786D01*
X158129700Y-82860170D01*
X158198042Y-83047451D01*
X158226879Y-83133734D01*
X158276438Y-83297970D01*
X158305787Y-83432897D01*
X158319550Y-83563315D01*
X158322354Y-83714026D01*
X158321089Y-83781914D01*
X158306495Y-83976891D01*
X158277432Y-84125966D01*
X158235925Y-84221219D01*
X158184002Y-84254731D01*
X158176334Y-84253867D01*
X158146702Y-84224827D01*
X158124127Y-84146781D01*
X158105214Y-84009150D01*
X158079345Y-83776844D01*
X158041628Y-83483720D01*
X158001746Y-83237608D01*
X157956649Y-83024741D01*
X157903292Y-82831355D01*
X157838627Y-82643684D01*
X157759606Y-82447963D01*
X157722352Y-82360503D01*
X157688730Y-82281136D01*
X157674842Y-82247727D01*
X157667028Y-82248661D01*
X157608994Y-82265612D01*
X157506892Y-82298902D01*
X157375664Y-82343736D01*
X157316577Y-82363958D01*
X157184518Y-82406604D01*
X157081610Y-82436331D01*
X157026267Y-82447664D01*
X157007848Y-82452690D01*
X156987032Y-82487790D01*
X156976358Y-82567357D01*
X156973184Y-82704155D01*
X156971427Y-82798976D01*
X156957417Y-82930696D01*
X156922299Y-83050418D01*
X156857691Y-83193672D01*
X156768741Y-83351600D01*
X156625350Y-83525324D01*
X156456514Y-83641840D01*
X156253894Y-83708255D01*
X156112005Y-83726163D01*
X155986380Y-83715323D01*
X155915685Y-83674075D01*
X155903629Y-83608135D01*
X155953918Y-83523221D01*
X156070259Y-83425049D01*
X156070905Y-83424608D01*
X156182546Y-83340899D01*
X156314889Y-83231174D01*
X156439421Y-83119064D01*
X156497489Y-83062464D01*
X156593336Y-82954145D01*
X156655022Y-82851731D01*
X156698533Y-82731301D01*
X156723355Y-82646554D01*
X156752498Y-82550035D01*
X156769690Y-82496952D01*
X156749061Y-82474551D01*
X156662008Y-82454158D01*
X156510578Y-82438377D01*
X156268712Y-82406447D01*
X155925821Y-82316838D01*
X155589808Y-82181602D01*
X155276089Y-82008386D01*
X155000076Y-81804834D01*
X154777183Y-81578592D01*
X154698776Y-81486998D01*
X154634509Y-81420759D01*
X154599346Y-81395476D01*
X154586790Y-81415595D01*
X154574924Y-81488820D01*
X154570260Y-81597203D01*
X154568033Y-81710035D01*
X154543595Y-82002637D01*
X154490698Y-82318370D01*
X154407472Y-82664430D01*
X154292047Y-83048013D01*
X154142554Y-83476313D01*
X153957122Y-83956526D01*
X153859766Y-84200164D01*
X153781135Y-84400388D01*
X153724263Y-84551439D01*
X153686640Y-84661374D01*
X153665756Y-84738253D01*
X153659098Y-84790134D01*
X153664158Y-84825077D01*
X153678425Y-84851139D01*
X153687505Y-84863412D01*
X154036480Y-85393268D01*
X154324636Y-85953006D01*
X154548097Y-86535117D01*
X154643382Y-86851980D01*
X154749887Y-87263531D01*
X154839197Y-87676545D01*
X154909083Y-88077891D01*
X154957318Y-88454439D01*
X154981675Y-88793057D01*
X154979925Y-89080616D01*
X154929441Y-89471876D01*
X154811349Y-89885626D01*
X154629519Y-90271111D01*
X154385312Y-90625510D01*
X154080089Y-90945999D01*
X153931893Y-91072041D01*
X153783132Y-91179719D01*
X153620803Y-91275744D01*
X153431303Y-91367367D01*
X153201025Y-91461843D01*
X152916368Y-91566423D01*
X152864431Y-91584899D01*
X152535766Y-91706712D01*
X152270176Y-91815396D01*
X152063103Y-91913593D01*
X151909984Y-92003943D01*
X151806260Y-92089090D01*
X151747370Y-92171674D01*
X151728754Y-92254337D01*
X151741550Y-92354148D01*
X151804077Y-92453329D01*
X151925039Y-92517846D01*
X151981871Y-92532780D01*
X152140479Y-92540645D01*
X152331307Y-92505337D01*
X152564671Y-92425364D01*
X152665775Y-92389361D01*
X152830250Y-92357753D01*
X152953431Y-92377997D01*
X153039520Y-92450315D01*
X153057411Y-92473426D01*
X153106356Y-92500553D01*
X153182179Y-92482620D01*
X153207528Y-92473046D01*
X153275828Y-92450804D01*
X153302497Y-92456205D01*
X153306374Y-92490435D01*
X153287205Y-92540071D01*
X153218852Y-92627420D01*
X153112163Y-92733702D01*
X152978915Y-92848857D01*
X152830887Y-92962827D01*
X152679857Y-93065553D01*
X152537604Y-93146976D01*
X152456913Y-93185159D01*
X152307895Y-93250228D01*
X152133449Y-93322206D01*
X151956792Y-93391323D01*
X151701932Y-93490716D01*
X151441708Y-93602236D01*
X151223437Y-93711461D01*
X151032949Y-93827155D01*
X150856075Y-93958080D01*
X150678647Y-94113002D01*
X150486495Y-94300682D01*
X150209015Y-94581889D01*
X150269701Y-94862762D01*
X150285144Y-94940290D01*
X150310909Y-95142991D01*
X150307082Y-95299043D01*
X150299844Y-95346356D01*
X150295771Y-95401786D01*
X150309469Y-95440374D01*
X150351242Y-95467703D01*
X150431392Y-95489355D01*
X150560222Y-95510911D01*
X150748037Y-95537956D01*
X151047844Y-95580941D01*
X151607567Y-95280714D01*
X151670136Y-95247308D01*
X151888634Y-95132245D01*
X152145125Y-94998996D01*
X152421020Y-94857135D01*
X152697726Y-94716237D01*
X152956654Y-94585878D01*
X153121131Y-94502939D01*
X153332578Y-94394149D01*
X153520602Y-94294970D01*
X153675308Y-94210722D01*
X153786802Y-94146722D01*
X153845189Y-94108290D01*
X153859061Y-94097041D01*
X153928531Y-94054115D01*
X154009056Y-94032654D01*
X154114675Y-94032325D01*
X154259429Y-94052794D01*
X154457359Y-94093726D01*
X154522155Y-94108654D01*
X154747443Y-94166110D01*
X155010889Y-94240038D01*
X155305480Y-94327963D01*
X155624201Y-94427409D01*
X155960037Y-94535902D01*
X156305975Y-94650966D01*
X156655000Y-94770125D01*
X157000098Y-94890905D01*
X157334254Y-95010829D01*
X157650455Y-95127423D01*
X157941686Y-95238211D01*
X158200932Y-95340717D01*
X158421180Y-95432467D01*
X158577050Y-95502708D01*
X158595415Y-95510984D01*
X158716623Y-95573795D01*
X158777789Y-95618422D01*
X158777817Y-95618455D01*
X158775668Y-95649490D01*
X158714329Y-95678328D01*
X158591605Y-95705342D01*
X158405301Y-95730907D01*
X158153222Y-95755395D01*
X157833174Y-95779181D01*
X157793746Y-95781803D01*
X157511022Y-95800967D01*
X157288702Y-95817049D01*
X157118207Y-95831028D01*
X156990958Y-95843886D01*
X156898374Y-95856600D01*
X156831877Y-95870152D01*
X156782886Y-95885519D01*
X156742822Y-95903683D01*
X156709886Y-95919297D01*
X156607349Y-95962687D01*
X156469786Y-96017085D01*
X156317585Y-96074310D01*
X156266099Y-96093434D01*
X156077992Y-96166678D01*
X155887695Y-96244949D01*
X155729461Y-96314273D01*
X155467599Y-96434790D01*
X155729461Y-96498139D01*
X155789638Y-96513439D01*
X155961917Y-96561886D01*
X156154884Y-96620883D01*
X156336993Y-96680938D01*
X156368143Y-96691682D01*
X156513790Y-96740525D01*
X156609126Y-96767776D01*
X156667483Y-96775468D01*
X156702198Y-96765631D01*
X156726603Y-96740298D01*
X156761003Y-96709343D01*
X156826653Y-96701741D01*
X156826701Y-96701759D01*
X156869606Y-96740828D01*
X156926079Y-96818179D01*
X156981943Y-96910410D01*
X157023020Y-96994115D01*
X157035132Y-97045891D01*
X157037351Y-97071052D01*
X157053292Y-97148837D01*
X157079945Y-97256388D01*
X157100124Y-97349528D01*
X157126033Y-97503852D01*
X157151345Y-97686169D01*
X157172672Y-97873931D01*
X157184411Y-98002062D01*
X157194542Y-98162439D01*
X157197164Y-98318272D01*
X157192009Y-98488105D01*
X157178812Y-98690485D01*
X157157305Y-98943959D01*
X157140823Y-99110466D01*
X157113827Y-99340347D01*
X157084118Y-99555213D01*
X157054286Y-99736742D01*
X157026920Y-99866609D01*
X156978506Y-100032070D01*
X156905302Y-100235325D01*
X156823988Y-100423032D01*
X156742341Y-100577542D01*
X156668132Y-100681205D01*
X156644515Y-100704868D01*
X156588641Y-100741946D01*
X156553097Y-100728782D01*
X156538096Y-100663026D01*
X156543851Y-100542329D01*
X156570575Y-100364343D01*
X156618480Y-100126718D01*
X156687782Y-99827106D01*
X156778692Y-99463156D01*
X156839957Y-99200814D01*
X156892897Y-98880933D01*
X156915265Y-98571036D01*
X156910159Y-98242345D01*
X156904325Y-98145838D01*
X156888601Y-97953092D01*
X156867906Y-97751625D01*
X156844014Y-97554548D01*
X156818697Y-97374969D01*
X156793729Y-97225998D01*
X156770882Y-97120745D01*
X156751929Y-97072319D01*
X156738803Y-97066629D01*
X156667209Y-97047974D01*
X156545445Y-97021632D01*
X156386114Y-96990259D01*
X156201820Y-96956505D01*
X156110414Y-96940129D01*
X155892783Y-96900156D01*
X155633323Y-96851553D01*
X155349732Y-96797670D01*
X155059712Y-96741859D01*
X154780964Y-96687471D01*
X154401874Y-96613052D01*
X154005391Y-96535673D01*
X153657509Y-96468426D01*
X153347273Y-96409261D01*
X153063724Y-96356126D01*
X152795906Y-96306973D01*
X152532860Y-96259751D01*
X152263631Y-96212411D01*
X151977261Y-96162901D01*
X151759312Y-96125720D01*
X151544240Y-96090247D01*
X151378349Y-96065304D01*
X151250655Y-96049867D01*
X151150177Y-96042914D01*
X151065931Y-96043421D01*
X150986935Y-96050364D01*
X150902206Y-96062720D01*
X150777781Y-96076736D01*
X150606376Y-96086408D01*
X150407704Y-96091078D01*
X150195676Y-96091046D01*
X149984203Y-96086611D01*
X149787193Y-96078073D01*
X149618559Y-96065731D01*
X149492209Y-96049886D01*
X149422055Y-96030836D01*
X149370493Y-95994578D01*
X149343118Y-95954994D01*
X149347167Y-95945431D01*
X149399477Y-95912888D01*
X149499475Y-95876619D01*
X149630982Y-95841191D01*
X149777818Y-95811168D01*
X149923803Y-95791119D01*
X150136117Y-95770607D01*
X150126236Y-95726830D01*
X150220190Y-95726830D01*
X150237732Y-95744371D01*
X150255273Y-95726830D01*
X150237732Y-95709289D01*
X150220190Y-95726830D01*
X150126236Y-95726830D01*
X150113299Y-95669517D01*
X151607122Y-95669517D01*
X151607834Y-95670100D01*
X151652429Y-95684661D01*
X151751178Y-95708175D01*
X151839489Y-95726830D01*
X151890099Y-95737521D01*
X152055211Y-95769575D01*
X152211997Y-95798821D01*
X152415037Y-95836701D01*
X152601888Y-95871568D01*
X152746157Y-95898498D01*
X152805577Y-95909816D01*
X152950454Y-95938132D01*
X153142573Y-95976234D01*
X153368577Y-96021455D01*
X153615108Y-96071129D01*
X153868809Y-96122591D01*
X154008840Y-96151122D01*
X154284271Y-96207229D01*
X154501726Y-96250995D01*
X154668764Y-96283327D01*
X154792945Y-96305132D01*
X154881826Y-96317318D01*
X154942966Y-96320792D01*
X154983925Y-96316460D01*
X155012259Y-96305230D01*
X155035529Y-96288009D01*
X155061292Y-96265704D01*
X155064844Y-96262772D01*
X155164364Y-96192845D01*
X155300933Y-96117619D01*
X155482144Y-96033561D01*
X155715590Y-95937138D01*
X156008864Y-95824817D01*
X156132101Y-95779391D01*
X156390356Y-95689671D01*
X156610647Y-95624142D01*
X156811158Y-95579161D01*
X157010075Y-95551088D01*
X157225583Y-95536283D01*
X157475868Y-95531105D01*
X157531462Y-95530802D01*
X157687896Y-95529545D01*
X157794891Y-95526062D01*
X157849871Y-95517925D01*
X157850257Y-95502708D01*
X157793471Y-95477982D01*
X157676936Y-95441321D01*
X157498074Y-95390298D01*
X157254306Y-95322485D01*
X157138716Y-95289940D01*
X156814771Y-95195513D01*
X156439944Y-95082452D01*
X156025067Y-94954131D01*
X155580969Y-94813920D01*
X155118483Y-94665191D01*
X154648439Y-94511316D01*
X154007213Y-94299501D01*
X153438603Y-94672858D01*
X153291225Y-94767622D01*
X153017598Y-94934976D01*
X152732504Y-95100010D01*
X152449785Y-95255214D01*
X152183281Y-95393077D01*
X151946834Y-95506091D01*
X151754284Y-95586745D01*
X151692449Y-95611911D01*
X151624919Y-95647219D01*
X151607122Y-95669517D01*
X150113299Y-95669517D01*
X150091582Y-95573304D01*
X150077982Y-95510504D01*
X150047737Y-95361335D01*
X150013570Y-95184168D01*
X149980589Y-95005147D01*
X149921864Y-94755928D01*
X149823865Y-94452776D01*
X149696357Y-94128948D01*
X149546416Y-93802316D01*
X149381115Y-93490755D01*
X149215311Y-93224214D01*
X149007544Y-92930525D01*
X148775426Y-92633976D01*
X148530184Y-92347649D01*
X148283046Y-92084627D01*
X148045238Y-91857994D01*
X147827986Y-91680832D01*
X147750775Y-91627717D01*
X147604529Y-91534923D01*
X147435456Y-91433928D01*
X147266660Y-91338810D01*
X147130505Y-91263820D01*
X147005048Y-91192689D01*
X146914175Y-91138868D01*
X146871530Y-91110251D01*
X146869785Y-91108594D01*
X146823075Y-91081112D01*
X146791261Y-91110148D01*
X146766582Y-91202523D01*
X146758358Y-91234346D01*
X146724217Y-91304773D01*
X146660235Y-91390518D01*
X146558464Y-91501534D01*
X146410954Y-91647773D01*
X146218318Y-91829527D01*
X146021506Y-92001709D01*
X145827148Y-92153698D01*
X145613392Y-92302459D01*
X145358391Y-92464952D01*
X145139632Y-92606061D01*
X144874992Y-92795820D01*
X144609621Y-93009901D01*
X144322877Y-93264241D01*
X144269025Y-93312026D01*
X144120932Y-93430835D01*
X143971278Y-93536407D01*
X143845440Y-93610346D01*
X143743428Y-93658076D01*
X143635954Y-93694707D01*
X143527934Y-93707658D01*
X143384894Y-93703938D01*
X143217253Y-93680863D01*
X142942281Y-93590942D01*
X142652822Y-93437080D01*
X142352030Y-93221353D01*
X142043055Y-92945840D01*
X141729050Y-92612618D01*
X141662424Y-92535254D01*
X141428133Y-92246496D01*
X141212879Y-91955725D01*
X141028045Y-91678865D01*
X140885015Y-91431843D01*
X140759094Y-91190506D01*
X140369956Y-91486486D01*
X140201332Y-91619099D01*
X140024234Y-91765884D01*
X139861918Y-91907288D01*
X139735420Y-92025443D01*
X139581706Y-92192989D01*
X139424505Y-92414361D01*
X139306567Y-92653649D01*
X139227096Y-92917084D01*
X139185293Y-93210902D01*
X139180363Y-93541337D01*
X139211508Y-93914621D01*
X139277931Y-94336989D01*
X139378835Y-94814675D01*
X139416800Y-94980332D01*
X139453566Y-95145228D01*
X139482476Y-95279647D01*
X139499388Y-95364687D01*
X139503549Y-95388014D01*
X139515610Y-95436009D01*
X139525988Y-95452477D01*
X139537938Y-95471438D01*
X139580469Y-95497419D01*
X139653143Y-95517069D01*
X139765898Y-95533506D01*
X139928673Y-95549848D01*
X140151406Y-95569211D01*
X140321519Y-95583782D01*
X140514058Y-95600297D01*
X140683740Y-95614874D01*
X140807038Y-95625494D01*
X140832952Y-95627929D01*
X140978093Y-95652554D01*
X141059339Y-95689430D01*
X141074739Y-95737031D01*
X141022344Y-95793835D01*
X140957295Y-95830564D01*
X140892034Y-95849620D01*
X140870290Y-95852186D01*
X140862156Y-95870407D01*
X140904388Y-95877254D01*
X141003769Y-95858440D01*
X141149565Y-95814613D01*
X141333066Y-95749080D01*
X141545563Y-95665146D01*
X141634090Y-95627486D01*
X142433348Y-95627486D01*
X142530968Y-95721012D01*
X142549095Y-95738074D01*
X142612440Y-95792568D01*
X142647543Y-95814537D01*
X142669449Y-95804504D01*
X142718236Y-95748519D01*
X142771037Y-95662304D01*
X142816594Y-95567648D01*
X142843650Y-95486342D01*
X142840948Y-95440175D01*
X142811119Y-95446509D01*
X142735086Y-95477940D01*
X142631070Y-95527753D01*
X142433348Y-95627486D01*
X141634090Y-95627486D01*
X141778345Y-95566119D01*
X142022703Y-95455304D01*
X142269927Y-95336009D01*
X142333901Y-95303484D01*
X142484049Y-95224560D01*
X142668284Y-95125508D01*
X142872888Y-95013915D01*
X143084144Y-94897365D01*
X143288336Y-94783446D01*
X143471744Y-94679743D01*
X143620653Y-94593842D01*
X143721344Y-94533331D01*
X143720751Y-94529319D01*
X143696142Y-94483526D01*
X143643811Y-94398046D01*
X143572242Y-94286898D01*
X143483231Y-94141247D01*
X143426643Y-94019066D01*
X143418427Y-93944988D01*
X143458907Y-93920062D01*
X143480654Y-93929663D01*
X143546699Y-93979801D01*
X143640172Y-94063164D01*
X143748341Y-94168812D01*
X144102217Y-94494698D01*
X144548311Y-94836039D01*
X145050132Y-95159067D01*
X145600645Y-95460254D01*
X146192813Y-95736071D01*
X146657173Y-95919002D01*
X146819603Y-95982990D01*
X147473980Y-96197482D01*
X148148908Y-96376018D01*
X148174492Y-96381968D01*
X148336264Y-96418492D01*
X148469333Y-96446705D01*
X148560525Y-96463916D01*
X148596664Y-96467437D01*
X148584817Y-96454820D01*
X148525162Y-96411892D01*
X148426226Y-96346668D01*
X148300000Y-96267241D01*
X148224263Y-96219346D01*
X148061519Y-96108603D01*
X147916617Y-95999915D01*
X147800082Y-95901883D01*
X147722442Y-95823110D01*
X147694223Y-95772199D01*
X147698995Y-95760587D01*
X147753063Y-95754281D01*
X147865432Y-95780611D01*
X148033721Y-95838916D01*
X148255549Y-95928532D01*
X148369675Y-95976166D01*
X148728698Y-96114865D01*
X149083413Y-96232831D01*
X149452440Y-96335391D01*
X149854396Y-96427870D01*
X150307897Y-96515593D01*
X150550750Y-96561701D01*
X150775617Y-96610454D01*
X150948561Y-96655302D01*
X151063675Y-96694699D01*
X151115053Y-96727096D01*
X151111756Y-96746046D01*
X151056262Y-96777037D01*
X150950137Y-96807738D01*
X150805085Y-96835025D01*
X150632808Y-96855775D01*
X150396392Y-96877134D01*
X150422310Y-97021181D01*
X150426403Y-97051141D01*
X150434597Y-97162546D01*
X150440753Y-97320342D01*
X150444333Y-97508006D01*
X150444795Y-97709012D01*
X150444647Y-97727817D01*
X150438205Y-97866885D01*
X150423420Y-98186046D01*
X150370143Y-98633594D01*
X150287442Y-99060866D01*
X150177944Y-99458268D01*
X150044275Y-99816206D01*
X149889061Y-100125085D01*
X149714929Y-100375311D01*
X149552981Y-100568267D01*
X150333892Y-100591261D01*
X150400966Y-100593285D01*
X150646939Y-100601477D01*
X150882573Y-100610432D01*
X151092915Y-100619514D01*
X151263016Y-100628091D01*
X151377925Y-100635528D01*
X151426230Y-100639433D01*
X151641046Y-100656799D01*
X151534264Y-100559909D01*
X151504187Y-100532824D01*
X151416643Y-100454661D01*
X151295045Y-100346564D01*
X151151223Y-100219043D01*
X150997009Y-100082610D01*
X150932123Y-100024885D01*
X150748300Y-99855174D01*
X150621258Y-99726278D01*
X150899878Y-99726278D01*
X151130131Y-99885501D01*
X151469581Y-100126074D01*
X151889665Y-100438706D01*
X152302710Y-100761529D01*
X152695084Y-101083580D01*
X153053156Y-101393898D01*
X153363295Y-101681518D01*
X153510030Y-101818951D01*
X153637085Y-101928095D01*
X153730868Y-101996954D01*
X153784289Y-102019829D01*
X153823483Y-102016123D01*
X153923593Y-102003907D01*
X154044223Y-101987196D01*
X154105795Y-101979212D01*
X154271712Y-101962279D01*
X154492864Y-101943592D01*
X154759485Y-101923698D01*
X155061807Y-101903141D01*
X155390062Y-101882470D01*
X155734483Y-101862228D01*
X156085304Y-101842964D01*
X156432755Y-101825222D01*
X156767071Y-101809548D01*
X157078483Y-101796490D01*
X157357225Y-101786592D01*
X157593528Y-101780402D01*
X157777626Y-101778464D01*
X157788224Y-101778411D01*
X157829457Y-101773676D01*
X157816309Y-101760457D01*
X157745151Y-101737549D01*
X157612355Y-101703748D01*
X157414294Y-101657849D01*
X157382304Y-101650594D01*
X157229829Y-101613916D01*
X157106751Y-101577645D01*
X156995419Y-101534062D01*
X156878180Y-101475449D01*
X156737382Y-101394084D01*
X156555374Y-101282251D01*
X156511054Y-101254696D01*
X156013207Y-100945544D01*
X155565688Y-100668366D01*
X155171486Y-100425010D01*
X154833588Y-100217324D01*
X154677304Y-100120697D01*
X154510957Y-100016236D01*
X154365016Y-99923015D01*
X154259290Y-99853582D01*
X154070903Y-99726369D01*
X152485391Y-99726323D01*
X150899878Y-99726278D01*
X150621258Y-99726278D01*
X150617353Y-99722316D01*
X150536341Y-99622836D01*
X150502323Y-99553263D01*
X150512359Y-99510121D01*
X150538753Y-99494326D01*
X150606138Y-99476412D01*
X150714726Y-99461878D01*
X150869338Y-99450474D01*
X151074799Y-99441953D01*
X151335931Y-99436067D01*
X151657556Y-99432566D01*
X152044500Y-99431203D01*
X152390050Y-99432161D01*
X152808878Y-99437440D01*
X153170274Y-99447183D01*
X153470034Y-99461268D01*
X153703953Y-99479573D01*
X154188131Y-99528997D01*
X154597101Y-99745655D01*
X154700805Y-99801799D01*
X154881964Y-99902840D01*
X155099314Y-100026456D01*
X155339203Y-100164813D01*
X155587978Y-100310073D01*
X155831984Y-100454401D01*
X156041053Y-100578896D01*
X156263730Y-100711345D01*
X156468355Y-100832904D01*
X156644375Y-100937312D01*
X156781239Y-101018303D01*
X156868395Y-101069615D01*
X156978924Y-101136783D01*
X157082896Y-101204843D01*
X157149058Y-101253857D01*
X157151125Y-101255623D01*
X157236519Y-101304806D01*
X157342013Y-101338742D01*
X157394129Y-101349827D01*
X157557065Y-101393116D01*
X157743055Y-101452015D01*
X157939206Y-101521404D01*
X158132627Y-101596166D01*
X158310425Y-101671182D01*
X158459710Y-101741335D01*
X158517693Y-101773676D01*
X158567589Y-101801506D01*
X158621170Y-101846577D01*
X158622477Y-101849016D01*
X158602604Y-101881606D01*
X158515073Y-101914279D01*
X158362214Y-101946624D01*
X158146357Y-101978232D01*
X157869832Y-102008692D01*
X157534969Y-102037595D01*
X157379851Y-102049627D01*
X157174050Y-102065918D01*
X156973231Y-102082300D01*
X156768038Y-102099601D01*
X156549120Y-102118649D01*
X156307124Y-102140272D01*
X156032697Y-102165299D01*
X155716485Y-102194558D01*
X155349135Y-102228878D01*
X154921295Y-102269087D01*
X154857021Y-102275125D01*
X154626155Y-102296582D01*
X154412866Y-102316066D01*
X154230222Y-102332404D01*
X154091291Y-102344423D01*
X154009140Y-102350951D01*
X153969983Y-102353083D01*
X153859185Y-102353783D01*
X153781102Y-102346876D01*
X153774249Y-102344964D01*
X153703256Y-102308094D01*
X153587952Y-102232232D01*
X153435922Y-102123258D01*
X153254749Y-101987053D01*
X153052018Y-101829495D01*
X152835313Y-101656465D01*
X152612218Y-101473843D01*
X152390316Y-101287509D01*
X152177192Y-101103342D01*
X151941515Y-100896335D01*
X151332322Y-100939108D01*
X151320159Y-100939957D01*
X151055454Y-100955555D01*
X150808336Y-100963365D01*
X150556974Y-100963405D01*
X150279535Y-100955693D01*
X149954188Y-100940247D01*
X149341567Y-100903622D01*
X148286027Y-100822799D01*
X147295812Y-100723127D01*
X147110307Y-100702523D01*
X146932508Y-100683930D01*
X146790741Y-100670372D01*
X146696222Y-100662915D01*
X146660167Y-100662627D01*
X146654883Y-100671066D01*
X146622656Y-100727797D01*
X146568761Y-100825042D01*
X146501306Y-100948225D01*
X146343041Y-101212209D01*
X146143546Y-101483301D01*
X145936319Y-101704623D01*
X145729692Y-101866263D01*
X145692474Y-101887635D01*
X145554966Y-101950196D01*
X145380882Y-102014587D01*
X145193871Y-102073164D01*
X145017585Y-102118282D01*
X144875675Y-102142296D01*
X144841101Y-102146185D01*
X144732164Y-102166080D01*
X144655876Y-102190848D01*
X144632755Y-102200783D01*
X144536774Y-102231074D01*
X144400712Y-102266334D01*
X144245154Y-102301755D01*
X144090687Y-102332529D01*
X143957897Y-102353850D01*
X143937150Y-102356112D01*
X143808060Y-102359727D01*
X143645441Y-102352904D01*
X143470034Y-102337763D01*
X143302576Y-102316422D01*
X143163806Y-102290998D01*
X143074463Y-102263611D01*
X143004680Y-102211441D01*
X142958322Y-102129119D01*
X142956123Y-102119324D01*
X142918580Y-102055887D01*
X142835245Y-102030329D01*
X142728349Y-102008888D01*
X142526060Y-101922575D01*
X142319726Y-101782731D01*
X142118704Y-101598445D01*
X141932349Y-101378808D01*
X141770016Y-101132913D01*
X141641060Y-100869851D01*
X141608009Y-100780759D01*
X141546258Y-100556350D01*
X141506434Y-100321434D01*
X141498600Y-100211516D01*
X141850035Y-100211516D01*
X141866730Y-100492773D01*
X141941378Y-100796305D01*
X141988987Y-100931438D01*
X142088756Y-101144031D01*
X142219371Y-101336767D01*
X142396709Y-101535419D01*
X142554868Y-101680628D01*
X142748660Y-101807794D01*
X142963471Y-101889226D01*
X143221774Y-101935829D01*
X143315793Y-101947649D01*
X143429437Y-101964926D01*
X143501820Y-101979646D01*
X143571986Y-101999505D01*
X143501820Y-102026931D01*
X143490489Y-102030845D01*
X143400955Y-102048768D01*
X143291323Y-102057890D01*
X143235258Y-102060724D01*
X143189067Y-102072017D01*
X143205048Y-102093075D01*
X143206085Y-102093664D01*
X143281115Y-102107247D01*
X143417785Y-102101799D01*
X143610540Y-102078002D01*
X143853824Y-102036538D01*
X144142082Y-101978088D01*
X144189806Y-101967883D01*
X144354204Y-101935348D01*
X144461228Y-101920023D01*
X144519281Y-101921045D01*
X144536765Y-101937552D01*
X144536058Y-101946380D01*
X144523877Y-101968661D01*
X144488232Y-101993162D01*
X144418403Y-102025039D01*
X144303670Y-102069444D01*
X144133312Y-102131532D01*
X144105813Y-102141616D01*
X144026167Y-102175214D01*
X144013511Y-102190792D01*
X144067036Y-102187826D01*
X144185936Y-102165789D01*
X144340702Y-102129403D01*
X144666755Y-102025913D01*
X144950196Y-101897939D01*
X144960309Y-101892475D01*
X145069150Y-101834909D01*
X145150355Y-101794117D01*
X145187006Y-101778626D01*
X145205034Y-101787273D01*
X145202173Y-101831036D01*
X145166401Y-101893965D01*
X145106861Y-101955844D01*
X145010384Y-102032906D01*
X145098091Y-102006826D01*
X145161190Y-101986355D01*
X145430021Y-101865356D01*
X145696122Y-101696870D01*
X145938245Y-101495845D01*
X146135143Y-101277230D01*
X146203160Y-101180877D01*
X146286039Y-101052102D01*
X146366487Y-100917578D01*
X146435320Y-100793298D01*
X146483354Y-100695252D01*
X146501406Y-100639433D01*
X146487003Y-100632244D01*
X146420152Y-100623961D01*
X146317221Y-100620626D01*
X146238920Y-100618339D01*
X146076993Y-100605864D01*
X145922538Y-100586208D01*
X145839390Y-100573797D01*
X145667523Y-100552467D01*
X145512784Y-100537890D01*
X145491856Y-100536190D01*
X145403103Y-100522958D01*
X145311789Y-100496733D01*
X145208911Y-100452766D01*
X145085465Y-100386306D01*
X144932447Y-100292604D01*
X144833049Y-100227394D01*
X146327185Y-100227394D01*
X146440608Y-100247619D01*
X146486440Y-100255160D01*
X146617514Y-100274360D01*
X146798924Y-100299192D01*
X147018142Y-100328074D01*
X147262641Y-100359427D01*
X147519896Y-100391671D01*
X147777380Y-100423228D01*
X148022566Y-100452516D01*
X148242928Y-100477958D01*
X148425940Y-100497972D01*
X148465883Y-100502087D01*
X148669140Y-100521124D01*
X148863964Y-100536572D01*
X149029931Y-100546938D01*
X149146620Y-100550725D01*
X149363622Y-100550725D01*
X149490148Y-100331457D01*
X149563656Y-100202272D01*
X149656908Y-100027933D01*
X149732328Y-99867414D01*
X149802287Y-99693619D01*
X149879155Y-99479455D01*
X149905535Y-99402830D01*
X149999045Y-99115316D01*
X150067766Y-98866956D01*
X150115233Y-98637842D01*
X150144980Y-98408065D01*
X150160542Y-98157715D01*
X150165454Y-97866885D01*
X150163029Y-97611151D01*
X150154484Y-97381036D01*
X150140445Y-97197392D01*
X150121562Y-97072002D01*
X150076234Y-96873528D01*
X149700906Y-96851516D01*
X149562224Y-96842566D01*
X148965153Y-96785378D01*
X148390124Y-96700437D01*
X147852194Y-96590286D01*
X147366423Y-96457467D01*
X147323181Y-96444044D01*
X147202477Y-96408996D01*
X147115432Y-96387381D01*
X147078543Y-96383440D01*
X147077276Y-96395385D01*
X147090237Y-96457360D01*
X147119297Y-96551308D01*
X147135720Y-96607146D01*
X147168275Y-96789382D01*
X147188489Y-97022820D01*
X147195877Y-97294622D01*
X147192362Y-97471142D01*
X147189957Y-97591950D01*
X147170243Y-97901968D01*
X147124250Y-98325920D01*
X147047911Y-98777585D01*
X146947119Y-99171079D01*
X146820380Y-99511065D01*
X146666202Y-99802206D01*
X146483093Y-100049168D01*
X146327185Y-100227394D01*
X144833049Y-100227394D01*
X144740854Y-100166909D01*
X144501682Y-100004472D01*
X144296849Y-99870159D01*
X144247418Y-99840895D01*
X144747262Y-99840895D01*
X144770519Y-99872134D01*
X144837925Y-99930397D01*
X144934015Y-100001109D01*
X145026851Y-100062889D01*
X145106170Y-100111219D01*
X145146102Y-100129731D01*
X145146686Y-100129703D01*
X145157664Y-100096301D01*
X145151072Y-100008192D01*
X145128549Y-99877790D01*
X145091730Y-99717507D01*
X145082588Y-99684326D01*
X145042706Y-99596117D01*
X144992447Y-99568405D01*
X144965617Y-99577093D01*
X144899877Y-99627079D01*
X144828331Y-99702423D01*
X144770839Y-99781052D01*
X144747262Y-99840895D01*
X144247418Y-99840895D01*
X143998473Y-99693515D01*
X143702151Y-99538274D01*
X143424539Y-99412998D01*
X143182292Y-99326248D01*
X143074936Y-99298887D01*
X142850811Y-99263761D01*
X142625811Y-99253171D01*
X142421964Y-99267569D01*
X142261303Y-99307406D01*
X142194223Y-99339432D01*
X142133537Y-99389872D01*
X142078729Y-99470804D01*
X142014868Y-99599953D01*
X141994901Y-99644328D01*
X141892393Y-99934660D01*
X141850035Y-100211516D01*
X141498600Y-100211516D01*
X141490270Y-100094626D01*
X141499500Y-99894542D01*
X141535857Y-99739798D01*
X141539574Y-99717445D01*
X141516093Y-99687730D01*
X141446729Y-99658677D01*
X141319842Y-99624050D01*
X141311853Y-99622045D01*
X141208683Y-99594119D01*
X141050972Y-99549207D01*
X140849923Y-99490599D01*
X140616739Y-99421585D01*
X140362624Y-99345454D01*
X140098781Y-99265496D01*
X139336982Y-99029918D01*
X138558290Y-98780848D01*
X137843591Y-98542589D01*
X137224406Y-98325966D01*
X138221848Y-98325966D01*
X138230133Y-98333277D01*
X138293689Y-98360534D01*
X138413530Y-98402757D01*
X138582022Y-98457712D01*
X138791528Y-98523166D01*
X139034415Y-98596882D01*
X139303045Y-98676627D01*
X139589786Y-98760167D01*
X139887000Y-98845266D01*
X140187054Y-98929691D01*
X140482312Y-99011207D01*
X140765139Y-99087579D01*
X141027899Y-99156574D01*
X141262958Y-99215956D01*
X141725478Y-99329820D01*
X141847368Y-99207930D01*
X141873256Y-99183364D01*
X142054221Y-99065378D01*
X142282975Y-98995202D01*
X142562057Y-98971996D01*
X142654902Y-98974796D01*
X142817959Y-98994018D01*
X142993658Y-99034230D01*
X143191381Y-99098656D01*
X143420511Y-99190516D01*
X143690431Y-99313034D01*
X144010522Y-99469431D01*
X144033831Y-99481072D01*
X144222648Y-99573011D01*
X144386814Y-99648867D01*
X144516917Y-99704585D01*
X144603549Y-99736114D01*
X144637299Y-99739399D01*
X144640920Y-99729812D01*
X144696705Y-99642488D01*
X144782341Y-99555898D01*
X144875433Y-99489601D01*
X144953587Y-99463156D01*
X145030574Y-99472925D01*
X145128362Y-99529292D01*
X145201184Y-99639851D01*
X145251666Y-99809221D01*
X145282430Y-100042023D01*
X145285523Y-100073702D01*
X145292424Y-100096301D01*
X145298634Y-100116635D01*
X145334348Y-100141833D01*
X145408425Y-100157296D01*
X145536627Y-100171023D01*
X145667818Y-100184456D01*
X145805557Y-100200019D01*
X145904997Y-100212850D01*
X145957483Y-100219566D01*
X146007119Y-100216687D01*
X146050682Y-100192488D01*
X146098719Y-100137260D01*
X146161777Y-100041293D01*
X146250403Y-99894879D01*
X146262212Y-99874941D01*
X146376734Y-99659107D01*
X146495449Y-99400732D01*
X146608712Y-99123286D01*
X146706881Y-98850242D01*
X146780312Y-98605071D01*
X146804810Y-98500324D01*
X146848133Y-98257382D01*
X146882027Y-97989400D01*
X146904322Y-97719584D01*
X146912846Y-97471142D01*
X146905430Y-97267281D01*
X146901112Y-97214570D01*
X146891401Y-97045213D01*
X146884513Y-96850876D01*
X146881723Y-96663975D01*
X146881070Y-96309445D01*
X146629843Y-96216929D01*
X146485889Y-96162838D01*
X146321514Y-96099132D01*
X146185660Y-96044565D01*
X145992704Y-95964716D01*
X145921448Y-96091353D01*
X145907463Y-96114751D01*
X145792881Y-96238067D01*
X145650303Y-96301735D01*
X145491966Y-96302721D01*
X145330109Y-96237991D01*
X145303606Y-96218967D01*
X145210182Y-96114231D01*
X145122955Y-95964772D01*
X145051960Y-95790113D01*
X145007232Y-95609779D01*
X145000881Y-95573908D01*
X145133174Y-95573908D01*
X145133185Y-95574955D01*
X145148872Y-95642976D01*
X145187080Y-95747198D01*
X145237096Y-95862811D01*
X145288204Y-95965005D01*
X145329692Y-96028971D01*
X145363437Y-96057339D01*
X145469802Y-96091694D01*
X145592802Y-96079933D01*
X145707310Y-96022488D01*
X145713819Y-96017292D01*
X145774722Y-95959690D01*
X145799748Y-95919002D01*
X145781508Y-95899579D01*
X145712013Y-95853011D01*
X145602688Y-95789324D01*
X145466461Y-95716378D01*
X145354785Y-95660503D01*
X145240078Y-95607516D01*
X145162002Y-95576854D01*
X145133174Y-95573908D01*
X145000881Y-95573908D01*
X144999884Y-95568279D01*
X144982288Y-95510429D01*
X144948997Y-95459797D01*
X144889104Y-95405209D01*
X144791707Y-95335489D01*
X144645899Y-95239461D01*
X144546037Y-95173031D01*
X144376455Y-95054805D01*
X144217659Y-94938276D01*
X144094075Y-94841078D01*
X143879424Y-94661929D01*
X143743246Y-94802488D01*
X143712672Y-94832171D01*
X143603046Y-94925657D01*
X143465254Y-95031358D01*
X143321907Y-95131611D01*
X143036745Y-95320174D01*
X143021174Y-95486342D01*
X143012136Y-95582791D01*
X143006018Y-95642344D01*
X142984499Y-95776297D01*
X142952646Y-95867201D01*
X142904290Y-95935221D01*
X142834715Y-95992066D01*
X142710643Y-96028912D01*
X142579069Y-96001691D01*
X142451464Y-95911015D01*
X142420219Y-95878441D01*
X142355069Y-95801380D01*
X142321616Y-95747755D01*
X142316377Y-95738734D01*
X142284152Y-95729719D01*
X142216947Y-95742245D01*
X142105071Y-95778683D01*
X141938836Y-95841402D01*
X141829179Y-95882993D01*
X141755307Y-95909356D01*
X141647089Y-95947976D01*
X141478002Y-96003926D01*
X141347868Y-96042034D01*
X141301326Y-96053429D01*
X141132825Y-96087899D01*
X140939159Y-96119563D01*
X140730834Y-96147580D01*
X140518357Y-96171106D01*
X140312233Y-96189298D01*
X140122969Y-96201311D01*
X139961072Y-96206304D01*
X139837048Y-96203432D01*
X139761402Y-96191853D01*
X139744642Y-96170722D01*
X139764020Y-96158996D01*
X139840465Y-96131837D01*
X139959750Y-96097682D01*
X140106312Y-96061241D01*
X140274188Y-96021965D01*
X140434541Y-95983145D01*
X140532879Y-95956680D01*
X140572870Y-95940973D01*
X140558183Y-95934430D01*
X140492485Y-95935456D01*
X140379444Y-95942455D01*
X140361269Y-95943656D01*
X139965641Y-95940902D01*
X139710177Y-95908733D01*
X140698010Y-95908733D01*
X140747814Y-95914246D01*
X140796075Y-95909356D01*
X140791668Y-95896551D01*
X140775788Y-95891917D01*
X140703961Y-95896551D01*
X140698010Y-95908733D01*
X139710177Y-95908733D01*
X139542600Y-95887631D01*
X139109110Y-95786851D01*
X138682134Y-95641570D01*
X138599140Y-95609943D01*
X138518383Y-95582983D01*
X138483126Y-95576648D01*
X138485732Y-95612851D01*
X138502506Y-95698424D01*
X138529825Y-95814743D01*
X138545270Y-95885908D01*
X138564653Y-96022162D01*
X138577715Y-96194263D01*
X138585213Y-96413612D01*
X138587900Y-96691609D01*
X138587406Y-96779316D01*
X138586481Y-96943689D01*
X138578590Y-97178261D01*
X138561300Y-97372250D01*
X138531780Y-97541337D01*
X138487198Y-97701205D01*
X138424721Y-97867536D01*
X138341518Y-98056011D01*
X138323767Y-98094591D01*
X138271797Y-98209088D01*
X138235498Y-98291459D01*
X138221848Y-98325966D01*
X137224406Y-98325966D01*
X137190277Y-98314026D01*
X136595736Y-98094045D01*
X136057360Y-97881533D01*
X135572539Y-97675376D01*
X135138664Y-97474460D01*
X134753125Y-97277672D01*
X134413313Y-97083896D01*
X134116617Y-96892020D01*
X133860430Y-96700929D01*
X133642140Y-96509510D01*
X133638080Y-96505616D01*
X133517671Y-96387637D01*
X133439153Y-96301525D01*
X133392544Y-96232610D01*
X133367863Y-96166225D01*
X133355130Y-96087702D01*
X133355067Y-96087148D01*
X133359122Y-96031682D01*
X133625991Y-96031682D01*
X133638617Y-96075859D01*
X133706707Y-96165204D01*
X133834748Y-96282144D01*
X134023825Y-96427636D01*
X134275024Y-96602634D01*
X134441757Y-96711368D01*
X134706184Y-96870714D01*
X134993438Y-97028100D01*
X135309927Y-97186443D01*
X135662063Y-97348658D01*
X136056256Y-97517660D01*
X136498915Y-97696365D01*
X136996450Y-97887688D01*
X137555273Y-98094545D01*
X137682116Y-98140892D01*
X137821203Y-98192020D01*
X137926669Y-98231141D01*
X137982348Y-98252284D01*
X138005641Y-98258544D01*
X138040889Y-98248976D01*
X138074499Y-98206374D01*
X138110821Y-98121903D01*
X138154208Y-97986729D01*
X138209008Y-97792018D01*
X138234365Y-97696420D01*
X138261306Y-97580904D01*
X138280257Y-97470536D01*
X138292638Y-97350255D01*
X138299870Y-97205000D01*
X138303376Y-97019707D01*
X138304577Y-96779316D01*
X138304239Y-96583877D01*
X138300799Y-96367410D01*
X138292853Y-96193239D01*
X138279225Y-96045326D01*
X138258741Y-95907635D01*
X138230227Y-95764128D01*
X138224869Y-95739499D01*
X138189562Y-95586254D01*
X138158186Y-95481781D01*
X138122381Y-95408304D01*
X138073786Y-95348047D01*
X138004041Y-95283234D01*
X137938522Y-95227784D01*
X137865281Y-95171757D01*
X137825698Y-95149458D01*
X137783848Y-95127225D01*
X137720450Y-95074599D01*
X137690821Y-95049039D01*
X137644861Y-95024731D01*
X137580340Y-95013811D01*
X137480163Y-95014045D01*
X137327234Y-95023200D01*
X137075237Y-95042112D01*
X136549216Y-95090857D01*
X136052383Y-95149533D01*
X135590590Y-95217035D01*
X135169683Y-95292263D01*
X134795512Y-95374112D01*
X134473926Y-95461480D01*
X134210773Y-95553265D01*
X134011903Y-95648362D01*
X133941238Y-95693824D01*
X133825343Y-95784243D01*
X133724381Y-95880416D01*
X133653036Y-95967757D01*
X133625991Y-96031682D01*
X133359122Y-96031682D01*
X133368553Y-95902679D01*
X133450760Y-95728294D01*
X133600895Y-95564549D01*
X133818166Y-95412002D01*
X134101780Y-95271209D01*
X134450945Y-95142728D01*
X134864867Y-95027115D01*
X134952919Y-95007631D01*
X137800853Y-95007631D01*
X137803935Y-95020551D01*
X137844707Y-95043193D01*
X137886299Y-95047653D01*
X137968018Y-95064963D01*
X137984298Y-95069040D01*
X138029207Y-95068800D01*
X138025660Y-95029401D01*
X138018279Y-95017131D01*
X137966031Y-94985894D01*
X137947083Y-94982287D01*
X138271083Y-94982287D01*
X138274534Y-95028810D01*
X138290765Y-95068800D01*
X138305380Y-95104807D01*
X138311159Y-95115616D01*
X138342589Y-95159836D01*
X138389816Y-95196013D01*
X138465931Y-95230324D01*
X138584021Y-95268950D01*
X138757179Y-95318069D01*
X138810916Y-95332823D01*
X139024109Y-95390313D01*
X139179038Y-95429616D01*
X139283137Y-95452139D01*
X139343843Y-95459290D01*
X139368589Y-95452477D01*
X139364811Y-95433107D01*
X139348593Y-95399409D01*
X139310612Y-95310066D01*
X139258968Y-95182781D01*
X139200003Y-95032948D01*
X139189213Y-95005249D01*
X139131230Y-94862408D01*
X139093497Y-94782817D01*
X139074412Y-94763574D01*
X139072372Y-94801778D01*
X139083867Y-94929212D01*
X138688632Y-94944341D01*
X138547354Y-94951052D01*
X138410597Y-94960526D01*
X138314010Y-94970703D01*
X138272577Y-94980290D01*
X138271083Y-94982287D01*
X137947083Y-94982287D01*
X137893321Y-94972053D01*
X137828734Y-94978376D01*
X137800853Y-95007631D01*
X134952919Y-95007631D01*
X135287922Y-94933502D01*
X135859260Y-94831700D01*
X136481150Y-94744977D01*
X137143429Y-94674717D01*
X137835936Y-94622306D01*
X138095226Y-94606513D01*
X138366894Y-94589868D01*
X138580601Y-94576209D01*
X138743091Y-94564660D01*
X138861108Y-94554344D01*
X138941394Y-94544383D01*
X138990693Y-94533899D01*
X139015750Y-94522017D01*
X139023307Y-94507858D01*
X139020108Y-94490545D01*
X139012897Y-94469202D01*
X139012221Y-94466893D01*
X138978966Y-94316902D01*
X138951133Y-94125091D01*
X138932015Y-93919233D01*
X138924905Y-93727106D01*
X138934201Y-93483073D01*
X139001031Y-93039898D01*
X139130577Y-92620648D01*
X139320802Y-92231170D01*
X139569666Y-91877311D01*
X139649543Y-91786278D01*
X139810479Y-91621224D01*
X139992921Y-91450800D01*
X140180164Y-91289741D01*
X140355503Y-91152783D01*
X140502234Y-91054663D01*
X140562066Y-91019770D01*
X140636008Y-90976315D01*
X140668325Y-90956825D01*
X140668871Y-90954900D01*
X140663408Y-90908899D01*
X140646433Y-90814910D01*
X140620986Y-90690067D01*
X140601088Y-90579233D01*
X140579539Y-90284788D01*
X140597446Y-89985202D01*
X140629502Y-89813201D01*
X141729333Y-89813201D01*
X141749980Y-89970233D01*
X141831212Y-90136425D01*
X141894588Y-90224851D01*
X142002912Y-90339347D01*
X142111394Y-90417770D01*
X142204105Y-90446858D01*
X142214282Y-90445858D01*
X142285242Y-90416504D01*
X142368025Y-90359150D01*
X142427380Y-90314067D01*
X142519644Y-90274684D01*
X142585800Y-90298353D01*
X142629702Y-90385463D01*
X142666963Y-90464761D01*
X142763929Y-90548299D01*
X142769892Y-90551154D01*
X142839060Y-90576956D01*
X142886522Y-90562530D01*
X142943440Y-90499381D01*
X143008439Y-90436567D01*
X143072204Y-90426146D01*
X143140346Y-90475927D01*
X143222254Y-90588926D01*
X143284719Y-90676870D01*
X143335582Y-90714556D01*
X143390395Y-90712548D01*
X143459195Y-90693293D01*
X143565925Y-90668870D01*
X143631338Y-90669280D01*
X143672793Y-90696770D01*
X143707653Y-90753585D01*
X143736910Y-90802427D01*
X143851370Y-90933533D01*
X143995172Y-91043979D01*
X144141123Y-91111323D01*
X144220864Y-91128403D01*
X144416033Y-91144316D01*
X144626142Y-91135061D01*
X144817428Y-91101148D01*
X144823761Y-91099412D01*
X144992747Y-91037175D01*
X145168354Y-90946542D01*
X145338692Y-90836766D01*
X145491873Y-90717099D01*
X145616008Y-90596792D01*
X145699207Y-90485100D01*
X145729582Y-90391274D01*
X145715331Y-90305672D01*
X145647175Y-90173668D01*
X145520677Y-90023932D01*
X145333510Y-89853836D01*
X145083348Y-89660750D01*
X145024484Y-89623185D01*
X146329757Y-89623185D01*
X146357869Y-89646257D01*
X146442047Y-89670766D01*
X146488323Y-89647164D01*
X146501406Y-89567118D01*
X146501406Y-89459201D01*
X146401723Y-89540805D01*
X146349500Y-89587085D01*
X146346536Y-89592504D01*
X146329757Y-89623185D01*
X145024484Y-89623185D01*
X144934019Y-89565453D01*
X144655060Y-89432172D01*
X144320611Y-89314888D01*
X144181910Y-89278940D01*
X145360674Y-89278940D01*
X145606523Y-89407336D01*
X145614238Y-89411342D01*
X145757680Y-89479111D01*
X145899567Y-89535781D01*
X146010245Y-89569443D01*
X146117051Y-89590873D01*
X146193771Y-89601042D01*
X146211085Y-89592504D01*
X146173602Y-89565136D01*
X146131764Y-89534937D01*
X146084636Y-89476176D01*
X146048656Y-89390060D01*
X146022126Y-89268036D01*
X146003350Y-89101553D01*
X145990630Y-88882058D01*
X145982269Y-88601001D01*
X145975320Y-88276868D01*
X146157400Y-88276868D01*
X146158498Y-88417172D01*
X146200231Y-88568227D01*
X146214418Y-88599430D01*
X146285654Y-88699106D01*
X146367050Y-88738810D01*
X146450126Y-88713610D01*
X146479476Y-88681557D01*
X146511196Y-88594965D01*
X146529337Y-88452098D01*
X146531213Y-88327854D01*
X146503926Y-88181639D01*
X146441307Y-88091805D01*
X146344713Y-88061222D01*
X146261015Y-88085006D01*
X146192914Y-88161438D01*
X146157400Y-88276868D01*
X145975320Y-88276868D01*
X145967893Y-87930420D01*
X145843292Y-87871002D01*
X145829296Y-87864303D01*
X145772020Y-87839228D01*
X145729733Y-87834637D01*
X145694453Y-87859553D01*
X145658199Y-87922997D01*
X145612989Y-88033990D01*
X145550841Y-88201554D01*
X145516176Y-88302331D01*
X145446245Y-88576260D01*
X145400815Y-88889349D01*
X145360674Y-89278940D01*
X144181910Y-89278940D01*
X143938890Y-89215955D01*
X143518114Y-89137732D01*
X143066501Y-89082572D01*
X143053462Y-89081394D01*
X142719107Y-89071343D01*
X142436109Y-89105933D01*
X142200788Y-89186403D01*
X142009466Y-89313994D01*
X141858461Y-89489948D01*
X141769873Y-89651032D01*
X141729333Y-89813201D01*
X140629502Y-89813201D01*
X140651580Y-89694740D01*
X140738709Y-89427668D01*
X140855603Y-89198248D01*
X140999033Y-89020747D01*
X141021140Y-89000497D01*
X141180516Y-88875120D01*
X141374787Y-88747096D01*
X141576974Y-88633117D01*
X141760102Y-88549873D01*
X141840063Y-88521764D01*
X141919068Y-88501641D01*
X142007962Y-88489927D01*
X142121788Y-88485453D01*
X142275591Y-88487048D01*
X142484417Y-88493542D01*
X142799816Y-88511314D01*
X143130074Y-88548725D01*
X143451419Y-88608645D01*
X143786947Y-88695489D01*
X144159755Y-88813669D01*
X144607193Y-88965361D01*
X144676841Y-88807911D01*
X144694118Y-88767981D01*
X144763575Y-88574907D01*
X144798187Y-88396069D01*
X144795692Y-88220632D01*
X144753824Y-88037760D01*
X144670321Y-87836618D01*
X144542919Y-87606371D01*
X144369354Y-87336185D01*
X144301725Y-87234427D01*
X144134912Y-86968565D01*
X144007628Y-86735531D01*
X143974541Y-86659546D01*
X144361350Y-86659546D01*
X144366761Y-86723171D01*
X144389545Y-86809461D01*
X144434733Y-86920016D01*
X144507226Y-87066599D01*
X144611925Y-87260972D01*
X144719050Y-87457640D01*
X144830125Y-87670732D01*
X144911758Y-87843121D01*
X144968101Y-87985618D01*
X145003304Y-88109036D01*
X145021519Y-88224188D01*
X145026897Y-88341885D01*
X145026692Y-88380732D01*
X145007932Y-88611151D01*
X144956650Y-88791094D01*
X144869725Y-88932284D01*
X144784388Y-89033702D01*
X144914927Y-89087157D01*
X144922302Y-89090181D01*
X145047815Y-89142592D01*
X145168256Y-89194158D01*
X145291046Y-89247704D01*
X145278929Y-88938991D01*
X145278126Y-88818508D01*
X145309987Y-88493504D01*
X145386096Y-88173826D01*
X145500447Y-87887972D01*
X145584834Y-87721443D01*
X145413346Y-87590665D01*
X145380058Y-87564583D01*
X145197557Y-87402226D01*
X145005490Y-87204456D01*
X144824005Y-86993074D01*
X144673254Y-86789884D01*
X144659414Y-86769252D01*
X144591081Y-86667470D01*
X144542193Y-86594784D01*
X144522563Y-86565788D01*
X144502511Y-86557481D01*
X144440287Y-86537111D01*
X144422142Y-86531878D01*
X144381495Y-86530995D01*
X144364668Y-86568220D01*
X144361350Y-86659546D01*
X143974541Y-86659546D01*
X143914239Y-86521061D01*
X143849112Y-86310887D01*
X143806616Y-86090747D01*
X143781118Y-85846373D01*
X143772221Y-85710777D01*
X143771382Y-85676096D01*
X144390940Y-85676096D01*
X144492750Y-85807402D01*
X144506082Y-85825143D01*
X144570953Y-85917907D01*
X144659656Y-86050878D01*
X144762258Y-86209008D01*
X144868826Y-86377244D01*
X144895897Y-86420295D01*
X145142072Y-86788054D01*
X145377395Y-87092828D01*
X145607309Y-87339245D01*
X145837256Y-87531933D01*
X146072678Y-87675521D01*
X146186812Y-87721443D01*
X146319019Y-87774637D01*
X146581721Y-87833909D01*
X146655957Y-87844259D01*
X146718707Y-87844953D01*
X146742961Y-87821888D01*
X146746986Y-87767748D01*
X146745597Y-87751316D01*
X146728153Y-87665850D01*
X146693853Y-87533789D01*
X146646667Y-87369834D01*
X146590566Y-87188685D01*
X146579270Y-87153023D01*
X146519285Y-86950105D01*
X146466038Y-86748807D01*
X146424955Y-86570684D01*
X146401461Y-86437291D01*
X146392903Y-86353972D01*
X146387782Y-86150360D01*
X146405440Y-85973732D01*
X146443434Y-85834581D01*
X146499320Y-85743396D01*
X146570656Y-85710670D01*
X146576656Y-85710781D01*
X146605282Y-85717900D01*
X146627062Y-85743521D01*
X146644408Y-85797940D01*
X146659732Y-85891449D01*
X146675445Y-86034342D01*
X146693959Y-86236913D01*
X146697264Y-86267744D01*
X146718255Y-86402931D01*
X146752234Y-86580246D01*
X146795297Y-86780192D01*
X146843534Y-86983276D01*
X146880521Y-87131860D01*
X146918416Y-87290378D01*
X146941736Y-87405204D01*
X146951940Y-87490520D01*
X146950488Y-87560509D01*
X146938840Y-87629357D01*
X146918456Y-87711246D01*
X146896153Y-87810267D01*
X146885908Y-87890223D01*
X146893118Y-87920891D01*
X146921225Y-87925938D01*
X146923208Y-87949544D01*
X146882842Y-87980194D01*
X146813353Y-88004095D01*
X146798033Y-88007386D01*
X146731347Y-88035598D01*
X146724680Y-88079000D01*
X146771292Y-88246017D01*
X146782294Y-88327854D01*
X146803131Y-88482841D01*
X146811498Y-88745581D01*
X146796779Y-89012786D01*
X146759359Y-89263007D01*
X146699623Y-89474797D01*
X146690339Y-89499375D01*
X146667549Y-89567118D01*
X146647937Y-89625414D01*
X146635547Y-89699014D01*
X146651519Y-89728886D01*
X146654142Y-89729846D01*
X146712245Y-89750459D01*
X146814285Y-89786200D01*
X146939942Y-89829949D01*
X147106012Y-89888452D01*
X147252815Y-89943064D01*
X147347562Y-89983111D01*
X147398422Y-90012105D01*
X147413560Y-90033555D01*
X147410540Y-90044223D01*
X147380474Y-90057387D01*
X147312172Y-90056001D01*
X147198262Y-90039116D01*
X147031372Y-90005783D01*
X146804129Y-89955050D01*
X146768168Y-89946784D01*
X146595677Y-89907172D01*
X146447036Y-89873098D01*
X146337089Y-89847962D01*
X146280678Y-89835163D01*
X146258264Y-89838785D01*
X146275508Y-89878510D01*
X146343787Y-89960599D01*
X146403845Y-90030802D01*
X146529868Y-90201765D01*
X146642748Y-90384834D01*
X146646026Y-90391274D01*
X146733947Y-90564026D01*
X146794927Y-90723355D01*
X146817151Y-90846837D01*
X146818788Y-90852788D01*
X146862635Y-90889985D01*
X146955097Y-90938372D01*
X147081211Y-90989844D01*
X147167892Y-91024059D01*
X147453524Y-91167790D01*
X147759537Y-91363403D01*
X148076400Y-91603317D01*
X148394582Y-91879955D01*
X148704551Y-92185738D01*
X148996776Y-92513085D01*
X149026721Y-92549096D01*
X149218415Y-92788867D01*
X149383320Y-93015642D01*
X149534270Y-93249104D01*
X149684101Y-93508934D01*
X149845646Y-93814813D01*
X149890502Y-93902398D01*
X149969248Y-94055823D01*
X150032950Y-94179492D01*
X150075981Y-94262496D01*
X150092715Y-94293925D01*
X150097768Y-94290492D01*
X150138292Y-94250306D01*
X150210143Y-94174344D01*
X150302361Y-94074099D01*
X150336987Y-94037384D01*
X150510548Y-93878275D01*
X150719351Y-93716207D01*
X150943062Y-93565144D01*
X151161347Y-93439052D01*
X151353874Y-93351898D01*
X151560619Y-93276515D01*
X151373049Y-93219979D01*
X151275544Y-93185989D01*
X151191144Y-93137838D01*
X151174754Y-93092322D01*
X151225103Y-93050308D01*
X151340915Y-93012663D01*
X151520918Y-92980253D01*
X151763837Y-92953947D01*
X151805335Y-92950296D01*
X152152658Y-92904132D01*
X152444568Y-92835321D01*
X152675133Y-92745221D01*
X152755350Y-92702139D01*
X152823031Y-92659512D01*
X152843137Y-92637116D01*
X152825260Y-92635308D01*
X152755849Y-92647887D01*
X152655463Y-92675659D01*
X152585373Y-92694697D01*
X152413104Y-92726637D01*
X152222130Y-92747434D01*
X152034184Y-92755780D01*
X151871000Y-92750368D01*
X151754310Y-92729890D01*
X151688133Y-92700789D01*
X151555648Y-92600124D01*
X151450185Y-92465701D01*
X151392658Y-92321157D01*
X151389700Y-92303505D01*
X151396983Y-92122328D01*
X151467604Y-91938804D01*
X151596121Y-91760662D01*
X151777093Y-91595629D01*
X152005078Y-91451432D01*
X152049766Y-91429260D01*
X152192076Y-91366568D01*
X152374423Y-91293461D01*
X152578057Y-91217304D01*
X152784224Y-91145462D01*
X152881519Y-91112442D01*
X153081107Y-91041788D01*
X153265101Y-90973058D01*
X153416419Y-90912727D01*
X153517980Y-90867272D01*
X153711886Y-90758093D01*
X154021509Y-90524475D01*
X154279926Y-90243127D01*
X154487674Y-89913414D01*
X154645288Y-89534703D01*
X154671066Y-89447361D01*
X154696450Y-89326702D01*
X154714591Y-89182832D01*
X154727340Y-89000106D01*
X154736546Y-88762880D01*
X154737632Y-88392577D01*
X154697646Y-87805535D01*
X154607677Y-87241349D01*
X154469595Y-86708265D01*
X154285274Y-86214526D01*
X154056584Y-85768376D01*
X154049003Y-85755731D01*
X153970661Y-85630453D01*
X153879001Y-85491138D01*
X153782601Y-85349942D01*
X153690035Y-85219020D01*
X153609881Y-85110526D01*
X153550715Y-85036617D01*
X153521112Y-85009447D01*
X153515286Y-85012005D01*
X153477483Y-85052519D01*
X153424890Y-85126576D01*
X153401091Y-85163775D01*
X153369781Y-85227045D01*
X153375241Y-85277837D01*
X153416193Y-85348855D01*
X153420049Y-85355053D01*
X153486635Y-85498657D01*
X153543283Y-85686683D01*
X153588284Y-85903263D01*
X153619929Y-86132526D01*
X153636510Y-86358605D01*
X153636318Y-86565629D01*
X153617644Y-86737731D01*
X153578781Y-86859040D01*
X153578407Y-86859723D01*
X153487767Y-86969743D01*
X153365576Y-87048676D01*
X153239059Y-87078902D01*
X153227451Y-87078288D01*
X153176400Y-87046497D01*
X153171557Y-86977132D01*
X153214774Y-86884982D01*
X153220731Y-86875917D01*
X153274462Y-86751811D01*
X153313735Y-86585279D01*
X153334203Y-86400940D01*
X153331522Y-86223420D01*
X153328740Y-86198524D01*
X153309248Y-86080978D01*
X153279063Y-85939353D01*
X153242959Y-85792249D01*
X153205708Y-85658264D01*
X153172087Y-85555999D01*
X153146869Y-85504051D01*
X153140510Y-85503285D01*
X153093209Y-85526111D01*
X153019004Y-85576799D01*
X152939884Y-85633273D01*
X152848492Y-85683518D01*
X152797239Y-85684677D01*
X152781240Y-85638005D01*
X152782990Y-85612904D01*
X152795621Y-85561439D01*
X152824044Y-85491316D01*
X152872464Y-85394323D01*
X152945090Y-85262246D01*
X153046129Y-85086871D01*
X153179789Y-84859986D01*
X153202483Y-84821516D01*
X153308622Y-84637289D01*
X153409729Y-84455503D01*
X153495306Y-84295312D01*
X153554849Y-84175870D01*
X153587580Y-84103183D01*
X153711508Y-83790434D01*
X153834862Y-83422812D01*
X153954095Y-83012302D01*
X154065661Y-82570888D01*
X154166013Y-82110555D01*
X154191841Y-81982710D01*
X154237948Y-81758122D01*
X154279904Y-81558255D01*
X154315347Y-81394140D01*
X154341915Y-81276803D01*
X154357248Y-81217274D01*
X154363469Y-81194811D01*
X154363791Y-81130578D01*
X154333096Y-81051079D01*
X154264901Y-80936611D01*
X154235153Y-80888301D01*
X154148518Y-80733465D01*
X154042036Y-80528269D01*
X153920654Y-80282830D01*
X153789319Y-80007264D01*
X153652978Y-79711690D01*
X153516579Y-79406224D01*
X153467275Y-79293905D01*
X153203194Y-79314149D01*
X153184748Y-79315491D01*
X152939674Y-79315543D01*
X152711074Y-79276908D01*
X152636746Y-79256621D01*
X152434983Y-79186300D01*
X152249455Y-79100941D01*
X152090477Y-79007159D01*
X151968364Y-78911569D01*
X151893430Y-78820783D01*
X151875990Y-78741418D01*
X151886645Y-78714099D01*
X151926468Y-78688109D01*
X151999886Y-78688747D01*
X152114067Y-78717443D01*
X152276178Y-78775629D01*
X152493383Y-78864737D01*
X152654172Y-78929935D01*
X152849979Y-79001115D01*
X153027294Y-79056961D01*
X153174674Y-79094264D01*
X153280677Y-79109816D01*
X153333859Y-79100408D01*
X153335112Y-79098841D01*
X153326693Y-79053770D01*
X153279324Y-78969105D01*
X153201267Y-78855685D01*
X153100786Y-78724349D01*
X152986144Y-78585936D01*
X152865605Y-78451284D01*
X152747433Y-78331231D01*
X152693009Y-78279844D01*
X152522040Y-78126753D01*
X152338008Y-77975577D01*
X152128947Y-77817139D01*
X151882892Y-77642259D01*
X151587875Y-77441757D01*
X151475041Y-77365620D01*
X151324343Y-77259917D01*
X151223053Y-77181180D01*
X151164503Y-77123406D01*
X151142020Y-77080592D01*
X151148936Y-77046737D01*
X151192517Y-77015664D01*
X151287590Y-77018497D01*
X151422285Y-77065284D01*
X151591264Y-77152618D01*
X151789193Y-77277091D01*
X152010737Y-77435294D01*
X152250559Y-77623819D01*
X152503325Y-77839258D01*
X152763698Y-78078203D01*
X153079444Y-78378501D01*
X153148131Y-78281948D01*
X153225273Y-78186956D01*
X153350473Y-78052867D01*
X153504332Y-77900490D01*
X153672879Y-77742860D01*
X153842141Y-77593012D01*
X153998148Y-77463978D01*
X154126929Y-77368795D01*
X154210262Y-77313765D01*
X154388157Y-77204748D01*
X154544900Y-77127194D01*
X154698711Y-77075917D01*
X154867810Y-77045732D01*
X155070415Y-77031454D01*
X155324748Y-77027898D01*
X155403530Y-77027981D01*
X155592040Y-77029769D01*
X155737988Y-77036048D01*
X155861883Y-77049622D01*
X155984235Y-77073298D01*
X156125556Y-77109881D01*
X156306354Y-77162177D01*
X156498886Y-77220008D01*
X156708826Y-77285086D01*
X156902055Y-77346852D01*
X157053198Y-77397314D01*
X157344678Y-77498310D01*
X157273881Y-77398885D01*
X157225551Y-77338032D01*
X157099639Y-77205659D01*
X156932562Y-77050573D01*
X156735933Y-76882251D01*
X156521359Y-76710169D01*
X156300451Y-76543803D01*
X156084820Y-76392629D01*
X155886074Y-76266124D01*
X155710176Y-76164815D01*
X155259147Y-75939035D01*
X154811215Y-75767560D01*
X154354324Y-75647662D01*
X153876420Y-75576615D01*
X153365449Y-75551691D01*
X152809356Y-75570165D01*
X152596293Y-75586037D01*
X152266137Y-75619343D01*
X151986258Y-75661899D01*
X151744023Y-75716814D01*
X151526802Y-75787197D01*
X151321964Y-75876158D01*
X151116878Y-75986807D01*
X150950349Y-76095747D01*
X150762698Y-76247785D01*
X150600632Y-76410904D01*
X150473409Y-76574418D01*
X150390286Y-76727641D01*
X150360522Y-76859886D01*
X150368359Y-76935710D01*
X150402297Y-77086222D01*
X150459553Y-77281389D01*
X150536279Y-77510386D01*
X150628626Y-77762388D01*
X150732743Y-78026570D01*
X150844782Y-78292108D01*
X150960893Y-78548177D01*
X150978320Y-78585308D01*
X151173746Y-79027237D01*
X151362007Y-79497825D01*
X151538217Y-79982307D01*
X151697492Y-80465917D01*
X151834945Y-80933888D01*
X151945692Y-81371453D01*
X152024845Y-81763847D01*
X152053518Y-81948220D01*
X152091705Y-82264960D01*
X152115848Y-82572840D01*
X152125942Y-82861880D01*
X152121982Y-83122098D01*
X152103964Y-83343517D01*
X152071882Y-83516156D01*
X152025732Y-83630034D01*
X152020144Y-83638376D01*
X151965947Y-83694316D01*
X151919321Y-83688036D01*
X151876961Y-83616900D01*
X151835566Y-83478273D01*
X151805232Y-83366156D01*
X151767927Y-83286636D01*
X151708713Y-83227916D01*
X151609422Y-83164812D01*
X151582880Y-83147961D01*
X151479908Y-83071527D01*
X151346649Y-82961863D01*
X151197419Y-82831018D01*
X151046532Y-82691041D01*
X150913268Y-82566524D01*
X150753202Y-82423764D01*
X150599824Y-82293497D01*
X150462027Y-82182830D01*
X150348705Y-82098869D01*
X150268751Y-82048719D01*
X150231059Y-82039487D01*
X150232197Y-82058264D01*
X150254121Y-82126097D01*
X150294042Y-82223729D01*
X150322110Y-82303625D01*
X150352117Y-82428684D01*
X150375688Y-82568205D01*
X150391055Y-82705598D01*
X150396452Y-82824275D01*
X150390110Y-82907646D01*
X150370263Y-82939123D01*
X150351591Y-82932170D01*
X150283246Y-82892471D01*
X150180932Y-82825452D01*
X150058781Y-82740143D01*
X149681547Y-82498607D01*
X149305121Y-82320231D01*
X148921479Y-82203824D01*
X148519618Y-82146056D01*
X148088536Y-82143595D01*
X147946439Y-82152538D01*
X147805316Y-82164471D01*
X147702880Y-82176654D01*
X147654841Y-82187498D01*
X147652302Y-82190602D01*
X147678097Y-82215046D01*
X147754594Y-82251866D01*
X147868414Y-82294367D01*
X148004864Y-82344476D01*
X148190647Y-82421335D01*
X148354869Y-82497601D01*
X148397085Y-82519654D01*
X148538882Y-82602001D01*
X148696794Y-82703284D01*
X148860026Y-82815473D01*
X149017785Y-82930538D01*
X149159276Y-83040447D01*
X149266716Y-83131263D01*
X149273705Y-83137171D01*
X149350278Y-83212678D01*
X149378201Y-83258938D01*
X149377865Y-83260927D01*
X149341742Y-83276620D01*
X149264182Y-83280735D01*
X149189344Y-83282609D01*
X149060543Y-83291243D01*
X148898114Y-83305278D01*
X148720466Y-83323273D01*
X148646164Y-83331143D01*
X148509640Y-83343507D01*
X148384221Y-83350326D01*
X148258402Y-83350948D01*
X148120677Y-83344721D01*
X147959540Y-83330994D01*
X147763486Y-83309114D01*
X147521009Y-83278430D01*
X147220605Y-83238290D01*
X147197659Y-83235256D01*
X146942688Y-83209314D01*
X146671659Y-83193757D01*
X146405865Y-83189007D01*
X146166601Y-83195486D01*
X145975163Y-83213616D01*
X145961268Y-83215719D01*
X145899438Y-83226619D01*
X145880960Y-83236162D01*
X145912396Y-83246903D01*
X146000310Y-83261399D01*
X146151264Y-83282206D01*
X146283140Y-83301904D01*
X146575005Y-83358232D01*
X146864541Y-83429849D01*
X147140518Y-83512872D01*
X147391706Y-83603419D01*
X147606876Y-83697607D01*
X147613488Y-83701306D01*
X147774798Y-83791554D01*
X147884242Y-83881377D01*
X147951470Y-83957401D01*
X147831618Y-83952351D01*
X147821617Y-83952098D01*
X147718369Y-83957114D01*
X147565473Y-83972191D01*
X147379795Y-83994991D01*
X147178198Y-84023176D01*
X146977549Y-84054406D01*
X146794711Y-84086345D01*
X146646550Y-84116654D01*
X146549880Y-84140415D01*
X146100052Y-84294540D01*
X145667818Y-84515915D01*
X145254820Y-84803581D01*
X144862701Y-85156580D01*
X144852834Y-85166566D01*
X144724552Y-85298121D01*
X144609036Y-85419515D01*
X144518605Y-85517634D01*
X144465579Y-85579364D01*
X144390940Y-85676096D01*
X143771382Y-85676096D01*
X143769525Y-85599390D01*
X143777454Y-85525664D01*
X143798179Y-85472109D01*
X143833868Y-85421236D01*
X143882435Y-85370648D01*
X143980710Y-85326808D01*
X144086736Y-85352424D01*
X144201237Y-85447548D01*
X144240711Y-85489558D01*
X144311591Y-85553891D01*
X144349875Y-85565082D01*
X144361350Y-85525965D01*
X144364173Y-85506046D01*
X144395871Y-85422646D01*
X144453343Y-85312507D01*
X144524733Y-85197064D01*
X144598187Y-85097752D01*
X144657664Y-85033049D01*
X144772390Y-84920837D01*
X144914543Y-84790499D01*
X145068418Y-84656348D01*
X145218308Y-84532693D01*
X145353831Y-84424744D01*
X144971610Y-84099546D01*
X144628962Y-83822534D01*
X144221446Y-83535141D01*
X143828959Y-83307740D01*
X143446023Y-83137228D01*
X143067160Y-83020503D01*
X142807913Y-82958291D01*
X142550134Y-83231552D01*
X142401720Y-83398421D01*
X142190357Y-83670830D01*
X141977102Y-83988185D01*
X141756884Y-84358186D01*
X141524629Y-84788534D01*
X141393230Y-85036616D01*
X141239966Y-85306115D01*
X141094585Y-85533228D01*
X140947270Y-85730892D01*
X140788202Y-85912047D01*
X140607565Y-86089631D01*
X140395542Y-86276582D01*
X140200179Y-86430510D01*
X139894002Y-86635902D01*
X139562181Y-86823530D01*
X139215744Y-86989133D01*
X138865720Y-87128448D01*
X138523135Y-87237213D01*
X138199019Y-87311166D01*
X137904398Y-87346045D01*
X137650301Y-87337587D01*
X137485107Y-87314945D01*
X137485107Y-87602382D01*
X137486331Y-87705585D01*
X137494398Y-87846192D01*
X137512903Y-87982846D01*
X137545174Y-88133042D01*
X137594542Y-88314272D01*
X137664337Y-88544031D01*
X137698238Y-88653323D01*
X137737397Y-88785648D01*
X137757349Y-88869157D01*
X137759578Y-88915000D01*
X137745568Y-88934329D01*
X137716803Y-88938294D01*
X137678392Y-88918183D01*
X137610790Y-88840783D01*
X137526325Y-88712851D01*
X137430229Y-88542461D01*
X137327730Y-88337685D01*
X137272441Y-88211218D01*
X137182820Y-87929855D01*
X137144360Y-87665544D01*
X137159418Y-87430979D01*
X137194439Y-87253856D01*
X137076869Y-87181193D01*
X137057595Y-87168927D01*
X136978431Y-87110859D01*
X136932769Y-87064994D01*
X136909207Y-87038961D01*
X136838571Y-86979802D01*
X136743635Y-86910941D01*
X136685194Y-86868593D01*
X136573162Y-86775373D01*
X136487842Y-86689678D01*
X136464560Y-86662872D01*
X136409897Y-86607785D01*
X136382100Y-86592107D01*
X136367483Y-86617046D01*
X136324810Y-86695463D01*
X136259838Y-86817131D01*
X136178058Y-86971762D01*
X136084957Y-87149068D01*
X136004817Y-87300241D01*
X135875745Y-87533505D01*
X135770455Y-87709449D01*
X135689872Y-87827218D01*
X135634923Y-87885959D01*
X135606534Y-87884815D01*
X135605631Y-87822933D01*
X135633141Y-87699457D01*
X135689990Y-87513533D01*
X135733357Y-87387561D01*
X135825121Y-87147648D01*
X135922548Y-86922185D01*
X136019372Y-86724419D01*
X136109325Y-86567593D01*
X136186141Y-86464952D01*
X136286987Y-86359703D01*
X136204546Y-86114123D01*
X136108209Y-85740831D01*
X136055816Y-85301677D01*
X136057252Y-84837887D01*
X136111428Y-84358723D01*
X136217258Y-83873444D01*
X136373653Y-83391310D01*
X136579527Y-82921581D01*
X136789506Y-82538663D01*
X137063492Y-82107987D01*
X137265960Y-81825673D01*
X138046299Y-81825673D01*
X138177927Y-81802872D01*
X138258107Y-81789430D01*
X138604548Y-81745089D01*
X138910111Y-81734563D01*
X139193201Y-81760564D01*
X139472227Y-81825805D01*
X139765594Y-81932996D01*
X140091709Y-82084851D01*
X140493398Y-82306333D01*
X140989195Y-82644517D01*
X141450820Y-83039758D01*
X141504026Y-83089517D01*
X141594631Y-83162484D01*
X141672134Y-83194237D01*
X141760476Y-83191477D01*
X141883599Y-83160905D01*
X141971356Y-83133083D01*
X142066178Y-83087172D01*
X142148961Y-83017751D01*
X142244846Y-82907161D01*
X142329485Y-82804785D01*
X142601357Y-82502918D01*
X142883352Y-82226610D01*
X143162041Y-81988461D01*
X143423994Y-81801066D01*
X143525197Y-81740945D01*
X143778143Y-81617419D01*
X144050665Y-81515126D01*
X144327406Y-81437942D01*
X144593008Y-81389746D01*
X144832112Y-81374413D01*
X145029360Y-81395821D01*
X145106825Y-81419346D01*
X145227008Y-81486861D01*
X145290744Y-81574595D01*
X145291295Y-81675356D01*
X145259261Y-81736560D01*
X145199184Y-81788221D01*
X145100721Y-81835271D01*
X144953528Y-81882653D01*
X144747262Y-81935311D01*
X144647716Y-81959745D01*
X144464818Y-82007817D01*
X144296891Y-82055539D01*
X144170697Y-82095478D01*
X144123199Y-82112827D01*
X143974828Y-82175167D01*
X143818142Y-82250735D01*
X143663385Y-82333345D01*
X143520799Y-82416806D01*
X143400627Y-82494932D01*
X143313112Y-82561532D01*
X143268498Y-82610420D01*
X143277027Y-82635405D01*
X143321616Y-82648176D01*
X143417617Y-82675755D01*
X143536903Y-82710074D01*
X143588386Y-82725880D01*
X143838432Y-82825320D01*
X144109121Y-82964327D01*
X144388070Y-83133862D01*
X144662894Y-83324890D01*
X144921209Y-83528372D01*
X145150632Y-83735270D01*
X145338780Y-83936549D01*
X145473267Y-84123170D01*
X145504789Y-84174377D01*
X145554358Y-84244250D01*
X145583814Y-84271177D01*
X145597721Y-84266626D01*
X145659445Y-84235066D01*
X145747124Y-84183579D01*
X145779618Y-84163945D01*
X146017545Y-84040661D01*
X146298925Y-83928299D01*
X146632660Y-83823662D01*
X147027649Y-83723552D01*
X147055627Y-83715751D01*
X147067725Y-83701306D01*
X147025733Y-83681877D01*
X146922400Y-83652573D01*
X146828683Y-83628964D01*
X146558458Y-83569496D01*
X146262945Y-83514550D01*
X145960744Y-83466904D01*
X145670454Y-83429333D01*
X145410675Y-83404612D01*
X145200006Y-83395519D01*
X145194848Y-83395494D01*
X145061863Y-83379282D01*
X144980454Y-83330729D01*
X144953049Y-83298308D01*
X144942616Y-83256999D01*
X144985071Y-83209277D01*
X144985211Y-83209151D01*
X145112908Y-83129454D01*
X145306532Y-83059987D01*
X145562485Y-83001573D01*
X145877168Y-82955032D01*
X146246982Y-82921187D01*
X146320580Y-82916071D01*
X146455103Y-82905442D01*
X146533331Y-82895081D01*
X146565003Y-82882034D01*
X146559861Y-82863348D01*
X146527645Y-82836067D01*
X146461992Y-82791540D01*
X146389430Y-82754024D01*
X146367425Y-82745244D01*
X146345647Y-82731042D01*
X146320207Y-82703970D01*
X146285822Y-82656075D01*
X146237209Y-82579399D01*
X146169084Y-82465987D01*
X146076162Y-82307884D01*
X146073931Y-82304061D01*
X146457627Y-82304061D01*
X146570746Y-82454948D01*
X146607313Y-82504398D01*
X146704382Y-82639712D01*
X146793409Y-82768339D01*
X146902953Y-82930843D01*
X147395066Y-82986424D01*
X147606527Y-83009574D01*
X147857431Y-83035708D01*
X148101844Y-83059991D01*
X148308174Y-83079213D01*
X148466677Y-83093584D01*
X148637228Y-83109832D01*
X148778230Y-83124089D01*
X148869500Y-83134372D01*
X148913484Y-83139869D01*
X148973850Y-83144083D01*
X148976699Y-83131263D01*
X148930508Y-83096088D01*
X148910492Y-83082784D01*
X148806450Y-83023844D01*
X148657705Y-82948419D01*
X148480065Y-82863745D01*
X148289337Y-82777056D01*
X148101331Y-82695585D01*
X147931852Y-82626566D01*
X147796710Y-82577234D01*
X147630021Y-82527647D01*
X147389140Y-82466680D01*
X147127209Y-82409068D01*
X146870719Y-82360572D01*
X146646160Y-82326954D01*
X146457627Y-82304061D01*
X146073931Y-82304061D01*
X145953161Y-82097134D01*
X145937740Y-82070751D01*
X145815878Y-81868805D01*
X145707795Y-81706622D01*
X145597728Y-81563533D01*
X145469914Y-81418869D01*
X145308588Y-81251960D01*
X145295902Y-81239203D01*
X144933787Y-80907239D01*
X144571848Y-80636432D01*
X144149457Y-80376267D01*
X143581353Y-80077191D01*
X142983630Y-79813002D01*
X142372543Y-79590124D01*
X141764345Y-79414982D01*
X141175289Y-79293998D01*
X141156367Y-79291014D01*
X141038378Y-79276806D01*
X140942588Y-79279505D01*
X140840013Y-79302484D01*
X140701670Y-79349116D01*
X140595429Y-79388952D01*
X140173262Y-79580476D01*
X139745675Y-79828016D01*
X139308709Y-80134284D01*
X138858407Y-80501995D01*
X138390812Y-80933863D01*
X138121241Y-81196260D01*
X138139214Y-81357263D01*
X138141573Y-81474932D01*
X138101743Y-81671970D01*
X138046299Y-81825673D01*
X137265960Y-81825673D01*
X137381269Y-81664890D01*
X137734244Y-81221316D01*
X138113821Y-80789209D01*
X138486892Y-80408650D01*
X138919953Y-80024284D01*
X139353127Y-79699991D01*
X139783949Y-79436910D01*
X140209956Y-79236178D01*
X140628681Y-79098934D01*
X141037662Y-79026316D01*
X141434431Y-79019462D01*
X141816526Y-79079510D01*
X142055561Y-79143569D01*
X142594353Y-79315114D01*
X143138636Y-79523071D01*
X143673281Y-79760461D01*
X144183160Y-80020306D01*
X144653146Y-80295628D01*
X145068110Y-80579449D01*
X145103814Y-80607401D01*
X145213366Y-80700365D01*
X145357103Y-80828819D01*
X145524427Y-80983056D01*
X145704743Y-81153370D01*
X145887455Y-81330053D01*
X145986340Y-81426669D01*
X146155658Y-81591107D01*
X146309315Y-81739118D01*
X146438731Y-81862496D01*
X146535328Y-81953037D01*
X146590526Y-82002533D01*
X146697189Y-82090990D01*
X146973667Y-82025119D01*
X147042454Y-82009448D01*
X147224634Y-81971813D01*
X147428435Y-81933553D01*
X147621287Y-81900915D01*
X147992214Y-81863006D01*
X148444065Y-81873336D01*
X148877908Y-81946244D01*
X149287801Y-82080181D01*
X149667803Y-82273596D01*
X150011974Y-82524937D01*
X150032271Y-82542439D01*
X150142160Y-82635892D01*
X150209396Y-82688030D01*
X150242727Y-82703229D01*
X150250904Y-82685865D01*
X150242676Y-82640314D01*
X150234509Y-82612193D01*
X150197166Y-82513066D01*
X150140657Y-82381253D01*
X150073673Y-82237465D01*
X150006678Y-82107162D01*
X149934808Y-81990342D01*
X149848977Y-81878200D01*
X149736182Y-81753838D01*
X149583421Y-81600358D01*
X149544362Y-81561893D01*
X149423976Y-81441179D01*
X149326674Y-81340346D01*
X149261594Y-81269008D01*
X149237870Y-81236777D01*
X149238397Y-81234507D01*
X149275100Y-81225898D01*
X149351889Y-81234527D01*
X149449582Y-81253205D01*
X149526547Y-81267027D01*
X149549462Y-81276684D01*
X149627489Y-81320374D01*
X149749182Y-81394075D01*
X149905639Y-81492251D01*
X150087958Y-81609369D01*
X150287237Y-81739894D01*
X150380029Y-81801361D01*
X150591835Y-81943437D01*
X150760464Y-82060792D01*
X150897601Y-82162802D01*
X151014927Y-82258848D01*
X151124126Y-82358308D01*
X151236881Y-82470560D01*
X151364874Y-82604984D01*
X151445054Y-82689928D01*
X151564423Y-82814410D01*
X151661046Y-82912687D01*
X151726598Y-82976348D01*
X151752757Y-82996979D01*
X151753500Y-82982486D01*
X151746516Y-82909552D01*
X151730686Y-82785599D01*
X151707742Y-82622040D01*
X151679417Y-82430289D01*
X151647443Y-82221759D01*
X151613552Y-82007861D01*
X151579475Y-81800011D01*
X151546945Y-81609619D01*
X151517694Y-81448101D01*
X151451954Y-81117791D01*
X151335588Y-80605039D01*
X151210277Y-80132797D01*
X151079770Y-79715885D01*
X151029934Y-79573523D01*
X150959839Y-79378951D01*
X150879976Y-79161599D01*
X150794563Y-78932558D01*
X150707819Y-78702916D01*
X150623963Y-78483764D01*
X150547214Y-78286192D01*
X150481792Y-78121290D01*
X150431915Y-78000148D01*
X150401803Y-77933855D01*
X150392660Y-77915391D01*
X150351169Y-77813260D01*
X150299713Y-77667625D01*
X150244319Y-77497474D01*
X150191017Y-77321796D01*
X150145833Y-77159578D01*
X150114797Y-77029811D01*
X150088923Y-76862295D01*
X150090611Y-76671018D01*
X150137186Y-76495077D01*
X150233746Y-76317337D01*
X150385392Y-76120664D01*
X150495594Y-75998799D01*
X150707141Y-75803867D01*
X150938849Y-75641948D01*
X151198822Y-75509851D01*
X151495164Y-75404385D01*
X151835977Y-75322361D01*
X152229365Y-75260588D01*
X152683431Y-75215876D01*
X152843243Y-75205252D01*
X153235663Y-75195155D01*
X153619064Y-75211179D01*
X154017489Y-75254841D01*
X154454978Y-75327658D01*
X154497048Y-75335741D01*
X154699340Y-75379575D01*
X154884576Y-75430570D01*
X155068173Y-75494562D01*
X155265546Y-75577384D01*
X155492111Y-75684873D01*
X155763284Y-75822863D01*
X155924254Y-75907971D01*
X156323602Y-76135385D01*
X156667820Y-76359728D01*
X156966880Y-76589091D01*
X157230755Y-76831563D01*
X157469418Y-77095237D01*
X157692842Y-77388201D01*
X157704448Y-77404669D01*
X157766330Y-77498310D01*
X158003708Y-77857512D01*
G37*
D13*
%TO.C,RV1*%
X120334079Y-115636387D02*
X120334079Y-111699387D01*
X120334079Y-123939387D02*
X120334079Y-120003387D01*
X121655079Y-111699387D02*
X120334079Y-111699387D01*
X124485079Y-111699387D02*
X124105079Y-111699387D01*
X126985079Y-111699387D02*
X126226079Y-111699387D01*
X130375079Y-111699387D02*
X128725079Y-111699387D01*
X130375079Y-115636387D02*
X130375079Y-111699387D01*
X130375079Y-123939387D02*
X120334079Y-123939387D01*
X130375079Y-123939387D02*
X130375079Y-120003387D01*
%TO.C,SW3*%
X155084957Y-108271352D02*
X155084957Y-109771352D01*
X156334957Y-112271352D02*
X160834957Y-112271352D01*
X160834957Y-105771352D02*
X156334957Y-105771352D01*
X162084957Y-109771352D02*
X162084957Y-108271352D01*
%TO.C,SW1*%
X138084957Y-108271352D02*
X138084957Y-109771352D01*
X139334957Y-112271352D02*
X143834957Y-112271352D01*
X143834957Y-105771352D02*
X139334957Y-105771352D01*
X145084957Y-109771352D02*
X145084957Y-108271352D01*
%TO.C,SW4*%
X155084957Y-125271352D02*
X155084957Y-126771352D01*
X156334957Y-129271352D02*
X160834957Y-129271352D01*
X160834957Y-122771352D02*
X156334957Y-122771352D01*
X162084957Y-126771352D02*
X162084957Y-125271352D01*
%TO.C,SW2*%
X138084957Y-125271352D02*
X138084957Y-126771352D01*
X139334957Y-129271352D02*
X143834957Y-129271352D01*
X143834957Y-122771352D02*
X139334957Y-122771352D01*
X145084957Y-126771352D02*
X145084957Y-125271352D01*
%TO.C,RF1*%
X166681803Y-108880279D02*
X182881803Y-108880279D01*
X166681803Y-125080279D02*
X182881803Y-125080279D01*
D14*
X180000655Y-110074016D02*
G75*
G02*
X178839699Y-110074016I-580478J0D01*
G01*
X178839699Y-110074016D02*
G75*
G02*
X180000655Y-110074016I580478J0D01*
G01*
D15*
%TO.C,SW5*%
X106091041Y-107283614D02*
X106091041Y-126638414D01*
X106091041Y-126638414D02*
X117140041Y-126638414D01*
X117140041Y-107283614D02*
X106091041Y-107283614D01*
X117140041Y-126638414D02*
X117140041Y-107283614D01*
%TD*%
%LPC*%
D16*
%TO.C,REF\u002A\u002A*%
X119893173Y-128304555D03*
%TD*%
D17*
%TO.C,PWR_J1*%
X101999565Y-117092575D03*
D18*
X101999565Y-119092575D03*
%TD*%
D16*
%TO.C,REF\u002A\u002A*%
X174801556Y-128304555D03*
%TD*%
D19*
%TO.C,J3*%
X122631959Y-76597438D03*
D18*
X124631959Y-76597438D03*
X126631959Y-76597438D03*
X128631959Y-76597438D03*
%TD*%
D16*
%TO.C,REF\u002A\u002A*%
X189107658Y-77640082D03*
%TD*%
D17*
%TO.C,J2*%
X186415391Y-89603771D03*
D18*
X186415391Y-91603771D03*
X186415391Y-93603771D03*
X186415391Y-95603771D03*
X186415391Y-97603771D03*
%TD*%
D16*
%TO.C,REF\u002A\u002A*%
X112197458Y-77640082D03*
%TD*%
D20*
%TO.C,J1*%
X190338188Y-109992891D03*
D21*
X192878188Y-107452891D03*
X187798188Y-107452891D03*
X192878188Y-112532891D03*
X187798188Y-112532891D03*
%TD*%
D22*
%TO.C,RV1*%
X122855079Y-110819387D03*
D23*
X125355079Y-110819387D03*
X127855079Y-110819387D03*
D24*
X129755079Y-117819387D03*
X120955079Y-117819387D03*
%TD*%
D25*
%TO.C,SW3*%
X161834957Y-106771352D03*
X155334957Y-106771352D03*
X161834957Y-111271352D03*
X155334957Y-111271352D03*
%TD*%
%TO.C,SW1*%
X144834957Y-106771352D03*
X138334957Y-106771352D03*
X144834957Y-111271352D03*
X138334957Y-111271352D03*
%TD*%
%TO.C,SW4*%
X161834957Y-123771352D03*
X155334957Y-123771352D03*
X161834957Y-128271352D03*
X155334957Y-128271352D03*
%TD*%
%TO.C,SW2*%
X144834957Y-123771352D03*
X138334957Y-123771352D03*
X144834957Y-128271352D03*
X138334957Y-128271352D03*
%TD*%
D26*
%TO.C,RF1*%
X182306803Y-109980279D03*
X182306803Y-111980279D03*
X182306803Y-113980279D03*
X182306803Y-115980279D03*
X182306803Y-117980279D03*
X182306803Y-119980279D03*
X182306803Y-121980279D03*
X182306803Y-123980279D03*
X167256803Y-109980279D03*
X167256803Y-111980279D03*
X167256803Y-113980279D03*
X167256803Y-115980279D03*
X167256803Y-117980279D03*
X167256803Y-119980279D03*
X167256803Y-121980279D03*
X167256803Y-123980279D03*
%TD*%
D27*
%TO.C,SW5*%
X108760540Y-112361013D03*
X108760540Y-116961014D03*
%TD*%
%LPD*%
M02*
