%TF.GenerationSoftware,KiCad,Pcbnew,8.0.6*%
%TF.CreationDate,2025-03-03T18:48:19-05:00*%
%TF.ProjectId,receiver,72656365-6976-4657-922e-6b696361645f,rev?*%
%TF.SameCoordinates,Original*%
%TF.FileFunction,Paste,Top*%
%TF.FilePolarity,Positive*%
%FSLAX46Y46*%
G04 Gerber Fmt 4.6, Leading zero omitted, Abs format (unit mm)*
G04 Created by KiCad (PCBNEW 8.0.6) date 2025-03-03 18:48:19*
%MOMM*%
%LPD*%
G01*
G04 APERTURE LIST*
G04 Aperture macros list*
%AMRoundRect*
0 Rectangle with rounded corners*
0 $1 Rounding radius*
0 $2 $3 $4 $5 $6 $7 $8 $9 X,Y pos of 4 corners*
0 Add a 4 corners polygon primitive as box body*
4,1,4,$2,$3,$4,$5,$6,$7,$8,$9,$2,$3,0*
0 Add four circle primitives for the rounded corners*
1,1,$1+$1,$2,$3*
1,1,$1+$1,$4,$5*
1,1,$1+$1,$6,$7*
1,1,$1+$1,$8,$9*
0 Add four rect primitives between the rounded corners*
20,1,$1+$1,$2,$3,$4,$5,0*
20,1,$1+$1,$4,$5,$6,$7,0*
20,1,$1+$1,$6,$7,$8,$9,0*
20,1,$1+$1,$8,$9,$2,$3,0*%
G04 Aperture macros list end*
%ADD10RoundRect,0.150000X-0.512500X-0.150000X0.512500X-0.150000X0.512500X0.150000X-0.512500X0.150000X0*%
%ADD11RoundRect,0.225000X0.225000X0.250000X-0.225000X0.250000X-0.225000X-0.250000X0.225000X-0.250000X0*%
%ADD12RoundRect,0.140000X-0.140000X-0.170000X0.140000X-0.170000X0.140000X0.170000X-0.140000X0.170000X0*%
%ADD13R,0.711200X0.254000*%
%ADD14R,0.254000X0.711200*%
%ADD15R,1.676400X1.676400*%
%ADD16R,0.800000X0.800000*%
%ADD17RoundRect,0.140000X-0.170000X0.140000X-0.170000X-0.140000X0.170000X-0.140000X0.170000X0.140000X0*%
%ADD18R,3.000000X3.000000*%
%ADD19RoundRect,0.135000X-0.135000X-0.185000X0.135000X-0.185000X0.135000X0.185000X-0.135000X0.185000X0*%
%ADD20RoundRect,0.140000X0.140000X0.170000X-0.140000X0.170000X-0.140000X-0.170000X0.140000X-0.170000X0*%
%ADD21R,1.200000X1.200000*%
%ADD22RoundRect,0.135000X0.185000X-0.135000X0.185000X0.135000X-0.185000X0.135000X-0.185000X-0.135000X0*%
%ADD23RoundRect,0.250000X-0.625000X0.312500X-0.625000X-0.312500X0.625000X-0.312500X0.625000X0.312500X0*%
%ADD24RoundRect,0.140000X0.170000X-0.140000X0.170000X0.140000X-0.170000X0.140000X-0.170000X-0.140000X0*%
%ADD25RoundRect,0.250000X0.625000X-0.312500X0.625000X0.312500X-0.625000X0.312500X-0.625000X-0.312500X0*%
%ADD26RoundRect,0.135000X-0.185000X0.135000X-0.185000X-0.135000X0.185000X-0.135000X0.185000X0.135000X0*%
%ADD27RoundRect,0.250000X0.312500X0.625000X-0.312500X0.625000X-0.312500X-0.625000X0.312500X-0.625000X0*%
%ADD28RoundRect,0.250000X-0.325000X-0.650000X0.325000X-0.650000X0.325000X0.650000X-0.325000X0.650000X0*%
%ADD29RoundRect,0.225000X-0.225000X-0.375000X0.225000X-0.375000X0.225000X0.375000X-0.225000X0.375000X0*%
%ADD30RoundRect,0.150000X-0.150000X0.587500X-0.150000X-0.587500X0.150000X-0.587500X0.150000X0.587500X0*%
%ADD31R,1.193800X0.304800*%
%ADD32R,0.304800X1.193800*%
%ADD33RoundRect,0.225000X-0.250000X0.225000X-0.250000X-0.225000X0.250000X-0.225000X0.250000X0.225000X0*%
%ADD34RoundRect,0.135000X0.135000X0.185000X-0.135000X0.185000X-0.135000X-0.185000X0.135000X-0.185000X0*%
%ADD35RoundRect,0.250000X-0.650000X0.325000X-0.650000X-0.325000X0.650000X-0.325000X0.650000X0.325000X0*%
%ADD36R,0.800000X1.000000*%
%ADD37R,1.800000X1.400000*%
%ADD38R,2.794000X0.939800*%
%ADD39R,7.239000X6.832600*%
G04 APERTURE END LIST*
D10*
%TO.C,U3*%
X108314821Y-98813395D03*
X108314821Y-99763395D03*
X108314821Y-100713395D03*
X110589821Y-100713395D03*
X110589821Y-98813395D03*
%TD*%
D11*
%TO.C,STM_C9*%
X148955222Y-92914887D03*
X147405222Y-92914887D03*
%TD*%
D12*
%TO.C,CSTL_C1*%
X145317302Y-83159773D03*
X146277302Y-83159773D03*
%TD*%
D13*
%TO.C,U4*%
X175719419Y-77623457D03*
X175719419Y-78123458D03*
X175719419Y-78623458D03*
X175719419Y-79123459D03*
D14*
X176366418Y-79770458D03*
X176866419Y-79770458D03*
X177366419Y-79770458D03*
X177866420Y-79770458D03*
D13*
X178513419Y-79123459D03*
X178513419Y-78623458D03*
X178513419Y-78123458D03*
X178513419Y-77623457D03*
D14*
X177866420Y-76976458D03*
X177366419Y-76976458D03*
X176866419Y-76976458D03*
X176366418Y-76976458D03*
D15*
X177116419Y-78373458D03*
%TD*%
D16*
%TO.C,PWR_D2*%
X113353128Y-103519171D03*
X114853128Y-103519171D03*
%TD*%
D17*
%TO.C,PWR_C4*%
X106681187Y-98820277D03*
X106681187Y-99780277D03*
%TD*%
D18*
%TO.C,BZ1*%
X130649833Y-101763250D03*
X130649833Y-93363250D03*
%TD*%
D19*
%TO.C,BUT_R1*%
X143846547Y-104296696D03*
X144866547Y-104296696D03*
%TD*%
D17*
%TO.C,MLX_C1*%
X177869013Y-80844887D03*
X177869013Y-81804887D03*
%TD*%
D20*
%TO.C,STM_C3*%
X155600749Y-93325498D03*
X154640749Y-93325498D03*
%TD*%
D21*
%TO.C,D3*%
X177972188Y-97094202D03*
X177972188Y-94994202D03*
%TD*%
D20*
%TO.C,STM_C4*%
X162102231Y-93343763D03*
X161142231Y-93343763D03*
%TD*%
D12*
%TO.C,STM_C1*%
X154049054Y-78594732D03*
X155009054Y-78594732D03*
%TD*%
D22*
%TO.C,S_R1*%
X149419988Y-86415667D03*
X149419988Y-85395667D03*
%TD*%
D11*
%TO.C,STM_C8*%
X148964259Y-91320267D03*
X147414259Y-91320267D03*
%TD*%
D23*
%TO.C,LED_R1*%
X171444382Y-89602577D03*
X171444382Y-92527577D03*
%TD*%
D24*
%TO.C,PWR_C5*%
X112305458Y-100875165D03*
X112305458Y-99915165D03*
%TD*%
D23*
%TO.C,PWR_R1*%
X117907483Y-85186988D03*
X117907483Y-88111988D03*
%TD*%
D25*
%TO.C,BUZ_R1*%
X125456681Y-108147091D03*
X125456681Y-105222091D03*
%TD*%
D19*
%TO.C,S_R4*%
X146282778Y-85264942D03*
X147302778Y-85264942D03*
%TD*%
D17*
%TO.C,S_C10*%
X150667053Y-85425431D03*
X150667053Y-86385431D03*
%TD*%
D26*
%TO.C,I2C_R2*%
X160300519Y-76238048D03*
X160300519Y-77258048D03*
%TD*%
D27*
%TO.C,PWR_R4*%
X119727314Y-103633713D03*
X116802314Y-103633713D03*
%TD*%
D26*
%TO.C,STM_R2*%
X156380150Y-77268722D03*
X156380150Y-78288722D03*
%TD*%
D22*
%TO.C,BUT_R4*%
X152560448Y-124807293D03*
X152560448Y-123787293D03*
%TD*%
D24*
%TO.C,S_C7*%
X150669133Y-88387129D03*
X150669133Y-87427129D03*
%TD*%
D16*
%TO.C,PWR_D1*%
X117911156Y-91756319D03*
X117911156Y-90256319D03*
%TD*%
D23*
%TO.C,LED_R2*%
X174689472Y-89515365D03*
X174689472Y-92440365D03*
%TD*%
%TO.C,PWR_R3*%
X119582044Y-98429514D03*
X119582044Y-101354514D03*
%TD*%
%TO.C,PWR_R2*%
X117004854Y-98429514D03*
X117004854Y-101354514D03*
%TD*%
D21*
%TO.C,D2*%
X174686024Y-97071779D03*
X174686024Y-94971779D03*
%TD*%
D23*
%TO.C,LED_R3*%
X177954400Y-89508603D03*
X177954400Y-92433603D03*
%TD*%
D26*
%TO.C,I2C_R1*%
X157918528Y-76270201D03*
X157918528Y-77290201D03*
%TD*%
D22*
%TO.C,BUT_R3*%
X152800916Y-109605109D03*
X152800916Y-108585109D03*
%TD*%
D28*
%TO.C,PWR_C1*%
X112760277Y-91797018D03*
X115710277Y-91797018D03*
%TD*%
D29*
%TO.C,BUZ_D1*%
X127237611Y-89681145D03*
X130537611Y-89681145D03*
%TD*%
D24*
%TO.C,S_C2*%
X150483023Y-82114002D03*
X150483023Y-81154002D03*
%TD*%
D30*
%TO.C,Q1*%
X138611808Y-98070991D03*
X139561808Y-96195991D03*
X137661808Y-96195991D03*
%TD*%
D22*
%TO.C,MLX_R1*%
X180226624Y-77094622D03*
X180226624Y-76074622D03*
%TD*%
D31*
%TO.C,U1*%
X152366799Y-82147422D03*
X152366799Y-82647421D03*
X152366799Y-83147422D03*
X152366799Y-83647421D03*
X152366799Y-84147423D03*
X152366799Y-84647422D03*
X152366799Y-85147421D03*
X152366799Y-85647422D03*
X152366799Y-86147422D03*
X152366799Y-86647423D03*
X152366799Y-87147422D03*
X152366799Y-87647421D03*
X152366799Y-88147423D03*
X152366799Y-88647422D03*
X152366799Y-89147423D03*
X152366799Y-89647422D03*
D32*
X154366798Y-91647421D03*
X154866797Y-91647421D03*
X155366798Y-91647421D03*
X155866797Y-91647421D03*
X156366799Y-91647421D03*
X156866798Y-91647421D03*
X157366797Y-91647421D03*
X157866798Y-91647421D03*
X158366798Y-91647421D03*
X158866799Y-91647421D03*
X159366798Y-91647421D03*
X159866797Y-91647421D03*
X160366799Y-91647421D03*
X160866798Y-91647421D03*
X161366799Y-91647421D03*
X161866798Y-91647421D03*
D31*
X163866797Y-89647422D03*
X163866797Y-89147423D03*
X163866797Y-88647422D03*
X163866797Y-88147423D03*
X163866797Y-87647421D03*
X163866797Y-87147422D03*
X163866797Y-86647423D03*
X163866797Y-86147422D03*
X163866797Y-85647422D03*
X163866797Y-85147421D03*
X163866797Y-84647422D03*
X163866797Y-84147423D03*
X163866797Y-83647421D03*
X163866797Y-83147422D03*
X163866797Y-82647421D03*
X163866797Y-82147422D03*
D32*
X161866798Y-80147423D03*
X161366799Y-80147423D03*
X160866798Y-80147423D03*
X160366799Y-80147423D03*
X159866797Y-80147423D03*
X159366798Y-80147423D03*
X158866799Y-80147423D03*
X158366798Y-80147423D03*
X157866798Y-80147423D03*
X157366797Y-80147423D03*
X156866798Y-80147423D03*
X156366799Y-80147423D03*
X155866797Y-80147423D03*
X155366798Y-80147423D03*
X154866797Y-80147423D03*
X154366798Y-80147423D03*
%TD*%
D33*
%TO.C,MLX_C3*%
X171019801Y-74252401D03*
X171019801Y-75802401D03*
%TD*%
D34*
%TO.C,STM_R3*%
X155020958Y-77284395D03*
X154000958Y-77284395D03*
%TD*%
D26*
%TO.C,MLX_R2*%
X180177236Y-78582262D03*
X180177236Y-79602262D03*
%TD*%
D33*
%TO.C,PWR_C3*%
X113810283Y-98334129D03*
X113810283Y-99884129D03*
%TD*%
D21*
%TO.C,D1*%
X171434291Y-97144398D03*
X171434291Y-95044398D03*
%TD*%
D11*
%TO.C,PWR_C2*%
X114349877Y-81846789D03*
X112799877Y-81846789D03*
%TD*%
D12*
%TO.C,MLX_C2*%
X176881766Y-75807249D03*
X177841766Y-75807249D03*
%TD*%
D17*
%TO.C,CSTL_C2*%
X145125495Y-85313305D03*
X145125495Y-86273305D03*
%TD*%
D35*
%TO.C,STM_C6*%
X132899705Y-80685496D03*
X132899705Y-83635496D03*
%TD*%
D17*
%TO.C,STM_C5*%
X166840406Y-81899607D03*
X166840406Y-82859607D03*
%TD*%
D36*
%TO.C,FB1*%
X150600285Y-92956192D03*
X150600285Y-91356192D03*
%TD*%
D37*
%TO.C,Y1*%
X137845136Y-83184038D03*
X137845136Y-85584038D03*
X142245136Y-85584038D03*
X142245136Y-83184038D03*
%TD*%
D34*
%TO.C,BUZ_R2*%
X142276008Y-96224213D03*
X141256008Y-96224213D03*
%TD*%
D22*
%TO.C,BUT_R2*%
X147720677Y-124807293D03*
X147720677Y-123787293D03*
%TD*%
D38*
%TO.C,U2*%
X114208585Y-88696382D03*
D39*
X107693485Y-86406381D03*
D38*
X114208585Y-84116380D03*
%TD*%
M02*
