%TF.GenerationSoftware,KiCad,Pcbnew,8.0.6*%
%TF.CreationDate,2025-07-22T18:03:32-04:00*%
%TF.ProjectId,receiver,72656365-6976-4657-922e-6b696361645f,rev?*%
%TF.SameCoordinates,Original*%
%TF.FileFunction,Copper,L2,Bot*%
%TF.FilePolarity,Positive*%
%FSLAX46Y46*%
G04 Gerber Fmt 4.6, Leading zero omitted, Abs format (unit mm)*
G04 Created by KiCad (PCBNEW 8.0.6) date 2025-07-22 18:03:32*
%MOMM*%
%LPD*%
G01*
G04 APERTURE LIST*
G04 Aperture macros list*
%AMRoundRect*
0 Rectangle with rounded corners*
0 $1 Rounding radius*
0 $2 $3 $4 $5 $6 $7 $8 $9 X,Y pos of 4 corners*
0 Add a 4 corners polygon primitive as box body*
4,1,4,$2,$3,$4,$5,$6,$7,$8,$9,$2,$3,0*
0 Add four circle primitives for the rounded corners*
1,1,$1+$1,$2,$3*
1,1,$1+$1,$4,$5*
1,1,$1+$1,$6,$7*
1,1,$1+$1,$8,$9*
0 Add four rect primitives between the rounded corners*
20,1,$1+$1,$2,$3,$4,$5,0*
20,1,$1+$1,$4,$5,$6,$7,0*
20,1,$1+$1,$6,$7,$8,$9,0*
20,1,$1+$1,$8,$9,$2,$3,0*%
G04 Aperture macros list end*
%TA.AperFunction,ComponentPad*%
%ADD10RoundRect,0.760000X-1.140000X1.140000X-1.140000X-1.140000X1.140000X-1.140000X1.140000X1.140000X0*%
%TD*%
%TA.AperFunction,ComponentPad*%
%ADD11C,3.800000*%
%TD*%
%TA.AperFunction,ComponentPad*%
%ADD12C,1.066800*%
%TD*%
%TA.AperFunction,ComponentPad*%
%ADD13R,1.700000X1.700000*%
%TD*%
%TA.AperFunction,ComponentPad*%
%ADD14O,1.700000X1.700000*%
%TD*%
%TA.AperFunction,ComponentPad*%
%ADD15RoundRect,0.200100X-0.949900X0.949900X-0.949900X-0.949900X0.949900X-0.949900X0.949900X0.949900X0*%
%TD*%
%TA.AperFunction,ComponentPad*%
%ADD16C,2.500000*%
%TD*%
%TA.AperFunction,ComponentPad*%
%ADD17R,2.108200X2.108200*%
%TD*%
%TA.AperFunction,ComponentPad*%
%ADD18C,2.108200*%
%TD*%
%TA.AperFunction,ComponentPad*%
%ADD19RoundRect,0.350000X1.125000X0.350000X-1.125000X0.350000X-1.125000X-0.350000X1.125000X-0.350000X0*%
%TD*%
%TA.AperFunction,ViaPad*%
%ADD20C,0.800000*%
%TD*%
%TA.AperFunction,Conductor*%
%ADD21C,0.250000*%
%TD*%
%TA.AperFunction,Conductor*%
%ADD22C,1.082160*%
%TD*%
G04 APERTURE END LIST*
D10*
%TO.P,PWR_J1,1,Pin_1*%
%TO.N,GND*%
X129424626Y-70905817D03*
D11*
%TO.P,PWR_J1,2,Pin_2*%
%TO.N,Net-(PWR_J1-Pin_2)*%
X129424626Y-75905817D03*
%TD*%
D12*
%TO.P,IF1,1,P1*%
%TO.N,GND*%
X164577829Y-44350546D03*
%TO.P,IF1,2,P2*%
%TO.N,PUSH_4*%
X163327829Y-44350546D03*
%TO.P,IF1,3,P3*%
%TO.N,PUSH_3*%
X162077829Y-44350546D03*
%TO.P,IF1,4,P4*%
%TO.N,PUSH_2*%
X160827829Y-44350546D03*
%TO.P,IF1,5,P5*%
%TO.N,PUSH_1*%
X159577829Y-44350546D03*
%TO.P,IF1,6,P6*%
%TO.N,I2C_SCL*%
X158327829Y-44350546D03*
%TO.P,IF1,7,P7*%
%TO.N,I2C_SDA*%
X157077829Y-44350546D03*
%TO.P,IF1,8,P8*%
%TO.N,BUZZER*%
X155827829Y-44350546D03*
%TO.P,IF1,9,P9*%
%TO.N,+3.3V*%
X154577829Y-44350546D03*
%TO.P,IF1,10,P10*%
%TO.N,+5V*%
X153327829Y-44350546D03*
%TD*%
D13*
%TO.P,J3,1,Pin_1*%
%TO.N,UART4_TX*%
X175428337Y-40927890D03*
D14*
%TO.P,J3,2,Pin_2*%
%TO.N,UART4_RX*%
X172888337Y-40927890D03*
%TD*%
D13*
%TO.P,J2,1,Pin_1*%
%TO.N,SYS_SWDIO*%
X183234589Y-49376524D03*
D14*
%TO.P,J2,2,Pin_2*%
%TO.N,SYS_SWCLK*%
X183234589Y-51916524D03*
%TO.P,J2,3,Pin_3*%
%TO.N,+3.3V*%
X183234589Y-54456524D03*
%TO.P,J2,4,Pin_4*%
%TO.N,SYS_TRACESWO*%
X183234589Y-56996524D03*
%TO.P,J2,5,Pin_5*%
%TO.N,GND*%
X183234589Y-59536524D03*
%TD*%
D15*
%TO.P,J1,1,In*%
%TO.N,/Capteurs/ANT*%
X181199638Y-75992687D03*
D16*
%TO.P,J1,2,Ext*%
%TO.N,GND*%
X183739638Y-73452687D03*
X178659638Y-73452687D03*
X183739638Y-78532687D03*
X178659638Y-78532687D03*
%TD*%
D17*
%TO.P,SW5,1,A*%
%TO.N,Net-(SW5-A)*%
X139561857Y-84915114D03*
D18*
%TO.P,SW5,2,B*%
%TO.N,Net-(PWR_J1-Pin_2)*%
X139561857Y-80216114D03*
%TO.P,SW5,3,C*%
%TO.N,unconnected-(SW5-C-Pad3)*%
X139561857Y-75517114D03*
%TD*%
D19*
%TO.P,RF1,1,ANT*%
%TO.N,/Capteurs/ANT*%
X172149215Y-73155492D03*
%TO.P,RF1,2,GND*%
%TO.N,GND*%
X172149215Y-75155492D03*
%TO.P,RF1,3,RX_ANT*%
%TO.N,RFM_GPIO4*%
X172149215Y-77155492D03*
%TO.P,RF1,4,TX_ANT*%
%TO.N,RFM_GPIO5*%
X172149215Y-79155492D03*
%TO.P,RF1,5,VCC*%
%TO.N,+3.3V*%
X172149215Y-81155492D03*
%TO.P,RF1,6,GPIO_0*%
%TO.N,RFM_GPIO1*%
X172149215Y-83155492D03*
%TO.P,RF1,7,GPIO_1*%
%TO.N,RFM_GPIO2*%
X172149215Y-85155492D03*
%TO.P,RF1,8,GPIO_2*%
%TO.N,RFM_GPIO3*%
X172149215Y-87155492D03*
%TO.P,RF1,9,GND*%
%TO.N,GND*%
X157099215Y-73155492D03*
%TO.P,RF1,10,SDN*%
%TO.N,RFM_SDN*%
X157099215Y-75155492D03*
%TO.P,RF1,11,NIRQ*%
%TO.N,RFM_NIRQ*%
X157099215Y-77155492D03*
%TO.P,RF1,12,NSEL*%
%TO.N,SPI_RFM_CS*%
X157099215Y-79155492D03*
%TO.P,RF1,13,SCK*%
%TO.N,SPI_SCK*%
X157099215Y-81155492D03*
%TO.P,RF1,14,SDI*%
%TO.N,SPI_MOSI*%
X157099215Y-83155492D03*
%TO.P,RF1,15,SDO*%
%TO.N,SPI_MISO*%
X157099215Y-85155492D03*
%TO.P,RF1,16,GND*%
%TO.N,GND*%
X157099215Y-87155492D03*
%TD*%
D20*
%TO.N,GND*%
X131649232Y-50165984D03*
X153976402Y-67165144D03*
X159838059Y-60044940D03*
X177278570Y-69693425D03*
X141723367Y-71469344D03*
X155331844Y-55099983D03*
X168273575Y-68339953D03*
X127775854Y-55921723D03*
X153987380Y-64516701D03*
X134052619Y-58476953D03*
X143162579Y-41946958D03*
X135238149Y-58476953D03*
X177001094Y-62036645D03*
X134020284Y-50165984D03*
X136616139Y-54882630D03*
X131681567Y-58476953D03*
X130496041Y-58476953D03*
X135091653Y-71450369D03*
X157519345Y-68572119D03*
X127775854Y-54801431D03*
X136616139Y-56002922D03*
X141616040Y-60718899D03*
X136616139Y-52642046D03*
X136616139Y-53762338D03*
X127775854Y-57042016D03*
X148014719Y-72160147D03*
X172248581Y-64345469D03*
X136616139Y-51521754D03*
X138383792Y-71488319D03*
X135205814Y-50165984D03*
X144695304Y-75915391D03*
X129278180Y-50165984D03*
X136616139Y-57123215D03*
X127775854Y-52560847D03*
X173785544Y-55780099D03*
X150260544Y-66155259D03*
X166660779Y-50826667D03*
X148885309Y-55966527D03*
X148265251Y-48865106D03*
X127775854Y-51440555D03*
X127775854Y-53681139D03*
X130463706Y-50165984D03*
X143141094Y-49660048D03*
X132834758Y-50165984D03*
X136083891Y-44208247D03*
X129310515Y-58476953D03*
X132867093Y-58476953D03*
%TO.N,PUSH_1*%
X170507492Y-61990663D03*
%TO.N,PUSH_2*%
X171502336Y-61972898D03*
%TO.N,PUSH_3*%
X172495549Y-62032539D03*
%TO.N,PUSH_4*%
X173489838Y-62070210D03*
%TO.N,BUZZER*%
X160172716Y-58331479D03*
%TO.N,I2C_SDA*%
X160415890Y-55768302D03*
X174825773Y-67278692D03*
%TO.N,I2C_SCL*%
X161409091Y-55708454D03*
X174766410Y-66285462D03*
%TO.N,SYS_SWCLK*%
X170346406Y-53060514D03*
%TO.N,SYS_TRACESWO*%
X169443138Y-54054781D03*
%TO.N,LED1*%
X159237329Y-61725469D03*
X135076725Y-64145364D03*
%TO.N,LED2*%
X159246816Y-62750111D03*
X138336252Y-64048711D03*
%TO.N,LED3*%
X159246816Y-63745114D03*
X141637879Y-64064879D03*
%TO.N,SPI_SCK*%
X160864723Y-63225458D03*
%TO.N,SPI_MOSI*%
X162043080Y-61621930D03*
X162459227Y-82383465D03*
%TO.N,SPI_MISO*%
X161446955Y-62418589D03*
%TO.N,RFM_NIRQ*%
X160349267Y-64076536D03*
%TO.N,SPI_RFM_CS*%
X163179227Y-78573076D03*
X162952305Y-61217775D03*
%TO.N,RFM_GPIO2*%
X164781871Y-61801108D03*
%TO.N,RFM_GPIO3*%
X163980209Y-61211728D03*
%TO.N,RFM_SDN*%
X158741808Y-65275744D03*
%TO.N,RFM_GPIO1*%
X165497609Y-62492301D03*
%TO.N,MLX_INT*%
X174799103Y-58889154D03*
X174771516Y-64148814D03*
%TO.N,MLX_INT{slash}TRIG*%
X175793742Y-58862271D03*
X175756132Y-67919275D03*
%TO.N,RFM_GPIO4*%
X166689673Y-64085370D03*
%TO.N,RFM_GPIO5*%
X166107635Y-63278366D03*
%TO.N,UART4_TX*%
X168301865Y-52622222D03*
%TO.N,UART4_RX*%
X166638402Y-52140374D03*
%TD*%
D21*
%TO.N,PUSH_1*%
X159597540Y-44370257D02*
X159597540Y-51080711D01*
X159577829Y-44350546D02*
X159597540Y-44370257D01*
X159597540Y-51080711D02*
X170507492Y-61990663D01*
%TO.N,PUSH_2*%
X170790789Y-61270663D02*
X170805726Y-61270663D01*
X170805726Y-61270663D02*
X171502336Y-61967273D01*
X160827829Y-51307703D02*
X170790789Y-61270663D01*
X160827829Y-44350546D02*
X160827829Y-51307703D01*
X171502336Y-61967273D02*
X171502336Y-61972898D01*
%TO.N,PUSH_3*%
X162077829Y-44350546D02*
X162077829Y-51549071D01*
X162077829Y-51549071D02*
X171781656Y-61252898D01*
X172495549Y-61947877D02*
X172495549Y-62032539D01*
X171800570Y-61252898D02*
X172495549Y-61947877D01*
X171781656Y-61252898D02*
X171800570Y-61252898D01*
%TO.N,PUSH_4*%
X172793783Y-61312539D02*
X173489838Y-62008594D01*
X163327829Y-51934529D02*
X172705839Y-61312539D01*
X173489838Y-62008594D02*
X173489838Y-62070210D01*
X163327829Y-44350546D02*
X163327829Y-51934529D01*
X172705839Y-61312539D02*
X172793783Y-61312539D01*
%TO.N,BUZZER*%
X160172716Y-58331479D02*
X155827829Y-53986592D01*
X155827829Y-53986592D02*
X155827829Y-44350546D01*
%TO.N,I2C_SDA*%
X157077829Y-52184011D02*
X157077829Y-44350546D01*
X160415890Y-55768302D02*
X160415890Y-55522072D01*
X160415890Y-55768302D02*
X160450705Y-55768302D01*
X171961095Y-67278692D02*
X174825773Y-67278692D01*
X160450705Y-55768302D02*
X171961095Y-67278692D01*
X160415890Y-55522072D02*
X157077829Y-52184011D01*
%TO.N,I2C_SCL*%
X161409091Y-54838370D02*
X161409091Y-55708454D01*
X161409091Y-55708454D02*
X171986099Y-66285462D01*
X158327829Y-51757108D02*
X161409091Y-54838370D01*
X171986099Y-66285462D02*
X174766410Y-66285462D01*
X158327829Y-44350546D02*
X158327829Y-51757108D01*
D22*
%TO.N,/Capteurs/ANT*%
X172624215Y-73155492D02*
X173670262Y-73155492D01*
X176507457Y-75992687D02*
X181199638Y-75992687D01*
X173670262Y-73155492D02*
X176507457Y-75992687D01*
X181199638Y-75992687D02*
X181282612Y-76075661D01*
D21*
%TO.N,SYS_SWCLK*%
X182090599Y-53060514D02*
X183234589Y-51916524D01*
X170346406Y-53060514D02*
X182090599Y-53060514D01*
%TO.N,SYS_TRACESWO*%
X183091287Y-56996524D02*
X183234589Y-56996524D01*
X169443138Y-54054781D02*
X180149544Y-54054781D01*
X180149544Y-54054781D02*
X183091287Y-56996524D01*
%TO.N,LED1*%
X159237329Y-61725469D02*
X137496620Y-61725469D01*
X137496620Y-61725469D02*
X135076725Y-64145364D01*
%TO.N,LED2*%
X139634852Y-62750111D02*
X138336252Y-64048711D01*
X159246816Y-62750111D02*
X139634852Y-62750111D01*
%TO.N,LED3*%
X141957644Y-63745114D02*
X141637879Y-64064879D01*
X159246816Y-63745114D02*
X141957644Y-63745114D01*
%TO.N,SPI_SCK*%
X161069267Y-63430002D02*
X160864723Y-63225458D01*
X161069267Y-78938394D02*
X161069267Y-63430002D01*
X158852169Y-81155492D02*
X161069267Y-78938394D01*
X156624215Y-81155492D02*
X158852169Y-81155492D01*
%TO.N,SPI_MOSI*%
X162459227Y-82383465D02*
X162459227Y-62038077D01*
X162459227Y-62038077D02*
X162043080Y-61621930D01*
%TO.N,SPI_MISO*%
X156624215Y-85155492D02*
X158268424Y-85155492D01*
X161754227Y-81669689D02*
X161754227Y-62725861D01*
X158268424Y-85155492D02*
X161754227Y-81669689D01*
X161754227Y-62725861D02*
X161446955Y-62418589D01*
%TO.N,RFM_NIRQ*%
X160349267Y-75757670D02*
X160349267Y-64076536D01*
X156624215Y-77155492D02*
X158951445Y-77155492D01*
X158951445Y-77155492D02*
X160349267Y-75757670D01*
%TO.N,SPI_RFM_CS*%
X163179227Y-78573076D02*
X163179227Y-61444697D01*
X163179227Y-61444697D02*
X162952305Y-61217775D01*
%TO.N,RFM_GPIO2*%
X164777609Y-79662730D02*
X164777609Y-61805370D01*
X164777609Y-61805370D02*
X164781871Y-61801108D01*
X172624215Y-85155492D02*
X170270371Y-85155492D01*
X170270371Y-85155492D02*
X164777609Y-79662730D01*
%TO.N,RFM_GPIO3*%
X169967053Y-87121263D02*
X163980209Y-81134419D01*
X163980209Y-81134419D02*
X163980209Y-61211728D01*
X171772653Y-87155492D02*
X171738424Y-87121263D01*
X171738424Y-87121263D02*
X169967053Y-87121263D01*
X172624215Y-87155492D02*
X171772653Y-87155492D01*
%TO.N,RFM_SDN*%
X158741808Y-65275744D02*
X154742389Y-69275163D01*
X155788260Y-75155492D02*
X156624215Y-75155492D01*
X154742389Y-74109621D02*
X155788260Y-75155492D01*
X154742389Y-69275163D02*
X154742389Y-74109621D01*
%TO.N,RFM_GPIO1*%
X165488924Y-78325928D02*
X165488924Y-63656676D01*
X165402635Y-63570387D02*
X165402635Y-62587275D01*
X172624215Y-83155492D02*
X170318488Y-83155492D01*
X165402635Y-62587275D02*
X165497609Y-62492301D01*
X170318488Y-83155492D02*
X165488924Y-78325928D01*
X165488924Y-63656676D02*
X165402635Y-63570387D01*
%TO.N,MLX_INT*%
X174799103Y-64121227D02*
X174799103Y-58889154D01*
X174771516Y-64148814D02*
X174799103Y-64121227D01*
%TO.N,MLX_INT{slash}TRIG*%
X175756132Y-67919275D02*
X175756132Y-58899881D01*
X175756132Y-58899881D02*
X175793742Y-58862271D01*
%TO.N,RFM_GPIO4*%
X166834950Y-64230647D02*
X166689673Y-64085370D01*
X166834950Y-74509730D02*
X166834950Y-64230647D01*
X169480712Y-77155492D02*
X166834950Y-74509730D01*
X172624215Y-77155492D02*
X169480712Y-77155492D01*
%TO.N,RFM_GPIO5*%
X172624215Y-79155492D02*
X169872594Y-79155492D01*
X165984673Y-63401328D02*
X166107635Y-63278366D01*
X166161937Y-75444835D02*
X166161937Y-64554655D01*
X165984673Y-64377391D02*
X165984673Y-63401328D01*
X166161937Y-64554655D02*
X165984673Y-64377391D01*
X169872594Y-79155492D02*
X166161937Y-75444835D01*
%TO.N,UART4_TX*%
X168775140Y-52622222D02*
X175428337Y-45969025D01*
X168301865Y-52622222D02*
X168775140Y-52622222D01*
X175428337Y-45969025D02*
X175428337Y-40927890D01*
%TO.N,UART4_RX*%
X166638402Y-52140374D02*
X166653875Y-52140374D01*
X166653875Y-52140374D02*
X172888337Y-45905912D01*
X172888337Y-45905912D02*
X172888337Y-40927890D01*
%TD*%
%TA.AperFunction,Conductor*%
%TO.N,GND*%
G36*
X185529048Y-39077635D02*
G01*
X185574803Y-39130439D01*
X185586009Y-39181950D01*
X185586009Y-71057722D01*
X185566324Y-71124761D01*
X185513520Y-71170516D01*
X185461404Y-71181721D01*
X169184901Y-71102327D01*
X169184859Y-71102327D01*
X169251622Y-76041811D01*
X167496769Y-74286958D01*
X167463284Y-74225635D01*
X167460450Y-74199277D01*
X167460450Y-64584570D01*
X167477063Y-64522570D01*
X167516852Y-64453654D01*
X167575347Y-64273626D01*
X167595133Y-64085370D01*
X167595132Y-64085367D01*
X167595354Y-64083263D01*
X167621938Y-64018648D01*
X167679236Y-63978663D01*
X167749055Y-63976003D01*
X167806356Y-64008543D01*
X171562358Y-67764547D01*
X171562362Y-67764550D01*
X171664803Y-67833000D01*
X171664810Y-67833004D01*
X171728599Y-67859426D01*
X171778643Y-67880155D01*
X171798692Y-67884143D01*
X171832291Y-67890826D01*
X171899487Y-67904193D01*
X171899489Y-67904193D01*
X172028816Y-67904193D01*
X172028836Y-67904192D01*
X174122025Y-67904192D01*
X174189064Y-67923877D01*
X174214173Y-67945218D01*
X174219899Y-67951577D01*
X174219903Y-67951581D01*
X174373038Y-68062840D01*
X174373043Y-68062843D01*
X174545965Y-68139834D01*
X174545970Y-68139836D01*
X174731127Y-68179192D01*
X174803651Y-68179192D01*
X174870690Y-68198877D01*
X174916445Y-68251681D01*
X174921582Y-68264874D01*
X174928950Y-68287553D01*
X174928953Y-68287559D01*
X175023599Y-68451491D01*
X175150261Y-68592163D01*
X175303397Y-68703423D01*
X175303402Y-68703426D01*
X175476324Y-68780417D01*
X175476329Y-68780419D01*
X175661486Y-68819775D01*
X175661487Y-68819775D01*
X175850776Y-68819775D01*
X175850778Y-68819775D01*
X176035935Y-68780419D01*
X176208862Y-68703426D01*
X176362003Y-68592163D01*
X176488665Y-68451491D01*
X176583311Y-68287559D01*
X176641806Y-68107531D01*
X176661592Y-67919275D01*
X176641806Y-67731019D01*
X176583311Y-67550991D01*
X176488665Y-67387059D01*
X176413482Y-67303559D01*
X176383252Y-67240567D01*
X176381632Y-67220587D01*
X176381632Y-59602727D01*
X176401317Y-59535688D01*
X176413472Y-59519766D01*
X176526275Y-59394487D01*
X176620921Y-59230555D01*
X176679416Y-59050527D01*
X176699202Y-58862271D01*
X176679416Y-58674015D01*
X176620921Y-58493987D01*
X176526275Y-58330055D01*
X176399613Y-58189383D01*
X176373704Y-58170559D01*
X176246476Y-58078122D01*
X176246471Y-58078119D01*
X176073549Y-58001128D01*
X176073544Y-58001126D01*
X175927743Y-57970136D01*
X175888388Y-57961771D01*
X175699096Y-57961771D01*
X175666639Y-57968669D01*
X175513939Y-58001126D01*
X175513934Y-58001128D01*
X175341009Y-58078121D01*
X175335384Y-58081369D01*
X175334599Y-58080010D01*
X175276268Y-58100807D01*
X175218782Y-58090287D01*
X175078910Y-58028011D01*
X175078905Y-58028009D01*
X174933104Y-57997019D01*
X174893749Y-57988654D01*
X174704457Y-57988654D01*
X174672000Y-57995552D01*
X174519300Y-58028009D01*
X174519295Y-58028011D01*
X174346373Y-58105002D01*
X174346368Y-58105005D01*
X174193232Y-58216265D01*
X174066569Y-58356939D01*
X173971924Y-58520869D01*
X173971921Y-58520876D01*
X173913430Y-58700894D01*
X173913429Y-58700898D01*
X173893643Y-58889154D01*
X173913429Y-59077410D01*
X173913430Y-59077413D01*
X173971921Y-59257431D01*
X173971924Y-59257438D01*
X174066570Y-59421370D01*
X174109875Y-59469464D01*
X174141753Y-59504869D01*
X174171983Y-59567860D01*
X174173603Y-59587841D01*
X174173603Y-61210551D01*
X174153918Y-61277590D01*
X174101114Y-61323345D01*
X174031956Y-61333289D01*
X173976719Y-61310870D01*
X173942571Y-61286061D01*
X173942567Y-61286058D01*
X173769645Y-61209067D01*
X173769640Y-61209065D01*
X173584482Y-61169709D01*
X173578016Y-61169030D01*
X173578212Y-61167157D01*
X173519867Y-61150025D01*
X173499225Y-61133391D01*
X173286711Y-60920877D01*
X173286708Y-60920873D01*
X173286708Y-60920874D01*
X173279641Y-60913807D01*
X173279641Y-60913806D01*
X173192516Y-60826681D01*
X173192515Y-60826680D01*
X173192514Y-60826679D01*
X173129846Y-60784806D01*
X173109819Y-60771424D01*
X173090068Y-60758226D01*
X173047233Y-60740484D01*
X173020755Y-60729517D01*
X172980527Y-60702637D01*
X164418264Y-52140374D01*
X165732942Y-52140374D01*
X165752728Y-52328630D01*
X165752729Y-52328633D01*
X165811220Y-52508651D01*
X165811223Y-52508658D01*
X165905869Y-52672590D01*
X166017577Y-52796654D01*
X166032531Y-52813262D01*
X166185667Y-52924522D01*
X166185672Y-52924525D01*
X166358594Y-53001516D01*
X166358599Y-53001518D01*
X166543756Y-53040874D01*
X166543757Y-53040874D01*
X166733046Y-53040874D01*
X166733048Y-53040874D01*
X166918205Y-53001518D01*
X167091132Y-52924525D01*
X167244273Y-52813262D01*
X167244277Y-52813257D01*
X167246012Y-52811997D01*
X167311819Y-52788517D01*
X167379872Y-52804342D01*
X167428567Y-52854448D01*
X167436829Y-52873996D01*
X167474684Y-52990502D01*
X167474686Y-52990506D01*
X167569332Y-53154438D01*
X167613018Y-53202956D01*
X167695994Y-53295110D01*
X167849130Y-53406370D01*
X167849135Y-53406373D01*
X168022057Y-53483364D01*
X168022062Y-53483366D01*
X168207219Y-53522722D01*
X168207220Y-53522722D01*
X168396509Y-53522722D01*
X168396511Y-53522722D01*
X168482018Y-53504547D01*
X168551684Y-53509863D01*
X168607418Y-53552000D01*
X168631523Y-53617580D01*
X168617604Y-53680123D01*
X168618600Y-53680567D01*
X168616413Y-53685476D01*
X168616346Y-53685781D01*
X168616024Y-53686350D01*
X168615956Y-53686503D01*
X168567261Y-53836372D01*
X168557464Y-53866525D01*
X168537678Y-54054781D01*
X168557464Y-54243037D01*
X168557465Y-54243040D01*
X168615956Y-54423058D01*
X168615959Y-54423065D01*
X168710605Y-54586997D01*
X168824876Y-54713907D01*
X168837267Y-54727669D01*
X168990403Y-54838929D01*
X168990408Y-54838932D01*
X169163330Y-54915923D01*
X169163335Y-54915925D01*
X169348492Y-54955281D01*
X169348493Y-54955281D01*
X169537782Y-54955281D01*
X169537784Y-54955281D01*
X169722941Y-54915925D01*
X169895868Y-54838932D01*
X170049009Y-54727669D01*
X170051926Y-54724428D01*
X170054738Y-54721307D01*
X170114225Y-54684660D01*
X170146886Y-54680281D01*
X179839092Y-54680281D01*
X179906131Y-54699966D01*
X179926773Y-54716600D01*
X181864639Y-56654466D01*
X181898124Y-56715789D01*
X181898915Y-56755628D01*
X181899998Y-56755723D01*
X181878930Y-56996523D01*
X181878930Y-56996524D01*
X181899525Y-57231927D01*
X181899527Y-57231937D01*
X181960683Y-57460179D01*
X181960685Y-57460183D01*
X181960686Y-57460187D01*
X181965419Y-57470336D01*
X182060554Y-57674354D01*
X182060556Y-57674358D01*
X182196090Y-57867919D01*
X182196095Y-57867926D01*
X182363186Y-58035017D01*
X182363192Y-58035022D01*
X182424744Y-58078121D01*
X182517713Y-58143219D01*
X182549183Y-58165254D01*
X182592808Y-58219831D01*
X182600002Y-58289329D01*
X182568479Y-58351684D01*
X182549184Y-58368404D01*
X182363511Y-58498414D01*
X182363509Y-58498415D01*
X182196480Y-58665444D01*
X182196475Y-58665450D01*
X182060989Y-58858944D01*
X182060988Y-58858946D01*
X181961159Y-59073031D01*
X181961156Y-59073037D01*
X181903953Y-59286523D01*
X181903953Y-59286524D01*
X182801577Y-59286524D01*
X182768664Y-59343531D01*
X182734589Y-59470698D01*
X182734589Y-59602350D01*
X182768664Y-59729517D01*
X182801577Y-59786524D01*
X181903953Y-59786524D01*
X181961156Y-60000010D01*
X181961159Y-60000016D01*
X182060988Y-60214102D01*
X182196483Y-60407606D01*
X182363506Y-60574629D01*
X182557010Y-60710124D01*
X182771096Y-60809953D01*
X182771105Y-60809957D01*
X182984589Y-60867158D01*
X182984589Y-59969536D01*
X183041596Y-60002449D01*
X183168763Y-60036524D01*
X183300415Y-60036524D01*
X183427582Y-60002449D01*
X183484589Y-59969536D01*
X183484589Y-60867157D01*
X183698072Y-60809957D01*
X183698081Y-60809953D01*
X183912167Y-60710124D01*
X184105671Y-60574629D01*
X184272694Y-60407606D01*
X184408189Y-60214102D01*
X184508018Y-60000016D01*
X184508021Y-60000010D01*
X184565225Y-59786524D01*
X183667601Y-59786524D01*
X183700514Y-59729517D01*
X183734589Y-59602350D01*
X183734589Y-59470698D01*
X183700514Y-59343531D01*
X183667601Y-59286524D01*
X184565225Y-59286524D01*
X184565224Y-59286523D01*
X184508021Y-59073037D01*
X184508018Y-59073031D01*
X184408189Y-58858946D01*
X184408188Y-58858944D01*
X184272702Y-58665450D01*
X184272697Y-58665444D01*
X184105667Y-58498414D01*
X183919994Y-58368403D01*
X183876369Y-58313826D01*
X183869177Y-58244328D01*
X183900699Y-58181973D01*
X183919995Y-58165254D01*
X184105990Y-58035019D01*
X184273084Y-57867925D01*
X184408624Y-57674354D01*
X184508492Y-57460187D01*
X184569652Y-57231932D01*
X184590248Y-56996524D01*
X184569652Y-56761116D01*
X184508492Y-56532861D01*
X184408624Y-56318695D01*
X184395897Y-56300518D01*
X184273083Y-56125121D01*
X184105991Y-55958030D01*
X184105985Y-55958025D01*
X183920431Y-55828099D01*
X183876806Y-55773522D01*
X183869612Y-55704024D01*
X183901135Y-55641669D01*
X183920431Y-55624949D01*
X184033030Y-55546106D01*
X184105990Y-55495019D01*
X184273084Y-55327925D01*
X184408624Y-55134354D01*
X184508492Y-54920187D01*
X184569652Y-54691932D01*
X184590248Y-54456524D01*
X184569652Y-54221116D01*
X184508492Y-53992861D01*
X184408624Y-53778695D01*
X184398210Y-53763821D01*
X184273083Y-53585121D01*
X184105991Y-53418030D01*
X184105985Y-53418025D01*
X183920431Y-53288099D01*
X183876806Y-53233522D01*
X183869612Y-53164024D01*
X183901135Y-53101669D01*
X183920431Y-53084949D01*
X183983376Y-53040874D01*
X184105990Y-52955019D01*
X184273084Y-52787925D01*
X184408624Y-52594354D01*
X184508492Y-52380187D01*
X184569652Y-52151932D01*
X184590248Y-51916524D01*
X184569652Y-51681116D01*
X184512411Y-51467486D01*
X184508494Y-51452868D01*
X184508493Y-51452867D01*
X184508492Y-51452861D01*
X184408624Y-51238695D01*
X184407465Y-51237040D01*
X184273085Y-51045124D01*
X184273084Y-51045123D01*
X184151156Y-50923195D01*
X184117673Y-50861875D01*
X184122657Y-50792183D01*
X184164528Y-50736249D01*
X184195504Y-50719334D01*
X184326920Y-50670320D01*
X184442135Y-50584070D01*
X184528385Y-50468855D01*
X184578680Y-50334007D01*
X184585089Y-50274397D01*
X184585088Y-48478652D01*
X184578680Y-48419041D01*
X184528385Y-48284193D01*
X184528384Y-48284192D01*
X184528382Y-48284188D01*
X184442136Y-48168979D01*
X184442133Y-48168976D01*
X184326924Y-48082730D01*
X184326917Y-48082726D01*
X184192071Y-48032432D01*
X184192072Y-48032432D01*
X184132472Y-48026025D01*
X184132470Y-48026024D01*
X184132462Y-48026024D01*
X184132453Y-48026024D01*
X182336718Y-48026024D01*
X182336712Y-48026025D01*
X182277105Y-48032432D01*
X182142260Y-48082726D01*
X182142253Y-48082730D01*
X182027044Y-48168976D01*
X182027041Y-48168979D01*
X181940795Y-48284188D01*
X181940791Y-48284195D01*
X181890497Y-48419041D01*
X181884090Y-48478640D01*
X181884090Y-48478647D01*
X181884089Y-48478659D01*
X181884089Y-50274394D01*
X181884090Y-50274400D01*
X181890497Y-50334007D01*
X181940791Y-50468852D01*
X181940795Y-50468859D01*
X182027041Y-50584068D01*
X182027044Y-50584071D01*
X182142253Y-50670317D01*
X182142260Y-50670321D01*
X182273670Y-50719334D01*
X182329604Y-50761205D01*
X182354021Y-50826669D01*
X182339169Y-50894942D01*
X182318019Y-50923197D01*
X182196092Y-51045124D01*
X182060554Y-51238693D01*
X182060553Y-51238695D01*
X181960687Y-51452859D01*
X181960683Y-51452868D01*
X181899527Y-51681110D01*
X181899525Y-51681120D01*
X181878930Y-51916523D01*
X181878930Y-51916524D01*
X181899525Y-52151927D01*
X181899527Y-52151937D01*
X181926445Y-52252396D01*
X181924782Y-52322246D01*
X181894353Y-52372169D01*
X181867829Y-52398694D01*
X181806506Y-52432180D01*
X181780146Y-52435014D01*
X171050154Y-52435014D01*
X170983115Y-52415329D01*
X170958006Y-52393988D01*
X170952279Y-52387628D01*
X170952275Y-52387624D01*
X170799140Y-52276365D01*
X170799135Y-52276362D01*
X170626213Y-52199371D01*
X170626208Y-52199369D01*
X170480407Y-52168379D01*
X170441052Y-52160014D01*
X170421299Y-52160014D01*
X170354260Y-52140329D01*
X170308505Y-52087525D01*
X170298561Y-52018367D01*
X170327586Y-51954811D01*
X170333618Y-51948333D01*
X171545703Y-50736249D01*
X175914194Y-46367759D01*
X175982648Y-46265311D01*
X176029800Y-46151477D01*
X176053837Y-46030632D01*
X176053837Y-45907419D01*
X176053837Y-43758094D01*
X178923063Y-43758094D01*
X178923063Y-44000671D01*
X178954724Y-44241168D01*
X179017510Y-44475487D01*
X179110336Y-44699588D01*
X179110339Y-44699595D01*
X179231627Y-44909672D01*
X179231629Y-44909675D01*
X179231630Y-44909676D01*
X179379296Y-45102119D01*
X179379302Y-45102126D01*
X179550819Y-45273643D01*
X179550826Y-45273649D01*
X179581715Y-45297351D01*
X179743274Y-45421319D01*
X179953351Y-45542607D01*
X180177463Y-45635437D01*
X180411774Y-45698221D01*
X180592149Y-45721967D01*
X180652274Y-45729883D01*
X180652275Y-45729883D01*
X180894852Y-45729883D01*
X180942951Y-45723550D01*
X181135352Y-45698221D01*
X181369663Y-45635437D01*
X181593775Y-45542607D01*
X181803852Y-45421319D01*
X181996301Y-45273648D01*
X182167828Y-45102121D01*
X182315499Y-44909672D01*
X182436787Y-44699595D01*
X182529617Y-44475483D01*
X182592401Y-44241172D01*
X182624063Y-44000671D01*
X182624063Y-43758095D01*
X182592401Y-43517594D01*
X182529617Y-43283283D01*
X182436787Y-43059171D01*
X182315499Y-42849094D01*
X182167828Y-42656645D01*
X182167823Y-42656639D01*
X181996306Y-42485122D01*
X181996299Y-42485116D01*
X181803856Y-42337450D01*
X181803855Y-42337449D01*
X181803852Y-42337447D01*
X181593775Y-42216159D01*
X181593768Y-42216156D01*
X181369667Y-42123330D01*
X181135348Y-42060544D01*
X180894852Y-42028883D01*
X180894851Y-42028883D01*
X180652275Y-42028883D01*
X180652274Y-42028883D01*
X180411777Y-42060544D01*
X180177458Y-42123330D01*
X179953357Y-42216156D01*
X179953348Y-42216160D01*
X179743269Y-42337450D01*
X179550826Y-42485116D01*
X179550819Y-42485122D01*
X179379302Y-42656639D01*
X179379296Y-42656646D01*
X179231630Y-42849089D01*
X179110340Y-43059168D01*
X179110336Y-43059177D01*
X179017510Y-43283278D01*
X178954724Y-43517597D01*
X178923063Y-43758094D01*
X176053837Y-43758094D01*
X176053837Y-42402389D01*
X176073522Y-42335350D01*
X176126326Y-42289595D01*
X176177837Y-42278389D01*
X176326208Y-42278389D01*
X176326209Y-42278389D01*
X176385820Y-42271981D01*
X176520668Y-42221686D01*
X176635883Y-42135436D01*
X176722133Y-42020221D01*
X176772428Y-41885373D01*
X176778837Y-41825763D01*
X176778836Y-40030018D01*
X176772428Y-39970407D01*
X176771147Y-39966973D01*
X176722134Y-39835561D01*
X176722130Y-39835554D01*
X176635884Y-39720345D01*
X176635881Y-39720342D01*
X176520672Y-39634096D01*
X176520665Y-39634092D01*
X176385819Y-39583798D01*
X176385820Y-39583798D01*
X176326220Y-39577391D01*
X176326218Y-39577390D01*
X176326210Y-39577390D01*
X176326201Y-39577390D01*
X174530466Y-39577390D01*
X174530460Y-39577391D01*
X174470853Y-39583798D01*
X174336008Y-39634092D01*
X174336001Y-39634096D01*
X174220792Y-39720342D01*
X174220789Y-39720345D01*
X174134543Y-39835554D01*
X174134540Y-39835559D01*
X174085526Y-39966973D01*
X174043654Y-40022906D01*
X173978190Y-40047323D01*
X173909917Y-40032471D01*
X173881663Y-40011320D01*
X173759739Y-39889396D01*
X173759732Y-39889391D01*
X173566171Y-39753857D01*
X173566167Y-39753855D01*
X173566165Y-39753854D01*
X173352000Y-39653987D01*
X173351996Y-39653986D01*
X173351992Y-39653984D01*
X173123750Y-39592828D01*
X173123740Y-39592826D01*
X172888338Y-39572231D01*
X172888336Y-39572231D01*
X172652933Y-39592826D01*
X172652923Y-39592828D01*
X172424681Y-39653984D01*
X172424672Y-39653988D01*
X172210508Y-39753854D01*
X172210506Y-39753855D01*
X172016934Y-39889395D01*
X171849842Y-40056487D01*
X171714302Y-40250059D01*
X171714301Y-40250061D01*
X171614435Y-40464225D01*
X171614431Y-40464234D01*
X171553275Y-40692476D01*
X171553273Y-40692486D01*
X171532678Y-40927889D01*
X171532678Y-40927890D01*
X171553273Y-41163293D01*
X171553275Y-41163303D01*
X171614431Y-41391545D01*
X171614433Y-41391549D01*
X171614434Y-41391553D01*
X171698836Y-41572553D01*
X171714302Y-41605720D01*
X171714304Y-41605724D01*
X171822618Y-41760411D01*
X171849842Y-41799291D01*
X172016936Y-41966385D01*
X172209961Y-42101543D01*
X172253585Y-42156118D01*
X172262837Y-42203116D01*
X172262837Y-45595459D01*
X172243152Y-45662498D01*
X172226518Y-45683140D01*
X166706104Y-51203555D01*
X166644781Y-51237040D01*
X166618423Y-51239874D01*
X166543756Y-51239874D01*
X166511299Y-51246772D01*
X166358599Y-51279229D01*
X166358594Y-51279231D01*
X166185672Y-51356222D01*
X166185667Y-51356225D01*
X166032531Y-51467485D01*
X165905868Y-51608159D01*
X165811223Y-51772089D01*
X165811220Y-51772096D01*
X165753958Y-51948333D01*
X165752728Y-51952118D01*
X165732942Y-52140374D01*
X164418264Y-52140374D01*
X163989648Y-51711758D01*
X163956163Y-51650435D01*
X163953329Y-51624077D01*
X163953329Y-45395385D01*
X163973014Y-45328346D01*
X164025818Y-45282591D01*
X164094976Y-45272647D01*
X164135783Y-45286027D01*
X164180447Y-45309901D01*
X164375250Y-45368993D01*
X164375246Y-45368993D01*
X164577829Y-45388945D01*
X164780409Y-45368993D01*
X164975209Y-45309901D01*
X165111032Y-45237302D01*
X164489997Y-44616267D01*
X164541045Y-44629946D01*
X164614613Y-44629946D01*
X164685673Y-44610905D01*
X164749385Y-44574122D01*
X164801405Y-44522102D01*
X164838188Y-44458390D01*
X164857229Y-44387330D01*
X164857229Y-44350545D01*
X164931382Y-44350545D01*
X164931382Y-44350546D01*
X165464585Y-44883749D01*
X165537184Y-44747926D01*
X165596276Y-44553126D01*
X165616228Y-44350546D01*
X165596276Y-44147965D01*
X165537184Y-43953165D01*
X165464584Y-43817342D01*
X164931382Y-44350545D01*
X164857229Y-44350545D01*
X164857229Y-44313762D01*
X164838188Y-44242702D01*
X164801405Y-44178990D01*
X164749385Y-44126970D01*
X164685673Y-44090187D01*
X164614613Y-44071146D01*
X164541045Y-44071146D01*
X164489994Y-44084825D01*
X164577829Y-43996992D01*
X165111031Y-43463789D01*
X164975210Y-43391190D01*
X164780407Y-43332098D01*
X164780411Y-43332098D01*
X164577829Y-43312146D01*
X164375248Y-43332098D01*
X164180446Y-43391191D01*
X164180443Y-43391192D01*
X164011813Y-43481327D01*
X163943410Y-43495569D01*
X163894907Y-43481327D01*
X163725401Y-43390725D01*
X163530511Y-43331605D01*
X163327829Y-43311643D01*
X163125146Y-43331605D01*
X162930256Y-43390725D01*
X162761282Y-43481044D01*
X162692879Y-43495286D01*
X162644376Y-43481044D01*
X162475401Y-43390725D01*
X162280511Y-43331605D01*
X162077829Y-43311643D01*
X161875146Y-43331605D01*
X161680256Y-43390725D01*
X161511282Y-43481044D01*
X161442879Y-43495286D01*
X161394376Y-43481044D01*
X161225401Y-43390725D01*
X161030511Y-43331605D01*
X160827829Y-43311643D01*
X160625146Y-43331605D01*
X160430256Y-43390725D01*
X160261282Y-43481044D01*
X160192879Y-43495286D01*
X160144376Y-43481044D01*
X159975401Y-43390725D01*
X159780511Y-43331605D01*
X159577829Y-43311643D01*
X159375146Y-43331605D01*
X159180256Y-43390725D01*
X159011282Y-43481044D01*
X158942879Y-43495286D01*
X158894376Y-43481044D01*
X158725401Y-43390725D01*
X158530511Y-43331605D01*
X158327829Y-43311643D01*
X158125146Y-43331605D01*
X157930256Y-43390725D01*
X157761282Y-43481044D01*
X157692879Y-43495286D01*
X157644376Y-43481044D01*
X157475401Y-43390725D01*
X157280511Y-43331605D01*
X157077829Y-43311643D01*
X156875146Y-43331605D01*
X156680256Y-43390725D01*
X156511282Y-43481044D01*
X156442879Y-43495286D01*
X156394376Y-43481044D01*
X156225401Y-43390725D01*
X156030511Y-43331605D01*
X155827829Y-43311643D01*
X155625146Y-43331605D01*
X155430256Y-43390725D01*
X155261282Y-43481044D01*
X155192879Y-43495286D01*
X155144376Y-43481044D01*
X154975401Y-43390725D01*
X154780511Y-43331605D01*
X154577829Y-43311643D01*
X154375146Y-43331605D01*
X154180256Y-43390725D01*
X154011282Y-43481044D01*
X153942879Y-43495286D01*
X153894376Y-43481044D01*
X153725401Y-43390725D01*
X153530511Y-43331605D01*
X153327829Y-43311643D01*
X153125146Y-43331605D01*
X152930256Y-43390725D01*
X152750650Y-43486726D01*
X152750643Y-43486730D01*
X152593213Y-43615930D01*
X152464013Y-43773360D01*
X152464009Y-43773367D01*
X152368008Y-43952973D01*
X152308888Y-44147863D01*
X152288926Y-44350546D01*
X152308888Y-44553228D01*
X152368008Y-44748118D01*
X152464009Y-44927724D01*
X152464013Y-44927731D01*
X152593213Y-45085161D01*
X152750643Y-45214361D01*
X152750650Y-45214365D01*
X152884721Y-45286027D01*
X152930258Y-45310367D01*
X153125149Y-45369487D01*
X153327829Y-45389449D01*
X153530509Y-45369487D01*
X153725400Y-45310367D01*
X153814849Y-45262555D01*
X153894376Y-45220048D01*
X153962779Y-45205806D01*
X154011282Y-45220048D01*
X154155907Y-45297351D01*
X154180258Y-45310367D01*
X154375149Y-45369487D01*
X154577829Y-45389449D01*
X154780509Y-45369487D01*
X154975400Y-45310367D01*
X155019877Y-45286593D01*
X155088277Y-45272352D01*
X155153521Y-45297351D01*
X155194892Y-45353656D01*
X155202329Y-45395952D01*
X155202329Y-54048203D01*
X155226364Y-54169036D01*
X155226369Y-54169053D01*
X155273514Y-54282872D01*
X155273519Y-54282881D01*
X155307743Y-54334099D01*
X155307744Y-54334101D01*
X155341970Y-54385325D01*
X155433415Y-54476770D01*
X155433437Y-54476790D01*
X159233754Y-58277107D01*
X159267239Y-58338430D01*
X159269394Y-58351826D01*
X159276855Y-58422817D01*
X159287042Y-58519735D01*
X159287043Y-58519738D01*
X159345534Y-58699756D01*
X159345537Y-58699763D01*
X159440183Y-58863695D01*
X159566845Y-59004367D01*
X159719981Y-59115627D01*
X159719986Y-59115630D01*
X159892908Y-59192621D01*
X159892913Y-59192623D01*
X160078070Y-59231979D01*
X160078071Y-59231979D01*
X160267360Y-59231979D01*
X160267362Y-59231979D01*
X160452519Y-59192623D01*
X160625446Y-59115630D01*
X160778587Y-59004367D01*
X160905249Y-58863695D01*
X160999895Y-58699763D01*
X161058390Y-58519735D01*
X161078176Y-58331479D01*
X161058390Y-58143223D01*
X160999895Y-57963195D01*
X160905249Y-57799263D01*
X160778587Y-57658591D01*
X160778586Y-57658590D01*
X160625450Y-57547330D01*
X160625445Y-57547327D01*
X160452523Y-57470336D01*
X160452518Y-57470334D01*
X160306717Y-57439344D01*
X160267362Y-57430979D01*
X160267361Y-57430979D01*
X160208168Y-57430979D01*
X160141129Y-57411294D01*
X160120487Y-57394660D01*
X156489648Y-53763821D01*
X156456163Y-53702498D01*
X156453329Y-53676140D01*
X156453329Y-52743465D01*
X156473014Y-52676426D01*
X156525818Y-52630671D01*
X156594976Y-52620727D01*
X156658532Y-52649752D01*
X156665010Y-52655784D01*
X156683415Y-52674189D01*
X156683437Y-52674209D01*
X159494011Y-55484783D01*
X159527496Y-55546106D01*
X159529650Y-55585422D01*
X159510430Y-55768302D01*
X159530216Y-55956558D01*
X159530217Y-55956561D01*
X159588708Y-56136579D01*
X159588711Y-56136586D01*
X159683357Y-56300518D01*
X159699724Y-56318695D01*
X159810019Y-56441190D01*
X159963155Y-56552450D01*
X159963160Y-56552453D01*
X160136082Y-56629444D01*
X160136087Y-56629446D01*
X160321244Y-56668802D01*
X160415253Y-56668802D01*
X160482292Y-56688487D01*
X160502934Y-56705121D01*
X163908377Y-60110564D01*
X163941862Y-60171887D01*
X163936878Y-60241579D01*
X163895006Y-60297512D01*
X163846477Y-60319535D01*
X163700406Y-60350583D01*
X163700401Y-60350585D01*
X163527479Y-60427576D01*
X163522965Y-60430183D01*
X163455064Y-60446652D01*
X163410534Y-60436072D01*
X163232112Y-60356632D01*
X163232107Y-60356630D01*
X163086306Y-60325640D01*
X163046951Y-60317275D01*
X162857659Y-60317275D01*
X162825202Y-60324173D01*
X162672502Y-60356630D01*
X162672497Y-60356632D01*
X162499575Y-60433623D01*
X162499570Y-60433626D01*
X162346434Y-60544886D01*
X162224415Y-60680402D01*
X162164928Y-60717051D01*
X162132265Y-60721430D01*
X161948434Y-60721430D01*
X161932175Y-60724886D01*
X161763277Y-60760785D01*
X161763272Y-60760787D01*
X161590350Y-60837778D01*
X161590345Y-60837781D01*
X161437209Y-60949041D01*
X161310546Y-61089715D01*
X161215901Y-61253645D01*
X161215898Y-61253652D01*
X161157407Y-61433669D01*
X161157406Y-61433671D01*
X161150763Y-61496876D01*
X161124177Y-61561491D01*
X161077878Y-61597192D01*
X160994224Y-61634437D01*
X160841084Y-61745700D01*
X160714421Y-61886374D01*
X160619776Y-62050304D01*
X160619773Y-62050311D01*
X160561282Y-62230328D01*
X160561281Y-62230330D01*
X160552830Y-62310735D01*
X160526244Y-62375349D01*
X160479946Y-62411051D01*
X160411991Y-62441307D01*
X160292256Y-62528299D01*
X160226450Y-62551778D01*
X160158396Y-62535952D01*
X160109702Y-62485846D01*
X160101441Y-62466297D01*
X160073998Y-62381835D01*
X160073996Y-62381831D01*
X160073995Y-62381827D01*
X160021884Y-62291570D01*
X160005413Y-62223675D01*
X160021884Y-62167578D01*
X160064508Y-62093753D01*
X160123003Y-61913725D01*
X160142789Y-61725469D01*
X160123003Y-61537213D01*
X160064508Y-61357185D01*
X159969862Y-61193253D01*
X159843200Y-61052581D01*
X159843199Y-61052580D01*
X159690063Y-60941320D01*
X159690058Y-60941317D01*
X159517136Y-60864326D01*
X159517131Y-60864324D01*
X159340029Y-60826681D01*
X159331975Y-60824969D01*
X159142683Y-60824969D01*
X159134629Y-60826681D01*
X158957526Y-60864324D01*
X158957521Y-60864326D01*
X158784599Y-60941317D01*
X158784594Y-60941320D01*
X158631459Y-61052579D01*
X158631455Y-61052583D01*
X158625729Y-61058943D01*
X158566242Y-61095590D01*
X158533581Y-61099969D01*
X137558226Y-61099969D01*
X137435013Y-61099969D01*
X137375765Y-61111754D01*
X137375764Y-61111753D01*
X137314175Y-61124004D01*
X137314165Y-61124007D01*
X137200336Y-61171156D01*
X137122454Y-61223196D01*
X137122453Y-61223196D01*
X137097890Y-61239608D01*
X137097882Y-61239614D01*
X135128954Y-63208545D01*
X135067631Y-63242030D01*
X135041273Y-63244864D01*
X134982079Y-63244864D01*
X134949622Y-63251762D01*
X134796922Y-63284219D01*
X134796917Y-63284221D01*
X134623995Y-63361212D01*
X134623990Y-63361215D01*
X134470854Y-63472475D01*
X134344191Y-63613149D01*
X134249546Y-63777079D01*
X134249543Y-63777086D01*
X134217202Y-63876623D01*
X134191051Y-63957108D01*
X134171265Y-64145364D01*
X134191051Y-64333620D01*
X134191052Y-64333623D01*
X134249543Y-64513641D01*
X134249546Y-64513648D01*
X134344192Y-64677580D01*
X134398385Y-64737767D01*
X134470854Y-64818252D01*
X134623990Y-64929512D01*
X134623995Y-64929515D01*
X134796917Y-65006506D01*
X134796922Y-65006508D01*
X134982079Y-65045864D01*
X134982080Y-65045864D01*
X135171369Y-65045864D01*
X135171371Y-65045864D01*
X135356528Y-65006508D01*
X135529455Y-64929515D01*
X135682596Y-64818252D01*
X135809258Y-64677580D01*
X135903904Y-64513648D01*
X135962399Y-64333620D01*
X135980046Y-64165708D01*
X136006629Y-64101098D01*
X136015676Y-64091002D01*
X137719392Y-62387288D01*
X137780715Y-62353803D01*
X137807073Y-62350969D01*
X138850041Y-62350969D01*
X138917080Y-62370654D01*
X138962835Y-62423458D01*
X138972779Y-62492616D01*
X138943754Y-62556172D01*
X138937722Y-62562650D01*
X138388481Y-63111892D01*
X138327158Y-63145377D01*
X138300800Y-63148211D01*
X138241606Y-63148211D01*
X138209149Y-63155109D01*
X138056449Y-63187566D01*
X138056444Y-63187568D01*
X137883522Y-63264559D01*
X137883517Y-63264562D01*
X137730381Y-63375822D01*
X137603718Y-63516496D01*
X137509073Y-63680426D01*
X137509070Y-63680433D01*
X137476547Y-63780530D01*
X137450578Y-63860455D01*
X137430792Y-64048711D01*
X137450578Y-64236967D01*
X137450579Y-64236970D01*
X137509070Y-64416988D01*
X137509073Y-64416995D01*
X137603719Y-64580927D01*
X137730381Y-64721599D01*
X137883517Y-64832859D01*
X137883522Y-64832862D01*
X138056444Y-64909853D01*
X138056449Y-64909855D01*
X138241606Y-64949211D01*
X138241607Y-64949211D01*
X138430896Y-64949211D01*
X138430898Y-64949211D01*
X138616055Y-64909855D01*
X138788982Y-64832862D01*
X138942123Y-64721599D01*
X139068785Y-64580927D01*
X139163431Y-64416995D01*
X139221926Y-64236967D01*
X139239573Y-64069055D01*
X139266156Y-64004445D01*
X139275202Y-63994350D01*
X139857624Y-63411930D01*
X139918947Y-63378445D01*
X139945305Y-63375611D01*
X140781246Y-63375611D01*
X140848285Y-63395296D01*
X140894040Y-63448100D01*
X140903984Y-63517258D01*
X140888633Y-63561611D01*
X140810700Y-63696594D01*
X140810697Y-63696601D01*
X140757458Y-63860455D01*
X140752205Y-63876623D01*
X140732419Y-64064879D01*
X140752205Y-64253135D01*
X140752206Y-64253138D01*
X140810697Y-64433156D01*
X140810700Y-64433163D01*
X140905346Y-64597095D01*
X140980920Y-64681028D01*
X141032008Y-64737767D01*
X141185144Y-64849027D01*
X141185149Y-64849030D01*
X141358071Y-64926021D01*
X141358076Y-64926023D01*
X141543233Y-64965379D01*
X141543234Y-64965379D01*
X141732523Y-64965379D01*
X141732525Y-64965379D01*
X141917682Y-64926023D01*
X142090609Y-64849030D01*
X142243750Y-64737767D01*
X142370412Y-64597095D01*
X142465058Y-64433163D01*
X142465057Y-64433163D01*
X142465375Y-64432614D01*
X142515942Y-64384399D01*
X142572762Y-64370614D01*
X158073958Y-64370614D01*
X158140997Y-64390299D01*
X158186752Y-64443103D01*
X158196696Y-64512261D01*
X158167671Y-64575817D01*
X158146845Y-64594930D01*
X158141959Y-64598480D01*
X158135935Y-64602857D01*
X158009274Y-64743529D01*
X157914629Y-64907459D01*
X157914626Y-64907466D01*
X157861040Y-65072389D01*
X157856134Y-65087488D01*
X157849961Y-65146226D01*
X157838487Y-65255393D01*
X157811902Y-65320007D01*
X157802847Y-65330112D01*
X154343658Y-68789303D01*
X154256533Y-68876427D01*
X154256527Y-68876435D01*
X154188081Y-68978868D01*
X154188073Y-68978882D01*
X154154736Y-69059370D01*
X154149212Y-69072706D01*
X154140926Y-69092708D01*
X154140924Y-69092716D01*
X154116889Y-69213552D01*
X154116889Y-74171231D01*
X154140924Y-74292067D01*
X154140928Y-74292079D01*
X154149096Y-74311797D01*
X154149097Y-74311800D01*
X154188074Y-74405902D01*
X154188079Y-74405911D01*
X154216286Y-74448124D01*
X154216287Y-74448125D01*
X154256530Y-74508354D01*
X154347975Y-74599799D01*
X154347997Y-74599819D01*
X155087396Y-75339218D01*
X155120881Y-75400541D01*
X155123715Y-75426899D01*
X155123715Y-75579443D01*
X155126532Y-75620991D01*
X155171178Y-75800513D01*
X155171179Y-75800515D01*
X155253371Y-75966242D01*
X155253372Y-75966243D01*
X155253373Y-75966245D01*
X155343048Y-76077804D01*
X155369707Y-76142388D01*
X155357217Y-76211132D01*
X155343048Y-76233180D01*
X155253371Y-76344741D01*
X155171179Y-76510468D01*
X155171178Y-76510470D01*
X155126532Y-76689992D01*
X155123715Y-76731540D01*
X155123715Y-77579443D01*
X155126532Y-77620991D01*
X155171178Y-77800513D01*
X155171179Y-77800515D01*
X155253371Y-77966242D01*
X155253372Y-77966243D01*
X155253373Y-77966245D01*
X155314134Y-78041834D01*
X155343048Y-78077804D01*
X155369707Y-78142388D01*
X155357217Y-78211132D01*
X155343048Y-78233180D01*
X155253371Y-78344741D01*
X155171179Y-78510468D01*
X155171178Y-78510470D01*
X155126532Y-78689992D01*
X155123715Y-78731540D01*
X155123715Y-79579443D01*
X155126532Y-79620991D01*
X155171178Y-79800513D01*
X155171179Y-79800515D01*
X155253371Y-79966242D01*
X155253372Y-79966243D01*
X155253373Y-79966245D01*
X155343048Y-80077804D01*
X155369707Y-80142388D01*
X155357217Y-80211132D01*
X155343049Y-80233177D01*
X155297647Y-80289660D01*
X155253371Y-80344741D01*
X155171179Y-80510468D01*
X155171178Y-80510470D01*
X155126532Y-80689992D01*
X155123715Y-80731540D01*
X155123715Y-81579443D01*
X155126532Y-81620991D01*
X155171178Y-81800513D01*
X155171179Y-81800515D01*
X155253371Y-81966242D01*
X155253372Y-81966243D01*
X155253373Y-81966245D01*
X155343048Y-82077804D01*
X155369707Y-82142388D01*
X155357217Y-82211132D01*
X155343048Y-82233180D01*
X155253371Y-82344741D01*
X155171179Y-82510468D01*
X155171178Y-82510470D01*
X155126532Y-82689992D01*
X155123715Y-82731540D01*
X155123715Y-83579443D01*
X155126532Y-83620991D01*
X155171178Y-83800513D01*
X155171179Y-83800515D01*
X155253371Y-83966242D01*
X155343048Y-84077804D01*
X155369707Y-84142388D01*
X155357217Y-84211132D01*
X155343049Y-84233177D01*
X155297647Y-84289660D01*
X155253371Y-84344741D01*
X155171179Y-84510468D01*
X155171178Y-84510470D01*
X155126532Y-84689992D01*
X155123715Y-84731540D01*
X155123715Y-85579443D01*
X155126532Y-85620991D01*
X155171178Y-85800513D01*
X155171179Y-85800515D01*
X155253371Y-85966242D01*
X155343368Y-86078203D01*
X155370027Y-86142787D01*
X155357537Y-86211532D01*
X155343368Y-86233578D01*
X155253796Y-86345010D01*
X155171650Y-86510642D01*
X155127030Y-86690060D01*
X155124215Y-86731580D01*
X155124215Y-86905492D01*
X156191203Y-86905492D01*
X156158290Y-86962499D01*
X156124215Y-87089666D01*
X156124215Y-87221318D01*
X156158290Y-87348485D01*
X156191203Y-87405492D01*
X155124216Y-87405492D01*
X155124216Y-87579409D01*
X155127029Y-87620915D01*
X155127029Y-87620917D01*
X155171650Y-87800341D01*
X155253796Y-87965973D01*
X155369629Y-88110076D01*
X155369630Y-88110077D01*
X155513733Y-88225910D01*
X155679365Y-88308056D01*
X155858783Y-88352676D01*
X155900303Y-88355491D01*
X156849214Y-88355491D01*
X157349215Y-88355491D01*
X158298126Y-88355491D01*
X158298132Y-88355490D01*
X158339638Y-88352677D01*
X158339640Y-88352677D01*
X158519064Y-88308056D01*
X158684696Y-88225910D01*
X158828799Y-88110077D01*
X158828800Y-88110076D01*
X158944633Y-87965973D01*
X159026779Y-87800341D01*
X159071399Y-87620923D01*
X159074215Y-87579403D01*
X159074215Y-87405492D01*
X157349215Y-87405492D01*
X157349215Y-88355491D01*
X156849214Y-88355491D01*
X156849215Y-88355490D01*
X156849215Y-87602937D01*
X156931222Y-87555591D01*
X157024314Y-87462499D01*
X157090140Y-87348485D01*
X157124215Y-87221318D01*
X157124215Y-87089666D01*
X157090140Y-86962499D01*
X157057227Y-86905492D01*
X159074214Y-86905492D01*
X159074214Y-86731581D01*
X159074213Y-86731574D01*
X159071400Y-86690068D01*
X159071400Y-86690066D01*
X159026779Y-86510642D01*
X158944633Y-86345010D01*
X158855061Y-86233578D01*
X158828402Y-86168994D01*
X158840892Y-86100250D01*
X158855058Y-86078207D01*
X158945057Y-85966245D01*
X159027252Y-85800513D01*
X159071898Y-85620987D01*
X159074715Y-85579446D01*
X159074715Y-85285152D01*
X159094400Y-85218113D01*
X159111029Y-85197476D01*
X161490222Y-82818282D01*
X161551543Y-82784799D01*
X161621235Y-82789783D01*
X161677168Y-82831655D01*
X161685288Y-82843965D01*
X161726692Y-82915679D01*
X161853356Y-83056353D01*
X162006492Y-83167613D01*
X162006497Y-83167616D01*
X162179419Y-83244607D01*
X162179424Y-83244609D01*
X162364581Y-83283965D01*
X162364582Y-83283965D01*
X162553871Y-83283965D01*
X162553873Y-83283965D01*
X162739030Y-83244609D01*
X162911957Y-83167616D01*
X163065098Y-83056353D01*
X163191760Y-82915681D01*
X163286406Y-82751749D01*
X163344901Y-82571721D01*
X163364687Y-82383465D01*
X163344901Y-82195209D01*
X163286406Y-82015181D01*
X163191760Y-81851249D01*
X163146079Y-81800515D01*
X163116577Y-81767749D01*
X163086347Y-81704757D01*
X163084727Y-81684777D01*
X163084727Y-79597576D01*
X163104412Y-79530537D01*
X163157216Y-79484782D01*
X163208727Y-79473576D01*
X163230709Y-79473576D01*
X163297748Y-79493261D01*
X163343503Y-79546065D01*
X163354709Y-79597576D01*
X163354709Y-81196026D01*
X163358900Y-81217094D01*
X163358900Y-81217098D01*
X163378744Y-81316863D01*
X163378745Y-81316869D01*
X163387476Y-81337946D01*
X163387475Y-81337946D01*
X163425894Y-81430700D01*
X163425899Y-81430709D01*
X163457296Y-81477696D01*
X163457298Y-81477699D01*
X163457300Y-81477701D01*
X163481890Y-81514503D01*
X163494352Y-81533154D01*
X163585795Y-81624597D01*
X163585817Y-81624617D01*
X169478069Y-87516869D01*
X169478098Y-87516900D01*
X169568317Y-87607119D01*
X169568320Y-87607121D01*
X169601672Y-87629406D01*
X169670767Y-87675575D01*
X169751260Y-87708915D01*
X169784601Y-87722726D01*
X169845024Y-87734744D01*
X169905446Y-87746763D01*
X169905447Y-87746763D01*
X170117607Y-87746763D01*
X170184646Y-87766448D01*
X170228692Y-87815665D01*
X170303373Y-87966245D01*
X170303374Y-87966246D01*
X170419274Y-88110432D01*
X170501388Y-88176437D01*
X170563462Y-88226334D01*
X170729194Y-88308529D01*
X170908716Y-88353174D01*
X170908717Y-88353174D01*
X170908720Y-88353175D01*
X170950261Y-88355992D01*
X170950263Y-88355992D01*
X173348167Y-88355992D01*
X173348169Y-88355992D01*
X173389710Y-88353175D01*
X173569236Y-88308529D01*
X173734968Y-88226334D01*
X173879155Y-88110432D01*
X173995057Y-87966245D01*
X174077252Y-87800513D01*
X174121898Y-87620987D01*
X174124715Y-87579446D01*
X174124715Y-86731538D01*
X174121898Y-86689997D01*
X174077252Y-86510471D01*
X173995057Y-86344739D01*
X173905381Y-86233178D01*
X173878723Y-86168596D01*
X173891213Y-86099852D01*
X173905382Y-86077804D01*
X173906273Y-86076696D01*
X173995057Y-85966245D01*
X174077252Y-85800513D01*
X174121898Y-85620987D01*
X174124715Y-85579446D01*
X174124715Y-84731538D01*
X174121898Y-84689997D01*
X174077252Y-84510471D01*
X173995057Y-84344739D01*
X173905381Y-84233178D01*
X173878723Y-84168596D01*
X173891213Y-84099852D01*
X173905382Y-84077804D01*
X173995057Y-83966245D01*
X174077252Y-83800513D01*
X174087801Y-83758094D01*
X178923063Y-83758094D01*
X178923063Y-84000671D01*
X178954724Y-84241168D01*
X179017510Y-84475487D01*
X179032001Y-84510471D01*
X179110339Y-84699595D01*
X179231627Y-84909672D01*
X179231629Y-84909675D01*
X179231630Y-84909676D01*
X179379296Y-85102119D01*
X179379302Y-85102126D01*
X179550819Y-85273643D01*
X179550825Y-85273648D01*
X179743274Y-85421319D01*
X179953351Y-85542607D01*
X180177463Y-85635437D01*
X180411774Y-85698221D01*
X180592149Y-85721967D01*
X180652274Y-85729883D01*
X180652275Y-85729883D01*
X180894852Y-85729883D01*
X180942951Y-85723550D01*
X181135352Y-85698221D01*
X181369663Y-85635437D01*
X181593775Y-85542607D01*
X181803852Y-85421319D01*
X181996301Y-85273648D01*
X182167828Y-85102121D01*
X182315499Y-84909672D01*
X182436787Y-84699595D01*
X182529617Y-84475483D01*
X182592401Y-84241172D01*
X182624063Y-84000671D01*
X182624063Y-83758095D01*
X182617705Y-83709804D01*
X182606013Y-83620987D01*
X182592401Y-83517594D01*
X182529617Y-83283283D01*
X182436787Y-83059171D01*
X182315499Y-82849094D01*
X182167828Y-82656645D01*
X182167823Y-82656639D01*
X181996306Y-82485122D01*
X181996299Y-82485116D01*
X181803856Y-82337450D01*
X181803855Y-82337449D01*
X181803852Y-82337447D01*
X181593775Y-82216159D01*
X181581639Y-82211132D01*
X181369667Y-82123330D01*
X181135348Y-82060544D01*
X180894852Y-82028883D01*
X180894851Y-82028883D01*
X180652275Y-82028883D01*
X180652274Y-82028883D01*
X180411777Y-82060544D01*
X180177458Y-82123330D01*
X179953357Y-82216156D01*
X179953348Y-82216160D01*
X179743269Y-82337450D01*
X179550826Y-82485116D01*
X179550819Y-82485122D01*
X179379302Y-82656639D01*
X179379296Y-82656646D01*
X179231630Y-82849089D01*
X179110340Y-83059168D01*
X179110336Y-83059177D01*
X179017510Y-83283278D01*
X178954724Y-83517597D01*
X178923063Y-83758094D01*
X174087801Y-83758094D01*
X174121898Y-83620987D01*
X174124715Y-83579446D01*
X174124715Y-82731538D01*
X174121898Y-82689997D01*
X174077252Y-82510471D01*
X173995057Y-82344739D01*
X173905381Y-82233178D01*
X173878723Y-82168596D01*
X173891213Y-82099852D01*
X173905382Y-82077804D01*
X173995057Y-81966245D01*
X174077252Y-81800513D01*
X174102295Y-81699811D01*
X185586009Y-81699811D01*
X185586009Y-88542950D01*
X185566324Y-88609989D01*
X185513520Y-88655744D01*
X185462009Y-88666950D01*
X126101009Y-88666950D01*
X126033970Y-88647265D01*
X125988215Y-88594461D01*
X125977009Y-88542950D01*
X125977009Y-83758094D01*
X128923063Y-83758094D01*
X128923063Y-84000671D01*
X128954724Y-84241168D01*
X129017510Y-84475487D01*
X129032001Y-84510471D01*
X129110339Y-84699595D01*
X129231627Y-84909672D01*
X129231629Y-84909675D01*
X129231630Y-84909676D01*
X129379296Y-85102119D01*
X129379302Y-85102126D01*
X129550819Y-85273643D01*
X129550825Y-85273648D01*
X129743274Y-85421319D01*
X129953351Y-85542607D01*
X130177463Y-85635437D01*
X130411774Y-85698221D01*
X130592149Y-85721967D01*
X130652274Y-85729883D01*
X130652275Y-85729883D01*
X130894852Y-85729883D01*
X130942951Y-85723550D01*
X131135352Y-85698221D01*
X131369663Y-85635437D01*
X131593775Y-85542607D01*
X131803852Y-85421319D01*
X131996301Y-85273648D01*
X132167828Y-85102121D01*
X132315499Y-84909672D01*
X132436787Y-84699595D01*
X132529617Y-84475483D01*
X132592401Y-84241172D01*
X132624063Y-84000671D01*
X132624063Y-83813149D01*
X138007257Y-83813149D01*
X138007257Y-86017084D01*
X138007258Y-86017090D01*
X138013665Y-86076697D01*
X138063959Y-86211542D01*
X138063963Y-86211549D01*
X138150209Y-86326758D01*
X138150212Y-86326761D01*
X138265421Y-86413007D01*
X138265428Y-86413011D01*
X138400274Y-86463305D01*
X138400273Y-86463305D01*
X138407201Y-86464049D01*
X138459884Y-86469714D01*
X140663829Y-86469713D01*
X140723440Y-86463305D01*
X140858288Y-86413010D01*
X140973503Y-86326760D01*
X141059753Y-86211545D01*
X141110048Y-86076697D01*
X141116457Y-86017087D01*
X141116456Y-83813142D01*
X141110048Y-83753531D01*
X141104040Y-83737424D01*
X141059754Y-83618685D01*
X141059750Y-83618678D01*
X140973504Y-83503469D01*
X140973501Y-83503466D01*
X140858292Y-83417220D01*
X140858285Y-83417216D01*
X140723439Y-83366922D01*
X140723440Y-83366922D01*
X140663840Y-83360515D01*
X140663838Y-83360514D01*
X140663830Y-83360514D01*
X140663821Y-83360514D01*
X138459886Y-83360514D01*
X138459880Y-83360515D01*
X138400273Y-83366922D01*
X138265428Y-83417216D01*
X138265421Y-83417220D01*
X138150212Y-83503466D01*
X138150209Y-83503469D01*
X138063963Y-83618678D01*
X138063959Y-83618685D01*
X138013665Y-83753531D01*
X138008614Y-83800515D01*
X138007258Y-83813137D01*
X138007257Y-83813149D01*
X132624063Y-83813149D01*
X132624063Y-83758095D01*
X132617705Y-83709804D01*
X132606013Y-83620987D01*
X132592401Y-83517594D01*
X132529617Y-83283283D01*
X132436787Y-83059171D01*
X132315499Y-82849094D01*
X132167828Y-82656645D01*
X132167823Y-82656639D01*
X131996306Y-82485122D01*
X131996299Y-82485116D01*
X131803856Y-82337450D01*
X131803855Y-82337449D01*
X131803852Y-82337447D01*
X131593775Y-82216159D01*
X131581639Y-82211132D01*
X131369667Y-82123330D01*
X131135348Y-82060544D01*
X130894852Y-82028883D01*
X130894851Y-82028883D01*
X130652275Y-82028883D01*
X130652274Y-82028883D01*
X130411777Y-82060544D01*
X130177458Y-82123330D01*
X129953357Y-82216156D01*
X129953348Y-82216160D01*
X129743269Y-82337450D01*
X129550826Y-82485116D01*
X129550819Y-82485122D01*
X129379302Y-82656639D01*
X129379296Y-82656646D01*
X129231630Y-82849089D01*
X129110340Y-83059168D01*
X129110336Y-83059177D01*
X129017510Y-83283278D01*
X128954724Y-83517597D01*
X128923063Y-83758094D01*
X125977009Y-83758094D01*
X125977009Y-80216114D01*
X138002450Y-80216114D01*
X138021649Y-80460062D01*
X138078772Y-80697997D01*
X138078772Y-80697998D01*
X138172412Y-80924066D01*
X138172414Y-80924069D01*
X138300266Y-81132704D01*
X138300267Y-81132707D01*
X138300270Y-81132710D01*
X138459190Y-81318781D01*
X138566695Y-81410599D01*
X138645263Y-81477703D01*
X138645266Y-81477704D01*
X138853901Y-81605556D01*
X138853904Y-81605558D01*
X139079973Y-81699198D01*
X139216358Y-81731941D01*
X139317912Y-81756322D01*
X139561857Y-81775521D01*
X139805802Y-81756322D01*
X140043740Y-81699198D01*
X140043741Y-81699198D01*
X140269809Y-81605558D01*
X140269810Y-81605557D01*
X140269813Y-81605556D01*
X140478453Y-81477701D01*
X140664524Y-81318781D01*
X140823444Y-81132710D01*
X140951299Y-80924070D01*
X140951301Y-80924066D01*
X141044941Y-80697998D01*
X141044941Y-80697997D01*
X141102064Y-80460062D01*
X141102065Y-80460059D01*
X141121264Y-80216114D01*
X141102065Y-79972169D01*
X141060893Y-79800677D01*
X141044941Y-79734230D01*
X141044941Y-79734229D01*
X140951301Y-79508161D01*
X140951299Y-79508158D01*
X140823447Y-79299523D01*
X140823446Y-79299520D01*
X140787544Y-79257484D01*
X140664524Y-79113447D01*
X140541502Y-79008376D01*
X140478450Y-78954524D01*
X140478447Y-78954523D01*
X140269812Y-78826671D01*
X140269809Y-78826669D01*
X140043740Y-78733029D01*
X139805805Y-78675906D01*
X139561857Y-78656707D01*
X139317908Y-78675906D01*
X139079973Y-78733029D01*
X139079972Y-78733029D01*
X138853904Y-78826669D01*
X138853901Y-78826671D01*
X138645266Y-78954523D01*
X138645263Y-78954524D01*
X138459190Y-79113447D01*
X138300267Y-79299520D01*
X138300266Y-79299523D01*
X138172414Y-79508158D01*
X138172412Y-79508161D01*
X138078772Y-79734229D01*
X138078772Y-79734230D01*
X138021649Y-79972165D01*
X138002450Y-80216114D01*
X125977009Y-80216114D01*
X125977009Y-75905811D01*
X127019380Y-75905811D01*
X127019380Y-75905822D01*
X127038344Y-76207263D01*
X127038345Y-76207270D01*
X127041741Y-76225070D01*
X127092979Y-76493673D01*
X127094946Y-76503981D01*
X127188285Y-76791248D01*
X127188287Y-76791253D01*
X127316891Y-77064549D01*
X127316894Y-77064555D01*
X127478737Y-77319580D01*
X127478740Y-77319584D01*
X127478741Y-77319585D01*
X127666998Y-77547149D01*
X127671278Y-77552322D01*
X127700159Y-77579443D01*
X127889189Y-77756955D01*
X127891462Y-77759089D01*
X127891472Y-77759097D01*
X128135819Y-77936625D01*
X128135824Y-77936627D01*
X128135831Y-77936633D01*
X128400522Y-78082149D01*
X128400527Y-78082151D01*
X128400529Y-78082152D01*
X128400530Y-78082153D01*
X128681360Y-78193341D01*
X128681363Y-78193342D01*
X128709445Y-78200552D01*
X128973928Y-78268459D01*
X129120665Y-78286996D01*
X129273589Y-78306316D01*
X129273595Y-78306316D01*
X129273599Y-78306317D01*
X129273601Y-78306317D01*
X129575651Y-78306317D01*
X129575653Y-78306317D01*
X129575658Y-78306316D01*
X129575662Y-78306316D01*
X129655217Y-78296265D01*
X129875324Y-78268459D01*
X130167888Y-78193342D01*
X130167891Y-78193341D01*
X130448721Y-78082153D01*
X130448722Y-78082152D01*
X130448720Y-78082152D01*
X130448730Y-78082149D01*
X130713421Y-77936633D01*
X130957788Y-77759091D01*
X131177975Y-77552321D01*
X131370511Y-77319585D01*
X131532359Y-77064553D01*
X131660967Y-76791247D01*
X131754307Y-76503977D01*
X131810906Y-76207274D01*
X131814164Y-76155492D01*
X131829872Y-75905822D01*
X131829872Y-75905811D01*
X131810907Y-75604370D01*
X131810906Y-75604363D01*
X131810906Y-75604360D01*
X131794263Y-75517114D01*
X138002450Y-75517114D01*
X138021649Y-75761062D01*
X138078772Y-75998997D01*
X138078772Y-75998998D01*
X138172412Y-76225066D01*
X138172414Y-76225069D01*
X138300266Y-76433704D01*
X138300267Y-76433707D01*
X138300270Y-76433710D01*
X138459190Y-76619781D01*
X138583504Y-76725955D01*
X138645263Y-76778703D01*
X138645266Y-76778704D01*
X138853901Y-76906556D01*
X138853904Y-76906558D01*
X139079973Y-77000198D01*
X139221881Y-77034267D01*
X139317912Y-77057322D01*
X139561857Y-77076521D01*
X139805802Y-77057322D01*
X140043740Y-77000198D01*
X140043741Y-77000198D01*
X140269809Y-76906558D01*
X140269810Y-76906557D01*
X140269813Y-76906556D01*
X140478453Y-76778701D01*
X140664524Y-76619781D01*
X140823444Y-76433710D01*
X140951299Y-76225070D01*
X140951301Y-76225066D01*
X141044941Y-75998998D01*
X141044941Y-75998997D01*
X141067310Y-75905822D01*
X141102065Y-75761059D01*
X141121264Y-75517114D01*
X141102065Y-75273169D01*
X141044941Y-75035231D01*
X141044941Y-75035230D01*
X141044941Y-75035229D01*
X140951301Y-74809161D01*
X140951299Y-74809158D01*
X140823447Y-74600523D01*
X140823446Y-74600520D01*
X140746536Y-74510471D01*
X140664524Y-74414447D01*
X140482886Y-74259313D01*
X140478450Y-74255524D01*
X140478447Y-74255523D01*
X140269812Y-74127671D01*
X140269809Y-74127669D01*
X140043740Y-74034029D01*
X139805805Y-73976906D01*
X139561857Y-73957707D01*
X139317908Y-73976906D01*
X139079973Y-74034029D01*
X139079972Y-74034029D01*
X138853904Y-74127669D01*
X138853901Y-74127671D01*
X138645266Y-74255523D01*
X138645263Y-74255524D01*
X138459190Y-74414447D01*
X138300267Y-74600520D01*
X138300266Y-74600523D01*
X138172414Y-74809158D01*
X138172412Y-74809161D01*
X138078772Y-75035229D01*
X138078772Y-75035230D01*
X138021649Y-75273165D01*
X138002450Y-75517114D01*
X131794263Y-75517114D01*
X131754307Y-75307657D01*
X131660967Y-75020387D01*
X131532359Y-74747081D01*
X131439349Y-74600520D01*
X131370514Y-74492053D01*
X131370511Y-74492049D01*
X131177975Y-74259313D01*
X131084177Y-74171231D01*
X130984264Y-74077406D01*
X130957788Y-74052543D01*
X130957785Y-74052541D01*
X130957779Y-74052536D01*
X130713432Y-73875008D01*
X130713425Y-73875003D01*
X130713421Y-73875001D01*
X130448730Y-73729485D01*
X130448727Y-73729483D01*
X130448722Y-73729481D01*
X130448721Y-73729480D01*
X130167891Y-73618292D01*
X130167888Y-73618291D01*
X129901598Y-73549921D01*
X129841560Y-73514183D01*
X129810374Y-73451660D01*
X129817942Y-73382201D01*
X129861860Y-73327860D01*
X129928186Y-73305890D01*
X129932435Y-73305817D01*
X130629332Y-73305817D01*
X130629345Y-73305816D01*
X130762532Y-73295334D01*
X130762538Y-73295333D01*
X130982455Y-73239918D01*
X130982458Y-73239917D01*
X131188956Y-73146121D01*
X131188962Y-73146118D01*
X131375384Y-73016965D01*
X131375396Y-73016955D01*
X131535764Y-72856587D01*
X131535774Y-72856575D01*
X131664927Y-72670153D01*
X131664930Y-72670147D01*
X131758726Y-72463649D01*
X131758727Y-72463646D01*
X131814142Y-72243729D01*
X131814143Y-72243723D01*
X131824625Y-72110536D01*
X131824626Y-72110523D01*
X131824626Y-71155817D01*
X130751857Y-71155817D01*
X130774626Y-71012064D01*
X130774626Y-70799570D01*
X130751857Y-70655817D01*
X131824626Y-70655817D01*
X131824626Y-69701110D01*
X131824625Y-69701097D01*
X131814143Y-69567910D01*
X131814142Y-69567904D01*
X131758727Y-69347987D01*
X131758726Y-69347984D01*
X131664930Y-69141486D01*
X131664927Y-69141480D01*
X131535774Y-68955058D01*
X131535764Y-68955046D01*
X131375396Y-68794678D01*
X131375384Y-68794668D01*
X131188962Y-68665515D01*
X131188956Y-68665512D01*
X130982458Y-68571716D01*
X130982455Y-68571715D01*
X130762538Y-68516300D01*
X130762532Y-68516299D01*
X130629345Y-68505817D01*
X129674626Y-68505817D01*
X129674626Y-69578585D01*
X129530873Y-69555817D01*
X129318379Y-69555817D01*
X129174626Y-69578585D01*
X129174626Y-68505817D01*
X128219906Y-68505817D01*
X128086719Y-68516299D01*
X128086713Y-68516300D01*
X127866796Y-68571715D01*
X127866793Y-68571716D01*
X127660295Y-68665512D01*
X127660289Y-68665515D01*
X127473867Y-68794668D01*
X127473855Y-68794678D01*
X127313487Y-68955046D01*
X127313477Y-68955058D01*
X127184324Y-69141480D01*
X127184321Y-69141486D01*
X127090525Y-69347984D01*
X127090524Y-69347987D01*
X127035109Y-69567904D01*
X127035108Y-69567910D01*
X127024626Y-69701097D01*
X127024626Y-70655817D01*
X128097395Y-70655817D01*
X128074626Y-70799570D01*
X128074626Y-71012064D01*
X128097395Y-71155817D01*
X127024626Y-71155817D01*
X127024626Y-72110536D01*
X127035108Y-72243723D01*
X127035109Y-72243729D01*
X127090524Y-72463646D01*
X127090525Y-72463649D01*
X127184321Y-72670147D01*
X127184324Y-72670153D01*
X127313477Y-72856575D01*
X127313487Y-72856587D01*
X127473855Y-73016955D01*
X127473867Y-73016965D01*
X127660289Y-73146118D01*
X127660295Y-73146121D01*
X127866793Y-73239917D01*
X127866796Y-73239918D01*
X128086713Y-73295333D01*
X128086719Y-73295334D01*
X128219906Y-73305816D01*
X128219920Y-73305817D01*
X128916817Y-73305817D01*
X128983856Y-73325502D01*
X129029611Y-73378306D01*
X129039555Y-73447464D01*
X129010530Y-73511020D01*
X128951752Y-73548794D01*
X128947654Y-73549921D01*
X128681363Y-73618291D01*
X128681360Y-73618292D01*
X128400530Y-73729480D01*
X128400529Y-73729481D01*
X128135831Y-73875001D01*
X128135819Y-73875008D01*
X127891472Y-74052536D01*
X127891462Y-74052544D01*
X127671278Y-74259311D01*
X127478737Y-74492053D01*
X127316894Y-74747078D01*
X127316891Y-74747084D01*
X127188287Y-75020380D01*
X127188285Y-75020385D01*
X127094946Y-75307652D01*
X127038345Y-75604363D01*
X127038344Y-75604370D01*
X127019380Y-75905811D01*
X125977009Y-75905811D01*
X125977009Y-43758094D01*
X128923063Y-43758094D01*
X128923063Y-44000671D01*
X128954724Y-44241168D01*
X129017510Y-44475487D01*
X129110336Y-44699588D01*
X129110339Y-44699595D01*
X129231627Y-44909672D01*
X129231629Y-44909675D01*
X129231630Y-44909676D01*
X129379296Y-45102119D01*
X129379302Y-45102126D01*
X129550819Y-45273643D01*
X129550826Y-45273649D01*
X129581715Y-45297351D01*
X129743274Y-45421319D01*
X129953351Y-45542607D01*
X130177463Y-45635437D01*
X130411774Y-45698221D01*
X130592149Y-45721967D01*
X130652274Y-45729883D01*
X130652275Y-45729883D01*
X130894852Y-45729883D01*
X130942951Y-45723550D01*
X131135352Y-45698221D01*
X131369663Y-45635437D01*
X131593775Y-45542607D01*
X131803852Y-45421319D01*
X131996301Y-45273648D01*
X132167828Y-45102121D01*
X132315499Y-44909672D01*
X132436787Y-44699595D01*
X132529617Y-44475483D01*
X132592401Y-44241172D01*
X132624063Y-44000671D01*
X132624063Y-43758095D01*
X132592401Y-43517594D01*
X132529617Y-43283283D01*
X132436787Y-43059171D01*
X132315499Y-42849094D01*
X132167828Y-42656645D01*
X132167823Y-42656639D01*
X131996306Y-42485122D01*
X131996299Y-42485116D01*
X131803856Y-42337450D01*
X131803855Y-42337449D01*
X131803852Y-42337447D01*
X131593775Y-42216159D01*
X131593768Y-42216156D01*
X131369667Y-42123330D01*
X131135348Y-42060544D01*
X130894852Y-42028883D01*
X130894851Y-42028883D01*
X130652275Y-42028883D01*
X130652274Y-42028883D01*
X130411777Y-42060544D01*
X130177458Y-42123330D01*
X129953357Y-42216156D01*
X129953348Y-42216160D01*
X129743269Y-42337450D01*
X129550826Y-42485116D01*
X129550819Y-42485122D01*
X129379302Y-42656639D01*
X129379296Y-42656646D01*
X129231630Y-42849089D01*
X129110340Y-43059168D01*
X129110336Y-43059177D01*
X129017510Y-43283278D01*
X128954724Y-43517597D01*
X128923063Y-43758094D01*
X125977009Y-43758094D01*
X125977009Y-39181950D01*
X125996694Y-39114911D01*
X126049498Y-39069156D01*
X126101009Y-39057950D01*
X185462009Y-39057950D01*
X185529048Y-39077635D01*
G37*
%TD.AperFunction*%
%TA.AperFunction,Conductor*%
G36*
X170177687Y-76518080D02*
G01*
X170134582Y-76529992D01*
X169791165Y-76529992D01*
X169724126Y-76510307D01*
X169703484Y-76493673D01*
X169443628Y-76233817D01*
X170177687Y-76518080D01*
G37*
%TD.AperFunction*%
%TA.AperFunction,Conductor*%
G36*
X159676417Y-65741243D02*
G01*
X159716947Y-65798157D01*
X159723767Y-65838715D01*
X159723767Y-75447217D01*
X159704082Y-75514256D01*
X159687448Y-75534898D01*
X159173836Y-76048509D01*
X159112513Y-76081994D01*
X159042821Y-76077010D01*
X158986888Y-76035138D01*
X158962471Y-75969674D01*
X158975066Y-75905736D01*
X159027252Y-75800513D01*
X159071898Y-75620987D01*
X159074715Y-75579446D01*
X159074715Y-74731538D01*
X159071898Y-74689997D01*
X159027252Y-74510471D01*
X158945057Y-74344739D01*
X158855060Y-74232779D01*
X158828402Y-74168197D01*
X158840892Y-74099453D01*
X158855061Y-74077406D01*
X158944633Y-73965973D01*
X159026779Y-73800341D01*
X159071399Y-73620923D01*
X159074215Y-73579403D01*
X159074215Y-73405492D01*
X157057227Y-73405492D01*
X157090140Y-73348485D01*
X157124215Y-73221318D01*
X157124215Y-73089666D01*
X157090140Y-72962499D01*
X157057227Y-72905492D01*
X157349215Y-72905492D01*
X159074214Y-72905492D01*
X159074214Y-72731581D01*
X159074213Y-72731574D01*
X159071400Y-72690068D01*
X159071400Y-72690066D01*
X159026779Y-72510642D01*
X158944633Y-72345010D01*
X158828800Y-72200907D01*
X158828799Y-72200906D01*
X158684696Y-72085073D01*
X158519064Y-72002927D01*
X158339646Y-71958307D01*
X158298127Y-71955492D01*
X157349215Y-71955492D01*
X157349215Y-72905492D01*
X157057227Y-72905492D01*
X157024314Y-72848485D01*
X156931222Y-72755393D01*
X156849215Y-72708046D01*
X156849215Y-71955492D01*
X155900304Y-71955492D01*
X155900297Y-71955493D01*
X155858791Y-71958306D01*
X155858789Y-71958306D01*
X155679363Y-72002928D01*
X155679362Y-72002928D01*
X155546983Y-72068582D01*
X155478178Y-72080734D01*
X155413726Y-72053757D01*
X155374091Y-71996218D01*
X155367889Y-71957494D01*
X155367889Y-69585615D01*
X155387574Y-69518576D01*
X155404208Y-69497934D01*
X158689580Y-66212563D01*
X158750903Y-66179078D01*
X158777261Y-66176244D01*
X158836452Y-66176244D01*
X158836454Y-66176244D01*
X159021611Y-66136888D01*
X159194538Y-66059895D01*
X159347679Y-65948632D01*
X159474341Y-65807960D01*
X159492380Y-65776714D01*
X159542945Y-65728500D01*
X159611552Y-65715276D01*
X159676417Y-65741243D01*
G37*
%TD.AperFunction*%
%TA.AperFunction,Conductor*%
G36*
X162204348Y-54578357D02*
G01*
X162230670Y-54598431D01*
X169568530Y-61936291D01*
X169602015Y-61997614D01*
X169604170Y-62011010D01*
X169608300Y-62050304D01*
X169621818Y-62178919D01*
X169621819Y-62178922D01*
X169680310Y-62358940D01*
X169680313Y-62358947D01*
X169774959Y-62522879D01*
X169901621Y-62663551D01*
X170054757Y-62774811D01*
X170054762Y-62774814D01*
X170227684Y-62851805D01*
X170227689Y-62851807D01*
X170412846Y-62891163D01*
X170412847Y-62891163D01*
X170602136Y-62891163D01*
X170602138Y-62891163D01*
X170787295Y-62851807D01*
X170960222Y-62774814D01*
X170960228Y-62774808D01*
X170961783Y-62773912D01*
X170962806Y-62773663D01*
X170966159Y-62772171D01*
X170966431Y-62772783D01*
X171029681Y-62757432D01*
X171074231Y-62768013D01*
X171222528Y-62834040D01*
X171222533Y-62834042D01*
X171407690Y-62873398D01*
X171407691Y-62873398D01*
X171596980Y-62873398D01*
X171596982Y-62873398D01*
X171782139Y-62834042D01*
X171893175Y-62784605D01*
X171962425Y-62775320D01*
X172016496Y-62797566D01*
X172042814Y-62816687D01*
X172042819Y-62816690D01*
X172215741Y-62893681D01*
X172215746Y-62893683D01*
X172400903Y-62933039D01*
X172400904Y-62933039D01*
X172590193Y-62933039D01*
X172590195Y-62933039D01*
X172775352Y-62893683D01*
X172905805Y-62835601D01*
X172975055Y-62826316D01*
X173029128Y-62848563D01*
X173037107Y-62854360D01*
X173037108Y-62854361D01*
X173210030Y-62931352D01*
X173210035Y-62931354D01*
X173395192Y-62970710D01*
X173395193Y-62970710D01*
X173584482Y-62970710D01*
X173584484Y-62970710D01*
X173769641Y-62931354D01*
X173942568Y-62854361D01*
X173976718Y-62829549D01*
X174042524Y-62806070D01*
X174110578Y-62821895D01*
X174159273Y-62872001D01*
X174173603Y-62929868D01*
X174173603Y-63419488D01*
X174153918Y-63486527D01*
X174141753Y-63502460D01*
X174038982Y-63616599D01*
X173944337Y-63780529D01*
X173944334Y-63780536D01*
X173913114Y-63876623D01*
X173885842Y-63960558D01*
X173866056Y-64148814D01*
X173885842Y-64337070D01*
X173885843Y-64337073D01*
X173944334Y-64517091D01*
X173944337Y-64517098D01*
X174038983Y-64681030D01*
X174095257Y-64743528D01*
X174165645Y-64821702D01*
X174318781Y-64932962D01*
X174318786Y-64932965D01*
X174491708Y-65009956D01*
X174491713Y-65009958D01*
X174676870Y-65049314D01*
X174676871Y-65049314D01*
X174866160Y-65049314D01*
X174866162Y-65049314D01*
X174980852Y-65024936D01*
X175050518Y-65030252D01*
X175106252Y-65072389D01*
X175130357Y-65137969D01*
X175130632Y-65146226D01*
X175130632Y-65289134D01*
X175110947Y-65356173D01*
X175058143Y-65401928D01*
X174988985Y-65411872D01*
X174980852Y-65410425D01*
X174940875Y-65401928D01*
X174861056Y-65384962D01*
X174671764Y-65384962D01*
X174639307Y-65391860D01*
X174486607Y-65424317D01*
X174486602Y-65424319D01*
X174313680Y-65501310D01*
X174313675Y-65501313D01*
X174160540Y-65612572D01*
X174160536Y-65612576D01*
X174154810Y-65618936D01*
X174095323Y-65655583D01*
X174062662Y-65659962D01*
X172296551Y-65659962D01*
X172229512Y-65640277D01*
X172208870Y-65623643D01*
X162348051Y-55762824D01*
X162314566Y-55701501D01*
X162312414Y-55688125D01*
X162294765Y-55520198D01*
X162236270Y-55340170D01*
X162141624Y-55176238D01*
X162103915Y-55134358D01*
X162066441Y-55092738D01*
X162036211Y-55029746D01*
X162034591Y-55009766D01*
X162034591Y-54906111D01*
X162034592Y-54906090D01*
X162034592Y-54776761D01*
X162021372Y-54710304D01*
X162027599Y-54640713D01*
X162070461Y-54585535D01*
X162136351Y-54562290D01*
X162204348Y-54578357D01*
G37*
%TD.AperFunction*%
%TD*%
%TA.AperFunction,Conductor*%
%TO.N,GND*%
G36*
X170303478Y-71143148D02*
G01*
X185462331Y-71182317D01*
X185529318Y-71202175D01*
X185574936Y-71255097D01*
X185586009Y-71306317D01*
X185586009Y-81699811D01*
X174008269Y-81699811D01*
X173907191Y-78532681D01*
X177204669Y-78532681D01*
X177204669Y-78532692D01*
X177224512Y-78772163D01*
X177283503Y-79005115D01*
X177380030Y-79225175D01*
X177472325Y-79366444D01*
X177905522Y-78933247D01*
X177906378Y-78935313D01*
X177999400Y-79074531D01*
X178117794Y-79192925D01*
X178257012Y-79285947D01*
X178259075Y-79286801D01*
X177825210Y-79720666D01*
X177863846Y-79750738D01*
X178075182Y-79865108D01*
X178075188Y-79865110D01*
X178302461Y-79943133D01*
X178539489Y-79982687D01*
X178779787Y-79982687D01*
X179016814Y-79943133D01*
X179244087Y-79865110D01*
X179244093Y-79865108D01*
X179455432Y-79750736D01*
X179455433Y-79750735D01*
X179494064Y-79720667D01*
X179494065Y-79720666D01*
X179060200Y-79286801D01*
X179062264Y-79285947D01*
X179201482Y-79192925D01*
X179319876Y-79074531D01*
X179412898Y-78935313D01*
X179413752Y-78933249D01*
X179846948Y-79366445D01*
X179939246Y-79225172D01*
X180035772Y-79005115D01*
X180094763Y-78772163D01*
X180114607Y-78532692D01*
X180114607Y-78532681D01*
X182284669Y-78532681D01*
X182284669Y-78532692D01*
X182304512Y-78772163D01*
X182363503Y-79005115D01*
X182460030Y-79225175D01*
X182552325Y-79366444D01*
X182985522Y-78933247D01*
X182986378Y-78935313D01*
X183079400Y-79074531D01*
X183197794Y-79192925D01*
X183337012Y-79285947D01*
X183339075Y-79286801D01*
X182905210Y-79720666D01*
X182943846Y-79750738D01*
X183155182Y-79865108D01*
X183155188Y-79865110D01*
X183382461Y-79943133D01*
X183619489Y-79982687D01*
X183859787Y-79982687D01*
X184096814Y-79943133D01*
X184324087Y-79865110D01*
X184324093Y-79865108D01*
X184535432Y-79750736D01*
X184535433Y-79750735D01*
X184574064Y-79720667D01*
X184574065Y-79720666D01*
X184140200Y-79286801D01*
X184142264Y-79285947D01*
X184281482Y-79192925D01*
X184399876Y-79074531D01*
X184492898Y-78935313D01*
X184493752Y-78933249D01*
X184926948Y-79366445D01*
X185019246Y-79225172D01*
X185115772Y-79005115D01*
X185174763Y-78772163D01*
X185194607Y-78532692D01*
X185194607Y-78532681D01*
X185174763Y-78293210D01*
X185115772Y-78060258D01*
X185019245Y-77840198D01*
X184926948Y-77698927D01*
X184493752Y-78132123D01*
X184492898Y-78130061D01*
X184399876Y-77990843D01*
X184281482Y-77872449D01*
X184142264Y-77779427D01*
X184140199Y-77778571D01*
X184574064Y-77344706D01*
X184574064Y-77344704D01*
X184535439Y-77314641D01*
X184535433Y-77314637D01*
X184324093Y-77200265D01*
X184324087Y-77200263D01*
X184096814Y-77122240D01*
X183859787Y-77082687D01*
X183619489Y-77082687D01*
X183382461Y-77122240D01*
X183155188Y-77200263D01*
X183155182Y-77200265D01*
X182943847Y-77314635D01*
X182905209Y-77344706D01*
X183339075Y-77778572D01*
X183337012Y-77779427D01*
X183197794Y-77872449D01*
X183079400Y-77990843D01*
X182986378Y-78130061D01*
X182985523Y-78132125D01*
X182552326Y-77698928D01*
X182460030Y-77840198D01*
X182363503Y-78060258D01*
X182304512Y-78293210D01*
X182284669Y-78532681D01*
X180114607Y-78532681D01*
X180094763Y-78293210D01*
X180035772Y-78060258D01*
X179939245Y-77840198D01*
X179846948Y-77698927D01*
X179413752Y-78132123D01*
X179412898Y-78130061D01*
X179319876Y-77990843D01*
X179201482Y-77872449D01*
X179062264Y-77779427D01*
X179060199Y-77778571D01*
X179494064Y-77344706D01*
X179494064Y-77344704D01*
X179455439Y-77314641D01*
X179455433Y-77314637D01*
X179244093Y-77200265D01*
X179244087Y-77200263D01*
X179016814Y-77122240D01*
X178779787Y-77082687D01*
X178539489Y-77082687D01*
X178302461Y-77122240D01*
X178075188Y-77200263D01*
X178075182Y-77200265D01*
X177863847Y-77314635D01*
X177825209Y-77344706D01*
X178259075Y-77778572D01*
X178257012Y-77779427D01*
X178117794Y-77872449D01*
X177999400Y-77990843D01*
X177906378Y-78130061D01*
X177905523Y-78132125D01*
X177472326Y-77698928D01*
X177380030Y-77840198D01*
X177283503Y-78060258D01*
X177224512Y-78293210D01*
X177204669Y-78532681D01*
X173907191Y-78532681D01*
X173888760Y-77955183D01*
X173684168Y-77875955D01*
X173711284Y-77840198D01*
X173758576Y-77777834D01*
X173814092Y-77637056D01*
X173824715Y-77548594D01*
X173824715Y-76762390D01*
X173814092Y-76673928D01*
X173758576Y-76533150D01*
X173758575Y-76533149D01*
X173758575Y-76533148D01*
X173667137Y-76412569D01*
X173546558Y-76321131D01*
X173506776Y-76305443D01*
X173418359Y-76270576D01*
X173363218Y-76227672D01*
X173340025Y-76161764D01*
X173356145Y-76093780D01*
X173406462Y-76045303D01*
X173418362Y-76039868D01*
X173546310Y-75989412D01*
X173666779Y-75898056D01*
X173758135Y-75777587D01*
X173813601Y-75636935D01*
X173824215Y-75548545D01*
X173824215Y-75405492D01*
X173057227Y-75405492D01*
X173090140Y-75348485D01*
X173124215Y-75221318D01*
X173124215Y-75089666D01*
X173090140Y-74962499D01*
X173057227Y-74905492D01*
X173824215Y-74905492D01*
X173824215Y-74762438D01*
X173813601Y-74674049D01*
X173813436Y-74673396D01*
X173813456Y-74672847D01*
X173812653Y-74666153D01*
X173813715Y-74666025D01*
X173816085Y-74603576D01*
X173856061Y-74546273D01*
X173920671Y-74519678D01*
X173989403Y-74532237D01*
X174021333Y-74555316D01*
X175931434Y-76465417D01*
X175999165Y-76533148D01*
X176034728Y-76568711D01*
X176156180Y-76649863D01*
X176156193Y-76649870D01*
X176195714Y-76666240D01*
X176195715Y-76666240D01*
X176291146Y-76705769D01*
X176291150Y-76705769D01*
X176291151Y-76705770D01*
X176434415Y-76734268D01*
X176434418Y-76734268D01*
X176586610Y-76734268D01*
X176586630Y-76734267D01*
X179725139Y-76734267D01*
X179792178Y-76753952D01*
X179837933Y-76806756D01*
X179849139Y-76858267D01*
X179849139Y-76974117D01*
X179863995Y-77067922D01*
X179921606Y-77180989D01*
X179921608Y-77180991D01*
X179921610Y-77180994D01*
X180011330Y-77270714D01*
X180011332Y-77270715D01*
X180011336Y-77270719D01*
X180124403Y-77328330D01*
X180124404Y-77328330D01*
X180124406Y-77328331D01*
X180124405Y-77328331D01*
X180218201Y-77343186D01*
X180218207Y-77343187D01*
X182181068Y-77343186D01*
X182274873Y-77328330D01*
X182387940Y-77270719D01*
X182477670Y-77180989D01*
X182535281Y-77067922D01*
X182550138Y-76974118D01*
X182550137Y-75011257D01*
X182535281Y-74917452D01*
X182477670Y-74804385D01*
X182477666Y-74804381D01*
X182477665Y-74804379D01*
X182387945Y-74714659D01*
X182387942Y-74714657D01*
X182387940Y-74714655D01*
X182274873Y-74657044D01*
X182274872Y-74657043D01*
X182274869Y-74657042D01*
X182274870Y-74657042D01*
X182181074Y-74642187D01*
X180218208Y-74642187D01*
X180137228Y-74655012D01*
X180124403Y-74657044D01*
X180011336Y-74714655D01*
X180011335Y-74714656D01*
X180011330Y-74714659D01*
X179921610Y-74804379D01*
X179921607Y-74804384D01*
X179863993Y-74917455D01*
X179849138Y-75011250D01*
X179849138Y-75127107D01*
X179829453Y-75194146D01*
X179776649Y-75239901D01*
X179725138Y-75251107D01*
X176865992Y-75251107D01*
X176798953Y-75231422D01*
X176778311Y-75214788D01*
X175016205Y-73452681D01*
X177204669Y-73452681D01*
X177204669Y-73452692D01*
X177224512Y-73692163D01*
X177283503Y-73925115D01*
X177380030Y-74145175D01*
X177472325Y-74286444D01*
X177905522Y-73853247D01*
X177906378Y-73855313D01*
X177999400Y-73994531D01*
X178117794Y-74112925D01*
X178257012Y-74205947D01*
X178259075Y-74206801D01*
X177825210Y-74640666D01*
X177863846Y-74670738D01*
X178075182Y-74785108D01*
X178075188Y-74785110D01*
X178302461Y-74863133D01*
X178539489Y-74902687D01*
X178779787Y-74902687D01*
X179016814Y-74863133D01*
X179244087Y-74785110D01*
X179244093Y-74785108D01*
X179455432Y-74670736D01*
X179455433Y-74670735D01*
X179494064Y-74640667D01*
X179494065Y-74640666D01*
X179060200Y-74206801D01*
X179062264Y-74205947D01*
X179201482Y-74112925D01*
X179319876Y-73994531D01*
X179412898Y-73855313D01*
X179413752Y-73853249D01*
X179846948Y-74286445D01*
X179939246Y-74145172D01*
X180035772Y-73925115D01*
X180094763Y-73692163D01*
X180114607Y-73452692D01*
X180114607Y-73452681D01*
X182284669Y-73452681D01*
X182284669Y-73452692D01*
X182304512Y-73692163D01*
X182363503Y-73925115D01*
X182460030Y-74145175D01*
X182552325Y-74286444D01*
X182985522Y-73853247D01*
X182986378Y-73855313D01*
X183079400Y-73994531D01*
X183197794Y-74112925D01*
X183337012Y-74205947D01*
X183339075Y-74206801D01*
X182905210Y-74640666D01*
X182943846Y-74670738D01*
X183155182Y-74785108D01*
X183155188Y-74785110D01*
X183382461Y-74863133D01*
X183619489Y-74902687D01*
X183859787Y-74902687D01*
X184096814Y-74863133D01*
X184324087Y-74785110D01*
X184324093Y-74785108D01*
X184535432Y-74670736D01*
X184535433Y-74670735D01*
X184574064Y-74640667D01*
X184574065Y-74640666D01*
X184140200Y-74206801D01*
X184142264Y-74205947D01*
X184281482Y-74112925D01*
X184399876Y-73994531D01*
X184492898Y-73855313D01*
X184493752Y-73853249D01*
X184926948Y-74286445D01*
X185019246Y-74145172D01*
X185115772Y-73925115D01*
X185174763Y-73692163D01*
X185194607Y-73452692D01*
X185194607Y-73452681D01*
X185174763Y-73213210D01*
X185115772Y-72980258D01*
X185019245Y-72760198D01*
X184926948Y-72618927D01*
X184493752Y-73052123D01*
X184492898Y-73050061D01*
X184399876Y-72910843D01*
X184281482Y-72792449D01*
X184142264Y-72699427D01*
X184140199Y-72698571D01*
X184574064Y-72264706D01*
X184574064Y-72264704D01*
X184535439Y-72234641D01*
X184535433Y-72234637D01*
X184324093Y-72120265D01*
X184324087Y-72120263D01*
X184096814Y-72042240D01*
X183859787Y-72002687D01*
X183619489Y-72002687D01*
X183382461Y-72042240D01*
X183155188Y-72120263D01*
X183155182Y-72120265D01*
X182943847Y-72234635D01*
X182905209Y-72264706D01*
X183339075Y-72698572D01*
X183337012Y-72699427D01*
X183197794Y-72792449D01*
X183079400Y-72910843D01*
X182986378Y-73050061D01*
X182985523Y-73052125D01*
X182552326Y-72618928D01*
X182460030Y-72760198D01*
X182363503Y-72980258D01*
X182304512Y-73213210D01*
X182284669Y-73452681D01*
X180114607Y-73452681D01*
X180094763Y-73213210D01*
X180035772Y-72980258D01*
X179939245Y-72760198D01*
X179846948Y-72618927D01*
X179413752Y-73052123D01*
X179412898Y-73050061D01*
X179319876Y-72910843D01*
X179201482Y-72792449D01*
X179062264Y-72699427D01*
X179060199Y-72698571D01*
X179494064Y-72264706D01*
X179494064Y-72264704D01*
X179455439Y-72234641D01*
X179455433Y-72234637D01*
X179244093Y-72120265D01*
X179244087Y-72120263D01*
X179016814Y-72042240D01*
X178779787Y-72002687D01*
X178539489Y-72002687D01*
X178302461Y-72042240D01*
X178075188Y-72120263D01*
X178075182Y-72120265D01*
X177863847Y-72234635D01*
X177825209Y-72264706D01*
X178259075Y-72698572D01*
X178257012Y-72699427D01*
X178117794Y-72792449D01*
X177999400Y-72910843D01*
X177906378Y-73050061D01*
X177905523Y-73052125D01*
X177472326Y-72618928D01*
X177380030Y-72760198D01*
X177283503Y-72980258D01*
X177224512Y-73213210D01*
X177204669Y-73452681D01*
X175016205Y-73452681D01*
X174142995Y-72579471D01*
X174142991Y-72579468D01*
X174021538Y-72498315D01*
X174021529Y-72498310D01*
X173942474Y-72465565D01*
X173886573Y-72442410D01*
X173886565Y-72442408D01*
X173743305Y-72413912D01*
X173743301Y-72413912D01*
X173710606Y-72413912D01*
X173643567Y-72394227D01*
X173635691Y-72388723D01*
X173546557Y-72321131D01*
X173546556Y-72321130D01*
X173405776Y-72265614D01*
X173360141Y-72260134D01*
X173317317Y-72254992D01*
X170981113Y-72254992D01*
X170942068Y-72259680D01*
X170892653Y-72265614D01*
X170751871Y-72321131D01*
X170631292Y-72412569D01*
X170539854Y-72533148D01*
X170484337Y-72673930D01*
X170481276Y-72699427D01*
X170473715Y-72762390D01*
X170473715Y-73548594D01*
X170479341Y-73595446D01*
X170484337Y-73637053D01*
X170539854Y-73777835D01*
X170631292Y-73898414D01*
X170751872Y-73989853D01*
X170785981Y-74003303D01*
X170880068Y-74040407D01*
X170935210Y-74083311D01*
X170958404Y-74149218D01*
X170942284Y-74217203D01*
X170891967Y-74265680D01*
X170880068Y-74271114D01*
X170752121Y-74321570D01*
X170631650Y-74412927D01*
X170540294Y-74533396D01*
X170484828Y-74674048D01*
X170474215Y-74762438D01*
X170474215Y-74905492D01*
X172191203Y-74905492D01*
X172158290Y-74962499D01*
X172124215Y-75089666D01*
X172124215Y-75221318D01*
X172158290Y-75348485D01*
X172191203Y-75405492D01*
X170474215Y-75405492D01*
X170474215Y-75548545D01*
X170484828Y-75636935D01*
X170540294Y-75777587D01*
X170631650Y-75898056D01*
X170752119Y-75989412D01*
X170880067Y-76039868D01*
X170935211Y-76082774D01*
X170958404Y-76148682D01*
X170942284Y-76216666D01*
X170891967Y-76265143D01*
X170880074Y-76270574D01*
X170831433Y-76289756D01*
X170751871Y-76321131D01*
X170631292Y-76412569D01*
X170539854Y-76533148D01*
X170497029Y-76641744D01*
X169253221Y-76160083D01*
X169184859Y-71102327D01*
X170303478Y-71143148D01*
G37*
%TD.AperFunction*%
%TD*%
M02*
