M48
; DRILL file {KiCad 8.0.6} date 2025-07-22T18:04:35-0400
; FORMAT={-:-/ absolute / inch / decimal}
; #@! TF.CreationDate,2025-07-22T18:04:35-04:00
; #@! TF.GenerationSoftware,Kicad,Pcbnew,8.0.6
; #@! TF.FileFunction,Plated,1,2,PTH
FMAT,2
INCH
; #@! TA.AperFunction,Plated,PTH,ViaDrill
T1C0.0157
; #@! TA.AperFunction,Plated,PTH,ComponentDrill
T2C0.0220
; #@! TA.AperFunction,Plated,PTH,ComponentDrill
T3C0.0394
; #@! TA.AperFunction,Plated,PTH,ComponentDrill
T4C0.0591
; #@! TA.AperFunction,Plated,PTH,ComponentDrill
T5C0.0630
; #@! TA.AperFunction,Plated,PTH,ComponentDrill
T6C0.0669
; #@! TA.AperFunction,Plated,PTH,ComponentDrill
T7C0.1063
%
G90
G05
T1
X5.0305Y-2.0252
X5.0305Y-2.0693
X5.0305Y-2.1134
X5.0305Y-2.1575
X5.0305Y-2.2016
X5.0305Y-2.2457
X5.0897Y-1.975
X5.091Y-2.3022
X5.1364Y-1.975
X5.1376Y-2.3022
X5.183Y-1.975
X5.1843Y-2.3022
X5.2297Y-1.975
X5.231Y-2.3022
X5.2764Y-1.975
X5.2777Y-2.3022
X5.318Y-2.5254
X5.3186Y-2.813
X5.3231Y-1.975
X5.3243Y-2.3022
X5.3576Y-1.7405
X5.3786Y-2.0284
X5.3786Y-2.0725
X5.3786Y-2.1166
X5.3786Y-2.1607
X5.3786Y-2.2048
X5.3786Y-2.2489
X5.4463Y-2.5216
X5.4482Y-2.8145
X5.5754Y-2.3905
X5.5763Y-2.5222
X5.5797Y-2.8138
X5.6355Y-1.9551
X5.6363Y-1.6515
X5.6967Y-2.9888
X5.8274Y-2.841
X5.8372Y-1.9238
X5.8616Y-2.2034
X5.9158Y-2.6045
X6.0621Y-2.6443
X6.0625Y-2.54
X6.1154Y-2.1693
X6.2015Y-2.6997
X6.2497Y-2.5699
X6.2692Y-2.4301
X6.2696Y-2.4705
X6.2696Y-2.5097
X6.2928Y-2.364
X6.306Y-2.2965
X6.313Y-2.5227
X6.3156Y-2.1956
X6.3333Y-2.4892
X6.3547Y-2.1932
X6.3562Y-2.4574
X6.3796Y-2.4261
X6.396Y-3.2434
X6.4154Y-2.4101
X6.4244Y-3.0934
X6.4559Y-2.4099
X6.4875Y-2.4331
X6.5157Y-2.4603
X6.5397Y-2.4913
X6.5606Y-2.0528
X6.5614Y-2.001
X6.5626Y-2.523
X6.6249Y-2.6905
X6.6261Y-2.0717
X6.671Y-2.1281
X6.7066Y-2.089
X6.7129Y-2.4406
X6.7521Y-2.4399
X6.7814Y-2.5333
X6.7912Y-2.4422
X6.8303Y-2.4437
X6.842Y-2.1961
X6.8806Y-2.6097
X6.8808Y-2.5255
X6.8819Y-2.3185
X6.8829Y-2.6488
X6.9195Y-2.674
X6.921Y-2.3174
X6.9685Y-2.4424
X6.9795Y-2.7438
T2
X6.0365Y-1.7461
X6.0857Y-1.7461
X6.135Y-1.7461
X6.1842Y-1.7461
X6.2334Y-1.7461
X6.2826Y-1.7461
X6.3318Y-1.7461
X6.381Y-1.7461
X6.4302Y-1.7461
X6.4794Y-1.7461
T3
X6.1663Y-2.8801
X6.1663Y-2.9589
X6.1663Y-3.0376
X6.1663Y-3.1164
X6.1663Y-3.1951
X6.1663Y-3.2738
X6.1663Y-3.3526
X6.1663Y-3.4313
X6.7962Y-2.8801
X6.7962Y-2.9589
X6.7962Y-3.0376
X6.7962Y-3.1164
X6.7962Y-3.1951
X6.7962Y-3.2738
X6.7962Y-3.3526
X6.7962Y-3.4313
X6.8066Y-1.6113
X6.9066Y-1.6113
X7.214Y-1.944
X7.214Y-2.044
X7.214Y-2.144
X7.214Y-2.244
X7.214Y-2.344
T4
X7.1338Y-2.9918
T5
X5.4946Y-2.9731
X5.4946Y-3.1581
X5.4946Y-3.3431
T6
X7.0338Y-2.8918
X7.0338Y-3.0918
X7.2338Y-2.8918
X7.2338Y-3.0918
T7
X5.0955Y-2.7916
X5.0955Y-2.9884
M30
