%TF.GenerationSoftware,KiCad,Pcbnew,8.0.6*%
%TF.CreationDate,2025-07-22T18:03:32-04:00*%
%TF.ProjectId,receiver,72656365-6976-4657-922e-6b696361645f,rev?*%
%TF.SameCoordinates,Original*%
%TF.FileFunction,Soldermask,Bot*%
%TF.FilePolarity,Negative*%
%FSLAX46Y46*%
G04 Gerber Fmt 4.6, Leading zero omitted, Abs format (unit mm)*
G04 Created by KiCad (PCBNEW 8.0.6) date 2025-07-22 18:03:32*
%MOMM*%
%LPD*%
G01*
G04 APERTURE LIST*
G04 Aperture macros list*
%AMRoundRect*
0 Rectangle with rounded corners*
0 $1 Rounding radius*
0 $2 $3 $4 $5 $6 $7 $8 $9 X,Y pos of 4 corners*
0 Add a 4 corners polygon primitive as box body*
4,1,4,$2,$3,$4,$5,$6,$7,$8,$9,$2,$3,0*
0 Add four circle primitives for the rounded corners*
1,1,$1+$1,$2,$3*
1,1,$1+$1,$4,$5*
1,1,$1+$1,$6,$7*
1,1,$1+$1,$8,$9*
0 Add four rect primitives between the rounded corners*
20,1,$1+$1,$2,$3,$4,$5,0*
20,1,$1+$1,$4,$5,$6,$7,0*
20,1,$1+$1,$6,$7,$8,$9,0*
20,1,$1+$1,$8,$9,$2,$3,0*%
G04 Aperture macros list end*
%ADD10C,3.276000*%
%ADD11RoundRect,0.775200X-1.162800X1.162800X-1.162800X-1.162800X1.162800X-1.162800X1.162800X1.162800X0*%
%ADD12C,3.876000*%
%ADD13C,1.142800*%
%ADD14RoundRect,0.038000X-0.850000X0.850000X-0.850000X-0.850000X0.850000X-0.850000X0.850000X0.850000X0*%
%ADD15O,1.776000X1.776000*%
%ADD16RoundRect,0.038000X-0.850000X-0.850000X0.850000X-0.850000X0.850000X0.850000X-0.850000X0.850000X0*%
%ADD17RoundRect,0.206712X-0.981288X0.981288X-0.981288X-0.981288X0.981288X-0.981288X0.981288X0.981288X0*%
%ADD18C,2.576000*%
%ADD19RoundRect,0.038000X1.054100X1.054100X-1.054100X1.054100X-1.054100X-1.054100X1.054100X-1.054100X0*%
%ADD20C,2.184200*%
%ADD21RoundRect,0.369000X1.144000X0.369000X-1.144000X0.369000X-1.144000X-0.369000X1.144000X-0.369000X0*%
G04 APERTURE END LIST*
D10*
%TO.C,HOLES1*%
X130773563Y-43879383D03*
X130773563Y-83879383D03*
X180773563Y-43879383D03*
X180773563Y-83879383D03*
%TD*%
D11*
%TO.C,PWR_J1*%
X129424626Y-70905817D03*
D12*
X129424626Y-75905817D03*
%TD*%
D13*
%TO.C,IF1*%
X164577829Y-44350546D03*
X163327829Y-44350546D03*
X162077829Y-44350546D03*
X160827829Y-44350546D03*
X159577829Y-44350546D03*
X158327829Y-44350546D03*
X157077829Y-44350546D03*
X155827829Y-44350546D03*
X154577829Y-44350546D03*
X153327829Y-44350546D03*
%TD*%
D14*
%TO.C,J3*%
X175428337Y-40927890D03*
D15*
X172888337Y-40927890D03*
%TD*%
D16*
%TO.C,J2*%
X183234589Y-49376524D03*
D15*
X183234589Y-51916524D03*
X183234589Y-54456524D03*
X183234589Y-56996524D03*
X183234589Y-59536524D03*
%TD*%
D17*
%TO.C,J1*%
X181199638Y-75992687D03*
D18*
X183739638Y-73452687D03*
X178659638Y-73452687D03*
X183739638Y-78532687D03*
X178659638Y-78532687D03*
%TD*%
D19*
%TO.C,SW5*%
X139561857Y-84915114D03*
D20*
X139561857Y-80216114D03*
X139561857Y-75517114D03*
%TD*%
D21*
%TO.C,RF1*%
X172149215Y-73155492D03*
X172149215Y-75155492D03*
X172149215Y-77155492D03*
X172149215Y-79155492D03*
X172149215Y-81155492D03*
X172149215Y-83155492D03*
X172149215Y-85155492D03*
X172149215Y-87155492D03*
X157099215Y-73155492D03*
X157099215Y-75155492D03*
X157099215Y-77155492D03*
X157099215Y-79155492D03*
X157099215Y-81155492D03*
X157099215Y-83155492D03*
X157099215Y-85155492D03*
X157099215Y-87155492D03*
%TD*%
M02*
