%TF.GenerationSoftware,KiCad,Pcbnew,8.0.6*%
%TF.CreationDate,2025-07-22T18:03:32-04:00*%
%TF.ProjectId,receiver,72656365-6976-4657-922e-6b696361645f,rev?*%
%TF.SameCoordinates,Original*%
%TF.FileFunction,Soldermask,Top*%
%TF.FilePolarity,Negative*%
%FSLAX46Y46*%
G04 Gerber Fmt 4.6, Leading zero omitted, Abs format (unit mm)*
G04 Created by KiCad (PCBNEW 8.0.6) date 2025-07-22 18:03:32*
%MOMM*%
%LPD*%
G01*
G04 APERTURE LIST*
G04 Aperture macros list*
%AMRoundRect*
0 Rectangle with rounded corners*
0 $1 Rounding radius*
0 $2 $3 $4 $5 $6 $7 $8 $9 X,Y pos of 4 corners*
0 Add a 4 corners polygon primitive as box body*
4,1,4,$2,$3,$4,$5,$6,$7,$8,$9,$2,$3,0*
0 Add four circle primitives for the rounded corners*
1,1,$1+$1,$2,$3*
1,1,$1+$1,$4,$5*
1,1,$1+$1,$6,$7*
1,1,$1+$1,$8,$9*
0 Add four rect primitives between the rounded corners*
20,1,$1+$1,$2,$3,$4,$5,0*
20,1,$1+$1,$4,$5,$6,$7,0*
20,1,$1+$1,$6,$7,$8,$9,0*
20,1,$1+$1,$8,$9,$2,$3,0*%
%AMFreePoly0*
4,1,16,0.526870,0.776870,0.531618,0.771079,1.031618,0.021079,1.037262,-0.007452,1.031618,-0.021079,0.531618,-0.771079,0.507452,-0.787262,0.500000,-0.788000,-0.500000,-0.788000,-0.526870,-0.776870,-0.538000,-0.750000,-0.538000,0.750000,-0.526870,0.776870,-0.500000,0.788000,0.500000,0.788000,0.526870,0.776870,0.526870,0.776870,$1*%
%AMFreePoly1*
4,1,16,0.526870,0.776870,0.538000,0.750000,0.538000,-0.750000,0.526870,-0.776870,0.500000,-0.788000,-0.650000,-0.788000,-0.676870,-0.776870,-0.688000,-0.750000,-0.681618,-0.728921,-0.195670,0.000000,-0.681618,0.728921,-0.687262,0.757452,-0.671079,0.781618,-0.650000,0.788000,0.500000,0.788000,0.526870,0.776870,0.526870,0.776870,$1*%
G04 Aperture macros list end*
%ADD10RoundRect,0.169000X-0.531500X-0.169000X0.531500X-0.169000X0.531500X0.169000X-0.531500X0.169000X0*%
%ADD11RoundRect,0.266521X0.346479X0.671479X-0.346479X0.671479X-0.346479X-0.671479X0.346479X-0.671479X0*%
%ADD12RoundRect,0.256500X0.319000X0.256500X-0.319000X0.256500X-0.319000X-0.256500X0.319000X-0.256500X0*%
%ADD13RoundRect,0.038000X0.355600X-0.127000X0.355600X0.127000X-0.355600X0.127000X-0.355600X-0.127000X0*%
%ADD14RoundRect,0.038000X-0.127000X-0.355600X0.127000X-0.355600X0.127000X0.355600X-0.127000X0.355600X0*%
%ADD15RoundRect,0.038000X-0.838200X-0.838200X0.838200X-0.838200X0.838200X0.838200X-0.838200X0.838200X0*%
%ADD16RoundRect,0.038000X0.400000X-0.400000X0.400000X0.400000X-0.400000X0.400000X-0.400000X-0.400000X0*%
%ADD17RoundRect,0.266521X0.671479X-0.346479X0.671479X0.346479X-0.671479X0.346479X-0.671479X-0.346479X0*%
%ADD18FreePoly0,90.000000*%
%ADD19FreePoly1,90.000000*%
%ADD20RoundRect,0.266889X0.333611X0.646111X-0.333611X0.646111X-0.333611X-0.646111X0.333611X-0.646111X0*%
%ADD21RoundRect,0.266521X-0.346479X-0.671479X0.346479X-0.671479X0.346479X0.671479X-0.346479X0.671479X0*%
%ADD22C,3.276000*%
%ADD23RoundRect,0.775200X-1.162800X1.162800X-1.162800X-1.162800X1.162800X-1.162800X1.162800X1.162800X0*%
%ADD24C,3.876000*%
%ADD25RoundRect,0.038000X0.600000X-0.600000X0.600000X0.600000X-0.600000X0.600000X-0.600000X-0.600000X0*%
%ADD26RoundRect,0.266889X0.646111X-0.333611X0.646111X0.333611X-0.646111X0.333611X-0.646111X-0.333611X0*%
%ADD27RoundRect,0.266889X-0.646111X0.333611X-0.646111X-0.333611X0.646111X-0.333611X0.646111X0.333611X0*%
%ADD28RoundRect,0.266521X-0.671479X0.346479X-0.671479X-0.346479X0.671479X-0.346479X0.671479X0.346479X0*%
%ADD29C,1.142800*%
%ADD30RoundRect,0.266889X-0.333611X-0.646111X0.333611X-0.646111X0.333611X0.646111X-0.333611X0.646111X0*%
%ADD31RoundRect,0.038000X-0.850000X0.850000X-0.850000X-0.850000X0.850000X-0.850000X0.850000X0.850000X0*%
%ADD32O,1.776000X1.776000*%
%ADD33RoundRect,0.244000X-0.244000X-0.394000X0.244000X-0.394000X0.244000X0.394000X-0.244000X0.394000X0*%
%ADD34FreePoly0,270.000000*%
%ADD35FreePoly1,270.000000*%
%ADD36RoundRect,0.169000X-0.169000X0.606500X-0.169000X-0.606500X0.169000X-0.606500X0.169000X0.606500X0*%
%ADD37RoundRect,0.215200X-0.322800X-0.622800X0.322800X-0.622800X0.322800X0.622800X-0.322800X0.622800X0*%
%ADD38RoundRect,0.038000X-0.850000X-0.850000X0.850000X-0.850000X0.850000X0.850000X-0.850000X0.850000X0*%
%ADD39RoundRect,0.038000X-0.596900X-0.152400X0.596900X-0.152400X0.596900X0.152400X-0.596900X0.152400X0*%
%ADD40RoundRect,0.038000X0.152400X-0.596900X0.152400X0.596900X-0.152400X0.596900X-0.152400X-0.596900X0*%
%ADD41RoundRect,0.206712X-0.981288X0.981288X-0.981288X-0.981288X0.981288X-0.981288X0.981288X0.981288X0*%
%ADD42C,2.576000*%
%ADD43RoundRect,0.256500X-0.319000X-0.256500X0.319000X-0.256500X0.319000X0.256500X-0.319000X0.256500X0*%
%ADD44RoundRect,0.038000X0.400000X-0.500000X0.400000X0.500000X-0.400000X0.500000X-0.400000X-0.500000X0*%
%ADD45RoundRect,0.038000X1.054100X1.054100X-1.054100X1.054100X-1.054100X-1.054100X1.054100X-1.054100X0*%
%ADD46C,2.184200*%
%ADD47RoundRect,0.038000X0.900000X-0.700000X0.900000X0.700000X-0.900000X0.700000X-0.900000X-0.700000X0*%
%ADD48RoundRect,0.038000X1.397000X-0.469900X1.397000X0.469900X-1.397000X0.469900X-1.397000X-0.469900X0*%
%ADD49RoundRect,0.038000X3.619500X-3.416300X3.619500X3.416300X-3.619500X3.416300X-3.619500X-3.416300X0*%
%ADD50RoundRect,0.369000X1.144000X0.369000X-1.144000X0.369000X-1.144000X-0.369000X1.144000X-0.369000X0*%
G04 APERTURE END LIST*
D10*
%TO.C,U3*%
X138574653Y-43527120D03*
X138574653Y-44477120D03*
X138574653Y-45427120D03*
X140849653Y-45427120D03*
X140849653Y-43527120D03*
%TD*%
D11*
%TO.C,STM_C9*%
X155439441Y-67242828D03*
X152489441Y-67242828D03*
%TD*%
D12*
%TO.C,CSTL_C1*%
X149732286Y-52985967D03*
X148007286Y-52985967D03*
%TD*%
D13*
%TO.C,U4*%
X175717012Y-64805490D03*
X175717012Y-65305491D03*
X175717012Y-65805491D03*
X175717012Y-66305492D03*
D14*
X176364011Y-66952491D03*
X176864012Y-66952491D03*
X177364012Y-66952491D03*
X177864013Y-66952491D03*
D13*
X178511012Y-66305492D03*
X178511012Y-65805491D03*
X178511012Y-65305491D03*
X178511012Y-64805490D03*
D14*
X177864013Y-64158491D03*
X177364012Y-64158491D03*
X176864012Y-64158491D03*
X176364011Y-64158491D03*
D15*
X177114012Y-65555491D03*
%TD*%
D16*
%TO.C,PWR_D2*%
X148436607Y-47491972D03*
X148436607Y-45991972D03*
%TD*%
D17*
%TO.C,PWR_C4*%
X136095404Y-45706822D03*
X136095404Y-42756822D03*
%TD*%
D18*
%TO.C,JP1*%
X170333149Y-50230232D03*
D19*
X170333149Y-48780232D03*
%TD*%
D20*
%TO.C,PWR_R5*%
X148969020Y-75891804D03*
X146044020Y-75891804D03*
%TD*%
D21*
%TO.C,MLX_C1*%
X175803570Y-69693425D03*
X178753570Y-69693425D03*
%TD*%
D22*
%TO.C,HOLES1*%
X130773563Y-43879383D03*
X130773563Y-83879383D03*
X180773563Y-43879383D03*
X180773563Y-83879383D03*
%TD*%
D23*
%TO.C,PWR_J1*%
X129424626Y-70905817D03*
D24*
X129424626Y-75905817D03*
%TD*%
D11*
%TO.C,STM_C3*%
X161696298Y-68439425D03*
X158746298Y-68439425D03*
%TD*%
D25*
%TO.C,D3*%
X141660016Y-69728522D03*
X141660016Y-67628522D03*
%TD*%
D11*
%TO.C,STM_C4*%
X169748575Y-68339953D03*
X166798575Y-68339953D03*
%TD*%
D21*
%TO.C,STM_C1*%
X155007712Y-51061894D03*
X157957712Y-51061894D03*
%TD*%
D26*
%TO.C,S_R1*%
X147761726Y-64756419D03*
X147761726Y-61831419D03*
%TD*%
D11*
%TO.C,STM_C8*%
X155439441Y-64692221D03*
X152489441Y-64692221D03*
%TD*%
D27*
%TO.C,LED_R1*%
X135077166Y-62842584D03*
X135077166Y-65767584D03*
%TD*%
D28*
%TO.C,PWR_C5*%
X143137476Y-45271792D03*
X143137476Y-48221792D03*
%TD*%
D27*
%TO.C,PWR_R1*%
X142468240Y-53063899D03*
X142468240Y-55988899D03*
%TD*%
D29*
%TO.C,IF1*%
X164577829Y-44350546D03*
X163327829Y-44350546D03*
X162077829Y-44350546D03*
X160827829Y-44350546D03*
X159577829Y-44350546D03*
X158327829Y-44350546D03*
X157077829Y-44350546D03*
X155827829Y-44350546D03*
X154577829Y-44350546D03*
X153327829Y-44350546D03*
%TD*%
D30*
%TO.C,S_R4*%
X151814828Y-59281044D03*
X154739828Y-59281044D03*
%TD*%
D28*
%TO.C,S_C10*%
X150247597Y-61818919D03*
X150247597Y-64768919D03*
%TD*%
D27*
%TO.C,I2C_R2*%
X163029926Y-48139458D03*
X163029926Y-51064458D03*
%TD*%
%TO.C,PWR_R4*%
X145784483Y-45283507D03*
X145784483Y-48208507D03*
%TD*%
D20*
%TO.C,STM_R2*%
X168123279Y-48387765D03*
X165198279Y-48387765D03*
%TD*%
D31*
%TO.C,J3*%
X175428337Y-40927890D03*
D32*
X172888337Y-40927890D03*
%TD*%
D11*
%TO.C,S_C7*%
X155426494Y-62141614D03*
X152476494Y-62141614D03*
%TD*%
D16*
%TO.C,PWR_D1*%
X142471913Y-59633230D03*
X142471913Y-58133230D03*
%TD*%
D33*
%TO.C,DZ1*%
X145861798Y-78326547D03*
X149161798Y-78326547D03*
%TD*%
D34*
%TO.C,MLX_A0*%
X183935535Y-63746676D03*
D35*
X183935535Y-65196676D03*
%TD*%
D27*
%TO.C,LED_R2*%
X138324260Y-62793215D03*
X138324260Y-65718215D03*
%TD*%
%TO.C,PWR_R3*%
X148358603Y-40519507D03*
X148358603Y-43444507D03*
%TD*%
D26*
%TO.C,PWR_R2*%
X145763599Y-43425068D03*
X145763599Y-40500068D03*
%TD*%
D25*
%TO.C,D2*%
X138345575Y-69717865D03*
X138345575Y-67617865D03*
%TD*%
D27*
%TO.C,LED_R3*%
X141587184Y-62748610D03*
X141587184Y-65673610D03*
%TD*%
%TO.C,I2C_R1*%
X160536657Y-48120676D03*
X160536657Y-51045676D03*
%TD*%
D21*
%TO.C,PWR_C1*%
X137321034Y-59673929D03*
X140271034Y-59673929D03*
%TD*%
D36*
%TO.C,Q2*%
X147547661Y-82465535D03*
X148497661Y-80590535D03*
X146597661Y-80590535D03*
%TD*%
D17*
%TO.C,S_C2*%
X155331844Y-56574983D03*
X155331844Y-53624983D03*
%TD*%
D37*
%TO.C,F1*%
X146053815Y-85025422D03*
X149053815Y-85025422D03*
%TD*%
D18*
%TO.C,MLX_A1*%
X183951649Y-68660888D03*
D19*
X183951649Y-67210888D03*
%TD*%
D38*
%TO.C,J2*%
X183234589Y-49376524D03*
D32*
X183234589Y-51916524D03*
X183234589Y-54456524D03*
X183234589Y-56996524D03*
X183234589Y-59536524D03*
%TD*%
D26*
%TO.C,MLX_R1*%
X181013584Y-65268026D03*
X181013584Y-62343026D03*
%TD*%
D39*
%TO.C,U1*%
X157705292Y-55777273D03*
X157705292Y-56277272D03*
X157705292Y-56777273D03*
X157705292Y-57277272D03*
X157705292Y-57777274D03*
X157705292Y-58277273D03*
X157705292Y-58777272D03*
X157705292Y-59277273D03*
X157705292Y-59777273D03*
X157705292Y-60277274D03*
X157705292Y-60777273D03*
X157705292Y-61277272D03*
X157705292Y-61777274D03*
X157705292Y-62277273D03*
X157705292Y-62777274D03*
X157705292Y-63277273D03*
D40*
X159705291Y-65277272D03*
X160205290Y-65277272D03*
X160705291Y-65277272D03*
X161205290Y-65277272D03*
X161705292Y-65277272D03*
X162205291Y-65277272D03*
X162705290Y-65277272D03*
X163205291Y-65277272D03*
X163705291Y-65277272D03*
X164205292Y-65277272D03*
X164705291Y-65277272D03*
X165205290Y-65277272D03*
X165705292Y-65277272D03*
X166205291Y-65277272D03*
X166705292Y-65277272D03*
X167205291Y-65277272D03*
D39*
X169205290Y-63277273D03*
X169205290Y-62777274D03*
X169205290Y-62277273D03*
X169205290Y-61777274D03*
X169205290Y-61277272D03*
X169205290Y-60777273D03*
X169205290Y-60277274D03*
X169205290Y-59777273D03*
X169205290Y-59277273D03*
X169205290Y-58777272D03*
X169205290Y-58277273D03*
X169205290Y-57777274D03*
X169205290Y-57277272D03*
X169205290Y-56777273D03*
X169205290Y-56277272D03*
X169205290Y-55777273D03*
D40*
X167205291Y-53777274D03*
X166705292Y-53777274D03*
X166205291Y-53777274D03*
X165705292Y-53777274D03*
X165205290Y-53777274D03*
X164705291Y-53777274D03*
X164205292Y-53777274D03*
X163705291Y-53777274D03*
X163205291Y-53777274D03*
X162705290Y-53777274D03*
X162205291Y-53777274D03*
X161705292Y-53777274D03*
X161205290Y-53777274D03*
X160705291Y-53777274D03*
X160205290Y-53777274D03*
X159705291Y-53777274D03*
%TD*%
D28*
%TO.C,MLX_C3*%
X148077387Y-67899531D03*
X148077387Y-70849531D03*
%TD*%
D30*
%TO.C,STM_R3*%
X165198279Y-50826667D03*
X168123279Y-50826667D03*
%TD*%
D27*
%TO.C,MLX_R2*%
X181007036Y-67108606D03*
X181007036Y-70033606D03*
%TD*%
D41*
%TO.C,J1*%
X181199638Y-75992687D03*
D42*
X183739638Y-73452687D03*
X178659638Y-73452687D03*
X183739638Y-78532687D03*
X178659638Y-78532687D03*
%TD*%
D17*
%TO.C,PWR_C3*%
X143163477Y-43444638D03*
X143163477Y-40494638D03*
%TD*%
D25*
%TO.C,D1*%
X135084421Y-69739180D03*
X135084421Y-67639180D03*
%TD*%
D11*
%TO.C,PWR_C2*%
X137785048Y-48570026D03*
X134835048Y-48570026D03*
%TD*%
D21*
%TO.C,MLX_C2*%
X175526094Y-62036645D03*
X178476094Y-62036645D03*
%TD*%
D43*
%TO.C,CSTL_C2*%
X147898619Y-58931564D03*
X149623619Y-58931564D03*
%TD*%
D17*
%TO.C,STM_C6*%
X172225878Y-68651368D03*
X172225878Y-65701368D03*
%TD*%
D28*
%TO.C,STM_C5*%
X172043004Y-52758197D03*
X172043004Y-55708197D03*
%TD*%
D44*
%TO.C,FB1*%
X157213213Y-66424422D03*
X157213213Y-64824422D03*
%TD*%
D45*
%TO.C,SW5*%
X139561857Y-84915114D03*
D46*
X139561857Y-80216114D03*
X139561857Y-75517114D03*
%TD*%
D47*
%TO.C,Y1*%
X151085309Y-54766527D03*
X151085309Y-57166527D03*
X146685309Y-57166527D03*
X146685309Y-54766527D03*
%TD*%
D48*
%TO.C,U2*%
X138769342Y-56573293D03*
D49*
X132254242Y-54283292D03*
D48*
X138769342Y-51993291D03*
%TD*%
D50*
%TO.C,RF1*%
X172149215Y-73155492D03*
X172149215Y-75155492D03*
X172149215Y-77155492D03*
X172149215Y-79155492D03*
X172149215Y-81155492D03*
X172149215Y-83155492D03*
X172149215Y-85155492D03*
X172149215Y-87155492D03*
X157099215Y-73155492D03*
X157099215Y-75155492D03*
X157099215Y-77155492D03*
X157099215Y-79155492D03*
X157099215Y-81155492D03*
X157099215Y-83155492D03*
X157099215Y-85155492D03*
X157099215Y-87155492D03*
%TD*%
M02*
