%TF.GenerationSoftware,KiCad,Pcbnew,8.0.6*%
%TF.CreationDate,2025-07-22T18:03:32-04:00*%
%TF.ProjectId,receiver,72656365-6976-4657-922e-6b696361645f,rev?*%
%TF.SameCoordinates,Original*%
%TF.FileFunction,Other,User*%
%FSLAX46Y46*%
G04 Gerber Fmt 4.6, Leading zero omitted, Abs format (unit mm)*
G04 Created by KiCad (PCBNEW 8.0.6) date 2025-07-22 18:03:32*
%MOMM*%
%LPD*%
G01*
G04 APERTURE LIST*
%ADD10C,0.050000*%
%ADD11C,0.152400*%
G04 APERTURE END LIST*
D10*
%TO.C,U3*%
X137662153Y-42777120D02*
X137662153Y-46177120D01*
X137662153Y-46177120D02*
X141762153Y-46177120D01*
X141762153Y-42777120D02*
X137662153Y-42777120D01*
X141762153Y-46177120D02*
X141762153Y-42777120D01*
%TO.C,STM_C9*%
X151664441Y-66092828D02*
X156264441Y-66092828D01*
X151664441Y-68392828D02*
X151664441Y-66092828D01*
X156264441Y-66092828D02*
X156264441Y-68392828D01*
X156264441Y-68392828D02*
X151664441Y-68392828D01*
%TO.C,CSTL_C1*%
X147219786Y-52255967D02*
X150519786Y-52255967D01*
X147219786Y-53715967D02*
X147219786Y-52255967D01*
X150519786Y-52255967D02*
X150519786Y-53715967D01*
X150519786Y-53715967D02*
X147219786Y-53715967D01*
D11*
%TO.C,U4*%
X175259812Y-64576891D02*
X175463012Y-64576891D01*
X175259812Y-66534091D02*
X175259812Y-64576891D01*
X175463012Y-63904491D02*
X176135412Y-63904491D01*
X175463012Y-64576891D02*
X175463012Y-63904491D01*
X175463012Y-66534091D02*
X175259812Y-66534091D01*
X175463012Y-67206491D02*
X175463012Y-66534091D01*
X176135412Y-63701291D02*
X178092612Y-63701291D01*
X176135412Y-63904491D02*
X176135412Y-63701291D01*
X176135412Y-67206491D02*
X175463012Y-67206491D01*
X176135412Y-67409691D02*
X176135412Y-67206491D01*
X178092612Y-63701291D02*
X178092612Y-63904491D01*
X178092612Y-63904491D02*
X178765012Y-63904491D01*
X178092612Y-67206491D02*
X178092612Y-67409691D01*
X178092612Y-67409691D02*
X176135412Y-67409691D01*
X178765012Y-63904491D02*
X178765012Y-64576891D01*
X178765012Y-64576891D02*
X178968212Y-64576891D01*
X178765012Y-66534091D02*
X178765012Y-67206491D01*
X178765012Y-67206491D02*
X178092612Y-67206491D01*
X178968212Y-64576891D02*
X178968212Y-66534091D01*
X178968212Y-66534091D02*
X178765012Y-66534091D01*
%TO.C,PWR_D2*%
D10*
X147636255Y-48271278D02*
X149231242Y-48271278D01*
X149231242Y-45224223D01*
X147636255Y-45224223D01*
X147636255Y-48271278D01*
%TO.C,PWR_C4*%
X134945404Y-41931822D02*
X137245404Y-41931822D01*
X134945404Y-46531822D02*
X134945404Y-41931822D01*
X137245404Y-41931822D02*
X137245404Y-46531822D01*
X137245404Y-46531822D02*
X134945404Y-46531822D01*
%TO.C,JP1*%
X169083149Y-51155232D02*
X169083149Y-47855232D01*
X169083149Y-51155232D02*
X171583149Y-51155232D01*
X171583149Y-47855232D02*
X169083149Y-47855232D01*
X171583149Y-47855232D02*
X171583149Y-51155232D01*
%TO.C,PWR_R5*%
X145226520Y-74771804D02*
X149786520Y-74771804D01*
X145226520Y-77011804D02*
X145226520Y-74771804D01*
X149786520Y-74771804D02*
X149786520Y-77011804D01*
X149786520Y-77011804D02*
X145226520Y-77011804D01*
%TO.C,MLX_C1*%
X174978570Y-68543425D02*
X179578570Y-68543425D01*
X174978570Y-70843425D02*
X174978570Y-68543425D01*
X179578570Y-68543425D02*
X179578570Y-70843425D01*
X179578570Y-70843425D02*
X174978570Y-70843425D01*
%TO.C,HOLES1*%
X134223563Y-43879383D02*
G75*
G02*
X127323563Y-43879383I-3450000J0D01*
G01*
X127323563Y-43879383D02*
G75*
G02*
X134223563Y-43879383I3450000J0D01*
G01*
X134223563Y-83879383D02*
G75*
G02*
X127323563Y-83879383I-3450000J0D01*
G01*
X127323563Y-83879383D02*
G75*
G02*
X134223563Y-83879383I3450000J0D01*
G01*
X184223563Y-43879383D02*
G75*
G02*
X177323563Y-43879383I-3450000J0D01*
G01*
X177323563Y-43879383D02*
G75*
G02*
X184223563Y-43879383I3450000J0D01*
G01*
X184223563Y-83879383D02*
G75*
G02*
X177323563Y-83879383I-3450000J0D01*
G01*
X177323563Y-83879383D02*
G75*
G02*
X184223563Y-83879383I3450000J0D01*
G01*
%TO.C,PWR_J1*%
X126324626Y-69505817D02*
X126324626Y-79005817D01*
X127624626Y-67805817D02*
X126324626Y-69505817D01*
X131224626Y-67805817D02*
X127624626Y-67805817D01*
X131224626Y-67805817D02*
X132524626Y-69505817D01*
X132524626Y-69505817D02*
X132524626Y-79005817D01*
X132524626Y-79005817D02*
X126324626Y-79005817D01*
%TO.C,STM_C3*%
X157921298Y-67289425D02*
X162521298Y-67289425D01*
X157921298Y-69589425D02*
X157921298Y-67289425D01*
X162521298Y-67289425D02*
X162521298Y-69589425D01*
X162521298Y-69589425D02*
X157921298Y-69589425D01*
%TO.C,D3*%
X140710016Y-66838522D02*
X142610016Y-66838522D01*
X140710016Y-70518522D02*
X140710016Y-66838522D01*
X142610016Y-66838522D02*
X142610016Y-70518522D01*
X142610016Y-70518522D02*
X140710016Y-70518522D01*
%TO.C,STM_C4*%
X165973575Y-67189953D02*
X170573575Y-67189953D01*
X165973575Y-69489953D02*
X165973575Y-67189953D01*
X170573575Y-67189953D02*
X170573575Y-69489953D01*
X170573575Y-69489953D02*
X165973575Y-69489953D01*
%TO.C,STM_C1*%
X154182712Y-49911894D02*
X158782712Y-49911894D01*
X154182712Y-52211894D02*
X154182712Y-49911894D01*
X158782712Y-49911894D02*
X158782712Y-52211894D01*
X158782712Y-52211894D02*
X154182712Y-52211894D01*
%TO.C,S_R1*%
X146641726Y-61013919D02*
X148881726Y-61013919D01*
X146641726Y-65573919D02*
X146641726Y-61013919D01*
X148881726Y-61013919D02*
X148881726Y-65573919D01*
X148881726Y-65573919D02*
X146641726Y-65573919D01*
%TO.C,STM_C8*%
X151664441Y-63542221D02*
X156264441Y-63542221D01*
X151664441Y-65842221D02*
X151664441Y-63542221D01*
X156264441Y-63542221D02*
X156264441Y-65842221D01*
X156264441Y-65842221D02*
X151664441Y-65842221D01*
%TO.C,LED_R1*%
X133957166Y-62025084D02*
X136197166Y-62025084D01*
X133957166Y-66585084D02*
X133957166Y-62025084D01*
X136197166Y-62025084D02*
X136197166Y-66585084D01*
X136197166Y-66585084D02*
X133957166Y-66585084D01*
%TO.C,PWR_C5*%
X141987476Y-44446792D02*
X144287476Y-44446792D01*
X141987476Y-49046792D02*
X141987476Y-44446792D01*
X144287476Y-44446792D02*
X144287476Y-49046792D01*
X144287476Y-49046792D02*
X141987476Y-49046792D01*
%TO.C,PWR_R1*%
X141348240Y-52246399D02*
X143588240Y-52246399D01*
X141348240Y-56806399D02*
X141348240Y-52246399D01*
X143588240Y-52246399D02*
X143588240Y-56806399D01*
X143588240Y-56806399D02*
X141348240Y-56806399D01*
D11*
%TO.C,IF1*%
X151574129Y-39634746D02*
X151574129Y-45654546D01*
X151574129Y-45654546D02*
X166331529Y-45654546D01*
X166331529Y-39634746D02*
X151574129Y-39634746D01*
X166331529Y-45654546D02*
X166331529Y-39634746D01*
D10*
%TO.C,S_R4*%
X150997328Y-58161044D02*
X155557328Y-58161044D01*
X150997328Y-60401044D02*
X150997328Y-58161044D01*
X155557328Y-58161044D02*
X155557328Y-60401044D01*
X155557328Y-60401044D02*
X150997328Y-60401044D01*
%TO.C,S_C10*%
X149097597Y-60993919D02*
X151397597Y-60993919D01*
X149097597Y-65593919D02*
X149097597Y-60993919D01*
X151397597Y-60993919D02*
X151397597Y-65593919D01*
X151397597Y-65593919D02*
X149097597Y-65593919D01*
%TO.C,I2C_R2*%
X161909926Y-47321958D02*
X164149926Y-47321958D01*
X161909926Y-51881958D02*
X161909926Y-47321958D01*
X164149926Y-47321958D02*
X164149926Y-51881958D01*
X164149926Y-51881958D02*
X161909926Y-51881958D01*
%TO.C,PWR_R4*%
X144664483Y-44466007D02*
X146904483Y-44466007D01*
X144664483Y-49026007D02*
X144664483Y-44466007D01*
X146904483Y-44466007D02*
X146904483Y-49026007D01*
X146904483Y-49026007D02*
X144664483Y-49026007D01*
%TO.C,STM_R2*%
X164380779Y-47267765D02*
X168940779Y-47267765D01*
X164380779Y-49507765D02*
X164380779Y-47267765D01*
X168940779Y-47267765D02*
X168940779Y-49507765D01*
X168940779Y-49507765D02*
X164380779Y-49507765D01*
%TO.C,J3*%
X171078337Y-39127890D02*
X171078337Y-42727890D01*
X171078337Y-42727890D02*
X177228337Y-42727890D01*
X177228337Y-39127890D02*
X171078337Y-39127890D01*
X177228337Y-42727890D02*
X177228337Y-39127890D01*
%TO.C,S_C7*%
X151651494Y-60991614D02*
X156251494Y-60991614D01*
X151651494Y-63291614D02*
X151651494Y-60991614D01*
X156251494Y-60991614D02*
X156251494Y-63291614D01*
X156251494Y-63291614D02*
X151651494Y-63291614D01*
%TO.C,PWR_D1*%
X141671561Y-60412536D02*
X143266548Y-60412536D01*
X143266548Y-57365481D01*
X141671561Y-57365481D01*
X141671561Y-60412536D01*
%TO.C,DZ1*%
X145161798Y-77176547D02*
X145161798Y-79476547D01*
X145161798Y-77176547D02*
X149861798Y-77176547D01*
X149861798Y-77176547D02*
X149861798Y-79476547D01*
X149861798Y-79476547D02*
X145161798Y-79476547D01*
%TO.C,MLX_A0*%
X182685535Y-66121676D02*
X182685535Y-62821676D01*
X182685535Y-66121676D02*
X185185535Y-66121676D01*
X185185535Y-62821676D02*
X182685535Y-62821676D01*
X185185535Y-62821676D02*
X185185535Y-66121676D01*
%TO.C,LED_R2*%
X137204260Y-61975715D02*
X139444260Y-61975715D01*
X137204260Y-66535715D02*
X137204260Y-61975715D01*
X139444260Y-61975715D02*
X139444260Y-66535715D01*
X139444260Y-66535715D02*
X137204260Y-66535715D01*
%TO.C,PWR_R3*%
X147238603Y-39702007D02*
X149478603Y-39702007D01*
X147238603Y-44262007D02*
X147238603Y-39702007D01*
X149478603Y-39702007D02*
X149478603Y-44262007D01*
X149478603Y-44262007D02*
X147238603Y-44262007D01*
%TO.C,PWR_R2*%
X144643599Y-39682568D02*
X146883599Y-39682568D01*
X144643599Y-44242568D02*
X144643599Y-39682568D01*
X146883599Y-39682568D02*
X146883599Y-44242568D01*
X146883599Y-44242568D02*
X144643599Y-44242568D01*
%TO.C,D2*%
X137395575Y-66827865D02*
X139295575Y-66827865D01*
X137395575Y-70507865D02*
X137395575Y-66827865D01*
X139295575Y-66827865D02*
X139295575Y-70507865D01*
X139295575Y-70507865D02*
X137395575Y-70507865D01*
%TO.C,LED_R3*%
X140467184Y-61931110D02*
X142707184Y-61931110D01*
X140467184Y-66491110D02*
X140467184Y-61931110D01*
X142707184Y-61931110D02*
X142707184Y-66491110D01*
X142707184Y-66491110D02*
X140467184Y-66491110D01*
%TO.C,I2C_R1*%
X159416657Y-47303176D02*
X161656657Y-47303176D01*
X159416657Y-51863176D02*
X159416657Y-47303176D01*
X161656657Y-47303176D02*
X161656657Y-51863176D01*
X161656657Y-51863176D02*
X159416657Y-51863176D01*
%TO.C,PWR_C1*%
X136496034Y-58523929D02*
X141096034Y-58523929D01*
X136496034Y-60823929D02*
X136496034Y-58523929D01*
X141096034Y-58523929D02*
X141096034Y-60823929D01*
X141096034Y-60823929D02*
X136496034Y-60823929D01*
%TO.C,Q2*%
X145847661Y-79608035D02*
X145847661Y-83448035D01*
X145847661Y-83448035D02*
X149247661Y-83448035D01*
X149247661Y-79608035D02*
X145847661Y-79608035D01*
X149247661Y-83448035D02*
X149247661Y-79608035D01*
%TO.C,S_C2*%
X154181844Y-52799983D02*
X156481844Y-52799983D01*
X154181844Y-57399983D02*
X154181844Y-52799983D01*
X156481844Y-52799983D02*
X156481844Y-57399983D01*
X156481844Y-57399983D02*
X154181844Y-57399983D01*
%TO.C,F1*%
X145273815Y-83905422D02*
X149833815Y-83905422D01*
X145273815Y-86145422D02*
X145273815Y-83905422D01*
X149833815Y-83905422D02*
X149833815Y-86145422D01*
X149833815Y-86145422D02*
X145273815Y-86145422D01*
%TO.C,MLX_A1*%
X182701649Y-69585888D02*
X182701649Y-66285888D01*
X182701649Y-69585888D02*
X185201649Y-69585888D01*
X185201649Y-66285888D02*
X182701649Y-66285888D01*
X185201649Y-66285888D02*
X185201649Y-69585888D01*
%TO.C,J2*%
X181434589Y-47576524D02*
X181434589Y-61326524D01*
X181434589Y-61326524D02*
X185034589Y-61326524D01*
X185034589Y-47576524D02*
X181434589Y-47576524D01*
X185034589Y-61326524D02*
X185034589Y-47576524D01*
%TO.C,MLX_R1*%
X179893584Y-61525526D02*
X182133584Y-61525526D01*
X179893584Y-66085526D02*
X179893584Y-61525526D01*
X182133584Y-61525526D02*
X182133584Y-66085526D01*
X182133584Y-66085526D02*
X179893584Y-66085526D01*
D11*
%TO.C,U1*%
X156854391Y-55269273D02*
X158197491Y-55269273D01*
X156854391Y-63785273D02*
X156854391Y-55269273D01*
X158197491Y-54269473D02*
X159197291Y-54269473D01*
X158197491Y-55269273D02*
X158197491Y-54269473D01*
X158197491Y-63785273D02*
X156854391Y-63785273D01*
X158197491Y-64785073D02*
X158197491Y-63785273D01*
X159197291Y-52926373D02*
X167713291Y-52926373D01*
X159197291Y-54269473D02*
X159197291Y-52926373D01*
X159197291Y-64785073D02*
X158197491Y-64785073D01*
X159197291Y-66128173D02*
X159197291Y-64785073D01*
X167713291Y-52926373D02*
X167713291Y-54269473D01*
X167713291Y-54269473D02*
X168713091Y-54269473D01*
X167713291Y-64785073D02*
X167713291Y-66128173D01*
X167713291Y-66128173D02*
X159197291Y-66128173D01*
X168713091Y-54269473D02*
X168713091Y-55269273D01*
X168713091Y-55269273D02*
X170056191Y-55269273D01*
X168713091Y-63785273D02*
X168713091Y-64785073D01*
X168713091Y-64785073D02*
X167713291Y-64785073D01*
X170056191Y-55269273D02*
X170056191Y-63785273D01*
X170056191Y-63785273D02*
X168713091Y-63785273D01*
D10*
%TO.C,MLX_C3*%
X146927387Y-67074531D02*
X149227387Y-67074531D01*
X146927387Y-71674531D02*
X146927387Y-67074531D01*
X149227387Y-67074531D02*
X149227387Y-71674531D01*
X149227387Y-71674531D02*
X146927387Y-71674531D01*
%TO.C,STM_R3*%
X164380779Y-49706667D02*
X168940779Y-49706667D01*
X164380779Y-51946667D02*
X164380779Y-49706667D01*
X168940779Y-49706667D02*
X168940779Y-51946667D01*
X168940779Y-51946667D02*
X164380779Y-51946667D01*
%TO.C,MLX_R2*%
X179887036Y-66291106D02*
X182127036Y-66291106D01*
X179887036Y-70851106D02*
X179887036Y-66291106D01*
X182127036Y-66291106D02*
X182127036Y-70851106D01*
X182127036Y-70851106D02*
X179887036Y-70851106D01*
%TO.C,J1*%
X176899638Y-80292687D02*
X176899638Y-71692687D01*
X176899638Y-80292687D02*
X193199638Y-80292687D01*
X193199638Y-71692687D02*
X176899638Y-71692687D01*
X193199638Y-71692687D02*
X193199638Y-80292687D01*
%TO.C,PWR_C3*%
X142013477Y-39669638D02*
X144313477Y-39669638D01*
X142013477Y-44269638D02*
X142013477Y-39669638D01*
X144313477Y-39669638D02*
X144313477Y-44269638D01*
X144313477Y-44269638D02*
X142013477Y-44269638D01*
%TO.C,D1*%
X134134421Y-66849180D02*
X136034421Y-66849180D01*
X134134421Y-70529180D02*
X134134421Y-66849180D01*
X136034421Y-66849180D02*
X136034421Y-70529180D01*
X136034421Y-70529180D02*
X134134421Y-70529180D01*
%TO.C,PWR_C2*%
X134010048Y-47420026D02*
X138610048Y-47420026D01*
X134010048Y-49720026D02*
X134010048Y-47420026D01*
X138610048Y-47420026D02*
X138610048Y-49720026D01*
X138610048Y-49720026D02*
X134010048Y-49720026D01*
%TO.C,MLX_C2*%
X174701094Y-60886645D02*
X179301094Y-60886645D01*
X174701094Y-63186645D02*
X174701094Y-60886645D01*
X179301094Y-60886645D02*
X179301094Y-63186645D01*
X179301094Y-63186645D02*
X174701094Y-63186645D01*
%TO.C,CSTL_C2*%
X147111119Y-58201564D02*
X150411119Y-58201564D01*
X147111119Y-59661564D02*
X147111119Y-58201564D01*
X150411119Y-58201564D02*
X150411119Y-59661564D01*
X150411119Y-59661564D02*
X147111119Y-59661564D01*
%TO.C,STM_C6*%
X171075878Y-64876368D02*
X173375878Y-64876368D01*
X171075878Y-69476368D02*
X171075878Y-64876368D01*
X173375878Y-64876368D02*
X173375878Y-69476368D01*
X173375878Y-69476368D02*
X171075878Y-69476368D01*
%TO.C,STM_C5*%
X170893004Y-51933197D02*
X173193004Y-51933197D01*
X170893004Y-56533197D02*
X170893004Y-51933197D01*
X173193004Y-51933197D02*
X173193004Y-56533197D01*
X173193004Y-56533197D02*
X170893004Y-56533197D01*
%TO.C,FB1*%
X156483213Y-64144422D02*
X157943213Y-64144422D01*
X156483213Y-67104422D02*
X156483213Y-64144422D01*
X157943213Y-64144422D02*
X157943213Y-67104422D01*
X157943213Y-67104422D02*
X156483213Y-67104422D01*
D11*
%TO.C,SW5*%
X135802657Y-72964414D02*
X135802657Y-87467814D01*
X135802657Y-87467814D02*
X143321057Y-87467814D01*
X143321057Y-72964414D02*
X135802657Y-72964414D01*
X143321057Y-87467814D02*
X143321057Y-72964414D01*
%TO.C,Y1*%
D10*
X152030248Y-57903299D02*
X145745909Y-57903299D01*
X145745909Y-54007197D01*
X152030248Y-54007197D01*
X152030248Y-57903299D01*
D11*
%TO.C,U2*%
X128126742Y-50308192D02*
X136381742Y-50308192D01*
X128126742Y-58258392D02*
X128126742Y-50308192D01*
X136381742Y-50308192D02*
X136381742Y-51040791D01*
X136381742Y-51040791D02*
X140674342Y-51040791D01*
X136381742Y-57525793D02*
X136381742Y-58258392D01*
X136381742Y-58258392D02*
X128126742Y-58258392D01*
X137880342Y-52945791D02*
X137880342Y-55620793D01*
X137880342Y-55620793D02*
X140674342Y-55620793D01*
X140674342Y-51040791D02*
X140674342Y-52945791D01*
X140674342Y-52945791D02*
X137880342Y-52945791D01*
X140674342Y-55620793D02*
X140674342Y-57525793D01*
X140674342Y-57525793D02*
X136381742Y-57525793D01*
%TD*%
M02*
