%TF.GenerationSoftware,KiCad,Pcbnew,8.0.6*%
%TF.CreationDate,2025-07-22T18:03:32-04:00*%
%TF.ProjectId,receiver,72656365-6976-4657-922e-6b696361645f,rev?*%
%TF.SameCoordinates,Original*%
%TF.FileFunction,Legend,Bot*%
%TF.FilePolarity,Positive*%
%FSLAX46Y46*%
G04 Gerber Fmt 4.6, Leading zero omitted, Abs format (unit mm)*
G04 Created by KiCad (PCBNEW 8.0.6) date 2025-07-22 18:03:32*
%MOMM*%
%LPD*%
G01*
G04 APERTURE LIST*
%ADD10C,0.153000*%
%ADD11C,0.200000*%
%ADD12C,0.508000*%
%ADD13C,0.000000*%
%ADD14C,0.120000*%
%ADD15C,0.100000*%
G04 APERTURE END LIST*
D10*
X176522283Y-73396512D02*
X176046093Y-73396512D01*
X176617521Y-73682227D02*
X176284188Y-72682227D01*
X176284188Y-72682227D02*
X175950855Y-73682227D01*
X175617521Y-73682227D02*
X175617521Y-72682227D01*
X175617521Y-72682227D02*
X175046093Y-73682227D01*
X175046093Y-73682227D02*
X175046093Y-72682227D01*
X174712759Y-72682227D02*
X174141331Y-72682227D01*
X174427045Y-73682227D02*
X174427045Y-72682227D01*
X176793707Y-80699231D02*
X176174660Y-80699231D01*
X176174660Y-80699231D02*
X176507993Y-81080183D01*
X176507993Y-81080183D02*
X176365136Y-81080183D01*
X176365136Y-81080183D02*
X176269898Y-81127802D01*
X176269898Y-81127802D02*
X176222279Y-81175421D01*
X176222279Y-81175421D02*
X176174660Y-81270659D01*
X176174660Y-81270659D02*
X176174660Y-81508754D01*
X176174660Y-81508754D02*
X176222279Y-81603992D01*
X176222279Y-81603992D02*
X176269898Y-81651612D01*
X176269898Y-81651612D02*
X176365136Y-81699231D01*
X176365136Y-81699231D02*
X176650850Y-81699231D01*
X176650850Y-81699231D02*
X176746088Y-81651612D01*
X176746088Y-81651612D02*
X176793707Y-81603992D01*
X175888945Y-80699231D02*
X175555612Y-81699231D01*
X175555612Y-81699231D02*
X175222279Y-80699231D01*
X174984183Y-80699231D02*
X174365136Y-80699231D01*
X174365136Y-80699231D02*
X174698469Y-81080183D01*
X174698469Y-81080183D02*
X174555612Y-81080183D01*
X174555612Y-81080183D02*
X174460374Y-81127802D01*
X174460374Y-81127802D02*
X174412755Y-81175421D01*
X174412755Y-81175421D02*
X174365136Y-81270659D01*
X174365136Y-81270659D02*
X174365136Y-81508754D01*
X174365136Y-81508754D02*
X174412755Y-81603992D01*
X174412755Y-81603992D02*
X174460374Y-81651612D01*
X174460374Y-81651612D02*
X174555612Y-81699231D01*
X174555612Y-81699231D02*
X174841326Y-81699231D01*
X174841326Y-81699231D02*
X174936564Y-81651612D01*
X174936564Y-81651612D02*
X174984183Y-81603992D01*
X154925131Y-75656843D02*
X154782274Y-75704462D01*
X154782274Y-75704462D02*
X154544179Y-75704462D01*
X154544179Y-75704462D02*
X154448941Y-75656843D01*
X154448941Y-75656843D02*
X154401322Y-75609223D01*
X154401322Y-75609223D02*
X154353703Y-75513985D01*
X154353703Y-75513985D02*
X154353703Y-75418747D01*
X154353703Y-75418747D02*
X154401322Y-75323509D01*
X154401322Y-75323509D02*
X154448941Y-75275890D01*
X154448941Y-75275890D02*
X154544179Y-75228271D01*
X154544179Y-75228271D02*
X154734655Y-75180652D01*
X154734655Y-75180652D02*
X154829893Y-75133033D01*
X154829893Y-75133033D02*
X154877512Y-75085414D01*
X154877512Y-75085414D02*
X154925131Y-74990176D01*
X154925131Y-74990176D02*
X154925131Y-74894938D01*
X154925131Y-74894938D02*
X154877512Y-74799700D01*
X154877512Y-74799700D02*
X154829893Y-74752081D01*
X154829893Y-74752081D02*
X154734655Y-74704462D01*
X154734655Y-74704462D02*
X154496560Y-74704462D01*
X154496560Y-74704462D02*
X154353703Y-74752081D01*
X153925131Y-75704462D02*
X153925131Y-74704462D01*
X153925131Y-74704462D02*
X153687036Y-74704462D01*
X153687036Y-74704462D02*
X153544179Y-74752081D01*
X153544179Y-74752081D02*
X153448941Y-74847319D01*
X153448941Y-74847319D02*
X153401322Y-74942557D01*
X153401322Y-74942557D02*
X153353703Y-75133033D01*
X153353703Y-75133033D02*
X153353703Y-75275890D01*
X153353703Y-75275890D02*
X153401322Y-75466366D01*
X153401322Y-75466366D02*
X153448941Y-75561604D01*
X153448941Y-75561604D02*
X153544179Y-75656843D01*
X153544179Y-75656843D02*
X153687036Y-75704462D01*
X153687036Y-75704462D02*
X153925131Y-75704462D01*
X152925131Y-75704462D02*
X152925131Y-74704462D01*
X152925131Y-74704462D02*
X152353703Y-75704462D01*
X152353703Y-75704462D02*
X152353703Y-74704462D01*
X154282105Y-79541791D02*
X154329724Y-79589411D01*
X154329724Y-79589411D02*
X154472581Y-79637030D01*
X154472581Y-79637030D02*
X154567819Y-79637030D01*
X154567819Y-79637030D02*
X154710676Y-79589411D01*
X154710676Y-79589411D02*
X154805914Y-79494172D01*
X154805914Y-79494172D02*
X154853533Y-79398934D01*
X154853533Y-79398934D02*
X154901152Y-79208458D01*
X154901152Y-79208458D02*
X154901152Y-79065601D01*
X154901152Y-79065601D02*
X154853533Y-78875125D01*
X154853533Y-78875125D02*
X154805914Y-78779887D01*
X154805914Y-78779887D02*
X154710676Y-78684649D01*
X154710676Y-78684649D02*
X154567819Y-78637030D01*
X154567819Y-78637030D02*
X154472581Y-78637030D01*
X154472581Y-78637030D02*
X154329724Y-78684649D01*
X154329724Y-78684649D02*
X154282105Y-78732268D01*
X153901152Y-79589411D02*
X153758295Y-79637030D01*
X153758295Y-79637030D02*
X153520200Y-79637030D01*
X153520200Y-79637030D02*
X153424962Y-79589411D01*
X153424962Y-79589411D02*
X153377343Y-79541791D01*
X153377343Y-79541791D02*
X153329724Y-79446553D01*
X153329724Y-79446553D02*
X153329724Y-79351315D01*
X153329724Y-79351315D02*
X153377343Y-79256077D01*
X153377343Y-79256077D02*
X153424962Y-79208458D01*
X153424962Y-79208458D02*
X153520200Y-79160839D01*
X153520200Y-79160839D02*
X153710676Y-79113220D01*
X153710676Y-79113220D02*
X153805914Y-79065601D01*
X153805914Y-79065601D02*
X153853533Y-79017982D01*
X153853533Y-79017982D02*
X153901152Y-78922744D01*
X153901152Y-78922744D02*
X153901152Y-78827506D01*
X153901152Y-78827506D02*
X153853533Y-78732268D01*
X153853533Y-78732268D02*
X153805914Y-78684649D01*
X153805914Y-78684649D02*
X153710676Y-78637030D01*
X153710676Y-78637030D02*
X153472581Y-78637030D01*
X153472581Y-78637030D02*
X153329724Y-78684649D01*
X154853533Y-77598808D02*
X154853533Y-76598808D01*
X154853533Y-76598808D02*
X154282105Y-77598808D01*
X154282105Y-77598808D02*
X154282105Y-76598808D01*
X153805914Y-77598808D02*
X153805914Y-76598808D01*
X152758296Y-77598808D02*
X153091629Y-77122617D01*
X153329724Y-77598808D02*
X153329724Y-76598808D01*
X153329724Y-76598808D02*
X152948772Y-76598808D01*
X152948772Y-76598808D02*
X152853534Y-76646427D01*
X152853534Y-76646427D02*
X152805915Y-76694046D01*
X152805915Y-76694046D02*
X152758296Y-76789284D01*
X152758296Y-76789284D02*
X152758296Y-76932141D01*
X152758296Y-76932141D02*
X152805915Y-77027379D01*
X152805915Y-77027379D02*
X152853534Y-77074998D01*
X152853534Y-77074998D02*
X152948772Y-77122617D01*
X152948772Y-77122617D02*
X153329724Y-77122617D01*
X151663058Y-77694046D02*
X151758296Y-77646427D01*
X151758296Y-77646427D02*
X151853534Y-77551189D01*
X151853534Y-77551189D02*
X151996391Y-77408331D01*
X151996391Y-77408331D02*
X152091629Y-77360712D01*
X152091629Y-77360712D02*
X152186867Y-77360712D01*
X152139248Y-77598808D02*
X152234486Y-77551189D01*
X152234486Y-77551189D02*
X152329724Y-77455950D01*
X152329724Y-77455950D02*
X152377343Y-77265474D01*
X152377343Y-77265474D02*
X152377343Y-76932141D01*
X152377343Y-76932141D02*
X152329724Y-76741665D01*
X152329724Y-76741665D02*
X152234486Y-76646427D01*
X152234486Y-76646427D02*
X152139248Y-76598808D01*
X152139248Y-76598808D02*
X151948772Y-76598808D01*
X151948772Y-76598808D02*
X151853534Y-76646427D01*
X151853534Y-76646427D02*
X151758296Y-76741665D01*
X151758296Y-76741665D02*
X151710677Y-76932141D01*
X151710677Y-76932141D02*
X151710677Y-77265474D01*
X151710677Y-77265474D02*
X151758296Y-77455950D01*
X151758296Y-77455950D02*
X151853534Y-77551189D01*
X151853534Y-77551189D02*
X151948772Y-77598808D01*
X151948772Y-77598808D02*
X152139248Y-77598808D01*
X154901152Y-81627632D02*
X154758295Y-81675251D01*
X154758295Y-81675251D02*
X154520200Y-81675251D01*
X154520200Y-81675251D02*
X154424962Y-81627632D01*
X154424962Y-81627632D02*
X154377343Y-81580012D01*
X154377343Y-81580012D02*
X154329724Y-81484774D01*
X154329724Y-81484774D02*
X154329724Y-81389536D01*
X154329724Y-81389536D02*
X154377343Y-81294298D01*
X154377343Y-81294298D02*
X154424962Y-81246679D01*
X154424962Y-81246679D02*
X154520200Y-81199060D01*
X154520200Y-81199060D02*
X154710676Y-81151441D01*
X154710676Y-81151441D02*
X154805914Y-81103822D01*
X154805914Y-81103822D02*
X154853533Y-81056203D01*
X154853533Y-81056203D02*
X154901152Y-80960965D01*
X154901152Y-80960965D02*
X154901152Y-80865727D01*
X154901152Y-80865727D02*
X154853533Y-80770489D01*
X154853533Y-80770489D02*
X154805914Y-80722870D01*
X154805914Y-80722870D02*
X154710676Y-80675251D01*
X154710676Y-80675251D02*
X154472581Y-80675251D01*
X154472581Y-80675251D02*
X154329724Y-80722870D01*
X153329724Y-81580012D02*
X153377343Y-81627632D01*
X153377343Y-81627632D02*
X153520200Y-81675251D01*
X153520200Y-81675251D02*
X153615438Y-81675251D01*
X153615438Y-81675251D02*
X153758295Y-81627632D01*
X153758295Y-81627632D02*
X153853533Y-81532393D01*
X153853533Y-81532393D02*
X153901152Y-81437155D01*
X153901152Y-81437155D02*
X153948771Y-81246679D01*
X153948771Y-81246679D02*
X153948771Y-81103822D01*
X153948771Y-81103822D02*
X153901152Y-80913346D01*
X153901152Y-80913346D02*
X153853533Y-80818108D01*
X153853533Y-80818108D02*
X153758295Y-80722870D01*
X153758295Y-80722870D02*
X153615438Y-80675251D01*
X153615438Y-80675251D02*
X153520200Y-80675251D01*
X153520200Y-80675251D02*
X153377343Y-80722870D01*
X153377343Y-80722870D02*
X153329724Y-80770489D01*
X152901152Y-81675251D02*
X152901152Y-80675251D01*
X152329724Y-81675251D02*
X152758295Y-81103822D01*
X152329724Y-80675251D02*
X152901152Y-81246679D01*
X165063921Y-42405658D02*
X165111540Y-42500896D01*
X165111540Y-42500896D02*
X165111540Y-42643753D01*
X165111540Y-42643753D02*
X165063921Y-42786610D01*
X165063921Y-42786610D02*
X164968683Y-42881848D01*
X164968683Y-42881848D02*
X164873445Y-42929467D01*
X164873445Y-42929467D02*
X164682969Y-42977086D01*
X164682969Y-42977086D02*
X164540112Y-42977086D01*
X164540112Y-42977086D02*
X164349636Y-42929467D01*
X164349636Y-42929467D02*
X164254398Y-42881848D01*
X164254398Y-42881848D02*
X164159160Y-42786610D01*
X164159160Y-42786610D02*
X164111540Y-42643753D01*
X164111540Y-42643753D02*
X164111540Y-42548515D01*
X164111540Y-42548515D02*
X164159160Y-42405658D01*
X164159160Y-42405658D02*
X164206779Y-42358039D01*
X164206779Y-42358039D02*
X164540112Y-42358039D01*
X164540112Y-42358039D02*
X164540112Y-42548515D01*
X164111540Y-41929467D02*
X165111540Y-41929467D01*
X165111540Y-41929467D02*
X164111540Y-41358039D01*
X164111540Y-41358039D02*
X165111540Y-41358039D01*
X164111540Y-40881848D02*
X165111540Y-40881848D01*
X165111540Y-40881848D02*
X165111540Y-40643753D01*
X165111540Y-40643753D02*
X165063921Y-40500896D01*
X165063921Y-40500896D02*
X164968683Y-40405658D01*
X164968683Y-40405658D02*
X164873445Y-40358039D01*
X164873445Y-40358039D02*
X164682969Y-40310420D01*
X164682969Y-40310420D02*
X164540112Y-40310420D01*
X164540112Y-40310420D02*
X164349636Y-40358039D01*
X164349636Y-40358039D02*
X164254398Y-40405658D01*
X164254398Y-40405658D02*
X164159160Y-40500896D01*
X164159160Y-40500896D02*
X164111540Y-40643753D01*
X164111540Y-40643753D02*
X164111540Y-40881848D01*
X153828798Y-42453277D02*
X153828798Y-42929467D01*
X153828798Y-42929467D02*
X153352608Y-42977086D01*
X153352608Y-42977086D02*
X153400227Y-42929467D01*
X153400227Y-42929467D02*
X153447846Y-42834229D01*
X153447846Y-42834229D02*
X153447846Y-42596134D01*
X153447846Y-42596134D02*
X153400227Y-42500896D01*
X153400227Y-42500896D02*
X153352608Y-42453277D01*
X153352608Y-42453277D02*
X153257370Y-42405658D01*
X153257370Y-42405658D02*
X153019275Y-42405658D01*
X153019275Y-42405658D02*
X152924037Y-42453277D01*
X152924037Y-42453277D02*
X152876418Y-42500896D01*
X152876418Y-42500896D02*
X152828798Y-42596134D01*
X152828798Y-42596134D02*
X152828798Y-42834229D01*
X152828798Y-42834229D02*
X152876418Y-42929467D01*
X152876418Y-42929467D02*
X152924037Y-42977086D01*
X153828798Y-42119943D02*
X152828798Y-41786610D01*
X152828798Y-41786610D02*
X153828798Y-41453277D01*
X156637332Y-42977086D02*
X156589712Y-42834229D01*
X156589712Y-42834229D02*
X156589712Y-42596134D01*
X156589712Y-42596134D02*
X156637332Y-42500896D01*
X156637332Y-42500896D02*
X156684951Y-42453277D01*
X156684951Y-42453277D02*
X156780189Y-42405658D01*
X156780189Y-42405658D02*
X156875427Y-42405658D01*
X156875427Y-42405658D02*
X156970665Y-42453277D01*
X156970665Y-42453277D02*
X157018284Y-42500896D01*
X157018284Y-42500896D02*
X157065903Y-42596134D01*
X157065903Y-42596134D02*
X157113522Y-42786610D01*
X157113522Y-42786610D02*
X157161141Y-42881848D01*
X157161141Y-42881848D02*
X157208760Y-42929467D01*
X157208760Y-42929467D02*
X157303998Y-42977086D01*
X157303998Y-42977086D02*
X157399236Y-42977086D01*
X157399236Y-42977086D02*
X157494474Y-42929467D01*
X157494474Y-42929467D02*
X157542093Y-42881848D01*
X157542093Y-42881848D02*
X157589712Y-42786610D01*
X157589712Y-42786610D02*
X157589712Y-42548515D01*
X157589712Y-42548515D02*
X157542093Y-42405658D01*
X156589712Y-41977086D02*
X157589712Y-41977086D01*
X157589712Y-41977086D02*
X157589712Y-41738991D01*
X157589712Y-41738991D02*
X157542093Y-41596134D01*
X157542093Y-41596134D02*
X157446855Y-41500896D01*
X157446855Y-41500896D02*
X157351617Y-41453277D01*
X157351617Y-41453277D02*
X157161141Y-41405658D01*
X157161141Y-41405658D02*
X157018284Y-41405658D01*
X157018284Y-41405658D02*
X156827808Y-41453277D01*
X156827808Y-41453277D02*
X156732570Y-41500896D01*
X156732570Y-41500896D02*
X156637332Y-41596134D01*
X156637332Y-41596134D02*
X156589712Y-41738991D01*
X156589712Y-41738991D02*
X156589712Y-41977086D01*
X156875427Y-41024705D02*
X156875427Y-40548515D01*
X156589712Y-41119943D02*
X157589712Y-40786610D01*
X157589712Y-40786610D02*
X156589712Y-40453277D01*
X155082436Y-43024705D02*
X155082436Y-42405658D01*
X155082436Y-42405658D02*
X154701484Y-42738991D01*
X154701484Y-42738991D02*
X154701484Y-42596134D01*
X154701484Y-42596134D02*
X154653865Y-42500896D01*
X154653865Y-42500896D02*
X154606246Y-42453277D01*
X154606246Y-42453277D02*
X154511008Y-42405658D01*
X154511008Y-42405658D02*
X154272913Y-42405658D01*
X154272913Y-42405658D02*
X154177675Y-42453277D01*
X154177675Y-42453277D02*
X154130056Y-42500896D01*
X154130056Y-42500896D02*
X154082436Y-42596134D01*
X154082436Y-42596134D02*
X154082436Y-42881848D01*
X154082436Y-42881848D02*
X154130056Y-42977086D01*
X154130056Y-42977086D02*
X154177675Y-43024705D01*
X155082436Y-42119943D02*
X154082436Y-41786610D01*
X154082436Y-41786610D02*
X155082436Y-41453277D01*
X155082436Y-41215181D02*
X155082436Y-40596134D01*
X155082436Y-40596134D02*
X154701484Y-40929467D01*
X154701484Y-40929467D02*
X154701484Y-40786610D01*
X154701484Y-40786610D02*
X154653865Y-40691372D01*
X154653865Y-40691372D02*
X154606246Y-40643753D01*
X154606246Y-40643753D02*
X154511008Y-40596134D01*
X154511008Y-40596134D02*
X154272913Y-40596134D01*
X154272913Y-40596134D02*
X154177675Y-40643753D01*
X154177675Y-40643753D02*
X154130056Y-40691372D01*
X154130056Y-40691372D02*
X154082436Y-40786610D01*
X154082436Y-40786610D02*
X154082436Y-41072324D01*
X154082436Y-41072324D02*
X154130056Y-41167562D01*
X154130056Y-41167562D02*
X154177675Y-41215181D01*
X154853533Y-83665514D02*
X154853533Y-82665514D01*
X154853533Y-82665514D02*
X154520200Y-83379799D01*
X154520200Y-83379799D02*
X154186867Y-82665514D01*
X154186867Y-82665514D02*
X154186867Y-83665514D01*
X153520200Y-82665514D02*
X153329724Y-82665514D01*
X153329724Y-82665514D02*
X153234486Y-82713133D01*
X153234486Y-82713133D02*
X153139248Y-82808371D01*
X153139248Y-82808371D02*
X153091629Y-82998847D01*
X153091629Y-82998847D02*
X153091629Y-83332180D01*
X153091629Y-83332180D02*
X153139248Y-83522656D01*
X153139248Y-83522656D02*
X153234486Y-83617895D01*
X153234486Y-83617895D02*
X153329724Y-83665514D01*
X153329724Y-83665514D02*
X153520200Y-83665514D01*
X153520200Y-83665514D02*
X153615438Y-83617895D01*
X153615438Y-83617895D02*
X153710676Y-83522656D01*
X153710676Y-83522656D02*
X153758295Y-83332180D01*
X153758295Y-83332180D02*
X153758295Y-82998847D01*
X153758295Y-82998847D02*
X153710676Y-82808371D01*
X153710676Y-82808371D02*
X153615438Y-82713133D01*
X153615438Y-82713133D02*
X153520200Y-82665514D01*
X152710676Y-83617895D02*
X152567819Y-83665514D01*
X152567819Y-83665514D02*
X152329724Y-83665514D01*
X152329724Y-83665514D02*
X152234486Y-83617895D01*
X152234486Y-83617895D02*
X152186867Y-83570275D01*
X152186867Y-83570275D02*
X152139248Y-83475037D01*
X152139248Y-83475037D02*
X152139248Y-83379799D01*
X152139248Y-83379799D02*
X152186867Y-83284561D01*
X152186867Y-83284561D02*
X152234486Y-83236942D01*
X152234486Y-83236942D02*
X152329724Y-83189323D01*
X152329724Y-83189323D02*
X152520200Y-83141704D01*
X152520200Y-83141704D02*
X152615438Y-83094085D01*
X152615438Y-83094085D02*
X152663057Y-83046466D01*
X152663057Y-83046466D02*
X152710676Y-82951228D01*
X152710676Y-82951228D02*
X152710676Y-82855990D01*
X152710676Y-82855990D02*
X152663057Y-82760752D01*
X152663057Y-82760752D02*
X152615438Y-82713133D01*
X152615438Y-82713133D02*
X152520200Y-82665514D01*
X152520200Y-82665514D02*
X152282105Y-82665514D01*
X152282105Y-82665514D02*
X152139248Y-82713133D01*
X151710676Y-83665514D02*
X151710676Y-82665514D01*
X155336074Y-42929467D02*
X156336074Y-42929467D01*
X156336074Y-42929467D02*
X156336074Y-42548515D01*
X156336074Y-42548515D02*
X156288455Y-42453277D01*
X156288455Y-42453277D02*
X156240836Y-42405658D01*
X156240836Y-42405658D02*
X156145598Y-42358039D01*
X156145598Y-42358039D02*
X156002741Y-42358039D01*
X156002741Y-42358039D02*
X155907503Y-42405658D01*
X155907503Y-42405658D02*
X155859884Y-42453277D01*
X155859884Y-42453277D02*
X155812265Y-42548515D01*
X155812265Y-42548515D02*
X155812265Y-42929467D01*
X156336074Y-42024705D02*
X155336074Y-41786610D01*
X155336074Y-41786610D02*
X156050360Y-41596134D01*
X156050360Y-41596134D02*
X155336074Y-41405658D01*
X155336074Y-41405658D02*
X156336074Y-41167563D01*
X155336074Y-40786610D02*
X156336074Y-40786610D01*
X156336074Y-40786610D02*
X155621789Y-40453277D01*
X155621789Y-40453277D02*
X156336074Y-40119944D01*
X156336074Y-40119944D02*
X155336074Y-40119944D01*
D11*
X177277368Y-60852422D02*
X177277368Y-59852422D01*
X176801178Y-60852422D02*
X176801178Y-59852422D01*
X176801178Y-59852422D02*
X176563083Y-59852422D01*
X176563083Y-59852422D02*
X176420226Y-59900041D01*
X176420226Y-59900041D02*
X176324988Y-59995279D01*
X176324988Y-59995279D02*
X176277369Y-60090517D01*
X176277369Y-60090517D02*
X176229750Y-60280993D01*
X176229750Y-60280993D02*
X176229750Y-60423850D01*
X176229750Y-60423850D02*
X176277369Y-60614326D01*
X176277369Y-60614326D02*
X176324988Y-60709564D01*
X176324988Y-60709564D02*
X176420226Y-60804803D01*
X176420226Y-60804803D02*
X176563083Y-60852422D01*
X176563083Y-60852422D02*
X176801178Y-60852422D01*
X175801178Y-60328612D02*
X175467845Y-60328612D01*
X175324988Y-60852422D02*
X175801178Y-60852422D01*
X175801178Y-60852422D02*
X175801178Y-59852422D01*
X175801178Y-59852422D02*
X175324988Y-59852422D01*
X175467845Y-59471469D02*
X175610702Y-59614326D01*
X174563083Y-60328612D02*
X174896416Y-60328612D01*
X174896416Y-60852422D02*
X174896416Y-59852422D01*
X174896416Y-59852422D02*
X174420226Y-59852422D01*
X174039273Y-60852422D02*
X174039273Y-59852422D01*
X173658321Y-59852422D02*
X172991655Y-60852422D01*
X172991655Y-59852422D02*
X173658321Y-60852422D01*
X171991654Y-59852422D02*
X171658321Y-60852422D01*
X171658321Y-60852422D02*
X171324988Y-59852422D01*
X171039273Y-59947660D02*
X170991654Y-59900041D01*
X170991654Y-59900041D02*
X170896416Y-59852422D01*
X170896416Y-59852422D02*
X170658321Y-59852422D01*
X170658321Y-59852422D02*
X170563083Y-59900041D01*
X170563083Y-59900041D02*
X170515464Y-59947660D01*
X170515464Y-59947660D02*
X170467845Y-60042898D01*
X170467845Y-60042898D02*
X170467845Y-60138136D01*
X170467845Y-60138136D02*
X170515464Y-60280993D01*
X170515464Y-60280993D02*
X171086892Y-60852422D01*
X171086892Y-60852422D02*
X170467845Y-60852422D01*
X169277368Y-60471469D02*
X168515464Y-60471469D01*
X166944035Y-60328612D02*
X166801178Y-60376231D01*
X166801178Y-60376231D02*
X166753559Y-60423850D01*
X166753559Y-60423850D02*
X166705940Y-60519088D01*
X166705940Y-60519088D02*
X166705940Y-60661945D01*
X166705940Y-60661945D02*
X166753559Y-60757183D01*
X166753559Y-60757183D02*
X166801178Y-60804803D01*
X166801178Y-60804803D02*
X166896416Y-60852422D01*
X166896416Y-60852422D02*
X167277368Y-60852422D01*
X167277368Y-60852422D02*
X167277368Y-59852422D01*
X167277368Y-59852422D02*
X166944035Y-59852422D01*
X166944035Y-59852422D02*
X166848797Y-59900041D01*
X166848797Y-59900041D02*
X166801178Y-59947660D01*
X166801178Y-59947660D02*
X166753559Y-60042898D01*
X166753559Y-60042898D02*
X166753559Y-60138136D01*
X166753559Y-60138136D02*
X166801178Y-60233374D01*
X166801178Y-60233374D02*
X166848797Y-60280993D01*
X166848797Y-60280993D02*
X166944035Y-60328612D01*
X166944035Y-60328612D02*
X167277368Y-60328612D01*
X165896416Y-60804803D02*
X165991654Y-60852422D01*
X165991654Y-60852422D02*
X166182130Y-60852422D01*
X166182130Y-60852422D02*
X166277368Y-60804803D01*
X166277368Y-60804803D02*
X166324987Y-60709564D01*
X166324987Y-60709564D02*
X166324987Y-60328612D01*
X166324987Y-60328612D02*
X166277368Y-60233374D01*
X166277368Y-60233374D02*
X166182130Y-60185755D01*
X166182130Y-60185755D02*
X165991654Y-60185755D01*
X165991654Y-60185755D02*
X165896416Y-60233374D01*
X165896416Y-60233374D02*
X165848797Y-60328612D01*
X165848797Y-60328612D02*
X165848797Y-60423850D01*
X165848797Y-60423850D02*
X166324987Y-60519088D01*
X164991654Y-60852422D02*
X164991654Y-60328612D01*
X164991654Y-60328612D02*
X165039273Y-60233374D01*
X165039273Y-60233374D02*
X165134511Y-60185755D01*
X165134511Y-60185755D02*
X165324987Y-60185755D01*
X165324987Y-60185755D02*
X165420225Y-60233374D01*
X164991654Y-60804803D02*
X165086892Y-60852422D01*
X165086892Y-60852422D02*
X165324987Y-60852422D01*
X165324987Y-60852422D02*
X165420225Y-60804803D01*
X165420225Y-60804803D02*
X165467844Y-60709564D01*
X165467844Y-60709564D02*
X165467844Y-60614326D01*
X165467844Y-60614326D02*
X165420225Y-60519088D01*
X165420225Y-60519088D02*
X165324987Y-60471469D01*
X165324987Y-60471469D02*
X165086892Y-60471469D01*
X165086892Y-60471469D02*
X164991654Y-60423850D01*
X164086892Y-60804803D02*
X164182130Y-60852422D01*
X164182130Y-60852422D02*
X164372606Y-60852422D01*
X164372606Y-60852422D02*
X164467844Y-60804803D01*
X164467844Y-60804803D02*
X164515463Y-60757183D01*
X164515463Y-60757183D02*
X164563082Y-60661945D01*
X164563082Y-60661945D02*
X164563082Y-60376231D01*
X164563082Y-60376231D02*
X164515463Y-60280993D01*
X164515463Y-60280993D02*
X164467844Y-60233374D01*
X164467844Y-60233374D02*
X164372606Y-60185755D01*
X164372606Y-60185755D02*
X164182130Y-60185755D01*
X164182130Y-60185755D02*
X164086892Y-60233374D01*
X163515463Y-60852422D02*
X163610701Y-60804803D01*
X163610701Y-60804803D02*
X163658320Y-60757183D01*
X163658320Y-60757183D02*
X163705939Y-60661945D01*
X163705939Y-60661945D02*
X163705939Y-60376231D01*
X163705939Y-60376231D02*
X163658320Y-60280993D01*
X163658320Y-60280993D02*
X163610701Y-60233374D01*
X163610701Y-60233374D02*
X163515463Y-60185755D01*
X163515463Y-60185755D02*
X163372606Y-60185755D01*
X163372606Y-60185755D02*
X163277368Y-60233374D01*
X163277368Y-60233374D02*
X163229749Y-60280993D01*
X163229749Y-60280993D02*
X163182130Y-60376231D01*
X163182130Y-60376231D02*
X163182130Y-60661945D01*
X163182130Y-60661945D02*
X163229749Y-60757183D01*
X163229749Y-60757183D02*
X163277368Y-60804803D01*
X163277368Y-60804803D02*
X163372606Y-60852422D01*
X163372606Y-60852422D02*
X163515463Y-60852422D01*
X162753558Y-60185755D02*
X162753558Y-60852422D01*
X162753558Y-60280993D02*
X162705939Y-60233374D01*
X162705939Y-60233374D02*
X162610701Y-60185755D01*
X162610701Y-60185755D02*
X162467844Y-60185755D01*
X162467844Y-60185755D02*
X162372606Y-60233374D01*
X162372606Y-60233374D02*
X162324987Y-60328612D01*
X162324987Y-60328612D02*
X162324987Y-60852422D01*
X161134511Y-59804803D02*
X161991653Y-61090517D01*
X160229749Y-60852422D02*
X160563082Y-60376231D01*
X160801177Y-60852422D02*
X160801177Y-59852422D01*
X160801177Y-59852422D02*
X160420225Y-59852422D01*
X160420225Y-59852422D02*
X160324987Y-59900041D01*
X160324987Y-59900041D02*
X160277368Y-59947660D01*
X160277368Y-59947660D02*
X160229749Y-60042898D01*
X160229749Y-60042898D02*
X160229749Y-60185755D01*
X160229749Y-60185755D02*
X160277368Y-60280993D01*
X160277368Y-60280993D02*
X160324987Y-60328612D01*
X160324987Y-60328612D02*
X160420225Y-60376231D01*
X160420225Y-60376231D02*
X160801177Y-60376231D01*
X159420225Y-60804803D02*
X159515463Y-60852422D01*
X159515463Y-60852422D02*
X159705939Y-60852422D01*
X159705939Y-60852422D02*
X159801177Y-60804803D01*
X159801177Y-60804803D02*
X159848796Y-60709564D01*
X159848796Y-60709564D02*
X159848796Y-60328612D01*
X159848796Y-60328612D02*
X159801177Y-60233374D01*
X159801177Y-60233374D02*
X159705939Y-60185755D01*
X159705939Y-60185755D02*
X159515463Y-60185755D01*
X159515463Y-60185755D02*
X159420225Y-60233374D01*
X159420225Y-60233374D02*
X159372606Y-60328612D01*
X159372606Y-60328612D02*
X159372606Y-60423850D01*
X159372606Y-60423850D02*
X159848796Y-60519088D01*
X158515463Y-60804803D02*
X158610701Y-60852422D01*
X158610701Y-60852422D02*
X158801177Y-60852422D01*
X158801177Y-60852422D02*
X158896415Y-60804803D01*
X158896415Y-60804803D02*
X158944034Y-60757183D01*
X158944034Y-60757183D02*
X158991653Y-60661945D01*
X158991653Y-60661945D02*
X158991653Y-60376231D01*
X158991653Y-60376231D02*
X158944034Y-60280993D01*
X158944034Y-60280993D02*
X158896415Y-60233374D01*
X158896415Y-60233374D02*
X158801177Y-60185755D01*
X158801177Y-60185755D02*
X158610701Y-60185755D01*
X158610701Y-60185755D02*
X158515463Y-60233374D01*
X157705939Y-60804803D02*
X157801177Y-60852422D01*
X157801177Y-60852422D02*
X157991653Y-60852422D01*
X157991653Y-60852422D02*
X158086891Y-60804803D01*
X158086891Y-60804803D02*
X158134510Y-60709564D01*
X158134510Y-60709564D02*
X158134510Y-60328612D01*
X158134510Y-60328612D02*
X158086891Y-60233374D01*
X158086891Y-60233374D02*
X157991653Y-60185755D01*
X157991653Y-60185755D02*
X157801177Y-60185755D01*
X157801177Y-60185755D02*
X157705939Y-60233374D01*
X157705939Y-60233374D02*
X157658320Y-60328612D01*
X157658320Y-60328612D02*
X157658320Y-60423850D01*
X157658320Y-60423850D02*
X158134510Y-60519088D01*
X157229748Y-60852422D02*
X157229748Y-60185755D01*
X157229748Y-59852422D02*
X157277367Y-59900041D01*
X157277367Y-59900041D02*
X157229748Y-59947660D01*
X157229748Y-59947660D02*
X157182129Y-59900041D01*
X157182129Y-59900041D02*
X157229748Y-59852422D01*
X157229748Y-59852422D02*
X157229748Y-59947660D01*
X156848796Y-60185755D02*
X156610701Y-60852422D01*
X156610701Y-60852422D02*
X156372606Y-60185755D01*
X155610701Y-60804803D02*
X155705939Y-60852422D01*
X155705939Y-60852422D02*
X155896415Y-60852422D01*
X155896415Y-60852422D02*
X155991653Y-60804803D01*
X155991653Y-60804803D02*
X156039272Y-60709564D01*
X156039272Y-60709564D02*
X156039272Y-60328612D01*
X156039272Y-60328612D02*
X155991653Y-60233374D01*
X155991653Y-60233374D02*
X155896415Y-60185755D01*
X155896415Y-60185755D02*
X155705939Y-60185755D01*
X155705939Y-60185755D02*
X155610701Y-60233374D01*
X155610701Y-60233374D02*
X155563082Y-60328612D01*
X155563082Y-60328612D02*
X155563082Y-60423850D01*
X155563082Y-60423850D02*
X156039272Y-60519088D01*
X155134510Y-60852422D02*
X155134510Y-60185755D01*
X155134510Y-60376231D02*
X155086891Y-60280993D01*
X155086891Y-60280993D02*
X155039272Y-60233374D01*
X155039272Y-60233374D02*
X154944034Y-60185755D01*
X154944034Y-60185755D02*
X154848796Y-60185755D01*
X177277368Y-61938556D02*
X176944035Y-61938556D01*
X176801178Y-62462366D02*
X177277368Y-62462366D01*
X177277368Y-62462366D02*
X177277368Y-61462366D01*
X177277368Y-61462366D02*
X176801178Y-61462366D01*
X176420225Y-61557604D02*
X176372606Y-61509985D01*
X176372606Y-61509985D02*
X176277368Y-61462366D01*
X176277368Y-61462366D02*
X176039273Y-61462366D01*
X176039273Y-61462366D02*
X175944035Y-61509985D01*
X175944035Y-61509985D02*
X175896416Y-61557604D01*
X175896416Y-61557604D02*
X175848797Y-61652842D01*
X175848797Y-61652842D02*
X175848797Y-61748080D01*
X175848797Y-61748080D02*
X175896416Y-61890937D01*
X175896416Y-61890937D02*
X176467844Y-62462366D01*
X176467844Y-62462366D02*
X175848797Y-62462366D01*
X175229749Y-61462366D02*
X175134511Y-61462366D01*
X175134511Y-61462366D02*
X175039273Y-61509985D01*
X175039273Y-61509985D02*
X174991654Y-61557604D01*
X174991654Y-61557604D02*
X174944035Y-61652842D01*
X174944035Y-61652842D02*
X174896416Y-61843318D01*
X174896416Y-61843318D02*
X174896416Y-62081413D01*
X174896416Y-62081413D02*
X174944035Y-62271889D01*
X174944035Y-62271889D02*
X174991654Y-62367127D01*
X174991654Y-62367127D02*
X175039273Y-62414747D01*
X175039273Y-62414747D02*
X175134511Y-62462366D01*
X175134511Y-62462366D02*
X175229749Y-62462366D01*
X175229749Y-62462366D02*
X175324987Y-62414747D01*
X175324987Y-62414747D02*
X175372606Y-62367127D01*
X175372606Y-62367127D02*
X175420225Y-62271889D01*
X175420225Y-62271889D02*
X175467844Y-62081413D01*
X175467844Y-62081413D02*
X175467844Y-61843318D01*
X175467844Y-61843318D02*
X175420225Y-61652842D01*
X175420225Y-61652842D02*
X175372606Y-61557604D01*
X175372606Y-61557604D02*
X175324987Y-61509985D01*
X175324987Y-61509985D02*
X175229749Y-61462366D01*
X174515463Y-61557604D02*
X174467844Y-61509985D01*
X174467844Y-61509985D02*
X174372606Y-61462366D01*
X174372606Y-61462366D02*
X174134511Y-61462366D01*
X174134511Y-61462366D02*
X174039273Y-61509985D01*
X174039273Y-61509985D02*
X173991654Y-61557604D01*
X173991654Y-61557604D02*
X173944035Y-61652842D01*
X173944035Y-61652842D02*
X173944035Y-61748080D01*
X173944035Y-61748080D02*
X173991654Y-61890937D01*
X173991654Y-61890937D02*
X174563082Y-62462366D01*
X174563082Y-62462366D02*
X173944035Y-62462366D01*
X173039273Y-61462366D02*
X173515463Y-61462366D01*
X173515463Y-61462366D02*
X173563082Y-61938556D01*
X173563082Y-61938556D02*
X173515463Y-61890937D01*
X173515463Y-61890937D02*
X173420225Y-61843318D01*
X173420225Y-61843318D02*
X173182130Y-61843318D01*
X173182130Y-61843318D02*
X173086892Y-61890937D01*
X173086892Y-61890937D02*
X173039273Y-61938556D01*
X173039273Y-61938556D02*
X172991654Y-62033794D01*
X172991654Y-62033794D02*
X172991654Y-62271889D01*
X172991654Y-62271889D02*
X173039273Y-62367127D01*
X173039273Y-62367127D02*
X173086892Y-62414747D01*
X173086892Y-62414747D02*
X173182130Y-62462366D01*
X173182130Y-62462366D02*
X173420225Y-62462366D01*
X173420225Y-62462366D02*
X173515463Y-62414747D01*
X173515463Y-62414747D02*
X173563082Y-62367127D01*
X177420225Y-63072310D02*
X177086892Y-64072310D01*
X177086892Y-64072310D02*
X176753559Y-63072310D01*
X176420225Y-64072310D02*
X176420225Y-63405643D01*
X176420225Y-63072310D02*
X176467844Y-63119929D01*
X176467844Y-63119929D02*
X176420225Y-63167548D01*
X176420225Y-63167548D02*
X176372606Y-63119929D01*
X176372606Y-63119929D02*
X176420225Y-63072310D01*
X176420225Y-63072310D02*
X176420225Y-63167548D01*
X175515464Y-64024691D02*
X175610702Y-64072310D01*
X175610702Y-64072310D02*
X175801178Y-64072310D01*
X175801178Y-64072310D02*
X175896416Y-64024691D01*
X175896416Y-64024691D02*
X175944035Y-63977071D01*
X175944035Y-63977071D02*
X175991654Y-63881833D01*
X175991654Y-63881833D02*
X175991654Y-63596119D01*
X175991654Y-63596119D02*
X175944035Y-63500881D01*
X175944035Y-63500881D02*
X175896416Y-63453262D01*
X175896416Y-63453262D02*
X175801178Y-63405643D01*
X175801178Y-63405643D02*
X175610702Y-63405643D01*
X175610702Y-63405643D02*
X175515464Y-63453262D01*
X175229749Y-63405643D02*
X174848797Y-63405643D01*
X175086892Y-63072310D02*
X175086892Y-63929452D01*
X175086892Y-63929452D02*
X175039273Y-64024691D01*
X175039273Y-64024691D02*
X174944035Y-64072310D01*
X174944035Y-64072310D02*
X174848797Y-64072310D01*
X174372606Y-64072310D02*
X174467844Y-64024691D01*
X174467844Y-64024691D02*
X174515463Y-63977071D01*
X174515463Y-63977071D02*
X174563082Y-63881833D01*
X174563082Y-63881833D02*
X174563082Y-63596119D01*
X174563082Y-63596119D02*
X174515463Y-63500881D01*
X174515463Y-63500881D02*
X174467844Y-63453262D01*
X174467844Y-63453262D02*
X174372606Y-63405643D01*
X174372606Y-63405643D02*
X174229749Y-63405643D01*
X174229749Y-63405643D02*
X174134511Y-63453262D01*
X174134511Y-63453262D02*
X174086892Y-63500881D01*
X174086892Y-63500881D02*
X174039273Y-63596119D01*
X174039273Y-63596119D02*
X174039273Y-63881833D01*
X174039273Y-63881833D02*
X174086892Y-63977071D01*
X174086892Y-63977071D02*
X174134511Y-64024691D01*
X174134511Y-64024691D02*
X174229749Y-64072310D01*
X174229749Y-64072310D02*
X174372606Y-64072310D01*
X173610701Y-64072310D02*
X173610701Y-63405643D01*
X173610701Y-63596119D02*
X173563082Y-63500881D01*
X173563082Y-63500881D02*
X173515463Y-63453262D01*
X173515463Y-63453262D02*
X173420225Y-63405643D01*
X173420225Y-63405643D02*
X173324987Y-63405643D01*
X172229748Y-64072310D02*
X172229748Y-63072310D01*
X172229748Y-63072310D02*
X171991653Y-63072310D01*
X171991653Y-63072310D02*
X171848796Y-63119929D01*
X171848796Y-63119929D02*
X171753558Y-63215167D01*
X171753558Y-63215167D02*
X171705939Y-63310405D01*
X171705939Y-63310405D02*
X171658320Y-63500881D01*
X171658320Y-63500881D02*
X171658320Y-63643738D01*
X171658320Y-63643738D02*
X171705939Y-63834214D01*
X171705939Y-63834214D02*
X171753558Y-63929452D01*
X171753558Y-63929452D02*
X171848796Y-64024691D01*
X171848796Y-64024691D02*
X171991653Y-64072310D01*
X171991653Y-64072310D02*
X172229748Y-64072310D01*
X170848796Y-64024691D02*
X170944034Y-64072310D01*
X170944034Y-64072310D02*
X171134510Y-64072310D01*
X171134510Y-64072310D02*
X171229748Y-64024691D01*
X171229748Y-64024691D02*
X171277367Y-63929452D01*
X171277367Y-63929452D02*
X171277367Y-63548500D01*
X171277367Y-63548500D02*
X171229748Y-63453262D01*
X171229748Y-63453262D02*
X171134510Y-63405643D01*
X171134510Y-63405643D02*
X170944034Y-63405643D01*
X170944034Y-63405643D02*
X170848796Y-63453262D01*
X170848796Y-63453262D02*
X170801177Y-63548500D01*
X170801177Y-63548500D02*
X170801177Y-63643738D01*
X170801177Y-63643738D02*
X171277367Y-63738976D01*
X170420224Y-64024691D02*
X170324986Y-64072310D01*
X170324986Y-64072310D02*
X170134510Y-64072310D01*
X170134510Y-64072310D02*
X170039272Y-64024691D01*
X170039272Y-64024691D02*
X169991653Y-63929452D01*
X169991653Y-63929452D02*
X169991653Y-63881833D01*
X169991653Y-63881833D02*
X170039272Y-63786595D01*
X170039272Y-63786595D02*
X170134510Y-63738976D01*
X170134510Y-63738976D02*
X170277367Y-63738976D01*
X170277367Y-63738976D02*
X170372605Y-63691357D01*
X170372605Y-63691357D02*
X170420224Y-63596119D01*
X170420224Y-63596119D02*
X170420224Y-63548500D01*
X170420224Y-63548500D02*
X170372605Y-63453262D01*
X170372605Y-63453262D02*
X170277367Y-63405643D01*
X170277367Y-63405643D02*
X170134510Y-63405643D01*
X170134510Y-63405643D02*
X170039272Y-63453262D01*
X169134510Y-64024691D02*
X169229748Y-64072310D01*
X169229748Y-64072310D02*
X169420224Y-64072310D01*
X169420224Y-64072310D02*
X169515462Y-64024691D01*
X169515462Y-64024691D02*
X169563081Y-63977071D01*
X169563081Y-63977071D02*
X169610700Y-63881833D01*
X169610700Y-63881833D02*
X169610700Y-63596119D01*
X169610700Y-63596119D02*
X169563081Y-63500881D01*
X169563081Y-63500881D02*
X169515462Y-63453262D01*
X169515462Y-63453262D02*
X169420224Y-63405643D01*
X169420224Y-63405643D02*
X169229748Y-63405643D01*
X169229748Y-63405643D02*
X169134510Y-63453262D01*
X168705938Y-64072310D02*
X168705938Y-63072310D01*
X168277367Y-64072310D02*
X168277367Y-63548500D01*
X168277367Y-63548500D02*
X168324986Y-63453262D01*
X168324986Y-63453262D02*
X168420224Y-63405643D01*
X168420224Y-63405643D02*
X168563081Y-63405643D01*
X168563081Y-63405643D02*
X168658319Y-63453262D01*
X168658319Y-63453262D02*
X168705938Y-63500881D01*
X167420224Y-64024691D02*
X167515462Y-64072310D01*
X167515462Y-64072310D02*
X167705938Y-64072310D01*
X167705938Y-64072310D02*
X167801176Y-64024691D01*
X167801176Y-64024691D02*
X167848795Y-63929452D01*
X167848795Y-63929452D02*
X167848795Y-63548500D01*
X167848795Y-63548500D02*
X167801176Y-63453262D01*
X167801176Y-63453262D02*
X167705938Y-63405643D01*
X167705938Y-63405643D02*
X167515462Y-63405643D01*
X167515462Y-63405643D02*
X167420224Y-63453262D01*
X167420224Y-63453262D02*
X167372605Y-63548500D01*
X167372605Y-63548500D02*
X167372605Y-63643738D01*
X167372605Y-63643738D02*
X167848795Y-63738976D01*
X167801176Y-63167548D02*
X167610700Y-63024691D01*
X167610700Y-63024691D02*
X167420224Y-63167548D01*
X166944033Y-63405643D02*
X166944033Y-64072310D01*
X166944033Y-63500881D02*
X166896414Y-63453262D01*
X166896414Y-63453262D02*
X166801176Y-63405643D01*
X166801176Y-63405643D02*
X166658319Y-63405643D01*
X166658319Y-63405643D02*
X166563081Y-63453262D01*
X166563081Y-63453262D02*
X166515462Y-63548500D01*
X166515462Y-63548500D02*
X166515462Y-64072310D01*
X165658319Y-64024691D02*
X165753557Y-64072310D01*
X165753557Y-64072310D02*
X165944033Y-64072310D01*
X165944033Y-64072310D02*
X166039271Y-64024691D01*
X166039271Y-64024691D02*
X166086890Y-63929452D01*
X166086890Y-63929452D02*
X166086890Y-63548500D01*
X166086890Y-63548500D02*
X166039271Y-63453262D01*
X166039271Y-63453262D02*
X165944033Y-63405643D01*
X165944033Y-63405643D02*
X165753557Y-63405643D01*
X165753557Y-63405643D02*
X165658319Y-63453262D01*
X165658319Y-63453262D02*
X165610700Y-63548500D01*
X165610700Y-63548500D02*
X165610700Y-63643738D01*
X165610700Y-63643738D02*
X166086890Y-63738976D01*
X165229747Y-64024691D02*
X165134509Y-64072310D01*
X165134509Y-64072310D02*
X164944033Y-64072310D01*
X164944033Y-64072310D02*
X164848795Y-64024691D01*
X164848795Y-64024691D02*
X164801176Y-63929452D01*
X164801176Y-63929452D02*
X164801176Y-63881833D01*
X164801176Y-63881833D02*
X164848795Y-63786595D01*
X164848795Y-63786595D02*
X164944033Y-63738976D01*
X164944033Y-63738976D02*
X165086890Y-63738976D01*
X165086890Y-63738976D02*
X165182128Y-63691357D01*
X165182128Y-63691357D02*
X165229747Y-63596119D01*
X165229747Y-63596119D02*
X165229747Y-63548500D01*
X165229747Y-63548500D02*
X165182128Y-63453262D01*
X165182128Y-63453262D02*
X165086890Y-63405643D01*
X165086890Y-63405643D02*
X164944033Y-63405643D01*
X164944033Y-63405643D02*
X164848795Y-63453262D01*
X176705940Y-65587015D02*
X176753559Y-65634635D01*
X176753559Y-65634635D02*
X176896416Y-65682254D01*
X176896416Y-65682254D02*
X176991654Y-65682254D01*
X176991654Y-65682254D02*
X177134511Y-65634635D01*
X177134511Y-65634635D02*
X177229749Y-65539396D01*
X177229749Y-65539396D02*
X177277368Y-65444158D01*
X177277368Y-65444158D02*
X177324987Y-65253682D01*
X177324987Y-65253682D02*
X177324987Y-65110825D01*
X177324987Y-65110825D02*
X177277368Y-64920349D01*
X177277368Y-64920349D02*
X177229749Y-64825111D01*
X177229749Y-64825111D02*
X177134511Y-64729873D01*
X177134511Y-64729873D02*
X176991654Y-64682254D01*
X176991654Y-64682254D02*
X176896416Y-64682254D01*
X176896416Y-64682254D02*
X176753559Y-64729873D01*
X176753559Y-64729873D02*
X176705940Y-64777492D01*
X176277368Y-65682254D02*
X176277368Y-64682254D01*
X175848797Y-65682254D02*
X175848797Y-65158444D01*
X175848797Y-65158444D02*
X175896416Y-65063206D01*
X175896416Y-65063206D02*
X175991654Y-65015587D01*
X175991654Y-65015587D02*
X176134511Y-65015587D01*
X176134511Y-65015587D02*
X176229749Y-65063206D01*
X176229749Y-65063206D02*
X176277368Y-65110825D01*
X175372606Y-65682254D02*
X175372606Y-65015587D01*
X175372606Y-65206063D02*
X175324987Y-65110825D01*
X175324987Y-65110825D02*
X175277368Y-65063206D01*
X175277368Y-65063206D02*
X175182130Y-65015587D01*
X175182130Y-65015587D02*
X175086892Y-65015587D01*
X174753558Y-65682254D02*
X174753558Y-65015587D01*
X174753558Y-64682254D02*
X174801177Y-64729873D01*
X174801177Y-64729873D02*
X174753558Y-64777492D01*
X174753558Y-64777492D02*
X174705939Y-64729873D01*
X174705939Y-64729873D02*
X174753558Y-64682254D01*
X174753558Y-64682254D02*
X174753558Y-64777492D01*
X174324987Y-65634635D02*
X174229749Y-65682254D01*
X174229749Y-65682254D02*
X174039273Y-65682254D01*
X174039273Y-65682254D02*
X173944035Y-65634635D01*
X173944035Y-65634635D02*
X173896416Y-65539396D01*
X173896416Y-65539396D02*
X173896416Y-65491777D01*
X173896416Y-65491777D02*
X173944035Y-65396539D01*
X173944035Y-65396539D02*
X174039273Y-65348920D01*
X174039273Y-65348920D02*
X174182130Y-65348920D01*
X174182130Y-65348920D02*
X174277368Y-65301301D01*
X174277368Y-65301301D02*
X174324987Y-65206063D01*
X174324987Y-65206063D02*
X174324987Y-65158444D01*
X174324987Y-65158444D02*
X174277368Y-65063206D01*
X174277368Y-65063206D02*
X174182130Y-65015587D01*
X174182130Y-65015587D02*
X174039273Y-65015587D01*
X174039273Y-65015587D02*
X173944035Y-65063206D01*
X173610701Y-65015587D02*
X173229749Y-65015587D01*
X173467844Y-64682254D02*
X173467844Y-65539396D01*
X173467844Y-65539396D02*
X173420225Y-65634635D01*
X173420225Y-65634635D02*
X173324987Y-65682254D01*
X173324987Y-65682254D02*
X173229749Y-65682254D01*
X172753558Y-65682254D02*
X172848796Y-65634635D01*
X172848796Y-65634635D02*
X172896415Y-65587015D01*
X172896415Y-65587015D02*
X172944034Y-65491777D01*
X172944034Y-65491777D02*
X172944034Y-65206063D01*
X172944034Y-65206063D02*
X172896415Y-65110825D01*
X172896415Y-65110825D02*
X172848796Y-65063206D01*
X172848796Y-65063206D02*
X172753558Y-65015587D01*
X172753558Y-65015587D02*
X172610701Y-65015587D01*
X172610701Y-65015587D02*
X172515463Y-65063206D01*
X172515463Y-65063206D02*
X172467844Y-65110825D01*
X172467844Y-65110825D02*
X172420225Y-65206063D01*
X172420225Y-65206063D02*
X172420225Y-65491777D01*
X172420225Y-65491777D02*
X172467844Y-65587015D01*
X172467844Y-65587015D02*
X172515463Y-65634635D01*
X172515463Y-65634635D02*
X172610701Y-65682254D01*
X172610701Y-65682254D02*
X172753558Y-65682254D01*
X171991653Y-65015587D02*
X171991653Y-66015587D01*
X171991653Y-65063206D02*
X171896415Y-65015587D01*
X171896415Y-65015587D02*
X171705939Y-65015587D01*
X171705939Y-65015587D02*
X171610701Y-65063206D01*
X171610701Y-65063206D02*
X171563082Y-65110825D01*
X171563082Y-65110825D02*
X171515463Y-65206063D01*
X171515463Y-65206063D02*
X171515463Y-65491777D01*
X171515463Y-65491777D02*
X171563082Y-65587015D01*
X171563082Y-65587015D02*
X171610701Y-65634635D01*
X171610701Y-65634635D02*
X171705939Y-65682254D01*
X171705939Y-65682254D02*
X171896415Y-65682254D01*
X171896415Y-65682254D02*
X171991653Y-65634635D01*
X171086891Y-65682254D02*
X171086891Y-64682254D01*
X170658320Y-65682254D02*
X170658320Y-65158444D01*
X170658320Y-65158444D02*
X170705939Y-65063206D01*
X170705939Y-65063206D02*
X170801177Y-65015587D01*
X170801177Y-65015587D02*
X170944034Y-65015587D01*
X170944034Y-65015587D02*
X171039272Y-65063206D01*
X171039272Y-65063206D02*
X171086891Y-65110825D01*
X169801177Y-65634635D02*
X169896415Y-65682254D01*
X169896415Y-65682254D02*
X170086891Y-65682254D01*
X170086891Y-65682254D02*
X170182129Y-65634635D01*
X170182129Y-65634635D02*
X170229748Y-65539396D01*
X170229748Y-65539396D02*
X170229748Y-65158444D01*
X170229748Y-65158444D02*
X170182129Y-65063206D01*
X170182129Y-65063206D02*
X170086891Y-65015587D01*
X170086891Y-65015587D02*
X169896415Y-65015587D01*
X169896415Y-65015587D02*
X169801177Y-65063206D01*
X169801177Y-65063206D02*
X169753558Y-65158444D01*
X169753558Y-65158444D02*
X169753558Y-65253682D01*
X169753558Y-65253682D02*
X170229748Y-65348920D01*
X169324986Y-65682254D02*
X169324986Y-65015587D01*
X169324986Y-65206063D02*
X169277367Y-65110825D01*
X169277367Y-65110825D02*
X169229748Y-65063206D01*
X169229748Y-65063206D02*
X169134510Y-65015587D01*
X169134510Y-65015587D02*
X169039272Y-65015587D01*
X167991652Y-65634635D02*
X167848795Y-65682254D01*
X167848795Y-65682254D02*
X167610700Y-65682254D01*
X167610700Y-65682254D02*
X167515462Y-65634635D01*
X167515462Y-65634635D02*
X167467843Y-65587015D01*
X167467843Y-65587015D02*
X167420224Y-65491777D01*
X167420224Y-65491777D02*
X167420224Y-65396539D01*
X167420224Y-65396539D02*
X167467843Y-65301301D01*
X167467843Y-65301301D02*
X167515462Y-65253682D01*
X167515462Y-65253682D02*
X167610700Y-65206063D01*
X167610700Y-65206063D02*
X167801176Y-65158444D01*
X167801176Y-65158444D02*
X167896414Y-65110825D01*
X167896414Y-65110825D02*
X167944033Y-65063206D01*
X167944033Y-65063206D02*
X167991652Y-64967968D01*
X167991652Y-64967968D02*
X167991652Y-64872730D01*
X167991652Y-64872730D02*
X167944033Y-64777492D01*
X167944033Y-64777492D02*
X167896414Y-64729873D01*
X167896414Y-64729873D02*
X167801176Y-64682254D01*
X167801176Y-64682254D02*
X167563081Y-64682254D01*
X167563081Y-64682254D02*
X167420224Y-64729873D01*
X166991652Y-65682254D02*
X166991652Y-65015587D01*
X166991652Y-65110825D02*
X166944033Y-65063206D01*
X166944033Y-65063206D02*
X166848795Y-65015587D01*
X166848795Y-65015587D02*
X166705938Y-65015587D01*
X166705938Y-65015587D02*
X166610700Y-65063206D01*
X166610700Y-65063206D02*
X166563081Y-65158444D01*
X166563081Y-65158444D02*
X166563081Y-65682254D01*
X166563081Y-65158444D02*
X166515462Y-65063206D01*
X166515462Y-65063206D02*
X166420224Y-65015587D01*
X166420224Y-65015587D02*
X166277367Y-65015587D01*
X166277367Y-65015587D02*
X166182128Y-65063206D01*
X166182128Y-65063206D02*
X166134509Y-65158444D01*
X166134509Y-65158444D02*
X166134509Y-65682254D01*
X165658319Y-65682254D02*
X165658319Y-65015587D01*
X165658319Y-64682254D02*
X165705938Y-64729873D01*
X165705938Y-64729873D02*
X165658319Y-64777492D01*
X165658319Y-64777492D02*
X165610700Y-64729873D01*
X165610700Y-64729873D02*
X165658319Y-64682254D01*
X165658319Y-64682254D02*
X165658319Y-64777492D01*
X165324986Y-65015587D02*
X164944034Y-65015587D01*
X165182129Y-64682254D02*
X165182129Y-65539396D01*
X165182129Y-65539396D02*
X165134510Y-65634635D01*
X165134510Y-65634635D02*
X165039272Y-65682254D01*
X165039272Y-65682254D02*
X164944034Y-65682254D01*
X164610700Y-65682254D02*
X164610700Y-64682254D01*
X164182129Y-65682254D02*
X164182129Y-65158444D01*
X164182129Y-65158444D02*
X164229748Y-65063206D01*
X164229748Y-65063206D02*
X164324986Y-65015587D01*
X164324986Y-65015587D02*
X164467843Y-65015587D01*
X164467843Y-65015587D02*
X164563081Y-65063206D01*
X164563081Y-65063206D02*
X164610700Y-65110825D01*
D10*
X157890970Y-42977086D02*
X157843350Y-42834229D01*
X157843350Y-42834229D02*
X157843350Y-42596134D01*
X157843350Y-42596134D02*
X157890970Y-42500896D01*
X157890970Y-42500896D02*
X157938589Y-42453277D01*
X157938589Y-42453277D02*
X158033827Y-42405658D01*
X158033827Y-42405658D02*
X158129065Y-42405658D01*
X158129065Y-42405658D02*
X158224303Y-42453277D01*
X158224303Y-42453277D02*
X158271922Y-42500896D01*
X158271922Y-42500896D02*
X158319541Y-42596134D01*
X158319541Y-42596134D02*
X158367160Y-42786610D01*
X158367160Y-42786610D02*
X158414779Y-42881848D01*
X158414779Y-42881848D02*
X158462398Y-42929467D01*
X158462398Y-42929467D02*
X158557636Y-42977086D01*
X158557636Y-42977086D02*
X158652874Y-42977086D01*
X158652874Y-42977086D02*
X158748112Y-42929467D01*
X158748112Y-42929467D02*
X158795731Y-42881848D01*
X158795731Y-42881848D02*
X158843350Y-42786610D01*
X158843350Y-42786610D02*
X158843350Y-42548515D01*
X158843350Y-42548515D02*
X158795731Y-42405658D01*
X157938589Y-41405658D02*
X157890970Y-41453277D01*
X157890970Y-41453277D02*
X157843350Y-41596134D01*
X157843350Y-41596134D02*
X157843350Y-41691372D01*
X157843350Y-41691372D02*
X157890970Y-41834229D01*
X157890970Y-41834229D02*
X157986208Y-41929467D01*
X157986208Y-41929467D02*
X158081446Y-41977086D01*
X158081446Y-41977086D02*
X158271922Y-42024705D01*
X158271922Y-42024705D02*
X158414779Y-42024705D01*
X158414779Y-42024705D02*
X158605255Y-41977086D01*
X158605255Y-41977086D02*
X158700493Y-41929467D01*
X158700493Y-41929467D02*
X158795731Y-41834229D01*
X158795731Y-41834229D02*
X158843350Y-41691372D01*
X158843350Y-41691372D02*
X158843350Y-41596134D01*
X158843350Y-41596134D02*
X158795731Y-41453277D01*
X158795731Y-41453277D02*
X158748112Y-41405658D01*
X157843350Y-40500896D02*
X157843350Y-40977086D01*
X157843350Y-40977086D02*
X158843350Y-40977086D01*
X162857902Y-42929467D02*
X163857902Y-42929467D01*
X163857902Y-42262801D02*
X163857902Y-42072325D01*
X163857902Y-42072325D02*
X163810283Y-41977087D01*
X163810283Y-41977087D02*
X163715045Y-41881849D01*
X163715045Y-41881849D02*
X163524569Y-41834230D01*
X163524569Y-41834230D02*
X163191236Y-41834230D01*
X163191236Y-41834230D02*
X163000760Y-41881849D01*
X163000760Y-41881849D02*
X162905522Y-41977087D01*
X162905522Y-41977087D02*
X162857902Y-42072325D01*
X162857902Y-42072325D02*
X162857902Y-42262801D01*
X162857902Y-42262801D02*
X162905522Y-42358039D01*
X162905522Y-42358039D02*
X163000760Y-42453277D01*
X163000760Y-42453277D02*
X163191236Y-42500896D01*
X163191236Y-42500896D02*
X163524569Y-42500896D01*
X163524569Y-42500896D02*
X163715045Y-42453277D01*
X163715045Y-42453277D02*
X163810283Y-42358039D01*
X163810283Y-42358039D02*
X163857902Y-42262801D01*
X163524569Y-40977087D02*
X162857902Y-40977087D01*
X163905522Y-41215182D02*
X163191236Y-41453277D01*
X163191236Y-41453277D02*
X163191236Y-40834230D01*
X159096988Y-42929467D02*
X160096988Y-42929467D01*
X160096988Y-42262801D02*
X160096988Y-42072325D01*
X160096988Y-42072325D02*
X160049369Y-41977087D01*
X160049369Y-41977087D02*
X159954131Y-41881849D01*
X159954131Y-41881849D02*
X159763655Y-41834230D01*
X159763655Y-41834230D02*
X159430322Y-41834230D01*
X159430322Y-41834230D02*
X159239846Y-41881849D01*
X159239846Y-41881849D02*
X159144608Y-41977087D01*
X159144608Y-41977087D02*
X159096988Y-42072325D01*
X159096988Y-42072325D02*
X159096988Y-42262801D01*
X159096988Y-42262801D02*
X159144608Y-42358039D01*
X159144608Y-42358039D02*
X159239846Y-42453277D01*
X159239846Y-42453277D02*
X159430322Y-42500896D01*
X159430322Y-42500896D02*
X159763655Y-42500896D01*
X159763655Y-42500896D02*
X159954131Y-42453277D01*
X159954131Y-42453277D02*
X160049369Y-42358039D01*
X160049369Y-42358039D02*
X160096988Y-42262801D01*
X159096988Y-40881849D02*
X159096988Y-41453277D01*
X159096988Y-41167563D02*
X160096988Y-41167563D01*
X160096988Y-41167563D02*
X159954131Y-41262801D01*
X159954131Y-41262801D02*
X159858893Y-41358039D01*
X159858893Y-41358039D02*
X159811274Y-41453277D01*
X161604264Y-42929467D02*
X162604264Y-42929467D01*
X162604264Y-42262801D02*
X162604264Y-42072325D01*
X162604264Y-42072325D02*
X162556645Y-41977087D01*
X162556645Y-41977087D02*
X162461407Y-41881849D01*
X162461407Y-41881849D02*
X162270931Y-41834230D01*
X162270931Y-41834230D02*
X161937598Y-41834230D01*
X161937598Y-41834230D02*
X161747122Y-41881849D01*
X161747122Y-41881849D02*
X161651884Y-41977087D01*
X161651884Y-41977087D02*
X161604264Y-42072325D01*
X161604264Y-42072325D02*
X161604264Y-42262801D01*
X161604264Y-42262801D02*
X161651884Y-42358039D01*
X161651884Y-42358039D02*
X161747122Y-42453277D01*
X161747122Y-42453277D02*
X161937598Y-42500896D01*
X161937598Y-42500896D02*
X162270931Y-42500896D01*
X162270931Y-42500896D02*
X162461407Y-42453277D01*
X162461407Y-42453277D02*
X162556645Y-42358039D01*
X162556645Y-42358039D02*
X162604264Y-42262801D01*
X162604264Y-41500896D02*
X162604264Y-40881849D01*
X162604264Y-40881849D02*
X162223312Y-41215182D01*
X162223312Y-41215182D02*
X162223312Y-41072325D01*
X162223312Y-41072325D02*
X162175693Y-40977087D01*
X162175693Y-40977087D02*
X162128074Y-40929468D01*
X162128074Y-40929468D02*
X162032836Y-40881849D01*
X162032836Y-40881849D02*
X161794741Y-40881849D01*
X161794741Y-40881849D02*
X161699503Y-40929468D01*
X161699503Y-40929468D02*
X161651884Y-40977087D01*
X161651884Y-40977087D02*
X161604264Y-41072325D01*
X161604264Y-41072325D02*
X161604264Y-41358039D01*
X161604264Y-41358039D02*
X161651884Y-41453277D01*
X161651884Y-41453277D02*
X161699503Y-41500896D01*
X160350626Y-42929467D02*
X161350626Y-42929467D01*
X161350626Y-42262801D02*
X161350626Y-42072325D01*
X161350626Y-42072325D02*
X161303007Y-41977087D01*
X161303007Y-41977087D02*
X161207769Y-41881849D01*
X161207769Y-41881849D02*
X161017293Y-41834230D01*
X161017293Y-41834230D02*
X160683960Y-41834230D01*
X160683960Y-41834230D02*
X160493484Y-41881849D01*
X160493484Y-41881849D02*
X160398246Y-41977087D01*
X160398246Y-41977087D02*
X160350626Y-42072325D01*
X160350626Y-42072325D02*
X160350626Y-42262801D01*
X160350626Y-42262801D02*
X160398246Y-42358039D01*
X160398246Y-42358039D02*
X160493484Y-42453277D01*
X160493484Y-42453277D02*
X160683960Y-42500896D01*
X160683960Y-42500896D02*
X161017293Y-42500896D01*
X161017293Y-42500896D02*
X161207769Y-42453277D01*
X161207769Y-42453277D02*
X161303007Y-42358039D01*
X161303007Y-42358039D02*
X161350626Y-42262801D01*
X161255388Y-41453277D02*
X161303007Y-41405658D01*
X161303007Y-41405658D02*
X161350626Y-41310420D01*
X161350626Y-41310420D02*
X161350626Y-41072325D01*
X161350626Y-41072325D02*
X161303007Y-40977087D01*
X161303007Y-40977087D02*
X161255388Y-40929468D01*
X161255388Y-40929468D02*
X161160150Y-40881849D01*
X161160150Y-40881849D02*
X161064912Y-40881849D01*
X161064912Y-40881849D02*
X160922055Y-40929468D01*
X160922055Y-40929468D02*
X160350626Y-41500896D01*
X160350626Y-41500896D02*
X160350626Y-40881849D01*
X154853533Y-85655777D02*
X154853533Y-84655777D01*
X154853533Y-84655777D02*
X154520200Y-85370062D01*
X154520200Y-85370062D02*
X154186867Y-84655777D01*
X154186867Y-84655777D02*
X154186867Y-85655777D01*
X153710676Y-85655777D02*
X153710676Y-84655777D01*
X153282105Y-85608158D02*
X153139248Y-85655777D01*
X153139248Y-85655777D02*
X152901153Y-85655777D01*
X152901153Y-85655777D02*
X152805915Y-85608158D01*
X152805915Y-85608158D02*
X152758296Y-85560538D01*
X152758296Y-85560538D02*
X152710677Y-85465300D01*
X152710677Y-85465300D02*
X152710677Y-85370062D01*
X152710677Y-85370062D02*
X152758296Y-85274824D01*
X152758296Y-85274824D02*
X152805915Y-85227205D01*
X152805915Y-85227205D02*
X152901153Y-85179586D01*
X152901153Y-85179586D02*
X153091629Y-85131967D01*
X153091629Y-85131967D02*
X153186867Y-85084348D01*
X153186867Y-85084348D02*
X153234486Y-85036729D01*
X153234486Y-85036729D02*
X153282105Y-84941491D01*
X153282105Y-84941491D02*
X153282105Y-84846253D01*
X153282105Y-84846253D02*
X153234486Y-84751015D01*
X153234486Y-84751015D02*
X153186867Y-84703396D01*
X153186867Y-84703396D02*
X153091629Y-84655777D01*
X153091629Y-84655777D02*
X152853534Y-84655777D01*
X152853534Y-84655777D02*
X152710677Y-84703396D01*
X152091629Y-84655777D02*
X151901153Y-84655777D01*
X151901153Y-84655777D02*
X151805915Y-84703396D01*
X151805915Y-84703396D02*
X151710677Y-84798634D01*
X151710677Y-84798634D02*
X151663058Y-84989110D01*
X151663058Y-84989110D02*
X151663058Y-85322443D01*
X151663058Y-85322443D02*
X151710677Y-85512919D01*
X151710677Y-85512919D02*
X151805915Y-85608158D01*
X151805915Y-85608158D02*
X151901153Y-85655777D01*
X151901153Y-85655777D02*
X152091629Y-85655777D01*
X152091629Y-85655777D02*
X152186867Y-85608158D01*
X152186867Y-85608158D02*
X152282105Y-85512919D01*
X152282105Y-85512919D02*
X152329724Y-85322443D01*
X152329724Y-85322443D02*
X152329724Y-84989110D01*
X152329724Y-84989110D02*
X152282105Y-84798634D01*
X152282105Y-84798634D02*
X152186867Y-84703396D01*
X152186867Y-84703396D02*
X152091629Y-84655777D01*
D12*
%TO.C,IF1*%
X168363529Y-44350546D02*
G75*
G02*
X167601529Y-44350546I-381000J0D01*
G01*
X167601529Y-44350546D02*
G75*
G02*
X168363529Y-44350546I381000J0D01*
G01*
D13*
%TO.C,G\u002A\u002A\u002A*%
G36*
X163796974Y-53023508D02*
G01*
X163797777Y-53025026D01*
X163806677Y-53048204D01*
X163823943Y-53096177D01*
X163848275Y-53165159D01*
X163878373Y-53251363D01*
X163912937Y-53351002D01*
X163950666Y-53460289D01*
X163990260Y-53575438D01*
X164030418Y-53692661D01*
X164069840Y-53808172D01*
X164107226Y-53918183D01*
X164141276Y-54018909D01*
X164170688Y-54106561D01*
X164194164Y-54177354D01*
X164210402Y-54227500D01*
X164222083Y-54268243D01*
X164230229Y-54306936D01*
X164230019Y-54325192D01*
X164229540Y-54325460D01*
X164208904Y-54327664D01*
X164161553Y-54329644D01*
X164091557Y-54331320D01*
X164002987Y-54332615D01*
X163899915Y-54333449D01*
X163786411Y-54333744D01*
X163722491Y-54333700D01*
X163605174Y-54333243D01*
X163514527Y-54332161D01*
X163447406Y-54330297D01*
X163400671Y-54327492D01*
X163371178Y-54323590D01*
X163355787Y-54318430D01*
X163351354Y-54311856D01*
X163354836Y-54298155D01*
X163367181Y-54257860D01*
X163387256Y-54194988D01*
X163413811Y-54113274D01*
X163445597Y-54016450D01*
X163481364Y-53908251D01*
X163519862Y-53792410D01*
X163559842Y-53672662D01*
X163600053Y-53552740D01*
X163639247Y-53436378D01*
X163676173Y-53327310D01*
X163709581Y-53229270D01*
X163738223Y-53145991D01*
X163760847Y-53081207D01*
X163776205Y-53038653D01*
X163783047Y-53022062D01*
X163796974Y-53023508D01*
G37*
G36*
X180321255Y-55696935D02*
G01*
X180349802Y-55787406D01*
X180365251Y-55836448D01*
X180390497Y-55917168D01*
X180421446Y-56016549D01*
X180456205Y-56128498D01*
X180492881Y-56246927D01*
X180529581Y-56365744D01*
X180555453Y-56449494D01*
X180596222Y-56581030D01*
X180637519Y-56713807D01*
X180676917Y-56840045D01*
X180711990Y-56951961D01*
X180740314Y-57041775D01*
X180823289Y-57303591D01*
X166877534Y-57303591D01*
X152931779Y-57303591D01*
X152840915Y-57010514D01*
X152808252Y-56905410D01*
X152768022Y-56776395D01*
X152725009Y-56638806D01*
X152682610Y-56503510D01*
X152644224Y-56381375D01*
X152625910Y-56323150D01*
X152586461Y-56197396D01*
X152542225Y-56056051D01*
X152496098Y-55908377D01*
X152450974Y-55763639D01*
X152409748Y-55631098D01*
X152384307Y-55549227D01*
X152342951Y-55416297D01*
X152337565Y-55399005D01*
X153929471Y-55399005D01*
X153930248Y-55502040D01*
X153931776Y-55604357D01*
X153934002Y-55700866D01*
X153936870Y-55786477D01*
X153940327Y-55856100D01*
X153944319Y-55904645D01*
X153948791Y-55927021D01*
X153953605Y-55928322D01*
X153985173Y-55930748D01*
X154043620Y-55933002D01*
X154126043Y-55935077D01*
X154229541Y-55936965D01*
X154351210Y-55938658D01*
X154488149Y-55940151D01*
X154637455Y-55941434D01*
X154796224Y-55942501D01*
X154961556Y-55943344D01*
X155130548Y-55943955D01*
X155300296Y-55944328D01*
X155467899Y-55944455D01*
X155630454Y-55944328D01*
X155785058Y-55943940D01*
X155928810Y-55943284D01*
X156058806Y-55942351D01*
X156172145Y-55941136D01*
X156265923Y-55939630D01*
X156337239Y-55937826D01*
X156383189Y-55935716D01*
X156400872Y-55933293D01*
X156401564Y-55927932D01*
X156402792Y-55894933D01*
X156403972Y-55833469D01*
X156405096Y-55745346D01*
X156406155Y-55632369D01*
X156407139Y-55496342D01*
X156408041Y-55339072D01*
X156408851Y-55162364D01*
X156409561Y-54968022D01*
X156410161Y-54757853D01*
X156410643Y-54533661D01*
X156410998Y-54297252D01*
X156411218Y-54050431D01*
X156411293Y-53795004D01*
X156411257Y-53549560D01*
X156411096Y-53256135D01*
X156410797Y-52991824D01*
X156410349Y-52755410D01*
X156409741Y-52545678D01*
X156408962Y-52361411D01*
X156408414Y-52269928D01*
X157304635Y-52269928D01*
X157304701Y-52440354D01*
X157305074Y-52637046D01*
X157305737Y-52861669D01*
X157306674Y-53115887D01*
X157306819Y-53152377D01*
X157307808Y-53395146D01*
X157308753Y-53608996D01*
X157309698Y-53795004D01*
X157309703Y-53795981D01*
X157310709Y-53958155D01*
X157311818Y-54097572D01*
X157313080Y-54216287D01*
X157314544Y-54316353D01*
X157316259Y-54399825D01*
X157318274Y-54468757D01*
X157320638Y-54525203D01*
X157323401Y-54571216D01*
X157326610Y-54608852D01*
X157330315Y-54640164D01*
X157334566Y-54667206D01*
X157339411Y-54692033D01*
X157344900Y-54716698D01*
X157359341Y-54776261D01*
X157409971Y-54944613D01*
X157471706Y-55092182D01*
X157548001Y-55226378D01*
X157642311Y-55354612D01*
X157731738Y-55456628D01*
X157902846Y-55616913D01*
X158091641Y-55752328D01*
X158299111Y-55863447D01*
X158526240Y-55950848D01*
X158774016Y-56015104D01*
X158777973Y-56015893D01*
X158846496Y-56025702D01*
X158938070Y-56033857D01*
X159045082Y-56040149D01*
X159159919Y-56044368D01*
X159274969Y-56046305D01*
X159382618Y-56045750D01*
X159475253Y-56042494D01*
X159545262Y-56036327D01*
X159609742Y-56026292D01*
X159743653Y-55999328D01*
X159880049Y-55964925D01*
X159992709Y-55930615D01*
X161564528Y-55930615D01*
X161565780Y-55934837D01*
X161566070Y-55935013D01*
X161585692Y-55937007D01*
X161632782Y-55938838D01*
X161703843Y-55940453D01*
X161795379Y-55941801D01*
X161903896Y-55942829D01*
X162025898Y-55943484D01*
X162157888Y-55943714D01*
X162741119Y-55943714D01*
X162773518Y-55880207D01*
X162780306Y-55866537D01*
X162792914Y-55838915D01*
X162807252Y-55804117D01*
X162824693Y-55758402D01*
X162846612Y-55698026D01*
X162874383Y-55619249D01*
X162909379Y-55518328D01*
X162952976Y-55391521D01*
X162969097Y-55345892D01*
X162992157Y-55285132D01*
X163011542Y-55239194D01*
X163024235Y-55215526D01*
X163032244Y-55210386D01*
X163048948Y-55206061D01*
X163076780Y-55202590D01*
X163118259Y-55199915D01*
X163175898Y-55197974D01*
X163252216Y-55196708D01*
X163349728Y-55196057D01*
X163470950Y-55195961D01*
X163618399Y-55196361D01*
X163794591Y-55197196D01*
X164546368Y-55201252D01*
X164591485Y-55295037D01*
X164600059Y-55313418D01*
X164625870Y-55371997D01*
X164658199Y-55448390D01*
X164693756Y-55534764D01*
X164729254Y-55623283D01*
X164748392Y-55671502D01*
X164780126Y-55750518D01*
X164807845Y-55818407D01*
X164829092Y-55869173D01*
X164841410Y-55896821D01*
X164860913Y-55935898D01*
X165442565Y-55939996D01*
X165558145Y-55940925D01*
X165691754Y-55942055D01*
X165798641Y-55942405D01*
X165881430Y-55941303D01*
X165942747Y-55938080D01*
X165985216Y-55932062D01*
X166011464Y-55922580D01*
X166024115Y-55908963D01*
X166025794Y-55890538D01*
X166019126Y-55866634D01*
X166006738Y-55836581D01*
X165991253Y-55799708D01*
X165975615Y-55759757D01*
X165950342Y-55693884D01*
X165921029Y-55616530D01*
X165891338Y-55537314D01*
X165870362Y-55481364D01*
X165832336Y-55381188D01*
X165793531Y-55280183D01*
X165759720Y-55193437D01*
X165754184Y-55179336D01*
X165726522Y-55108050D01*
X165691392Y-55016562D01*
X165651556Y-54912109D01*
X165609775Y-54801927D01*
X165568810Y-54693252D01*
X165559147Y-54667546D01*
X165517441Y-54556996D01*
X165475389Y-54446079D01*
X165435813Y-54342207D01*
X165401537Y-54252794D01*
X165375381Y-54185252D01*
X165357569Y-54139547D01*
X165318439Y-54038590D01*
X165278006Y-53933694D01*
X165242646Y-53841375D01*
X165220451Y-53783256D01*
X165189570Y-53702662D01*
X165161580Y-53629895D01*
X165157907Y-53620403D01*
X166339164Y-53620403D01*
X166339191Y-53680647D01*
X166343122Y-53767366D01*
X166364181Y-54018577D01*
X166406555Y-54301125D01*
X166467960Y-54561760D01*
X166548989Y-54802499D01*
X166650231Y-55025356D01*
X166772277Y-55232347D01*
X166820239Y-55297843D01*
X166898116Y-55389697D01*
X166988918Y-55485597D01*
X167085314Y-55578230D01*
X167179973Y-55660281D01*
X167265562Y-55724438D01*
X167275607Y-55731126D01*
X167464346Y-55839569D01*
X167581879Y-55890538D01*
X167672665Y-55929908D01*
X167893237Y-55999389D01*
X168118739Y-56045257D01*
X168155557Y-56050165D01*
X168248592Y-56059719D01*
X168354239Y-56067681D01*
X168463767Y-56073624D01*
X168568446Y-56077122D01*
X168659547Y-56077748D01*
X168728339Y-56075074D01*
X168948017Y-56049264D01*
X169197251Y-56000015D01*
X169432377Y-55931593D01*
X169648999Y-55845312D01*
X169842720Y-55742484D01*
X169861768Y-55730694D01*
X170071147Y-55581799D01*
X170257592Y-55412047D01*
X170420313Y-55222610D01*
X170558520Y-55014664D01*
X170671425Y-54789381D01*
X170758239Y-54547936D01*
X170775824Y-54472696D01*
X172521620Y-54472696D01*
X172523391Y-54528822D01*
X172535198Y-54609912D01*
X172554672Y-54697871D01*
X172613034Y-54856450D01*
X172697247Y-55000338D01*
X172805073Y-55127115D01*
X172934273Y-55234360D01*
X173082608Y-55319651D01*
X173247839Y-55380567D01*
X173264643Y-55385003D01*
X173341656Y-55400570D01*
X173418231Y-55409504D01*
X173486909Y-55411504D01*
X173540234Y-55406273D01*
X173570751Y-55393511D01*
X173590168Y-55361037D01*
X173587165Y-55323144D01*
X173561610Y-55289409D01*
X173517833Y-55265220D01*
X173460162Y-55255960D01*
X173336055Y-55243572D01*
X173202275Y-55203156D01*
X173075662Y-55137986D01*
X172960030Y-55051479D01*
X172859193Y-54947050D01*
X172776965Y-54828115D01*
X172717158Y-54698090D01*
X172683586Y-54560391D01*
X172671916Y-54499027D01*
X172656792Y-54461075D01*
X172782211Y-54461075D01*
X172786215Y-54516066D01*
X172801295Y-54586643D01*
X172825564Y-54664846D01*
X172857135Y-54742716D01*
X172866332Y-54761872D01*
X172923341Y-54853758D01*
X173001865Y-54940736D01*
X173050028Y-54984711D01*
X173132763Y-55046640D01*
X173218627Y-55090653D01*
X173318777Y-55123173D01*
X173393913Y-55139230D01*
X173475425Y-55146147D01*
X173537000Y-55137920D01*
X173575930Y-55115004D01*
X173589508Y-55077852D01*
X173586209Y-55054280D01*
X173562182Y-55020646D01*
X173512813Y-54997914D01*
X173435653Y-54984601D01*
X173412149Y-54981907D01*
X173304782Y-54957303D01*
X173210260Y-54911145D01*
X173118811Y-54838942D01*
X173072572Y-54788677D01*
X173025778Y-54724042D01*
X172986241Y-54656189D01*
X172958870Y-54593601D01*
X172948572Y-54544760D01*
X172945036Y-54505452D01*
X172930981Y-54452366D01*
X172923037Y-54436297D01*
X173044848Y-54436297D01*
X173049194Y-54479176D01*
X173064873Y-54547323D01*
X173114423Y-54658478D01*
X173189873Y-54753433D01*
X173289238Y-54829294D01*
X173352334Y-54857495D01*
X173453361Y-54876332D01*
X173513377Y-54878028D01*
X173558679Y-54869432D01*
X173582553Y-54847417D01*
X173589508Y-54809779D01*
X173589475Y-54807455D01*
X173573816Y-54765630D01*
X173530464Y-54736398D01*
X173460654Y-54720617D01*
X173433903Y-54716379D01*
X173351661Y-54684222D01*
X173282952Y-54627915D01*
X173232504Y-54552239D01*
X173205044Y-54461980D01*
X173193744Y-54418228D01*
X173166481Y-54379809D01*
X173127932Y-54369193D01*
X173080393Y-54387746D01*
X173076828Y-54390107D01*
X173052600Y-54410883D01*
X173044848Y-54436297D01*
X172923037Y-54436297D01*
X172910011Y-54409950D01*
X172886228Y-54388485D01*
X172851852Y-54386952D01*
X172810820Y-54405620D01*
X172785442Y-54440268D01*
X172782211Y-54461075D01*
X172656792Y-54461075D01*
X172648219Y-54439561D01*
X172615406Y-54409234D01*
X172573070Y-54407484D01*
X172551878Y-54415577D01*
X172530807Y-54436594D01*
X172521620Y-54472696D01*
X170775824Y-54472696D01*
X170818172Y-54291502D01*
X170830414Y-54199040D01*
X170839442Y-54081607D01*
X170841243Y-54037317D01*
X173390562Y-54037317D01*
X173413578Y-54109952D01*
X173463126Y-54196636D01*
X173467566Y-54203282D01*
X173504509Y-54263853D01*
X173522651Y-54309146D01*
X173523835Y-54346522D01*
X173509906Y-54383342D01*
X173500914Y-54406572D01*
X173506948Y-54431295D01*
X173536941Y-54438714D01*
X173588921Y-54427723D01*
X173612089Y-54420545D01*
X173640199Y-54415979D01*
X173668662Y-54420458D01*
X173706550Y-54435880D01*
X173762934Y-54464143D01*
X173845089Y-54500006D01*
X173922078Y-54518603D01*
X173981511Y-54515645D01*
X174021477Y-54492330D01*
X174040066Y-54449853D01*
X174035368Y-54389411D01*
X174005472Y-54312202D01*
X174001872Y-54304973D01*
X174183757Y-54304973D01*
X174190293Y-54316633D01*
X174216941Y-54348005D01*
X174261227Y-54394760D01*
X174320035Y-54453720D01*
X174390245Y-54521706D01*
X174468739Y-54595538D01*
X174493580Y-54618581D01*
X174592294Y-54710130D01*
X174697180Y-54807374D01*
X174699775Y-54809779D01*
X174800965Y-54903574D01*
X174896379Y-54991989D01*
X174976149Y-55065879D01*
X174982184Y-55071460D01*
X174989213Y-55077852D01*
X175051769Y-55134739D01*
X175114239Y-55189680D01*
X175165697Y-55232994D01*
X175202244Y-55261393D01*
X175219986Y-55271591D01*
X175222665Y-55270889D01*
X175244741Y-55254651D01*
X175281252Y-55220636D01*
X175327649Y-55173808D01*
X175379386Y-55119130D01*
X175431914Y-55061564D01*
X175480686Y-55006072D01*
X175521154Y-54957618D01*
X175548769Y-54921163D01*
X175558985Y-54901671D01*
X175552638Y-54889114D01*
X175527480Y-54858044D01*
X175487623Y-54815339D01*
X175437847Y-54766340D01*
X175435824Y-54764424D01*
X175387105Y-54718568D01*
X175320804Y-54656563D01*
X175240966Y-54582158D01*
X175151635Y-54499098D01*
X175056854Y-54411132D01*
X174960668Y-54322007D01*
X174867121Y-54235470D01*
X174780257Y-54155269D01*
X174704119Y-54085151D01*
X174642753Y-54028862D01*
X174600201Y-53990152D01*
X174522516Y-53920097D01*
X174353276Y-54099567D01*
X174319029Y-54136415D01*
X174265494Y-54196394D01*
X174222628Y-54247481D01*
X174194144Y-54285174D01*
X174183757Y-54304973D01*
X174001872Y-54304973D01*
X173985911Y-54272918D01*
X173977669Y-54252079D01*
X173983009Y-54250267D01*
X174001565Y-54262881D01*
X174021665Y-54277413D01*
X174040606Y-54288292D01*
X174059269Y-54292197D01*
X174080302Y-54287095D01*
X174106353Y-54270952D01*
X174140072Y-54241736D01*
X174184106Y-54197414D01*
X174241104Y-54135951D01*
X174313715Y-54055314D01*
X174404586Y-53953471D01*
X174428754Y-53926301D01*
X174468701Y-53880086D01*
X174491842Y-53849165D01*
X174501062Y-53828103D01*
X174499244Y-53811462D01*
X174489271Y-53793806D01*
X174472541Y-53754414D01*
X174464831Y-53705687D01*
X174464039Y-53691892D01*
X174456249Y-53665134D01*
X174436877Y-53634609D01*
X174401951Y-53594702D01*
X174347497Y-53539795D01*
X174299764Y-53493752D01*
X174259854Y-53458464D01*
X174231289Y-53439185D01*
X174208604Y-53432338D01*
X174186333Y-53434348D01*
X174147551Y-53435281D01*
X174113675Y-53412121D01*
X174089523Y-53390935D01*
X174065311Y-53380268D01*
X174064932Y-53380314D01*
X174059989Y-53384041D01*
X174048631Y-53392606D01*
X174015692Y-53423769D01*
X173970048Y-53469614D01*
X173915627Y-53525950D01*
X173856361Y-53588588D01*
X173796181Y-53653338D01*
X173739017Y-53716012D01*
X173688799Y-53772418D01*
X173656675Y-53809939D01*
X173649458Y-53818369D01*
X173624925Y-53849673D01*
X173620446Y-53856255D01*
X173611355Y-53877745D01*
X173619037Y-53899008D01*
X173646377Y-53930985D01*
X173670554Y-53958571D01*
X173675402Y-53970225D01*
X173659847Y-53966722D01*
X173628804Y-53954605D01*
X173557245Y-53928782D01*
X173506062Y-53915419D01*
X173469354Y-53913986D01*
X173441219Y-53923953D01*
X173415755Y-53944790D01*
X173394205Y-53979411D01*
X173390562Y-54037317D01*
X170841243Y-54037317D01*
X170844821Y-53949359D01*
X170846558Y-53809939D01*
X170844660Y-53670994D01*
X170839134Y-53540167D01*
X170829988Y-53425104D01*
X170817230Y-53333449D01*
X170808649Y-53290227D01*
X170750185Y-53064829D01*
X170670395Y-52840838D01*
X170649084Y-52794191D01*
X172545429Y-52794191D01*
X172546767Y-52797742D01*
X172552293Y-52806214D01*
X172563455Y-52819345D01*
X172581991Y-52838785D01*
X172609639Y-52866183D01*
X172648137Y-52903189D01*
X172699225Y-52951452D01*
X172764639Y-53012622D01*
X172846119Y-53088346D01*
X172945403Y-53180275D01*
X173064229Y-53290058D01*
X173204335Y-53419344D01*
X173244030Y-53455874D01*
X173330156Y-53534527D01*
X173408178Y-53604959D01*
X173475139Y-53664555D01*
X173528087Y-53710697D01*
X173564065Y-53740770D01*
X173580119Y-53752155D01*
X173585780Y-53750163D01*
X173610539Y-53730994D01*
X173649307Y-53695464D01*
X173697565Y-53648280D01*
X173750795Y-53594151D01*
X173804479Y-53537784D01*
X173854098Y-53483886D01*
X173895134Y-53437165D01*
X173923069Y-53402329D01*
X173933385Y-53384086D01*
X173933385Y-53384041D01*
X173928138Y-53374828D01*
X173911700Y-53355896D01*
X173882749Y-53325985D01*
X173839960Y-53283836D01*
X173782010Y-53228187D01*
X173707575Y-53157779D01*
X173615333Y-53071350D01*
X173503959Y-52967641D01*
X173372130Y-52845391D01*
X173218523Y-52703341D01*
X173211381Y-52696746D01*
X173128693Y-52620839D01*
X173053524Y-52552622D01*
X172988942Y-52494820D01*
X172938017Y-52450159D01*
X172903820Y-52421364D01*
X172889420Y-52411160D01*
X172882333Y-52414834D01*
X172856662Y-52437273D01*
X172817905Y-52475936D01*
X172770411Y-52525982D01*
X172718526Y-52582570D01*
X172666600Y-52640858D01*
X172618979Y-52696006D01*
X172580012Y-52743171D01*
X172554046Y-52777513D01*
X172545429Y-52794191D01*
X170649084Y-52794191D01*
X170572991Y-52627636D01*
X170461684Y-52434606D01*
X170423227Y-52380580D01*
X170353105Y-52294880D01*
X170269170Y-52202334D01*
X170177830Y-52109391D01*
X170085489Y-52022503D01*
X169998554Y-51948118D01*
X169923433Y-51892686D01*
X169859929Y-51852860D01*
X169650401Y-51740766D01*
X169424926Y-51646332D01*
X169304408Y-51608606D01*
X171911210Y-51608606D01*
X171956241Y-51714559D01*
X171958766Y-51720435D01*
X171983613Y-51772359D01*
X172006546Y-51811156D01*
X172022888Y-51828808D01*
X172031295Y-51831205D01*
X172042459Y-51830037D01*
X172058593Y-51822007D01*
X172083452Y-51804422D01*
X172120791Y-51774587D01*
X172174367Y-51729810D01*
X172247934Y-51667397D01*
X172297627Y-51625889D01*
X172535396Y-51447921D01*
X172778975Y-51299884D01*
X173030686Y-51180798D01*
X173292846Y-51089683D01*
X173567776Y-51025559D01*
X173857795Y-50987447D01*
X173959324Y-50980711D01*
X174245637Y-50982328D01*
X174527600Y-51013868D01*
X174803263Y-51074376D01*
X175070676Y-51162897D01*
X175327887Y-51278476D01*
X175572947Y-51420156D01*
X175803906Y-51586985D01*
X176018812Y-51778005D01*
X176215716Y-51992263D01*
X176392666Y-52228803D01*
X176501309Y-52405689D01*
X176609983Y-52625605D01*
X176701864Y-52866152D01*
X176736011Y-52976576D01*
X176764727Y-53092018D01*
X176786395Y-53211468D01*
X176802014Y-53341700D01*
X176812581Y-53489493D01*
X176819097Y-53661621D01*
X176826976Y-53966421D01*
X176794550Y-53924931D01*
X176706102Y-53813005D01*
X176539247Y-53609611D01*
X176378860Y-53425277D01*
X176219790Y-53254175D01*
X176056882Y-53090474D01*
X175983646Y-53020130D01*
X175880065Y-52924939D01*
X175783227Y-52842678D01*
X175684830Y-52766738D01*
X175576572Y-52690506D01*
X175450151Y-52607374D01*
X175406559Y-52579667D01*
X175321790Y-52528431D01*
X175257921Y-52494964D01*
X175212160Y-52478462D01*
X175181717Y-52478124D01*
X175163802Y-52493148D01*
X175155624Y-52522732D01*
X175156891Y-52543046D01*
X175166120Y-52591893D01*
X175182482Y-52660454D01*
X175204360Y-52743068D01*
X175230139Y-52834071D01*
X175258202Y-52927801D01*
X175286935Y-53018595D01*
X175314722Y-53100791D01*
X175339946Y-53168727D01*
X175406535Y-53322803D01*
X175509114Y-53528003D01*
X175635445Y-53752837D01*
X175681651Y-53828103D01*
X175785575Y-53997387D01*
X175959556Y-54261732D01*
X176157436Y-54545951D01*
X176379264Y-54850125D01*
X176383500Y-54855829D01*
X176416703Y-54901671D01*
X176427667Y-54916809D01*
X176463683Y-54969194D01*
X176487936Y-55007570D01*
X176496820Y-55026521D01*
X176496801Y-55027112D01*
X176487691Y-55052363D01*
X176464269Y-55097474D01*
X176429932Y-55156901D01*
X176388078Y-55225104D01*
X176342103Y-55296540D01*
X176298532Y-55361037D01*
X176295404Y-55365667D01*
X176251379Y-55426943D01*
X176245472Y-55434818D01*
X176150322Y-55556897D01*
X176060679Y-55661261D01*
X175968011Y-55757321D01*
X175863785Y-55854489D01*
X175808880Y-55904282D01*
X175761212Y-55948897D01*
X175726865Y-55982582D01*
X175710921Y-56000486D01*
X175709492Y-56008489D01*
X175720789Y-56036845D01*
X175746463Y-56072919D01*
X175779457Y-56108658D01*
X175812718Y-56136007D01*
X175839190Y-56146914D01*
X175841031Y-56146629D01*
X175863810Y-56132416D01*
X175902761Y-56099698D01*
X175953775Y-56052550D01*
X176012743Y-55995053D01*
X176075559Y-55931283D01*
X176138113Y-55865318D01*
X176196297Y-55801237D01*
X176246003Y-55743116D01*
X176294067Y-55683323D01*
X176389928Y-55557024D01*
X176476179Y-55434023D01*
X176546294Y-55323441D01*
X176557879Y-55304265D01*
X176588239Y-55258179D01*
X176612132Y-55227799D01*
X176625181Y-55218924D01*
X176635472Y-55228372D01*
X176657737Y-55266024D01*
X176683551Y-55330385D01*
X176713434Y-55422830D01*
X176747904Y-55544740D01*
X176764805Y-55606342D01*
X176810479Y-55763238D01*
X176858080Y-55914475D01*
X176905518Y-56053820D01*
X176950705Y-56175038D01*
X176991552Y-56271897D01*
X177005266Y-56300752D01*
X177057311Y-56391825D01*
X177111834Y-56456872D01*
X177172086Y-56500001D01*
X177181351Y-56504858D01*
X177207632Y-56517855D01*
X177228338Y-56523971D01*
X177244554Y-56520177D01*
X177257364Y-56503447D01*
X177267854Y-56470750D01*
X177277109Y-56419060D01*
X177286212Y-56345347D01*
X177296250Y-56246584D01*
X177308306Y-56119742D01*
X177312490Y-56076744D01*
X177324980Y-55963237D01*
X177336917Y-55877224D01*
X177348109Y-55819956D01*
X177358366Y-55792680D01*
X177381219Y-55770709D01*
X177423586Y-55736020D01*
X177478637Y-55693860D01*
X177540166Y-55648697D01*
X177601963Y-55604999D01*
X177657822Y-55567236D01*
X177701535Y-55539876D01*
X177726895Y-55527387D01*
X177738639Y-55526260D01*
X177780427Y-55529067D01*
X177839361Y-55537652D01*
X177906649Y-55550865D01*
X177915364Y-55552788D01*
X178049290Y-55581511D01*
X178167656Y-55605341D01*
X178267503Y-55623762D01*
X178345872Y-55636259D01*
X178399805Y-55642317D01*
X178426340Y-55641419D01*
X178437484Y-55634560D01*
X178450276Y-55604120D01*
X178444903Y-55558261D01*
X178423654Y-55502198D01*
X178388814Y-55441145D01*
X178342671Y-55380316D01*
X178287513Y-55324927D01*
X178269299Y-55309473D01*
X178191182Y-55247228D01*
X178093950Y-55174382D01*
X177983579Y-55095164D01*
X177866042Y-55013809D01*
X177747316Y-54934546D01*
X177633373Y-54861608D01*
X177611754Y-54848061D01*
X177533278Y-54797122D01*
X177472361Y-54753090D01*
X177421044Y-54709312D01*
X177371365Y-54659140D01*
X177315364Y-54595921D01*
X177277057Y-54550526D01*
X177207109Y-54464848D01*
X177136252Y-54375274D01*
X177075111Y-54295111D01*
X176959372Y-54139246D01*
X176963638Y-53888711D01*
X176963338Y-53715879D01*
X176945446Y-53416295D01*
X176904448Y-53135186D01*
X176839529Y-52870038D01*
X176749874Y-52618337D01*
X176634667Y-52377572D01*
X176493091Y-52145227D01*
X176324332Y-51918791D01*
X176267880Y-51853692D01*
X176194585Y-51775559D01*
X176111172Y-51691071D01*
X176023787Y-51606197D01*
X175938581Y-51526908D01*
X175861700Y-51459174D01*
X175799293Y-51408965D01*
X175773641Y-51390089D01*
X175518708Y-51221645D01*
X175256806Y-51083233D01*
X174986072Y-50974090D01*
X174704642Y-50893453D01*
X174410652Y-50840560D01*
X174356620Y-50834415D01*
X174236024Y-50825133D01*
X174100002Y-50819198D01*
X173956305Y-50816614D01*
X173812685Y-50817386D01*
X173676891Y-50821520D01*
X173556674Y-50829022D01*
X173459785Y-50839896D01*
X173416099Y-50847006D01*
X173187812Y-50898027D01*
X172955850Y-50971352D01*
X172730693Y-51063289D01*
X172522817Y-51170146D01*
X172513453Y-51175614D01*
X172445280Y-51217739D01*
X172363248Y-51271380D01*
X172274082Y-51331850D01*
X172184505Y-51394460D01*
X172101241Y-51454523D01*
X172031013Y-51507351D01*
X171980544Y-51548255D01*
X171911210Y-51608606D01*
X169304408Y-51608606D01*
X169193230Y-51573804D01*
X169178019Y-51569979D01*
X169053257Y-51545557D01*
X168906736Y-51526678D01*
X168746423Y-51513688D01*
X168580282Y-51506931D01*
X168416280Y-51506755D01*
X168262382Y-51513504D01*
X168126554Y-51527524D01*
X167939256Y-51562140D01*
X167706886Y-51629946D01*
X167491699Y-51723227D01*
X167293032Y-51842461D01*
X167110221Y-51988123D01*
X166942603Y-52160692D01*
X166789512Y-52360645D01*
X166650286Y-52588459D01*
X166641423Y-52604730D01*
X166612972Y-52659755D01*
X166598582Y-52695257D01*
X166596398Y-52717011D01*
X166604565Y-52730793D01*
X166615650Y-52737378D01*
X166653574Y-52755169D01*
X166713538Y-52781189D01*
X166791295Y-52813760D01*
X166882603Y-52851202D01*
X166983215Y-52891834D01*
X167088888Y-52933976D01*
X167195377Y-52975950D01*
X167298437Y-53016075D01*
X167393824Y-53052672D01*
X167477293Y-53084060D01*
X167544599Y-53108560D01*
X167591497Y-53124491D01*
X167613744Y-53130175D01*
X167630826Y-53123686D01*
X167655094Y-53098758D01*
X167687082Y-53051967D01*
X167729348Y-52979991D01*
X167808623Y-52856165D01*
X167897239Y-52754463D01*
X167999443Y-52672888D01*
X168120889Y-52606943D01*
X168267231Y-52552130D01*
X168352038Y-52531604D01*
X168482696Y-52516784D01*
X168623081Y-52516512D01*
X168762965Y-52530674D01*
X168892119Y-52559155D01*
X168964878Y-52582084D01*
X169063155Y-52620635D01*
X169146500Y-52666182D01*
X169224939Y-52724562D01*
X169308494Y-52801611D01*
X169355722Y-52849703D01*
X169399965Y-52900551D01*
X169437072Y-52952957D01*
X169473386Y-53016038D01*
X169515247Y-53098914D01*
X169524185Y-53117360D01*
X169577108Y-53234629D01*
X169616392Y-53341085D01*
X169643853Y-53445077D01*
X169661309Y-53554951D01*
X169670577Y-53679058D01*
X169673475Y-53825744D01*
X169673285Y-53914186D01*
X169671663Y-53998204D01*
X169667886Y-54064576D01*
X169661288Y-54120734D01*
X169651199Y-54174113D01*
X169636952Y-54232144D01*
X169596280Y-54360658D01*
X169513549Y-54538884D01*
X169404581Y-54700135D01*
X169269283Y-54844562D01*
X169221287Y-54886176D01*
X169086084Y-54979637D01*
X168939084Y-55047316D01*
X168776643Y-55090654D01*
X168595114Y-55111094D01*
X168453372Y-55111748D01*
X168316347Y-55095757D01*
X168187154Y-55060425D01*
X168055733Y-55003750D01*
X168018584Y-54984155D01*
X167894639Y-54900382D01*
X167797326Y-54801846D01*
X167727527Y-54689393D01*
X167726545Y-54687285D01*
X167701031Y-54625039D01*
X167679570Y-54559575D01*
X167664201Y-54498893D01*
X167656962Y-54450994D01*
X167659889Y-54423876D01*
X167660089Y-54423662D01*
X167678964Y-54420537D01*
X167724736Y-54417728D01*
X167793313Y-54415346D01*
X167880601Y-54413506D01*
X167982507Y-54412319D01*
X168094937Y-54411898D01*
X168099407Y-54411898D01*
X168212656Y-54411536D01*
X168316219Y-54410567D01*
X168405780Y-54409078D01*
X168477026Y-54407163D01*
X168525639Y-54404910D01*
X168547307Y-54402411D01*
X168553248Y-54398342D01*
X168559429Y-54386593D01*
X168564112Y-54364327D01*
X168567495Y-54328086D01*
X168569779Y-54274414D01*
X168571164Y-54199853D01*
X168571848Y-54100946D01*
X168572031Y-53974237D01*
X168571926Y-53873581D01*
X168571372Y-53768699D01*
X168570163Y-53688944D01*
X168568100Y-53630858D01*
X168564982Y-53590984D01*
X168560610Y-53565865D01*
X168554785Y-53552043D01*
X168547307Y-53546063D01*
X168538943Y-53545078D01*
X168501639Y-53543533D01*
X168437267Y-53542085D01*
X168348429Y-53540758D01*
X168237725Y-53539573D01*
X168107756Y-53538554D01*
X167961124Y-53537722D01*
X167800428Y-53537100D01*
X167628270Y-53536710D01*
X167447252Y-53536575D01*
X167351876Y-53536587D01*
X167152808Y-53536715D01*
X166981931Y-53537025D01*
X166837103Y-53537561D01*
X166716181Y-53538371D01*
X166617022Y-53539501D01*
X166537483Y-53540997D01*
X166475421Y-53542906D01*
X166428693Y-53545273D01*
X166395156Y-53548146D01*
X166372668Y-53551570D01*
X166359086Y-53555592D01*
X166352266Y-53560258D01*
X166351625Y-53561062D01*
X166343241Y-53582063D01*
X166339164Y-53620403D01*
X165157907Y-53620403D01*
X165140590Y-53575652D01*
X165139828Y-53573694D01*
X165125036Y-53535630D01*
X165100573Y-53472625D01*
X165067945Y-53388555D01*
X165028655Y-53287297D01*
X164984208Y-53172727D01*
X164936107Y-53048723D01*
X164885857Y-52919160D01*
X164834119Y-52785798D01*
X164754358Y-52580452D01*
X164682898Y-52396834D01*
X164617910Y-52230260D01*
X164557563Y-52076041D01*
X164500029Y-51929493D01*
X164443478Y-51785929D01*
X164438206Y-51772847D01*
X164412960Y-51716552D01*
X164389209Y-51672452D01*
X164371487Y-51649160D01*
X164365333Y-51646713D01*
X164330597Y-51641606D01*
X164270802Y-51637311D01*
X164190279Y-51633829D01*
X164093357Y-51631160D01*
X163984366Y-51629303D01*
X163867637Y-51628259D01*
X163747500Y-51628027D01*
X163628284Y-51628608D01*
X163514320Y-51630002D01*
X163409938Y-51632208D01*
X163319468Y-51635227D01*
X163247240Y-51639059D01*
X163197583Y-51643703D01*
X163174829Y-51649160D01*
X163164031Y-51662576D01*
X163145453Y-51697394D01*
X163120055Y-51754155D01*
X163087211Y-51834399D01*
X163046294Y-51939663D01*
X162996678Y-52071486D01*
X162937736Y-52231406D01*
X162925624Y-52264123D01*
X162903136Y-52324407D01*
X162871204Y-52409771D01*
X162830618Y-52518107D01*
X162782171Y-52647303D01*
X162726654Y-52795252D01*
X162664859Y-52959843D01*
X162597578Y-53138967D01*
X162525603Y-53330515D01*
X162449725Y-53532377D01*
X162370736Y-53742444D01*
X162342776Y-53816779D01*
X162289429Y-53958606D01*
X162199178Y-54198543D01*
X162102382Y-54456016D01*
X162015656Y-54686893D01*
X161938475Y-54892611D01*
X161870313Y-55074604D01*
X161810645Y-55234310D01*
X161758945Y-55373162D01*
X161714687Y-55492597D01*
X161677346Y-55594051D01*
X161646395Y-55678959D01*
X161621310Y-55748756D01*
X161601564Y-55804879D01*
X161586632Y-55848762D01*
X161575988Y-55881842D01*
X161569107Y-55905553D01*
X161565462Y-55921333D01*
X161564528Y-55930615D01*
X159992709Y-55930615D01*
X160007692Y-55926052D01*
X160115345Y-55885678D01*
X160186505Y-55854171D01*
X160309339Y-55792150D01*
X160415714Y-55725506D01*
X160515212Y-55647887D01*
X160617416Y-55552944D01*
X160646922Y-55523537D01*
X160703809Y-55464407D01*
X160746732Y-55413805D01*
X160782121Y-55362883D01*
X160816406Y-55302797D01*
X160856017Y-55224698D01*
X160869271Y-55197349D01*
X160916130Y-55090279D01*
X160955448Y-54980080D01*
X160989261Y-54859719D01*
X161019608Y-54722167D01*
X161048526Y-54560391D01*
X161052413Y-54535600D01*
X161056863Y-54502863D01*
X161060707Y-54467250D01*
X161063977Y-54426576D01*
X161066705Y-54378660D01*
X161068924Y-54321316D01*
X161070667Y-54252363D01*
X161071964Y-54169616D01*
X161072850Y-54070892D01*
X161073356Y-53954008D01*
X161073514Y-53816779D01*
X161073357Y-53657024D01*
X161072917Y-53472558D01*
X161072226Y-53261198D01*
X161071318Y-53020760D01*
X161070568Y-52845101D01*
X161069586Y-52648538D01*
X161068508Y-52462871D01*
X161067354Y-52290364D01*
X161066144Y-52133279D01*
X161064898Y-51993878D01*
X161063638Y-51874425D01*
X161062384Y-51777183D01*
X161061155Y-51704413D01*
X161059974Y-51658379D01*
X161058859Y-51641344D01*
X161057769Y-51640623D01*
X161034852Y-51637447D01*
X160985936Y-51634851D01*
X160915389Y-51632823D01*
X160827575Y-51631350D01*
X160726860Y-51630420D01*
X160617611Y-51630020D01*
X160504192Y-51630139D01*
X160390970Y-51630764D01*
X160282310Y-51631882D01*
X160182578Y-51633482D01*
X160096140Y-51635551D01*
X160027361Y-51638076D01*
X159980607Y-51641046D01*
X159960245Y-51644447D01*
X159957546Y-51647563D01*
X159953822Y-51658336D01*
X159950539Y-51678028D01*
X159947660Y-51708501D01*
X159945148Y-51751617D01*
X159942966Y-51809238D01*
X159941077Y-51883226D01*
X159939444Y-51975443D01*
X159938029Y-52087750D01*
X159936796Y-52222010D01*
X159935708Y-52380083D01*
X159934727Y-52563833D01*
X159933817Y-52775121D01*
X159932940Y-53015808D01*
X159932182Y-53206062D01*
X159930915Y-53440117D01*
X159929361Y-53654176D01*
X159927538Y-53846831D01*
X159925469Y-54016674D01*
X159923172Y-54162297D01*
X159920668Y-54282291D01*
X159917976Y-54375249D01*
X159915118Y-54439762D01*
X159912113Y-54474421D01*
X159889499Y-54572587D01*
X159834986Y-54699425D01*
X159755122Y-54808434D01*
X159650498Y-54899016D01*
X159521702Y-54970577D01*
X159369325Y-55022521D01*
X159303549Y-55037446D01*
X159193731Y-55050693D01*
X159086620Y-55045499D01*
X158968259Y-55021840D01*
X158936206Y-55013180D01*
X158810588Y-54967477D01*
X158708061Y-54907731D01*
X158623452Y-54831078D01*
X158589867Y-54791298D01*
X158547673Y-54729325D01*
X158514085Y-54659757D01*
X158485544Y-54574729D01*
X158458493Y-54466374D01*
X158453175Y-54442416D01*
X158447650Y-54415739D01*
X158442868Y-54388598D01*
X158438782Y-54358793D01*
X158435345Y-54324124D01*
X158432509Y-54282392D01*
X158430228Y-54231396D01*
X158428453Y-54168937D01*
X158427139Y-54092815D01*
X158426236Y-54000830D01*
X158425699Y-53890783D01*
X158425480Y-53760473D01*
X158425532Y-53607701D01*
X158425807Y-53430267D01*
X158426259Y-53225971D01*
X158426839Y-52992613D01*
X158427151Y-52858333D01*
X158427517Y-52627369D01*
X158427577Y-52425304D01*
X158427312Y-52250593D01*
X158426705Y-52101691D01*
X158425737Y-51977053D01*
X158424392Y-51875136D01*
X158422651Y-51794393D01*
X158420497Y-51733281D01*
X158417911Y-51690253D01*
X158414876Y-51663766D01*
X158411374Y-51652275D01*
X158409975Y-51650809D01*
X158398696Y-51644821D01*
X158377281Y-51640044D01*
X158342712Y-51636354D01*
X158291973Y-51633626D01*
X158222044Y-51631738D01*
X158129909Y-51630563D01*
X158012550Y-51629979D01*
X157866948Y-51629861D01*
X157776985Y-51630090D01*
X157657649Y-51631005D01*
X157550594Y-51632531D01*
X157459616Y-51634577D01*
X157388511Y-51637052D01*
X157341075Y-51639866D01*
X157321105Y-51642927D01*
X157320527Y-51643413D01*
X157317100Y-51652351D01*
X157314126Y-51672575D01*
X157311589Y-51705747D01*
X157309474Y-51753532D01*
X157307762Y-51817596D01*
X157306439Y-51899603D01*
X157305488Y-52001217D01*
X157304892Y-52124104D01*
X157304635Y-52269928D01*
X156408414Y-52269928D01*
X156408003Y-52201395D01*
X156406852Y-52064414D01*
X156405498Y-51949251D01*
X156403932Y-51854690D01*
X156402142Y-51779517D01*
X156400119Y-51722515D01*
X156397850Y-51682468D01*
X156395326Y-51658161D01*
X156392536Y-51648378D01*
X156378905Y-51644016D01*
X156336973Y-51639166D01*
X156271800Y-51635203D01*
X156187901Y-51632122D01*
X156089791Y-51629921D01*
X155981986Y-51628596D01*
X155868999Y-51628145D01*
X155755347Y-51628563D01*
X155645543Y-51629849D01*
X155544104Y-51631997D01*
X155455544Y-51635006D01*
X155384379Y-51638871D01*
X155335122Y-51643590D01*
X155312290Y-51649160D01*
X155310087Y-51651171D01*
X155306108Y-51657758D01*
X155302573Y-51669301D01*
X155299450Y-51687554D01*
X155296707Y-51714271D01*
X155294313Y-51751205D01*
X155292236Y-51800109D01*
X155290444Y-51862739D01*
X155288906Y-51940847D01*
X155287590Y-52036187D01*
X155286465Y-52150513D01*
X155285499Y-52285578D01*
X155284661Y-52443137D01*
X155283918Y-52624942D01*
X155283239Y-52832748D01*
X155282594Y-53068308D01*
X155281949Y-53333375D01*
X155278062Y-54998052D01*
X154617211Y-55002130D01*
X153956359Y-55006207D01*
X153939452Y-55049022D01*
X153938748Y-55051227D01*
X153934957Y-55081496D01*
X153932188Y-55136499D01*
X153930387Y-55211145D01*
X153929499Y-55300344D01*
X153929471Y-55399005D01*
X152337565Y-55399005D01*
X152300885Y-55281249D01*
X152260603Y-55152079D01*
X152224595Y-55036779D01*
X152195354Y-54943344D01*
X152173048Y-54872075D01*
X152142626Y-54774546D01*
X152114373Y-54683629D01*
X152090693Y-54607060D01*
X152073989Y-54552575D01*
X152068790Y-54535532D01*
X152048435Y-54469419D01*
X152022438Y-54385601D01*
X151993598Y-54293087D01*
X151964713Y-54200883D01*
X151909753Y-54025752D01*
X151836084Y-53790424D01*
X151759454Y-53544968D01*
X151677806Y-53282795D01*
X151589084Y-52997314D01*
X151557724Y-52896420D01*
X151514008Y-52756036D01*
X151469293Y-52612703D01*
X151426142Y-52474624D01*
X151387114Y-52350001D01*
X151354774Y-52247037D01*
X151327355Y-52159711D01*
X151286143Y-52027835D01*
X151243324Y-51890239D01*
X151202583Y-51758765D01*
X151167601Y-51645252D01*
X151138852Y-51551966D01*
X151111331Y-51463372D01*
X151087328Y-51386799D01*
X151068711Y-51328209D01*
X151057348Y-51293560D01*
X151046266Y-51259665D01*
X151027851Y-51201381D01*
X151004075Y-51125010D01*
X150976795Y-51036516D01*
X150947869Y-50941868D01*
X150919220Y-50848413D01*
X150891865Y-50760492D01*
X150867938Y-50684880D01*
X150849299Y-50627451D01*
X150837807Y-50594083D01*
X150815731Y-50535468D01*
X164764819Y-50535468D01*
X178713908Y-50535468D01*
X178783976Y-50758206D01*
X178805683Y-50827405D01*
X178836169Y-50924929D01*
X178871898Y-51039482D01*
X178910794Y-51164392D01*
X178950777Y-51292991D01*
X178989768Y-51418606D01*
X178990609Y-51421319D01*
X179028318Y-51542795D01*
X179065804Y-51663331D01*
X179101262Y-51777144D01*
X179132887Y-51878448D01*
X179158877Y-51961459D01*
X179177428Y-52020391D01*
X179192891Y-52069498D01*
X179218163Y-52150222D01*
X179249168Y-52249594D01*
X179284008Y-52361527D01*
X179320787Y-52479934D01*
X179357609Y-52598729D01*
X179382944Y-52680512D01*
X179424175Y-52813457D01*
X179466114Y-52948523D01*
X179506276Y-53077715D01*
X179542176Y-53193034D01*
X179571329Y-53286483D01*
X179715611Y-53749210D01*
X179872784Y-54255591D01*
X179927525Y-54432291D01*
X179999223Y-54663502D01*
X180067039Y-54881934D01*
X180130211Y-55085146D01*
X180187979Y-55270694D01*
X180239583Y-55436136D01*
X180284262Y-55579031D01*
X180292134Y-55604120D01*
X180321255Y-55696935D01*
G37*
G36*
X141767103Y-59546129D02*
G01*
X141776910Y-59566250D01*
X141775816Y-59572082D01*
X141734288Y-59609043D01*
X141635030Y-59655239D01*
X141481316Y-59709336D01*
X141276417Y-59770004D01*
X141195500Y-59792242D01*
X141072098Y-59824061D01*
X140988741Y-59839783D01*
X140932081Y-59840321D01*
X140888766Y-59826590D01*
X140845446Y-59799502D01*
X140792495Y-59754916D01*
X140784969Y-59720157D01*
X140833024Y-59695291D01*
X140940149Y-59675759D01*
X140966545Y-59672020D01*
X141087892Y-59652100D01*
X141236435Y-59624879D01*
X141385900Y-59595112D01*
X141549374Y-59562305D01*
X141662164Y-59543505D01*
X141731798Y-59538330D01*
X141767103Y-59546129D01*
G37*
G36*
X141672838Y-58620803D02*
G01*
X141665989Y-58697355D01*
X141653924Y-58739636D01*
X141606620Y-58856059D01*
X141538376Y-58992850D01*
X141459853Y-59129461D01*
X141381709Y-59245345D01*
X141339342Y-59293416D01*
X141211763Y-59396292D01*
X141045004Y-59493323D01*
X140854535Y-59574840D01*
X140697988Y-59613825D01*
X140468665Y-59624279D01*
X140233859Y-59588505D01*
X140012757Y-59508024D01*
X139894652Y-59441862D01*
X139783282Y-59360437D01*
X139708461Y-59282424D01*
X139681097Y-59217381D01*
X139688487Y-59191129D01*
X139735074Y-59173133D01*
X139816364Y-59191681D01*
X139922859Y-59245664D01*
X139998174Y-59289168D01*
X140196261Y-59377967D01*
X140383268Y-59426382D01*
X140545123Y-59430235D01*
X140617863Y-59416451D01*
X140825058Y-59339581D01*
X141034352Y-59210831D01*
X141236331Y-59036717D01*
X141421580Y-58823751D01*
X141519365Y-58702521D01*
X141597560Y-58624403D01*
X141649373Y-58596825D01*
X141672838Y-58620803D01*
G37*
G36*
X133181652Y-63690369D02*
G01*
X133197056Y-63717974D01*
X133210790Y-63807422D01*
X133209022Y-63939293D01*
X133193872Y-64102566D01*
X133167461Y-64286222D01*
X133131910Y-64479241D01*
X133089339Y-64670603D01*
X133041870Y-64849290D01*
X132991623Y-65004281D01*
X132940719Y-65124557D01*
X132891280Y-65199098D01*
X132839808Y-65235569D01*
X132722526Y-65258251D01*
X132567652Y-65231298D01*
X132374967Y-65154693D01*
X132365459Y-65150118D01*
X132199302Y-65062337D01*
X132093455Y-64989961D01*
X132047373Y-64934707D01*
X132060511Y-64898291D01*
X132132323Y-64882428D01*
X132262264Y-64888834D01*
X132449790Y-64919225D01*
X132504864Y-64929823D01*
X132625019Y-64948548D01*
X132694681Y-64950303D01*
X132720940Y-64935515D01*
X132722424Y-64929878D01*
X132734880Y-64873527D01*
X132756150Y-64771396D01*
X132783681Y-64635870D01*
X132814923Y-64479331D01*
X132824593Y-64431259D01*
X132885066Y-64164984D01*
X132946063Y-63953870D01*
X133006901Y-63799386D01*
X133066900Y-63702996D01*
X133125378Y-63666168D01*
X133181652Y-63690369D01*
G37*
G36*
X154353296Y-67266305D02*
G01*
X154348752Y-67363301D01*
X154327427Y-67519766D01*
X154288618Y-67735396D01*
X154250734Y-67913234D01*
X154171540Y-68197356D01*
X154077948Y-68426667D01*
X153966829Y-68605720D01*
X153835050Y-68739069D01*
X153679483Y-68831269D01*
X153496995Y-68886872D01*
X153369295Y-68901354D01*
X153202027Y-68888145D01*
X153005722Y-68838577D01*
X152921562Y-68805554D01*
X152821168Y-68749854D01*
X152734939Y-68686146D01*
X152670741Y-68622516D01*
X152636442Y-68567052D01*
X152639909Y-68527843D01*
X152689008Y-68512976D01*
X152732286Y-68519239D01*
X152821801Y-68541947D01*
X152928511Y-68575537D01*
X152982093Y-68592696D01*
X153215838Y-68636402D01*
X153431558Y-68625902D01*
X153623597Y-68562857D01*
X153786298Y-68448931D01*
X153914005Y-68285787D01*
X153925419Y-68264832D01*
X153973740Y-68160073D01*
X154031732Y-68016264D01*
X154093089Y-67849585D01*
X154151508Y-67676214D01*
X154217787Y-67479100D01*
X154273307Y-67335176D01*
X154314868Y-67251938D01*
X154341767Y-67229083D01*
X154353296Y-67266305D01*
G37*
G36*
X151164229Y-66170603D02*
G01*
X151304943Y-66173673D01*
X151401154Y-66178562D01*
X151456333Y-66185310D01*
X151473954Y-66193960D01*
X151473669Y-66196631D01*
X151441512Y-66220699D01*
X151372292Y-66231937D01*
X151359980Y-66232338D01*
X151282266Y-66235939D01*
X151156307Y-66242569D01*
X150993016Y-66251626D01*
X150803307Y-66262509D01*
X150598092Y-66274617D01*
X150565078Y-66276548D01*
X150348885Y-66287448D01*
X150111623Y-66296856D01*
X149860892Y-66304705D01*
X149604289Y-66310931D01*
X149349415Y-66315471D01*
X149103868Y-66318258D01*
X148875249Y-66319229D01*
X148671156Y-66318319D01*
X148499189Y-66315463D01*
X148366946Y-66310596D01*
X148282028Y-66303654D01*
X148252033Y-66294573D01*
X148263181Y-66273447D01*
X148300030Y-66254837D01*
X148366678Y-66238830D01*
X148467221Y-66225152D01*
X148605752Y-66213527D01*
X148786367Y-66203682D01*
X149013163Y-66195342D01*
X149290233Y-66188233D01*
X149621672Y-66182079D01*
X150011577Y-66176607D01*
X150086863Y-66175687D01*
X150440327Y-66171894D01*
X150735393Y-66169755D01*
X150975536Y-66169311D01*
X151164229Y-66170603D01*
G37*
G36*
X152664924Y-65142546D02*
G01*
X152693905Y-65159116D01*
X152680961Y-65173848D01*
X152611507Y-65198478D01*
X152481446Y-65225941D01*
X152290155Y-65256361D01*
X152037008Y-65289861D01*
X151708079Y-65330250D01*
X151348569Y-65373753D01*
X151040844Y-65410123D01*
X150779223Y-65439990D01*
X150558028Y-65463985D01*
X150371576Y-65482738D01*
X150214189Y-65496880D01*
X150080185Y-65507040D01*
X149942425Y-65516014D01*
X149786072Y-65525469D01*
X149654222Y-65532677D01*
X149565826Y-65536552D01*
X149460126Y-65536240D01*
X149336983Y-65530354D01*
X149214112Y-65520361D01*
X149107077Y-65507793D01*
X149031442Y-65494185D01*
X149002772Y-65481070D01*
X149003284Y-65479714D01*
X149038888Y-65469174D01*
X149119496Y-65459958D01*
X149229558Y-65453927D01*
X149322181Y-65449757D01*
X149503136Y-65438205D01*
X149734161Y-65420693D01*
X150008131Y-65397884D01*
X150317917Y-65370445D01*
X150656393Y-65339041D01*
X151016432Y-65304338D01*
X151390908Y-65267000D01*
X151772692Y-65227693D01*
X152154659Y-65187083D01*
X152529681Y-65145834D01*
X152583831Y-65141060D01*
X152664924Y-65142546D01*
G37*
G36*
X151520984Y-64185938D02*
G01*
X151618589Y-64194719D01*
X151655694Y-64210695D01*
X151645077Y-64227423D01*
X151581119Y-64257121D01*
X151465140Y-64292921D01*
X151302978Y-64333569D01*
X151100471Y-64377810D01*
X150863456Y-64424391D01*
X150597774Y-64472056D01*
X150309261Y-64519551D01*
X150003757Y-64565623D01*
X149910032Y-64576438D01*
X149716683Y-64589470D01*
X149486948Y-64596913D01*
X149236883Y-64598878D01*
X148982543Y-64595477D01*
X148739984Y-64586820D01*
X148525261Y-64573019D01*
X148354430Y-64554185D01*
X148342255Y-64552361D01*
X148134137Y-64515517D01*
X147965455Y-64474805D01*
X147839976Y-64432230D01*
X147761463Y-64389795D01*
X147733684Y-64349502D01*
X147760402Y-64313356D01*
X147845383Y-64283359D01*
X147883702Y-64278720D01*
X147983702Y-64274085D01*
X148129025Y-64271610D01*
X148309666Y-64271356D01*
X148515620Y-64273388D01*
X148736885Y-64277768D01*
X149033065Y-64283372D01*
X149344987Y-64283972D01*
X149640964Y-64277523D01*
X149946046Y-64263434D01*
X150285284Y-64241109D01*
X150558381Y-64222047D01*
X150881577Y-64202408D01*
X151150836Y-64189819D01*
X151364519Y-64184317D01*
X151520984Y-64185938D01*
G37*
G36*
X150677620Y-67608485D02*
G01*
X150767321Y-67663013D01*
X150850109Y-67716828D01*
X151078901Y-67826376D01*
X151344419Y-67909723D01*
X151630869Y-67962531D01*
X151922457Y-67980458D01*
X152014080Y-67977800D01*
X152125960Y-67967857D01*
X152253096Y-67948837D01*
X152404421Y-67918953D01*
X152588864Y-67876418D01*
X152815358Y-67819445D01*
X153092833Y-67746246D01*
X153185644Y-67721879D01*
X153367358Y-67678383D01*
X153491513Y-67656080D01*
X153559006Y-67654909D01*
X153570735Y-67674807D01*
X153527596Y-67715710D01*
X153489999Y-67739129D01*
X153385600Y-67791480D01*
X153241104Y-67855351D01*
X153068818Y-67926029D01*
X152881045Y-67998795D01*
X152690092Y-68068934D01*
X152508262Y-68131730D01*
X152347862Y-68182466D01*
X152221196Y-68216427D01*
X152145792Y-68230649D01*
X151943272Y-68250337D01*
X151715760Y-68253050D01*
X151484788Y-68239707D01*
X151271886Y-68211227D01*
X151098585Y-68168527D01*
X150953852Y-68113792D01*
X150789274Y-68035123D01*
X150661123Y-67953877D01*
X150581929Y-67877121D01*
X150547261Y-67797559D01*
X150536196Y-67707007D01*
X150548578Y-67628538D01*
X150584227Y-67585183D01*
X150606936Y-67583801D01*
X150677620Y-67608485D01*
G37*
G36*
X149355227Y-67095981D02*
G01*
X149627150Y-67103069D01*
X149881331Y-67114415D01*
X150104974Y-67129920D01*
X150285284Y-67149484D01*
X150539485Y-67186336D01*
X150829951Y-67232080D01*
X151090429Y-67277175D01*
X151315562Y-67320511D01*
X151499990Y-67360979D01*
X151638358Y-67397468D01*
X151725308Y-67428869D01*
X151755481Y-67454071D01*
X151731854Y-67466840D01*
X151650271Y-67475778D01*
X151514682Y-67478864D01*
X151329485Y-67476168D01*
X151099078Y-67467762D01*
X150827858Y-67453716D01*
X150520222Y-67434103D01*
X150468612Y-67430646D01*
X150222190Y-67416133D01*
X149939260Y-67402023D01*
X149640810Y-67389232D01*
X149347829Y-67378675D01*
X149081306Y-67371271D01*
X148919466Y-67367518D01*
X148558039Y-67358009D01*
X148256823Y-67348243D01*
X148014138Y-67338132D01*
X147828306Y-67327587D01*
X147697648Y-67316518D01*
X147620485Y-67304836D01*
X147595136Y-67292453D01*
X147595312Y-67290704D01*
X147628558Y-67263345D01*
X147711373Y-67230530D01*
X147832289Y-67195603D01*
X147979838Y-67161909D01*
X148142550Y-67132793D01*
X148177349Y-67127906D01*
X148346040Y-67112207D01*
X148560969Y-67101265D01*
X148809341Y-67094979D01*
X149078358Y-67093251D01*
X149355227Y-67095981D01*
G37*
G36*
X154087494Y-65688189D02*
G01*
X154175083Y-65760138D01*
X154299193Y-65881543D01*
X154368162Y-65954932D01*
X154517983Y-66138513D01*
X154621750Y-66306357D01*
X154676685Y-66453405D01*
X154680008Y-66574600D01*
X154675699Y-66592040D01*
X154607266Y-66728672D01*
X154484110Y-66852411D01*
X154312730Y-66959097D01*
X154099625Y-67044576D01*
X153851294Y-67104690D01*
X153782622Y-67113651D01*
X153655168Y-67123276D01*
X153504718Y-67129600D01*
X153348352Y-67132374D01*
X153203146Y-67131349D01*
X153086181Y-67126276D01*
X153014533Y-67116905D01*
X152982074Y-67106277D01*
X152943761Y-67075441D01*
X152964102Y-67040245D01*
X153040644Y-67003049D01*
X153170937Y-66966217D01*
X153295295Y-66937706D01*
X153458854Y-66900234D01*
X153601048Y-66867683D01*
X153650019Y-66856017D01*
X153857230Y-66796682D01*
X154047251Y-66727071D01*
X154205117Y-66653184D01*
X154315864Y-66581022D01*
X154345607Y-66555523D01*
X154391605Y-66505646D01*
X154400153Y-66457833D01*
X154379843Y-66385882D01*
X154378854Y-66383031D01*
X154336921Y-66283989D01*
X154289197Y-66198197D01*
X154286143Y-66193635D01*
X154242644Y-66123484D01*
X154182573Y-66020960D01*
X154117967Y-65906564D01*
X154110920Y-65893769D01*
X154048139Y-65768486D01*
X154023593Y-65692422D01*
X154036854Y-65665637D01*
X154087494Y-65688189D01*
G37*
G36*
X145845528Y-65733580D02*
G01*
X145759417Y-65849817D01*
X145634724Y-65951153D01*
X145475927Y-66028444D01*
X145413543Y-66045149D01*
X145292387Y-66063860D01*
X145165455Y-66071701D01*
X145109578Y-66071439D01*
X145011413Y-66062998D01*
X144940786Y-66038054D01*
X144873363Y-65989782D01*
X144845805Y-65965990D01*
X144799719Y-65913608D01*
X144785421Y-65855158D01*
X144793129Y-65762996D01*
X144797767Y-65726025D01*
X144800322Y-65702510D01*
X144975951Y-65702510D01*
X144976572Y-65794166D01*
X145028055Y-65853008D01*
X145072901Y-65870045D01*
X145199973Y-65880277D01*
X145361850Y-65855784D01*
X145404483Y-65844046D01*
X145527665Y-65786950D01*
X145607507Y-65713492D01*
X145644082Y-65633987D01*
X145637459Y-65558748D01*
X145587712Y-65498091D01*
X145494911Y-65462330D01*
X145359126Y-65461780D01*
X145279377Y-65472751D01*
X145165743Y-65493495D01*
X145092980Y-65518673D01*
X145046916Y-65554196D01*
X145013379Y-65605974D01*
X144975951Y-65702510D01*
X144800322Y-65702510D01*
X144808928Y-65623289D01*
X144814760Y-65548101D01*
X144839831Y-65490653D01*
X144917821Y-65427629D01*
X145051738Y-65360430D01*
X145244649Y-65287197D01*
X145268641Y-65279113D01*
X145435565Y-65236750D01*
X145570114Y-65235008D01*
X145687438Y-65275904D01*
X145802689Y-65361453D01*
X145827574Y-65386880D01*
X145884085Y-65492969D01*
X145888576Y-65611583D01*
X145880670Y-65633987D01*
X145845528Y-65733580D01*
G37*
G36*
X133858015Y-63626724D02*
G01*
X133871139Y-63721128D01*
X133858646Y-63867779D01*
X133845081Y-63945741D01*
X133815747Y-64082586D01*
X133785253Y-64196227D01*
X133743539Y-64343305D01*
X133697032Y-64607559D01*
X133697268Y-64837349D01*
X133744114Y-65030154D01*
X133837439Y-65183454D01*
X133861135Y-65208850D01*
X133959046Y-65278728D01*
X134054967Y-65289117D01*
X134149362Y-65239506D01*
X134242698Y-65129383D01*
X134335437Y-64958238D01*
X134428043Y-64725558D01*
X134520982Y-64430833D01*
X134551884Y-64324591D01*
X134607587Y-64146094D01*
X134654101Y-64019617D01*
X134694221Y-63939014D01*
X134730741Y-63898138D01*
X134766456Y-63890842D01*
X134786035Y-63899451D01*
X134804024Y-63932710D01*
X134811009Y-64002095D01*
X134809432Y-64120675D01*
X134802832Y-64224400D01*
X134768522Y-64456523D01*
X134710564Y-64688322D01*
X134633431Y-64909439D01*
X134541595Y-65109513D01*
X134439529Y-65278186D01*
X134331707Y-65405098D01*
X134222600Y-65479889D01*
X134207889Y-65485673D01*
X134056201Y-65511158D01*
X133897241Y-65486604D01*
X133749665Y-65417412D01*
X133632130Y-65308983D01*
X133615570Y-65286574D01*
X133534586Y-65144468D01*
X133484552Y-64981972D01*
X133462725Y-64786453D01*
X133466362Y-64545277D01*
X133487487Y-64300266D01*
X133524672Y-64083421D01*
X133579817Y-63902953D01*
X133656000Y-63745883D01*
X133699784Y-63677956D01*
X133768853Y-63603042D01*
X133822758Y-63586664D01*
X133858015Y-63626724D01*
G37*
G36*
X152604191Y-62962575D02*
G01*
X152795458Y-62966468D01*
X152941209Y-62977489D01*
X153053924Y-62998615D01*
X153146082Y-63032823D01*
X153230165Y-63083089D01*
X153318652Y-63152389D01*
X153401436Y-63237913D01*
X153507532Y-63387451D01*
X153605968Y-63566153D01*
X153686956Y-63755797D01*
X153740710Y-63938160D01*
X153741615Y-63942498D01*
X153747769Y-64012908D01*
X153731737Y-64039823D01*
X153722830Y-64037861D01*
X153679523Y-64004924D01*
X153611062Y-63928855D01*
X153514690Y-63806405D01*
X153387649Y-63634322D01*
X153379640Y-63623311D01*
X153259406Y-63474695D01*
X153139097Y-63365222D01*
X153006475Y-63289607D01*
X152849305Y-63242567D01*
X152655351Y-63218814D01*
X152412378Y-63213065D01*
X152304801Y-63214351D01*
X152158047Y-63220804D01*
X152040045Y-63235265D01*
X151929509Y-63260797D01*
X151805151Y-63300465D01*
X151740150Y-63323663D01*
X151550615Y-63404278D01*
X151410702Y-63488977D01*
X151310426Y-63583472D01*
X151272655Y-63642523D01*
X151259921Y-63735549D01*
X151299626Y-63847721D01*
X151316476Y-63885473D01*
X151326608Y-63957723D01*
X151298092Y-63994758D01*
X151241295Y-63995056D01*
X151166582Y-63957093D01*
X151084318Y-63879347D01*
X151028688Y-63792194D01*
X150999208Y-63657359D01*
X151028824Y-63518580D01*
X151116998Y-63383976D01*
X151191762Y-63312640D01*
X151345763Y-63209799D01*
X151548204Y-63117739D01*
X151806093Y-63032890D01*
X151825375Y-63027437D01*
X151936112Y-62999763D01*
X152045052Y-62981002D01*
X152168273Y-62969568D01*
X152321851Y-62963877D01*
X152521861Y-62962346D01*
X152604191Y-62962575D01*
G37*
G36*
X145176372Y-64664644D02*
G01*
X145144637Y-64766073D01*
X145133999Y-64791996D01*
X145030582Y-64956250D01*
X144878655Y-65099677D01*
X144689651Y-65213358D01*
X144475005Y-65288375D01*
X144399099Y-65303688D01*
X144160143Y-65321289D01*
X143923688Y-65296856D01*
X143700891Y-65234250D01*
X143502911Y-65137334D01*
X143340904Y-65009971D01*
X143226029Y-64856024D01*
X143192709Y-64779254D01*
X143159582Y-64609787D01*
X143167644Y-64476200D01*
X143351226Y-64476200D01*
X143354529Y-64635514D01*
X143414716Y-64784432D01*
X143528882Y-64916017D01*
X143694119Y-65023329D01*
X143814956Y-65071567D01*
X144022117Y-65114346D01*
X144235957Y-65117322D01*
X144443875Y-65083010D01*
X144633271Y-65013925D01*
X144791544Y-64912580D01*
X144906093Y-64781490D01*
X144957216Y-64656984D01*
X144953758Y-64527505D01*
X144889974Y-64397497D01*
X144764953Y-64263624D01*
X144729497Y-64233773D01*
X144534606Y-64107345D01*
X144326101Y-64027215D01*
X144116831Y-63997078D01*
X143919644Y-64020626D01*
X143860411Y-64037499D01*
X143682170Y-64097979D01*
X143553174Y-64162025D01*
X143463094Y-64235705D01*
X143401603Y-64325089D01*
X143351226Y-64476200D01*
X143167644Y-64476200D01*
X143170144Y-64434782D01*
X143219118Y-64265395D01*
X143301231Y-64112780D01*
X143411208Y-63988092D01*
X143543774Y-63902487D01*
X143693653Y-63867119D01*
X143709735Y-63866221D01*
X143833529Y-63849683D01*
X143948598Y-63821625D01*
X144047032Y-63799511D01*
X144234965Y-63797058D01*
X144436996Y-63835389D01*
X144634588Y-63912059D01*
X144814832Y-64016047D01*
X144976002Y-64149964D01*
X145088492Y-64303727D01*
X145159712Y-64485427D01*
X145179521Y-64579468D01*
X145176655Y-64656984D01*
X145176372Y-64664644D01*
G37*
G36*
X136056944Y-64938402D02*
G01*
X136074464Y-65219233D01*
X136078487Y-65321894D01*
X136082590Y-65473806D01*
X136081496Y-65580701D01*
X136074446Y-65653960D01*
X136060684Y-65704966D01*
X136039451Y-65745100D01*
X136023354Y-65767475D01*
X135962198Y-65814467D01*
X135903839Y-65803390D01*
X135851504Y-65737793D01*
X135808418Y-65621225D01*
X135777807Y-65457236D01*
X135755173Y-65276045D01*
X135553290Y-65232522D01*
X135502993Y-65221762D01*
X135414385Y-65205487D01*
X135362915Y-65205574D01*
X135331519Y-65224116D01*
X135303136Y-65263206D01*
X135268312Y-65313143D01*
X135193163Y-65406136D01*
X135114655Y-65489490D01*
X135046142Y-65549529D01*
X135000979Y-65572581D01*
X134973669Y-65556888D01*
X134957698Y-65500367D01*
X134959517Y-65476185D01*
X134982604Y-65375260D01*
X135028336Y-65234831D01*
X135091792Y-65066523D01*
X135144481Y-64939000D01*
X135489471Y-64939000D01*
X135491149Y-64941655D01*
X135527998Y-64963609D01*
X135597950Y-64995483D01*
X135615522Y-65002736D01*
X135685994Y-65029839D01*
X135723073Y-65040808D01*
X135728990Y-65017870D01*
X135734552Y-64943869D01*
X135738327Y-64830904D01*
X135739718Y-64691506D01*
X135738870Y-64566587D01*
X135736200Y-64453437D01*
X135732144Y-64379015D01*
X135727145Y-64355237D01*
X135722634Y-64363146D01*
X135698805Y-64415967D01*
X135661252Y-64504549D01*
X135616313Y-64613325D01*
X135570327Y-64726726D01*
X135529633Y-64829184D01*
X135500568Y-64905131D01*
X135489471Y-64939000D01*
X135144481Y-64939000D01*
X135168049Y-64881960D01*
X135252182Y-64692768D01*
X135339270Y-64510570D01*
X135424389Y-64346992D01*
X135502617Y-64213657D01*
X135516780Y-64192074D01*
X135616340Y-64070679D01*
X135711688Y-64004265D01*
X135798103Y-63993622D01*
X135870867Y-64039541D01*
X135925260Y-64142814D01*
X135950285Y-64229066D01*
X135992912Y-64429303D01*
X136029112Y-64670420D01*
X136031302Y-64691506D01*
X136056944Y-64938402D01*
G37*
G36*
X137256306Y-64205930D02*
G01*
X137377483Y-64239262D01*
X137443055Y-64275322D01*
X137558227Y-64380451D01*
X137652796Y-64519492D01*
X137712423Y-64673840D01*
X137717271Y-64695874D01*
X137736274Y-64860307D01*
X137737636Y-65057030D01*
X137722891Y-65262658D01*
X137693574Y-65453802D01*
X137651218Y-65607078D01*
X137624113Y-65671643D01*
X137521679Y-65845741D01*
X137396290Y-65977805D01*
X137256836Y-66057678D01*
X137227526Y-66067711D01*
X137147591Y-66092363D01*
X137100432Y-66102807D01*
X137037318Y-66095896D01*
X136923570Y-66061220D01*
X136803509Y-66006684D01*
X136702694Y-65942583D01*
X136694619Y-65936036D01*
X136594247Y-65827788D01*
X136507303Y-65687648D01*
X136437856Y-65529230D01*
X136389979Y-65366154D01*
X136367741Y-65212037D01*
X136375214Y-65080496D01*
X136416469Y-64985148D01*
X136485947Y-64936007D01*
X136601549Y-64912722D01*
X136742793Y-64923324D01*
X136896124Y-64966606D01*
X137047985Y-65041361D01*
X137120031Y-65093975D01*
X137140492Y-65134218D01*
X137104355Y-65161379D01*
X137009861Y-65176737D01*
X136855251Y-65181572D01*
X136584204Y-65181572D01*
X136584251Y-65264861D01*
X136584832Y-65278196D01*
X136610409Y-65380555D01*
X136665731Y-65505402D01*
X136739539Y-65632913D01*
X136820578Y-65743264D01*
X136897589Y-65816632D01*
X136902588Y-65819966D01*
X137024106Y-65869685D01*
X137142715Y-65863951D01*
X137254037Y-65809570D01*
X137353697Y-65713348D01*
X137437315Y-65582092D01*
X137500516Y-65422608D01*
X137538921Y-65241703D01*
X137548154Y-65046182D01*
X137523837Y-64842853D01*
X137476382Y-64687290D01*
X137388968Y-64548820D01*
X137267840Y-64463015D01*
X137112396Y-64429481D01*
X136922033Y-64447822D01*
X136867137Y-64459008D01*
X136781450Y-64471620D01*
X136733745Y-64467092D01*
X136708659Y-64445238D01*
X136694290Y-64405940D01*
X136712705Y-64342110D01*
X136776050Y-64285912D01*
X136873204Y-64240769D01*
X136993045Y-64210108D01*
X137124453Y-64197354D01*
X137256306Y-64205930D01*
G37*
G36*
X154301531Y-63463541D02*
G01*
X154525309Y-63504720D01*
X154563795Y-63512926D01*
X154828559Y-63587991D01*
X155037580Y-63686050D01*
X155194249Y-63810551D01*
X155301956Y-63964938D01*
X155364094Y-64152656D01*
X155384053Y-64377151D01*
X155382671Y-64418483D01*
X155366176Y-64555528D01*
X155337020Y-64683928D01*
X155314683Y-64760423D01*
X155305616Y-64820446D01*
X155320098Y-64859843D01*
X155360481Y-64900309D01*
X155438394Y-64977728D01*
X155553463Y-65119133D01*
X155657991Y-65276953D01*
X155743342Y-65436239D01*
X155800884Y-65582041D01*
X155821984Y-65699409D01*
X155796372Y-65869595D01*
X155714028Y-66038378D01*
X155580149Y-66183335D01*
X155400121Y-66296839D01*
X155368062Y-66311611D01*
X155223568Y-66366146D01*
X155118824Y-66385038D01*
X155057415Y-66370568D01*
X155042927Y-66325019D01*
X155078944Y-66250670D01*
X155169053Y-66149804D01*
X155228209Y-66089124D01*
X155322274Y-65976752D01*
X155401987Y-65863239D01*
X155457232Y-65763556D01*
X155477895Y-65692674D01*
X155467780Y-65625422D01*
X155431907Y-65504406D01*
X155373893Y-65349407D01*
X155297715Y-65171917D01*
X155209771Y-64978181D01*
X155098192Y-65127636D01*
X155060204Y-65174994D01*
X154932858Y-65301861D01*
X154787616Y-65411598D01*
X154641667Y-65492339D01*
X154512199Y-65532218D01*
X154428813Y-65536176D01*
X154388906Y-65516611D01*
X154393874Y-65468808D01*
X154444210Y-65388178D01*
X154540408Y-65270126D01*
X154540669Y-65269824D01*
X154635809Y-65146040D01*
X154734032Y-64996944D01*
X154814115Y-64854746D01*
X154835487Y-64811531D01*
X154886627Y-64697923D01*
X154915249Y-64603499D01*
X154927738Y-64501357D01*
X154930481Y-64364593D01*
X154930316Y-64314950D01*
X154926630Y-64200369D01*
X154915056Y-64125020D01*
X154891603Y-64071425D01*
X154852279Y-64022102D01*
X154821395Y-63994798D01*
X154733382Y-63934931D01*
X154614645Y-63866326D01*
X154481933Y-63799070D01*
X154379237Y-63749620D01*
X154191368Y-63651348D01*
X154062567Y-63571226D01*
X153992746Y-63509846D01*
X153981819Y-63467797D01*
X154029699Y-63445670D01*
X154136298Y-63444054D01*
X154301531Y-63463541D01*
G37*
G36*
X141940287Y-55612660D02*
G01*
X141907063Y-55867517D01*
X141856686Y-56161090D01*
X141788484Y-56500323D01*
X141701783Y-56892163D01*
X141584232Y-57356145D01*
X141451661Y-57777217D01*
X141307040Y-58139741D01*
X141149407Y-58445336D01*
X140977798Y-58695619D01*
X140791249Y-58892210D01*
X140588796Y-59036729D01*
X140369477Y-59130793D01*
X140179355Y-59158076D01*
X139983261Y-59131595D01*
X139799634Y-59055527D01*
X139645488Y-58934486D01*
X139598583Y-58877477D01*
X139507988Y-58732484D01*
X139420752Y-58552649D01*
X139344992Y-58355618D01*
X139288822Y-58159035D01*
X139284668Y-58140039D01*
X139258613Y-57971368D01*
X139239217Y-57755829D01*
X139226477Y-57506887D01*
X139220386Y-57238005D01*
X139220942Y-56962648D01*
X139228138Y-56694281D01*
X139241972Y-56446367D01*
X139262437Y-56232371D01*
X139289531Y-56065756D01*
X139293629Y-56045496D01*
X139295131Y-55986395D01*
X139267144Y-55969380D01*
X139214728Y-55946169D01*
X139144887Y-55883623D01*
X139073804Y-55797477D01*
X139016350Y-55703493D01*
X138981667Y-55615371D01*
X138939642Y-55447638D01*
X138909002Y-55249573D01*
X138891099Y-55039218D01*
X138887283Y-54834614D01*
X138898906Y-54653802D01*
X138927320Y-54514823D01*
X138938069Y-54483343D01*
X138993005Y-54341375D01*
X139053290Y-54209736D01*
X139112449Y-54100615D01*
X139164007Y-54026203D01*
X139201487Y-53998690D01*
X139222358Y-54003668D01*
X139237181Y-54031801D01*
X139239634Y-54096251D01*
X139231541Y-54209835D01*
X139230017Y-54227534D01*
X139221204Y-54348788D01*
X139211287Y-54509898D01*
X139201373Y-54691963D01*
X139192568Y-54876081D01*
X139187317Y-55068080D01*
X139194040Y-55313037D01*
X139218910Y-55502008D01*
X139262314Y-55637457D01*
X139324635Y-55721845D01*
X139339651Y-55731939D01*
X139388713Y-55732930D01*
X139441995Y-55684809D01*
X139501449Y-55584506D01*
X139569026Y-55428950D01*
X139646676Y-55215070D01*
X139655120Y-55190621D01*
X139745822Y-54951214D01*
X139859244Y-54683809D01*
X139989138Y-54400825D01*
X140129256Y-54114678D01*
X140273353Y-53837788D01*
X140415180Y-53582572D01*
X140548491Y-53361448D01*
X140667037Y-53186834D01*
X140822559Y-52985512D01*
X141075484Y-52696294D01*
X141319715Y-52465504D01*
X141554464Y-52293501D01*
X141778947Y-52180640D01*
X141992377Y-52127280D01*
X142193966Y-52133778D01*
X142382929Y-52200490D01*
X142558480Y-52327774D01*
X142707797Y-52496554D01*
X142853537Y-52745060D01*
X142960889Y-53041075D01*
X143029158Y-53383037D01*
X143034377Y-53426727D01*
X143044908Y-53609277D01*
X143039499Y-53788767D01*
X143019761Y-53950504D01*
X142987306Y-54079792D01*
X142943746Y-54161938D01*
X142895330Y-54200163D01*
X142817104Y-54214248D01*
X142749697Y-54174448D01*
X142734242Y-54139075D01*
X142706819Y-54050662D01*
X142671668Y-53921213D01*
X142631676Y-53761428D01*
X142589734Y-53582006D01*
X142524587Y-53301750D01*
X142464760Y-53064408D01*
X142411572Y-52878655D01*
X142363217Y-52739311D01*
X142317888Y-52641195D01*
X142273778Y-52579126D01*
X142229080Y-52547924D01*
X142165823Y-52530020D01*
X142031358Y-52529692D01*
X141881508Y-52577451D01*
X141712803Y-52675098D01*
X141521770Y-52824433D01*
X141304936Y-53027258D01*
X141204469Y-53131254D01*
X140897150Y-53500894D01*
X140613332Y-53923299D01*
X140356235Y-54393326D01*
X140129078Y-54905833D01*
X140041665Y-55119099D01*
X139931071Y-55364077D01*
X139828417Y-55559081D01*
X139730259Y-55710494D01*
X139633151Y-55824702D01*
X139502225Y-55955628D01*
X139482034Y-56298772D01*
X139469101Y-56526031D01*
X139452350Y-56858995D01*
X139441589Y-57140623D01*
X139436797Y-57377751D01*
X139437954Y-57577214D01*
X139445039Y-57745847D01*
X139458033Y-57890484D01*
X139476914Y-58017960D01*
X139492872Y-58099490D01*
X139562396Y-58354842D01*
X139652213Y-58565731D01*
X139759511Y-58726502D01*
X139881478Y-58831500D01*
X139958493Y-58871028D01*
X140081741Y-58904120D01*
X140214402Y-58896166D01*
X140375921Y-58847809D01*
X140453867Y-58813981D01*
X140653591Y-58683536D01*
X140842404Y-58496297D01*
X141016706Y-58256242D01*
X141172899Y-57967345D01*
X141240616Y-57822577D01*
X141114263Y-57805630D01*
X141106038Y-57804446D01*
X140971322Y-57757093D01*
X140860141Y-57658767D01*
X140771171Y-57507250D01*
X140703087Y-57300325D01*
X140654565Y-57035773D01*
X140629524Y-56767555D01*
X140625323Y-56469171D01*
X140644194Y-56177581D01*
X140684035Y-55898360D01*
X140742747Y-55637080D01*
X140785806Y-55501439D01*
X141121297Y-55501439D01*
X141131270Y-55674134D01*
X141166936Y-55802228D01*
X141230147Y-55894672D01*
X141244426Y-55908830D01*
X141300295Y-55954845D01*
X141349958Y-55962285D01*
X141423177Y-55937799D01*
X141455288Y-55922564D01*
X141519074Y-55867871D01*
X141561322Y-55781773D01*
X141585813Y-55654163D01*
X141596329Y-55474935D01*
X141597091Y-55395767D01*
X141587750Y-55243276D01*
X141558838Y-55133134D01*
X141505637Y-55052020D01*
X141423431Y-54986614D01*
X141403839Y-54976605D01*
X141329550Y-54976018D01*
X141257891Y-55026186D01*
X141195563Y-55118024D01*
X141149263Y-55242448D01*
X141125692Y-55390374D01*
X141121297Y-55501439D01*
X140785806Y-55501439D01*
X140818226Y-55399314D01*
X140908372Y-55190637D01*
X141011084Y-55016621D01*
X141124261Y-54882839D01*
X141245801Y-54794865D01*
X141373603Y-54758273D01*
X141505565Y-54778634D01*
X141570849Y-54802045D01*
X141606120Y-54811990D01*
X141612496Y-54800768D01*
X141606762Y-54742149D01*
X141584691Y-54643315D01*
X141549760Y-54515510D01*
X141505447Y-54369974D01*
X141455232Y-54217949D01*
X141402591Y-54070677D01*
X141351003Y-53939399D01*
X141303947Y-53835358D01*
X141246236Y-53707612D01*
X141219193Y-53610703D01*
X141230144Y-53563006D01*
X141277564Y-53565500D01*
X141359928Y-53619166D01*
X141475711Y-53724983D01*
X141537099Y-53788788D01*
X141598385Y-53864513D01*
X141645792Y-53946597D01*
X141689270Y-54053083D01*
X141738769Y-54202015D01*
X141757645Y-54262718D01*
X141811574Y-54445812D01*
X141863685Y-54634505D01*
X141904907Y-54796350D01*
X141915119Y-54841478D01*
X141943774Y-55010927D01*
X141957969Y-55191310D01*
X141957031Y-55389572D01*
X141956566Y-55395767D01*
X141940287Y-55612660D01*
G37*
G36*
X148560490Y-47215579D02*
G01*
X148774653Y-47595452D01*
X148938180Y-47957572D01*
X149053096Y-48308080D01*
X149121429Y-48653116D01*
X149145206Y-48998820D01*
X149126454Y-49351334D01*
X149097652Y-49546425D01*
X149043412Y-49793054D01*
X148971996Y-50040121D01*
X148887554Y-50277206D01*
X148794239Y-50493891D01*
X148696202Y-50679753D01*
X148597594Y-50824374D01*
X148502566Y-50917334D01*
X148460290Y-50947695D01*
X148400596Y-50995588D01*
X148377156Y-51022329D01*
X148379010Y-51029051D01*
X148401343Y-51079839D01*
X148443640Y-51166878D01*
X148499157Y-51276141D01*
X148532680Y-51344421D01*
X148602122Y-51500976D01*
X148672827Y-51676077D01*
X148733763Y-51843061D01*
X148759475Y-51919993D01*
X148803663Y-52066431D01*
X148829831Y-52186734D01*
X148842103Y-52303018D01*
X148844602Y-52437396D01*
X148843475Y-52497927D01*
X148830462Y-52671774D01*
X148804549Y-52804693D01*
X148767541Y-52889623D01*
X148721245Y-52919503D01*
X148714408Y-52918733D01*
X148687987Y-52892840D01*
X148667858Y-52823252D01*
X148650996Y-52700537D01*
X148627930Y-52493407D01*
X148594301Y-52232050D01*
X148558740Y-52012610D01*
X148518531Y-51822813D01*
X148470957Y-51650385D01*
X148413299Y-51483053D01*
X148342842Y-51308542D01*
X148309625Y-51230561D01*
X148279648Y-51159795D01*
X148267264Y-51130007D01*
X148260297Y-51130840D01*
X148208552Y-51145953D01*
X148117516Y-51175635D01*
X148000509Y-51215611D01*
X147947826Y-51233642D01*
X147830079Y-51271665D01*
X147738324Y-51298171D01*
X147688979Y-51308276D01*
X147672556Y-51312757D01*
X147653995Y-51344053D01*
X147644478Y-51414997D01*
X147641648Y-51536970D01*
X147640082Y-51621514D01*
X147627590Y-51738960D01*
X147596278Y-51845706D01*
X147538672Y-51973436D01*
X147459361Y-52114248D01*
X147331510Y-52269145D01*
X147180972Y-52373034D01*
X147000311Y-52432251D01*
X146873799Y-52448218D01*
X146761788Y-52438553D01*
X146698755Y-52401775D01*
X146688005Y-52342981D01*
X146732844Y-52267270D01*
X146836577Y-52179737D01*
X146837153Y-52179344D01*
X146936695Y-52104707D01*
X147054695Y-52006873D01*
X147165732Y-51906913D01*
X147217506Y-51856447D01*
X147302966Y-51759867D01*
X147357967Y-51668553D01*
X147396763Y-51561173D01*
X147418894Y-51485611D01*
X147444879Y-51399552D01*
X147460208Y-51352222D01*
X147441814Y-51332249D01*
X147364196Y-51314066D01*
X147229177Y-51299996D01*
X147013523Y-51271526D01*
X146707792Y-51191628D01*
X146408195Y-51071048D01*
X146128475Y-50916604D01*
X145882374Y-50735112D01*
X145683637Y-50533389D01*
X145613728Y-50451721D01*
X145556426Y-50392661D01*
X145525073Y-50370118D01*
X145513878Y-50388056D01*
X145503298Y-50453346D01*
X145499139Y-50549983D01*
X145497154Y-50650587D01*
X145475365Y-50911478D01*
X145428200Y-51192994D01*
X145353994Y-51501550D01*
X145251078Y-51843562D01*
X145117786Y-52225446D01*
X144952450Y-52653616D01*
X144865645Y-52870849D01*
X144795536Y-53049375D01*
X144744827Y-53184055D01*
X144711282Y-53282076D01*
X144692660Y-53350624D01*
X144686725Y-53396882D01*
X144691236Y-53428038D01*
X144703957Y-53451276D01*
X144712052Y-53462219D01*
X145023208Y-53934652D01*
X145280135Y-54433728D01*
X145479378Y-54952754D01*
X145564337Y-55235277D01*
X145659300Y-55602226D01*
X145738931Y-55970480D01*
X145801243Y-56328331D01*
X145844251Y-56664070D01*
X145865968Y-56965991D01*
X145864407Y-57222386D01*
X145819395Y-57571243D01*
X145714101Y-57940153D01*
X145551977Y-58283862D01*
X145334235Y-58599853D01*
X145062091Y-58885609D01*
X144929955Y-58997991D01*
X144797316Y-59094000D01*
X144652580Y-59179618D01*
X144483616Y-59261312D01*
X144278295Y-59345548D01*
X144024487Y-59438795D01*
X143978179Y-59455268D01*
X143685132Y-59563880D01*
X143448326Y-59660786D01*
X143263694Y-59748340D01*
X143127170Y-59828899D01*
X143034687Y-59904818D01*
X142982179Y-59978452D01*
X142965580Y-60052157D01*
X142976989Y-60141151D01*
X143032740Y-60229583D01*
X143140593Y-60287108D01*
X143191266Y-60300424D01*
X143332684Y-60307436D01*
X143502832Y-60275954D01*
X143710905Y-60204649D01*
X143801052Y-60172547D01*
X143947702Y-60144365D01*
X144057534Y-60162415D01*
X144134292Y-60226896D01*
X144150245Y-60247502D01*
X144193885Y-60271689D01*
X144261491Y-60255700D01*
X144284093Y-60247163D01*
X144344991Y-60227332D01*
X144368770Y-60232147D01*
X144372227Y-60262668D01*
X144355135Y-60306925D01*
X144294190Y-60384807D01*
X144199063Y-60479571D01*
X144080255Y-60582246D01*
X143948270Y-60683864D01*
X143813608Y-60775457D01*
X143686772Y-60848056D01*
X143614825Y-60882101D01*
X143481957Y-60940119D01*
X143326416Y-61004296D01*
X143168905Y-61065922D01*
X142941665Y-61154544D01*
X142709643Y-61253978D01*
X142515026Y-61351366D01*
X142345182Y-61454521D01*
X142187477Y-61571258D01*
X142029278Y-61709390D01*
X141857950Y-61876730D01*
X141610542Y-62127462D01*
X141664651Y-62377895D01*
X141678420Y-62447021D01*
X141701393Y-62627754D01*
X141697981Y-62766894D01*
X141691528Y-62809080D01*
X141687896Y-62858503D01*
X141700110Y-62892909D01*
X141737355Y-62917276D01*
X141808819Y-62936581D01*
X141923687Y-62955802D01*
X142091147Y-62979915D01*
X142358464Y-63018242D01*
X142857527Y-62750552D01*
X142913315Y-62720767D01*
X143108133Y-62618173D01*
X143336827Y-62499365D01*
X143582822Y-62372878D01*
X143829541Y-62247250D01*
X144060407Y-62131018D01*
X144207059Y-62057068D01*
X144395590Y-61960068D01*
X144563237Y-61871638D01*
X144701178Y-61796520D01*
X144800588Y-61739456D01*
X144852647Y-61705189D01*
X144865017Y-61695159D01*
X144926958Y-61656884D01*
X144998756Y-61637749D01*
X145092928Y-61637456D01*
X145221995Y-61655707D01*
X145398474Y-61692203D01*
X145456248Y-61705513D01*
X145657120Y-61756742D01*
X145892016Y-61822658D01*
X146154680Y-61901054D01*
X146438860Y-61989724D01*
X146738300Y-62086459D01*
X147046748Y-62189052D01*
X147357947Y-62295298D01*
X147665645Y-62402988D01*
X147963588Y-62509916D01*
X148245520Y-62613874D01*
X148505189Y-62712655D01*
X148736340Y-62804052D01*
X148932719Y-62885858D01*
X149071695Y-62948487D01*
X149088071Y-62955867D01*
X149196143Y-63011870D01*
X149250680Y-63051661D01*
X149250705Y-63051691D01*
X149248789Y-63079362D01*
X149194098Y-63105075D01*
X149084674Y-63129161D01*
X148918561Y-63151955D01*
X148693801Y-63173790D01*
X148408437Y-63194998D01*
X148373282Y-63197336D01*
X148121198Y-63214422D01*
X147922972Y-63228762D01*
X147770955Y-63241226D01*
X147657496Y-63252690D01*
X147574946Y-63264027D01*
X147515655Y-63276110D01*
X147471973Y-63289812D01*
X147436251Y-63306007D01*
X147406885Y-63319929D01*
X147315461Y-63358616D01*
X147192806Y-63407119D01*
X147057100Y-63458143D01*
X147011193Y-63475194D01*
X146843472Y-63540500D01*
X146673798Y-63610289D01*
X146532713Y-63672099D01*
X146299231Y-63779555D01*
X146532713Y-63836039D01*
X146586368Y-63849681D01*
X146739976Y-63892878D01*
X146912031Y-63945481D01*
X147074404Y-63999027D01*
X147102178Y-64008607D01*
X147232041Y-64052157D01*
X147317044Y-64076455D01*
X147369078Y-64083313D01*
X147400030Y-64074542D01*
X147421790Y-64051954D01*
X147452462Y-64024354D01*
X147510998Y-64017576D01*
X147511041Y-64017592D01*
X147549295Y-64052427D01*
X147599648Y-64121395D01*
X147649458Y-64203631D01*
X147686083Y-64278265D01*
X147696883Y-64324429D01*
X147698861Y-64346863D01*
X147713074Y-64416218D01*
X147736839Y-64512113D01*
X147754832Y-64595159D01*
X147777933Y-64732758D01*
X147800501Y-64895317D01*
X147819517Y-65062731D01*
X147829984Y-65176976D01*
X147839017Y-65319972D01*
X147841354Y-65458916D01*
X147836758Y-65610344D01*
X147824991Y-65790791D01*
X147805816Y-66016795D01*
X147791119Y-66165257D01*
X147767049Y-66370225D01*
X147740560Y-66561805D01*
X147713961Y-66723660D01*
X147689561Y-66839453D01*
X147646394Y-66986983D01*
X147581122Y-67168210D01*
X147508622Y-67335574D01*
X147435822Y-67473339D01*
X147369656Y-67565768D01*
X147348598Y-67586867D01*
X147298780Y-67619926D01*
X147267088Y-67608189D01*
X147253713Y-67549559D01*
X147258844Y-67441943D01*
X147282671Y-67283246D01*
X147325385Y-67071374D01*
X147387176Y-66804231D01*
X147468234Y-66479724D01*
X147522860Y-66245813D01*
X147570062Y-65960599D01*
X147590006Y-65684287D01*
X147585454Y-65391218D01*
X147580252Y-65305170D01*
X147566231Y-65133312D01*
X147547780Y-64953679D01*
X147526477Y-64777960D01*
X147503904Y-64617843D01*
X147481642Y-64485017D01*
X147461271Y-64391171D01*
X147444372Y-64347993D01*
X147432668Y-64342919D01*
X147368833Y-64326286D01*
X147260265Y-64302799D01*
X147118202Y-64274826D01*
X146953880Y-64244730D01*
X146872380Y-64230129D01*
X146678335Y-64194488D01*
X146446993Y-64151152D01*
X146194137Y-64103108D01*
X145935548Y-64053346D01*
X145687008Y-64004853D01*
X145349003Y-63938499D01*
X144995488Y-63869506D01*
X144685308Y-63809547D01*
X144408693Y-63756793D01*
X144155873Y-63709417D01*
X143917080Y-63665591D01*
X143682542Y-63623487D01*
X143442490Y-63581276D01*
X143187156Y-63537132D01*
X142992826Y-63503981D01*
X142801063Y-63472352D01*
X142653150Y-63450112D01*
X142539295Y-63436349D01*
X142449706Y-63430149D01*
X142374590Y-63430601D01*
X142304155Y-63436791D01*
X142228609Y-63447808D01*
X142117668Y-63460305D01*
X141964839Y-63468929D01*
X141787698Y-63473093D01*
X141598649Y-63473065D01*
X141410094Y-63469110D01*
X141234435Y-63461498D01*
X141084076Y-63450494D01*
X140971419Y-63436365D01*
X140908868Y-63419380D01*
X140862894Y-63387052D01*
X140838486Y-63351757D01*
X140842096Y-63343230D01*
X140888737Y-63314214D01*
X140977898Y-63281876D01*
X141095153Y-63250287D01*
X141226076Y-63223519D01*
X141356239Y-63205642D01*
X141545544Y-63187353D01*
X141536734Y-63148320D01*
X141620506Y-63148320D01*
X141636146Y-63163961D01*
X141651787Y-63148320D01*
X141636146Y-63132680D01*
X141620506Y-63148320D01*
X141536734Y-63148320D01*
X141525200Y-63097219D01*
X142857130Y-63097219D01*
X142857765Y-63097739D01*
X142897527Y-63110721D01*
X142985574Y-63131687D01*
X143064315Y-63148320D01*
X143109440Y-63157852D01*
X143256657Y-63186433D01*
X143396452Y-63212509D01*
X143577487Y-63246284D01*
X143744089Y-63277373D01*
X143872723Y-63301384D01*
X143925703Y-63311476D01*
X144054879Y-63336723D01*
X144226178Y-63370695D01*
X144427689Y-63411015D01*
X144647502Y-63455307D01*
X144873708Y-63501191D01*
X144998563Y-63526630D01*
X145244144Y-63576656D01*
X145438033Y-63615679D01*
X145586969Y-63644507D01*
X145697691Y-63663950D01*
X145776940Y-63674815D01*
X145831454Y-63677912D01*
X145867974Y-63674050D01*
X145893237Y-63664037D01*
X145913985Y-63648682D01*
X145936956Y-63628794D01*
X145940124Y-63626180D01*
X146028858Y-63563831D01*
X146150626Y-63496758D01*
X146312198Y-63421810D01*
X146520345Y-63335836D01*
X146781836Y-63235688D01*
X146891717Y-63195185D01*
X147121984Y-63115189D01*
X147318401Y-63056761D01*
X147497182Y-63016655D01*
X147674541Y-62991625D01*
X147866694Y-62978424D01*
X148089854Y-62973807D01*
X148139423Y-62973537D01*
X148278903Y-62972416D01*
X148374303Y-62969310D01*
X148423325Y-62962055D01*
X148423669Y-62948487D01*
X148373037Y-62926441D01*
X148269131Y-62893754D01*
X148109653Y-62848260D01*
X147892304Y-62787796D01*
X147789241Y-62758778D01*
X147500403Y-62674584D01*
X147166198Y-62573777D01*
X146796283Y-62459362D01*
X146400314Y-62334347D01*
X145987950Y-62201736D01*
X145568846Y-62064537D01*
X144997113Y-61875677D01*
X144490125Y-62208572D01*
X144358719Y-62293066D01*
X144114746Y-62442283D01*
X143860549Y-62589432D01*
X143608470Y-62727815D01*
X143370848Y-62850738D01*
X143160026Y-62951504D01*
X142988343Y-63023417D01*
X142933210Y-63045856D01*
X142872998Y-63077337D01*
X142857130Y-63097219D01*
X141525200Y-63097219D01*
X141505836Y-63011433D01*
X141493710Y-62955438D01*
X141466743Y-62822436D01*
X141436279Y-62664469D01*
X141406872Y-62504849D01*
X141354510Y-62282639D01*
X141267132Y-62012341D01*
X141153443Y-61723608D01*
X141019751Y-61432374D01*
X140872365Y-61154578D01*
X140724530Y-60916924D01*
X140539279Y-60655063D01*
X140332317Y-60390652D01*
X140113653Y-60135356D01*
X139893299Y-59900839D01*
X139681263Y-59698767D01*
X139487556Y-59540805D01*
X139418712Y-59493446D01*
X139288315Y-59410709D01*
X139137566Y-59320659D01*
X138987063Y-59235849D01*
X138865663Y-59168987D01*
X138753802Y-59105564D01*
X138672778Y-59057576D01*
X138634755Y-59032060D01*
X138633199Y-59030583D01*
X138591551Y-59006080D01*
X138563185Y-59031968D01*
X138541181Y-59114332D01*
X138533848Y-59142707D01*
X138503407Y-59205501D01*
X138446359Y-59281953D01*
X138355617Y-59380938D01*
X138224093Y-59511328D01*
X138052334Y-59673385D01*
X137876852Y-59826907D01*
X137703557Y-59962425D01*
X137512967Y-60095063D01*
X137285601Y-60239947D01*
X137090550Y-60365763D01*
X136854590Y-60534956D01*
X136617979Y-60725837D01*
X136362310Y-60952612D01*
X136314295Y-60995219D01*
X136182251Y-61101152D01*
X136048815Y-61195283D01*
X135936615Y-61261209D01*
X135845659Y-61303767D01*
X135749832Y-61336427D01*
X135653519Y-61347975D01*
X135525980Y-61344658D01*
X135376508Y-61324084D01*
X135131335Y-61243908D01*
X134873247Y-61106720D01*
X134605053Y-60914373D01*
X134329563Y-60668719D01*
X134049588Y-60371609D01*
X133990182Y-60302629D01*
X133781283Y-60045166D01*
X133589357Y-59785906D01*
X133424554Y-59539051D01*
X133297025Y-59318800D01*
X133184750Y-59103618D01*
X132837785Y-59367521D01*
X132687435Y-59485762D01*
X132529531Y-59616639D01*
X132384805Y-59742719D01*
X132272016Y-59848069D01*
X132134961Y-59997457D01*
X131994796Y-60194838D01*
X131889640Y-60408193D01*
X131818781Y-60643079D01*
X131781509Y-60905055D01*
X131777113Y-61199679D01*
X131804883Y-61532509D01*
X131864107Y-61909103D01*
X131954076Y-62335020D01*
X131987926Y-62482724D01*
X132020708Y-62629749D01*
X132046485Y-62749601D01*
X132061564Y-62825425D01*
X132065274Y-62846223D01*
X132076028Y-62889017D01*
X132085282Y-62903700D01*
X132095936Y-62920606D01*
X132133858Y-62943771D01*
X132198656Y-62961292D01*
X132299191Y-62975948D01*
X132444325Y-62990518D01*
X132642920Y-63007783D01*
X132794597Y-63020775D01*
X132966270Y-63035500D01*
X133117563Y-63048497D01*
X133227499Y-63057966D01*
X133250604Y-63060138D01*
X133380016Y-63082094D01*
X133452456Y-63114973D01*
X133466187Y-63157416D01*
X133419470Y-63208064D01*
X133361472Y-63240812D01*
X133303283Y-63257803D01*
X133283895Y-63260091D01*
X133276643Y-63276337D01*
X133314298Y-63282443D01*
X133402908Y-63265667D01*
X133532904Y-63226590D01*
X133696518Y-63168159D01*
X133885986Y-63093321D01*
X133964918Y-63059743D01*
X134677558Y-63059743D01*
X134764598Y-63143133D01*
X134780761Y-63158345D01*
X134837241Y-63206934D01*
X134868539Y-63226522D01*
X134888072Y-63217576D01*
X134931572Y-63167659D01*
X134978650Y-63090787D01*
X135019270Y-63006390D01*
X135043394Y-62933895D01*
X135040985Y-62892732D01*
X135014389Y-62898379D01*
X134946595Y-62926403D01*
X134853852Y-62970818D01*
X134677558Y-63059743D01*
X133964918Y-63059743D01*
X134093541Y-63005026D01*
X134311416Y-62906221D01*
X134531847Y-62799854D01*
X134588888Y-62770854D01*
X134722764Y-62700484D01*
X134887033Y-62612167D01*
X135069463Y-62512667D01*
X135257825Y-62408748D01*
X135439887Y-62307175D01*
X135603419Y-62214711D01*
X135736189Y-62138120D01*
X135825968Y-62084166D01*
X135825439Y-62080589D01*
X135803498Y-62039759D01*
X135756838Y-61963542D01*
X135693025Y-61864440D01*
X135613660Y-61734574D01*
X135563205Y-61625635D01*
X135555880Y-61559584D01*
X135591973Y-61537360D01*
X135611363Y-61545920D01*
X135670251Y-61590624D01*
X135753594Y-61664954D01*
X135850039Y-61759152D01*
X136165564Y-62049720D01*
X136563314Y-62354068D01*
X137010750Y-62642088D01*
X137501601Y-62910634D01*
X138029594Y-63156560D01*
X138443630Y-63319666D01*
X138588456Y-63376719D01*
X139171915Y-63567966D01*
X139773698Y-63727153D01*
X139796509Y-63732458D01*
X139940749Y-63765024D01*
X140059397Y-63790179D01*
X140140706Y-63805525D01*
X140172929Y-63808664D01*
X140162366Y-63797415D01*
X140109176Y-63759139D01*
X140020962Y-63700984D01*
X139908415Y-63630165D01*
X139840886Y-63587460D01*
X139695779Y-63488719D01*
X139566581Y-63391810D01*
X139462676Y-63304402D01*
X139393450Y-63234166D01*
X139368289Y-63188772D01*
X139372543Y-63178419D01*
X139420753Y-63172796D01*
X139520943Y-63196273D01*
X139670994Y-63248259D01*
X139868782Y-63328163D01*
X139970540Y-63370635D01*
X140290653Y-63494302D01*
X140606927Y-63599484D01*
X140935961Y-63690929D01*
X141294354Y-63773386D01*
X141698708Y-63851602D01*
X141915242Y-63892713D01*
X142115739Y-63936182D01*
X142269940Y-63976170D01*
X142372579Y-64011297D01*
X142418389Y-64040183D01*
X142415449Y-64057080D01*
X142365969Y-64084712D01*
X142271345Y-64112085D01*
X142142013Y-64136415D01*
X141988406Y-64154917D01*
X141777612Y-64173961D01*
X141800722Y-64302397D01*
X141804371Y-64329110D01*
X141811676Y-64428441D01*
X141817166Y-64569136D01*
X141820357Y-64736462D01*
X141820769Y-64915685D01*
X141820637Y-64932452D01*
X141814893Y-65056448D01*
X141801711Y-65341020D01*
X141754208Y-65740065D01*
X141680470Y-66121032D01*
X141582838Y-66475366D01*
X141463655Y-66794513D01*
X141325263Y-67069917D01*
X141170002Y-67293025D01*
X141025605Y-67465069D01*
X141721886Y-67485572D01*
X141781690Y-67487376D01*
X142001006Y-67494681D01*
X142211103Y-67502665D01*
X142398650Y-67510763D01*
X142550317Y-67518410D01*
X142652772Y-67525041D01*
X142695844Y-67528523D01*
X142887378Y-67544007D01*
X142792167Y-67457617D01*
X142765350Y-67433468D01*
X142687294Y-67363776D01*
X142578874Y-67267393D01*
X142450639Y-67153693D01*
X142313138Y-67032045D01*
X142255283Y-66980576D01*
X142091382Y-66829257D01*
X141978108Y-66714330D01*
X142226533Y-66714330D01*
X142431833Y-66856298D01*
X142734495Y-67070799D01*
X143109052Y-67349549D01*
X143477334Y-67637387D01*
X143827184Y-67924536D01*
X144146451Y-68201223D01*
X144422979Y-68457672D01*
X144553812Y-68580211D01*
X144667096Y-68677527D01*
X144750717Y-68738924D01*
X144798348Y-68759319D01*
X144833294Y-68756015D01*
X144922554Y-68745123D01*
X145030112Y-68730223D01*
X145085011Y-68723104D01*
X145232947Y-68708006D01*
X145430132Y-68691345D01*
X145667858Y-68673606D01*
X145937415Y-68655278D01*
X146230096Y-68636846D01*
X146537191Y-68618799D01*
X146849991Y-68601622D01*
X147159788Y-68585803D01*
X147457872Y-68571828D01*
X147735536Y-68560185D01*
X147984069Y-68551360D01*
X148194763Y-68545840D01*
X148358909Y-68544113D01*
X148368359Y-68544065D01*
X148405123Y-68539843D01*
X148393400Y-68528057D01*
X148329954Y-68507631D01*
X148211550Y-68477493D01*
X148034953Y-68436569D01*
X148006430Y-68430100D01*
X147870479Y-68397397D01*
X147760740Y-68365057D01*
X147661474Y-68326198D01*
X147556940Y-68273936D01*
X147431402Y-68201390D01*
X147269118Y-68101676D01*
X147229602Y-68077108D01*
X146785708Y-67801460D01*
X146386689Y-67554321D01*
X146035208Y-67337338D01*
X145733930Y-67152160D01*
X145594583Y-67066005D01*
X145446264Y-66972865D01*
X145316139Y-66889747D01*
X145221871Y-66827838D01*
X145053901Y-66714412D01*
X143640217Y-66714371D01*
X142226533Y-66714330D01*
X141978108Y-66714330D01*
X141974627Y-66710798D01*
X141902394Y-66622099D01*
X141872063Y-66560066D01*
X141881011Y-66521600D01*
X141904545Y-66507517D01*
X141964627Y-66491544D01*
X142061447Y-66478584D01*
X142199303Y-66468417D01*
X142382497Y-66460819D01*
X142615329Y-66455571D01*
X142902098Y-66452450D01*
X143247107Y-66451234D01*
X143555208Y-66452089D01*
X143928646Y-66456795D01*
X144250877Y-66465482D01*
X144518150Y-66478041D01*
X144726718Y-66494362D01*
X145158423Y-66538430D01*
X145523072Y-66731607D01*
X145615537Y-66781667D01*
X145777063Y-66871758D01*
X145970858Y-66981977D01*
X146184749Y-67105339D01*
X146406563Y-67234857D01*
X146624125Y-67363544D01*
X146810536Y-67474547D01*
X147009081Y-67592641D01*
X147191530Y-67701027D01*
X147348474Y-67794119D01*
X147470505Y-67866333D01*
X147548215Y-67912084D01*
X147646766Y-67971973D01*
X147739470Y-68032657D01*
X147798462Y-68076359D01*
X147800305Y-68077934D01*
X147876444Y-68121787D01*
X147970506Y-68152044D01*
X148016974Y-68161928D01*
X148162252Y-68200526D01*
X148328085Y-68253042D01*
X148502978Y-68314911D01*
X148675437Y-68381571D01*
X148833967Y-68448457D01*
X148967073Y-68511007D01*
X149018772Y-68539843D01*
X149063260Y-68564657D01*
X149111034Y-68604843D01*
X149112200Y-68607018D01*
X149094481Y-68636077D01*
X149016436Y-68665208D01*
X148880143Y-68694048D01*
X148687679Y-68722230D01*
X148441122Y-68749389D01*
X148142550Y-68775160D01*
X148004243Y-68785888D01*
X147820746Y-68800414D01*
X147641690Y-68815021D01*
X147458735Y-68830446D01*
X147263542Y-68847430D01*
X147047772Y-68866709D01*
X146803086Y-68889024D01*
X146521143Y-68915112D01*
X146193605Y-68945713D01*
X145812132Y-68981564D01*
X145754823Y-68986948D01*
X145548977Y-69006079D01*
X145358803Y-69023452D01*
X145195953Y-69038019D01*
X145072079Y-69048736D01*
X144998831Y-69054556D01*
X144963918Y-69056457D01*
X144865127Y-69057081D01*
X144795506Y-69050923D01*
X144789396Y-69049218D01*
X144726096Y-69016344D01*
X144623288Y-68948704D01*
X144487734Y-68851540D01*
X144326196Y-68730095D01*
X144145436Y-68589613D01*
X143952217Y-68435335D01*
X143753299Y-68272504D01*
X143555446Y-68106364D01*
X143365419Y-67942157D01*
X143155283Y-67757583D01*
X142612112Y-67795721D01*
X142601266Y-67796478D01*
X142365249Y-67810386D01*
X142144912Y-67817349D01*
X141920791Y-67817385D01*
X141673419Y-67810508D01*
X141383331Y-67796737D01*
X140837103Y-67764081D01*
X139895957Y-67692017D01*
X139013055Y-67603147D01*
X138847654Y-67584775D01*
X138689125Y-67568198D01*
X138562722Y-67556109D01*
X138478446Y-67549460D01*
X138446298Y-67549203D01*
X138441587Y-67556728D01*
X138412852Y-67607310D01*
X138364798Y-67694016D01*
X138304654Y-67803850D01*
X138163540Y-68039225D01*
X137985666Y-68280937D01*
X137800897Y-68478274D01*
X137616663Y-68622396D01*
X137583478Y-68641452D01*
X137460873Y-68697233D01*
X137305655Y-68754646D01*
X137138911Y-68806874D01*
X136981730Y-68847102D01*
X136855200Y-68868515D01*
X136824372Y-68871981D01*
X136727241Y-68889721D01*
X136659221Y-68911804D01*
X136638605Y-68920663D01*
X136553026Y-68947671D01*
X136431710Y-68979109D01*
X136293011Y-69010692D01*
X136155284Y-69038131D01*
X136036885Y-69057141D01*
X136018387Y-69059158D01*
X135903286Y-69062381D01*
X135758291Y-69056298D01*
X135601893Y-69042798D01*
X135452584Y-69023769D01*
X135328853Y-69001101D01*
X135249193Y-68976682D01*
X135186972Y-68930166D01*
X135145638Y-68856765D01*
X135143678Y-68848031D01*
X135110203Y-68791470D01*
X135035900Y-68768681D01*
X134940588Y-68749564D01*
X134760222Y-68672606D01*
X134576250Y-68547917D01*
X134397013Y-68383602D01*
X134230854Y-68187769D01*
X134086114Y-67968523D01*
X133971134Y-67733970D01*
X133941665Y-67654533D01*
X133886606Y-67454444D01*
X133851098Y-67244987D01*
X133844114Y-67146982D01*
X134157462Y-67146982D01*
X134172347Y-67397758D01*
X134238905Y-67668394D01*
X134281354Y-67788882D01*
X134370311Y-67978436D01*
X134486771Y-68150284D01*
X134644890Y-68327407D01*
X134785909Y-68456879D01*
X134958698Y-68570264D01*
X135150229Y-68642871D01*
X135380539Y-68684423D01*
X135464368Y-68694962D01*
X135565696Y-68710366D01*
X135630235Y-68723491D01*
X135692797Y-68741198D01*
X135630235Y-68765652D01*
X135620132Y-68769141D01*
X135540302Y-68785122D01*
X135442550Y-68793255D01*
X135392561Y-68795782D01*
X135351377Y-68805852D01*
X135365626Y-68824627D01*
X135366550Y-68825153D01*
X135433449Y-68837263D01*
X135555307Y-68832406D01*
X135727172Y-68811188D01*
X135944091Y-68774217D01*
X136201109Y-68722102D01*
X136243661Y-68713003D01*
X136390242Y-68683994D01*
X136485668Y-68670330D01*
X136537429Y-68671241D01*
X136553018Y-68685959D01*
X136552388Y-68693831D01*
X136541527Y-68713697D01*
X136509745Y-68735543D01*
X136447484Y-68763964D01*
X136345185Y-68803557D01*
X136193289Y-68858917D01*
X136168771Y-68867908D01*
X136097756Y-68897864D01*
X136086472Y-68911755D01*
X136134196Y-68909110D01*
X136240210Y-68889461D01*
X136378203Y-68857019D01*
X136668921Y-68764744D01*
X136921644Y-68650639D01*
X136930661Y-68645768D01*
X137027706Y-68594440D01*
X137100111Y-68558069D01*
X137132790Y-68544256D01*
X137148864Y-68551967D01*
X137146313Y-68590987D01*
X137114418Y-68647096D01*
X137061331Y-68702269D01*
X136975309Y-68770980D01*
X137053511Y-68747726D01*
X137109772Y-68729473D01*
X137349468Y-68621588D01*
X137586731Y-68471361D01*
X137802614Y-68292122D01*
X137978173Y-68097199D01*
X138038819Y-68011289D01*
X138112716Y-67896469D01*
X138184446Y-67776524D01*
X138245818Y-67665713D01*
X138288647Y-67578293D01*
X138304742Y-67528523D01*
X138291901Y-67522113D01*
X138232295Y-67514728D01*
X138140518Y-67511754D01*
X138070703Y-67509715D01*
X137926325Y-67498592D01*
X137788609Y-67481067D01*
X137714472Y-67470000D01*
X137561231Y-67450982D01*
X137423262Y-67437984D01*
X137404602Y-67436469D01*
X137325468Y-67424671D01*
X137244050Y-67401288D01*
X137152321Y-67362086D01*
X137042254Y-67302829D01*
X136905819Y-67219281D01*
X136817194Y-67161139D01*
X138149403Y-67161139D01*
X138250533Y-67179171D01*
X138291398Y-67185895D01*
X138408268Y-67203015D01*
X138570017Y-67225155D01*
X138765478Y-67250907D01*
X138983480Y-67278862D01*
X139212855Y-67307612D01*
X139442434Y-67335749D01*
X139661048Y-67361863D01*
X139857529Y-67384548D01*
X140020707Y-67402393D01*
X140056321Y-67406062D01*
X140237550Y-67423035D01*
X140411260Y-67436810D01*
X140559240Y-67446052D01*
X140663284Y-67449429D01*
X140856768Y-67449429D01*
X140969582Y-67253924D01*
X141035123Y-67138739D01*
X141118269Y-66983294D01*
X141185516Y-66840171D01*
X141247893Y-66685211D01*
X141316431Y-66494257D01*
X141339951Y-66425936D01*
X141423327Y-66169581D01*
X141484600Y-65948137D01*
X141526923Y-65743853D01*
X141553446Y-65538978D01*
X141567322Y-65315760D01*
X141571702Y-65056448D01*
X141569539Y-64828429D01*
X141561920Y-64623253D01*
X141549403Y-64459511D01*
X141532567Y-64347711D01*
X141492151Y-64170746D01*
X141157499Y-64151119D01*
X141033846Y-64143139D01*
X140501483Y-64092148D01*
X139988772Y-64016413D01*
X139509140Y-63918200D01*
X139076014Y-63799775D01*
X139037459Y-63787807D01*
X138929836Y-63756557D01*
X138852224Y-63737284D01*
X138819333Y-63733771D01*
X138818203Y-63744421D01*
X138829759Y-63799680D01*
X138855670Y-63883446D01*
X138870313Y-63933233D01*
X138899340Y-64095719D01*
X138917363Y-64303858D01*
X138923951Y-64546204D01*
X138920817Y-64703594D01*
X138918672Y-64811309D01*
X138901095Y-65087729D01*
X138860087Y-65465736D01*
X138792021Y-65868452D01*
X138702152Y-66219301D01*
X138589148Y-66522441D01*
X138451679Y-66782030D01*
X138288415Y-67002227D01*
X138149403Y-67161139D01*
X136817194Y-67161139D01*
X136734990Y-67107209D01*
X136521737Y-66962376D01*
X136339103Y-66842619D01*
X136295028Y-66816526D01*
X136740703Y-66816526D01*
X136761439Y-66844380D01*
X136821540Y-66896328D01*
X136907216Y-66959377D01*
X136989991Y-67014462D01*
X137060715Y-67057554D01*
X137096319Y-67074059D01*
X137096840Y-67074035D01*
X137106628Y-67044253D01*
X137100751Y-66965693D01*
X137080668Y-66849422D01*
X137047840Y-66706510D01*
X137039688Y-66676925D01*
X137004129Y-66598276D01*
X136959316Y-66573567D01*
X136935394Y-66581314D01*
X136876778Y-66625883D01*
X136812986Y-66693061D01*
X136761725Y-66763169D01*
X136740703Y-66816526D01*
X136295028Y-66816526D01*
X136073063Y-66685118D01*
X135808855Y-66546701D01*
X135561329Y-66435002D01*
X135345335Y-66357654D01*
X135249614Y-66333258D01*
X135049779Y-66301938D01*
X134849163Y-66292496D01*
X134667408Y-66305334D01*
X134524158Y-66340853D01*
X134464348Y-66369409D01*
X134410239Y-66414382D01*
X134361370Y-66486544D01*
X134304430Y-66601696D01*
X134286627Y-66641262D01*
X134195229Y-66900129D01*
X134157462Y-67146982D01*
X133844114Y-67146982D01*
X133836686Y-67042759D01*
X133844915Y-66864359D01*
X133877332Y-66726386D01*
X133880646Y-66706455D01*
X133859710Y-66679960D01*
X133797863Y-66654056D01*
X133684727Y-66623182D01*
X133677605Y-66621394D01*
X133585616Y-66596494D01*
X133444996Y-66556450D01*
X133265736Y-66504193D01*
X133057823Y-66442658D01*
X132831248Y-66374778D01*
X132595999Y-66303486D01*
X131916759Y-66093438D01*
X131222457Y-65871361D01*
X130585214Y-65658923D01*
X130033134Y-65465777D01*
X130922476Y-65465777D01*
X130929864Y-65472295D01*
X130986532Y-65496598D01*
X131093386Y-65534245D01*
X131243617Y-65583245D01*
X131430418Y-65641605D01*
X131646982Y-65707332D01*
X131886500Y-65778435D01*
X132142165Y-65852921D01*
X132407169Y-65928798D01*
X132674705Y-66004073D01*
X132937964Y-66076755D01*
X133190140Y-66144851D01*
X133424424Y-66206368D01*
X133634009Y-66259315D01*
X134046403Y-66360839D01*
X134155083Y-66252159D01*
X134178166Y-66230255D01*
X134339519Y-66125056D01*
X134543481Y-66062484D01*
X134792318Y-66041793D01*
X134875101Y-66044290D01*
X135020487Y-66061429D01*
X135177145Y-66097283D01*
X135353440Y-66154727D01*
X135557738Y-66236632D01*
X135798405Y-66345871D01*
X136083806Y-66485319D01*
X136104589Y-66495699D01*
X136272944Y-66577674D01*
X136419318Y-66645309D01*
X136535322Y-66694989D01*
X136612565Y-66723100D01*
X136642658Y-66726030D01*
X136645886Y-66717482D01*
X136695625Y-66639621D01*
X136771980Y-66562416D01*
X136854983Y-66503304D01*
X136924668Y-66479724D01*
X136993312Y-66488435D01*
X137080502Y-66538693D01*
X137145432Y-66637270D01*
X137190442Y-66788285D01*
X137217873Y-66995857D01*
X137220630Y-67024103D01*
X137226784Y-67044253D01*
X137232321Y-67062383D01*
X137264164Y-67084850D01*
X137330213Y-67098638D01*
X137444521Y-67110876D01*
X137561495Y-67122854D01*
X137684306Y-67136730D01*
X137772969Y-67148171D01*
X137819767Y-67154159D01*
X137864024Y-67151592D01*
X137902865Y-67130015D01*
X137945696Y-67080773D01*
X138001921Y-66995206D01*
X138080942Y-66864660D01*
X138091471Y-66846883D01*
X138193582Y-66654440D01*
X138299431Y-66424065D01*
X138400419Y-66176688D01*
X138487949Y-65933235D01*
X138553423Y-65714634D01*
X138575265Y-65621239D01*
X138613893Y-65404626D01*
X138644114Y-65165686D01*
X138663993Y-64925111D01*
X138671593Y-64703594D01*
X138664981Y-64521826D01*
X138661131Y-64474827D01*
X138652472Y-64323825D01*
X138646331Y-64150549D01*
X138643843Y-63983903D01*
X138643261Y-63667794D01*
X138419260Y-63585306D01*
X138290908Y-63537077D01*
X138144347Y-63480274D01*
X138023215Y-63431621D01*
X137851171Y-63360426D01*
X137787637Y-63473339D01*
X137775168Y-63494201D01*
X137673004Y-63604152D01*
X137545877Y-63660920D01*
X137404700Y-63661800D01*
X137260384Y-63604085D01*
X137236754Y-63587122D01*
X137153454Y-63493737D01*
X137075680Y-63360476D01*
X137012380Y-63204745D01*
X136972499Y-63043955D01*
X136966836Y-63011971D01*
X137084792Y-63011971D01*
X137084801Y-63012905D01*
X137098788Y-63073554D01*
X137132856Y-63166481D01*
X137177451Y-63269565D01*
X137223021Y-63360684D01*
X137260013Y-63417717D01*
X137290100Y-63443011D01*
X137384938Y-63473642D01*
X137494608Y-63463156D01*
X137596706Y-63411937D01*
X137602510Y-63407303D01*
X137656812Y-63355945D01*
X137679127Y-63319666D01*
X137662864Y-63302348D01*
X137600900Y-63260826D01*
X137503423Y-63204042D01*
X137381959Y-63139001D01*
X137282386Y-63089181D01*
X137180110Y-63041937D01*
X137110496Y-63014598D01*
X137084792Y-63011971D01*
X136966836Y-63011971D01*
X136965947Y-63006953D01*
X136950258Y-62955371D01*
X136920575Y-62910227D01*
X136867173Y-62861555D01*
X136780331Y-62799391D01*
X136650325Y-62713770D01*
X136561286Y-62654539D01*
X136410082Y-62549125D01*
X136268495Y-62445225D01*
X136158305Y-62358561D01*
X135966917Y-62198827D01*
X135845497Y-62324153D01*
X135818236Y-62350619D01*
X135720491Y-62433974D01*
X135597632Y-62528220D01*
X135469820Y-62617608D01*
X135215562Y-62785736D01*
X135201679Y-62933895D01*
X135193620Y-63019892D01*
X135188166Y-63072991D01*
X135168978Y-63192426D01*
X135140578Y-63273479D01*
X135097462Y-63334127D01*
X135035427Y-63384811D01*
X134924802Y-63417665D01*
X134807486Y-63393394D01*
X134693711Y-63312545D01*
X134665852Y-63283501D01*
X134607762Y-63214791D01*
X134577934Y-63166977D01*
X134573264Y-63158934D01*
X134544531Y-63150896D01*
X134484609Y-63162065D01*
X134384858Y-63194553D01*
X134236639Y-63250476D01*
X134138865Y-63287559D01*
X134072999Y-63311065D01*
X133976510Y-63345500D01*
X133825747Y-63395387D01*
X133709716Y-63429364D01*
X133668218Y-63439525D01*
X133517978Y-63470258D01*
X133345301Y-63498491D01*
X133159553Y-63523472D01*
X132970103Y-63544448D01*
X132786317Y-63560668D01*
X132617565Y-63571380D01*
X132473214Y-63575832D01*
X132362630Y-63573271D01*
X132295183Y-63562947D01*
X132280239Y-63544106D01*
X132297517Y-63533651D01*
X132365677Y-63509435D01*
X132472035Y-63478981D01*
X132602713Y-63446490D01*
X132752396Y-63411471D01*
X132895370Y-63376858D01*
X132983051Y-63353260D01*
X133018709Y-63339256D01*
X133005613Y-63333422D01*
X132947035Y-63334336D01*
X132846245Y-63340577D01*
X132830039Y-63341648D01*
X132477287Y-63339192D01*
X132249511Y-63310510D01*
X133130286Y-63310510D01*
X133174693Y-63315426D01*
X133217724Y-63311065D01*
X133213794Y-63299648D01*
X133199635Y-63295517D01*
X133135592Y-63299648D01*
X133130286Y-63310510D01*
X132249511Y-63310510D01*
X132100093Y-63291695D01*
X131713582Y-63201837D01*
X131332880Y-63072300D01*
X131258880Y-63044101D01*
X131186875Y-63020063D01*
X131155439Y-63014414D01*
X131157763Y-63046694D01*
X131172719Y-63122993D01*
X131197077Y-63226706D01*
X131210848Y-63290158D01*
X131228130Y-63411646D01*
X131239777Y-63565096D01*
X131246462Y-63760673D01*
X131248858Y-64008542D01*
X131248418Y-64086744D01*
X131247593Y-64233303D01*
X131240557Y-64442453D01*
X131225141Y-64615419D01*
X131198820Y-64766181D01*
X131159069Y-64908724D01*
X131103363Y-65057029D01*
X131029178Y-65225078D01*
X131013350Y-65259477D01*
X130967012Y-65361565D01*
X130934647Y-65435010D01*
X130922476Y-65465777D01*
X130033134Y-65465777D01*
X130002701Y-65455130D01*
X129472593Y-65258990D01*
X128992564Y-65069509D01*
X128560285Y-64885694D01*
X128173431Y-64706552D01*
X127829675Y-64531090D01*
X127526689Y-64358315D01*
X127262148Y-64187233D01*
X127033724Y-64016852D01*
X126839092Y-63846178D01*
X126835472Y-63842706D01*
X126728112Y-63737513D01*
X126658103Y-63660733D01*
X126616545Y-63599287D01*
X126594539Y-63540096D01*
X126583186Y-63470083D01*
X126583131Y-63469589D01*
X126586746Y-63420134D01*
X126824693Y-63420134D01*
X126835951Y-63459523D01*
X126896662Y-63539186D01*
X127010826Y-63643453D01*
X127179412Y-63773177D01*
X127403388Y-63929210D01*
X127552051Y-64026160D01*
X127787821Y-64168236D01*
X128043943Y-64308566D01*
X128326134Y-64449749D01*
X128640107Y-64594384D01*
X128991579Y-64745071D01*
X129386265Y-64904408D01*
X129829881Y-65074997D01*
X130328141Y-65259436D01*
X130441238Y-65300760D01*
X130565252Y-65346347D01*
X130659288Y-65381228D01*
X130708932Y-65400080D01*
X130729701Y-65405661D01*
X130761129Y-65397130D01*
X130791096Y-65359145D01*
X130823483Y-65283829D01*
X130862167Y-65163304D01*
X130911028Y-64989695D01*
X130933637Y-64904457D01*
X130957659Y-64801460D01*
X130974556Y-64703053D01*
X130985595Y-64595808D01*
X130992043Y-64466294D01*
X130995169Y-64301083D01*
X130996240Y-64086744D01*
X130995939Y-63912486D01*
X130992872Y-63719478D01*
X130985786Y-63564183D01*
X130973635Y-63432300D01*
X130955371Y-63309531D01*
X130929948Y-63181576D01*
X130925171Y-63159617D01*
X130893690Y-63022980D01*
X130865714Y-62929829D01*
X130833790Y-62864314D01*
X130790461Y-62810588D01*
X130728274Y-62752799D01*
X130669856Y-62703358D01*
X130604552Y-62653403D01*
X130569260Y-62633521D01*
X130531945Y-62613697D01*
X130475417Y-62566774D01*
X130448999Y-62543985D01*
X130408020Y-62522310D01*
X130350492Y-62512574D01*
X130261171Y-62512783D01*
X130124816Y-62520946D01*
X129900129Y-62537808D01*
X129431115Y-62581271D01*
X128988127Y-62633587D01*
X128576379Y-62693774D01*
X128201088Y-62760849D01*
X127867468Y-62833828D01*
X127580734Y-62911728D01*
X127346100Y-62993565D01*
X127168782Y-63078356D01*
X127105775Y-63118892D01*
X127002440Y-63199511D01*
X126912420Y-63285261D01*
X126848807Y-63363137D01*
X126824693Y-63420134D01*
X126586746Y-63420134D01*
X126595155Y-63305112D01*
X126668452Y-63149625D01*
X126802317Y-63003627D01*
X126996041Y-62867612D01*
X127248919Y-62742077D01*
X127560243Y-62627520D01*
X127929306Y-62524436D01*
X128007813Y-62507064D01*
X130547107Y-62507064D01*
X130549855Y-62518584D01*
X130586208Y-62538772D01*
X130623293Y-62542749D01*
X130696156Y-62558182D01*
X130710671Y-62561818D01*
X130750713Y-62561604D01*
X130747550Y-62526475D01*
X130740969Y-62515535D01*
X130694383Y-62487683D01*
X130677489Y-62484467D01*
X130966376Y-62484467D01*
X130969453Y-62525948D01*
X130983925Y-62561604D01*
X130996956Y-62593709D01*
X131002108Y-62603346D01*
X131030132Y-62642774D01*
X131072242Y-62675030D01*
X131140107Y-62705623D01*
X131245400Y-62740063D01*
X131399791Y-62783858D01*
X131447705Y-62797013D01*
X131637793Y-62848273D01*
X131775932Y-62883317D01*
X131868750Y-62903399D01*
X131922876Y-62909775D01*
X131944940Y-62903700D01*
X131941571Y-62886429D01*
X131927112Y-62856384D01*
X131893246Y-62776723D01*
X131847200Y-62663232D01*
X131794625Y-62529638D01*
X131785004Y-62504940D01*
X131733305Y-62377580D01*
X131699661Y-62306614D01*
X131682644Y-62289456D01*
X131680826Y-62323520D01*
X131691075Y-62437144D01*
X131338674Y-62450633D01*
X131212706Y-62456617D01*
X131090770Y-62465064D01*
X131004650Y-62474138D01*
X130967708Y-62482686D01*
X130966376Y-62484467D01*
X130677489Y-62484467D01*
X130629554Y-62475342D01*
X130571966Y-62480980D01*
X130547107Y-62507064D01*
X128007813Y-62507064D01*
X128306513Y-62440968D01*
X128815933Y-62350199D01*
X129370426Y-62272875D01*
X129960931Y-62210230D01*
X130578388Y-62163499D01*
X130809577Y-62149417D01*
X131051804Y-62134576D01*
X131242350Y-62122397D01*
X131387231Y-62112100D01*
X131492457Y-62102902D01*
X131564042Y-62094020D01*
X131607999Y-62084673D01*
X131630340Y-62074078D01*
X131637078Y-62061454D01*
X131634226Y-62046017D01*
X131627797Y-62026987D01*
X131627194Y-62024928D01*
X131597543Y-61891193D01*
X131572726Y-61720168D01*
X131555680Y-61536621D01*
X131549341Y-61365315D01*
X131557629Y-61147729D01*
X131617216Y-60752583D01*
X131732723Y-60378769D01*
X131902332Y-60031500D01*
X132124226Y-59715991D01*
X132195447Y-59634824D01*
X132338941Y-59487657D01*
X132501611Y-59335702D01*
X132668561Y-59192098D01*
X132824898Y-59069983D01*
X132955728Y-58982496D01*
X133009075Y-58951385D01*
X133075004Y-58912640D01*
X133103818Y-58895262D01*
X133104305Y-58893545D01*
X133099434Y-58852530D01*
X133084299Y-58768726D01*
X133061609Y-58657414D01*
X133043868Y-58558591D01*
X133024654Y-58296056D01*
X133040621Y-58028938D01*
X133069203Y-57875577D01*
X134049840Y-57875577D01*
X134068250Y-58015591D01*
X134140678Y-58163772D01*
X134197186Y-58242615D01*
X134293770Y-58344702D01*
X134390495Y-58414626D01*
X134473159Y-58440562D01*
X134482234Y-58439670D01*
X134545503Y-58413498D01*
X134619314Y-58362360D01*
X134672236Y-58322162D01*
X134754502Y-58287047D01*
X134813488Y-58308151D01*
X134852632Y-58385820D01*
X134885855Y-58456524D01*
X134972312Y-58531009D01*
X134977629Y-58533555D01*
X135039301Y-58556561D01*
X135081620Y-58543698D01*
X135132370Y-58487393D01*
X135190324Y-58431386D01*
X135247179Y-58422095D01*
X135307935Y-58466481D01*
X135380967Y-58567234D01*
X135436662Y-58645646D01*
X135482013Y-58679249D01*
X135530886Y-58677458D01*
X135592229Y-58660290D01*
X135687393Y-58638514D01*
X135745716Y-58638880D01*
X135782679Y-58663390D01*
X135813761Y-58714047D01*
X135839847Y-58757596D01*
X135941903Y-58874494D01*
X136070120Y-58972970D01*
X136200254Y-59033016D01*
X136271353Y-59048245D01*
X136445370Y-59062433D01*
X136632709Y-59054182D01*
X136803265Y-59023944D01*
X136808911Y-59022396D01*
X136959584Y-58966904D01*
X137116159Y-58886094D01*
X137268037Y-58788214D01*
X137404617Y-58681515D01*
X137515299Y-58574247D01*
X137589482Y-58474660D01*
X137616565Y-58391002D01*
X137603858Y-58314677D01*
X137543089Y-58196978D01*
X137430300Y-58063471D01*
X137263417Y-57911809D01*
X137040366Y-57739648D01*
X136987881Y-57706154D01*
X138151696Y-57706154D01*
X138176762Y-57726725D01*
X138251817Y-57748578D01*
X138293078Y-57727534D01*
X138304742Y-57656163D01*
X138304742Y-57559941D01*
X138215863Y-57632702D01*
X138169300Y-57673967D01*
X138166658Y-57678798D01*
X138151696Y-57706154D01*
X136987881Y-57706154D01*
X136907221Y-57654679D01*
X136658494Y-57535842D01*
X136360290Y-57431268D01*
X136236619Y-57399216D01*
X137287637Y-57399216D01*
X137506842Y-57513698D01*
X137513721Y-57517270D01*
X137641618Y-57577694D01*
X137768128Y-57628222D01*
X137866811Y-57658237D01*
X137962042Y-57677344D01*
X138030447Y-57686411D01*
X138045885Y-57678798D01*
X138012464Y-57654396D01*
X137975161Y-57627470D01*
X137933140Y-57575077D01*
X137901059Y-57498294D01*
X137877404Y-57389494D01*
X137860663Y-57241053D01*
X137849322Y-57045347D01*
X137841867Y-56794748D01*
X137835671Y-56505743D01*
X137998019Y-56505743D01*
X137998997Y-56630842D01*
X138036208Y-56765526D01*
X138048857Y-56793348D01*
X138112373Y-56882221D01*
X138184947Y-56917623D01*
X138259020Y-56895154D01*
X138285190Y-56866575D01*
X138313471Y-56789367D01*
X138329646Y-56661983D01*
X138331319Y-56551204D01*
X138306990Y-56420835D01*
X138251157Y-56340737D01*
X138165031Y-56313468D01*
X138090404Y-56334675D01*
X138029684Y-56402823D01*
X137998019Y-56505743D01*
X137835671Y-56505743D01*
X137829049Y-56196841D01*
X137717951Y-56143862D01*
X137705472Y-56137890D01*
X137654404Y-56115532D01*
X137616700Y-56111439D01*
X137585243Y-56133655D01*
X137552918Y-56190223D01*
X137512607Y-56289187D01*
X137457195Y-56438591D01*
X137426287Y-56528446D01*
X137363934Y-56772689D01*
X137323427Y-57051847D01*
X137287637Y-57399216D01*
X136236619Y-57399216D01*
X136019937Y-57343058D01*
X135644763Y-57273311D01*
X135242094Y-57224130D01*
X135230467Y-57223079D01*
X134932348Y-57214118D01*
X134680020Y-57244959D01*
X134470202Y-57316708D01*
X134299614Y-57430472D01*
X134164974Y-57587356D01*
X134085986Y-57730983D01*
X134049840Y-57875577D01*
X133069203Y-57875577D01*
X133088888Y-57769955D01*
X133166574Y-57531826D01*
X133270801Y-57327270D01*
X133398686Y-57169005D01*
X133418397Y-57150950D01*
X133560501Y-57039160D01*
X133733717Y-56925011D01*
X133913993Y-56823384D01*
X134077275Y-56749162D01*
X134148570Y-56724099D01*
X134219013Y-56706157D01*
X134298273Y-56695712D01*
X134399763Y-56691723D01*
X134536898Y-56693145D01*
X134723092Y-56698935D01*
X135004310Y-56714782D01*
X135298776Y-56748138D01*
X135585296Y-56801565D01*
X135884462Y-56878997D01*
X136216867Y-56984369D01*
X136615814Y-57119621D01*
X136677914Y-56979235D01*
X136693319Y-56943632D01*
X136755248Y-56771483D01*
X136786109Y-56612026D01*
X136783884Y-56455602D01*
X136746554Y-56292548D01*
X136672101Y-56113205D01*
X136558506Y-55907911D01*
X136403751Y-55667006D01*
X136343451Y-55576277D01*
X136194716Y-55339227D01*
X136081226Y-55131448D01*
X136051725Y-55063697D01*
X136396614Y-55063697D01*
X136401439Y-55120427D01*
X136421753Y-55197365D01*
X136462044Y-55295940D01*
X136526681Y-55426637D01*
X136620033Y-55599944D01*
X136715549Y-55775298D01*
X136814585Y-55965297D01*
X136887372Y-56119003D01*
X136937608Y-56246057D01*
X136968997Y-56356100D01*
X136985238Y-56458773D01*
X136990032Y-56563714D01*
X136989850Y-56598351D01*
X136973123Y-56803798D01*
X136927399Y-56964241D01*
X136849895Y-57090129D01*
X136773806Y-57180556D01*
X136890198Y-57228217D01*
X136896773Y-57230914D01*
X137008684Y-57277645D01*
X137116072Y-57323622D01*
X137225555Y-57371366D01*
X137214751Y-57096109D01*
X137214035Y-56988683D01*
X137242443Y-56698902D01*
X137310304Y-56413869D01*
X137412262Y-56158993D01*
X137487503Y-56010512D01*
X137334601Y-55893907D01*
X137304920Y-55870652D01*
X137142198Y-55725890D01*
X136970945Y-55549553D01*
X136809129Y-55361080D01*
X136674716Y-55179910D01*
X136662376Y-55161515D01*
X136601448Y-55070763D01*
X136557859Y-55005954D01*
X136540355Y-54980100D01*
X136522476Y-54972694D01*
X136466996Y-54954532D01*
X136450817Y-54949866D01*
X136414576Y-54949078D01*
X136399572Y-54982269D01*
X136396614Y-55063697D01*
X136051725Y-55063697D01*
X135997958Y-54940220D01*
X135939890Y-54752825D01*
X135901999Y-54556542D01*
X135879265Y-54338652D01*
X135871331Y-54217751D01*
X135870582Y-54186828D01*
X136422997Y-54186828D01*
X136513774Y-54303904D01*
X136525660Y-54319723D01*
X136583501Y-54402433D01*
X136662591Y-54520994D01*
X136754074Y-54661986D01*
X136849093Y-54811990D01*
X136873230Y-54850375D01*
X137092726Y-55178279D01*
X137302546Y-55450023D01*
X137507543Y-55669735D01*
X137712569Y-55841540D01*
X137922478Y-55969567D01*
X138024242Y-56010512D01*
X138142122Y-56057941D01*
X138376353Y-56110790D01*
X138442544Y-56120018D01*
X138498494Y-56120637D01*
X138520119Y-56100071D01*
X138523708Y-56051799D01*
X138522470Y-56037148D01*
X138506916Y-55960944D01*
X138476333Y-55843195D01*
X138434261Y-55697008D01*
X138384240Y-55535492D01*
X138374169Y-55503695D01*
X138320684Y-55322767D01*
X138273208Y-55143285D01*
X138236577Y-54984466D01*
X138215629Y-54865530D01*
X138207999Y-54791240D01*
X138203433Y-54609694D01*
X138219177Y-54452209D01*
X138253053Y-54328137D01*
X138302883Y-54246835D01*
X138366488Y-54217655D01*
X138371838Y-54217754D01*
X138397362Y-54224102D01*
X138416781Y-54246947D01*
X138432247Y-54295468D01*
X138445910Y-54378842D01*
X138459920Y-54506250D01*
X138476428Y-54686867D01*
X138479375Y-54714357D01*
X138498091Y-54834894D01*
X138528388Y-54992992D01*
X138566783Y-55171269D01*
X138609793Y-55352344D01*
X138642772Y-55484825D01*
X138676560Y-55626164D01*
X138697352Y-55728545D01*
X138706450Y-55804615D01*
X138705156Y-55867020D01*
X138694770Y-55928406D01*
X138676595Y-56001420D01*
X138656709Y-56089710D01*
X138647574Y-56161001D01*
X138654004Y-56188345D01*
X138679064Y-56192846D01*
X138680832Y-56213893D01*
X138644841Y-56241221D01*
X138582883Y-56262532D01*
X138569223Y-56265466D01*
X138509764Y-56290621D01*
X138503820Y-56329319D01*
X138545380Y-56478236D01*
X138555190Y-56551204D01*
X138573768Y-56689395D01*
X138581229Y-56923660D01*
X138568105Y-57161906D01*
X138534740Y-57385011D01*
X138481478Y-57573848D01*
X138473200Y-57595762D01*
X138452880Y-57656163D01*
X138435394Y-57708142D01*
X138424347Y-57773766D01*
X138438588Y-57800400D01*
X138440926Y-57801256D01*
X138492732Y-57819635D01*
X138583714Y-57851503D01*
X138695752Y-57890510D01*
X138843825Y-57942673D01*
X138974718Y-57991366D01*
X139059197Y-58027074D01*
X139104545Y-58052925D01*
X139118043Y-58072050D01*
X139115350Y-58081562D01*
X139088542Y-58093299D01*
X139027642Y-58092064D01*
X138926077Y-58077009D01*
X138777274Y-58047288D01*
X138574659Y-58002054D01*
X138542595Y-57994683D01*
X138388797Y-57959364D01*
X138256265Y-57928983D01*
X138158234Y-57906571D01*
X138107936Y-57895159D01*
X138087951Y-57898389D01*
X138103327Y-57933808D01*
X138164205Y-58007001D01*
X138217755Y-58069596D01*
X138330120Y-58222031D01*
X138430767Y-58385260D01*
X138433689Y-58391002D01*
X138512082Y-58545032D01*
X138566454Y-58687094D01*
X138586269Y-58797194D01*
X138587728Y-58802499D01*
X138626824Y-58835665D01*
X138709265Y-58878809D01*
X138821711Y-58924702D01*
X138898999Y-58955209D01*
X139153675Y-59083364D01*
X139426525Y-59257777D01*
X139709048Y-59471691D01*
X139992747Y-59718348D01*
X140269123Y-59990992D01*
X140529679Y-60282863D01*
X140556378Y-60314971D01*
X140727297Y-60528757D01*
X140874331Y-60730956D01*
X141008922Y-60939117D01*
X141142515Y-61170788D01*
X141286553Y-61443517D01*
X141326547Y-61521610D01*
X141396760Y-61658407D01*
X141453558Y-61768674D01*
X141491925Y-61842682D01*
X141506846Y-61870706D01*
X141511351Y-61867645D01*
X141547484Y-61831814D01*
X141611548Y-61764084D01*
X141693772Y-61674703D01*
X141724645Y-61641967D01*
X141879396Y-61500102D01*
X142065570Y-61355597D01*
X142265037Y-61220906D01*
X142459666Y-61108479D01*
X142631327Y-61030770D01*
X142815666Y-60963556D01*
X142648425Y-60913148D01*
X142561486Y-60882841D01*
X142486233Y-60839909D01*
X142471620Y-60799326D01*
X142516512Y-60761865D01*
X142619773Y-60728299D01*
X142780268Y-60699402D01*
X142996861Y-60675947D01*
X143033861Y-60672692D01*
X143343544Y-60631531D01*
X143603818Y-60570177D01*
X143809396Y-60489841D01*
X143880920Y-60451428D01*
X143941265Y-60413421D01*
X143959193Y-60393452D01*
X143943253Y-60391840D01*
X143881364Y-60403056D01*
X143791858Y-60427818D01*
X143729364Y-60444793D01*
X143575764Y-60473271D01*
X143405487Y-60491814D01*
X143237909Y-60499256D01*
X143092410Y-60494431D01*
X142988367Y-60476172D01*
X142929361Y-60450224D01*
X142811235Y-60360469D01*
X142717201Y-60240614D01*
X142665908Y-60111735D01*
X142663271Y-60095996D01*
X142669764Y-59934454D01*
X142732732Y-59770820D01*
X142847321Y-59611983D01*
X143008680Y-59464835D01*
X143211957Y-59336266D01*
X143251803Y-59316497D01*
X143378690Y-59260599D01*
X143541275Y-59195415D01*
X143722840Y-59127512D01*
X143906664Y-59063455D01*
X143993415Y-59034014D01*
X144171373Y-58971017D01*
X144335426Y-58909735D01*
X144470345Y-58855943D01*
X144560900Y-58815414D01*
X144733791Y-58718067D01*
X145009859Y-58509768D01*
X145240271Y-58258910D01*
X145425504Y-57964930D01*
X145566036Y-57627261D01*
X145589021Y-57549385D01*
X145611654Y-57441802D01*
X145627829Y-57313524D01*
X145639196Y-57150601D01*
X145647404Y-56939084D01*
X145648373Y-56608912D01*
X145612721Y-56085490D01*
X145532501Y-55582448D01*
X145409384Y-55107137D01*
X145245038Y-54666906D01*
X145041133Y-54269107D01*
X145034373Y-54257833D01*
X144964522Y-54146132D01*
X144882796Y-54021916D01*
X144796843Y-53896021D01*
X144714309Y-53779288D01*
X144642841Y-53682552D01*
X144590087Y-53616652D01*
X144563692Y-53592427D01*
X144558498Y-53594708D01*
X144524792Y-53630831D01*
X144477899Y-53696862D01*
X144456678Y-53730030D01*
X144428761Y-53786443D01*
X144433630Y-53831730D01*
X144470144Y-53895052D01*
X144473582Y-53900578D01*
X144532952Y-54028619D01*
X144583461Y-54196268D01*
X144623585Y-54389376D01*
X144651800Y-54593793D01*
X144666584Y-54795371D01*
X144666413Y-54979959D01*
X144649763Y-55133409D01*
X144615112Y-55241572D01*
X144614778Y-55242181D01*
X144533961Y-55340278D01*
X144425013Y-55410656D01*
X144312207Y-55437606D01*
X144301856Y-55437059D01*
X144256338Y-55408713D01*
X144252020Y-55346866D01*
X144290554Y-55264702D01*
X144295865Y-55256619D01*
X144343773Y-55145964D01*
X144378789Y-54997479D01*
X144397039Y-54833118D01*
X144394649Y-54674836D01*
X144392169Y-54652639D01*
X144374789Y-54547832D01*
X144347876Y-54421555D01*
X144315684Y-54290393D01*
X144282471Y-54170929D01*
X144252493Y-54079747D01*
X144230008Y-54033429D01*
X144224338Y-54032745D01*
X144182163Y-54053098D01*
X144116000Y-54098293D01*
X144045454Y-54148647D01*
X143963967Y-54193446D01*
X143918269Y-54194479D01*
X143904003Y-54152866D01*
X143905564Y-54130485D01*
X143916826Y-54084597D01*
X143942169Y-54022074D01*
X143985342Y-53935592D01*
X144050097Y-53817829D01*
X144140186Y-53661461D01*
X144259360Y-53459164D01*
X144279595Y-53424863D01*
X144374231Y-53260602D01*
X144464381Y-53098516D01*
X144540683Y-52955686D01*
X144593773Y-52849189D01*
X144622957Y-52784379D01*
X144733455Y-52505524D01*
X144843440Y-52177742D01*
X144949751Y-51811721D01*
X145049226Y-51418145D01*
X145138703Y-51007701D01*
X145161731Y-50893711D01*
X145202842Y-50693462D01*
X145240251Y-50515256D01*
X145271852Y-50368926D01*
X145295541Y-50264306D01*
X145309213Y-50211229D01*
X145314760Y-50191200D01*
X145315047Y-50133928D01*
X145287678Y-50063045D01*
X145226874Y-49960983D01*
X145200350Y-49917907D01*
X145123104Y-49779852D01*
X145028162Y-49596894D01*
X144919934Y-49378054D01*
X144802833Y-49132353D01*
X144681268Y-48868811D01*
X144559650Y-48596450D01*
X144515690Y-48496304D01*
X144280228Y-48514354D01*
X144263782Y-48515550D01*
X144045268Y-48515597D01*
X143841442Y-48481148D01*
X143775169Y-48463060D01*
X143595272Y-48400360D01*
X143429850Y-48324252D01*
X143288102Y-48240634D01*
X143179222Y-48155403D01*
X143112409Y-48074456D01*
X143096860Y-48003692D01*
X143106360Y-47979333D01*
X143141867Y-47956161D01*
X143207329Y-47956729D01*
X143309135Y-47982315D01*
X143453677Y-48034195D01*
X143647343Y-48113646D01*
X143790706Y-48171778D01*
X143965293Y-48235244D01*
X144123392Y-48285038D01*
X144254800Y-48318299D01*
X144349314Y-48332165D01*
X144396733Y-48323777D01*
X144397850Y-48322380D01*
X144390344Y-48282193D01*
X144348108Y-48206703D01*
X144278511Y-48105575D01*
X144188919Y-47988473D01*
X144086702Y-47865060D01*
X143979226Y-47745001D01*
X143873860Y-47637959D01*
X143825335Y-47592141D01*
X143672894Y-47455641D01*
X143508807Y-47320849D01*
X143322403Y-47179581D01*
X143103013Y-47023653D01*
X142839969Y-46844881D01*
X142739363Y-46776995D01*
X142604997Y-46682748D01*
X142514685Y-46612543D01*
X142462479Y-46561031D01*
X142442433Y-46522857D01*
X142448600Y-46492671D01*
X142487457Y-46464966D01*
X142572227Y-46467491D01*
X142692324Y-46509208D01*
X142842991Y-46587077D01*
X143019469Y-46698060D01*
X143217003Y-46839118D01*
X143430835Y-47007212D01*
X143656207Y-47199303D01*
X143888363Y-47412352D01*
X144169890Y-47680106D01*
X144231133Y-47594016D01*
X144299915Y-47509320D01*
X144411547Y-47389762D01*
X144548731Y-47253899D01*
X144699012Y-47113352D01*
X144849930Y-46979743D01*
X144989030Y-46864694D01*
X145103854Y-46779826D01*
X145178156Y-46730760D01*
X145336772Y-46633558D01*
X145476528Y-46564408D01*
X145613670Y-46518688D01*
X145764443Y-46491775D01*
X145945091Y-46479044D01*
X146171861Y-46475873D01*
X146242104Y-46475948D01*
X146410185Y-46477542D01*
X146540316Y-46483140D01*
X146650783Y-46495243D01*
X146759876Y-46516353D01*
X146885881Y-46548972D01*
X147047086Y-46595600D01*
X147218752Y-46647163D01*
X147405940Y-46705189D01*
X147578228Y-46760261D01*
X147712990Y-46805254D01*
X147972882Y-46895305D01*
X147909758Y-46806655D01*
X147866665Y-46752397D01*
X147754398Y-46634370D01*
X147605429Y-46496091D01*
X147430109Y-46346011D01*
X147238789Y-46192578D01*
X147041823Y-46044242D01*
X146849560Y-45909452D01*
X146672353Y-45796656D01*
X146515518Y-45706326D01*
X146113369Y-45505015D01*
X145713981Y-45352124D01*
X145306605Y-45245220D01*
X144880494Y-45181872D01*
X144424899Y-45159650D01*
X143929072Y-45176121D01*
X143739100Y-45190273D01*
X143444725Y-45219970D01*
X143195177Y-45257914D01*
X142979194Y-45306877D01*
X142785515Y-45369633D01*
X142602876Y-45448953D01*
X142420016Y-45547610D01*
X142271535Y-45644744D01*
X142104220Y-45780305D01*
X141959718Y-45925746D01*
X141846282Y-46071539D01*
X141772168Y-46208156D01*
X141745629Y-46326070D01*
X141752617Y-46393676D01*
X141782877Y-46527877D01*
X141833928Y-46701892D01*
X141902339Y-46906072D01*
X141984677Y-47130763D01*
X142077511Y-47366315D01*
X142177408Y-47603076D01*
X142280935Y-47831393D01*
X142296474Y-47864500D01*
X142470720Y-48258535D01*
X142638579Y-48678124D01*
X142795693Y-49110101D01*
X142937706Y-49541299D01*
X143060263Y-49958554D01*
X143159007Y-50348698D01*
X143229582Y-50698567D01*
X143255148Y-50862959D01*
X143289197Y-51145373D01*
X143310723Y-51419886D01*
X143319723Y-51677601D01*
X143316193Y-51909619D01*
X143300127Y-52107041D01*
X143271522Y-52260970D01*
X143230373Y-52362507D01*
X143225391Y-52369945D01*
X143177068Y-52419823D01*
X143135494Y-52414224D01*
X143097725Y-52350797D01*
X143060816Y-52227193D01*
X143033770Y-52127227D01*
X143000507Y-52056325D01*
X142947711Y-52003969D01*
X142859180Y-51947703D01*
X142835515Y-51932678D01*
X142743703Y-51864528D01*
X142624886Y-51766749D01*
X142491828Y-51650084D01*
X142357294Y-51525277D01*
X142238472Y-51414255D01*
X142095753Y-51286966D01*
X141958997Y-51170817D01*
X141836134Y-51072143D01*
X141735093Y-50997281D01*
X141663804Y-50952567D01*
X141630197Y-50944335D01*
X141631211Y-50961077D01*
X141650759Y-51021559D01*
X141686354Y-51108610D01*
X141711380Y-51179847D01*
X141738135Y-51291353D01*
X141759151Y-51415753D01*
X141772854Y-51538256D01*
X141777665Y-51644072D01*
X141772011Y-51718408D01*
X141754315Y-51746473D01*
X141737666Y-51740274D01*
X141676728Y-51704877D01*
X141585502Y-51645121D01*
X141476589Y-51569058D01*
X141140238Y-51353698D01*
X140804607Y-51194653D01*
X140462542Y-51090862D01*
X140104233Y-51039354D01*
X139719868Y-51037160D01*
X139593171Y-51045134D01*
X139467342Y-51055773D01*
X139376008Y-51066636D01*
X139333175Y-51076305D01*
X139330911Y-51079072D01*
X139353911Y-51100867D01*
X139422118Y-51133697D01*
X139523602Y-51171592D01*
X139645264Y-51216271D01*
X139810913Y-51284800D01*
X139957338Y-51352801D01*
X139994979Y-51372464D01*
X140121409Y-51445886D01*
X140262207Y-51536193D01*
X140407749Y-51636224D01*
X140548411Y-51738819D01*
X140674568Y-51836817D01*
X140770363Y-51917790D01*
X140776595Y-51923058D01*
X140844870Y-51990382D01*
X140869767Y-52031629D01*
X140869467Y-52033401D01*
X140837259Y-52047394D01*
X140768104Y-52051063D01*
X140701377Y-52052734D01*
X140586535Y-52060433D01*
X140441709Y-52072946D01*
X140283314Y-52088991D01*
X140217064Y-52096008D01*
X140095336Y-52107032D01*
X139983509Y-52113112D01*
X139871325Y-52113667D01*
X139748526Y-52108115D01*
X139604852Y-52095875D01*
X139430046Y-52076367D01*
X139213847Y-52049008D01*
X138945999Y-52013218D01*
X138925540Y-52010513D01*
X138698201Y-51987383D01*
X138456544Y-51973512D01*
X138219556Y-51969276D01*
X138006222Y-51975053D01*
X137835531Y-51991218D01*
X137823142Y-51993093D01*
X137768013Y-52002812D01*
X137751537Y-52011321D01*
X137779566Y-52020898D01*
X137857952Y-52033823D01*
X137992547Y-52052375D01*
X138110131Y-52069938D01*
X138370366Y-52120161D01*
X138628523Y-52184017D01*
X138874591Y-52258042D01*
X139098557Y-52338776D01*
X139290408Y-52422757D01*
X139296303Y-52426055D01*
X139440131Y-52506522D01*
X139537715Y-52586611D01*
X139597657Y-52654396D01*
X139490793Y-52649893D01*
X139481877Y-52649668D01*
X139389818Y-52654140D01*
X139253492Y-52667584D01*
X139087936Y-52687913D01*
X138908188Y-52713042D01*
X138729284Y-52740889D01*
X138566261Y-52769366D01*
X138434157Y-52796390D01*
X138347963Y-52817576D01*
X137946886Y-52954998D01*
X137561495Y-53152381D01*
X137193255Y-53408871D01*
X136843631Y-53723615D01*
X136834834Y-53732518D01*
X136720454Y-53849816D01*
X136617457Y-53958054D01*
X136536826Y-54045540D01*
X136489547Y-54100579D01*
X136422997Y-54186828D01*
X135870582Y-54186828D01*
X135868927Y-54118436D01*
X135875997Y-54052699D01*
X135894476Y-54004948D01*
X135926298Y-53959589D01*
X135969601Y-53914483D01*
X136057226Y-53875394D01*
X136151761Y-53898234D01*
X136253853Y-53983049D01*
X136289049Y-54020507D01*
X136352248Y-54077868D01*
X136386383Y-54087846D01*
X136396614Y-54052968D01*
X136399131Y-54035208D01*
X136427394Y-53960846D01*
X136478637Y-53862643D01*
X136542290Y-53759711D01*
X136607784Y-53671162D01*
X136660815Y-53613472D01*
X136763108Y-53513420D01*
X136889855Y-53397207D01*
X137027054Y-53277595D01*
X137160699Y-53167341D01*
X137281536Y-53071091D01*
X136940738Y-52781136D01*
X136635223Y-52534145D01*
X136271872Y-52277898D01*
X135921921Y-52075141D01*
X135580485Y-51923109D01*
X135242681Y-51819034D01*
X135011530Y-51763564D01*
X134781687Y-52007210D01*
X134649358Y-52155995D01*
X134460901Y-52398882D01*
X134270758Y-52681844D01*
X134074405Y-53011746D01*
X133867320Y-53395455D01*
X133750162Y-53616652D01*
X133613508Y-53856944D01*
X133483883Y-54059444D01*
X133352533Y-54235686D01*
X133210704Y-54397209D01*
X133049643Y-54555547D01*
X132860598Y-54722237D01*
X132686407Y-54859483D01*
X132413412Y-55042616D01*
X132117552Y-55209910D01*
X131808660Y-55357566D01*
X131496569Y-55481783D01*
X131191112Y-55578761D01*
X130902122Y-55644699D01*
X130639430Y-55675798D01*
X130412871Y-55668257D01*
X130265580Y-55648068D01*
X130265580Y-55904355D01*
X130266671Y-55996373D01*
X130273864Y-56121741D01*
X130290363Y-56243586D01*
X130319137Y-56377504D01*
X130363155Y-56539094D01*
X130425385Y-56743953D01*
X130455613Y-56841400D01*
X130490528Y-56959385D01*
X130508318Y-57033843D01*
X130510305Y-57074719D01*
X130497813Y-57091953D01*
X130472166Y-57095488D01*
X130437917Y-57077556D01*
X130377641Y-57008544D01*
X130302331Y-56894477D01*
X130216649Y-56742553D01*
X130125258Y-56559970D01*
X130075961Y-56447208D01*
X129996053Y-56196338D01*
X129961761Y-55960671D01*
X129975187Y-55751527D01*
X130006413Y-55593599D01*
X129901584Y-55528811D01*
X129884399Y-55517875D01*
X129813815Y-55466100D01*
X129773101Y-55425205D01*
X129752092Y-55401994D01*
X129689111Y-55349246D01*
X129604464Y-55287848D01*
X129552357Y-55250089D01*
X129452466Y-55166972D01*
X129376393Y-55090564D01*
X129355634Y-55066664D01*
X129306895Y-55017546D01*
X129282110Y-55003567D01*
X129269077Y-55025804D01*
X129231029Y-55095722D01*
X129173099Y-55204204D01*
X129100181Y-55342077D01*
X129017170Y-55500168D01*
X128945715Y-55634958D01*
X128830632Y-55842942D01*
X128736752Y-55999818D01*
X128664902Y-56104824D01*
X128615908Y-56157199D01*
X128590596Y-56156179D01*
X128589791Y-56101003D01*
X128614320Y-55990909D01*
X128665007Y-55825135D01*
X128703674Y-55712815D01*
X128785493Y-55498902D01*
X128872362Y-55297874D01*
X128958692Y-55121540D01*
X129038897Y-54981710D01*
X129107388Y-54890192D01*
X129197305Y-54796350D01*
X129123798Y-54577384D01*
X129037902Y-54244548D01*
X128991187Y-53852987D01*
X128992467Y-53439460D01*
X129040773Y-53012225D01*
X129135133Y-52579538D01*
X129274579Y-52149655D01*
X129458141Y-51730833D01*
X129645364Y-51389413D01*
X129889657Y-51005411D01*
X130070182Y-50753693D01*
X130765953Y-50753693D01*
X130883315Y-50733363D01*
X130954806Y-50721378D01*
X131263702Y-50681842D01*
X131536149Y-50672457D01*
X131788560Y-50695640D01*
X132037346Y-50753810D01*
X132298920Y-50849385D01*
X132589693Y-50984782D01*
X132947849Y-51182261D01*
X133389914Y-51483795D01*
X133801511Y-51836202D01*
X133848950Y-51880568D01*
X133929736Y-51945628D01*
X133998840Y-51973939D01*
X134077608Y-51971478D01*
X134187387Y-51944220D01*
X134265634Y-51919413D01*
X134350179Y-51878477D01*
X134423991Y-51816580D01*
X134509484Y-51717975D01*
X134584951Y-51626694D01*
X134827359Y-51357541D01*
X135078793Y-51111179D01*
X135327279Y-50898839D01*
X135560844Y-50731752D01*
X135651078Y-50678147D01*
X135876611Y-50568008D01*
X136119599Y-50476801D01*
X136366349Y-50407982D01*
X136603166Y-50365009D01*
X136816357Y-50351338D01*
X136992229Y-50370425D01*
X137061299Y-50391401D01*
X137168457Y-50451599D01*
X137225286Y-50529825D01*
X137225777Y-50619666D01*
X137197215Y-50674237D01*
X137143648Y-50720299D01*
X137055856Y-50762250D01*
X136924615Y-50804498D01*
X136740703Y-50851448D01*
X136651945Y-50873235D01*
X136488868Y-50916097D01*
X136339140Y-50958647D01*
X136226623Y-50994258D01*
X136184273Y-51009727D01*
X136051981Y-51065310D01*
X135912276Y-51132689D01*
X135774291Y-51206346D01*
X135647157Y-51280762D01*
X135540009Y-51350421D01*
X135461978Y-51409804D01*
X135422199Y-51453393D01*
X135429803Y-51475671D01*
X135469561Y-51487057D01*
X135555158Y-51511647D01*
X135661516Y-51542247D01*
X135707420Y-51556340D01*
X135930367Y-51645004D01*
X136171720Y-51768946D01*
X136420438Y-51920108D01*
X136665478Y-52090433D01*
X136895799Y-52271862D01*
X137100358Y-52456339D01*
X137268115Y-52635804D01*
X137388028Y-52802200D01*
X137416134Y-52847858D01*
X137460331Y-52910158D01*
X137486594Y-52934167D01*
X137498994Y-52930109D01*
X137554028Y-52901969D01*
X137632205Y-52856062D01*
X137661178Y-52838556D01*
X137873319Y-52728633D01*
X138124206Y-52628448D01*
X138421772Y-52535151D01*
X138773954Y-52445890D01*
X138798901Y-52438935D01*
X138809687Y-52426055D01*
X138772246Y-52408731D01*
X138680112Y-52382604D01*
X138596551Y-52361553D01*
X138355612Y-52308530D01*
X138092125Y-52259539D01*
X137822675Y-52217056D01*
X137563845Y-52183557D01*
X137332219Y-52161516D01*
X137144381Y-52153407D01*
X137139783Y-52153385D01*
X137021210Y-52138931D01*
X136948623Y-52095639D01*
X136924188Y-52066732D01*
X136914886Y-52029899D01*
X136952740Y-51987349D01*
X136952864Y-51987237D01*
X137066722Y-51916177D01*
X137239363Y-51854239D01*
X137467577Y-51802155D01*
X137748156Y-51760658D01*
X138077891Y-51730481D01*
X138143514Y-51725920D01*
X138263458Y-51716442D01*
X138333208Y-51707204D01*
X138361447Y-51695572D01*
X138356862Y-51678910D01*
X138328138Y-51654586D01*
X138269600Y-51614884D01*
X138204902Y-51581434D01*
X138185282Y-51573606D01*
X138165864Y-51560943D01*
X138143181Y-51536805D01*
X138112523Y-51494100D01*
X138069178Y-51425734D01*
X138008436Y-51324613D01*
X137925584Y-51183644D01*
X137923595Y-51180236D01*
X138265708Y-51180236D01*
X138366568Y-51314771D01*
X138399172Y-51358862D01*
X138485721Y-51479511D01*
X138565100Y-51594198D01*
X138662772Y-51739090D01*
X139101553Y-51788648D01*
X139290097Y-51809289D01*
X139513809Y-51832590D01*
X139731734Y-51854242D01*
X139915703Y-51871381D01*
X140057028Y-51884194D01*
X140209097Y-51898682D01*
X140334817Y-51911394D01*
X140416196Y-51920562D01*
X140455413Y-51925464D01*
X140509237Y-51929221D01*
X140511777Y-51917790D01*
X140470592Y-51886427D01*
X140452746Y-51874565D01*
X140359979Y-51822012D01*
X140227354Y-51754762D01*
X140068966Y-51679265D01*
X139898908Y-51601970D01*
X139731277Y-51529328D01*
X139580165Y-51467789D01*
X139459669Y-51423803D01*
X139311045Y-51379591D01*
X139096269Y-51325231D01*
X138862725Y-51273863D01*
X138634032Y-51230622D01*
X138433809Y-51200648D01*
X138265708Y-51180236D01*
X137923595Y-51180236D01*
X137815914Y-50995734D01*
X137802164Y-50972210D01*
X137693508Y-50792150D01*
X137597139Y-50647544D01*
X137499000Y-50519962D01*
X137385038Y-50390976D01*
X137241196Y-50242156D01*
X137229884Y-50230781D01*
X136907013Y-49934793D01*
X136584299Y-49693335D01*
X136207685Y-49461365D01*
X135701149Y-49194701D01*
X135168204Y-48959144D01*
X134623343Y-48760420D01*
X134081057Y-48604258D01*
X133555840Y-48496386D01*
X133538969Y-48493726D01*
X133433767Y-48481058D01*
X133348358Y-48483464D01*
X133256900Y-48503953D01*
X133133550Y-48545531D01*
X133038822Y-48581050D01*
X132662408Y-48751818D01*
X132281160Y-48972530D01*
X131891549Y-49245607D01*
X131490049Y-49573467D01*
X131073130Y-49958532D01*
X130832773Y-50192492D01*
X130848798Y-50336047D01*
X130850901Y-50440963D01*
X130815388Y-50616647D01*
X130765953Y-50753693D01*
X130070182Y-50753693D01*
X130172995Y-50610334D01*
X130487716Y-50214832D01*
X130826157Y-49829555D01*
X131158797Y-49490239D01*
X131544925Y-49147528D01*
X131931154Y-48858380D01*
X132315286Y-48623810D01*
X132695125Y-48444833D01*
X133068471Y-48322462D01*
X133433128Y-48257714D01*
X133786898Y-48251603D01*
X134127584Y-48305143D01*
X134340713Y-48362260D01*
X134821114Y-48515214D01*
X135306411Y-48700633D01*
X135783114Y-48912297D01*
X136237735Y-49143981D01*
X136656787Y-49389466D01*
X137026780Y-49642527D01*
X137058614Y-49667451D01*
X137156293Y-49750339D01*
X137284452Y-49864872D01*
X137433643Y-50002394D01*
X137594418Y-50154250D01*
X137757329Y-50311785D01*
X137845497Y-50397931D01*
X137996465Y-50544548D01*
X138133469Y-50676518D01*
X138248860Y-50786525D01*
X138334988Y-50867253D01*
X138384205Y-50911386D01*
X138479308Y-50990256D01*
X138725823Y-50931524D01*
X138787155Y-50917551D01*
X138949591Y-50883995D01*
X139131306Y-50849881D01*
X139303257Y-50820781D01*
X139633985Y-50786980D01*
X140036867Y-50796190D01*
X140423693Y-50861197D01*
X140789164Y-50980619D01*
X141127984Y-51153072D01*
X141434855Y-51377174D01*
X141452953Y-51392780D01*
X141550933Y-51476105D01*
X141610881Y-51522592D01*
X141640600Y-51536144D01*
X141647891Y-51520662D01*
X141640555Y-51480048D01*
X141633273Y-51454974D01*
X141599977Y-51366590D01*
X141549593Y-51249062D01*
X141489867Y-51120857D01*
X141430133Y-51004676D01*
X141366051Y-50900516D01*
X141289522Y-50800527D01*
X141188952Y-50689643D01*
X141052746Y-50552796D01*
X141017920Y-50518500D01*
X140910581Y-50410868D01*
X140823824Y-50320963D01*
X140765797Y-50257356D01*
X140744644Y-50228618D01*
X140745114Y-50226594D01*
X140777839Y-50218918D01*
X140846306Y-50226612D01*
X140933412Y-50243266D01*
X141002036Y-50255589D01*
X141022468Y-50264200D01*
X141092038Y-50303155D01*
X141200543Y-50368868D01*
X141340044Y-50456405D01*
X141502605Y-50560830D01*
X141680286Y-50677210D01*
X141763022Y-50732016D01*
X141951874Y-50858694D01*
X142102228Y-50963330D01*
X142224503Y-51054286D01*
X142329114Y-51139923D01*
X142426478Y-51228604D01*
X142527013Y-51328691D01*
X142641135Y-51448546D01*
X142712626Y-51524284D01*
X142819058Y-51635276D01*
X142905210Y-51722902D01*
X142963658Y-51779664D01*
X142986982Y-51798060D01*
X142987645Y-51785137D01*
X142981417Y-51720107D01*
X142967303Y-51609587D01*
X142946846Y-51463754D01*
X142921590Y-51292784D01*
X142893081Y-51106853D01*
X142862863Y-50916137D01*
X142832479Y-50730811D01*
X142803474Y-50561054D01*
X142777394Y-50417040D01*
X142718778Y-50122527D01*
X142615023Y-49665344D01*
X142503293Y-49244281D01*
X142386929Y-48872552D01*
X142342494Y-48745618D01*
X142279996Y-48572133D01*
X142208788Y-48378336D01*
X142132631Y-48174117D01*
X142055288Y-47969363D01*
X141980520Y-47773961D01*
X141912089Y-47597801D01*
X141853757Y-47450770D01*
X141809286Y-47342756D01*
X141782437Y-47283648D01*
X141774284Y-47267185D01*
X141737290Y-47176122D01*
X141691411Y-47046270D01*
X141642020Y-46894559D01*
X141594494Y-46737920D01*
X141554207Y-46593283D01*
X141526535Y-46477579D01*
X141503465Y-46328218D01*
X141504970Y-46157670D01*
X141546497Y-46000796D01*
X141632593Y-45842319D01*
X141767804Y-45666961D01*
X141866063Y-45558302D01*
X142054683Y-45384496D01*
X142261281Y-45240125D01*
X142493079Y-45122344D01*
X142757305Y-45028308D01*
X143061183Y-44955173D01*
X143411938Y-44900095D01*
X143816795Y-44860228D01*
X143959287Y-44850756D01*
X144309179Y-44841753D01*
X144651029Y-44856041D01*
X145006275Y-44894971D01*
X145396351Y-44959896D01*
X145433862Y-44967103D01*
X145614231Y-45006187D01*
X145779392Y-45051655D01*
X145943091Y-45108712D01*
X146119074Y-45182559D01*
X146321085Y-45278398D01*
X146562870Y-45401434D01*
X146706395Y-45477318D01*
X147062464Y-45680086D01*
X147369378Y-45880116D01*
X147636027Y-46084622D01*
X147871305Y-46300817D01*
X148084103Y-46535915D01*
X148283314Y-46797129D01*
X148293662Y-46811812D01*
X148348838Y-46895305D01*
X148560490Y-47215579D01*
G37*
D14*
%TO.C,RF1*%
X156524215Y-72055492D02*
X172724215Y-72055492D01*
X156524215Y-88255492D02*
X172724215Y-88255492D01*
D15*
X169843067Y-73249229D02*
G75*
G02*
X168682111Y-73249229I-580478J0D01*
G01*
X168682111Y-73249229D02*
G75*
G02*
X169843067Y-73249229I580478J0D01*
G01*
%TD*%
M02*
