%TF.GenerationSoftware,KiCad,Pcbnew,8.0.6*%
%TF.CreationDate,2025-03-01T18:05:20-05:00*%
%TF.ProjectId,receiver,72656365-6976-4657-922e-6b696361645f,rev?*%
%TF.SameCoordinates,Original*%
%TF.FileFunction,Legend,Bot*%
%TF.FilePolarity,Positive*%
%FSLAX46Y46*%
G04 Gerber Fmt 4.6, Leading zero omitted, Abs format (unit mm)*
G04 Created by KiCad (PCBNEW 8.0.6) date 2025-03-01 18:05:20*
%MOMM*%
%LPD*%
G01*
G04 APERTURE LIST*
%ADD10C,0.153000*%
%ADD11C,0.120000*%
%ADD12C,0.100000*%
%ADD13C,0.152400*%
G04 APERTURE END LIST*
D10*
X134112669Y-118397620D02*
X134446002Y-117921429D01*
X134684097Y-118397620D02*
X134684097Y-117397620D01*
X134684097Y-117397620D02*
X134303145Y-117397620D01*
X134303145Y-117397620D02*
X134207907Y-117445239D01*
X134207907Y-117445239D02*
X134160288Y-117492858D01*
X134160288Y-117492858D02*
X134112669Y-117588096D01*
X134112669Y-117588096D02*
X134112669Y-117730953D01*
X134112669Y-117730953D02*
X134160288Y-117826191D01*
X134160288Y-117826191D02*
X134207907Y-117873810D01*
X134207907Y-117873810D02*
X134303145Y-117921429D01*
X134303145Y-117921429D02*
X134684097Y-117921429D01*
X133826954Y-117397620D02*
X133493621Y-118397620D01*
X133493621Y-118397620D02*
X133160288Y-117397620D01*
X132303145Y-118397620D02*
X132874573Y-118397620D01*
X132588859Y-118397620D02*
X132588859Y-117397620D01*
X132588859Y-117397620D02*
X132684097Y-117540477D01*
X132684097Y-117540477D02*
X132779335Y-117635715D01*
X132779335Y-117635715D02*
X132874573Y-117683334D01*
X159918289Y-105178396D02*
X159775432Y-105226015D01*
X159775432Y-105226015D02*
X159537337Y-105226015D01*
X159537337Y-105226015D02*
X159442099Y-105178396D01*
X159442099Y-105178396D02*
X159394480Y-105130776D01*
X159394480Y-105130776D02*
X159346861Y-105035538D01*
X159346861Y-105035538D02*
X159346861Y-104940300D01*
X159346861Y-104940300D02*
X159394480Y-104845062D01*
X159394480Y-104845062D02*
X159442099Y-104797443D01*
X159442099Y-104797443D02*
X159537337Y-104749824D01*
X159537337Y-104749824D02*
X159727813Y-104702205D01*
X159727813Y-104702205D02*
X159823051Y-104654586D01*
X159823051Y-104654586D02*
X159870670Y-104606967D01*
X159870670Y-104606967D02*
X159918289Y-104511729D01*
X159918289Y-104511729D02*
X159918289Y-104416491D01*
X159918289Y-104416491D02*
X159870670Y-104321253D01*
X159870670Y-104321253D02*
X159823051Y-104273634D01*
X159823051Y-104273634D02*
X159727813Y-104226015D01*
X159727813Y-104226015D02*
X159489718Y-104226015D01*
X159489718Y-104226015D02*
X159346861Y-104273634D01*
X159013527Y-104226015D02*
X158775432Y-105226015D01*
X158775432Y-105226015D02*
X158584956Y-104511729D01*
X158584956Y-104511729D02*
X158394480Y-105226015D01*
X158394480Y-105226015D02*
X158156385Y-104226015D01*
X157870670Y-104226015D02*
X157251623Y-104226015D01*
X157251623Y-104226015D02*
X157584956Y-104606967D01*
X157584956Y-104606967D02*
X157442099Y-104606967D01*
X157442099Y-104606967D02*
X157346861Y-104654586D01*
X157346861Y-104654586D02*
X157299242Y-104702205D01*
X157299242Y-104702205D02*
X157251623Y-104797443D01*
X157251623Y-104797443D02*
X157251623Y-105035538D01*
X157251623Y-105035538D02*
X157299242Y-105130776D01*
X157299242Y-105130776D02*
X157346861Y-105178396D01*
X157346861Y-105178396D02*
X157442099Y-105226015D01*
X157442099Y-105226015D02*
X157727813Y-105226015D01*
X157727813Y-105226015D02*
X157823051Y-105178396D01*
X157823051Y-105178396D02*
X157870670Y-105130776D01*
X142918289Y-105178396D02*
X142775432Y-105226015D01*
X142775432Y-105226015D02*
X142537337Y-105226015D01*
X142537337Y-105226015D02*
X142442099Y-105178396D01*
X142442099Y-105178396D02*
X142394480Y-105130776D01*
X142394480Y-105130776D02*
X142346861Y-105035538D01*
X142346861Y-105035538D02*
X142346861Y-104940300D01*
X142346861Y-104940300D02*
X142394480Y-104845062D01*
X142394480Y-104845062D02*
X142442099Y-104797443D01*
X142442099Y-104797443D02*
X142537337Y-104749824D01*
X142537337Y-104749824D02*
X142727813Y-104702205D01*
X142727813Y-104702205D02*
X142823051Y-104654586D01*
X142823051Y-104654586D02*
X142870670Y-104606967D01*
X142870670Y-104606967D02*
X142918289Y-104511729D01*
X142918289Y-104511729D02*
X142918289Y-104416491D01*
X142918289Y-104416491D02*
X142870670Y-104321253D01*
X142870670Y-104321253D02*
X142823051Y-104273634D01*
X142823051Y-104273634D02*
X142727813Y-104226015D01*
X142727813Y-104226015D02*
X142489718Y-104226015D01*
X142489718Y-104226015D02*
X142346861Y-104273634D01*
X142013527Y-104226015D02*
X141775432Y-105226015D01*
X141775432Y-105226015D02*
X141584956Y-104511729D01*
X141584956Y-104511729D02*
X141394480Y-105226015D01*
X141394480Y-105226015D02*
X141156385Y-104226015D01*
X140251623Y-105226015D02*
X140823051Y-105226015D01*
X140537337Y-105226015D02*
X140537337Y-104226015D01*
X140537337Y-104226015D02*
X140632575Y-104368872D01*
X140632575Y-104368872D02*
X140727813Y-104464110D01*
X140727813Y-104464110D02*
X140823051Y-104511729D01*
X159918289Y-122178396D02*
X159775432Y-122226015D01*
X159775432Y-122226015D02*
X159537337Y-122226015D01*
X159537337Y-122226015D02*
X159442099Y-122178396D01*
X159442099Y-122178396D02*
X159394480Y-122130776D01*
X159394480Y-122130776D02*
X159346861Y-122035538D01*
X159346861Y-122035538D02*
X159346861Y-121940300D01*
X159346861Y-121940300D02*
X159394480Y-121845062D01*
X159394480Y-121845062D02*
X159442099Y-121797443D01*
X159442099Y-121797443D02*
X159537337Y-121749824D01*
X159537337Y-121749824D02*
X159727813Y-121702205D01*
X159727813Y-121702205D02*
X159823051Y-121654586D01*
X159823051Y-121654586D02*
X159870670Y-121606967D01*
X159870670Y-121606967D02*
X159918289Y-121511729D01*
X159918289Y-121511729D02*
X159918289Y-121416491D01*
X159918289Y-121416491D02*
X159870670Y-121321253D01*
X159870670Y-121321253D02*
X159823051Y-121273634D01*
X159823051Y-121273634D02*
X159727813Y-121226015D01*
X159727813Y-121226015D02*
X159489718Y-121226015D01*
X159489718Y-121226015D02*
X159346861Y-121273634D01*
X159013527Y-121226015D02*
X158775432Y-122226015D01*
X158775432Y-122226015D02*
X158584956Y-121511729D01*
X158584956Y-121511729D02*
X158394480Y-122226015D01*
X158394480Y-122226015D02*
X158156385Y-121226015D01*
X157346861Y-121559348D02*
X157346861Y-122226015D01*
X157584956Y-121178396D02*
X157823051Y-121892681D01*
X157823051Y-121892681D02*
X157204004Y-121892681D01*
X142918289Y-122178396D02*
X142775432Y-122226015D01*
X142775432Y-122226015D02*
X142537337Y-122226015D01*
X142537337Y-122226015D02*
X142442099Y-122178396D01*
X142442099Y-122178396D02*
X142394480Y-122130776D01*
X142394480Y-122130776D02*
X142346861Y-122035538D01*
X142346861Y-122035538D02*
X142346861Y-121940300D01*
X142346861Y-121940300D02*
X142394480Y-121845062D01*
X142394480Y-121845062D02*
X142442099Y-121797443D01*
X142442099Y-121797443D02*
X142537337Y-121749824D01*
X142537337Y-121749824D02*
X142727813Y-121702205D01*
X142727813Y-121702205D02*
X142823051Y-121654586D01*
X142823051Y-121654586D02*
X142870670Y-121606967D01*
X142870670Y-121606967D02*
X142918289Y-121511729D01*
X142918289Y-121511729D02*
X142918289Y-121416491D01*
X142918289Y-121416491D02*
X142870670Y-121321253D01*
X142870670Y-121321253D02*
X142823051Y-121273634D01*
X142823051Y-121273634D02*
X142727813Y-121226015D01*
X142727813Y-121226015D02*
X142489718Y-121226015D01*
X142489718Y-121226015D02*
X142346861Y-121273634D01*
X142013527Y-121226015D02*
X141775432Y-122226015D01*
X141775432Y-122226015D02*
X141584956Y-121511729D01*
X141584956Y-121511729D02*
X141394480Y-122226015D01*
X141394480Y-122226015D02*
X141156385Y-121226015D01*
X140823051Y-121321253D02*
X140775432Y-121273634D01*
X140775432Y-121273634D02*
X140680194Y-121226015D01*
X140680194Y-121226015D02*
X140442099Y-121226015D01*
X140442099Y-121226015D02*
X140346861Y-121273634D01*
X140346861Y-121273634D02*
X140299242Y-121321253D01*
X140299242Y-121321253D02*
X140251623Y-121416491D01*
X140251623Y-121416491D02*
X140251623Y-121511729D01*
X140251623Y-121511729D02*
X140299242Y-121654586D01*
X140299242Y-121654586D02*
X140870670Y-122226015D01*
X140870670Y-122226015D02*
X140251623Y-122226015D01*
D11*
%TO.C,RV1*%
X120334079Y-115636387D02*
X120334079Y-111699387D01*
X120334079Y-123939387D02*
X120334079Y-120003387D01*
X121655079Y-111699387D02*
X120334079Y-111699387D01*
X124485079Y-111699387D02*
X124105079Y-111699387D01*
X126985079Y-111699387D02*
X126226079Y-111699387D01*
X130375079Y-111699387D02*
X128725079Y-111699387D01*
X130375079Y-115636387D02*
X130375079Y-111699387D01*
X130375079Y-123939387D02*
X120334079Y-123939387D01*
X130375079Y-123939387D02*
X130375079Y-120003387D01*
%TO.C,SW3*%
X155084957Y-108271352D02*
X155084957Y-109771352D01*
X156334957Y-112271352D02*
X160834957Y-112271352D01*
X160834957Y-105771352D02*
X156334957Y-105771352D01*
X162084957Y-109771352D02*
X162084957Y-108271352D01*
%TO.C,SW1*%
X138084957Y-108271352D02*
X138084957Y-109771352D01*
X139334957Y-112271352D02*
X143834957Y-112271352D01*
X143834957Y-105771352D02*
X139334957Y-105771352D01*
X145084957Y-109771352D02*
X145084957Y-108271352D01*
%TO.C,SW4*%
X155084957Y-125271352D02*
X155084957Y-126771352D01*
X156334957Y-129271352D02*
X160834957Y-129271352D01*
X160834957Y-122771352D02*
X156334957Y-122771352D01*
X162084957Y-126771352D02*
X162084957Y-125271352D01*
%TO.C,SW2*%
X138084957Y-125271352D02*
X138084957Y-126771352D01*
X139334957Y-129271352D02*
X143834957Y-129271352D01*
X143834957Y-122771352D02*
X139334957Y-122771352D01*
X145084957Y-126771352D02*
X145084957Y-125271352D01*
%TO.C,RF1*%
X166681803Y-108880279D02*
X182881803Y-108880279D01*
X166681803Y-125080279D02*
X182881803Y-125080279D01*
D12*
X180000655Y-110074016D02*
G75*
G02*
X178839699Y-110074016I-580478J0D01*
G01*
X178839699Y-110074016D02*
G75*
G02*
X180000655Y-110074016I580478J0D01*
G01*
D13*
%TO.C,SW5*%
X106091041Y-107283614D02*
X106091041Y-126638414D01*
X106091041Y-126638414D02*
X117140041Y-126638414D01*
X117140041Y-107283614D02*
X106091041Y-107283614D01*
X117140041Y-126638414D02*
X117140041Y-107283614D01*
%TD*%
M02*
