%TF.GenerationSoftware,KiCad,Pcbnew,8.0.6*%
%TF.CreationDate,2025-03-01T18:05:20-05:00*%
%TF.ProjectId,receiver,72656365-6976-4657-922e-6b696361645f,rev?*%
%TF.SameCoordinates,Original*%
%TF.FileFunction,Other,User*%
%FSLAX46Y46*%
G04 Gerber Fmt 4.6, Leading zero omitted, Abs format (unit mm)*
G04 Created by KiCad (PCBNEW 8.0.6) date 2025-03-01 18:05:20*
%MOMM*%
%LPD*%
G01*
G04 APERTURE LIST*
%ADD10C,0.050000*%
%ADD11C,0.152400*%
G04 APERTURE END LIST*
D10*
%TO.C,RV1*%
X118705079Y-109669387D02*
X118705079Y-124069387D01*
X118705079Y-124069387D02*
X132005079Y-124069387D01*
X132005079Y-109669387D02*
X118705079Y-109669387D01*
X132005079Y-124069387D02*
X132005079Y-109669387D01*
%TO.C,SW3*%
X153834957Y-105271352D02*
X154084957Y-105271352D01*
X153834957Y-105521352D02*
X153834957Y-105271352D01*
X153834957Y-112521352D02*
X153834957Y-105521352D01*
X153834957Y-112521352D02*
X153834957Y-112771352D01*
X153834957Y-112771352D02*
X154084957Y-112771352D01*
X154084957Y-105271352D02*
X163084957Y-105271352D01*
X163084957Y-105271352D02*
X163334957Y-105271352D01*
X163084957Y-112771352D02*
X154084957Y-112771352D01*
X163084957Y-112771352D02*
X163334957Y-112771352D01*
X163334957Y-105271352D02*
X163334957Y-105521352D01*
X163334957Y-105521352D02*
X163334957Y-112521352D01*
X163334957Y-112771352D02*
X163334957Y-112521352D01*
%TO.C,SW1*%
X136834957Y-105271352D02*
X137084957Y-105271352D01*
X136834957Y-105521352D02*
X136834957Y-105271352D01*
X136834957Y-112521352D02*
X136834957Y-105521352D01*
X136834957Y-112521352D02*
X136834957Y-112771352D01*
X136834957Y-112771352D02*
X137084957Y-112771352D01*
X137084957Y-105271352D02*
X146084957Y-105271352D01*
X146084957Y-105271352D02*
X146334957Y-105271352D01*
X146084957Y-112771352D02*
X137084957Y-112771352D01*
X146084957Y-112771352D02*
X146334957Y-112771352D01*
X146334957Y-105271352D02*
X146334957Y-105521352D01*
X146334957Y-105521352D02*
X146334957Y-112521352D01*
X146334957Y-112771352D02*
X146334957Y-112521352D01*
%TO.C,SW4*%
X153834957Y-122271352D02*
X154084957Y-122271352D01*
X153834957Y-122521352D02*
X153834957Y-122271352D01*
X153834957Y-129521352D02*
X153834957Y-122521352D01*
X153834957Y-129521352D02*
X153834957Y-129771352D01*
X153834957Y-129771352D02*
X154084957Y-129771352D01*
X154084957Y-122271352D02*
X163084957Y-122271352D01*
X163084957Y-122271352D02*
X163334957Y-122271352D01*
X163084957Y-129771352D02*
X154084957Y-129771352D01*
X163084957Y-129771352D02*
X163334957Y-129771352D01*
X163334957Y-122271352D02*
X163334957Y-122521352D01*
X163334957Y-122521352D02*
X163334957Y-129521352D01*
X163334957Y-129771352D02*
X163334957Y-129521352D01*
%TO.C,SW2*%
X136834957Y-122271352D02*
X137084957Y-122271352D01*
X136834957Y-122521352D02*
X136834957Y-122271352D01*
X136834957Y-129521352D02*
X136834957Y-122521352D01*
X136834957Y-129521352D02*
X136834957Y-129771352D01*
X136834957Y-129771352D02*
X137084957Y-129771352D01*
X137084957Y-122271352D02*
X146084957Y-122271352D01*
X146084957Y-122271352D02*
X146334957Y-122271352D01*
X146084957Y-129771352D02*
X137084957Y-129771352D01*
X146084957Y-129771352D02*
X146334957Y-129771352D01*
X146334957Y-122271352D02*
X146334957Y-122521352D01*
X146334957Y-122521352D02*
X146334957Y-129521352D01*
X146334957Y-129771352D02*
X146334957Y-129521352D01*
%TO.C,RF1*%
X165531803Y-108730279D02*
X184031803Y-108730279D01*
X165531803Y-125230279D02*
X165531803Y-108730279D01*
X165531803Y-125230279D02*
X184031803Y-125230279D01*
X184031803Y-108730279D02*
X184031803Y-125230279D01*
D11*
%TO.C,SW5*%
X105964041Y-107156614D02*
X105964041Y-126765414D01*
X105964041Y-126765414D02*
X117267041Y-126765414D01*
X117267041Y-107156614D02*
X105964041Y-107156614D01*
X117267041Y-126765414D02*
X117267041Y-107156614D01*
%TD*%
M02*
