%TF.GenerationSoftware,KiCad,Pcbnew,8.0.6*%
%TF.CreationDate,2025-03-01T18:05:20-05:00*%
%TF.ProjectId,receiver,72656365-6976-4657-922e-6b696361645f,rev?*%
%TF.SameCoordinates,Original*%
%TF.FileFunction,Other,User*%
%FSLAX46Y46*%
G04 Gerber Fmt 4.6, Leading zero omitted, Abs format (unit mm)*
G04 Created by KiCad (PCBNEW 8.0.6) date 2025-03-01 18:05:20*
%MOMM*%
%LPD*%
G01*
G04 APERTURE LIST*
%ADD10C,0.050000*%
%ADD11C,0.152400*%
G04 APERTURE END LIST*
D10*
%TO.C,U3*%
X107402321Y-98063395D02*
X107402321Y-101463395D01*
X107402321Y-101463395D02*
X111502321Y-101463395D01*
X111502321Y-98063395D02*
X107402321Y-98063395D01*
X111502321Y-101463395D02*
X111502321Y-98063395D01*
%TO.C,STM_C9*%
X146700222Y-92184887D02*
X149660222Y-92184887D01*
X146700222Y-93644887D02*
X146700222Y-92184887D01*
X149660222Y-92184887D02*
X149660222Y-93644887D01*
X149660222Y-93644887D02*
X146700222Y-93644887D01*
%TO.C,CSTL_C1*%
X144657170Y-81616379D02*
X145577170Y-81616379D01*
X144657170Y-83436379D02*
X144657170Y-81616379D01*
X145577170Y-81616379D02*
X145577170Y-83436379D01*
X145577170Y-83436379D02*
X144657170Y-83436379D01*
D11*
%TO.C,U4*%
X175262219Y-77394858D02*
X175465419Y-77394858D01*
X175262219Y-79352058D02*
X175262219Y-77394858D01*
X175465419Y-76722458D02*
X176137819Y-76722458D01*
X175465419Y-77394858D02*
X175465419Y-76722458D01*
X175465419Y-79352058D02*
X175262219Y-79352058D01*
X175465419Y-80024458D02*
X175465419Y-79352058D01*
X176137819Y-76519258D02*
X178095019Y-76519258D01*
X176137819Y-76722458D02*
X176137819Y-76519258D01*
X176137819Y-80024458D02*
X175465419Y-80024458D01*
X176137819Y-80227658D02*
X176137819Y-80024458D01*
X178095019Y-76519258D02*
X178095019Y-76722458D01*
X178095019Y-76722458D02*
X178767419Y-76722458D01*
X178095019Y-80024458D02*
X178095019Y-80227658D01*
X178095019Y-80227658D02*
X176137819Y-80227658D01*
X178767419Y-76722458D02*
X178767419Y-77394858D01*
X178767419Y-77394858D02*
X178970619Y-77394858D01*
X178767419Y-79352058D02*
X178767419Y-80024458D01*
X178767419Y-80024458D02*
X178095019Y-80024458D01*
X178970619Y-77394858D02*
X178970619Y-79352058D01*
X178970619Y-79352058D02*
X178767419Y-79352058D01*
%TO.C,PWR_D2*%
D10*
X112573822Y-102718819D02*
X115620877Y-102718819D01*
X115620877Y-104313806D01*
X112573822Y-104313806D01*
X112573822Y-102718819D01*
%TO.C,PWR_C4*%
X106221187Y-98390277D02*
X107141187Y-98390277D01*
X106221187Y-100210277D02*
X106221187Y-98390277D01*
X107141187Y-98390277D02*
X107141187Y-100210277D01*
X107141187Y-100210277D02*
X106221187Y-100210277D01*
%TO.C,REF\u002A\u002A*%
X122343173Y-128304555D02*
G75*
G02*
X117443173Y-128304555I-2450000J0D01*
G01*
X117443173Y-128304555D02*
G75*
G02*
X122343173Y-128304555I2450000J0D01*
G01*
%TO.C,JP1*%
X148847192Y-76121319D02*
X148847192Y-78621319D01*
X148847192Y-76121319D02*
X152147192Y-76121319D01*
X152147192Y-78621319D02*
X148847192Y-78621319D01*
X152147192Y-78621319D02*
X152147192Y-76121319D01*
%TO.C,BZ1*%
X136649833Y-97563250D02*
G75*
G02*
X124649833Y-97563250I-6000000J0D01*
G01*
X124649833Y-97563250D02*
G75*
G02*
X136649833Y-97563250I6000000J0D01*
G01*
%TO.C,BUT_R1*%
X143426547Y-103826696D02*
X145286547Y-103826696D01*
X143426547Y-104766696D02*
X143426547Y-103826696D01*
X145286547Y-103826696D02*
X145286547Y-104766696D01*
X145286547Y-104766696D02*
X143426547Y-104766696D01*
%TO.C,MLX_C1*%
X177409013Y-80414887D02*
X178329013Y-80414887D01*
X177409013Y-82234887D02*
X177409013Y-80414887D01*
X178329013Y-80414887D02*
X178329013Y-82234887D01*
X178329013Y-82234887D02*
X177409013Y-82234887D01*
%TO.C,PWR_J1*%
X100499565Y-115592575D02*
X100499565Y-120592575D01*
X100499565Y-120592575D02*
X103499565Y-120592575D01*
X103499565Y-115592575D02*
X100499565Y-115592575D01*
X103499565Y-120592575D02*
X103499565Y-115592575D01*
%TO.C,STM_C3*%
X154210749Y-92865498D02*
X156030749Y-92865498D01*
X154210749Y-93785498D02*
X154210749Y-92865498D01*
X156030749Y-92865498D02*
X156030749Y-93785498D01*
X156030749Y-93785498D02*
X154210749Y-93785498D01*
%TO.C,D3*%
X177022188Y-94204202D02*
X178922188Y-94204202D01*
X177022188Y-97884202D02*
X177022188Y-94204202D01*
X178922188Y-94204202D02*
X178922188Y-97884202D01*
X178922188Y-97884202D02*
X177022188Y-97884202D01*
%TO.C,STM_C4*%
X160712231Y-92883763D02*
X162532231Y-92883763D01*
X160712231Y-93803763D02*
X160712231Y-92883763D01*
X162532231Y-92883763D02*
X162532231Y-93803763D01*
X162532231Y-93803763D02*
X160712231Y-93803763D01*
%TO.C,STM_C1*%
X153619054Y-78134732D02*
X155439054Y-78134732D01*
X153619054Y-79054732D02*
X153619054Y-78134732D01*
X155439054Y-78134732D02*
X155439054Y-79054732D01*
X155439054Y-79054732D02*
X153619054Y-79054732D01*
%TO.C,S_R1*%
X148949988Y-84975667D02*
X149889988Y-84975667D01*
X148949988Y-86835667D02*
X148949988Y-84975667D01*
X149889988Y-84975667D02*
X149889988Y-86835667D01*
X149889988Y-86835667D02*
X148949988Y-86835667D01*
%TO.C,STM_C8*%
X146709259Y-90590267D02*
X149669259Y-90590267D01*
X146709259Y-92050267D02*
X146709259Y-90590267D01*
X149669259Y-90590267D02*
X149669259Y-92050267D01*
X149669259Y-92050267D02*
X146709259Y-92050267D01*
%TO.C,LED_R1*%
X170324382Y-88785077D02*
X172564382Y-88785077D01*
X170324382Y-93345077D02*
X170324382Y-88785077D01*
X172564382Y-88785077D02*
X172564382Y-93345077D01*
X172564382Y-93345077D02*
X170324382Y-93345077D01*
%TO.C,PWR_C5*%
X111845458Y-99485165D02*
X112765458Y-99485165D01*
X111845458Y-101305165D02*
X111845458Y-99485165D01*
X112765458Y-99485165D02*
X112765458Y-101305165D01*
X112765458Y-101305165D02*
X111845458Y-101305165D01*
%TO.C,PWR_R1*%
X116787483Y-84369488D02*
X119027483Y-84369488D01*
X116787483Y-88929488D02*
X116787483Y-84369488D01*
X119027483Y-84369488D02*
X119027483Y-88929488D01*
X119027483Y-88929488D02*
X116787483Y-88929488D01*
%TO.C,BUZ_R1*%
X124336681Y-104404591D02*
X126576681Y-104404591D01*
X124336681Y-108964591D02*
X124336681Y-104404591D01*
X126576681Y-104404591D02*
X126576681Y-108964591D01*
X126576681Y-108964591D02*
X124336681Y-108964591D01*
%TO.C,S_R4*%
X145862778Y-84794942D02*
X147722778Y-84794942D01*
X145862778Y-85734942D02*
X145862778Y-84794942D01*
X147722778Y-84794942D02*
X147722778Y-85734942D01*
X147722778Y-85734942D02*
X145862778Y-85734942D01*
%TO.C,REF\u002A\u002A*%
X177251556Y-128304555D02*
G75*
G02*
X172351556Y-128304555I-2450000J0D01*
G01*
X172351556Y-128304555D02*
G75*
G02*
X177251556Y-128304555I2450000J0D01*
G01*
%TO.C,S_C10*%
X150207053Y-84995431D02*
X151127053Y-84995431D01*
X150207053Y-86815431D02*
X150207053Y-84995431D01*
X151127053Y-84995431D02*
X151127053Y-86815431D01*
X151127053Y-86815431D02*
X150207053Y-86815431D01*
%TO.C,I2C_R2*%
X159830519Y-75818048D02*
X160770519Y-75818048D01*
X159830519Y-77678048D02*
X159830519Y-75818048D01*
X160770519Y-75818048D02*
X160770519Y-77678048D01*
X160770519Y-77678048D02*
X159830519Y-77678048D01*
%TO.C,PWR_R4*%
X115984814Y-102513713D02*
X120544814Y-102513713D01*
X115984814Y-104753713D02*
X115984814Y-102513713D01*
X120544814Y-102513713D02*
X120544814Y-104753713D01*
X120544814Y-104753713D02*
X115984814Y-104753713D01*
%TO.C,STM_R2*%
X155910150Y-76848722D02*
X156850150Y-76848722D01*
X155910150Y-78708722D02*
X155910150Y-76848722D01*
X156850150Y-76848722D02*
X156850150Y-78708722D01*
X156850150Y-78708722D02*
X155910150Y-78708722D01*
%TO.C,J3*%
X121131959Y-75097438D02*
X121131959Y-78097438D01*
X121131959Y-78097438D02*
X130131959Y-78097438D01*
X130131959Y-75097438D02*
X121131959Y-75097438D01*
X130131959Y-78097438D02*
X130131959Y-75097438D01*
%TO.C,BUT_R4*%
X152090448Y-123367293D02*
X153030448Y-123367293D01*
X152090448Y-125227293D02*
X152090448Y-123367293D01*
X153030448Y-123367293D02*
X153030448Y-125227293D01*
X153030448Y-125227293D02*
X152090448Y-125227293D01*
%TO.C,S_C7*%
X150209133Y-86997129D02*
X151129133Y-86997129D01*
X150209133Y-88817129D02*
X150209133Y-86997129D01*
X151129133Y-86997129D02*
X151129133Y-88817129D01*
X151129133Y-88817129D02*
X150209133Y-88817129D01*
%TO.C,PWR_D1*%
X117110804Y-92535625D02*
X118705791Y-92535625D01*
X118705791Y-89488570D01*
X117110804Y-89488570D01*
X117110804Y-92535625D01*
%TO.C,MLX_A0*%
X180978945Y-75257302D02*
X180978945Y-77757302D01*
X180978945Y-75257302D02*
X184278945Y-75257302D01*
X184278945Y-77757302D02*
X180978945Y-77757302D01*
X184278945Y-77757302D02*
X184278945Y-75257302D01*
%TO.C,LED_R2*%
X173569472Y-88697865D02*
X175809472Y-88697865D01*
X173569472Y-93257865D02*
X173569472Y-88697865D01*
X175809472Y-88697865D02*
X175809472Y-93257865D01*
X175809472Y-93257865D02*
X173569472Y-93257865D01*
%TO.C,PWR_R3*%
X118462044Y-97612014D02*
X120702044Y-97612014D01*
X118462044Y-102172014D02*
X118462044Y-97612014D01*
X120702044Y-97612014D02*
X120702044Y-102172014D01*
X120702044Y-102172014D02*
X118462044Y-102172014D01*
%TO.C,PWR_R2*%
X115884854Y-97612014D02*
X118124854Y-97612014D01*
X115884854Y-102172014D02*
X115884854Y-97612014D01*
X118124854Y-97612014D02*
X118124854Y-102172014D01*
X118124854Y-102172014D02*
X115884854Y-102172014D01*
%TO.C,D2*%
X173736024Y-94181779D02*
X175636024Y-94181779D01*
X173736024Y-97861779D02*
X173736024Y-94181779D01*
X175636024Y-94181779D02*
X175636024Y-97861779D01*
X175636024Y-97861779D02*
X173736024Y-97861779D01*
%TO.C,LED_R3*%
X176834400Y-88691103D02*
X179074400Y-88691103D01*
X176834400Y-93251103D02*
X176834400Y-88691103D01*
X179074400Y-88691103D02*
X179074400Y-93251103D01*
X179074400Y-93251103D02*
X176834400Y-93251103D01*
%TO.C,I2C_R1*%
X157448528Y-75850201D02*
X158388528Y-75850201D01*
X157448528Y-77710201D02*
X157448528Y-75850201D01*
X158388528Y-75850201D02*
X158388528Y-77710201D01*
X158388528Y-77710201D02*
X157448528Y-77710201D01*
%TO.C,BUT_R3*%
X152330916Y-108165109D02*
X153270916Y-108165109D01*
X152330916Y-110025109D02*
X152330916Y-108165109D01*
X153270916Y-108165109D02*
X153270916Y-110025109D01*
X153270916Y-110025109D02*
X152330916Y-110025109D01*
%TO.C,REF\u002A\u002A*%
X191557658Y-77640082D02*
G75*
G02*
X186657658Y-77640082I-2450000J0D01*
G01*
X186657658Y-77640082D02*
G75*
G02*
X191557658Y-77640082I2450000J0D01*
G01*
%TO.C,PWR_C1*%
X111935277Y-90647018D02*
X116535277Y-90647018D01*
X111935277Y-92947018D02*
X111935277Y-90647018D01*
X116535277Y-90647018D02*
X116535277Y-92947018D01*
X116535277Y-92947018D02*
X111935277Y-92947018D01*
%TO.C,BUZ_D1*%
X126537611Y-88531145D02*
X126537611Y-90831145D01*
X126537611Y-88531145D02*
X131237611Y-88531145D01*
X131237611Y-88531145D02*
X131237611Y-90831145D01*
X131237611Y-90831145D02*
X126537611Y-90831145D01*
%TO.C,S_C2*%
X150023023Y-80724002D02*
X150943023Y-80724002D01*
X150023023Y-82544002D02*
X150023023Y-80724002D01*
X150943023Y-80724002D02*
X150943023Y-82544002D01*
X150943023Y-82544002D02*
X150023023Y-82544002D01*
%TO.C,Q1*%
X136911808Y-95213491D02*
X136911808Y-99053491D01*
X136911808Y-99053491D02*
X140311808Y-99053491D01*
X140311808Y-95213491D02*
X136911808Y-95213491D01*
X140311808Y-99053491D02*
X140311808Y-95213491D01*
%TO.C,MLX_A1*%
X180961005Y-77797302D02*
X180961005Y-80297302D01*
X180961005Y-77797302D02*
X184261005Y-77797302D01*
X184261005Y-80297302D02*
X180961005Y-80297302D01*
X184261005Y-80297302D02*
X184261005Y-77797302D01*
%TO.C,J2*%
X184915391Y-88103771D02*
X184915391Y-99103771D01*
X184915391Y-99103771D02*
X187915391Y-99103771D01*
X187915391Y-88103771D02*
X184915391Y-88103771D01*
X187915391Y-99103771D02*
X187915391Y-88103771D01*
%TO.C,MLX_R1*%
X179756624Y-75654622D02*
X180696624Y-75654622D01*
X179756624Y-77514622D02*
X179756624Y-75654622D01*
X180696624Y-75654622D02*
X180696624Y-77514622D01*
X180696624Y-77514622D02*
X179756624Y-77514622D01*
%TO.C,REF\u002A\u002A*%
X114647458Y-77640082D02*
G75*
G02*
X109747458Y-77640082I-2450000J0D01*
G01*
X109747458Y-77640082D02*
G75*
G02*
X114647458Y-77640082I2450000J0D01*
G01*
D11*
%TO.C,U1*%
X151515898Y-81639422D02*
X152858998Y-81639422D01*
X151515898Y-90155422D02*
X151515898Y-81639422D01*
X152858998Y-80639622D02*
X153858798Y-80639622D01*
X152858998Y-81639422D02*
X152858998Y-80639622D01*
X152858998Y-90155422D02*
X151515898Y-90155422D01*
X152858998Y-91155222D02*
X152858998Y-90155422D01*
X153858798Y-79296522D02*
X162374798Y-79296522D01*
X153858798Y-80639622D02*
X153858798Y-79296522D01*
X153858798Y-91155222D02*
X152858998Y-91155222D01*
X153858798Y-92498322D02*
X153858798Y-91155222D01*
X162374798Y-79296522D02*
X162374798Y-80639622D01*
X162374798Y-80639622D02*
X163374598Y-80639622D01*
X162374798Y-91155222D02*
X162374798Y-92498322D01*
X162374798Y-92498322D02*
X153858798Y-92498322D01*
X163374598Y-80639622D02*
X163374598Y-81639422D01*
X163374598Y-81639422D02*
X164717698Y-81639422D01*
X163374598Y-90155422D02*
X163374598Y-91155222D01*
X163374598Y-91155222D02*
X162374798Y-91155222D01*
X164717698Y-81639422D02*
X164717698Y-90155422D01*
X164717698Y-90155422D02*
X163374598Y-90155422D01*
D10*
%TO.C,MLX_C3*%
X170289801Y-73547401D02*
X171749801Y-73547401D01*
X170289801Y-76507401D02*
X170289801Y-73547401D01*
X171749801Y-73547401D02*
X171749801Y-76507401D01*
X171749801Y-76507401D02*
X170289801Y-76507401D01*
%TO.C,STM_R3*%
X153580958Y-76814395D02*
X155440958Y-76814395D01*
X153580958Y-77754395D02*
X153580958Y-76814395D01*
X155440958Y-76814395D02*
X155440958Y-77754395D01*
X155440958Y-77754395D02*
X153580958Y-77754395D01*
%TO.C,MLX_R2*%
X179707236Y-78162262D02*
X180647236Y-78162262D01*
X179707236Y-80022262D02*
X179707236Y-78162262D01*
X180647236Y-78162262D02*
X180647236Y-80022262D01*
X180647236Y-80022262D02*
X179707236Y-80022262D01*
%TO.C,J1*%
X186038188Y-114292891D02*
X186038188Y-105692891D01*
X186038188Y-114292891D02*
X202338188Y-114292891D01*
X202338188Y-105692891D02*
X186038188Y-105692891D01*
X202338188Y-105692891D02*
X202338188Y-114292891D01*
%TO.C,PWR_C3*%
X113080283Y-97629129D02*
X114540283Y-97629129D01*
X113080283Y-100589129D02*
X113080283Y-97629129D01*
X114540283Y-97629129D02*
X114540283Y-100589129D01*
X114540283Y-100589129D02*
X113080283Y-100589129D01*
%TO.C,D1*%
X170484291Y-94254398D02*
X172384291Y-94254398D01*
X170484291Y-97934398D02*
X170484291Y-94254398D01*
X172384291Y-94254398D02*
X172384291Y-97934398D01*
X172384291Y-97934398D02*
X170484291Y-97934398D01*
%TO.C,PWR_C2*%
X112094877Y-81116789D02*
X115054877Y-81116789D01*
X112094877Y-82576789D02*
X112094877Y-81116789D01*
X115054877Y-81116789D02*
X115054877Y-82576789D01*
X115054877Y-82576789D02*
X112094877Y-82576789D01*
%TO.C,MLX_C2*%
X176451766Y-75347249D02*
X178271766Y-75347249D01*
X176451766Y-76267249D02*
X176451766Y-75347249D01*
X178271766Y-75347249D02*
X178271766Y-76267249D01*
X178271766Y-76267249D02*
X176451766Y-76267249D01*
%TO.C,CSTL_C2*%
X144665495Y-84883305D02*
X145585495Y-84883305D01*
X144665495Y-86703305D02*
X144665495Y-84883305D01*
X145585495Y-84883305D02*
X145585495Y-86703305D01*
X145585495Y-86703305D02*
X144665495Y-86703305D01*
%TO.C,STM_C6*%
X131749705Y-79860496D02*
X134049705Y-79860496D01*
X131749705Y-84460496D02*
X131749705Y-79860496D01*
X134049705Y-79860496D02*
X134049705Y-84460496D01*
X134049705Y-84460496D02*
X131749705Y-84460496D01*
%TO.C,STM_C5*%
X166380406Y-81469607D02*
X167300406Y-81469607D01*
X166380406Y-83289607D02*
X166380406Y-81469607D01*
X167300406Y-81469607D02*
X167300406Y-83289607D01*
X167300406Y-83289607D02*
X166380406Y-83289607D01*
%TO.C,FB1*%
X149870285Y-90676192D02*
X151330285Y-90676192D01*
X149870285Y-93636192D02*
X149870285Y-90676192D01*
X151330285Y-90676192D02*
X151330285Y-93636192D01*
X151330285Y-93636192D02*
X149870285Y-93636192D01*
%TO.C,Y1*%
X135545495Y-81082278D02*
X135545495Y-87182278D01*
X135545495Y-87182278D02*
X144545495Y-87182278D01*
X144545495Y-81082278D02*
X135545495Y-81082278D01*
X144545495Y-87182278D02*
X144545495Y-81082278D01*
%TO.C,BUZ_R2*%
X140836008Y-95754213D02*
X142696008Y-95754213D01*
X140836008Y-96694213D02*
X140836008Y-95754213D01*
X142696008Y-95754213D02*
X142696008Y-96694213D01*
X142696008Y-96694213D02*
X140836008Y-96694213D01*
%TO.C,BUT_R2*%
X147250677Y-123367293D02*
X148190677Y-123367293D01*
X147250677Y-125227293D02*
X147250677Y-123367293D01*
X148190677Y-123367293D02*
X148190677Y-125227293D01*
X148190677Y-125227293D02*
X147250677Y-125227293D01*
D11*
%TO.C,U2*%
X103565985Y-82431281D02*
X111820985Y-82431281D01*
X103565985Y-90381481D02*
X103565985Y-82431281D01*
X111820985Y-82431281D02*
X111820985Y-83163880D01*
X111820985Y-83163880D02*
X116113585Y-83163880D01*
X111820985Y-89648882D02*
X111820985Y-90381481D01*
X111820985Y-90381481D02*
X103565985Y-90381481D01*
X113319585Y-85068880D02*
X113319585Y-87743882D01*
X113319585Y-87743882D02*
X116113585Y-87743882D01*
X116113585Y-83163880D02*
X116113585Y-85068880D01*
X116113585Y-85068880D02*
X113319585Y-85068880D01*
X116113585Y-87743882D02*
X116113585Y-89648882D01*
X116113585Y-89648882D02*
X111820985Y-89648882D01*
%TD*%
M02*
