%TF.GenerationSoftware,KiCad,Pcbnew,8.0.6*%
%TF.CreationDate,2025-07-11T21:44:03-04:00*%
%TF.ProjectId,receiver,72656365-6976-4657-922e-6b696361645f,rev?*%
%TF.SameCoordinates,Original*%
%TF.FileFunction,Paste,Top*%
%TF.FilePolarity,Positive*%
%FSLAX46Y46*%
G04 Gerber Fmt 4.6, Leading zero omitted, Abs format (unit mm)*
G04 Created by KiCad (PCBNEW 8.0.6) date 2025-07-11 21:44:03*
%MOMM*%
%LPD*%
G01*
G04 APERTURE LIST*
G04 Aperture macros list*
%AMRoundRect*
0 Rectangle with rounded corners*
0 $1 Rounding radius*
0 $2 $3 $4 $5 $6 $7 $8 $9 X,Y pos of 4 corners*
0 Add a 4 corners polygon primitive as box body*
4,1,4,$2,$3,$4,$5,$6,$7,$8,$9,$2,$3,0*
0 Add four circle primitives for the rounded corners*
1,1,$1+$1,$2,$3*
1,1,$1+$1,$4,$5*
1,1,$1+$1,$6,$7*
1,1,$1+$1,$8,$9*
0 Add four rect primitives between the rounded corners*
20,1,$1+$1,$2,$3,$4,$5,0*
20,1,$1+$1,$4,$5,$6,$7,0*
20,1,$1+$1,$6,$7,$8,$9,0*
20,1,$1+$1,$8,$9,$2,$3,0*%
G04 Aperture macros list end*
%ADD10RoundRect,0.150000X-0.512500X-0.150000X0.512500X-0.150000X0.512500X0.150000X-0.512500X0.150000X0*%
%ADD11RoundRect,0.250000X0.325000X0.650000X-0.325000X0.650000X-0.325000X-0.650000X0.325000X-0.650000X0*%
%ADD12RoundRect,0.237500X0.300000X0.237500X-0.300000X0.237500X-0.300000X-0.237500X0.300000X-0.237500X0*%
%ADD13R,0.711200X0.254000*%
%ADD14R,0.254000X0.711200*%
%ADD15R,1.676400X1.676400*%
%ADD16R,0.800000X0.800000*%
%ADD17RoundRect,0.250000X0.650000X-0.325000X0.650000X0.325000X-0.650000X0.325000X-0.650000X-0.325000X0*%
%ADD18RoundRect,0.250000X0.312500X0.625000X-0.312500X0.625000X-0.312500X-0.625000X0.312500X-0.625000X0*%
%ADD19RoundRect,0.250000X-0.325000X-0.650000X0.325000X-0.650000X0.325000X0.650000X-0.325000X0.650000X0*%
%ADD20R,1.200000X1.200000*%
%ADD21RoundRect,0.250000X0.625000X-0.312500X0.625000X0.312500X-0.625000X0.312500X-0.625000X-0.312500X0*%
%ADD22RoundRect,0.250000X-0.625000X0.312500X-0.625000X-0.312500X0.625000X-0.312500X0.625000X0.312500X0*%
%ADD23RoundRect,0.250000X-0.650000X0.325000X-0.650000X-0.325000X0.650000X-0.325000X0.650000X0.325000X0*%
%ADD24RoundRect,0.250000X-0.312500X-0.625000X0.312500X-0.625000X0.312500X0.625000X-0.312500X0.625000X0*%
%ADD25RoundRect,0.150000X-0.150000X0.587500X-0.150000X-0.587500X0.150000X-0.587500X0.150000X0.587500X0*%
%ADD26R,1.193800X0.304800*%
%ADD27R,0.304800X1.193800*%
%ADD28RoundRect,0.250000X-0.400000X-0.600000X0.400000X-0.600000X0.400000X0.600000X-0.400000X0.600000X0*%
%ADD29RoundRect,0.237500X-0.300000X-0.237500X0.300000X-0.237500X0.300000X0.237500X-0.300000X0.237500X0*%
%ADD30R,0.800000X1.000000*%
%ADD31R,1.800000X1.400000*%
%ADD32R,2.794000X0.939800*%
%ADD33R,7.239000X6.832600*%
G04 APERTURE END LIST*
D10*
%TO.C,U3*%
X137505713Y-43258876D03*
X137505713Y-44208876D03*
X137505713Y-45158876D03*
X139780713Y-45158876D03*
X139780713Y-43258876D03*
%TD*%
D11*
%TO.C,STM_C9*%
X155463978Y-66908813D03*
X152513978Y-66908813D03*
%TD*%
D12*
%TO.C,CSTL_C1*%
X149732286Y-52985967D03*
X148007286Y-52985967D03*
%TD*%
D13*
%TO.C,U4*%
X175717012Y-64805490D03*
X175717012Y-65305491D03*
X175717012Y-65805491D03*
X175717012Y-66305492D03*
D14*
X176364011Y-66952491D03*
X176864012Y-66952491D03*
X177364012Y-66952491D03*
X177864013Y-66952491D03*
D13*
X178511012Y-66305492D03*
X178511012Y-65805491D03*
X178511012Y-65305491D03*
X178511012Y-64805490D03*
D14*
X177864013Y-64158491D03*
X177364012Y-64158491D03*
X176864012Y-64158491D03*
X176364011Y-64158491D03*
D15*
X177114012Y-65555491D03*
%TD*%
D16*
%TO.C,PWR_D2*%
X147367667Y-47223728D03*
X147367667Y-45723728D03*
%TD*%
D17*
%TO.C,PWR_C4*%
X135026464Y-45438578D03*
X135026464Y-42488578D03*
%TD*%
D18*
%TO.C,PWR_R5*%
X148969020Y-75891804D03*
X146044020Y-75891804D03*
%TD*%
D19*
%TO.C,MLX_C1*%
X175803570Y-69693425D03*
X178753570Y-69693425D03*
%TD*%
D11*
%TO.C,STM_C3*%
X161696298Y-68439425D03*
X158746298Y-68439425D03*
%TD*%
D20*
%TO.C,D3*%
X138338584Y-70109789D03*
X138338584Y-68009789D03*
%TD*%
D11*
%TO.C,STM_C4*%
X169748575Y-68339953D03*
X166798575Y-68339953D03*
%TD*%
D19*
%TO.C,STM_C1*%
X155007712Y-51061894D03*
X157957712Y-51061894D03*
%TD*%
D21*
%TO.C,S_R1*%
X148058437Y-64739000D03*
X148058437Y-61814000D03*
%TD*%
D11*
%TO.C,STM_C8*%
X155462380Y-64516701D03*
X152512380Y-64516701D03*
%TD*%
D22*
%TO.C,LED_R1*%
X135077166Y-62842584D03*
X135077166Y-65767584D03*
%TD*%
D23*
%TO.C,PWR_C5*%
X142068536Y-45003548D03*
X142068536Y-47953548D03*
%TD*%
D22*
%TO.C,PWR_R1*%
X142468240Y-53063899D03*
X142468240Y-55988899D03*
%TD*%
D20*
%TO.C,D4*%
X141662307Y-70087366D03*
X141662307Y-67987366D03*
%TD*%
D24*
%TO.C,S_R4*%
X151814828Y-59281044D03*
X154739828Y-59281044D03*
%TD*%
D23*
%TO.C,S_C10*%
X150425699Y-61813960D03*
X150425699Y-64763960D03*
%TD*%
D22*
%TO.C,I2C_R2*%
X163029926Y-48139458D03*
X163029926Y-51064458D03*
%TD*%
%TO.C,PWR_R4*%
X144715543Y-45015263D03*
X144715543Y-47940263D03*
%TD*%
D18*
%TO.C,STM_R2*%
X168123279Y-48387765D03*
X165198279Y-48387765D03*
%TD*%
D11*
%TO.C,S_C7*%
X155473936Y-62136145D03*
X152523936Y-62136145D03*
%TD*%
D16*
%TO.C,PWR_D1*%
X142471913Y-59633230D03*
X142471913Y-58133230D03*
%TD*%
D22*
%TO.C,LED_R2*%
X138322256Y-62755372D03*
X138322256Y-65680372D03*
%TD*%
%TO.C,PWR_R3*%
X147289663Y-40251263D03*
X147289663Y-43176263D03*
%TD*%
D21*
%TO.C,PWR_R2*%
X144694659Y-43156824D03*
X144694659Y-40231824D03*
%TD*%
D20*
%TO.C,D2*%
X135052420Y-70087366D03*
X135052420Y-67987366D03*
%TD*%
D22*
%TO.C,LED_R3*%
X141587184Y-62748610D03*
X141587184Y-65673610D03*
%TD*%
%TO.C,I2C_R1*%
X160536657Y-48120676D03*
X160536657Y-51045676D03*
%TD*%
D19*
%TO.C,PWR_C1*%
X137321034Y-59673929D03*
X140271034Y-59673929D03*
%TD*%
D25*
%TO.C,Q2*%
X147547661Y-82465535D03*
X148497661Y-80590535D03*
X146597661Y-80590535D03*
%TD*%
D17*
%TO.C,S_C2*%
X155331844Y-56574983D03*
X155331844Y-53624983D03*
%TD*%
D21*
%TO.C,MLX_R1*%
X181101648Y-64588437D03*
X181101648Y-61663437D03*
%TD*%
D26*
%TO.C,U1*%
X157705292Y-55777273D03*
X157705292Y-56277272D03*
X157705292Y-56777273D03*
X157705292Y-57277272D03*
X157705292Y-57777274D03*
X157705292Y-58277273D03*
X157705292Y-58777272D03*
X157705292Y-59277273D03*
X157705292Y-59777273D03*
X157705292Y-60277274D03*
X157705292Y-60777273D03*
X157705292Y-61277272D03*
X157705292Y-61777274D03*
X157705292Y-62277273D03*
X157705292Y-62777274D03*
X157705292Y-63277273D03*
D27*
X159705291Y-65277272D03*
X160205290Y-65277272D03*
X160705291Y-65277272D03*
X161205290Y-65277272D03*
X161705292Y-65277272D03*
X162205291Y-65277272D03*
X162705290Y-65277272D03*
X163205291Y-65277272D03*
X163705291Y-65277272D03*
X164205292Y-65277272D03*
X164705291Y-65277272D03*
X165205290Y-65277272D03*
X165705292Y-65277272D03*
X166205291Y-65277272D03*
X166705292Y-65277272D03*
X167205291Y-65277272D03*
D26*
X169205290Y-63277273D03*
X169205290Y-62777274D03*
X169205290Y-62277273D03*
X169205290Y-61777274D03*
X169205290Y-61277272D03*
X169205290Y-60777273D03*
X169205290Y-60277274D03*
X169205290Y-59777273D03*
X169205290Y-59277273D03*
X169205290Y-58777272D03*
X169205290Y-58277273D03*
X169205290Y-57777274D03*
X169205290Y-57277272D03*
X169205290Y-56777273D03*
X169205290Y-56277272D03*
X169205290Y-55777273D03*
D27*
X167205291Y-53777274D03*
X166705292Y-53777274D03*
X166205291Y-53777274D03*
X165705292Y-53777274D03*
X165205290Y-53777274D03*
X164705291Y-53777274D03*
X164205292Y-53777274D03*
X163705291Y-53777274D03*
X163205291Y-53777274D03*
X162705290Y-53777274D03*
X162205291Y-53777274D03*
X161705292Y-53777274D03*
X161205290Y-53777274D03*
X160705291Y-53777274D03*
X160205290Y-53777274D03*
X159705291Y-53777274D03*
%TD*%
D23*
%TO.C,MLX_C3*%
X148077387Y-67899531D03*
X148077387Y-70849531D03*
%TD*%
D24*
%TO.C,STM_R3*%
X165198279Y-50826667D03*
X168123279Y-50826667D03*
%TD*%
D22*
%TO.C,MLX_R2*%
X181073615Y-66574040D03*
X181073615Y-69499040D03*
%TD*%
D17*
%TO.C,PWR_C3*%
X142094537Y-43176394D03*
X142094537Y-40226394D03*
%TD*%
D28*
%TO.C,D1*%
X145751950Y-78346927D03*
X149251950Y-78346927D03*
%TD*%
D11*
%TO.C,PWR_C2*%
X137785048Y-48570026D03*
X134835048Y-48570026D03*
%TD*%
D19*
%TO.C,MLX_C2*%
X175526094Y-62036645D03*
X178476094Y-62036645D03*
%TD*%
D29*
%TO.C,CSTL_C2*%
X147898619Y-58931564D03*
X149623619Y-58931564D03*
%TD*%
D17*
%TO.C,STM_C6*%
X172225878Y-68651368D03*
X172225878Y-65701368D03*
%TD*%
D23*
%TO.C,STM_C5*%
X172043004Y-52758197D03*
X172043004Y-55708197D03*
%TD*%
D30*
%TO.C,FB1*%
X157084414Y-66518535D03*
X157084414Y-64918535D03*
%TD*%
D31*
%TO.C,Y1*%
X151085309Y-54766527D03*
X151085309Y-57166527D03*
X146685309Y-57166527D03*
X146685309Y-54766527D03*
%TD*%
D32*
%TO.C,U2*%
X138769342Y-56573293D03*
D33*
X132254242Y-54283292D03*
D32*
X138769342Y-51993291D03*
%TD*%
M02*
