%TF.GenerationSoftware,KiCad,Pcbnew,8.0.6*%
%TF.CreationDate,2025-03-01T18:05:20-05:00*%
%TF.ProjectId,receiver,72656365-6976-4657-922e-6b696361645f,rev?*%
%TF.SameCoordinates,Original*%
%TF.FileFunction,Soldermask,Bot*%
%TF.FilePolarity,Negative*%
%FSLAX46Y46*%
G04 Gerber Fmt 4.6, Leading zero omitted, Abs format (unit mm)*
G04 Created by KiCad (PCBNEW 8.0.6) date 2025-03-01 18:05:20*
%MOMM*%
%LPD*%
G01*
G04 APERTURE LIST*
G04 APERTURE END LIST*
G36*
X120204601Y-127209997D02*
G01*
X120400423Y-127285859D01*
X120578971Y-127396411D01*
X120734165Y-127537889D01*
X120860720Y-127705475D01*
X120954326Y-127893462D01*
X121011796Y-128095448D01*
X121031173Y-128304555D01*
X121011796Y-128513662D01*
X120954326Y-128715648D01*
X120860720Y-128903635D01*
X120734165Y-129071221D01*
X120578971Y-129212699D01*
X120400423Y-129323251D01*
X120204601Y-129399113D01*
X119998174Y-129437700D01*
X119788172Y-129437700D01*
X119581745Y-129399113D01*
X119385923Y-129323251D01*
X119207375Y-129212699D01*
X119052181Y-129071221D01*
X118925626Y-128903635D01*
X118832020Y-128715648D01*
X118774550Y-128513662D01*
X118755173Y-128304555D01*
X118774550Y-128095448D01*
X118832020Y-127893462D01*
X118925626Y-127705475D01*
X119052181Y-127537889D01*
X119207375Y-127396411D01*
X119385923Y-127285859D01*
X119581745Y-127209997D01*
X119788172Y-127171410D01*
X119998174Y-127171410D01*
X120204601Y-127209997D01*
G37*
G36*
X175112984Y-127209997D02*
G01*
X175308806Y-127285859D01*
X175487354Y-127396411D01*
X175642548Y-127537889D01*
X175769103Y-127705475D01*
X175862709Y-127893462D01*
X175920179Y-128095448D01*
X175939556Y-128304555D01*
X175920179Y-128513662D01*
X175862709Y-128715648D01*
X175769103Y-128903635D01*
X175642548Y-129071221D01*
X175487354Y-129212699D01*
X175308806Y-129323251D01*
X175112984Y-129399113D01*
X174906557Y-129437700D01*
X174696555Y-129437700D01*
X174490128Y-129399113D01*
X174294306Y-129323251D01*
X174115758Y-129212699D01*
X173960564Y-129071221D01*
X173834009Y-128903635D01*
X173740403Y-128715648D01*
X173682933Y-128513662D01*
X173663556Y-128304555D01*
X173682933Y-128095448D01*
X173740403Y-127893462D01*
X173834009Y-127705475D01*
X173960564Y-127537889D01*
X174115758Y-127396411D01*
X174294306Y-127285859D01*
X174490128Y-127209997D01*
X174696555Y-127171410D01*
X174906557Y-127171410D01*
X175112984Y-127209997D01*
G37*
G36*
X138537461Y-127253297D02*
G01*
X138732182Y-127312365D01*
X138911639Y-127408287D01*
X139068934Y-127537375D01*
X139198022Y-127694670D01*
X139293944Y-127874127D01*
X139353012Y-128068848D01*
X139372957Y-128271352D01*
X139353012Y-128473856D01*
X139293944Y-128668577D01*
X139198022Y-128848034D01*
X139068934Y-129005329D01*
X138911639Y-129134417D01*
X138732182Y-129230339D01*
X138537461Y-129289407D01*
X138334957Y-129309352D01*
X138132453Y-129289407D01*
X137937732Y-129230339D01*
X137758275Y-129134417D01*
X137600980Y-129005329D01*
X137471892Y-128848034D01*
X137375970Y-128668577D01*
X137316902Y-128473856D01*
X137296957Y-128271352D01*
X137316902Y-128068848D01*
X137375970Y-127874127D01*
X137471892Y-127694670D01*
X137600980Y-127537375D01*
X137758275Y-127408287D01*
X137937732Y-127312365D01*
X138132453Y-127253297D01*
X138334957Y-127233352D01*
X138537461Y-127253297D01*
G37*
G36*
X145037461Y-127253297D02*
G01*
X145232182Y-127312365D01*
X145411639Y-127408287D01*
X145568934Y-127537375D01*
X145698022Y-127694670D01*
X145793944Y-127874127D01*
X145853012Y-128068848D01*
X145872957Y-128271352D01*
X145853012Y-128473856D01*
X145793944Y-128668577D01*
X145698022Y-128848034D01*
X145568934Y-129005329D01*
X145411639Y-129134417D01*
X145232182Y-129230339D01*
X145037461Y-129289407D01*
X144834957Y-129309352D01*
X144632453Y-129289407D01*
X144437732Y-129230339D01*
X144258275Y-129134417D01*
X144100980Y-129005329D01*
X143971892Y-128848034D01*
X143875970Y-128668577D01*
X143816902Y-128473856D01*
X143796957Y-128271352D01*
X143816902Y-128068848D01*
X143875970Y-127874127D01*
X143971892Y-127694670D01*
X144100980Y-127537375D01*
X144258275Y-127408287D01*
X144437732Y-127312365D01*
X144632453Y-127253297D01*
X144834957Y-127233352D01*
X145037461Y-127253297D01*
G37*
G36*
X155537461Y-127253297D02*
G01*
X155732182Y-127312365D01*
X155911639Y-127408287D01*
X156068934Y-127537375D01*
X156198022Y-127694670D01*
X156293944Y-127874127D01*
X156353012Y-128068848D01*
X156372957Y-128271352D01*
X156353012Y-128473856D01*
X156293944Y-128668577D01*
X156198022Y-128848034D01*
X156068934Y-129005329D01*
X155911639Y-129134417D01*
X155732182Y-129230339D01*
X155537461Y-129289407D01*
X155334957Y-129309352D01*
X155132453Y-129289407D01*
X154937732Y-129230339D01*
X154758275Y-129134417D01*
X154600980Y-129005329D01*
X154471892Y-128848034D01*
X154375970Y-128668577D01*
X154316902Y-128473856D01*
X154296957Y-128271352D01*
X154316902Y-128068848D01*
X154375970Y-127874127D01*
X154471892Y-127694670D01*
X154600980Y-127537375D01*
X154758275Y-127408287D01*
X154937732Y-127312365D01*
X155132453Y-127253297D01*
X155334957Y-127233352D01*
X155537461Y-127253297D01*
G37*
G36*
X162037461Y-127253297D02*
G01*
X162232182Y-127312365D01*
X162411639Y-127408287D01*
X162568934Y-127537375D01*
X162698022Y-127694670D01*
X162793944Y-127874127D01*
X162853012Y-128068848D01*
X162872957Y-128271352D01*
X162853012Y-128473856D01*
X162793944Y-128668577D01*
X162698022Y-128848034D01*
X162568934Y-129005329D01*
X162411639Y-129134417D01*
X162232182Y-129230339D01*
X162037461Y-129289407D01*
X161834957Y-129309352D01*
X161632453Y-129289407D01*
X161437732Y-129230339D01*
X161258275Y-129134417D01*
X161100980Y-129005329D01*
X160971892Y-128848034D01*
X160875970Y-128668577D01*
X160816902Y-128473856D01*
X160796957Y-128271352D01*
X160816902Y-128068848D01*
X160875970Y-127874127D01*
X160971892Y-127694670D01*
X161100980Y-127537375D01*
X161258275Y-127408287D01*
X161437732Y-127312365D01*
X161632453Y-127253297D01*
X161834957Y-127233352D01*
X162037461Y-127253297D01*
G37*
G36*
X138537461Y-122753297D02*
G01*
X138732182Y-122812365D01*
X138911639Y-122908287D01*
X139068934Y-123037375D01*
X139198022Y-123194670D01*
X139293944Y-123374127D01*
X139353012Y-123568848D01*
X139372957Y-123771352D01*
X139353012Y-123973856D01*
X139293944Y-124168577D01*
X139198022Y-124348034D01*
X139068934Y-124505329D01*
X138911639Y-124634417D01*
X138732182Y-124730339D01*
X138537461Y-124789407D01*
X138334957Y-124809352D01*
X138132453Y-124789407D01*
X137937732Y-124730339D01*
X137758275Y-124634417D01*
X137600980Y-124505329D01*
X137471892Y-124348034D01*
X137375970Y-124168577D01*
X137316902Y-123973856D01*
X137296957Y-123771352D01*
X137316902Y-123568848D01*
X137375970Y-123374127D01*
X137471892Y-123194670D01*
X137600980Y-123037375D01*
X137758275Y-122908287D01*
X137937732Y-122812365D01*
X138132453Y-122753297D01*
X138334957Y-122733352D01*
X138537461Y-122753297D01*
G37*
G36*
X145037461Y-122753297D02*
G01*
X145232182Y-122812365D01*
X145411639Y-122908287D01*
X145568934Y-123037375D01*
X145698022Y-123194670D01*
X145793944Y-123374127D01*
X145853012Y-123568848D01*
X145872957Y-123771352D01*
X145853012Y-123973856D01*
X145793944Y-124168577D01*
X145698022Y-124348034D01*
X145568934Y-124505329D01*
X145411639Y-124634417D01*
X145232182Y-124730339D01*
X145037461Y-124789407D01*
X144834957Y-124809352D01*
X144632453Y-124789407D01*
X144437732Y-124730339D01*
X144258275Y-124634417D01*
X144100980Y-124505329D01*
X143971892Y-124348034D01*
X143875970Y-124168577D01*
X143816902Y-123973856D01*
X143796957Y-123771352D01*
X143816902Y-123568848D01*
X143875970Y-123374127D01*
X143971892Y-123194670D01*
X144100980Y-123037375D01*
X144258275Y-122908287D01*
X144437732Y-122812365D01*
X144632453Y-122753297D01*
X144834957Y-122733352D01*
X145037461Y-122753297D01*
G37*
G36*
X155537461Y-122753297D02*
G01*
X155732182Y-122812365D01*
X155911639Y-122908287D01*
X156068934Y-123037375D01*
X156198022Y-123194670D01*
X156293944Y-123374127D01*
X156353012Y-123568848D01*
X156372957Y-123771352D01*
X156353012Y-123973856D01*
X156293944Y-124168577D01*
X156198022Y-124348034D01*
X156068934Y-124505329D01*
X155911639Y-124634417D01*
X155732182Y-124730339D01*
X155537461Y-124789407D01*
X155334957Y-124809352D01*
X155132453Y-124789407D01*
X154937732Y-124730339D01*
X154758275Y-124634417D01*
X154600980Y-124505329D01*
X154471892Y-124348034D01*
X154375970Y-124168577D01*
X154316902Y-123973856D01*
X154296957Y-123771352D01*
X154316902Y-123568848D01*
X154375970Y-123374127D01*
X154471892Y-123194670D01*
X154600980Y-123037375D01*
X154758275Y-122908287D01*
X154937732Y-122812365D01*
X155132453Y-122753297D01*
X155334957Y-122733352D01*
X155537461Y-122753297D01*
G37*
G36*
X162037461Y-122753297D02*
G01*
X162232182Y-122812365D01*
X162411639Y-122908287D01*
X162568934Y-123037375D01*
X162698022Y-123194670D01*
X162793944Y-123374127D01*
X162853012Y-123568848D01*
X162872957Y-123771352D01*
X162853012Y-123973856D01*
X162793944Y-124168577D01*
X162698022Y-124348034D01*
X162568934Y-124505329D01*
X162411639Y-124634417D01*
X162232182Y-124730339D01*
X162037461Y-124789407D01*
X161834957Y-124809352D01*
X161632453Y-124789407D01*
X161437732Y-124730339D01*
X161258275Y-124634417D01*
X161100980Y-124505329D01*
X160971892Y-124348034D01*
X160875970Y-124168577D01*
X160816902Y-123973856D01*
X160796957Y-123771352D01*
X160816902Y-123568848D01*
X160875970Y-123374127D01*
X160971892Y-123194670D01*
X161100980Y-123037375D01*
X161258275Y-122908287D01*
X161437732Y-122812365D01*
X161632453Y-122753297D01*
X161834957Y-122733352D01*
X162037461Y-122753297D01*
G37*
G36*
X168515740Y-123322058D02*
G01*
X168620876Y-123373456D01*
X168703626Y-123456206D01*
X168755024Y-123561342D01*
X168769803Y-123662779D01*
X168769803Y-124297779D01*
X168755024Y-124399216D01*
X168703626Y-124504352D01*
X168620876Y-124587102D01*
X168515740Y-124638500D01*
X168414303Y-124653279D01*
X166099303Y-124653279D01*
X165997866Y-124638500D01*
X165892730Y-124587102D01*
X165809980Y-124504352D01*
X165758582Y-124399216D01*
X165743803Y-124297779D01*
X165743803Y-123662779D01*
X165758582Y-123561342D01*
X165809980Y-123456206D01*
X165892730Y-123373456D01*
X165997866Y-123322058D01*
X166099303Y-123307279D01*
X168414303Y-123307279D01*
X168515740Y-123322058D01*
G37*
G36*
X183565740Y-123322058D02*
G01*
X183670876Y-123373456D01*
X183753626Y-123456206D01*
X183805024Y-123561342D01*
X183819803Y-123662779D01*
X183819803Y-124297779D01*
X183805024Y-124399216D01*
X183753626Y-124504352D01*
X183670876Y-124587102D01*
X183565740Y-124638500D01*
X183464303Y-124653279D01*
X181149303Y-124653279D01*
X181047866Y-124638500D01*
X180942730Y-124587102D01*
X180859980Y-124504352D01*
X180808582Y-124399216D01*
X180793803Y-124297779D01*
X180793803Y-123662779D01*
X180808582Y-123561342D01*
X180859980Y-123456206D01*
X180942730Y-123373456D01*
X181047866Y-123322058D01*
X181149303Y-123307279D01*
X183464303Y-123307279D01*
X183565740Y-123322058D01*
G37*
G36*
X168515740Y-121322058D02*
G01*
X168620876Y-121373456D01*
X168703626Y-121456206D01*
X168755024Y-121561342D01*
X168769803Y-121662779D01*
X168769803Y-122297779D01*
X168755024Y-122399216D01*
X168703626Y-122504352D01*
X168620876Y-122587102D01*
X168515740Y-122638500D01*
X168414303Y-122653279D01*
X166099303Y-122653279D01*
X165997866Y-122638500D01*
X165892730Y-122587102D01*
X165809980Y-122504352D01*
X165758582Y-122399216D01*
X165743803Y-122297779D01*
X165743803Y-121662779D01*
X165758582Y-121561342D01*
X165809980Y-121456206D01*
X165892730Y-121373456D01*
X165997866Y-121322058D01*
X166099303Y-121307279D01*
X168414303Y-121307279D01*
X168515740Y-121322058D01*
G37*
G36*
X183565740Y-121322058D02*
G01*
X183670876Y-121373456D01*
X183753626Y-121456206D01*
X183805024Y-121561342D01*
X183819803Y-121662779D01*
X183819803Y-122297779D01*
X183805024Y-122399216D01*
X183753626Y-122504352D01*
X183670876Y-122587102D01*
X183565740Y-122638500D01*
X183464303Y-122653279D01*
X181149303Y-122653279D01*
X181047866Y-122638500D01*
X180942730Y-122587102D01*
X180859980Y-122504352D01*
X180808582Y-122399216D01*
X180793803Y-122297779D01*
X180793803Y-121662779D01*
X180808582Y-121561342D01*
X180859980Y-121456206D01*
X180942730Y-121373456D01*
X181047866Y-121322058D01*
X181149303Y-121307279D01*
X183464303Y-121307279D01*
X183565740Y-121322058D01*
G37*
G36*
X168515740Y-119322058D02*
G01*
X168620876Y-119373456D01*
X168703626Y-119456206D01*
X168755024Y-119561342D01*
X168769803Y-119662779D01*
X168769803Y-120297779D01*
X168755024Y-120399216D01*
X168703626Y-120504352D01*
X168620876Y-120587102D01*
X168515740Y-120638500D01*
X168414303Y-120653279D01*
X166099303Y-120653279D01*
X165997866Y-120638500D01*
X165892730Y-120587102D01*
X165809980Y-120504352D01*
X165758582Y-120399216D01*
X165743803Y-120297779D01*
X165743803Y-119662779D01*
X165758582Y-119561342D01*
X165809980Y-119456206D01*
X165892730Y-119373456D01*
X165997866Y-119322058D01*
X166099303Y-119307279D01*
X168414303Y-119307279D01*
X168515740Y-119322058D01*
G37*
G36*
X183565740Y-119322058D02*
G01*
X183670876Y-119373456D01*
X183753626Y-119456206D01*
X183805024Y-119561342D01*
X183819803Y-119662779D01*
X183819803Y-120297779D01*
X183805024Y-120399216D01*
X183753626Y-120504352D01*
X183670876Y-120587102D01*
X183565740Y-120638500D01*
X183464303Y-120653279D01*
X181149303Y-120653279D01*
X181047866Y-120638500D01*
X180942730Y-120587102D01*
X180859980Y-120504352D01*
X180808582Y-120399216D01*
X180793803Y-120297779D01*
X180793803Y-119662779D01*
X180808582Y-119561342D01*
X180859980Y-119456206D01*
X180942730Y-119373456D01*
X181047866Y-119322058D01*
X181149303Y-119307279D01*
X183464303Y-119307279D01*
X183565740Y-119322058D01*
G37*
G36*
X121880425Y-115801144D02*
G01*
X122046979Y-115859424D01*
X122196389Y-115953304D01*
X122321162Y-116078077D01*
X122415042Y-116227487D01*
X122473322Y-116394041D01*
X122493079Y-116569387D01*
X122493079Y-119069387D01*
X122473322Y-119244733D01*
X122415042Y-119411287D01*
X122321162Y-119560697D01*
X122196389Y-119685470D01*
X122046979Y-119779350D01*
X121880425Y-119837630D01*
X121705079Y-119857387D01*
X120205079Y-119857387D01*
X120029733Y-119837630D01*
X119863179Y-119779350D01*
X119713769Y-119685470D01*
X119588996Y-119560697D01*
X119495116Y-119411287D01*
X119436836Y-119244733D01*
X119417079Y-119069387D01*
X119417079Y-116569387D01*
X119436836Y-116394041D01*
X119495116Y-116227487D01*
X119588996Y-116078077D01*
X119713769Y-115953304D01*
X119863179Y-115859424D01*
X120029733Y-115801144D01*
X120205079Y-115781387D01*
X121705079Y-115781387D01*
X121880425Y-115801144D01*
G37*
G36*
X130680425Y-115801144D02*
G01*
X130846979Y-115859424D01*
X130996389Y-115953304D01*
X131121162Y-116078077D01*
X131215042Y-116227487D01*
X131273322Y-116394041D01*
X131293079Y-116569387D01*
X131293079Y-119069387D01*
X131273322Y-119244733D01*
X131215042Y-119411287D01*
X131121162Y-119560697D01*
X130996389Y-119685470D01*
X130846979Y-119779350D01*
X130680425Y-119837630D01*
X130505079Y-119857387D01*
X129005079Y-119857387D01*
X128829733Y-119837630D01*
X128663179Y-119779350D01*
X128513769Y-119685470D01*
X128388996Y-119560697D01*
X128295116Y-119411287D01*
X128236836Y-119244733D01*
X128217079Y-119069387D01*
X128217079Y-116569387D01*
X128236836Y-116394041D01*
X128295116Y-116227487D01*
X128388996Y-116078077D01*
X128513769Y-115953304D01*
X128663179Y-115859424D01*
X128829733Y-115801144D01*
X129005079Y-115781387D01*
X130505079Y-115781387D01*
X130680425Y-115801144D01*
G37*
G36*
X102158222Y-118397451D02*
G01*
X102308924Y-118450184D01*
X102444113Y-118535129D01*
X102557011Y-118648027D01*
X102641956Y-118783216D01*
X102694689Y-118933918D01*
X102712565Y-119092575D01*
X102694689Y-119251232D01*
X102641956Y-119401934D01*
X102557011Y-119537123D01*
X102444113Y-119650021D01*
X102308924Y-119734966D01*
X102158222Y-119787699D01*
X101999565Y-119805575D01*
X101840908Y-119787699D01*
X101690206Y-119734966D01*
X101555017Y-119650021D01*
X101442119Y-119537123D01*
X101357174Y-119401934D01*
X101304441Y-119251232D01*
X101286565Y-119092575D01*
X101304441Y-118933918D01*
X101357174Y-118783216D01*
X101442119Y-118648027D01*
X101555017Y-118535129D01*
X101690206Y-118450184D01*
X101840908Y-118397451D01*
X101999565Y-118379575D01*
X102158222Y-118397451D01*
G37*
G36*
X168515740Y-117322058D02*
G01*
X168620876Y-117373456D01*
X168703626Y-117456206D01*
X168755024Y-117561342D01*
X168769803Y-117662779D01*
X168769803Y-118297779D01*
X168755024Y-118399216D01*
X168703626Y-118504352D01*
X168620876Y-118587102D01*
X168515740Y-118638500D01*
X168414303Y-118653279D01*
X166099303Y-118653279D01*
X165997866Y-118638500D01*
X165892730Y-118587102D01*
X165809980Y-118504352D01*
X165758582Y-118399216D01*
X165743803Y-118297779D01*
X165743803Y-117662779D01*
X165758582Y-117561342D01*
X165809980Y-117456206D01*
X165892730Y-117373456D01*
X165997866Y-117322058D01*
X166099303Y-117307279D01*
X168414303Y-117307279D01*
X168515740Y-117322058D01*
G37*
G36*
X183565740Y-117322058D02*
G01*
X183670876Y-117373456D01*
X183753626Y-117456206D01*
X183805024Y-117561342D01*
X183819803Y-117662779D01*
X183819803Y-118297779D01*
X183805024Y-118399216D01*
X183753626Y-118504352D01*
X183670876Y-118587102D01*
X183565740Y-118638500D01*
X183464303Y-118653279D01*
X181149303Y-118653279D01*
X181047866Y-118638500D01*
X180942730Y-118587102D01*
X180859980Y-118504352D01*
X180808582Y-118399216D01*
X180793803Y-118297779D01*
X180793803Y-117662779D01*
X180808582Y-117561342D01*
X180859980Y-117456206D01*
X180942730Y-117373456D01*
X181047866Y-117322058D01*
X181149303Y-117307279D01*
X183464303Y-117307279D01*
X183565740Y-117322058D01*
G37*
G36*
X109066358Y-115886174D02*
G01*
X109258653Y-115960669D01*
X109433984Y-116069230D01*
X109586382Y-116208159D01*
X109710658Y-116372726D01*
X109802578Y-116557326D01*
X109859012Y-116755674D01*
X109878040Y-116961014D01*
X109859012Y-117166354D01*
X109802578Y-117364702D01*
X109710658Y-117549302D01*
X109586382Y-117713869D01*
X109433984Y-117852798D01*
X109258653Y-117961359D01*
X109066358Y-118035854D01*
X108863650Y-118073747D01*
X108657430Y-118073747D01*
X108454722Y-118035854D01*
X108262427Y-117961359D01*
X108087096Y-117852798D01*
X107934698Y-117713869D01*
X107810422Y-117549302D01*
X107718502Y-117364702D01*
X107662068Y-117166354D01*
X107643040Y-116961014D01*
X107662068Y-116755674D01*
X107718502Y-116557326D01*
X107810422Y-116372726D01*
X107934698Y-116208159D01*
X108087096Y-116069230D01*
X108262427Y-115960669D01*
X108454722Y-115886174D01*
X108657430Y-115848281D01*
X108863650Y-115848281D01*
X109066358Y-115886174D01*
G37*
G36*
X102689107Y-116382468D02*
G01*
X102701435Y-116390705D01*
X102709672Y-116403033D01*
X102712565Y-116417575D01*
X102712565Y-117767575D01*
X102709672Y-117782117D01*
X102701435Y-117794445D01*
X102689107Y-117802682D01*
X102674565Y-117805575D01*
X101324565Y-117805575D01*
X101310023Y-117802682D01*
X101297695Y-117794445D01*
X101289458Y-117782117D01*
X101286565Y-117767575D01*
X101286565Y-116417575D01*
X101289458Y-116403033D01*
X101297695Y-116390705D01*
X101310023Y-116382468D01*
X101324565Y-116379575D01*
X102674565Y-116379575D01*
X102689107Y-116382468D01*
G37*
G36*
X168515740Y-115322058D02*
G01*
X168620876Y-115373456D01*
X168703626Y-115456206D01*
X168755024Y-115561342D01*
X168769803Y-115662779D01*
X168769803Y-116297779D01*
X168755024Y-116399216D01*
X168703626Y-116504352D01*
X168620876Y-116587102D01*
X168515740Y-116638500D01*
X168414303Y-116653279D01*
X166099303Y-116653279D01*
X165997866Y-116638500D01*
X165892730Y-116587102D01*
X165809980Y-116504352D01*
X165758582Y-116399216D01*
X165743803Y-116297779D01*
X165743803Y-115662779D01*
X165758582Y-115561342D01*
X165809980Y-115456206D01*
X165892730Y-115373456D01*
X165997866Y-115322058D01*
X166099303Y-115307279D01*
X168414303Y-115307279D01*
X168515740Y-115322058D01*
G37*
G36*
X183565740Y-115322058D02*
G01*
X183670876Y-115373456D01*
X183753626Y-115456206D01*
X183805024Y-115561342D01*
X183819803Y-115662779D01*
X183819803Y-116297779D01*
X183805024Y-116399216D01*
X183753626Y-116504352D01*
X183670876Y-116587102D01*
X183565740Y-116638500D01*
X183464303Y-116653279D01*
X181149303Y-116653279D01*
X181047866Y-116638500D01*
X180942730Y-116587102D01*
X180859980Y-116504352D01*
X180808582Y-116399216D01*
X180793803Y-116297779D01*
X180793803Y-115662779D01*
X180808582Y-115561342D01*
X180859980Y-115456206D01*
X180942730Y-115373456D01*
X181047866Y-115322058D01*
X181149303Y-115307279D01*
X183464303Y-115307279D01*
X183565740Y-115322058D01*
G37*
G36*
X168515740Y-113322058D02*
G01*
X168620876Y-113373456D01*
X168703626Y-113456206D01*
X168755024Y-113561342D01*
X168769803Y-113662779D01*
X168769803Y-114297779D01*
X168755024Y-114399216D01*
X168703626Y-114504352D01*
X168620876Y-114587102D01*
X168515740Y-114638500D01*
X168414303Y-114653279D01*
X166099303Y-114653279D01*
X165997866Y-114638500D01*
X165892730Y-114587102D01*
X165809980Y-114504352D01*
X165758582Y-114399216D01*
X165743803Y-114297779D01*
X165743803Y-113662779D01*
X165758582Y-113561342D01*
X165809980Y-113456206D01*
X165892730Y-113373456D01*
X165997866Y-113322058D01*
X166099303Y-113307279D01*
X168414303Y-113307279D01*
X168515740Y-113322058D01*
G37*
G36*
X183565740Y-113322058D02*
G01*
X183670876Y-113373456D01*
X183753626Y-113456206D01*
X183805024Y-113561342D01*
X183819803Y-113662779D01*
X183819803Y-114297779D01*
X183805024Y-114399216D01*
X183753626Y-114504352D01*
X183670876Y-114587102D01*
X183565740Y-114638500D01*
X183464303Y-114653279D01*
X181149303Y-114653279D01*
X181047866Y-114638500D01*
X180942730Y-114587102D01*
X180859980Y-114504352D01*
X180808582Y-114399216D01*
X180793803Y-114297779D01*
X180793803Y-113662779D01*
X180808582Y-113561342D01*
X180859980Y-113456206D01*
X180942730Y-113373456D01*
X181047866Y-113322058D01*
X181149303Y-113307279D01*
X183464303Y-113307279D01*
X183565740Y-113322058D01*
G37*
G36*
X188021847Y-111264459D02*
G01*
X188238710Y-111322567D01*
X188442188Y-111417450D01*
X188626098Y-111546226D01*
X188784853Y-111704981D01*
X188913629Y-111888891D01*
X189008512Y-112092369D01*
X189066620Y-112309232D01*
X189086188Y-112532891D01*
X189066620Y-112756550D01*
X189008512Y-112973413D01*
X188913629Y-113176891D01*
X188784853Y-113360801D01*
X188626098Y-113519556D01*
X188442188Y-113648332D01*
X188238710Y-113743215D01*
X188021847Y-113801323D01*
X187798188Y-113820891D01*
X187574529Y-113801323D01*
X187357666Y-113743215D01*
X187154188Y-113648332D01*
X186970278Y-113519556D01*
X186811523Y-113360801D01*
X186682747Y-113176891D01*
X186587864Y-112973413D01*
X186529756Y-112756550D01*
X186510188Y-112532891D01*
X186529756Y-112309232D01*
X186587864Y-112092369D01*
X186682747Y-111888891D01*
X186811523Y-111704981D01*
X186970278Y-111546226D01*
X187154188Y-111417450D01*
X187357666Y-111322567D01*
X187574529Y-111264459D01*
X187798188Y-111244891D01*
X188021847Y-111264459D01*
G37*
G36*
X193101847Y-111264459D02*
G01*
X193318710Y-111322567D01*
X193522188Y-111417450D01*
X193706098Y-111546226D01*
X193864853Y-111704981D01*
X193993629Y-111888891D01*
X194088512Y-112092369D01*
X194146620Y-112309232D01*
X194166188Y-112532891D01*
X194146620Y-112756550D01*
X194088512Y-112973413D01*
X193993629Y-113176891D01*
X193864853Y-113360801D01*
X193706098Y-113519556D01*
X193522188Y-113648332D01*
X193318710Y-113743215D01*
X193101847Y-113801323D01*
X192878188Y-113820891D01*
X192654529Y-113801323D01*
X192437666Y-113743215D01*
X192234188Y-113648332D01*
X192050278Y-113519556D01*
X191891523Y-113360801D01*
X191762747Y-113176891D01*
X191667864Y-112973413D01*
X191609756Y-112756550D01*
X191590188Y-112532891D01*
X191609756Y-112309232D01*
X191667864Y-112092369D01*
X191762747Y-111888891D01*
X191891523Y-111704981D01*
X192050278Y-111546226D01*
X192234188Y-111417450D01*
X192437666Y-111322567D01*
X192654529Y-111264459D01*
X192878188Y-111244891D01*
X193101847Y-111264459D01*
G37*
G36*
X109066358Y-111286173D02*
G01*
X109258653Y-111360668D01*
X109433984Y-111469229D01*
X109586382Y-111608158D01*
X109710658Y-111772725D01*
X109802578Y-111957325D01*
X109859012Y-112155673D01*
X109878040Y-112361013D01*
X109859012Y-112566353D01*
X109802578Y-112764701D01*
X109710658Y-112949301D01*
X109586382Y-113113868D01*
X109433984Y-113252797D01*
X109258653Y-113361358D01*
X109066358Y-113435853D01*
X108863650Y-113473746D01*
X108657430Y-113473746D01*
X108454722Y-113435853D01*
X108262427Y-113361358D01*
X108087096Y-113252797D01*
X107934698Y-113113868D01*
X107810422Y-112949301D01*
X107718502Y-112764701D01*
X107662068Y-112566353D01*
X107643040Y-112361013D01*
X107662068Y-112155673D01*
X107718502Y-111957325D01*
X107810422Y-111772725D01*
X107934698Y-111608158D01*
X108087096Y-111469229D01*
X108262427Y-111360668D01*
X108454722Y-111286173D01*
X108657430Y-111248280D01*
X108863650Y-111248280D01*
X109066358Y-111286173D01*
G37*
G36*
X168515740Y-111322058D02*
G01*
X168620876Y-111373456D01*
X168703626Y-111456206D01*
X168755024Y-111561342D01*
X168769803Y-111662779D01*
X168769803Y-112297779D01*
X168755024Y-112399216D01*
X168703626Y-112504352D01*
X168620876Y-112587102D01*
X168515740Y-112638500D01*
X168414303Y-112653279D01*
X166099303Y-112653279D01*
X165997866Y-112638500D01*
X165892730Y-112587102D01*
X165809980Y-112504352D01*
X165758582Y-112399216D01*
X165743803Y-112297779D01*
X165743803Y-111662779D01*
X165758582Y-111561342D01*
X165809980Y-111456206D01*
X165892730Y-111373456D01*
X165997866Y-111322058D01*
X166099303Y-111307279D01*
X168414303Y-111307279D01*
X168515740Y-111322058D01*
G37*
G36*
X183565740Y-111322058D02*
G01*
X183670876Y-111373456D01*
X183753626Y-111456206D01*
X183805024Y-111561342D01*
X183819803Y-111662779D01*
X183819803Y-112297779D01*
X183805024Y-112399216D01*
X183753626Y-112504352D01*
X183670876Y-112587102D01*
X183565740Y-112638500D01*
X183464303Y-112653279D01*
X181149303Y-112653279D01*
X181047866Y-112638500D01*
X180942730Y-112587102D01*
X180859980Y-112504352D01*
X180808582Y-112399216D01*
X180793803Y-112297779D01*
X180793803Y-111662779D01*
X180808582Y-111561342D01*
X180859980Y-111456206D01*
X180942730Y-111373456D01*
X181047866Y-111322058D01*
X181149303Y-111307279D01*
X183464303Y-111307279D01*
X183565740Y-111322058D01*
G37*
G36*
X138537461Y-110253297D02*
G01*
X138732182Y-110312365D01*
X138911639Y-110408287D01*
X139068934Y-110537375D01*
X139198022Y-110694670D01*
X139293944Y-110874127D01*
X139353012Y-111068848D01*
X139372957Y-111271352D01*
X139353012Y-111473856D01*
X139293944Y-111668577D01*
X139198022Y-111848034D01*
X139068934Y-112005329D01*
X138911639Y-112134417D01*
X138732182Y-112230339D01*
X138537461Y-112289407D01*
X138334957Y-112309352D01*
X138132453Y-112289407D01*
X137937732Y-112230339D01*
X137758275Y-112134417D01*
X137600980Y-112005329D01*
X137471892Y-111848034D01*
X137375970Y-111668577D01*
X137316902Y-111473856D01*
X137296957Y-111271352D01*
X137316902Y-111068848D01*
X137375970Y-110874127D01*
X137471892Y-110694670D01*
X137600980Y-110537375D01*
X137758275Y-110408287D01*
X137937732Y-110312365D01*
X138132453Y-110253297D01*
X138334957Y-110233352D01*
X138537461Y-110253297D01*
G37*
G36*
X145037461Y-110253297D02*
G01*
X145232182Y-110312365D01*
X145411639Y-110408287D01*
X145568934Y-110537375D01*
X145698022Y-110694670D01*
X145793944Y-110874127D01*
X145853012Y-111068848D01*
X145872957Y-111271352D01*
X145853012Y-111473856D01*
X145793944Y-111668577D01*
X145698022Y-111848034D01*
X145568934Y-112005329D01*
X145411639Y-112134417D01*
X145232182Y-112230339D01*
X145037461Y-112289407D01*
X144834957Y-112309352D01*
X144632453Y-112289407D01*
X144437732Y-112230339D01*
X144258275Y-112134417D01*
X144100980Y-112005329D01*
X143971892Y-111848034D01*
X143875970Y-111668577D01*
X143816902Y-111473856D01*
X143796957Y-111271352D01*
X143816902Y-111068848D01*
X143875970Y-110874127D01*
X143971892Y-110694670D01*
X144100980Y-110537375D01*
X144258275Y-110408287D01*
X144437732Y-110312365D01*
X144632453Y-110253297D01*
X144834957Y-110233352D01*
X145037461Y-110253297D01*
G37*
G36*
X155537461Y-110253297D02*
G01*
X155732182Y-110312365D01*
X155911639Y-110408287D01*
X156068934Y-110537375D01*
X156198022Y-110694670D01*
X156293944Y-110874127D01*
X156353012Y-111068848D01*
X156372957Y-111271352D01*
X156353012Y-111473856D01*
X156293944Y-111668577D01*
X156198022Y-111848034D01*
X156068934Y-112005329D01*
X155911639Y-112134417D01*
X155732182Y-112230339D01*
X155537461Y-112289407D01*
X155334957Y-112309352D01*
X155132453Y-112289407D01*
X154937732Y-112230339D01*
X154758275Y-112134417D01*
X154600980Y-112005329D01*
X154471892Y-111848034D01*
X154375970Y-111668577D01*
X154316902Y-111473856D01*
X154296957Y-111271352D01*
X154316902Y-111068848D01*
X154375970Y-110874127D01*
X154471892Y-110694670D01*
X154600980Y-110537375D01*
X154758275Y-110408287D01*
X154937732Y-110312365D01*
X155132453Y-110253297D01*
X155334957Y-110233352D01*
X155537461Y-110253297D01*
G37*
G36*
X162037461Y-110253297D02*
G01*
X162232182Y-110312365D01*
X162411639Y-110408287D01*
X162568934Y-110537375D01*
X162698022Y-110694670D01*
X162793944Y-110874127D01*
X162853012Y-111068848D01*
X162872957Y-111271352D01*
X162853012Y-111473856D01*
X162793944Y-111668577D01*
X162698022Y-111848034D01*
X162568934Y-112005329D01*
X162411639Y-112134417D01*
X162232182Y-112230339D01*
X162037461Y-112289407D01*
X161834957Y-112309352D01*
X161632453Y-112289407D01*
X161437732Y-112230339D01*
X161258275Y-112134417D01*
X161100980Y-112005329D01*
X160971892Y-111848034D01*
X160875970Y-111668577D01*
X160816902Y-111473856D01*
X160796957Y-111271352D01*
X160816902Y-111068848D01*
X160875970Y-110874127D01*
X160971892Y-110694670D01*
X161100980Y-110537375D01*
X161258275Y-110408287D01*
X161437732Y-110312365D01*
X161632453Y-110253297D01*
X161834957Y-110233352D01*
X162037461Y-110253297D01*
G37*
G36*
X123769621Y-109884280D02*
G01*
X123781949Y-109892517D01*
X123790186Y-109904845D01*
X123793079Y-109919387D01*
X123793079Y-111719387D01*
X123790186Y-111733929D01*
X123781949Y-111746257D01*
X123769621Y-111754494D01*
X123755079Y-111757387D01*
X121955079Y-111757387D01*
X121940537Y-111754494D01*
X121928209Y-111746257D01*
X121919972Y-111733929D01*
X121917079Y-111719387D01*
X121917079Y-109919387D01*
X121919972Y-109904845D01*
X121928209Y-109892517D01*
X121940537Y-109884280D01*
X121955079Y-109881387D01*
X123755079Y-109881387D01*
X123769621Y-109884280D01*
G37*
G36*
X125406017Y-109886525D02*
G01*
X125453127Y-109886525D01*
X125493803Y-109895171D01*
X125538049Y-109899529D01*
X125593640Y-109916392D01*
X125644937Y-109927296D01*
X125677760Y-109941910D01*
X125713993Y-109952901D01*
X125771568Y-109983676D01*
X125824079Y-110007055D01*
X125848493Y-110024793D01*
X125876137Y-110039569D01*
X125932522Y-110085843D01*
X125982724Y-110122317D01*
X125999024Y-110140420D01*
X126018259Y-110156206D01*
X126069950Y-110219191D01*
X126113937Y-110268044D01*
X126123177Y-110284049D01*
X126134896Y-110298328D01*
X126178249Y-110379435D01*
X126211985Y-110437868D01*
X126215865Y-110449810D01*
X126221564Y-110460472D01*
X126252992Y-110564077D01*
X126272581Y-110624366D01*
X126273270Y-110630925D01*
X126274936Y-110636416D01*
X126291140Y-110800945D01*
X126293079Y-110819387D01*
X126291140Y-110837829D01*
X126274936Y-111002357D01*
X126273270Y-111007847D01*
X126272581Y-111014408D01*
X126252987Y-111074710D01*
X126221564Y-111178301D01*
X126215866Y-111188960D01*
X126211985Y-111200906D01*
X126178241Y-111259350D01*
X126134896Y-111340445D01*
X126123179Y-111354721D01*
X126113937Y-111370730D01*
X126069940Y-111419592D01*
X126018259Y-111482567D01*
X125999028Y-111498349D01*
X125982724Y-111516457D01*
X125932511Y-111552938D01*
X125876137Y-111599204D01*
X125848499Y-111613976D01*
X125824079Y-111631719D01*
X125771557Y-111655102D01*
X125713993Y-111685872D01*
X125677767Y-111696860D01*
X125644937Y-111711478D01*
X125593629Y-111722383D01*
X125538049Y-111739244D01*
X125493812Y-111743600D01*
X125453127Y-111752249D01*
X125406007Y-111752249D01*
X125355079Y-111757265D01*
X125304150Y-111752249D01*
X125257031Y-111752249D01*
X125216346Y-111743601D01*
X125172108Y-111739244D01*
X125116525Y-111722383D01*
X125065221Y-111711478D01*
X125032392Y-111696861D01*
X124996164Y-111685872D01*
X124938594Y-111655100D01*
X124886079Y-111631719D01*
X124861661Y-111613978D01*
X124834020Y-111599204D01*
X124777637Y-111552931D01*
X124727434Y-111516457D01*
X124711132Y-111498352D01*
X124691898Y-111482567D01*
X124640205Y-111419580D01*
X124596221Y-111370730D01*
X124586980Y-111354725D01*
X124575261Y-111340445D01*
X124531902Y-111259327D01*
X124498173Y-111200906D01*
X124494293Y-111188965D01*
X124488593Y-111178301D01*
X124457155Y-111074663D01*
X124437577Y-111014408D01*
X124436887Y-111007852D01*
X124435221Y-111002357D01*
X124419001Y-110837678D01*
X124417079Y-110819387D01*
X124419001Y-110801096D01*
X124435221Y-110636416D01*
X124436888Y-110630920D01*
X124437577Y-110624366D01*
X124457150Y-110564124D01*
X124488593Y-110460472D01*
X124494294Y-110449805D01*
X124498173Y-110437868D01*
X124531895Y-110379459D01*
X124575261Y-110298328D01*
X124586982Y-110284044D01*
X124596221Y-110268044D01*
X124640196Y-110219204D01*
X124691898Y-110156206D01*
X124711136Y-110140417D01*
X124727434Y-110122317D01*
X124777626Y-110085849D01*
X124834020Y-110039569D01*
X124861666Y-110024791D01*
X124886079Y-110007055D01*
X124938583Y-109983678D01*
X124996164Y-109952901D01*
X125032399Y-109941909D01*
X125065221Y-109927296D01*
X125116514Y-109916393D01*
X125172108Y-109899529D01*
X125216354Y-109895171D01*
X125257031Y-109886525D01*
X125304140Y-109886525D01*
X125355079Y-109881508D01*
X125406017Y-109886525D01*
G37*
G36*
X127906017Y-109886525D02*
G01*
X127953127Y-109886525D01*
X127993803Y-109895171D01*
X128038049Y-109899529D01*
X128093640Y-109916392D01*
X128144937Y-109927296D01*
X128177760Y-109941910D01*
X128213993Y-109952901D01*
X128271568Y-109983676D01*
X128324079Y-110007055D01*
X128348493Y-110024793D01*
X128376137Y-110039569D01*
X128432522Y-110085843D01*
X128482724Y-110122317D01*
X128499024Y-110140420D01*
X128518259Y-110156206D01*
X128569950Y-110219191D01*
X128613937Y-110268044D01*
X128623177Y-110284049D01*
X128634896Y-110298328D01*
X128678249Y-110379435D01*
X128711985Y-110437868D01*
X128715865Y-110449810D01*
X128721564Y-110460472D01*
X128752992Y-110564077D01*
X128772581Y-110624366D01*
X128773270Y-110630925D01*
X128774936Y-110636416D01*
X128791140Y-110800945D01*
X128793079Y-110819387D01*
X128791140Y-110837829D01*
X128774936Y-111002357D01*
X128773270Y-111007847D01*
X128772581Y-111014408D01*
X128752987Y-111074710D01*
X128721564Y-111178301D01*
X128715866Y-111188960D01*
X128711985Y-111200906D01*
X128678241Y-111259350D01*
X128634896Y-111340445D01*
X128623179Y-111354721D01*
X128613937Y-111370730D01*
X128569940Y-111419592D01*
X128518259Y-111482567D01*
X128499028Y-111498349D01*
X128482724Y-111516457D01*
X128432511Y-111552938D01*
X128376137Y-111599204D01*
X128348499Y-111613976D01*
X128324079Y-111631719D01*
X128271557Y-111655102D01*
X128213993Y-111685872D01*
X128177767Y-111696860D01*
X128144937Y-111711478D01*
X128093629Y-111722383D01*
X128038049Y-111739244D01*
X127993812Y-111743600D01*
X127953127Y-111752249D01*
X127906007Y-111752249D01*
X127855079Y-111757265D01*
X127804150Y-111752249D01*
X127757031Y-111752249D01*
X127716346Y-111743601D01*
X127672108Y-111739244D01*
X127616525Y-111722383D01*
X127565221Y-111711478D01*
X127532392Y-111696861D01*
X127496164Y-111685872D01*
X127438594Y-111655100D01*
X127386079Y-111631719D01*
X127361661Y-111613978D01*
X127334020Y-111599204D01*
X127277637Y-111552931D01*
X127227434Y-111516457D01*
X127211132Y-111498352D01*
X127191898Y-111482567D01*
X127140205Y-111419580D01*
X127096221Y-111370730D01*
X127086980Y-111354725D01*
X127075261Y-111340445D01*
X127031902Y-111259327D01*
X126998173Y-111200906D01*
X126994293Y-111188965D01*
X126988593Y-111178301D01*
X126957155Y-111074663D01*
X126937577Y-111014408D01*
X126936887Y-111007852D01*
X126935221Y-111002357D01*
X126919001Y-110837678D01*
X126917079Y-110819387D01*
X126919001Y-110801096D01*
X126935221Y-110636416D01*
X126936888Y-110630920D01*
X126937577Y-110624366D01*
X126957150Y-110564124D01*
X126988593Y-110460472D01*
X126994294Y-110449805D01*
X126998173Y-110437868D01*
X127031895Y-110379459D01*
X127075261Y-110298328D01*
X127086982Y-110284044D01*
X127096221Y-110268044D01*
X127140196Y-110219204D01*
X127191898Y-110156206D01*
X127211136Y-110140417D01*
X127227434Y-110122317D01*
X127277626Y-110085849D01*
X127334020Y-110039569D01*
X127361666Y-110024791D01*
X127386079Y-110007055D01*
X127438583Y-109983678D01*
X127496164Y-109952901D01*
X127532399Y-109941909D01*
X127565221Y-109927296D01*
X127616514Y-109916393D01*
X127672108Y-109899529D01*
X127716354Y-109895171D01*
X127757031Y-109886525D01*
X127804140Y-109886525D01*
X127855079Y-109881508D01*
X127906017Y-109886525D01*
G37*
G36*
X191379205Y-108823015D02*
G01*
X191456450Y-108874629D01*
X191508064Y-108951874D01*
X191526188Y-109042991D01*
X191526188Y-110942791D01*
X191508064Y-111033908D01*
X191456450Y-111111153D01*
X191379205Y-111162767D01*
X191288088Y-111180891D01*
X189388288Y-111180891D01*
X189297171Y-111162767D01*
X189219926Y-111111153D01*
X189168312Y-111033908D01*
X189150188Y-110942791D01*
X189150188Y-109042991D01*
X189168312Y-108951874D01*
X189219926Y-108874629D01*
X189297171Y-108823015D01*
X189388288Y-108804891D01*
X191288088Y-108804891D01*
X191379205Y-108823015D01*
G37*
G36*
X168515740Y-109322058D02*
G01*
X168620876Y-109373456D01*
X168703626Y-109456206D01*
X168755024Y-109561342D01*
X168769803Y-109662779D01*
X168769803Y-110297779D01*
X168755024Y-110399216D01*
X168703626Y-110504352D01*
X168620876Y-110587102D01*
X168515740Y-110638500D01*
X168414303Y-110653279D01*
X166099303Y-110653279D01*
X165997866Y-110638500D01*
X165892730Y-110587102D01*
X165809980Y-110504352D01*
X165758582Y-110399216D01*
X165743803Y-110297779D01*
X165743803Y-109662779D01*
X165758582Y-109561342D01*
X165809980Y-109456206D01*
X165892730Y-109373456D01*
X165997866Y-109322058D01*
X166099303Y-109307279D01*
X168414303Y-109307279D01*
X168515740Y-109322058D01*
G37*
G36*
X183565740Y-109322058D02*
G01*
X183670876Y-109373456D01*
X183753626Y-109456206D01*
X183805024Y-109561342D01*
X183819803Y-109662779D01*
X183819803Y-110297779D01*
X183805024Y-110399216D01*
X183753626Y-110504352D01*
X183670876Y-110587102D01*
X183565740Y-110638500D01*
X183464303Y-110653279D01*
X181149303Y-110653279D01*
X181047866Y-110638500D01*
X180942730Y-110587102D01*
X180859980Y-110504352D01*
X180808582Y-110399216D01*
X180793803Y-110297779D01*
X180793803Y-109662779D01*
X180808582Y-109561342D01*
X180859980Y-109456206D01*
X180942730Y-109373456D01*
X181047866Y-109322058D01*
X181149303Y-109307279D01*
X183464303Y-109307279D01*
X183565740Y-109322058D01*
G37*
G36*
X188021847Y-106184459D02*
G01*
X188238710Y-106242567D01*
X188442188Y-106337450D01*
X188626098Y-106466226D01*
X188784853Y-106624981D01*
X188913629Y-106808891D01*
X189008512Y-107012369D01*
X189066620Y-107229232D01*
X189086188Y-107452891D01*
X189066620Y-107676550D01*
X189008512Y-107893413D01*
X188913629Y-108096891D01*
X188784853Y-108280801D01*
X188626098Y-108439556D01*
X188442188Y-108568332D01*
X188238710Y-108663215D01*
X188021847Y-108721323D01*
X187798188Y-108740891D01*
X187574529Y-108721323D01*
X187357666Y-108663215D01*
X187154188Y-108568332D01*
X186970278Y-108439556D01*
X186811523Y-108280801D01*
X186682747Y-108096891D01*
X186587864Y-107893413D01*
X186529756Y-107676550D01*
X186510188Y-107452891D01*
X186529756Y-107229232D01*
X186587864Y-107012369D01*
X186682747Y-106808891D01*
X186811523Y-106624981D01*
X186970278Y-106466226D01*
X187154188Y-106337450D01*
X187357666Y-106242567D01*
X187574529Y-106184459D01*
X187798188Y-106164891D01*
X188021847Y-106184459D01*
G37*
G36*
X193101847Y-106184459D02*
G01*
X193318710Y-106242567D01*
X193522188Y-106337450D01*
X193706098Y-106466226D01*
X193864853Y-106624981D01*
X193993629Y-106808891D01*
X194088512Y-107012369D01*
X194146620Y-107229232D01*
X194166188Y-107452891D01*
X194146620Y-107676550D01*
X194088512Y-107893413D01*
X193993629Y-108096891D01*
X193864853Y-108280801D01*
X193706098Y-108439556D01*
X193522188Y-108568332D01*
X193318710Y-108663215D01*
X193101847Y-108721323D01*
X192878188Y-108740891D01*
X192654529Y-108721323D01*
X192437666Y-108663215D01*
X192234188Y-108568332D01*
X192050278Y-108439556D01*
X191891523Y-108280801D01*
X191762747Y-108096891D01*
X191667864Y-107893413D01*
X191609756Y-107676550D01*
X191590188Y-107452891D01*
X191609756Y-107229232D01*
X191667864Y-107012369D01*
X191762747Y-106808891D01*
X191891523Y-106624981D01*
X192050278Y-106466226D01*
X192234188Y-106337450D01*
X192437666Y-106242567D01*
X192654529Y-106184459D01*
X192878188Y-106164891D01*
X193101847Y-106184459D01*
G37*
G36*
X138537461Y-105753297D02*
G01*
X138732182Y-105812365D01*
X138911639Y-105908287D01*
X139068934Y-106037375D01*
X139198022Y-106194670D01*
X139293944Y-106374127D01*
X139353012Y-106568848D01*
X139372957Y-106771352D01*
X139353012Y-106973856D01*
X139293944Y-107168577D01*
X139198022Y-107348034D01*
X139068934Y-107505329D01*
X138911639Y-107634417D01*
X138732182Y-107730339D01*
X138537461Y-107789407D01*
X138334957Y-107809352D01*
X138132453Y-107789407D01*
X137937732Y-107730339D01*
X137758275Y-107634417D01*
X137600980Y-107505329D01*
X137471892Y-107348034D01*
X137375970Y-107168577D01*
X137316902Y-106973856D01*
X137296957Y-106771352D01*
X137316902Y-106568848D01*
X137375970Y-106374127D01*
X137471892Y-106194670D01*
X137600980Y-106037375D01*
X137758275Y-105908287D01*
X137937732Y-105812365D01*
X138132453Y-105753297D01*
X138334957Y-105733352D01*
X138537461Y-105753297D01*
G37*
G36*
X145037461Y-105753297D02*
G01*
X145232182Y-105812365D01*
X145411639Y-105908287D01*
X145568934Y-106037375D01*
X145698022Y-106194670D01*
X145793944Y-106374127D01*
X145853012Y-106568848D01*
X145872957Y-106771352D01*
X145853012Y-106973856D01*
X145793944Y-107168577D01*
X145698022Y-107348034D01*
X145568934Y-107505329D01*
X145411639Y-107634417D01*
X145232182Y-107730339D01*
X145037461Y-107789407D01*
X144834957Y-107809352D01*
X144632453Y-107789407D01*
X144437732Y-107730339D01*
X144258275Y-107634417D01*
X144100980Y-107505329D01*
X143971892Y-107348034D01*
X143875970Y-107168577D01*
X143816902Y-106973856D01*
X143796957Y-106771352D01*
X143816902Y-106568848D01*
X143875970Y-106374127D01*
X143971892Y-106194670D01*
X144100980Y-106037375D01*
X144258275Y-105908287D01*
X144437732Y-105812365D01*
X144632453Y-105753297D01*
X144834957Y-105733352D01*
X145037461Y-105753297D01*
G37*
G36*
X155537461Y-105753297D02*
G01*
X155732182Y-105812365D01*
X155911639Y-105908287D01*
X156068934Y-106037375D01*
X156198022Y-106194670D01*
X156293944Y-106374127D01*
X156353012Y-106568848D01*
X156372957Y-106771352D01*
X156353012Y-106973856D01*
X156293944Y-107168577D01*
X156198022Y-107348034D01*
X156068934Y-107505329D01*
X155911639Y-107634417D01*
X155732182Y-107730339D01*
X155537461Y-107789407D01*
X155334957Y-107809352D01*
X155132453Y-107789407D01*
X154937732Y-107730339D01*
X154758275Y-107634417D01*
X154600980Y-107505329D01*
X154471892Y-107348034D01*
X154375970Y-107168577D01*
X154316902Y-106973856D01*
X154296957Y-106771352D01*
X154316902Y-106568848D01*
X154375970Y-106374127D01*
X154471892Y-106194670D01*
X154600980Y-106037375D01*
X154758275Y-105908287D01*
X154937732Y-105812365D01*
X155132453Y-105753297D01*
X155334957Y-105733352D01*
X155537461Y-105753297D01*
G37*
G36*
X162037461Y-105753297D02*
G01*
X162232182Y-105812365D01*
X162411639Y-105908287D01*
X162568934Y-106037375D01*
X162698022Y-106194670D01*
X162793944Y-106374127D01*
X162853012Y-106568848D01*
X162872957Y-106771352D01*
X162853012Y-106973856D01*
X162793944Y-107168577D01*
X162698022Y-107348034D01*
X162568934Y-107505329D01*
X162411639Y-107634417D01*
X162232182Y-107730339D01*
X162037461Y-107789407D01*
X161834957Y-107809352D01*
X161632453Y-107789407D01*
X161437732Y-107730339D01*
X161258275Y-107634417D01*
X161100980Y-107505329D01*
X160971892Y-107348034D01*
X160875970Y-107168577D01*
X160816902Y-106973856D01*
X160796957Y-106771352D01*
X160816902Y-106568848D01*
X160875970Y-106374127D01*
X160971892Y-106194670D01*
X161100980Y-106037375D01*
X161258275Y-105908287D01*
X161437732Y-105812365D01*
X161632453Y-105753297D01*
X161834957Y-105733352D01*
X162037461Y-105753297D01*
G37*
G36*
X186574048Y-96908647D02*
G01*
X186724750Y-96961380D01*
X186859939Y-97046325D01*
X186972837Y-97159223D01*
X187057782Y-97294412D01*
X187110515Y-97445114D01*
X187128391Y-97603771D01*
X187110515Y-97762428D01*
X187057782Y-97913130D01*
X186972837Y-98048319D01*
X186859939Y-98161217D01*
X186724750Y-98246162D01*
X186574048Y-98298895D01*
X186415391Y-98316771D01*
X186256734Y-98298895D01*
X186106032Y-98246162D01*
X185970843Y-98161217D01*
X185857945Y-98048319D01*
X185773000Y-97913130D01*
X185720267Y-97762428D01*
X185702391Y-97603771D01*
X185720267Y-97445114D01*
X185773000Y-97294412D01*
X185857945Y-97159223D01*
X185970843Y-97046325D01*
X186106032Y-96961380D01*
X186256734Y-96908647D01*
X186415391Y-96890771D01*
X186574048Y-96908647D01*
G37*
G36*
X186574048Y-94908647D02*
G01*
X186724750Y-94961380D01*
X186859939Y-95046325D01*
X186972837Y-95159223D01*
X187057782Y-95294412D01*
X187110515Y-95445114D01*
X187128391Y-95603771D01*
X187110515Y-95762428D01*
X187057782Y-95913130D01*
X186972837Y-96048319D01*
X186859939Y-96161217D01*
X186724750Y-96246162D01*
X186574048Y-96298895D01*
X186415391Y-96316771D01*
X186256734Y-96298895D01*
X186106032Y-96246162D01*
X185970843Y-96161217D01*
X185857945Y-96048319D01*
X185773000Y-95913130D01*
X185720267Y-95762428D01*
X185702391Y-95603771D01*
X185720267Y-95445114D01*
X185773000Y-95294412D01*
X185857945Y-95159223D01*
X185970843Y-95046325D01*
X186106032Y-94961380D01*
X186256734Y-94908647D01*
X186415391Y-94890771D01*
X186574048Y-94908647D01*
G37*
G36*
X186574048Y-92908647D02*
G01*
X186724750Y-92961380D01*
X186859939Y-93046325D01*
X186972837Y-93159223D01*
X187057782Y-93294412D01*
X187110515Y-93445114D01*
X187128391Y-93603771D01*
X187110515Y-93762428D01*
X187057782Y-93913130D01*
X186972837Y-94048319D01*
X186859939Y-94161217D01*
X186724750Y-94246162D01*
X186574048Y-94298895D01*
X186415391Y-94316771D01*
X186256734Y-94298895D01*
X186106032Y-94246162D01*
X185970843Y-94161217D01*
X185857945Y-94048319D01*
X185773000Y-93913130D01*
X185720267Y-93762428D01*
X185702391Y-93603771D01*
X185720267Y-93445114D01*
X185773000Y-93294412D01*
X185857945Y-93159223D01*
X185970843Y-93046325D01*
X186106032Y-92961380D01*
X186256734Y-92908647D01*
X186415391Y-92890771D01*
X186574048Y-92908647D01*
G37*
G36*
X186574048Y-90908647D02*
G01*
X186724750Y-90961380D01*
X186859939Y-91046325D01*
X186972837Y-91159223D01*
X187057782Y-91294412D01*
X187110515Y-91445114D01*
X187128391Y-91603771D01*
X187110515Y-91762428D01*
X187057782Y-91913130D01*
X186972837Y-92048319D01*
X186859939Y-92161217D01*
X186724750Y-92246162D01*
X186574048Y-92298895D01*
X186415391Y-92316771D01*
X186256734Y-92298895D01*
X186106032Y-92246162D01*
X185970843Y-92161217D01*
X185857945Y-92048319D01*
X185773000Y-91913130D01*
X185720267Y-91762428D01*
X185702391Y-91603771D01*
X185720267Y-91445114D01*
X185773000Y-91294412D01*
X185857945Y-91159223D01*
X185970843Y-91046325D01*
X186106032Y-90961380D01*
X186256734Y-90908647D01*
X186415391Y-90890771D01*
X186574048Y-90908647D01*
G37*
G36*
X187104933Y-88893664D02*
G01*
X187117261Y-88901901D01*
X187125498Y-88914229D01*
X187128391Y-88928771D01*
X187128391Y-90278771D01*
X187125498Y-90293313D01*
X187117261Y-90305641D01*
X187104933Y-90313878D01*
X187090391Y-90316771D01*
X185740391Y-90316771D01*
X185725849Y-90313878D01*
X185713521Y-90305641D01*
X185705284Y-90293313D01*
X185702391Y-90278771D01*
X185702391Y-88928771D01*
X185705284Y-88914229D01*
X185713521Y-88901901D01*
X185725849Y-88893664D01*
X185740391Y-88890771D01*
X187090391Y-88890771D01*
X187104933Y-88893664D01*
G37*
G36*
X112508886Y-76545524D02*
G01*
X112704708Y-76621386D01*
X112883256Y-76731938D01*
X113038450Y-76873416D01*
X113165005Y-77041002D01*
X113258611Y-77228989D01*
X113316081Y-77430975D01*
X113335458Y-77640082D01*
X113316081Y-77849189D01*
X113258611Y-78051175D01*
X113165005Y-78239162D01*
X113038450Y-78406748D01*
X112883256Y-78548226D01*
X112704708Y-78658778D01*
X112508886Y-78734640D01*
X112302459Y-78773227D01*
X112092457Y-78773227D01*
X111886030Y-78734640D01*
X111690208Y-78658778D01*
X111511660Y-78548226D01*
X111356466Y-78406748D01*
X111229911Y-78239162D01*
X111136305Y-78051175D01*
X111078835Y-77849189D01*
X111059458Y-77640082D01*
X111078835Y-77430975D01*
X111136305Y-77228989D01*
X111229911Y-77041002D01*
X111356466Y-76873416D01*
X111511660Y-76731938D01*
X111690208Y-76621386D01*
X111886030Y-76545524D01*
X112092457Y-76506937D01*
X112302459Y-76506937D01*
X112508886Y-76545524D01*
G37*
G36*
X189419086Y-76545524D02*
G01*
X189614908Y-76621386D01*
X189793456Y-76731938D01*
X189948650Y-76873416D01*
X190075205Y-77041002D01*
X190168811Y-77228989D01*
X190226281Y-77430975D01*
X190245658Y-77640082D01*
X190226281Y-77849189D01*
X190168811Y-78051175D01*
X190075205Y-78239162D01*
X189948650Y-78406748D01*
X189793456Y-78548226D01*
X189614908Y-78658778D01*
X189419086Y-78734640D01*
X189212659Y-78773227D01*
X189002657Y-78773227D01*
X188796230Y-78734640D01*
X188600408Y-78658778D01*
X188421860Y-78548226D01*
X188266666Y-78406748D01*
X188140111Y-78239162D01*
X188046505Y-78051175D01*
X187989035Y-77849189D01*
X187969658Y-77640082D01*
X187989035Y-77430975D01*
X188046505Y-77228989D01*
X188140111Y-77041002D01*
X188266666Y-76873416D01*
X188421860Y-76731938D01*
X188600408Y-76621386D01*
X188796230Y-76545524D01*
X189002657Y-76506937D01*
X189212659Y-76506937D01*
X189419086Y-76545524D01*
G37*
G36*
X123321501Y-75887331D02*
G01*
X123333829Y-75895568D01*
X123342066Y-75907896D01*
X123344959Y-75922438D01*
X123344959Y-77272438D01*
X123342066Y-77286980D01*
X123333829Y-77299308D01*
X123321501Y-77307545D01*
X123306959Y-77310438D01*
X121956959Y-77310438D01*
X121942417Y-77307545D01*
X121930089Y-77299308D01*
X121921852Y-77286980D01*
X121918959Y-77272438D01*
X121918959Y-75922438D01*
X121921852Y-75907896D01*
X121930089Y-75895568D01*
X121942417Y-75887331D01*
X121956959Y-75884438D01*
X123306959Y-75884438D01*
X123321501Y-75887331D01*
G37*
G36*
X124790616Y-75902314D02*
G01*
X124941318Y-75955047D01*
X125076507Y-76039992D01*
X125189405Y-76152890D01*
X125274350Y-76288079D01*
X125327083Y-76438781D01*
X125344959Y-76597438D01*
X125327083Y-76756095D01*
X125274350Y-76906797D01*
X125189405Y-77041986D01*
X125076507Y-77154884D01*
X124941318Y-77239829D01*
X124790616Y-77292562D01*
X124631959Y-77310438D01*
X124473302Y-77292562D01*
X124322600Y-77239829D01*
X124187411Y-77154884D01*
X124074513Y-77041986D01*
X123989568Y-76906797D01*
X123936835Y-76756095D01*
X123918959Y-76597438D01*
X123936835Y-76438781D01*
X123989568Y-76288079D01*
X124074513Y-76152890D01*
X124187411Y-76039992D01*
X124322600Y-75955047D01*
X124473302Y-75902314D01*
X124631959Y-75884438D01*
X124790616Y-75902314D01*
G37*
G36*
X126790616Y-75902314D02*
G01*
X126941318Y-75955047D01*
X127076507Y-76039992D01*
X127189405Y-76152890D01*
X127274350Y-76288079D01*
X127327083Y-76438781D01*
X127344959Y-76597438D01*
X127327083Y-76756095D01*
X127274350Y-76906797D01*
X127189405Y-77041986D01*
X127076507Y-77154884D01*
X126941318Y-77239829D01*
X126790616Y-77292562D01*
X126631959Y-77310438D01*
X126473302Y-77292562D01*
X126322600Y-77239829D01*
X126187411Y-77154884D01*
X126074513Y-77041986D01*
X125989568Y-76906797D01*
X125936835Y-76756095D01*
X125918959Y-76597438D01*
X125936835Y-76438781D01*
X125989568Y-76288079D01*
X126074513Y-76152890D01*
X126187411Y-76039992D01*
X126322600Y-75955047D01*
X126473302Y-75902314D01*
X126631959Y-75884438D01*
X126790616Y-75902314D01*
G37*
G36*
X128790616Y-75902314D02*
G01*
X128941318Y-75955047D01*
X129076507Y-76039992D01*
X129189405Y-76152890D01*
X129274350Y-76288079D01*
X129327083Y-76438781D01*
X129344959Y-76597438D01*
X129327083Y-76756095D01*
X129274350Y-76906797D01*
X129189405Y-77041986D01*
X129076507Y-77154884D01*
X128941318Y-77239829D01*
X128790616Y-77292562D01*
X128631959Y-77310438D01*
X128473302Y-77292562D01*
X128322600Y-77239829D01*
X128187411Y-77154884D01*
X128074513Y-77041986D01*
X127989568Y-76906797D01*
X127936835Y-76756095D01*
X127918959Y-76597438D01*
X127936835Y-76438781D01*
X127989568Y-76288079D01*
X128074513Y-76152890D01*
X128187411Y-76039992D01*
X128322600Y-75955047D01*
X128473302Y-75902314D01*
X128631959Y-75884438D01*
X128790616Y-75902314D01*
G37*
M02*
