%TF.GenerationSoftware,KiCad,Pcbnew,8.0.6*%
%TF.CreationDate,2025-07-11T21:44:03-04:00*%
%TF.ProjectId,receiver,72656365-6976-4657-922e-6b696361645f,rev?*%
%TF.SameCoordinates,Original*%
%TF.FileFunction,Other,User*%
%FSLAX46Y46*%
G04 Gerber Fmt 4.6, Leading zero omitted, Abs format (unit mm)*
G04 Created by KiCad (PCBNEW 8.0.6) date 2025-07-11 21:44:03*
%MOMM*%
%LPD*%
G01*
G04 APERTURE LIST*
%ADD10C,0.050000*%
G04 APERTURE END LIST*
D10*
%TO.C,BZ1*%
X202287407Y-139324589D02*
G75*
G02*
X190287407Y-139324589I-6000000J0D01*
G01*
X190287407Y-139324589D02*
G75*
G02*
X202287407Y-139324589I6000000J0D01*
G01*
%TO.C,BUT_R3*%
X137426727Y-131043294D02*
X141986727Y-131043294D01*
X137426727Y-133283294D02*
X137426727Y-131043294D01*
X141986727Y-131043294D02*
X141986727Y-133283294D01*
X141986727Y-133283294D02*
X137426727Y-133283294D01*
%TO.C,BUT_R1*%
X168964757Y-106792404D02*
X173524757Y-106792404D01*
X168964757Y-109032404D02*
X168964757Y-106792404D01*
X173524757Y-106792404D02*
X173524757Y-109032404D01*
X173524757Y-109032404D02*
X168964757Y-109032404D01*
%TO.C,BUZ_R1*%
X194419242Y-114302974D02*
X198979242Y-114302974D01*
X194419242Y-116542974D02*
X194419242Y-114302974D01*
X198979242Y-114302974D02*
X198979242Y-116542974D01*
X198979242Y-116542974D02*
X194419242Y-116542974D01*
%TO.C,BUT_R4*%
X137070533Y-106733039D02*
X141630533Y-106733039D01*
X137070533Y-108973039D02*
X137070533Y-106733039D01*
X141630533Y-106733039D02*
X141630533Y-108973039D01*
X141630533Y-108973039D02*
X137070533Y-108973039D01*
%TO.C,LLS_C1*%
X122003004Y-110983987D02*
X126603004Y-110983987D01*
X122003004Y-113283987D02*
X122003004Y-110983987D01*
X126603004Y-110983987D02*
X126603004Y-113283987D01*
X126603004Y-113283987D02*
X122003004Y-113283987D01*
%TO.C,J4*%
X110615550Y-112838730D02*
X110615550Y-124038730D01*
X110615550Y-124038730D02*
X114215550Y-124038730D01*
X114215550Y-112838730D02*
X110615550Y-112838730D01*
X114215550Y-124038730D02*
X114215550Y-112838730D01*
%TO.C,U5*%
X123032048Y-118058266D02*
X123032048Y-113628266D01*
X125532048Y-113628266D02*
X123032048Y-113628266D01*
X125532048Y-118058266D02*
X123032048Y-118058266D01*
X125532048Y-118058266D02*
X125532048Y-113628266D01*
%TO.C,BUZ_D1*%
X185192870Y-144977445D02*
X189892870Y-144977445D01*
X185192870Y-147277445D02*
X185192870Y-144977445D01*
X189892870Y-147277445D02*
X185192870Y-147277445D01*
X189892870Y-147277445D02*
X189892870Y-144977445D01*
%TO.C,Q1*%
X185740594Y-136553976D02*
X185740594Y-140393976D01*
X185740594Y-140393976D02*
X189140594Y-140393976D01*
X189140594Y-136553976D02*
X185740594Y-136553976D01*
X189140594Y-140393976D02*
X189140594Y-136553976D01*
%TO.C,LLS_C2*%
X122030134Y-118837997D02*
X126630134Y-118837997D01*
X122030134Y-121137997D02*
X122030134Y-118837997D01*
X126630134Y-118837997D02*
X126630134Y-121137997D01*
X126630134Y-121137997D02*
X122030134Y-121137997D01*
%TO.C,LLS_R2*%
X122078056Y-121883474D02*
X126638056Y-121883474D01*
X122078056Y-124123474D02*
X122078056Y-121883474D01*
X126638056Y-121883474D02*
X126638056Y-124123474D01*
X126638056Y-124123474D02*
X122078056Y-124123474D01*
%TO.C,RF1*%
X155374215Y-71905492D02*
X173874215Y-71905492D01*
X155374215Y-88405492D02*
X155374215Y-71905492D01*
X155374215Y-88405492D02*
X173874215Y-88405492D01*
X173874215Y-71905492D02*
X173874215Y-88405492D01*
%TO.C,BUZ_R2*%
X185027286Y-133568525D02*
X189587286Y-133568525D01*
X185027286Y-135808525D02*
X185027286Y-133568525D01*
X189587286Y-133568525D02*
X189587286Y-135808525D01*
X189587286Y-135808525D02*
X185027286Y-135808525D01*
%TO.C,BUT_R2*%
X169090909Y-131696316D02*
X173650909Y-131696316D01*
X169090909Y-133936316D02*
X169090909Y-131696316D01*
X173650909Y-131696316D02*
X173650909Y-133936316D01*
X173650909Y-133936316D02*
X169090909Y-133936316D01*
%TD*%
M02*
