%TF.GenerationSoftware,KiCad,Pcbnew,8.0.6*%
%TF.CreationDate,2025-07-11T21:44:03-04:00*%
%TF.ProjectId,receiver,72656365-6976-4657-922e-6b696361645f,rev?*%
%TF.SameCoordinates,Original*%
%TF.FileFunction,Other,User*%
%FSLAX46Y46*%
G04 Gerber Fmt 4.6, Leading zero omitted, Abs format (unit mm)*
G04 Created by KiCad (PCBNEW 8.0.6) date 2025-07-11 21:44:03*
%MOMM*%
%LPD*%
G01*
G04 APERTURE LIST*
%ADD10C,0.050000*%
%ADD11C,0.152400*%
G04 APERTURE END LIST*
D10*
%TO.C,U3*%
X136593213Y-42508876D02*
X136593213Y-45908876D01*
X136593213Y-45908876D02*
X140693213Y-45908876D01*
X140693213Y-42508876D02*
X136593213Y-42508876D01*
X140693213Y-45908876D02*
X140693213Y-42508876D01*
%TO.C,STM_C9*%
X151688978Y-65758813D02*
X156288978Y-65758813D01*
X151688978Y-68058813D02*
X151688978Y-65758813D01*
X156288978Y-65758813D02*
X156288978Y-68058813D01*
X156288978Y-68058813D02*
X151688978Y-68058813D01*
%TO.C,CSTL_C1*%
X147219786Y-52255967D02*
X150519786Y-52255967D01*
X147219786Y-53715967D02*
X147219786Y-52255967D01*
X150519786Y-52255967D02*
X150519786Y-53715967D01*
X150519786Y-53715967D02*
X147219786Y-53715967D01*
D11*
%TO.C,U4*%
X175259812Y-64576891D02*
X175463012Y-64576891D01*
X175259812Y-66534091D02*
X175259812Y-64576891D01*
X175463012Y-63904491D02*
X176135412Y-63904491D01*
X175463012Y-64576891D02*
X175463012Y-63904491D01*
X175463012Y-66534091D02*
X175259812Y-66534091D01*
X175463012Y-67206491D02*
X175463012Y-66534091D01*
X176135412Y-63701291D02*
X178092612Y-63701291D01*
X176135412Y-63904491D02*
X176135412Y-63701291D01*
X176135412Y-67206491D02*
X175463012Y-67206491D01*
X176135412Y-67409691D02*
X176135412Y-67206491D01*
X178092612Y-63701291D02*
X178092612Y-63904491D01*
X178092612Y-63904491D02*
X178765012Y-63904491D01*
X178092612Y-67206491D02*
X178092612Y-67409691D01*
X178092612Y-67409691D02*
X176135412Y-67409691D01*
X178765012Y-63904491D02*
X178765012Y-64576891D01*
X178765012Y-64576891D02*
X178968212Y-64576891D01*
X178765012Y-66534091D02*
X178765012Y-67206491D01*
X178765012Y-67206491D02*
X178092612Y-67206491D01*
X178968212Y-64576891D02*
X178968212Y-66534091D01*
X178968212Y-66534091D02*
X178765012Y-66534091D01*
%TO.C,PWR_D2*%
D10*
X146567315Y-48003034D02*
X148162302Y-48003034D01*
X148162302Y-44955979D01*
X146567315Y-44955979D01*
X146567315Y-48003034D01*
%TO.C,PWR_C4*%
X133876464Y-41663578D02*
X136176464Y-41663578D01*
X133876464Y-46263578D02*
X133876464Y-41663578D01*
X136176464Y-41663578D02*
X136176464Y-46263578D01*
X136176464Y-46263578D02*
X133876464Y-46263578D01*
%TO.C,RV1*%
X189135888Y-117261743D02*
X189135888Y-131661743D01*
X189135888Y-131661743D02*
X202435888Y-131661743D01*
X202435888Y-117261743D02*
X189135888Y-117261743D01*
X202435888Y-131661743D02*
X202435888Y-117261743D01*
%TO.C,JP1*%
X169083149Y-51155232D02*
X169083149Y-47855232D01*
X169083149Y-51155232D02*
X171583149Y-51155232D01*
X171583149Y-47855232D02*
X169083149Y-47855232D01*
X171583149Y-47855232D02*
X171583149Y-51155232D01*
%TO.C,PWR_R5*%
X145226520Y-74771804D02*
X149786520Y-74771804D01*
X145226520Y-77011804D02*
X145226520Y-74771804D01*
X149786520Y-74771804D02*
X149786520Y-77011804D01*
X149786520Y-77011804D02*
X145226520Y-77011804D01*
%TO.C,MLX_C1*%
X174978570Y-68543425D02*
X179578570Y-68543425D01*
X174978570Y-70843425D02*
X174978570Y-68543425D01*
X179578570Y-68543425D02*
X179578570Y-70843425D01*
X179578570Y-70843425D02*
X174978570Y-70843425D01*
%TO.C,HOLES1*%
X133017230Y-43980426D02*
G75*
G02*
X128717230Y-43980426I-2150000J0D01*
G01*
X128717230Y-43980426D02*
G75*
G02*
X133017230Y-43980426I2150000J0D01*
G01*
X133017230Y-83980426D02*
G75*
G02*
X128717230Y-83980426I-2150000J0D01*
G01*
X128717230Y-83980426D02*
G75*
G02*
X133017230Y-83980426I2150000J0D01*
G01*
X183017230Y-43980426D02*
G75*
G02*
X178717230Y-43980426I-2150000J0D01*
G01*
X178717230Y-43980426D02*
G75*
G02*
X183017230Y-43980426I2150000J0D01*
G01*
X183017230Y-83980426D02*
G75*
G02*
X178717230Y-83980426I-2150000J0D01*
G01*
X178717230Y-83980426D02*
G75*
G02*
X183017230Y-83980426I2150000J0D01*
G01*
%TO.C,PWR_J1*%
X126308863Y-72932777D02*
X126308863Y-79082777D01*
X126308863Y-79082777D02*
X129908863Y-79082777D01*
X129908863Y-72932777D02*
X126308863Y-72932777D01*
X129908863Y-79082777D02*
X129908863Y-72932777D01*
%TO.C,STM_C3*%
X157921298Y-67289425D02*
X162521298Y-67289425D01*
X157921298Y-69589425D02*
X157921298Y-67289425D01*
X162521298Y-67289425D02*
X162521298Y-69589425D01*
X162521298Y-69589425D02*
X157921298Y-69589425D01*
%TO.C,SW3*%
X134915298Y-134252778D02*
X135165298Y-134252778D01*
X134915298Y-134502778D02*
X134915298Y-134252778D01*
X134915298Y-141502778D02*
X134915298Y-134502778D01*
X134915298Y-141502778D02*
X134915298Y-141752778D01*
X134915298Y-141752778D02*
X135165298Y-141752778D01*
X135165298Y-134252778D02*
X144165298Y-134252778D01*
X144165298Y-134252778D02*
X144415298Y-134252778D01*
X144165298Y-141752778D02*
X135165298Y-141752778D01*
X144165298Y-141752778D02*
X144415298Y-141752778D01*
X144415298Y-134252778D02*
X144415298Y-134502778D01*
X144415298Y-134502778D02*
X144415298Y-141502778D01*
X144415298Y-141752778D02*
X144415298Y-141502778D01*
%TO.C,D3*%
X137388584Y-67219789D02*
X139288584Y-67219789D01*
X137388584Y-70899789D02*
X137388584Y-67219789D01*
X139288584Y-67219789D02*
X139288584Y-70899789D01*
X139288584Y-70899789D02*
X137388584Y-70899789D01*
%TO.C,STM_C4*%
X165973575Y-67189953D02*
X170573575Y-67189953D01*
X165973575Y-69489953D02*
X165973575Y-67189953D01*
X170573575Y-67189953D02*
X170573575Y-69489953D01*
X170573575Y-69489953D02*
X165973575Y-69489953D01*
%TO.C,SW1*%
X166421788Y-109441627D02*
X166671788Y-109441627D01*
X166421788Y-109691627D02*
X166421788Y-109441627D01*
X166421788Y-116691627D02*
X166421788Y-109691627D01*
X166421788Y-116691627D02*
X166421788Y-116941627D01*
X166421788Y-116941627D02*
X166671788Y-116941627D01*
X166671788Y-109441627D02*
X175671788Y-109441627D01*
X175671788Y-109441627D02*
X175921788Y-109441627D01*
X175671788Y-116941627D02*
X166671788Y-116941627D01*
X175671788Y-116941627D02*
X175921788Y-116941627D01*
X175921788Y-109441627D02*
X175921788Y-109691627D01*
X175921788Y-109691627D02*
X175921788Y-116691627D01*
X175921788Y-116941627D02*
X175921788Y-116691627D01*
%TO.C,STM_C1*%
X154182712Y-49911894D02*
X158782712Y-49911894D01*
X154182712Y-52211894D02*
X154182712Y-49911894D01*
X158782712Y-49911894D02*
X158782712Y-52211894D01*
X158782712Y-52211894D02*
X154182712Y-52211894D01*
%TO.C,S_R1*%
X146938437Y-60996500D02*
X149178437Y-60996500D01*
X146938437Y-65556500D02*
X146938437Y-60996500D01*
X149178437Y-60996500D02*
X149178437Y-65556500D01*
X149178437Y-65556500D02*
X146938437Y-65556500D01*
%TO.C,STM_C8*%
X151687380Y-63366701D02*
X156287380Y-63366701D01*
X151687380Y-65666701D02*
X151687380Y-63366701D01*
X156287380Y-63366701D02*
X156287380Y-65666701D01*
X156287380Y-65666701D02*
X151687380Y-65666701D01*
%TO.C,LED_R1*%
X133957166Y-62025084D02*
X136197166Y-62025084D01*
X133957166Y-66585084D02*
X133957166Y-62025084D01*
X136197166Y-62025084D02*
X136197166Y-66585084D01*
X136197166Y-66585084D02*
X133957166Y-66585084D01*
%TO.C,HOLES3*%
X111591750Y-100148492D02*
G75*
G02*
X107291750Y-100148492I-2150000J0D01*
G01*
X107291750Y-100148492D02*
G75*
G02*
X111591750Y-100148492I2150000J0D01*
G01*
X111591750Y-150948492D02*
G75*
G02*
X107291750Y-150948492I-2150000J0D01*
G01*
X107291750Y-150948492D02*
G75*
G02*
X111591750Y-150948492I2150000J0D01*
G01*
X203031750Y-100148492D02*
G75*
G02*
X198731750Y-100148492I-2150000J0D01*
G01*
X198731750Y-100148492D02*
G75*
G02*
X203031750Y-100148492I2150000J0D01*
G01*
X203031750Y-150948492D02*
G75*
G02*
X198731750Y-150948492I-2150000J0D01*
G01*
X198731750Y-150948492D02*
G75*
G02*
X203031750Y-150948492I2150000J0D01*
G01*
%TO.C,PWR_C5*%
X140918536Y-44178548D02*
X143218536Y-44178548D01*
X140918536Y-48778548D02*
X140918536Y-44178548D01*
X143218536Y-44178548D02*
X143218536Y-48778548D01*
X143218536Y-48778548D02*
X140918536Y-48778548D01*
%TO.C,PWR_R1*%
X141348240Y-52246399D02*
X143588240Y-52246399D01*
X141348240Y-56806399D02*
X141348240Y-52246399D01*
X143588240Y-52246399D02*
X143588240Y-56806399D01*
X143588240Y-56806399D02*
X141348240Y-56806399D01*
D11*
%TO.C,IF1*%
X151574129Y-39634746D02*
X151574129Y-45654546D01*
X151574129Y-45654546D02*
X166331529Y-45654546D01*
X166331529Y-39634746D02*
X151574129Y-39634746D01*
X166331529Y-45654546D02*
X166331529Y-39634746D01*
D10*
%TO.C,SW4*%
X134915298Y-109441627D02*
X135165298Y-109441627D01*
X134915298Y-109691627D02*
X134915298Y-109441627D01*
X134915298Y-116691627D02*
X134915298Y-109691627D01*
X134915298Y-116691627D02*
X134915298Y-116941627D01*
X134915298Y-116941627D02*
X135165298Y-116941627D01*
X135165298Y-109441627D02*
X144165298Y-109441627D01*
X144165298Y-109441627D02*
X144415298Y-109441627D01*
X144165298Y-116941627D02*
X135165298Y-116941627D01*
X144165298Y-116941627D02*
X144415298Y-116941627D01*
X144415298Y-109441627D02*
X144415298Y-109691627D01*
X144415298Y-109691627D02*
X144415298Y-116691627D01*
X144415298Y-116941627D02*
X144415298Y-116691627D01*
%TO.C,D4*%
X140712307Y-67197366D02*
X142612307Y-67197366D01*
X140712307Y-70877366D02*
X140712307Y-67197366D01*
X142612307Y-67197366D02*
X142612307Y-70877366D01*
X142612307Y-70877366D02*
X140712307Y-70877366D01*
%TO.C,S_R4*%
X150997328Y-58161044D02*
X155557328Y-58161044D01*
X150997328Y-60401044D02*
X150997328Y-58161044D01*
X155557328Y-58161044D02*
X155557328Y-60401044D01*
X155557328Y-60401044D02*
X150997328Y-60401044D01*
%TO.C,S_C10*%
X149275699Y-60988960D02*
X151575699Y-60988960D01*
X149275699Y-65588960D02*
X149275699Y-60988960D01*
X151575699Y-60988960D02*
X151575699Y-65588960D01*
X151575699Y-65588960D02*
X149275699Y-65588960D01*
%TO.C,I2C_R2*%
X161909926Y-47321958D02*
X164149926Y-47321958D01*
X161909926Y-51881958D02*
X161909926Y-47321958D01*
X164149926Y-47321958D02*
X164149926Y-51881958D01*
X164149926Y-51881958D02*
X161909926Y-51881958D01*
%TO.C,PWR_R4*%
X143595543Y-44197763D02*
X145835543Y-44197763D01*
X143595543Y-48757763D02*
X143595543Y-44197763D01*
X145835543Y-44197763D02*
X145835543Y-48757763D01*
X145835543Y-48757763D02*
X143595543Y-48757763D01*
%TO.C,STM_R2*%
X164380779Y-47267765D02*
X168940779Y-47267765D01*
X164380779Y-49507765D02*
X164380779Y-47267765D01*
X168940779Y-47267765D02*
X168940779Y-49507765D01*
X168940779Y-49507765D02*
X164380779Y-49507765D01*
%TO.C,J3*%
X171078337Y-39127890D02*
X171078337Y-42727890D01*
X171078337Y-42727890D02*
X177228337Y-42727890D01*
X177228337Y-39127890D02*
X171078337Y-39127890D01*
X177228337Y-42727890D02*
X177228337Y-39127890D01*
%TO.C,S_C7*%
X151698936Y-60986145D02*
X156298936Y-60986145D01*
X151698936Y-63286145D02*
X151698936Y-60986145D01*
X156298936Y-60986145D02*
X156298936Y-63286145D01*
X156298936Y-63286145D02*
X151698936Y-63286145D01*
%TO.C,PWR_D1*%
X141671561Y-60412536D02*
X143266548Y-60412536D01*
X143266548Y-57365481D01*
X141671561Y-57365481D01*
X141671561Y-60412536D01*
%TO.C,MLX_A0*%
X182711051Y-65201203D02*
X182711051Y-61901203D01*
X182711051Y-65201203D02*
X185211051Y-65201203D01*
X185211051Y-61901203D02*
X182711051Y-61901203D01*
X185211051Y-61901203D02*
X185211051Y-65201203D01*
%TO.C,HOLES2*%
X132380170Y-102915216D02*
G75*
G02*
X128080170Y-102915216I-2150000J0D01*
G01*
X128080170Y-102915216D02*
G75*
G02*
X132380170Y-102915216I2150000J0D01*
G01*
X132380170Y-142915216D02*
G75*
G02*
X128080170Y-142915216I-2150000J0D01*
G01*
X128080170Y-142915216D02*
G75*
G02*
X132380170Y-142915216I2150000J0D01*
G01*
X182380170Y-102915216D02*
G75*
G02*
X178080170Y-102915216I-2150000J0D01*
G01*
X178080170Y-102915216D02*
G75*
G02*
X182380170Y-102915216I2150000J0D01*
G01*
X182380170Y-142915216D02*
G75*
G02*
X178080170Y-142915216I-2150000J0D01*
G01*
X178080170Y-142915216D02*
G75*
G02*
X182380170Y-142915216I2150000J0D01*
G01*
%TO.C,LED_R2*%
X137202256Y-61937872D02*
X139442256Y-61937872D01*
X137202256Y-66497872D02*
X137202256Y-61937872D01*
X139442256Y-61937872D02*
X139442256Y-66497872D01*
X139442256Y-66497872D02*
X137202256Y-66497872D01*
%TO.C,PWR_R3*%
X146169663Y-39433763D02*
X148409663Y-39433763D01*
X146169663Y-43993763D02*
X146169663Y-39433763D01*
X148409663Y-39433763D02*
X148409663Y-43993763D01*
X148409663Y-43993763D02*
X146169663Y-43993763D01*
%TO.C,PWR_R2*%
X143574659Y-39414324D02*
X145814659Y-39414324D01*
X143574659Y-43974324D02*
X143574659Y-39414324D01*
X145814659Y-39414324D02*
X145814659Y-43974324D01*
X145814659Y-43974324D02*
X143574659Y-43974324D01*
%TO.C,D2*%
X134102420Y-67197366D02*
X136002420Y-67197366D01*
X134102420Y-70877366D02*
X134102420Y-67197366D01*
X136002420Y-67197366D02*
X136002420Y-70877366D01*
X136002420Y-70877366D02*
X134102420Y-70877366D01*
%TO.C,LED_R3*%
X140467184Y-61931110D02*
X142707184Y-61931110D01*
X140467184Y-66491110D02*
X140467184Y-61931110D01*
X142707184Y-61931110D02*
X142707184Y-66491110D01*
X142707184Y-66491110D02*
X140467184Y-66491110D01*
%TO.C,I2C_R1*%
X159416657Y-47303176D02*
X161656657Y-47303176D01*
X159416657Y-51863176D02*
X159416657Y-47303176D01*
X161656657Y-47303176D02*
X161656657Y-51863176D01*
X161656657Y-51863176D02*
X159416657Y-51863176D01*
%TO.C,SW2*%
X166421788Y-134252778D02*
X166671788Y-134252778D01*
X166421788Y-134502778D02*
X166421788Y-134252778D01*
X166421788Y-141502778D02*
X166421788Y-134502778D01*
X166421788Y-141502778D02*
X166421788Y-141752778D01*
X166421788Y-141752778D02*
X166671788Y-141752778D01*
X166671788Y-134252778D02*
X175671788Y-134252778D01*
X175671788Y-134252778D02*
X175921788Y-134252778D01*
X175671788Y-141752778D02*
X166671788Y-141752778D01*
X175671788Y-141752778D02*
X175921788Y-141752778D01*
X175921788Y-134252778D02*
X175921788Y-134502778D01*
X175921788Y-134502778D02*
X175921788Y-141502778D01*
X175921788Y-141752778D02*
X175921788Y-141502778D01*
%TO.C,PWR_C1*%
X136496034Y-58523929D02*
X141096034Y-58523929D01*
X136496034Y-60823929D02*
X136496034Y-58523929D01*
X141096034Y-58523929D02*
X141096034Y-60823929D01*
X141096034Y-60823929D02*
X136496034Y-60823929D01*
%TO.C,Q2*%
X145847661Y-79608035D02*
X145847661Y-83448035D01*
X145847661Y-83448035D02*
X149247661Y-83448035D01*
X149247661Y-79608035D02*
X145847661Y-79608035D01*
X149247661Y-83448035D02*
X149247661Y-79608035D01*
%TO.C,S_C2*%
X154181844Y-52799983D02*
X156481844Y-52799983D01*
X154181844Y-57399983D02*
X154181844Y-52799983D01*
X156481844Y-52799983D02*
X156481844Y-57399983D01*
X156481844Y-57399983D02*
X154181844Y-57399983D01*
%TO.C,MLX_A1*%
X182739084Y-69350140D02*
X182739084Y-66050140D01*
X182739084Y-69350140D02*
X185239084Y-69350140D01*
X185239084Y-66050140D02*
X182739084Y-66050140D01*
X185239084Y-66050140D02*
X185239084Y-69350140D01*
%TO.C,J2*%
X181317816Y-46639839D02*
X181317816Y-60389839D01*
X181317816Y-60389839D02*
X184917816Y-60389839D01*
X184917816Y-46639839D02*
X181317816Y-46639839D01*
X184917816Y-60389839D02*
X184917816Y-46639839D01*
%TO.C,MLX_R1*%
X179981648Y-60845937D02*
X182221648Y-60845937D01*
X179981648Y-65405937D02*
X179981648Y-60845937D01*
X182221648Y-60845937D02*
X182221648Y-65405937D01*
X182221648Y-65405937D02*
X179981648Y-65405937D01*
D11*
%TO.C,U1*%
X156854391Y-55269273D02*
X158197491Y-55269273D01*
X156854391Y-63785273D02*
X156854391Y-55269273D01*
X158197491Y-54269473D02*
X159197291Y-54269473D01*
X158197491Y-55269273D02*
X158197491Y-54269473D01*
X158197491Y-63785273D02*
X156854391Y-63785273D01*
X158197491Y-64785073D02*
X158197491Y-63785273D01*
X159197291Y-52926373D02*
X167713291Y-52926373D01*
X159197291Y-54269473D02*
X159197291Y-52926373D01*
X159197291Y-64785073D02*
X158197491Y-64785073D01*
X159197291Y-66128173D02*
X159197291Y-64785073D01*
X167713291Y-52926373D02*
X167713291Y-54269473D01*
X167713291Y-54269473D02*
X168713091Y-54269473D01*
X167713291Y-64785073D02*
X167713291Y-66128173D01*
X167713291Y-66128173D02*
X159197291Y-66128173D01*
X168713091Y-54269473D02*
X168713091Y-55269273D01*
X168713091Y-55269273D02*
X170056191Y-55269273D01*
X168713091Y-63785273D02*
X168713091Y-64785073D01*
X168713091Y-64785073D02*
X167713291Y-64785073D01*
X170056191Y-55269273D02*
X170056191Y-63785273D01*
X170056191Y-63785273D02*
X168713091Y-63785273D01*
D10*
%TO.C,MLX_C3*%
X146927387Y-67074531D02*
X149227387Y-67074531D01*
X146927387Y-71674531D02*
X146927387Y-67074531D01*
X149227387Y-67074531D02*
X149227387Y-71674531D01*
X149227387Y-71674531D02*
X146927387Y-71674531D01*
%TO.C,STM_R3*%
X164380779Y-49706667D02*
X168940779Y-49706667D01*
X164380779Y-51946667D02*
X164380779Y-49706667D01*
X168940779Y-49706667D02*
X168940779Y-51946667D01*
X168940779Y-51946667D02*
X164380779Y-51946667D01*
%TO.C,MLX_R2*%
X179953615Y-65756540D02*
X182193615Y-65756540D01*
X179953615Y-70316540D02*
X179953615Y-65756540D01*
X182193615Y-65756540D02*
X182193615Y-70316540D01*
X182193615Y-70316540D02*
X179953615Y-70316540D01*
%TO.C,J1*%
X176982612Y-81133861D02*
X176982612Y-72533861D01*
X176982612Y-81133861D02*
X193282612Y-81133861D01*
X193282612Y-72533861D02*
X176982612Y-72533861D01*
X193282612Y-72533861D02*
X193282612Y-81133861D01*
%TO.C,PWR_C3*%
X140944537Y-39401394D02*
X143244537Y-39401394D01*
X140944537Y-44001394D02*
X140944537Y-39401394D01*
X143244537Y-39401394D02*
X143244537Y-44001394D01*
X143244537Y-44001394D02*
X140944537Y-44001394D01*
%TO.C,D1*%
X144851950Y-77246927D02*
X150151950Y-77246927D01*
X144851950Y-79446927D02*
X144851950Y-77246927D01*
X150151950Y-77246927D02*
X150151950Y-79446927D01*
X150151950Y-79446927D02*
X144851950Y-79446927D01*
%TO.C,PWR_C2*%
X134010048Y-47420026D02*
X138610048Y-47420026D01*
X134010048Y-49720026D02*
X134010048Y-47420026D01*
X138610048Y-47420026D02*
X138610048Y-49720026D01*
X138610048Y-49720026D02*
X134010048Y-49720026D01*
%TO.C,MLX_C2*%
X174701094Y-60886645D02*
X179301094Y-60886645D01*
X174701094Y-63186645D02*
X174701094Y-60886645D01*
X179301094Y-60886645D02*
X179301094Y-63186645D01*
X179301094Y-63186645D02*
X174701094Y-63186645D01*
%TO.C,CSTL_C2*%
X147111119Y-58201564D02*
X150411119Y-58201564D01*
X147111119Y-59661564D02*
X147111119Y-58201564D01*
X150411119Y-58201564D02*
X150411119Y-59661564D01*
X150411119Y-59661564D02*
X147111119Y-59661564D01*
%TO.C,STM_C6*%
X171075878Y-64876368D02*
X173375878Y-64876368D01*
X171075878Y-69476368D02*
X171075878Y-64876368D01*
X173375878Y-64876368D02*
X173375878Y-69476368D01*
X173375878Y-69476368D02*
X171075878Y-69476368D01*
%TO.C,STM_C5*%
X170893004Y-51933197D02*
X173193004Y-51933197D01*
X170893004Y-56533197D02*
X170893004Y-51933197D01*
X173193004Y-51933197D02*
X173193004Y-56533197D01*
X173193004Y-56533197D02*
X170893004Y-56533197D01*
%TO.C,FB1*%
X156354414Y-64238535D02*
X157814414Y-64238535D01*
X156354414Y-67198535D02*
X156354414Y-64238535D01*
X157814414Y-64238535D02*
X157814414Y-67198535D01*
X157814414Y-67198535D02*
X156354414Y-67198535D01*
D11*
%TO.C,SW5*%
X135802657Y-72964414D02*
X135802657Y-87467814D01*
X135802657Y-87467814D02*
X143321057Y-87467814D01*
X143321057Y-72964414D02*
X135802657Y-72964414D01*
X143321057Y-87467814D02*
X143321057Y-72964414D01*
%TO.C,Y1*%
D10*
X152030248Y-57903299D02*
X145745909Y-57903299D01*
X145745909Y-54007197D01*
X152030248Y-54007197D01*
X152030248Y-57903299D01*
D11*
%TO.C,IF2*%
X150014339Y-96441815D02*
X150014339Y-102461615D01*
X150014339Y-102461615D02*
X164771739Y-102461615D01*
X164771739Y-96441815D02*
X150014339Y-96441815D01*
X164771739Y-102461615D02*
X164771739Y-96441815D01*
%TO.C,U2*%
X128126742Y-50308192D02*
X136381742Y-50308192D01*
X128126742Y-58258392D02*
X128126742Y-50308192D01*
X136381742Y-50308192D02*
X136381742Y-51040791D01*
X136381742Y-51040791D02*
X140674342Y-51040791D01*
X136381742Y-57525793D02*
X136381742Y-58258392D01*
X136381742Y-58258392D02*
X128126742Y-58258392D01*
X137880342Y-52945791D02*
X137880342Y-55620793D01*
X137880342Y-55620793D02*
X140674342Y-55620793D01*
X140674342Y-51040791D02*
X140674342Y-52945791D01*
X140674342Y-52945791D02*
X137880342Y-52945791D01*
X140674342Y-55620793D02*
X140674342Y-57525793D01*
X140674342Y-57525793D02*
X136381742Y-57525793D01*
%TD*%
M02*
