%TF.GenerationSoftware,KiCad,Pcbnew,8.0.6*%
%TF.CreationDate,2025-07-22T18:05:31-04:00*%
%TF.ProjectId,receiver,72656365-6976-4657-922e-6b696361645f,rev?*%
%TF.SameCoordinates,Original*%
%TF.FileFunction,Copper,L1,Top*%
%TF.FilePolarity,Positive*%
%FSLAX46Y46*%
G04 Gerber Fmt 4.6, Leading zero omitted, Abs format (unit mm)*
G04 Created by KiCad (PCBNEW 8.0.6) date 2025-07-22 18:05:31*
%MOMM*%
%LPD*%
G01*
G04 APERTURE LIST*
G04 Aperture macros list*
%AMRoundRect*
0 Rectangle with rounded corners*
0 $1 Rounding radius*
0 $2 $3 $4 $5 $6 $7 $8 $9 X,Y pos of 4 corners*
0 Add a 4 corners polygon primitive as box body*
4,1,4,$2,$3,$4,$5,$6,$7,$8,$9,$2,$3,0*
0 Add four circle primitives for the rounded corners*
1,1,$1+$1,$2,$3*
1,1,$1+$1,$4,$5*
1,1,$1+$1,$6,$7*
1,1,$1+$1,$8,$9*
0 Add four rect primitives between the rounded corners*
20,1,$1+$1,$2,$3,$4,$5,0*
20,1,$1+$1,$4,$5,$6,$7,0*
20,1,$1+$1,$6,$7,$8,$9,0*
20,1,$1+$1,$8,$9,$2,$3,0*%
G04 Aperture macros list end*
%TA.AperFunction,ComponentPad*%
%ADD10C,2.000000*%
%TD*%
%TA.AperFunction,ComponentPad*%
%ADD11R,1.700000X1.700000*%
%TD*%
%TA.AperFunction,ComponentPad*%
%ADD12O,1.700000X1.700000*%
%TD*%
%TA.AperFunction,ComponentPad*%
%ADD13R,1.800000X1.800000*%
%TD*%
%TA.AperFunction,ComponentPad*%
%ADD14C,1.800000*%
%TD*%
%TA.AperFunction,ComponentPad*%
%ADD15RoundRect,0.750000X-0.750000X1.250000X-0.750000X-1.250000X0.750000X-1.250000X0.750000X1.250000X0*%
%TD*%
%TA.AperFunction,ComponentPad*%
%ADD16C,1.066800*%
%TD*%
%TA.AperFunction,ViaPad*%
%ADD17C,0.800000*%
%TD*%
%TA.AperFunction,Conductor*%
%ADD18C,0.250000*%
%TD*%
%TA.AperFunction,Conductor*%
%ADD19C,0.500000*%
%TD*%
G04 APERTURE END LIST*
D10*
%TO.P,SW2,1,1*%
%TO.N,PUSH_2_IB*%
X167785227Y-136097935D03*
X174285227Y-136097935D03*
%TO.P,SW2,2,2*%
%TO.N,GND_IB*%
X167785227Y-140597935D03*
X174285227Y-140597935D03*
%TD*%
D11*
%TO.P,J4,1,GND*%
%TO.N,GND_IB*%
X112278989Y-122583887D03*
D12*
%TO.P,J4,2,VCC*%
%TO.N,+5V_IB*%
X112278989Y-120043887D03*
%TO.P,J4,3,SDA*%
%TO.N,Net-(J4-SDA)*%
X112278989Y-117503887D03*
%TO.P,J4,4,SCL*%
%TO.N,Net-(J4-SCL)*%
X112278989Y-114963887D03*
%TD*%
D10*
%TO.P,SW4,1,1*%
%TO.N,PUSH_4_IB*%
X136278737Y-111286784D03*
X142778737Y-111286784D03*
%TO.P,SW4,2,2*%
%TO.N,GND_IB*%
X136278737Y-115786784D03*
X142778737Y-115786784D03*
%TD*%
%TO.P,SW1,1,1*%
%TO.N,PUSH_1_IB*%
X167785227Y-111286784D03*
X174285227Y-111286784D03*
%TO.P,SW1,2,2*%
%TO.N,GND_IB*%
X167785227Y-115786784D03*
X174285227Y-115786784D03*
%TD*%
D13*
%TO.P,RV1,1,1*%
%TO.N,Net-(BUZ_R1-Pad1)*%
X198149327Y-118756900D03*
D14*
%TO.P,RV1,2,2*%
%TO.N,Net-(BUZ_D1-K)*%
X195649327Y-118756900D03*
%TO.P,RV1,3,3*%
X193149327Y-118756900D03*
D15*
%TO.P,RV1,MP*%
%TO.N,N/C*%
X200049327Y-125756900D03*
X191249327Y-125756900D03*
%TD*%
D16*
%TO.P,IF2,1,P1*%
%TO.N,+5V_IB*%
X162881478Y-101502772D03*
%TO.P,IF2,2,P2*%
%TO.N,+3.3V_IB*%
X161631478Y-101502772D03*
%TO.P,IF2,3,P3*%
%TO.N,BUZZER_IB*%
X160381478Y-101502772D03*
%TO.P,IF2,4,P4*%
%TO.N,I2C_SDA_IB*%
X159131478Y-101502772D03*
%TO.P,IF2,5,P5*%
%TO.N,I2C_SCL_IB*%
X157881478Y-101502772D03*
%TO.P,IF2,6,P6*%
%TO.N,PUSH_1_IB*%
X156631478Y-101502772D03*
%TO.P,IF2,7,P7*%
%TO.N,PUSH_2_IB*%
X155381478Y-101502772D03*
%TO.P,IF2,8,P8*%
%TO.N,PUSH_3_IB*%
X154131478Y-101502772D03*
%TO.P,IF2,9,P9*%
%TO.N,PUSH_4_IB*%
X152881478Y-101502772D03*
%TO.P,IF2,10,P10*%
%TO.N,GND_IB*%
X151631478Y-101502772D03*
%TD*%
D10*
%TO.P,SW3,1,1*%
%TO.N,PUSH_3_IB*%
X136278737Y-136097935D03*
X142778737Y-136097935D03*
%TO.P,SW3,2,2*%
%TO.N,GND_IB*%
X136278737Y-140597935D03*
X142778737Y-140597935D03*
%TD*%
D17*
%TO.N,I2C_SCL_IB*%
X157913878Y-113424965D03*
%TO.N,I2C_SDA_IB*%
X127953985Y-118537011D03*
%TO.N,PUSH_4_IB*%
X152912449Y-110564613D03*
%TO.N,I2C_SDA_IB*%
X159210029Y-117334855D03*
%TO.N,I2C_SCL_IB*%
X127106789Y-114782957D03*
%TO.N,+5V_IB*%
X162911798Y-118267883D03*
%TO.N,BUZZER_IB*%
X185604476Y-100111383D03*
%TO.N,+5V_IB*%
X194719198Y-102252512D03*
%TO.N,PUSH_3_IB*%
X154151707Y-135334952D03*
%TO.N,PUSH_2_IB*%
X155428068Y-135245901D03*
%TO.N,+3.3V_IB*%
X125766183Y-107046116D03*
X138745754Y-130355375D03*
X171878615Y-130399277D03*
%TO.N,PUSH_1_IB*%
X156697010Y-110534927D03*
%TO.N,+3.3V_IB*%
X138481078Y-106420480D03*
X161673279Y-128756826D03*
X161631478Y-105381579D03*
X171753330Y-106301748D03*
%TD*%
D18*
%TO.N,I2C_SDA_IB*%
X158007873Y-118537011D02*
X159210029Y-117334855D01*
X127953985Y-118537011D02*
X158007873Y-118537011D01*
%TO.N,I2C_SCL_IB*%
X128349757Y-113424965D02*
X157913878Y-113424965D01*
X127422962Y-114466784D02*
X127422962Y-114351760D01*
X127422962Y-114351760D02*
X128349757Y-113424965D01*
%TO.N,PUSH_4_IB*%
X142778737Y-111286784D02*
X152190278Y-111286784D01*
D19*
%TO.N,BUZZER_IB*%
X160381478Y-101502772D02*
X160381478Y-100748431D01*
%TO.N,+5V_IB*%
X162911798Y-118267883D02*
X161135794Y-120043887D01*
D18*
%TO.N,PUSH_4_IB*%
X152190278Y-111286784D02*
X152912449Y-110564613D01*
D19*
%TO.N,BUZZER_IB*%
X160381478Y-100748431D02*
X161497160Y-99632749D01*
X182858813Y-99632749D02*
X185125842Y-99632749D01*
X185125842Y-99632749D02*
X185604476Y-100111383D01*
%TO.N,+5V_IB*%
X161135794Y-120043887D02*
X112278989Y-120043887D01*
%TO.N,BUZZER_IB*%
X161497160Y-99632749D02*
X182858813Y-99632749D01*
%TO.N,+5V_IB*%
X162881478Y-101502772D02*
X163766042Y-100618208D01*
D18*
%TO.N,PUSH_3_IB*%
X153388724Y-136097935D02*
X154151707Y-135334952D01*
D19*
%TO.N,+5V_IB*%
X181761976Y-100618208D02*
X182681794Y-101538026D01*
D18*
%TO.N,PUSH_2_IB*%
X167785227Y-136097935D02*
X156280102Y-136097935D01*
%TO.N,PUSH_3_IB*%
X142778737Y-136097935D02*
X153388724Y-136097935D01*
D19*
%TO.N,+5V_IB*%
X182681794Y-101538026D02*
X194004712Y-101538026D01*
X194004712Y-101538026D02*
X194719198Y-102252512D01*
X163766042Y-100618208D02*
X181761976Y-100618208D01*
D18*
%TO.N,PUSH_2_IB*%
X156280102Y-136097935D02*
X155428068Y-135245901D01*
%TO.N,I2C_SCL_IB*%
X127106789Y-114782957D02*
X127422962Y-114466784D01*
D19*
%TO.N,+3.3V_IB*%
X138745754Y-130355375D02*
X138749466Y-130351663D01*
X161673279Y-128756826D02*
X161673279Y-129401812D01*
X138481078Y-106420480D02*
X126391819Y-106420480D01*
X161673279Y-129401812D02*
X160723428Y-130351663D01*
X126391819Y-106420480D02*
X125766183Y-107046116D01*
D18*
%TO.N,PUSH_1_IB*%
X167785227Y-111286784D02*
X157448867Y-111286784D01*
X157448867Y-111286784D02*
X156697010Y-110534927D01*
D19*
%TO.N,+3.3V_IB*%
X171679124Y-106375954D02*
X162625853Y-106375954D01*
X160592577Y-106420480D02*
X161631478Y-105381579D01*
X138481078Y-106420480D02*
X160592577Y-106420480D01*
X162625853Y-106375954D02*
X161631478Y-105381579D01*
X171753330Y-106301748D02*
X171679124Y-106375954D01*
X138749466Y-130351663D02*
X160723428Y-130351663D01*
X162670744Y-130399277D02*
X161673279Y-129401812D01*
X171878615Y-130399277D02*
X162670744Y-130399277D01*
%TD*%
%TA.AperFunction,Conductor*%
%TO.N,GND_IB*%
G36*
X205041205Y-96105569D02*
G01*
X205086960Y-96158373D01*
X205098166Y-96209884D01*
X205098166Y-155570884D01*
X205078481Y-155637923D01*
X205025677Y-155683678D01*
X204974166Y-155694884D01*
X105613166Y-155694884D01*
X105546127Y-155675199D01*
X105500372Y-155622395D01*
X105489166Y-155570884D01*
X105489166Y-150772360D01*
X108174689Y-150772360D01*
X108174689Y-151014937D01*
X108206350Y-151255434D01*
X108269136Y-151489753D01*
X108361962Y-151713854D01*
X108361965Y-151713861D01*
X108483253Y-151923938D01*
X108483255Y-151923941D01*
X108483256Y-151923942D01*
X108630922Y-152116385D01*
X108630928Y-152116392D01*
X108802445Y-152287909D01*
X108802451Y-152287914D01*
X108994900Y-152435585D01*
X109204977Y-152556873D01*
X109429089Y-152649703D01*
X109663400Y-152712487D01*
X109843775Y-152736233D01*
X109903900Y-152744149D01*
X109903901Y-152744149D01*
X110146478Y-152744149D01*
X110194577Y-152737816D01*
X110386978Y-152712487D01*
X110621289Y-152649703D01*
X110845401Y-152556873D01*
X111055478Y-152435585D01*
X111247927Y-152287914D01*
X111419454Y-152116387D01*
X111567125Y-151923938D01*
X111688413Y-151713861D01*
X111781243Y-151489749D01*
X111844027Y-151255438D01*
X111875689Y-151014937D01*
X111875689Y-150772361D01*
X111875689Y-150772360D01*
X198174689Y-150772360D01*
X198174689Y-151014937D01*
X198206350Y-151255434D01*
X198269136Y-151489753D01*
X198361962Y-151713854D01*
X198361965Y-151713861D01*
X198483253Y-151923938D01*
X198483255Y-151923941D01*
X198483256Y-151923942D01*
X198630922Y-152116385D01*
X198630928Y-152116392D01*
X198802445Y-152287909D01*
X198802451Y-152287914D01*
X198994900Y-152435585D01*
X199204977Y-152556873D01*
X199429089Y-152649703D01*
X199663400Y-152712487D01*
X199843775Y-152736233D01*
X199903900Y-152744149D01*
X199903901Y-152744149D01*
X200146478Y-152744149D01*
X200194577Y-152737816D01*
X200386978Y-152712487D01*
X200621289Y-152649703D01*
X200845401Y-152556873D01*
X201055478Y-152435585D01*
X201247927Y-152287914D01*
X201419454Y-152116387D01*
X201567125Y-151923938D01*
X201688413Y-151713861D01*
X201781243Y-151489749D01*
X201844027Y-151255438D01*
X201875689Y-151014937D01*
X201875689Y-150772361D01*
X201844027Y-150531860D01*
X201781243Y-150297549D01*
X201688413Y-150073437D01*
X201567125Y-149863360D01*
X201419454Y-149670911D01*
X201419449Y-149670905D01*
X201247932Y-149499388D01*
X201247925Y-149499382D01*
X201055482Y-149351716D01*
X201055481Y-149351715D01*
X201055478Y-149351713D01*
X200845401Y-149230425D01*
X200845394Y-149230422D01*
X200621293Y-149137596D01*
X200386974Y-149074810D01*
X200146478Y-149043149D01*
X200146477Y-149043149D01*
X199903901Y-149043149D01*
X199903900Y-149043149D01*
X199663403Y-149074810D01*
X199429084Y-149137596D01*
X199204983Y-149230422D01*
X199204974Y-149230426D01*
X198994895Y-149351716D01*
X198802452Y-149499382D01*
X198802445Y-149499388D01*
X198630928Y-149670905D01*
X198630922Y-149670912D01*
X198483256Y-149863355D01*
X198361966Y-150073434D01*
X198361962Y-150073443D01*
X198269136Y-150297544D01*
X198206350Y-150531863D01*
X198174689Y-150772360D01*
X111875689Y-150772360D01*
X111844027Y-150531860D01*
X111781243Y-150297549D01*
X111688413Y-150073437D01*
X111567125Y-149863360D01*
X111419454Y-149670911D01*
X111419449Y-149670905D01*
X111247932Y-149499388D01*
X111247925Y-149499382D01*
X111055482Y-149351716D01*
X111055481Y-149351715D01*
X111055478Y-149351713D01*
X110845401Y-149230425D01*
X110845394Y-149230422D01*
X110621293Y-149137596D01*
X110386974Y-149074810D01*
X110146478Y-149043149D01*
X110146477Y-149043149D01*
X109903901Y-149043149D01*
X109903900Y-149043149D01*
X109663403Y-149074810D01*
X109429084Y-149137596D01*
X109204983Y-149230422D01*
X109204974Y-149230426D01*
X108994895Y-149351716D01*
X108802452Y-149499382D01*
X108802445Y-149499388D01*
X108630928Y-149670905D01*
X108630922Y-149670912D01*
X108483256Y-149863355D01*
X108361966Y-150073434D01*
X108361962Y-150073443D01*
X108269136Y-150297544D01*
X108206350Y-150531863D01*
X108174689Y-150772360D01*
X105489166Y-150772360D01*
X105489166Y-143139084D01*
X128243109Y-143139084D01*
X128243109Y-143381661D01*
X128274770Y-143622158D01*
X128337556Y-143856477D01*
X128430382Y-144080578D01*
X128430385Y-144080585D01*
X128551673Y-144290662D01*
X128551675Y-144290665D01*
X128551676Y-144290666D01*
X128699342Y-144483109D01*
X128699348Y-144483116D01*
X128870865Y-144654633D01*
X128870871Y-144654638D01*
X129063320Y-144802309D01*
X129273397Y-144923597D01*
X129497509Y-145016427D01*
X129731820Y-145079211D01*
X129912195Y-145102957D01*
X129972320Y-145110873D01*
X129972321Y-145110873D01*
X130214898Y-145110873D01*
X130262997Y-145104540D01*
X130455398Y-145079211D01*
X130689709Y-145016427D01*
X130913821Y-144923597D01*
X131123898Y-144802309D01*
X131316347Y-144654638D01*
X131487874Y-144483111D01*
X131635545Y-144290662D01*
X131756833Y-144080585D01*
X131849663Y-143856473D01*
X131912447Y-143622162D01*
X131944109Y-143381661D01*
X131944109Y-143139085D01*
X131944109Y-143139084D01*
X178243109Y-143139084D01*
X178243109Y-143381661D01*
X178274770Y-143622158D01*
X178337556Y-143856477D01*
X178430382Y-144080578D01*
X178430385Y-144080585D01*
X178551673Y-144290662D01*
X178551675Y-144290665D01*
X178551676Y-144290666D01*
X178699342Y-144483109D01*
X178699348Y-144483116D01*
X178870865Y-144654633D01*
X178870871Y-144654638D01*
X179063320Y-144802309D01*
X179273397Y-144923597D01*
X179497509Y-145016427D01*
X179731820Y-145079211D01*
X179912195Y-145102957D01*
X179972320Y-145110873D01*
X179972321Y-145110873D01*
X180214898Y-145110873D01*
X180262997Y-145104540D01*
X180455398Y-145079211D01*
X180689709Y-145016427D01*
X180913821Y-144923597D01*
X181123898Y-144802309D01*
X181316347Y-144654638D01*
X181487874Y-144483111D01*
X181635545Y-144290662D01*
X181756833Y-144080585D01*
X181849663Y-143856473D01*
X181912447Y-143622162D01*
X181944109Y-143381661D01*
X181944109Y-143139085D01*
X181912447Y-142898584D01*
X181849663Y-142664273D01*
X181756833Y-142440161D01*
X181635545Y-142230084D01*
X181487874Y-142037635D01*
X181487869Y-142037629D01*
X181316352Y-141866112D01*
X181316345Y-141866106D01*
X181123902Y-141718440D01*
X181123901Y-141718439D01*
X181123898Y-141718437D01*
X180913821Y-141597149D01*
X180913814Y-141597146D01*
X180689713Y-141504320D01*
X180455394Y-141441534D01*
X180214898Y-141409873D01*
X180214897Y-141409873D01*
X179972321Y-141409873D01*
X179972320Y-141409873D01*
X179731823Y-141441534D01*
X179497504Y-141504320D01*
X179273403Y-141597146D01*
X179273394Y-141597150D01*
X179063315Y-141718440D01*
X178870872Y-141866106D01*
X178870865Y-141866112D01*
X178699348Y-142037629D01*
X178699342Y-142037636D01*
X178551676Y-142230079D01*
X178430386Y-142440158D01*
X178430382Y-142440167D01*
X178337556Y-142664268D01*
X178274770Y-142898587D01*
X178243109Y-143139084D01*
X131944109Y-143139084D01*
X131912447Y-142898584D01*
X131849663Y-142664273D01*
X131756833Y-142440161D01*
X131635545Y-142230084D01*
X131487874Y-142037635D01*
X131487869Y-142037629D01*
X131316352Y-141866112D01*
X131316345Y-141866106D01*
X131123902Y-141718440D01*
X131123901Y-141718439D01*
X131123898Y-141718437D01*
X130913821Y-141597149D01*
X130913814Y-141597146D01*
X130689713Y-141504320D01*
X130455394Y-141441534D01*
X130214898Y-141409873D01*
X130214897Y-141409873D01*
X129972321Y-141409873D01*
X129972320Y-141409873D01*
X129731823Y-141441534D01*
X129497504Y-141504320D01*
X129273403Y-141597146D01*
X129273394Y-141597150D01*
X129063315Y-141718440D01*
X128870872Y-141866106D01*
X128870865Y-141866112D01*
X128699348Y-142037629D01*
X128699342Y-142037636D01*
X128551676Y-142230079D01*
X128430386Y-142440158D01*
X128430382Y-142440167D01*
X128337556Y-142664268D01*
X128274770Y-142898587D01*
X128243109Y-143139084D01*
X105489166Y-143139084D01*
X105489166Y-140597929D01*
X134773596Y-140597929D01*
X134773596Y-140597940D01*
X134794122Y-140845664D01*
X134794124Y-140845673D01*
X134855149Y-141086652D01*
X134955003Y-141314299D01*
X135055301Y-141467817D01*
X135754949Y-140768169D01*
X135766219Y-140810227D01*
X135838627Y-140935643D01*
X135941029Y-141038045D01*
X136066445Y-141110453D01*
X136108502Y-141121722D01*
X135408679Y-141821544D01*
X135455505Y-141857990D01*
X135455507Y-141857991D01*
X135674122Y-141976299D01*
X135674133Y-141976304D01*
X135909243Y-142057018D01*
X136154444Y-142097935D01*
X136403030Y-142097935D01*
X136648230Y-142057018D01*
X136883340Y-141976304D01*
X136883351Y-141976299D01*
X137101965Y-141857992D01*
X137101968Y-141857990D01*
X137148793Y-141821544D01*
X136448971Y-141121722D01*
X136491029Y-141110453D01*
X136616445Y-141038045D01*
X136718847Y-140935643D01*
X136791255Y-140810227D01*
X136802524Y-140768170D01*
X137502171Y-141467817D01*
X137602468Y-141314304D01*
X137702324Y-141086652D01*
X137763349Y-140845673D01*
X137763351Y-140845664D01*
X137783878Y-140597940D01*
X137783878Y-140597929D01*
X141273596Y-140597929D01*
X141273596Y-140597940D01*
X141294122Y-140845664D01*
X141294124Y-140845673D01*
X141355149Y-141086652D01*
X141455003Y-141314299D01*
X141555301Y-141467817D01*
X142254949Y-140768169D01*
X142266219Y-140810227D01*
X142338627Y-140935643D01*
X142441029Y-141038045D01*
X142566445Y-141110453D01*
X142608502Y-141121722D01*
X141908679Y-141821544D01*
X141955505Y-141857990D01*
X141955507Y-141857991D01*
X142174122Y-141976299D01*
X142174133Y-141976304D01*
X142409243Y-142057018D01*
X142654444Y-142097935D01*
X142903030Y-142097935D01*
X143148230Y-142057018D01*
X143383340Y-141976304D01*
X143383351Y-141976299D01*
X143601965Y-141857992D01*
X143601968Y-141857990D01*
X143648793Y-141821544D01*
X142948971Y-141121722D01*
X142991029Y-141110453D01*
X143116445Y-141038045D01*
X143218847Y-140935643D01*
X143291255Y-140810227D01*
X143302524Y-140768170D01*
X144002171Y-141467817D01*
X144102468Y-141314304D01*
X144202324Y-141086652D01*
X144263349Y-140845673D01*
X144263351Y-140845664D01*
X144283878Y-140597940D01*
X144283878Y-140597929D01*
X166280086Y-140597929D01*
X166280086Y-140597940D01*
X166300612Y-140845664D01*
X166300614Y-140845673D01*
X166361639Y-141086652D01*
X166461493Y-141314299D01*
X166561791Y-141467817D01*
X167261439Y-140768169D01*
X167272709Y-140810227D01*
X167345117Y-140935643D01*
X167447519Y-141038045D01*
X167572935Y-141110453D01*
X167614992Y-141121722D01*
X166915169Y-141821544D01*
X166961995Y-141857990D01*
X166961997Y-141857991D01*
X167180612Y-141976299D01*
X167180623Y-141976304D01*
X167415733Y-142057018D01*
X167660934Y-142097935D01*
X167909520Y-142097935D01*
X168154720Y-142057018D01*
X168389830Y-141976304D01*
X168389841Y-141976299D01*
X168608455Y-141857992D01*
X168608458Y-141857990D01*
X168655283Y-141821544D01*
X167955461Y-141121722D01*
X167997519Y-141110453D01*
X168122935Y-141038045D01*
X168225337Y-140935643D01*
X168297745Y-140810227D01*
X168309014Y-140768169D01*
X169008661Y-141467817D01*
X169108958Y-141314304D01*
X169208814Y-141086652D01*
X169269839Y-140845673D01*
X169269841Y-140845664D01*
X169290368Y-140597940D01*
X169290368Y-140597929D01*
X172780086Y-140597929D01*
X172780086Y-140597940D01*
X172800612Y-140845664D01*
X172800614Y-140845673D01*
X172861639Y-141086652D01*
X172961493Y-141314299D01*
X173061791Y-141467817D01*
X173761439Y-140768169D01*
X173772709Y-140810227D01*
X173845117Y-140935643D01*
X173947519Y-141038045D01*
X174072935Y-141110453D01*
X174114992Y-141121722D01*
X173415169Y-141821544D01*
X173461995Y-141857990D01*
X173461997Y-141857991D01*
X173680612Y-141976299D01*
X173680623Y-141976304D01*
X173915733Y-142057018D01*
X174160934Y-142097935D01*
X174409520Y-142097935D01*
X174654720Y-142057018D01*
X174889830Y-141976304D01*
X174889841Y-141976299D01*
X175108455Y-141857992D01*
X175108458Y-141857990D01*
X175155283Y-141821544D01*
X174455461Y-141121722D01*
X174497519Y-141110453D01*
X174622935Y-141038045D01*
X174725337Y-140935643D01*
X174797745Y-140810227D01*
X174809014Y-140768170D01*
X175508661Y-141467817D01*
X175608958Y-141314304D01*
X175708814Y-141086652D01*
X175769839Y-140845673D01*
X175769841Y-140845664D01*
X175790368Y-140597940D01*
X175790368Y-140597929D01*
X175769841Y-140350205D01*
X175769839Y-140350196D01*
X175708814Y-140109217D01*
X175608958Y-139881565D01*
X175508661Y-139728051D01*
X174809014Y-140427699D01*
X174797745Y-140385643D01*
X174725337Y-140260227D01*
X174622935Y-140157825D01*
X174497519Y-140085417D01*
X174455462Y-140074147D01*
X175155284Y-139374325D01*
X175155283Y-139374324D01*
X175108456Y-139337878D01*
X174889841Y-139219570D01*
X174889830Y-139219565D01*
X174654720Y-139138851D01*
X174409520Y-139097935D01*
X174160934Y-139097935D01*
X173915733Y-139138851D01*
X173680623Y-139219565D01*
X173680617Y-139219567D01*
X173461988Y-139337884D01*
X173415169Y-139374323D01*
X173415169Y-139374325D01*
X174114992Y-140074147D01*
X174072935Y-140085417D01*
X173947519Y-140157825D01*
X173845117Y-140260227D01*
X173772709Y-140385643D01*
X173761439Y-140427699D01*
X173061791Y-139728051D01*
X172961494Y-139881567D01*
X172861639Y-140109217D01*
X172800614Y-140350196D01*
X172800612Y-140350205D01*
X172780086Y-140597929D01*
X169290368Y-140597929D01*
X169269841Y-140350205D01*
X169269839Y-140350196D01*
X169208814Y-140109217D01*
X169108958Y-139881565D01*
X169008661Y-139728051D01*
X168309014Y-140427699D01*
X168297745Y-140385643D01*
X168225337Y-140260227D01*
X168122935Y-140157825D01*
X167997519Y-140085417D01*
X167955462Y-140074147D01*
X168655284Y-139374325D01*
X168655283Y-139374324D01*
X168608456Y-139337878D01*
X168389841Y-139219570D01*
X168389830Y-139219565D01*
X168154720Y-139138851D01*
X167909520Y-139097935D01*
X167660934Y-139097935D01*
X167415733Y-139138851D01*
X167180623Y-139219565D01*
X167180617Y-139219567D01*
X166961988Y-139337884D01*
X166915169Y-139374323D01*
X166915169Y-139374325D01*
X167614992Y-140074147D01*
X167572935Y-140085417D01*
X167447519Y-140157825D01*
X167345117Y-140260227D01*
X167272709Y-140385643D01*
X167261439Y-140427699D01*
X166561791Y-139728051D01*
X166461494Y-139881567D01*
X166361639Y-140109217D01*
X166300614Y-140350196D01*
X166300612Y-140350205D01*
X166280086Y-140597929D01*
X144283878Y-140597929D01*
X144263351Y-140350205D01*
X144263349Y-140350196D01*
X144202324Y-140109217D01*
X144102468Y-139881565D01*
X144002171Y-139728051D01*
X143302524Y-140427699D01*
X143291255Y-140385643D01*
X143218847Y-140260227D01*
X143116445Y-140157825D01*
X142991029Y-140085417D01*
X142948972Y-140074147D01*
X143648794Y-139374325D01*
X143648793Y-139374324D01*
X143601966Y-139337878D01*
X143383351Y-139219570D01*
X143383340Y-139219565D01*
X143148230Y-139138851D01*
X142903030Y-139097935D01*
X142654444Y-139097935D01*
X142409243Y-139138851D01*
X142174133Y-139219565D01*
X142174127Y-139219567D01*
X141955498Y-139337884D01*
X141908679Y-139374323D01*
X141908679Y-139374325D01*
X142608502Y-140074147D01*
X142566445Y-140085417D01*
X142441029Y-140157825D01*
X142338627Y-140260227D01*
X142266219Y-140385643D01*
X142254949Y-140427699D01*
X141555301Y-139728051D01*
X141455004Y-139881567D01*
X141355149Y-140109217D01*
X141294124Y-140350196D01*
X141294122Y-140350205D01*
X141273596Y-140597929D01*
X137783878Y-140597929D01*
X137763351Y-140350205D01*
X137763349Y-140350196D01*
X137702324Y-140109217D01*
X137602468Y-139881565D01*
X137502171Y-139728051D01*
X136802524Y-140427699D01*
X136791255Y-140385643D01*
X136718847Y-140260227D01*
X136616445Y-140157825D01*
X136491029Y-140085417D01*
X136448972Y-140074147D01*
X137148794Y-139374325D01*
X137148793Y-139374324D01*
X137101966Y-139337878D01*
X136883351Y-139219570D01*
X136883340Y-139219565D01*
X136648230Y-139138851D01*
X136403030Y-139097935D01*
X136154444Y-139097935D01*
X135909243Y-139138851D01*
X135674133Y-139219565D01*
X135674127Y-139219567D01*
X135455498Y-139337884D01*
X135408679Y-139374323D01*
X135408679Y-139374325D01*
X136108502Y-140074147D01*
X136066445Y-140085417D01*
X135941029Y-140157825D01*
X135838627Y-140260227D01*
X135766219Y-140385643D01*
X135754949Y-140427699D01*
X135055301Y-139728051D01*
X134955004Y-139881567D01*
X134855149Y-140109217D01*
X134794124Y-140350196D01*
X134794122Y-140350205D01*
X134773596Y-140597929D01*
X105489166Y-140597929D01*
X105489166Y-136097929D01*
X134773094Y-136097929D01*
X134773094Y-136097940D01*
X134793627Y-136345747D01*
X134793629Y-136345759D01*
X134854673Y-136586816D01*
X134954563Y-136814541D01*
X135090570Y-137022717D01*
X135090573Y-137022720D01*
X135258993Y-137205673D01*
X135455228Y-137358409D01*
X135673927Y-137476763D01*
X135909123Y-137557506D01*
X136154402Y-137598435D01*
X136403072Y-137598435D01*
X136648351Y-137557506D01*
X136883547Y-137476763D01*
X137102246Y-137358409D01*
X137298481Y-137205673D01*
X137466901Y-137022720D01*
X137602910Y-136814542D01*
X137702800Y-136586816D01*
X137763845Y-136345756D01*
X137769976Y-136271770D01*
X137784380Y-136097940D01*
X137784380Y-136097929D01*
X141273094Y-136097929D01*
X141273094Y-136097940D01*
X141293627Y-136345747D01*
X141293629Y-136345759D01*
X141354673Y-136586816D01*
X141454563Y-136814541D01*
X141590570Y-137022717D01*
X141590573Y-137022720D01*
X141758993Y-137205673D01*
X141955228Y-137358409D01*
X142173927Y-137476763D01*
X142409123Y-137557506D01*
X142654402Y-137598435D01*
X142903072Y-137598435D01*
X143148351Y-137557506D01*
X143383547Y-137476763D01*
X143602246Y-137358409D01*
X143798481Y-137205673D01*
X143966901Y-137022720D01*
X144102910Y-136814542D01*
X144102912Y-136814538D01*
X144110332Y-136797624D01*
X144155288Y-136744138D01*
X144222024Y-136723449D01*
X144223887Y-136723435D01*
X153450331Y-136723435D01*
X153510753Y-136711416D01*
X153571176Y-136699398D01*
X153571179Y-136699396D01*
X153571182Y-136699396D01*
X153604511Y-136685589D01*
X153604510Y-136685589D01*
X153604516Y-136685587D01*
X153685010Y-136652247D01*
X153736233Y-136618019D01*
X153736235Y-136618018D01*
X153748995Y-136609491D01*
X153787457Y-136583793D01*
X153874582Y-136496668D01*
X153874584Y-136496664D01*
X154099479Y-136271768D01*
X154160801Y-136238286D01*
X154187159Y-136235452D01*
X154246351Y-136235452D01*
X154246353Y-136235452D01*
X154431510Y-136196096D01*
X154604437Y-136119103D01*
X154757578Y-136007840D01*
X154757581Y-136007835D01*
X154762408Y-136003491D01*
X154763401Y-136004594D01*
X154816361Y-135971953D01*
X154886218Y-135973271D01*
X154921931Y-135991250D01*
X154975333Y-136030049D01*
X154975338Y-136030052D01*
X155148260Y-136107043D01*
X155148265Y-136107045D01*
X155333422Y-136146401D01*
X155392616Y-136146401D01*
X155459655Y-136166086D01*
X155480297Y-136182720D01*
X155791118Y-136493541D01*
X155791147Y-136493572D01*
X155881366Y-136583791D01*
X155881369Y-136583793D01*
X155932592Y-136618019D01*
X155983816Y-136652247D01*
X156064309Y-136685587D01*
X156097650Y-136699398D01*
X156158073Y-136711416D01*
X156218495Y-136723435D01*
X156218496Y-136723435D01*
X166340077Y-136723435D01*
X166407116Y-136743120D01*
X166452871Y-136795924D01*
X166453632Y-136797624D01*
X166461051Y-136814538D01*
X166597060Y-137022717D01*
X166597063Y-137022720D01*
X166765483Y-137205673D01*
X166961718Y-137358409D01*
X167180417Y-137476763D01*
X167415613Y-137557506D01*
X167660892Y-137598435D01*
X167909562Y-137598435D01*
X168154841Y-137557506D01*
X168390037Y-137476763D01*
X168608736Y-137358409D01*
X168804971Y-137205673D01*
X168973391Y-137022720D01*
X169109400Y-136814542D01*
X169209290Y-136586816D01*
X169270335Y-136345756D01*
X169276466Y-136271770D01*
X169290870Y-136097940D01*
X169290870Y-136097929D01*
X172779584Y-136097929D01*
X172779584Y-136097940D01*
X172800117Y-136345747D01*
X172800119Y-136345759D01*
X172861163Y-136586816D01*
X172961053Y-136814541D01*
X173097060Y-137022717D01*
X173097063Y-137022720D01*
X173265483Y-137205673D01*
X173461718Y-137358409D01*
X173680417Y-137476763D01*
X173915613Y-137557506D01*
X174160892Y-137598435D01*
X174409562Y-137598435D01*
X174654841Y-137557506D01*
X174890037Y-137476763D01*
X175108736Y-137358409D01*
X175304971Y-137205673D01*
X175473391Y-137022720D01*
X175609400Y-136814542D01*
X175709290Y-136586816D01*
X175770335Y-136345756D01*
X175776466Y-136271770D01*
X175790870Y-136097940D01*
X175790870Y-136097929D01*
X175770336Y-135850122D01*
X175770334Y-135850110D01*
X175709290Y-135609053D01*
X175609400Y-135381328D01*
X175473393Y-135173152D01*
X175367061Y-135057645D01*
X175304971Y-134990197D01*
X175108736Y-134837461D01*
X175108734Y-134837460D01*
X175108733Y-134837459D01*
X174890038Y-134719107D01*
X174890029Y-134719104D01*
X174654843Y-134638364D01*
X174409562Y-134597435D01*
X174160892Y-134597435D01*
X173915610Y-134638364D01*
X173680424Y-134719104D01*
X173680415Y-134719107D01*
X173461720Y-134837459D01*
X173265484Y-134990196D01*
X173097060Y-135173152D01*
X172961053Y-135381328D01*
X172861163Y-135609053D01*
X172800119Y-135850110D01*
X172800117Y-135850122D01*
X172779584Y-136097929D01*
X169290870Y-136097929D01*
X169270336Y-135850122D01*
X169270334Y-135850110D01*
X169209290Y-135609053D01*
X169109400Y-135381328D01*
X168973393Y-135173152D01*
X168867061Y-135057645D01*
X168804971Y-134990197D01*
X168608736Y-134837461D01*
X168608734Y-134837460D01*
X168608733Y-134837459D01*
X168390038Y-134719107D01*
X168390029Y-134719104D01*
X168154843Y-134638364D01*
X167909562Y-134597435D01*
X167660892Y-134597435D01*
X167415610Y-134638364D01*
X167180424Y-134719104D01*
X167180415Y-134719107D01*
X166961720Y-134837459D01*
X166765484Y-134990196D01*
X166597060Y-135173152D01*
X166461051Y-135381331D01*
X166453632Y-135398246D01*
X166408676Y-135451732D01*
X166341940Y-135472421D01*
X166340077Y-135472435D01*
X156590554Y-135472435D01*
X156523515Y-135452750D01*
X156502873Y-135436116D01*
X156367028Y-135300271D01*
X156333543Y-135238948D01*
X156331391Y-135225572D01*
X156313742Y-135057645D01*
X156255247Y-134877617D01*
X156160601Y-134713685D01*
X156033939Y-134573013D01*
X156033938Y-134573012D01*
X155880802Y-134461752D01*
X155880797Y-134461749D01*
X155707875Y-134384758D01*
X155707870Y-134384756D01*
X155562069Y-134353766D01*
X155522714Y-134345401D01*
X155333422Y-134345401D01*
X155300965Y-134352299D01*
X155148265Y-134384756D01*
X155148260Y-134384758D01*
X154975338Y-134461749D01*
X154975333Y-134461752D01*
X154822199Y-134573011D01*
X154817368Y-134577361D01*
X154816379Y-134576262D01*
X154763381Y-134608908D01*
X154693524Y-134607571D01*
X154657843Y-134589602D01*
X154604441Y-134550803D01*
X154604436Y-134550800D01*
X154431514Y-134473809D01*
X154431509Y-134473807D01*
X154285708Y-134442817D01*
X154246353Y-134434452D01*
X154057061Y-134434452D01*
X154024604Y-134441350D01*
X153871904Y-134473807D01*
X153871899Y-134473809D01*
X153698977Y-134550800D01*
X153698972Y-134550803D01*
X153545836Y-134662063D01*
X153419173Y-134802737D01*
X153324528Y-134966667D01*
X153324525Y-134966674D01*
X153266034Y-135146692D01*
X153266033Y-135146696D01*
X153253622Y-135264786D01*
X153248386Y-135314602D01*
X153221801Y-135379216D01*
X153212747Y-135389320D01*
X153165953Y-135436115D01*
X153104630Y-135469601D01*
X153078271Y-135472435D01*
X144223887Y-135472435D01*
X144156848Y-135452750D01*
X144111093Y-135399946D01*
X144110332Y-135398246D01*
X144102912Y-135381331D01*
X143966903Y-135173152D01*
X143860571Y-135057645D01*
X143798481Y-134990197D01*
X143602246Y-134837461D01*
X143602244Y-134837460D01*
X143602243Y-134837459D01*
X143383548Y-134719107D01*
X143383539Y-134719104D01*
X143148353Y-134638364D01*
X142903072Y-134597435D01*
X142654402Y-134597435D01*
X142409120Y-134638364D01*
X142173934Y-134719104D01*
X142173925Y-134719107D01*
X141955230Y-134837459D01*
X141758994Y-134990196D01*
X141590570Y-135173152D01*
X141454563Y-135381328D01*
X141354673Y-135609053D01*
X141293629Y-135850110D01*
X141293627Y-135850122D01*
X141273094Y-136097929D01*
X137784380Y-136097929D01*
X137763846Y-135850122D01*
X137763844Y-135850110D01*
X137702800Y-135609053D01*
X137602910Y-135381328D01*
X137466903Y-135173152D01*
X137360571Y-135057645D01*
X137298481Y-134990197D01*
X137102246Y-134837461D01*
X137102244Y-134837460D01*
X137102243Y-134837459D01*
X136883548Y-134719107D01*
X136883539Y-134719104D01*
X136648353Y-134638364D01*
X136403072Y-134597435D01*
X136154402Y-134597435D01*
X135909120Y-134638364D01*
X135673934Y-134719104D01*
X135673925Y-134719107D01*
X135455230Y-134837459D01*
X135258994Y-134990196D01*
X135090570Y-135173152D01*
X134954563Y-135381328D01*
X134854673Y-135609053D01*
X134793629Y-135850110D01*
X134793627Y-135850122D01*
X134773094Y-136097929D01*
X105489166Y-136097929D01*
X105489166Y-130355375D01*
X137840294Y-130355375D01*
X137860080Y-130543631D01*
X137860081Y-130543634D01*
X137918572Y-130723652D01*
X137918575Y-130723659D01*
X138013221Y-130887591D01*
X138055562Y-130934615D01*
X138139883Y-131028263D01*
X138293019Y-131139523D01*
X138293024Y-131139526D01*
X138465946Y-131216517D01*
X138465951Y-131216519D01*
X138651108Y-131255875D01*
X138651109Y-131255875D01*
X138840398Y-131255875D01*
X138840400Y-131255875D01*
X139025557Y-131216519D01*
X139198484Y-131139526D01*
X139201690Y-131137196D01*
X139217315Y-131125845D01*
X139283121Y-131102365D01*
X139290200Y-131102163D01*
X160797348Y-131102163D01*
X160894890Y-131082759D01*
X160942341Y-131073321D01*
X161051121Y-131028263D01*
X161078919Y-131016749D01*
X161078920Y-131016748D01*
X161078923Y-131016747D01*
X161130583Y-130982229D01*
X161201844Y-130934615D01*
X161585598Y-130550859D01*
X161646921Y-130517375D01*
X161716612Y-130522359D01*
X161760960Y-130550860D01*
X162087793Y-130877693D01*
X162141591Y-130931491D01*
X162192329Y-130982229D01*
X162315242Y-131064357D01*
X162315255Y-131064364D01*
X162345841Y-131077033D01*
X162345842Y-131077033D01*
X162451832Y-131120936D01*
X162567985Y-131144040D01*
X162587212Y-131147864D01*
X162596825Y-131149777D01*
X162596826Y-131149777D01*
X162596827Y-131149777D01*
X162744662Y-131149777D01*
X171339278Y-131149777D01*
X171406317Y-131169462D01*
X171412163Y-131173459D01*
X171425880Y-131183425D01*
X171425885Y-131183428D01*
X171598807Y-131260419D01*
X171598812Y-131260421D01*
X171783969Y-131299777D01*
X171783970Y-131299777D01*
X171973259Y-131299777D01*
X171973261Y-131299777D01*
X172158418Y-131260421D01*
X172331345Y-131183428D01*
X172484486Y-131072165D01*
X172611148Y-130931493D01*
X172705794Y-130767561D01*
X172764289Y-130587533D01*
X172784075Y-130399277D01*
X172764289Y-130211021D01*
X172705794Y-130030993D01*
X172611148Y-129867061D01*
X172484486Y-129726389D01*
X172484485Y-129726388D01*
X172331349Y-129615128D01*
X172331344Y-129615125D01*
X172158422Y-129538134D01*
X172158417Y-129538132D01*
X172012616Y-129507142D01*
X171973261Y-129498777D01*
X171783969Y-129498777D01*
X171751512Y-129505675D01*
X171598812Y-129538132D01*
X171598807Y-129538134D01*
X171425885Y-129615125D01*
X171425880Y-129615128D01*
X171412163Y-129625095D01*
X171346357Y-129648575D01*
X171339278Y-129648777D01*
X163032973Y-129648777D01*
X162965934Y-129629092D01*
X162945292Y-129612458D01*
X162543763Y-129210928D01*
X162510278Y-129149605D01*
X162513512Y-129084931D01*
X162558953Y-128945082D01*
X162578739Y-128756826D01*
X162558953Y-128568570D01*
X162500458Y-128388542D01*
X162405812Y-128224610D01*
X162279150Y-128083938D01*
X162279149Y-128083937D01*
X162126013Y-127972677D01*
X162126008Y-127972674D01*
X161953086Y-127895683D01*
X161953081Y-127895681D01*
X161807280Y-127864691D01*
X161767925Y-127856326D01*
X161578633Y-127856326D01*
X161546176Y-127863224D01*
X161393476Y-127895681D01*
X161393471Y-127895683D01*
X161220549Y-127972674D01*
X161220544Y-127972677D01*
X161067408Y-128083937D01*
X160940745Y-128224611D01*
X160846100Y-128388541D01*
X160846097Y-128388548D01*
X160787606Y-128568566D01*
X160787605Y-128568570D01*
X160767819Y-128756826D01*
X160787605Y-128945082D01*
X160787606Y-128945085D01*
X160833044Y-129084929D01*
X160835039Y-129154770D01*
X160802794Y-129210928D01*
X160448879Y-129564844D01*
X160387556Y-129598329D01*
X160361198Y-129601163D01*
X139279982Y-129601163D01*
X139212943Y-129581478D01*
X139207105Y-129577487D01*
X139198484Y-129571224D01*
X139198482Y-129571223D01*
X139198483Y-129571223D01*
X139025561Y-129494232D01*
X139025556Y-129494230D01*
X138879755Y-129463240D01*
X138840400Y-129454875D01*
X138651108Y-129454875D01*
X138618651Y-129461773D01*
X138465951Y-129494230D01*
X138465946Y-129494232D01*
X138293024Y-129571223D01*
X138293019Y-129571226D01*
X138139883Y-129682486D01*
X138013220Y-129823160D01*
X137918575Y-129987090D01*
X137918572Y-129987097D01*
X137860081Y-130167115D01*
X137860080Y-130167119D01*
X137840294Y-130355375D01*
X105489166Y-130355375D01*
X105489166Y-124442677D01*
X189248827Y-124442677D01*
X189248827Y-127071108D01*
X189248828Y-127071123D01*
X189259231Y-127203313D01*
X189259232Y-127203320D01*
X189314229Y-127421578D01*
X189314230Y-127421581D01*
X189407318Y-127626522D01*
X189407324Y-127626532D01*
X189535501Y-127811545D01*
X189535505Y-127811550D01*
X189535508Y-127811554D01*
X189694673Y-127970719D01*
X189694677Y-127970722D01*
X189694681Y-127970725D01*
X189697496Y-127972675D01*
X189879701Y-128098907D01*
X190084644Y-128191996D01*
X190084648Y-128191997D01*
X190302906Y-128246994D01*
X190302908Y-128246994D01*
X190302915Y-128246996D01*
X190435110Y-128257400D01*
X192063543Y-128257399D01*
X192195739Y-128246996D01*
X192414010Y-128191996D01*
X192618953Y-128098907D01*
X192803981Y-127970719D01*
X192963146Y-127811554D01*
X193091334Y-127626526D01*
X193184423Y-127421583D01*
X193239423Y-127203312D01*
X193249827Y-127071117D01*
X193249826Y-124442684D01*
X193249825Y-124442677D01*
X198048827Y-124442677D01*
X198048827Y-127071108D01*
X198048828Y-127071123D01*
X198059231Y-127203313D01*
X198059232Y-127203320D01*
X198114229Y-127421578D01*
X198114230Y-127421581D01*
X198207318Y-127626522D01*
X198207324Y-127626532D01*
X198335501Y-127811545D01*
X198335505Y-127811550D01*
X198335508Y-127811554D01*
X198494673Y-127970719D01*
X198494677Y-127970722D01*
X198494681Y-127970725D01*
X198497496Y-127972675D01*
X198679701Y-128098907D01*
X198884644Y-128191996D01*
X198884648Y-128191997D01*
X199102906Y-128246994D01*
X199102908Y-128246994D01*
X199102915Y-128246996D01*
X199235110Y-128257400D01*
X200863543Y-128257399D01*
X200995739Y-128246996D01*
X201214010Y-128191996D01*
X201418953Y-128098907D01*
X201603981Y-127970719D01*
X201763146Y-127811554D01*
X201891334Y-127626526D01*
X201984423Y-127421583D01*
X202039423Y-127203312D01*
X202049827Y-127071117D01*
X202049826Y-124442684D01*
X202039423Y-124310488D01*
X201984423Y-124092217D01*
X201891334Y-123887274D01*
X201859624Y-123841503D01*
X201763152Y-123702254D01*
X201763149Y-123702250D01*
X201763146Y-123702246D01*
X201603981Y-123543081D01*
X201603977Y-123543078D01*
X201603972Y-123543074D01*
X201418959Y-123414897D01*
X201418957Y-123414895D01*
X201418953Y-123414893D01*
X201214010Y-123321804D01*
X201214008Y-123321803D01*
X201214005Y-123321802D01*
X200995747Y-123266805D01*
X200995740Y-123266804D01*
X200951674Y-123263336D01*
X200863544Y-123256400D01*
X200863542Y-123256400D01*
X199235118Y-123256400D01*
X199235103Y-123256401D01*
X199102913Y-123266804D01*
X199102906Y-123266805D01*
X198884648Y-123321802D01*
X198884645Y-123321803D01*
X198679704Y-123414891D01*
X198679694Y-123414897D01*
X198494681Y-123543074D01*
X198494669Y-123543084D01*
X198335511Y-123702242D01*
X198335501Y-123702254D01*
X198207324Y-123887267D01*
X198207318Y-123887277D01*
X198114230Y-124092218D01*
X198114229Y-124092221D01*
X198059232Y-124310479D01*
X198059231Y-124310486D01*
X198048827Y-124442677D01*
X193249825Y-124442677D01*
X193239423Y-124310488D01*
X193184423Y-124092217D01*
X193091334Y-123887274D01*
X193059624Y-123841503D01*
X192963152Y-123702254D01*
X192963149Y-123702250D01*
X192963146Y-123702246D01*
X192803981Y-123543081D01*
X192803977Y-123543078D01*
X192803972Y-123543074D01*
X192618959Y-123414897D01*
X192618957Y-123414895D01*
X192618953Y-123414893D01*
X192414010Y-123321804D01*
X192414008Y-123321803D01*
X192414005Y-123321802D01*
X192195747Y-123266805D01*
X192195740Y-123266804D01*
X192151674Y-123263336D01*
X192063544Y-123256400D01*
X192063542Y-123256400D01*
X190435118Y-123256400D01*
X190435103Y-123256401D01*
X190302913Y-123266804D01*
X190302906Y-123266805D01*
X190084648Y-123321802D01*
X190084645Y-123321803D01*
X189879704Y-123414891D01*
X189879694Y-123414897D01*
X189694681Y-123543074D01*
X189694669Y-123543084D01*
X189535511Y-123702242D01*
X189535501Y-123702254D01*
X189407324Y-123887267D01*
X189407318Y-123887277D01*
X189314230Y-124092218D01*
X189314229Y-124092221D01*
X189259232Y-124310479D01*
X189259231Y-124310486D01*
X189248827Y-124442677D01*
X105489166Y-124442677D01*
X105489166Y-114963886D01*
X110923330Y-114963886D01*
X110923330Y-114963887D01*
X110943925Y-115199290D01*
X110943927Y-115199300D01*
X111005083Y-115427542D01*
X111005085Y-115427546D01*
X111005086Y-115427550D01*
X111104954Y-115641717D01*
X111104956Y-115641721D01*
X111240490Y-115835282D01*
X111240495Y-115835289D01*
X111407586Y-116002380D01*
X111407592Y-116002385D01*
X111593147Y-116132312D01*
X111636772Y-116186889D01*
X111643966Y-116256387D01*
X111612443Y-116318742D01*
X111593147Y-116335462D01*
X111407586Y-116465392D01*
X111240494Y-116632484D01*
X111104954Y-116826056D01*
X111104953Y-116826058D01*
X111005087Y-117040222D01*
X111005083Y-117040231D01*
X110943927Y-117268473D01*
X110943925Y-117268483D01*
X110923330Y-117503886D01*
X110923330Y-117503887D01*
X110943925Y-117739290D01*
X110943927Y-117739300D01*
X111005083Y-117967542D01*
X111005085Y-117967546D01*
X111005086Y-117967550D01*
X111052823Y-118069922D01*
X111104954Y-118181717D01*
X111104956Y-118181721D01*
X111240490Y-118375282D01*
X111240495Y-118375289D01*
X111407586Y-118542380D01*
X111407592Y-118542385D01*
X111593147Y-118672312D01*
X111636772Y-118726889D01*
X111643966Y-118796387D01*
X111612443Y-118858742D01*
X111593147Y-118875462D01*
X111407586Y-119005392D01*
X111240494Y-119172484D01*
X111104954Y-119366056D01*
X111104953Y-119366058D01*
X111005087Y-119580222D01*
X111005083Y-119580231D01*
X110943927Y-119808473D01*
X110943925Y-119808483D01*
X110923330Y-120043886D01*
X110923330Y-120043887D01*
X110943925Y-120279290D01*
X110943927Y-120279300D01*
X111005083Y-120507542D01*
X111005085Y-120507546D01*
X111005086Y-120507550D01*
X111083670Y-120676073D01*
X111104954Y-120721717D01*
X111104956Y-120721721D01*
X111240490Y-120915282D01*
X111240495Y-120915289D01*
X111362807Y-121037601D01*
X111396292Y-121098924D01*
X111391308Y-121168616D01*
X111349436Y-121224549D01*
X111318460Y-121241464D01*
X111186901Y-121290533D01*
X111186895Y-121290536D01*
X111071801Y-121376696D01*
X111071798Y-121376699D01*
X110985638Y-121491793D01*
X110985634Y-121491800D01*
X110935392Y-121626507D01*
X110935390Y-121626514D01*
X110928989Y-121686042D01*
X110928989Y-122333887D01*
X111845977Y-122333887D01*
X111813064Y-122390894D01*
X111778989Y-122518061D01*
X111778989Y-122649713D01*
X111813064Y-122776880D01*
X111845977Y-122833887D01*
X110928989Y-122833887D01*
X110928989Y-123481731D01*
X110935390Y-123541259D01*
X110935392Y-123541266D01*
X110985634Y-123675973D01*
X110985638Y-123675980D01*
X111071798Y-123791074D01*
X111071801Y-123791077D01*
X111186895Y-123877237D01*
X111186902Y-123877241D01*
X111321609Y-123927483D01*
X111321616Y-123927485D01*
X111381144Y-123933886D01*
X111381161Y-123933887D01*
X112028989Y-123933887D01*
X112028989Y-123016899D01*
X112085996Y-123049812D01*
X112213163Y-123083887D01*
X112344815Y-123083887D01*
X112471982Y-123049812D01*
X112528989Y-123016899D01*
X112528989Y-123933887D01*
X113176817Y-123933887D01*
X113176833Y-123933886D01*
X113236361Y-123927485D01*
X113236368Y-123927483D01*
X113371075Y-123877241D01*
X113371082Y-123877237D01*
X113486176Y-123791077D01*
X113486179Y-123791074D01*
X113572339Y-123675980D01*
X113572343Y-123675973D01*
X113622585Y-123541266D01*
X113622587Y-123541259D01*
X113628988Y-123481731D01*
X113628989Y-123481714D01*
X113628989Y-122833887D01*
X112712001Y-122833887D01*
X112744914Y-122776880D01*
X112778989Y-122649713D01*
X112778989Y-122518061D01*
X112744914Y-122390894D01*
X112712001Y-122333887D01*
X113628989Y-122333887D01*
X113628989Y-121686059D01*
X113628988Y-121686042D01*
X113622587Y-121626514D01*
X113622585Y-121626507D01*
X113572343Y-121491800D01*
X113572339Y-121491793D01*
X113486179Y-121376699D01*
X113486176Y-121376696D01*
X113371082Y-121290536D01*
X113371077Y-121290533D01*
X113239517Y-121241464D01*
X113183584Y-121199592D01*
X113159167Y-121134128D01*
X113174019Y-121065855D01*
X113195164Y-121037607D01*
X113317484Y-120915288D01*
X113365116Y-120847263D01*
X113419693Y-120803638D01*
X113466690Y-120794387D01*
X161209714Y-120794387D01*
X161307256Y-120774983D01*
X161354707Y-120765545D01*
X161491289Y-120708971D01*
X161540523Y-120676073D01*
X161614210Y-120626839D01*
X163064569Y-119176478D01*
X163125890Y-119142995D01*
X163126246Y-119142917D01*
X163191601Y-119129027D01*
X163364528Y-119052034D01*
X163517669Y-118940771D01*
X163644331Y-118800099D01*
X163669276Y-118756893D01*
X191744027Y-118756893D01*
X191744027Y-118756906D01*
X191763191Y-118988197D01*
X191763193Y-118988208D01*
X191820169Y-119213200D01*
X191913402Y-119425748D01*
X192040343Y-119620047D01*
X192040346Y-119620051D01*
X192040348Y-119620053D01*
X192197543Y-119790813D01*
X192197546Y-119790815D01*
X192197549Y-119790818D01*
X192380692Y-119933364D01*
X192380698Y-119933368D01*
X192380701Y-119933370D01*
X192584824Y-120043836D01*
X192698814Y-120082968D01*
X192804342Y-120119197D01*
X192804344Y-120119197D01*
X192804346Y-120119198D01*
X193033278Y-120157400D01*
X193033279Y-120157400D01*
X193265375Y-120157400D01*
X193265376Y-120157400D01*
X193494308Y-120119198D01*
X193713830Y-120043836D01*
X193917953Y-119933370D01*
X194101111Y-119790813D01*
X194258306Y-119620053D01*
X194295518Y-119563096D01*
X194348664Y-119517739D01*
X194417896Y-119508315D01*
X194481231Y-119537817D01*
X194503136Y-119563096D01*
X194540343Y-119620047D01*
X194540346Y-119620051D01*
X194540348Y-119620053D01*
X194697543Y-119790813D01*
X194697546Y-119790815D01*
X194697549Y-119790818D01*
X194880692Y-119933364D01*
X194880698Y-119933368D01*
X194880701Y-119933370D01*
X195084824Y-120043836D01*
X195198814Y-120082968D01*
X195304342Y-120119197D01*
X195304344Y-120119197D01*
X195304346Y-120119198D01*
X195533278Y-120157400D01*
X195533279Y-120157400D01*
X195765375Y-120157400D01*
X195765376Y-120157400D01*
X195994308Y-120119198D01*
X196213830Y-120043836D01*
X196417953Y-119933370D01*
X196594890Y-119795654D01*
X196659883Y-119770012D01*
X196728423Y-119783578D01*
X196778748Y-119832047D01*
X196787234Y-119850175D01*
X196805529Y-119899228D01*
X196805533Y-119899235D01*
X196891779Y-120014444D01*
X196891782Y-120014447D01*
X197006991Y-120100693D01*
X197006998Y-120100697D01*
X197141844Y-120150991D01*
X197141843Y-120150991D01*
X197148771Y-120151735D01*
X197201454Y-120157400D01*
X199097199Y-120157399D01*
X199156810Y-120150991D01*
X199291658Y-120100696D01*
X199406873Y-120014446D01*
X199493123Y-119899231D01*
X199543418Y-119764383D01*
X199549827Y-119704773D01*
X199549826Y-117809028D01*
X199543418Y-117749417D01*
X199541388Y-117743975D01*
X199493124Y-117614571D01*
X199493120Y-117614564D01*
X199406874Y-117499355D01*
X199406871Y-117499352D01*
X199291662Y-117413106D01*
X199291655Y-117413102D01*
X199156809Y-117362808D01*
X199156810Y-117362808D01*
X199097210Y-117356401D01*
X199097208Y-117356400D01*
X199097200Y-117356400D01*
X199097191Y-117356400D01*
X197201456Y-117356400D01*
X197201450Y-117356401D01*
X197141843Y-117362808D01*
X197006998Y-117413102D01*
X197006991Y-117413106D01*
X196891782Y-117499352D01*
X196891779Y-117499355D01*
X196805533Y-117614564D01*
X196805529Y-117614571D01*
X196787234Y-117663624D01*
X196745362Y-117719558D01*
X196679898Y-117743975D01*
X196611625Y-117729123D01*
X196594890Y-117718145D01*
X196490006Y-117636511D01*
X196417953Y-117580430D01*
X196324297Y-117529745D01*
X196213831Y-117469964D01*
X196213822Y-117469961D01*
X195994311Y-117394602D01*
X195803777Y-117362808D01*
X195765376Y-117356400D01*
X195533278Y-117356400D01*
X195494877Y-117362808D01*
X195304342Y-117394602D01*
X195084831Y-117469961D01*
X195084822Y-117469964D01*
X194880698Y-117580431D01*
X194880692Y-117580435D01*
X194697549Y-117722981D01*
X194697546Y-117722984D01*
X194697543Y-117722986D01*
X194697543Y-117722987D01*
X194542117Y-117891826D01*
X194540342Y-117893754D01*
X194503135Y-117950704D01*
X194449989Y-117996061D01*
X194380757Y-118005484D01*
X194317422Y-117975982D01*
X194295519Y-117950704D01*
X194258311Y-117893754D01*
X194258309Y-117893752D01*
X194258306Y-117893747D01*
X194101111Y-117722987D01*
X194101106Y-117722983D01*
X194101104Y-117722981D01*
X193917961Y-117580435D01*
X193917955Y-117580431D01*
X193713831Y-117469964D01*
X193713822Y-117469961D01*
X193494311Y-117394602D01*
X193303777Y-117362808D01*
X193265376Y-117356400D01*
X193033278Y-117356400D01*
X192994877Y-117362808D01*
X192804342Y-117394602D01*
X192584831Y-117469961D01*
X192584822Y-117469964D01*
X192380698Y-117580431D01*
X192380692Y-117580435D01*
X192197549Y-117722981D01*
X192197546Y-117722984D01*
X192197543Y-117722986D01*
X192197543Y-117722987D01*
X192173213Y-117749417D01*
X192040343Y-117893752D01*
X191913402Y-118088051D01*
X191820169Y-118300599D01*
X191763193Y-118525591D01*
X191763191Y-118525602D01*
X191744027Y-118756893D01*
X163669276Y-118756893D01*
X163738977Y-118636167D01*
X163797472Y-118456139D01*
X163817258Y-118267883D01*
X163797472Y-118079627D01*
X163738977Y-117899599D01*
X163644331Y-117735667D01*
X163517669Y-117594995D01*
X163497629Y-117580435D01*
X163364532Y-117483734D01*
X163364527Y-117483731D01*
X163191605Y-117406740D01*
X163191600Y-117406738D01*
X163045799Y-117375748D01*
X163006444Y-117367383D01*
X162817152Y-117367383D01*
X162784695Y-117374281D01*
X162631995Y-117406738D01*
X162631990Y-117406740D01*
X162459068Y-117483731D01*
X162459063Y-117483734D01*
X162305927Y-117594994D01*
X162179264Y-117735668D01*
X162084619Y-117899598D01*
X162084617Y-117899602D01*
X162029277Y-118069922D01*
X161999027Y-118119284D01*
X160861245Y-119257068D01*
X160799922Y-119290553D01*
X160773564Y-119293387D01*
X158410519Y-119293387D01*
X158343480Y-119273702D01*
X158297725Y-119220898D01*
X158287781Y-119151740D01*
X158316806Y-119088184D01*
X158341618Y-119066291D01*
X158355382Y-119057095D01*
X158362957Y-119052034D01*
X158368144Y-119048567D01*
X158406606Y-119022869D01*
X158493731Y-118935744D01*
X158493732Y-118935742D01*
X158500798Y-118928676D01*
X158500800Y-118928672D01*
X159157800Y-118271674D01*
X159219123Y-118238189D01*
X159245481Y-118235355D01*
X159304673Y-118235355D01*
X159304675Y-118235355D01*
X159489832Y-118195999D01*
X159662759Y-118119006D01*
X159815900Y-118007743D01*
X159942562Y-117867071D01*
X160037208Y-117703139D01*
X160095703Y-117523111D01*
X160115489Y-117334855D01*
X160095703Y-117146599D01*
X160037208Y-116966571D01*
X159942562Y-116802639D01*
X159815900Y-116661967D01*
X159775323Y-116632486D01*
X159662763Y-116550706D01*
X159662758Y-116550703D01*
X159489836Y-116473712D01*
X159489831Y-116473710D01*
X159344030Y-116442720D01*
X159304675Y-116434355D01*
X159115383Y-116434355D01*
X159082926Y-116441253D01*
X158930226Y-116473710D01*
X158930221Y-116473712D01*
X158757299Y-116550703D01*
X158757294Y-116550706D01*
X158604158Y-116661966D01*
X158477495Y-116802640D01*
X158382850Y-116966570D01*
X158382847Y-116966577D01*
X158324356Y-117146595D01*
X158324355Y-117146599D01*
X158322405Y-117165153D01*
X158306707Y-117314506D01*
X158280122Y-117379121D01*
X158271067Y-117389225D01*
X157785102Y-117875192D01*
X157723779Y-117908677D01*
X157697421Y-117911511D01*
X128657733Y-117911511D01*
X128590694Y-117891826D01*
X128565585Y-117870485D01*
X128559858Y-117864125D01*
X128559854Y-117864121D01*
X128406719Y-117752862D01*
X128406714Y-117752859D01*
X128233792Y-117675868D01*
X128233787Y-117675866D01*
X128087986Y-117644876D01*
X128048631Y-117636511D01*
X127859339Y-117636511D01*
X127826882Y-117643409D01*
X127674182Y-117675866D01*
X127674177Y-117675868D01*
X127501255Y-117752859D01*
X127501250Y-117752862D01*
X127348114Y-117864122D01*
X127221451Y-118004796D01*
X127126806Y-118168726D01*
X127126803Y-118168733D01*
X127068312Y-118348751D01*
X127068311Y-118348755D01*
X127048525Y-118537011D01*
X127068311Y-118725267D01*
X127068312Y-118725270D01*
X127126803Y-118905288D01*
X127126806Y-118905295D01*
X127221451Y-119069226D01*
X127236928Y-119086415D01*
X127267158Y-119149407D01*
X127258532Y-119218742D01*
X127213791Y-119272408D01*
X127147138Y-119293365D01*
X127144778Y-119293387D01*
X113466690Y-119293387D01*
X113399651Y-119273702D01*
X113365115Y-119240510D01*
X113317483Y-119172484D01*
X113150391Y-119005393D01*
X113150385Y-119005388D01*
X112964831Y-118875462D01*
X112921206Y-118820885D01*
X112914012Y-118751387D01*
X112945535Y-118689032D01*
X112964831Y-118672312D01*
X113016461Y-118636160D01*
X113150390Y-118542382D01*
X113317484Y-118375288D01*
X113453024Y-118181717D01*
X113552892Y-117967550D01*
X113614052Y-117739295D01*
X113634648Y-117503887D01*
X113634251Y-117499355D01*
X113630528Y-117456805D01*
X113614052Y-117268479D01*
X113554665Y-117046840D01*
X113552894Y-117040231D01*
X113552893Y-117040230D01*
X113552892Y-117040224D01*
X113453024Y-116826058D01*
X113317484Y-116632486D01*
X113317483Y-116632484D01*
X113150391Y-116465393D01*
X113150385Y-116465388D01*
X112964831Y-116335462D01*
X112921206Y-116280885D01*
X112914012Y-116211387D01*
X112945535Y-116149032D01*
X112964831Y-116132312D01*
X113104502Y-116034513D01*
X113150390Y-116002382D01*
X113317484Y-115835288D01*
X113453024Y-115641717D01*
X113552892Y-115427550D01*
X113614052Y-115199295D01*
X113634648Y-114963887D01*
X113618818Y-114782957D01*
X126201329Y-114782957D01*
X126221115Y-114971213D01*
X126221116Y-114971216D01*
X126279607Y-115151234D01*
X126279610Y-115151241D01*
X126374256Y-115315173D01*
X126402620Y-115346674D01*
X126500918Y-115455845D01*
X126654054Y-115567105D01*
X126654059Y-115567108D01*
X126826981Y-115644099D01*
X126826986Y-115644101D01*
X127012143Y-115683457D01*
X127012144Y-115683457D01*
X127201433Y-115683457D01*
X127201435Y-115683457D01*
X127386592Y-115644101D01*
X127559519Y-115567108D01*
X127712660Y-115455845D01*
X127839322Y-115315173D01*
X127933968Y-115151241D01*
X127992463Y-114971213D01*
X128012249Y-114782957D01*
X128006794Y-114731061D01*
X128015554Y-114670650D01*
X128024425Y-114649235D01*
X128024425Y-114649232D01*
X128025134Y-114647522D01*
X128052010Y-114607300D01*
X128572528Y-114086784D01*
X128633851Y-114053299D01*
X128660209Y-114050465D01*
X136074167Y-114050465D01*
X136141206Y-114070150D01*
X136186961Y-114122954D01*
X136196905Y-114192112D01*
X136167880Y-114255668D01*
X136109102Y-114293442D01*
X136094577Y-114296774D01*
X135909243Y-114327700D01*
X135674133Y-114408414D01*
X135674127Y-114408416D01*
X135455498Y-114526733D01*
X135408679Y-114563172D01*
X135408679Y-114563174D01*
X136108502Y-115262996D01*
X136066445Y-115274266D01*
X135941029Y-115346674D01*
X135838627Y-115449076D01*
X135766219Y-115574492D01*
X135754949Y-115616548D01*
X135055301Y-114916900D01*
X134955004Y-115070416D01*
X134855149Y-115298066D01*
X134794124Y-115539045D01*
X134794122Y-115539054D01*
X134773596Y-115786778D01*
X134773596Y-115786789D01*
X134794122Y-116034513D01*
X134794124Y-116034522D01*
X134855149Y-116275501D01*
X134955003Y-116503148D01*
X135055301Y-116656666D01*
X135754949Y-115957018D01*
X135766219Y-115999076D01*
X135838627Y-116124492D01*
X135941029Y-116226894D01*
X136066445Y-116299302D01*
X136108502Y-116310571D01*
X135408679Y-117010393D01*
X135455505Y-117046839D01*
X135455507Y-117046840D01*
X135674122Y-117165148D01*
X135674133Y-117165153D01*
X135909243Y-117245867D01*
X136154444Y-117286784D01*
X136403030Y-117286784D01*
X136648230Y-117245867D01*
X136883340Y-117165153D01*
X136883351Y-117165148D01*
X137101965Y-117046841D01*
X137101968Y-117046839D01*
X137148793Y-117010393D01*
X136448971Y-116310571D01*
X136491029Y-116299302D01*
X136616445Y-116226894D01*
X136718847Y-116124492D01*
X136791255Y-115999076D01*
X136802524Y-115957019D01*
X137502171Y-116656666D01*
X137602468Y-116503153D01*
X137702324Y-116275501D01*
X137763349Y-116034522D01*
X137763351Y-116034513D01*
X137783878Y-115786789D01*
X137783878Y-115786778D01*
X137763351Y-115539054D01*
X137763349Y-115539045D01*
X137702324Y-115298066D01*
X137602468Y-115070414D01*
X137502171Y-114916900D01*
X136802524Y-115616548D01*
X136791255Y-115574492D01*
X136718847Y-115449076D01*
X136616445Y-115346674D01*
X136491029Y-115274266D01*
X136448972Y-115262996D01*
X137148794Y-114563174D01*
X137148793Y-114563173D01*
X137101966Y-114526727D01*
X136883351Y-114408419D01*
X136883340Y-114408414D01*
X136648230Y-114327700D01*
X136462897Y-114296774D01*
X136400012Y-114266323D01*
X136363573Y-114206709D01*
X136365148Y-114136857D01*
X136404238Y-114078945D01*
X136468432Y-114051360D01*
X136483307Y-114050465D01*
X142574167Y-114050465D01*
X142641206Y-114070150D01*
X142686961Y-114122954D01*
X142696905Y-114192112D01*
X142667880Y-114255668D01*
X142609102Y-114293442D01*
X142594577Y-114296774D01*
X142409243Y-114327700D01*
X142174133Y-114408414D01*
X142174127Y-114408416D01*
X141955498Y-114526733D01*
X141908679Y-114563172D01*
X141908679Y-114563174D01*
X142608502Y-115262996D01*
X142566445Y-115274266D01*
X142441029Y-115346674D01*
X142338627Y-115449076D01*
X142266219Y-115574492D01*
X142254949Y-115616548D01*
X141555301Y-114916900D01*
X141455004Y-115070416D01*
X141355149Y-115298066D01*
X141294124Y-115539045D01*
X141294122Y-115539054D01*
X141273596Y-115786778D01*
X141273596Y-115786789D01*
X141294122Y-116034513D01*
X141294124Y-116034522D01*
X141355149Y-116275501D01*
X141455003Y-116503148D01*
X141555301Y-116656666D01*
X142254949Y-115957018D01*
X142266219Y-115999076D01*
X142338627Y-116124492D01*
X142441029Y-116226894D01*
X142566445Y-116299302D01*
X142608502Y-116310571D01*
X141908679Y-117010393D01*
X141955505Y-117046839D01*
X141955507Y-117046840D01*
X142174122Y-117165148D01*
X142174133Y-117165153D01*
X142409243Y-117245867D01*
X142654444Y-117286784D01*
X142903030Y-117286784D01*
X143148230Y-117245867D01*
X143383340Y-117165153D01*
X143383351Y-117165148D01*
X143601965Y-117046841D01*
X143601968Y-117046839D01*
X143648793Y-117010393D01*
X142948971Y-116310571D01*
X142991029Y-116299302D01*
X143116445Y-116226894D01*
X143218847Y-116124492D01*
X143291255Y-115999076D01*
X143302524Y-115957019D01*
X144002171Y-116656666D01*
X144102468Y-116503153D01*
X144202324Y-116275501D01*
X144263349Y-116034522D01*
X144263351Y-116034513D01*
X144283878Y-115786789D01*
X144283878Y-115786778D01*
X166280086Y-115786778D01*
X166280086Y-115786789D01*
X166300612Y-116034513D01*
X166300614Y-116034522D01*
X166361639Y-116275501D01*
X166461493Y-116503148D01*
X166561791Y-116656666D01*
X167261439Y-115957018D01*
X167272709Y-115999076D01*
X167345117Y-116124492D01*
X167447519Y-116226894D01*
X167572935Y-116299302D01*
X167614992Y-116310571D01*
X166915169Y-117010393D01*
X166961995Y-117046839D01*
X166961997Y-117046840D01*
X167180612Y-117165148D01*
X167180623Y-117165153D01*
X167415733Y-117245867D01*
X167660934Y-117286784D01*
X167909520Y-117286784D01*
X168154720Y-117245867D01*
X168389830Y-117165153D01*
X168389841Y-117165148D01*
X168608455Y-117046841D01*
X168608458Y-117046839D01*
X168655283Y-117010393D01*
X167955461Y-116310571D01*
X167997519Y-116299302D01*
X168122935Y-116226894D01*
X168225337Y-116124492D01*
X168297745Y-115999076D01*
X168309014Y-115957018D01*
X169008661Y-116656666D01*
X169108958Y-116503153D01*
X169208814Y-116275501D01*
X169269839Y-116034522D01*
X169269841Y-116034513D01*
X169290368Y-115786789D01*
X169290368Y-115786778D01*
X172780086Y-115786778D01*
X172780086Y-115786789D01*
X172800612Y-116034513D01*
X172800614Y-116034522D01*
X172861639Y-116275501D01*
X172961493Y-116503148D01*
X173061791Y-116656666D01*
X173761439Y-115957018D01*
X173772709Y-115999076D01*
X173845117Y-116124492D01*
X173947519Y-116226894D01*
X174072935Y-116299302D01*
X174114992Y-116310571D01*
X173415169Y-117010393D01*
X173461995Y-117046839D01*
X173461997Y-117046840D01*
X173680612Y-117165148D01*
X173680623Y-117165153D01*
X173915733Y-117245867D01*
X174160934Y-117286784D01*
X174409520Y-117286784D01*
X174654720Y-117245867D01*
X174889830Y-117165153D01*
X174889841Y-117165148D01*
X175108455Y-117046841D01*
X175108458Y-117046839D01*
X175155283Y-117010393D01*
X174455461Y-116310571D01*
X174497519Y-116299302D01*
X174622935Y-116226894D01*
X174725337Y-116124492D01*
X174797745Y-115999076D01*
X174809014Y-115957019D01*
X175508661Y-116656666D01*
X175608958Y-116503153D01*
X175708814Y-116275501D01*
X175769839Y-116034522D01*
X175769841Y-116034513D01*
X175790368Y-115786789D01*
X175790368Y-115786778D01*
X175769841Y-115539054D01*
X175769839Y-115539045D01*
X175708814Y-115298066D01*
X175608958Y-115070414D01*
X175508661Y-114916900D01*
X174809014Y-115616548D01*
X174797745Y-115574492D01*
X174725337Y-115449076D01*
X174622935Y-115346674D01*
X174497519Y-115274266D01*
X174455462Y-115262996D01*
X175155284Y-114563174D01*
X175155283Y-114563173D01*
X175108456Y-114526727D01*
X174889841Y-114408419D01*
X174889830Y-114408414D01*
X174654720Y-114327700D01*
X174409520Y-114286784D01*
X174160934Y-114286784D01*
X173915733Y-114327700D01*
X173680623Y-114408414D01*
X173680617Y-114408416D01*
X173461988Y-114526733D01*
X173415169Y-114563172D01*
X173415169Y-114563174D01*
X174114992Y-115262996D01*
X174072935Y-115274266D01*
X173947519Y-115346674D01*
X173845117Y-115449076D01*
X173772709Y-115574492D01*
X173761439Y-115616548D01*
X173061791Y-114916900D01*
X172961494Y-115070416D01*
X172861639Y-115298066D01*
X172800614Y-115539045D01*
X172800612Y-115539054D01*
X172780086Y-115786778D01*
X169290368Y-115786778D01*
X169269841Y-115539054D01*
X169269839Y-115539045D01*
X169208814Y-115298066D01*
X169108958Y-115070414D01*
X169008661Y-114916900D01*
X168309014Y-115616548D01*
X168297745Y-115574492D01*
X168225337Y-115449076D01*
X168122935Y-115346674D01*
X167997519Y-115274266D01*
X167955462Y-115262996D01*
X168655284Y-114563174D01*
X168655283Y-114563173D01*
X168608456Y-114526727D01*
X168389841Y-114408419D01*
X168389830Y-114408414D01*
X168154720Y-114327700D01*
X167909520Y-114286784D01*
X167660934Y-114286784D01*
X167415733Y-114327700D01*
X167180623Y-114408414D01*
X167180617Y-114408416D01*
X166961988Y-114526733D01*
X166915169Y-114563172D01*
X166915169Y-114563174D01*
X167614992Y-115262996D01*
X167572935Y-115274266D01*
X167447519Y-115346674D01*
X167345117Y-115449076D01*
X167272709Y-115574492D01*
X167261439Y-115616548D01*
X166561791Y-114916900D01*
X166461494Y-115070416D01*
X166361639Y-115298066D01*
X166300614Y-115539045D01*
X166300612Y-115539054D01*
X166280086Y-115786778D01*
X144283878Y-115786778D01*
X144263351Y-115539054D01*
X144263349Y-115539045D01*
X144202324Y-115298066D01*
X144102468Y-115070414D01*
X144002171Y-114916900D01*
X143302524Y-115616548D01*
X143291255Y-115574492D01*
X143218847Y-115449076D01*
X143116445Y-115346674D01*
X142991029Y-115274266D01*
X142948972Y-115262996D01*
X143648794Y-114563174D01*
X143648793Y-114563173D01*
X143601966Y-114526727D01*
X143383351Y-114408419D01*
X143383340Y-114408414D01*
X143148230Y-114327700D01*
X142962897Y-114296774D01*
X142900012Y-114266323D01*
X142863573Y-114206709D01*
X142865148Y-114136857D01*
X142904238Y-114078945D01*
X142968432Y-114051360D01*
X142983307Y-114050465D01*
X157210130Y-114050465D01*
X157277169Y-114070150D01*
X157302278Y-114091491D01*
X157308004Y-114097850D01*
X157308008Y-114097854D01*
X157461143Y-114209113D01*
X157461148Y-114209116D01*
X157634070Y-114286107D01*
X157634075Y-114286109D01*
X157819232Y-114325465D01*
X157819233Y-114325465D01*
X158008522Y-114325465D01*
X158008524Y-114325465D01*
X158193681Y-114286109D01*
X158366608Y-114209116D01*
X158519749Y-114097853D01*
X158646411Y-113957181D01*
X158741057Y-113793249D01*
X158799552Y-113613221D01*
X158819338Y-113424965D01*
X158799552Y-113236709D01*
X158741057Y-113056681D01*
X158646411Y-112892749D01*
X158519749Y-112752077D01*
X158519748Y-112752076D01*
X158366612Y-112640816D01*
X158366607Y-112640813D01*
X158193685Y-112563822D01*
X158193680Y-112563820D01*
X158047879Y-112532830D01*
X158008524Y-112524465D01*
X157819232Y-112524465D01*
X157786775Y-112531363D01*
X157634075Y-112563820D01*
X157634070Y-112563822D01*
X157461148Y-112640813D01*
X157461143Y-112640816D01*
X157308008Y-112752075D01*
X157308004Y-112752079D01*
X157302278Y-112758439D01*
X157242791Y-112795086D01*
X157210130Y-112799465D01*
X143625874Y-112799465D01*
X143558835Y-112779780D01*
X143513080Y-112726976D01*
X143503136Y-112657818D01*
X143532161Y-112594262D01*
X143566856Y-112566410D01*
X143571642Y-112563820D01*
X143602246Y-112547258D01*
X143798481Y-112394522D01*
X143966901Y-112211569D01*
X144102910Y-112003391D01*
X144102912Y-112003387D01*
X144110332Y-111986473D01*
X144155288Y-111932987D01*
X144222024Y-111912298D01*
X144223887Y-111912284D01*
X152251885Y-111912284D01*
X152312307Y-111900265D01*
X152372730Y-111888247D01*
X152372733Y-111888245D01*
X152372736Y-111888245D01*
X152406065Y-111874438D01*
X152406064Y-111874438D01*
X152406070Y-111874436D01*
X152486564Y-111841096D01*
X152537787Y-111806868D01*
X152589011Y-111772642D01*
X152676136Y-111685517D01*
X152676138Y-111685513D01*
X152860221Y-111501429D01*
X152921544Y-111467947D01*
X152947901Y-111465113D01*
X153007093Y-111465113D01*
X153007095Y-111465113D01*
X153192252Y-111425757D01*
X153365179Y-111348764D01*
X153518320Y-111237501D01*
X153644982Y-111096829D01*
X153739628Y-110932897D01*
X153798123Y-110752869D01*
X153817909Y-110564613D01*
X153814789Y-110534927D01*
X155791550Y-110534927D01*
X155811336Y-110723183D01*
X155811337Y-110723186D01*
X155869828Y-110903204D01*
X155869831Y-110903211D01*
X155964477Y-111067143D01*
X156091139Y-111207815D01*
X156244275Y-111319075D01*
X156244280Y-111319078D01*
X156417202Y-111396069D01*
X156417207Y-111396071D01*
X156602364Y-111435427D01*
X156661557Y-111435427D01*
X156728596Y-111455112D01*
X156749238Y-111471746D01*
X156963008Y-111685516D01*
X156963009Y-111685517D01*
X157050133Y-111772641D01*
X157050135Y-111772643D01*
X157152574Y-111841091D01*
X157152578Y-111841093D01*
X157152581Y-111841095D01*
X157266415Y-111888247D01*
X157326838Y-111900265D01*
X157387260Y-111912284D01*
X157387261Y-111912284D01*
X166340077Y-111912284D01*
X166407116Y-111931969D01*
X166452871Y-111984773D01*
X166453632Y-111986473D01*
X166461051Y-112003387D01*
X166597060Y-112211566D01*
X166597063Y-112211569D01*
X166765483Y-112394522D01*
X166961718Y-112547258D01*
X167180417Y-112665612D01*
X167415613Y-112746355D01*
X167660892Y-112787284D01*
X167909562Y-112787284D01*
X168154841Y-112746355D01*
X168390037Y-112665612D01*
X168608736Y-112547258D01*
X168804971Y-112394522D01*
X168973391Y-112211569D01*
X169109400Y-112003391D01*
X169209290Y-111775665D01*
X169270335Y-111534605D01*
X169275544Y-111471746D01*
X169290870Y-111286789D01*
X169290870Y-111286778D01*
X172779584Y-111286778D01*
X172779584Y-111286789D01*
X172800117Y-111534596D01*
X172800119Y-111534608D01*
X172861163Y-111775665D01*
X172961053Y-112003390D01*
X173097060Y-112211566D01*
X173097063Y-112211569D01*
X173265483Y-112394522D01*
X173461718Y-112547258D01*
X173680417Y-112665612D01*
X173915613Y-112746355D01*
X174160892Y-112787284D01*
X174409562Y-112787284D01*
X174654841Y-112746355D01*
X174890037Y-112665612D01*
X175108736Y-112547258D01*
X175304971Y-112394522D01*
X175473391Y-112211569D01*
X175609400Y-112003391D01*
X175709290Y-111775665D01*
X175770335Y-111534605D01*
X175775544Y-111471746D01*
X175790870Y-111286789D01*
X175790870Y-111286778D01*
X175770336Y-111038971D01*
X175770334Y-111038959D01*
X175709290Y-110797902D01*
X175609400Y-110570177D01*
X175473393Y-110362001D01*
X175451784Y-110338528D01*
X175304971Y-110179046D01*
X175108736Y-110026310D01*
X175108734Y-110026309D01*
X175108733Y-110026308D01*
X174890038Y-109907956D01*
X174890029Y-109907953D01*
X174654843Y-109827213D01*
X174409562Y-109786284D01*
X174160892Y-109786284D01*
X173915610Y-109827213D01*
X173680424Y-109907953D01*
X173680415Y-109907956D01*
X173461720Y-110026308D01*
X173265484Y-110179045D01*
X173097060Y-110362001D01*
X172961053Y-110570177D01*
X172861163Y-110797902D01*
X172800119Y-111038959D01*
X172800117Y-111038971D01*
X172779584Y-111286778D01*
X169290870Y-111286778D01*
X169270336Y-111038971D01*
X169270334Y-111038959D01*
X169209290Y-110797902D01*
X169109400Y-110570177D01*
X168973393Y-110362001D01*
X168951784Y-110338528D01*
X168804971Y-110179046D01*
X168608736Y-110026310D01*
X168608734Y-110026309D01*
X168608733Y-110026308D01*
X168390038Y-109907956D01*
X168390029Y-109907953D01*
X168154843Y-109827213D01*
X167909562Y-109786284D01*
X167660892Y-109786284D01*
X167415610Y-109827213D01*
X167180424Y-109907953D01*
X167180415Y-109907956D01*
X166961720Y-110026308D01*
X166765484Y-110179045D01*
X166597060Y-110362001D01*
X166461051Y-110570180D01*
X166453632Y-110587095D01*
X166408676Y-110640581D01*
X166341940Y-110661270D01*
X166340077Y-110661284D01*
X157759320Y-110661284D01*
X157692281Y-110641599D01*
X157671639Y-110624965D01*
X157635970Y-110589296D01*
X157602485Y-110527973D01*
X157600333Y-110514595D01*
X157582684Y-110346671D01*
X157524189Y-110166643D01*
X157429543Y-110002711D01*
X157302881Y-109862039D01*
X157302880Y-109862038D01*
X157149744Y-109750778D01*
X157149739Y-109750775D01*
X156976817Y-109673784D01*
X156976812Y-109673782D01*
X156831011Y-109642792D01*
X156791656Y-109634427D01*
X156602364Y-109634427D01*
X156569907Y-109641325D01*
X156417207Y-109673782D01*
X156417202Y-109673784D01*
X156244280Y-109750775D01*
X156244275Y-109750778D01*
X156091139Y-109862038D01*
X155964476Y-110002712D01*
X155869831Y-110166642D01*
X155869828Y-110166649D01*
X155811337Y-110346667D01*
X155811336Y-110346671D01*
X155791550Y-110534927D01*
X153814789Y-110534927D01*
X153798123Y-110376357D01*
X153739628Y-110196329D01*
X153644982Y-110032397D01*
X153518320Y-109891725D01*
X153477461Y-109862039D01*
X153365183Y-109780464D01*
X153365178Y-109780461D01*
X153192256Y-109703470D01*
X153192251Y-109703468D01*
X153046450Y-109672478D01*
X153007095Y-109664113D01*
X152817803Y-109664113D01*
X152785346Y-109671011D01*
X152632646Y-109703468D01*
X152632641Y-109703470D01*
X152459719Y-109780461D01*
X152459714Y-109780464D01*
X152306578Y-109891724D01*
X152179915Y-110032398D01*
X152085270Y-110196328D01*
X152085267Y-110196335D01*
X152026776Y-110376353D01*
X152026775Y-110376357D01*
X152012248Y-110514576D01*
X152009128Y-110544263D01*
X151982543Y-110608877D01*
X151973496Y-110618975D01*
X151967514Y-110624958D01*
X151906193Y-110658448D01*
X151879825Y-110661284D01*
X144223887Y-110661284D01*
X144156848Y-110641599D01*
X144111093Y-110588795D01*
X144110332Y-110587095D01*
X144102912Y-110570180D01*
X143966903Y-110362001D01*
X143945294Y-110338528D01*
X143798481Y-110179046D01*
X143602246Y-110026310D01*
X143602244Y-110026309D01*
X143602243Y-110026308D01*
X143383548Y-109907956D01*
X143383539Y-109907953D01*
X143148353Y-109827213D01*
X142903072Y-109786284D01*
X142654402Y-109786284D01*
X142409120Y-109827213D01*
X142173934Y-109907953D01*
X142173925Y-109907956D01*
X141955230Y-110026308D01*
X141758994Y-110179045D01*
X141590570Y-110362001D01*
X141454563Y-110570177D01*
X141354673Y-110797902D01*
X141293629Y-111038959D01*
X141293627Y-111038971D01*
X141273094Y-111286778D01*
X141273094Y-111286789D01*
X141293627Y-111534596D01*
X141293629Y-111534608D01*
X141354673Y-111775665D01*
X141454563Y-112003390D01*
X141590570Y-112211566D01*
X141590573Y-112211569D01*
X141758993Y-112394522D01*
X141955228Y-112547258D01*
X141955230Y-112547259D01*
X141990618Y-112566410D01*
X142040208Y-112615630D01*
X142055316Y-112683847D01*
X142031145Y-112749402D01*
X141975369Y-112791483D01*
X141931600Y-112799465D01*
X137125874Y-112799465D01*
X137058835Y-112779780D01*
X137013080Y-112726976D01*
X137003136Y-112657818D01*
X137032161Y-112594262D01*
X137066856Y-112566410D01*
X137071642Y-112563820D01*
X137102246Y-112547258D01*
X137298481Y-112394522D01*
X137466901Y-112211569D01*
X137602910Y-112003391D01*
X137702800Y-111775665D01*
X137763845Y-111534605D01*
X137769054Y-111471746D01*
X137784380Y-111286789D01*
X137784380Y-111286778D01*
X137763846Y-111038971D01*
X137763844Y-111038959D01*
X137702800Y-110797902D01*
X137602910Y-110570177D01*
X137466903Y-110362001D01*
X137445294Y-110338528D01*
X137298481Y-110179046D01*
X137102246Y-110026310D01*
X137102244Y-110026309D01*
X137102243Y-110026308D01*
X136883548Y-109907956D01*
X136883539Y-109907953D01*
X136648353Y-109827213D01*
X136403072Y-109786284D01*
X136154402Y-109786284D01*
X135909120Y-109827213D01*
X135673934Y-109907953D01*
X135673925Y-109907956D01*
X135455230Y-110026308D01*
X135258994Y-110179045D01*
X135090570Y-110362001D01*
X134954563Y-110570177D01*
X134854673Y-110797902D01*
X134793629Y-111038959D01*
X134793627Y-111038971D01*
X134773094Y-111286778D01*
X134773094Y-111286789D01*
X134793627Y-111534596D01*
X134793629Y-111534608D01*
X134854673Y-111775665D01*
X134954563Y-112003390D01*
X135090570Y-112211566D01*
X135090573Y-112211569D01*
X135258993Y-112394522D01*
X135455228Y-112547258D01*
X135455230Y-112547259D01*
X135490618Y-112566410D01*
X135540208Y-112615630D01*
X135555316Y-112683847D01*
X135531145Y-112749402D01*
X135475369Y-112791483D01*
X135431600Y-112799465D01*
X128288146Y-112799465D01*
X128227728Y-112811483D01*
X128190016Y-112818984D01*
X128167307Y-112823501D01*
X128167305Y-112823502D01*
X128133964Y-112837312D01*
X128053476Y-112870649D01*
X128053462Y-112870657D01*
X127951029Y-112939103D01*
X127951021Y-112939109D01*
X127863896Y-113026235D01*
X127032440Y-113857690D01*
X126971117Y-113891175D01*
X126970540Y-113891299D01*
X126826986Y-113921812D01*
X126826981Y-113921814D01*
X126654059Y-113998805D01*
X126654054Y-113998808D01*
X126500918Y-114110068D01*
X126374255Y-114250742D01*
X126279610Y-114414672D01*
X126279607Y-114414679D01*
X126221116Y-114594697D01*
X126221115Y-114594701D01*
X126201329Y-114782957D01*
X113618818Y-114782957D01*
X113614052Y-114728479D01*
X113552892Y-114500224D01*
X113453024Y-114286058D01*
X113439206Y-114266323D01*
X113317483Y-114092484D01*
X113150391Y-113925393D01*
X113150384Y-113925388D01*
X113145278Y-113921813D01*
X113065430Y-113865902D01*
X112956823Y-113789854D01*
X112956819Y-113789852D01*
X112956817Y-113789851D01*
X112742652Y-113689984D01*
X112742648Y-113689983D01*
X112742644Y-113689981D01*
X112514402Y-113628825D01*
X112514392Y-113628823D01*
X112278990Y-113608228D01*
X112278988Y-113608228D01*
X112043585Y-113628823D01*
X112043575Y-113628825D01*
X111815333Y-113689981D01*
X111815324Y-113689985D01*
X111601160Y-113789851D01*
X111601158Y-113789852D01*
X111407586Y-113925392D01*
X111240494Y-114092484D01*
X111104954Y-114286056D01*
X111104953Y-114286058D01*
X111005087Y-114500222D01*
X111005083Y-114500231D01*
X110943927Y-114728473D01*
X110943925Y-114728483D01*
X110923330Y-114963886D01*
X105489166Y-114963886D01*
X105489166Y-107046116D01*
X124860723Y-107046116D01*
X124880509Y-107234372D01*
X124880510Y-107234375D01*
X124939001Y-107414393D01*
X124939004Y-107414400D01*
X125033650Y-107578332D01*
X125160312Y-107719004D01*
X125313448Y-107830264D01*
X125313453Y-107830267D01*
X125486375Y-107907258D01*
X125486380Y-107907260D01*
X125671537Y-107946616D01*
X125671538Y-107946616D01*
X125860827Y-107946616D01*
X125860829Y-107946616D01*
X126045986Y-107907260D01*
X126218913Y-107830267D01*
X126372054Y-107719004D01*
X126498716Y-107578332D01*
X126593362Y-107414400D01*
X126644614Y-107256660D01*
X126684051Y-107198987D01*
X126748410Y-107171788D01*
X126762545Y-107170980D01*
X137941741Y-107170980D01*
X138008780Y-107190665D01*
X138014626Y-107194662D01*
X138028343Y-107204628D01*
X138028348Y-107204631D01*
X138201270Y-107281622D01*
X138201275Y-107281624D01*
X138386432Y-107320980D01*
X138386433Y-107320980D01*
X138575722Y-107320980D01*
X138575724Y-107320980D01*
X138760881Y-107281624D01*
X138933808Y-107204631D01*
X138937088Y-107202248D01*
X138947530Y-107194662D01*
X139013336Y-107171182D01*
X139020415Y-107170980D01*
X160666497Y-107170980D01*
X160764039Y-107151576D01*
X160811490Y-107142138D01*
X160918983Y-107097613D01*
X160948065Y-107085567D01*
X160948065Y-107085566D01*
X160948072Y-107085564D01*
X161014710Y-107041038D01*
X161070993Y-107003432D01*
X161543797Y-106530626D01*
X161605120Y-106497142D01*
X161674811Y-106502126D01*
X161719159Y-106530627D01*
X162147438Y-106958906D01*
X162167328Y-106972196D01*
X162167332Y-106972200D01*
X162167333Y-106972199D01*
X162270351Y-107041034D01*
X162270364Y-107041041D01*
X162326932Y-107064472D01*
X162326933Y-107064472D01*
X162406941Y-107097613D01*
X162519655Y-107120033D01*
X162541175Y-107124313D01*
X162551934Y-107126454D01*
X162551935Y-107126454D01*
X162551936Y-107126454D01*
X162699771Y-107126454D01*
X171365330Y-107126454D01*
X171415765Y-107137174D01*
X171473527Y-107162892D01*
X171658684Y-107202248D01*
X171658685Y-107202248D01*
X171847974Y-107202248D01*
X171847976Y-107202248D01*
X172033133Y-107162892D01*
X172206060Y-107085899D01*
X172359201Y-106974636D01*
X172485863Y-106833964D01*
X172580509Y-106670032D01*
X172639004Y-106490004D01*
X172658790Y-106301748D01*
X172639004Y-106113492D01*
X172580509Y-105933464D01*
X172485863Y-105769532D01*
X172359201Y-105628860D01*
X172327419Y-105605769D01*
X172206064Y-105517599D01*
X172206059Y-105517596D01*
X172033137Y-105440605D01*
X172033132Y-105440603D01*
X171887331Y-105409613D01*
X171847976Y-105401248D01*
X171658684Y-105401248D01*
X171626227Y-105408146D01*
X171473527Y-105440603D01*
X171473522Y-105440605D01*
X171300600Y-105517596D01*
X171300595Y-105517599D01*
X171184742Y-105601772D01*
X171118936Y-105625252D01*
X171111857Y-105625454D01*
X162988082Y-105625454D01*
X162921043Y-105605769D01*
X162900401Y-105589135D01*
X162544248Y-105232981D01*
X162513999Y-105183620D01*
X162458657Y-105013295D01*
X162364011Y-104849363D01*
X162237349Y-104708691D01*
X162162953Y-104654639D01*
X162084212Y-104597430D01*
X162084207Y-104597427D01*
X161911285Y-104520436D01*
X161911280Y-104520434D01*
X161735707Y-104483116D01*
X161726124Y-104481079D01*
X161536832Y-104481079D01*
X161527249Y-104483116D01*
X161351675Y-104520434D01*
X161351670Y-104520436D01*
X161178748Y-104597427D01*
X161178743Y-104597430D01*
X161025607Y-104708690D01*
X160898944Y-104849364D01*
X160804299Y-105013294D01*
X160804296Y-105013301D01*
X160748957Y-105183618D01*
X160718707Y-105232981D01*
X160318028Y-105633661D01*
X160256705Y-105667146D01*
X160230347Y-105669980D01*
X139020415Y-105669980D01*
X138953376Y-105650295D01*
X138947530Y-105646298D01*
X138933812Y-105636331D01*
X138933807Y-105636328D01*
X138760885Y-105559337D01*
X138760880Y-105559335D01*
X138615079Y-105528345D01*
X138575724Y-105519980D01*
X138386432Y-105519980D01*
X138353975Y-105526878D01*
X138201275Y-105559335D01*
X138201270Y-105559337D01*
X138028348Y-105636328D01*
X138028343Y-105636331D01*
X138014626Y-105646298D01*
X137948820Y-105669778D01*
X137941741Y-105669980D01*
X126317899Y-105669980D01*
X126172911Y-105698820D01*
X126172905Y-105698822D01*
X126036327Y-105755394D01*
X126036315Y-105755401D01*
X125987089Y-105788291D01*
X125987090Y-105788292D01*
X125913400Y-105837529D01*
X125613411Y-106137518D01*
X125552088Y-106171003D01*
X125551512Y-106171127D01*
X125486379Y-106184972D01*
X125486375Y-106184973D01*
X125313453Y-106261964D01*
X125313448Y-106261967D01*
X125160312Y-106373227D01*
X125033649Y-106513901D01*
X124939004Y-106677831D01*
X124939001Y-106677838D01*
X124888274Y-106833962D01*
X124880509Y-106857860D01*
X124860723Y-107046116D01*
X105489166Y-107046116D01*
X105489166Y-103139084D01*
X128243109Y-103139084D01*
X128243109Y-103381661D01*
X128274770Y-103622158D01*
X128337556Y-103856477D01*
X128430382Y-104080578D01*
X128430385Y-104080585D01*
X128551673Y-104290662D01*
X128551675Y-104290665D01*
X128551676Y-104290666D01*
X128699342Y-104483109D01*
X128699348Y-104483116D01*
X128870865Y-104654633D01*
X128870871Y-104654638D01*
X129063320Y-104802309D01*
X129273397Y-104923597D01*
X129497509Y-105016427D01*
X129731820Y-105079211D01*
X129912195Y-105102957D01*
X129972320Y-105110873D01*
X129972321Y-105110873D01*
X130214898Y-105110873D01*
X130262997Y-105104540D01*
X130455398Y-105079211D01*
X130689709Y-105016427D01*
X130913821Y-104923597D01*
X131123898Y-104802309D01*
X131316347Y-104654638D01*
X131487874Y-104483111D01*
X131635545Y-104290662D01*
X131756833Y-104080585D01*
X131849663Y-103856473D01*
X131912447Y-103622162D01*
X131944109Y-103381661D01*
X131944109Y-103139085D01*
X131912447Y-102898584D01*
X131849663Y-102664273D01*
X131756833Y-102440161D01*
X131635545Y-102230084D01*
X131520348Y-102079956D01*
X131487875Y-102037636D01*
X131487869Y-102037629D01*
X131316352Y-101866112D01*
X131316345Y-101866106D01*
X131123902Y-101718440D01*
X131123901Y-101718439D01*
X131123898Y-101718437D01*
X130913821Y-101597149D01*
X130871512Y-101579624D01*
X130689713Y-101504320D01*
X130683936Y-101502772D01*
X150593078Y-101502772D01*
X150613030Y-101705352D01*
X150672122Y-101900153D01*
X150744721Y-102035974D01*
X151277925Y-101502772D01*
X151277925Y-101502771D01*
X150744721Y-100969568D01*
X150672121Y-101105394D01*
X150613030Y-101300191D01*
X150593078Y-101502772D01*
X130683936Y-101502772D01*
X130455394Y-101441534D01*
X130214898Y-101409873D01*
X130214897Y-101409873D01*
X129972321Y-101409873D01*
X129972320Y-101409873D01*
X129731823Y-101441534D01*
X129497504Y-101504320D01*
X129273403Y-101597146D01*
X129273394Y-101597150D01*
X129140417Y-101673925D01*
X129071243Y-101713863D01*
X129063315Y-101718440D01*
X128870872Y-101866106D01*
X128870865Y-101866112D01*
X128699348Y-102037629D01*
X128699342Y-102037636D01*
X128551676Y-102230079D01*
X128430386Y-102440158D01*
X128430382Y-102440167D01*
X128337556Y-102664268D01*
X128274770Y-102898587D01*
X128243109Y-103139084D01*
X105489166Y-103139084D01*
X105489166Y-100772360D01*
X108174689Y-100772360D01*
X108174689Y-101014937D01*
X108206350Y-101255434D01*
X108269136Y-101489753D01*
X108332505Y-101642738D01*
X108361965Y-101713861D01*
X108483253Y-101923938D01*
X108483255Y-101923941D01*
X108483256Y-101923942D01*
X108630922Y-102116385D01*
X108630928Y-102116392D01*
X108802445Y-102287909D01*
X108802452Y-102287915D01*
X108853840Y-102327346D01*
X108994900Y-102435585D01*
X109204977Y-102556873D01*
X109429089Y-102649703D01*
X109663400Y-102712487D01*
X109843775Y-102736233D01*
X109903900Y-102744149D01*
X109903901Y-102744149D01*
X110146478Y-102744149D01*
X110194577Y-102737816D01*
X110386978Y-102712487D01*
X110621289Y-102649703D01*
X110845401Y-102556873D01*
X111055478Y-102435585D01*
X111247927Y-102287914D01*
X111419454Y-102116387D01*
X111567125Y-101923938D01*
X111688413Y-101713861D01*
X111781243Y-101489749D01*
X111844027Y-101255438D01*
X111875689Y-101014937D01*
X111875689Y-100772361D01*
X111855106Y-100616015D01*
X151098274Y-100616015D01*
X151719309Y-101237050D01*
X151668262Y-101223372D01*
X151594694Y-101223372D01*
X151523634Y-101242413D01*
X151459922Y-101279196D01*
X151407902Y-101331216D01*
X151371119Y-101394928D01*
X151352078Y-101465988D01*
X151352078Y-101539556D01*
X151371119Y-101610616D01*
X151407902Y-101674328D01*
X151459922Y-101726348D01*
X151523634Y-101763131D01*
X151594694Y-101782172D01*
X151668262Y-101782172D01*
X151719306Y-101768494D01*
X151098274Y-102389527D01*
X151234097Y-102462127D01*
X151428899Y-102521219D01*
X151428895Y-102521219D01*
X151631478Y-102541171D01*
X151834058Y-102521219D01*
X152028859Y-102462127D01*
X152197492Y-102371990D01*
X152265895Y-102357748D01*
X152314399Y-102371990D01*
X152461226Y-102450470D01*
X152483907Y-102462593D01*
X152678798Y-102521713D01*
X152881478Y-102541675D01*
X153084158Y-102521713D01*
X153279049Y-102462593D01*
X153394080Y-102401108D01*
X153448025Y-102372274D01*
X153516428Y-102358032D01*
X153564931Y-102372274D01*
X153691951Y-102440167D01*
X153733907Y-102462593D01*
X153928798Y-102521713D01*
X154131478Y-102541675D01*
X154334158Y-102521713D01*
X154529049Y-102462593D01*
X154644080Y-102401108D01*
X154698025Y-102372274D01*
X154766428Y-102358032D01*
X154814931Y-102372274D01*
X154941951Y-102440167D01*
X154983907Y-102462593D01*
X155178798Y-102521713D01*
X155381478Y-102541675D01*
X155584158Y-102521713D01*
X155779049Y-102462593D01*
X155894080Y-102401108D01*
X155948025Y-102372274D01*
X156016428Y-102358032D01*
X156064931Y-102372274D01*
X156191951Y-102440167D01*
X156233907Y-102462593D01*
X156428798Y-102521713D01*
X156631478Y-102541675D01*
X156834158Y-102521713D01*
X157029049Y-102462593D01*
X157144080Y-102401108D01*
X157198025Y-102372274D01*
X157266428Y-102358032D01*
X157314931Y-102372274D01*
X157441951Y-102440167D01*
X157483907Y-102462593D01*
X157678798Y-102521713D01*
X157881478Y-102541675D01*
X158084158Y-102521713D01*
X158279049Y-102462593D01*
X158394080Y-102401108D01*
X158448025Y-102372274D01*
X158516428Y-102358032D01*
X158564931Y-102372274D01*
X158691951Y-102440167D01*
X158733907Y-102462593D01*
X158928798Y-102521713D01*
X159131478Y-102541675D01*
X159334158Y-102521713D01*
X159529049Y-102462593D01*
X159644080Y-102401108D01*
X159698025Y-102372274D01*
X159766428Y-102358032D01*
X159814931Y-102372274D01*
X159941951Y-102440167D01*
X159983907Y-102462593D01*
X160178798Y-102521713D01*
X160381478Y-102541675D01*
X160584158Y-102521713D01*
X160779049Y-102462593D01*
X160894080Y-102401108D01*
X160948025Y-102372274D01*
X161016428Y-102358032D01*
X161064931Y-102372274D01*
X161191951Y-102440167D01*
X161233907Y-102462593D01*
X161428798Y-102521713D01*
X161631478Y-102541675D01*
X161834158Y-102521713D01*
X162029049Y-102462593D01*
X162144080Y-102401108D01*
X162198025Y-102372274D01*
X162266428Y-102358032D01*
X162314931Y-102372274D01*
X162441951Y-102440167D01*
X162483907Y-102462593D01*
X162678798Y-102521713D01*
X162881478Y-102541675D01*
X163084158Y-102521713D01*
X163279049Y-102462593D01*
X163458662Y-102366588D01*
X163616093Y-102237387D01*
X163745294Y-102079956D01*
X163841299Y-101900343D01*
X163900419Y-101705452D01*
X163913577Y-101571843D01*
X163939737Y-101507058D01*
X163949300Y-101496316D01*
X164040592Y-101405026D01*
X164101915Y-101371541D01*
X164128272Y-101368708D01*
X179206294Y-101368708D01*
X179273333Y-101388393D01*
X179319088Y-101441197D01*
X179329032Y-101510355D01*
X179300007Y-101573911D01*
X179268294Y-101600095D01*
X179140417Y-101673925D01*
X179071243Y-101713863D01*
X179063315Y-101718440D01*
X178870872Y-101866106D01*
X178870865Y-101866112D01*
X178699348Y-102037629D01*
X178699342Y-102037636D01*
X178551676Y-102230079D01*
X178430386Y-102440158D01*
X178430382Y-102440167D01*
X178337556Y-102664268D01*
X178274770Y-102898587D01*
X178243109Y-103139084D01*
X178243109Y-103381661D01*
X178274770Y-103622158D01*
X178337556Y-103856477D01*
X178430382Y-104080578D01*
X178430385Y-104080585D01*
X178551673Y-104290662D01*
X178551675Y-104290665D01*
X178551676Y-104290666D01*
X178699342Y-104483109D01*
X178699348Y-104483116D01*
X178870865Y-104654633D01*
X178870871Y-104654638D01*
X179063320Y-104802309D01*
X179273397Y-104923597D01*
X179497509Y-105016427D01*
X179731820Y-105079211D01*
X179912195Y-105102957D01*
X179972320Y-105110873D01*
X179972321Y-105110873D01*
X180214898Y-105110873D01*
X180262997Y-105104540D01*
X180455398Y-105079211D01*
X180689709Y-105016427D01*
X180913821Y-104923597D01*
X181123898Y-104802309D01*
X181316347Y-104654638D01*
X181487874Y-104483111D01*
X181635545Y-104290662D01*
X181756833Y-104080585D01*
X181849663Y-103856473D01*
X181912447Y-103622162D01*
X181944109Y-103381661D01*
X181944109Y-103139085D01*
X181912447Y-102898584D01*
X181849663Y-102664273D01*
X181756833Y-102440161D01*
X181635545Y-102230084D01*
X181520348Y-102079956D01*
X181487875Y-102037636D01*
X181487869Y-102037629D01*
X181316352Y-101866112D01*
X181316345Y-101866106D01*
X181123902Y-101718440D01*
X181123901Y-101718439D01*
X181123898Y-101718437D01*
X180918924Y-101600095D01*
X180870708Y-101549528D01*
X180857486Y-101480921D01*
X180883454Y-101416056D01*
X180940368Y-101375528D01*
X180980924Y-101368708D01*
X181399746Y-101368708D01*
X181466785Y-101388393D01*
X181487427Y-101405027D01*
X181796255Y-101713854D01*
X182098843Y-102016442D01*
X182162351Y-102079950D01*
X182203379Y-102120978D01*
X182326292Y-102203106D01*
X182326305Y-102203113D01*
X182409051Y-102237387D01*
X182462881Y-102259684D01*
X182462885Y-102259684D01*
X182462886Y-102259685D01*
X182607873Y-102288526D01*
X182607876Y-102288526D01*
X182607877Y-102288526D01*
X182755711Y-102288526D01*
X193642482Y-102288526D01*
X193709521Y-102308211D01*
X193730163Y-102324845D01*
X193806426Y-102401108D01*
X193836676Y-102450470D01*
X193892017Y-102620792D01*
X193892019Y-102620796D01*
X193986665Y-102784728D01*
X194113327Y-102925400D01*
X194266463Y-103036660D01*
X194266468Y-103036663D01*
X194439390Y-103113654D01*
X194439395Y-103113656D01*
X194624552Y-103153012D01*
X194624553Y-103153012D01*
X194813842Y-103153012D01*
X194813844Y-103153012D01*
X194999001Y-103113656D01*
X195171928Y-103036663D01*
X195325069Y-102925400D01*
X195451731Y-102784728D01*
X195546377Y-102620796D01*
X195604872Y-102440768D01*
X195624658Y-102252512D01*
X195604872Y-102064256D01*
X195546377Y-101884228D01*
X195451731Y-101720296D01*
X195325069Y-101579624D01*
X195317206Y-101573911D01*
X195171932Y-101468363D01*
X195171927Y-101468360D01*
X194999005Y-101391369D01*
X194999001Y-101391368D01*
X194933867Y-101377523D01*
X194872386Y-101344330D01*
X194871968Y-101343914D01*
X194483129Y-100955075D01*
X194394018Y-100895534D01*
X194360207Y-100872942D01*
X194360205Y-100872941D01*
X194360202Y-100872939D01*
X194223629Y-100816369D01*
X194223619Y-100816366D01*
X194078632Y-100787526D01*
X194078630Y-100787526D01*
X186468687Y-100787526D01*
X186417038Y-100772360D01*
X198174689Y-100772360D01*
X198174689Y-101014937D01*
X198206350Y-101255434D01*
X198269136Y-101489753D01*
X198332505Y-101642738D01*
X198361965Y-101713861D01*
X198483253Y-101923938D01*
X198483255Y-101923941D01*
X198483256Y-101923942D01*
X198630922Y-102116385D01*
X198630928Y-102116392D01*
X198802445Y-102287909D01*
X198802452Y-102287915D01*
X198853840Y-102327346D01*
X198994900Y-102435585D01*
X199204977Y-102556873D01*
X199429089Y-102649703D01*
X199663400Y-102712487D01*
X199843775Y-102736233D01*
X199903900Y-102744149D01*
X199903901Y-102744149D01*
X200146478Y-102744149D01*
X200194577Y-102737816D01*
X200386978Y-102712487D01*
X200621289Y-102649703D01*
X200845401Y-102556873D01*
X201055478Y-102435585D01*
X201247927Y-102287914D01*
X201419454Y-102116387D01*
X201567125Y-101923938D01*
X201688413Y-101713861D01*
X201781243Y-101489749D01*
X201844027Y-101255438D01*
X201875689Y-101014937D01*
X201875689Y-100772361D01*
X201844027Y-100531860D01*
X201781243Y-100297549D01*
X201688413Y-100073437D01*
X201567125Y-99863360D01*
X201419454Y-99670911D01*
X201419449Y-99670905D01*
X201247932Y-99499388D01*
X201247925Y-99499382D01*
X201055482Y-99351716D01*
X201055481Y-99351715D01*
X201055478Y-99351713D01*
X200845401Y-99230425D01*
X200845394Y-99230422D01*
X200621293Y-99137596D01*
X200386974Y-99074810D01*
X200146478Y-99043149D01*
X200146477Y-99043149D01*
X199903901Y-99043149D01*
X199903900Y-99043149D01*
X199663403Y-99074810D01*
X199429084Y-99137596D01*
X199204983Y-99230422D01*
X199204974Y-99230426D01*
X198994895Y-99351716D01*
X198802452Y-99499382D01*
X198802445Y-99499388D01*
X198630928Y-99670905D01*
X198630922Y-99670912D01*
X198483256Y-99863355D01*
X198361966Y-100073434D01*
X198361962Y-100073443D01*
X198269136Y-100297544D01*
X198206350Y-100531863D01*
X198174689Y-100772360D01*
X186417038Y-100772360D01*
X186401648Y-100767841D01*
X186355893Y-100715037D01*
X186345949Y-100645879D01*
X186361300Y-100601526D01*
X186395118Y-100542951D01*
X186431655Y-100479667D01*
X186490150Y-100299639D01*
X186509936Y-100111383D01*
X186490150Y-99923127D01*
X186431655Y-99743099D01*
X186337009Y-99579167D01*
X186210347Y-99438495D01*
X186210346Y-99438494D01*
X186057210Y-99327234D01*
X186057205Y-99327231D01*
X185884283Y-99250240D01*
X185884279Y-99250239D01*
X185819145Y-99236394D01*
X185757664Y-99203201D01*
X185757384Y-99202923D01*
X185604258Y-99049797D01*
X185604257Y-99049796D01*
X185604256Y-99049795D01*
X185530571Y-99000561D01*
X185530571Y-99000562D01*
X185481333Y-98967662D01*
X185344759Y-98911092D01*
X185344749Y-98911089D01*
X185199762Y-98882249D01*
X185199760Y-98882249D01*
X182932731Y-98882249D01*
X161423242Y-98882249D01*
X161423236Y-98882249D01*
X161394402Y-98887983D01*
X161394403Y-98887984D01*
X161278253Y-98911088D01*
X161278243Y-98911091D01*
X161198241Y-98944228D01*
X161198242Y-98944229D01*
X161141665Y-98967664D01*
X161059532Y-99022544D01*
X161018745Y-99049796D01*
X161018741Y-99049799D01*
X159798528Y-100270011D01*
X159798522Y-100270019D01*
X159749290Y-100343699D01*
X159749291Y-100343700D01*
X159716399Y-100392927D01*
X159716392Y-100392940D01*
X159683288Y-100472860D01*
X159639446Y-100527264D01*
X159573152Y-100549328D01*
X159532732Y-100544068D01*
X159334156Y-100483830D01*
X159131478Y-100463869D01*
X158928795Y-100483831D01*
X158733905Y-100542951D01*
X158564931Y-100633270D01*
X158496528Y-100647512D01*
X158448025Y-100633270D01*
X158279050Y-100542951D01*
X158084160Y-100483831D01*
X157881478Y-100463869D01*
X157678795Y-100483831D01*
X157483905Y-100542951D01*
X157314931Y-100633270D01*
X157246528Y-100647512D01*
X157198025Y-100633270D01*
X157029050Y-100542951D01*
X156834160Y-100483831D01*
X156631478Y-100463869D01*
X156428795Y-100483831D01*
X156233905Y-100542951D01*
X156064931Y-100633270D01*
X155996528Y-100647512D01*
X155948025Y-100633270D01*
X155779050Y-100542951D01*
X155584160Y-100483831D01*
X155381478Y-100463869D01*
X155178795Y-100483831D01*
X154983905Y-100542951D01*
X154814931Y-100633270D01*
X154746528Y-100647512D01*
X154698025Y-100633270D01*
X154529050Y-100542951D01*
X154334160Y-100483831D01*
X154131478Y-100463869D01*
X153928795Y-100483831D01*
X153733905Y-100542951D01*
X153564931Y-100633270D01*
X153496528Y-100647512D01*
X153448025Y-100633270D01*
X153279050Y-100542951D01*
X153084160Y-100483831D01*
X152881478Y-100463869D01*
X152678795Y-100483831D01*
X152483905Y-100542951D01*
X152314400Y-100633553D01*
X152245997Y-100647795D01*
X152197494Y-100633553D01*
X152028863Y-100543418D01*
X152028860Y-100543417D01*
X151834056Y-100484324D01*
X151834060Y-100484324D01*
X151631478Y-100464372D01*
X151428897Y-100484324D01*
X151234100Y-100543415D01*
X151098274Y-100616015D01*
X111855106Y-100616015D01*
X111844027Y-100531860D01*
X111781243Y-100297549D01*
X111688413Y-100073437D01*
X111567125Y-99863360D01*
X111419454Y-99670911D01*
X111419449Y-99670905D01*
X111247932Y-99499388D01*
X111247925Y-99499382D01*
X111055482Y-99351716D01*
X111055481Y-99351715D01*
X111055478Y-99351713D01*
X110845401Y-99230425D01*
X110845394Y-99230422D01*
X110621293Y-99137596D01*
X110386974Y-99074810D01*
X110146478Y-99043149D01*
X110146477Y-99043149D01*
X109903901Y-99043149D01*
X109903900Y-99043149D01*
X109663403Y-99074810D01*
X109429084Y-99137596D01*
X109204983Y-99230422D01*
X109204974Y-99230426D01*
X108994895Y-99351716D01*
X108802452Y-99499382D01*
X108802445Y-99499388D01*
X108630928Y-99670905D01*
X108630922Y-99670912D01*
X108483256Y-99863355D01*
X108361966Y-100073434D01*
X108361962Y-100073443D01*
X108269136Y-100297544D01*
X108206350Y-100531863D01*
X108174689Y-100772360D01*
X105489166Y-100772360D01*
X105489166Y-96209884D01*
X105508851Y-96142845D01*
X105561655Y-96097090D01*
X105613166Y-96085884D01*
X204974166Y-96085884D01*
X205041205Y-96105569D01*
G37*
%TD.AperFunction*%
%TD*%
M02*
