%TF.GenerationSoftware,KiCad,Pcbnew,8.0.6*%
%TF.CreationDate,2025-07-22T18:05:31-04:00*%
%TF.ProjectId,receiver,72656365-6976-4657-922e-6b696361645f,rev?*%
%TF.SameCoordinates,Original*%
%TF.FileFunction,Legend,Top*%
%TF.FilePolarity,Positive*%
%FSLAX46Y46*%
G04 Gerber Fmt 4.6, Leading zero omitted, Abs format (unit mm)*
G04 Created by KiCad (PCBNEW 8.0.6) date 2025-07-22 18:05:31*
%MOMM*%
%LPD*%
G01*
G04 APERTURE LIST*
%ADD10C,0.153000*%
%ADD11C,0.200000*%
%ADD12C,0.150000*%
%ADD13C,0.120000*%
%ADD14C,0.000000*%
%ADD15C,0.152400*%
%ADD16C,0.508000*%
G04 APERTURE END LIST*
D10*
X151226188Y-105388948D02*
X151178569Y-105484186D01*
X151178569Y-105484186D02*
X151178569Y-105627043D01*
X151178569Y-105627043D02*
X151226188Y-105769900D01*
X151226188Y-105769900D02*
X151321426Y-105865138D01*
X151321426Y-105865138D02*
X151416664Y-105912757D01*
X151416664Y-105912757D02*
X151607140Y-105960376D01*
X151607140Y-105960376D02*
X151749997Y-105960376D01*
X151749997Y-105960376D02*
X151940473Y-105912757D01*
X151940473Y-105912757D02*
X152035711Y-105865138D01*
X152035711Y-105865138D02*
X152130950Y-105769900D01*
X152130950Y-105769900D02*
X152178569Y-105627043D01*
X152178569Y-105627043D02*
X152178569Y-105531805D01*
X152178569Y-105531805D02*
X152130950Y-105388948D01*
X152130950Y-105388948D02*
X152083330Y-105341329D01*
X152083330Y-105341329D02*
X151749997Y-105341329D01*
X151749997Y-105341329D02*
X151749997Y-105531805D01*
X152178569Y-104912757D02*
X151178569Y-104912757D01*
X151178569Y-104912757D02*
X152178569Y-104341329D01*
X152178569Y-104341329D02*
X151178569Y-104341329D01*
X152178569Y-103865138D02*
X151178569Y-103865138D01*
X151178569Y-103865138D02*
X151178569Y-103627043D01*
X151178569Y-103627043D02*
X151226188Y-103484186D01*
X151226188Y-103484186D02*
X151321426Y-103388948D01*
X151321426Y-103388948D02*
X151416664Y-103341329D01*
X151416664Y-103341329D02*
X151607140Y-103293710D01*
X151607140Y-103293710D02*
X151749997Y-103293710D01*
X151749997Y-103293710D02*
X151940473Y-103341329D01*
X151940473Y-103341329D02*
X152035711Y-103388948D01*
X152035711Y-103388948D02*
X152130950Y-103484186D01*
X152130950Y-103484186D02*
X152178569Y-103627043D01*
X152178569Y-103627043D02*
X152178569Y-103865138D01*
X153432207Y-105341328D02*
X152432207Y-105341328D01*
X152432207Y-104674662D02*
X152432207Y-104484186D01*
X152432207Y-104484186D02*
X152479826Y-104388948D01*
X152479826Y-104388948D02*
X152575064Y-104293710D01*
X152575064Y-104293710D02*
X152765540Y-104246091D01*
X152765540Y-104246091D02*
X153098873Y-104246091D01*
X153098873Y-104246091D02*
X153289349Y-104293710D01*
X153289349Y-104293710D02*
X153384588Y-104388948D01*
X153384588Y-104388948D02*
X153432207Y-104484186D01*
X153432207Y-104484186D02*
X153432207Y-104674662D01*
X153432207Y-104674662D02*
X153384588Y-104769900D01*
X153384588Y-104769900D02*
X153289349Y-104865138D01*
X153289349Y-104865138D02*
X153098873Y-104912757D01*
X153098873Y-104912757D02*
X152765540Y-104912757D01*
X152765540Y-104912757D02*
X152575064Y-104865138D01*
X152575064Y-104865138D02*
X152479826Y-104769900D01*
X152479826Y-104769900D02*
X152432207Y-104674662D01*
X152765540Y-103388948D02*
X153432207Y-103388948D01*
X152384588Y-103627043D02*
X153098873Y-103865138D01*
X153098873Y-103865138D02*
X153098873Y-103246091D01*
X162461311Y-104198472D02*
X162461311Y-104674662D01*
X162461311Y-104674662D02*
X162937501Y-104722281D01*
X162937501Y-104722281D02*
X162889882Y-104674662D01*
X162889882Y-104674662D02*
X162842263Y-104579424D01*
X162842263Y-104579424D02*
X162842263Y-104341329D01*
X162842263Y-104341329D02*
X162889882Y-104246091D01*
X162889882Y-104246091D02*
X162937501Y-104198472D01*
X162937501Y-104198472D02*
X163032739Y-104150853D01*
X163032739Y-104150853D02*
X163270834Y-104150853D01*
X163270834Y-104150853D02*
X163366072Y-104198472D01*
X163366072Y-104198472D02*
X163413692Y-104246091D01*
X163413692Y-104246091D02*
X163461311Y-104341329D01*
X163461311Y-104341329D02*
X163461311Y-104579424D01*
X163461311Y-104579424D02*
X163413692Y-104674662D01*
X163413692Y-104674662D02*
X163366072Y-104722281D01*
X162461311Y-103865138D02*
X163461311Y-103531805D01*
X163461311Y-103531805D02*
X162461311Y-103198472D01*
X160954035Y-106150852D02*
X159954035Y-106150852D01*
X159954035Y-106150852D02*
X159954035Y-105769900D01*
X159954035Y-105769900D02*
X160001654Y-105674662D01*
X160001654Y-105674662D02*
X160049273Y-105627043D01*
X160049273Y-105627043D02*
X160144511Y-105579424D01*
X160144511Y-105579424D02*
X160287368Y-105579424D01*
X160287368Y-105579424D02*
X160382606Y-105627043D01*
X160382606Y-105627043D02*
X160430225Y-105674662D01*
X160430225Y-105674662D02*
X160477844Y-105769900D01*
X160477844Y-105769900D02*
X160477844Y-106150852D01*
X159954035Y-105246090D02*
X160954035Y-105007995D01*
X160954035Y-105007995D02*
X160239749Y-104817519D01*
X160239749Y-104817519D02*
X160954035Y-104627043D01*
X160954035Y-104627043D02*
X159954035Y-104388948D01*
X160954035Y-104007995D02*
X159954035Y-104007995D01*
X159954035Y-104007995D02*
X160668320Y-103674662D01*
X160668320Y-103674662D02*
X159954035Y-103341329D01*
X159954035Y-103341329D02*
X160954035Y-103341329D01*
X155939483Y-105341328D02*
X154939483Y-105341328D01*
X154939483Y-104674662D02*
X154939483Y-104484186D01*
X154939483Y-104484186D02*
X154987102Y-104388948D01*
X154987102Y-104388948D02*
X155082340Y-104293710D01*
X155082340Y-104293710D02*
X155272816Y-104246091D01*
X155272816Y-104246091D02*
X155606149Y-104246091D01*
X155606149Y-104246091D02*
X155796625Y-104293710D01*
X155796625Y-104293710D02*
X155891864Y-104388948D01*
X155891864Y-104388948D02*
X155939483Y-104484186D01*
X155939483Y-104484186D02*
X155939483Y-104674662D01*
X155939483Y-104674662D02*
X155891864Y-104769900D01*
X155891864Y-104769900D02*
X155796625Y-104865138D01*
X155796625Y-104865138D02*
X155606149Y-104912757D01*
X155606149Y-104912757D02*
X155272816Y-104912757D01*
X155272816Y-104912757D02*
X155082340Y-104865138D01*
X155082340Y-104865138D02*
X154987102Y-104769900D01*
X154987102Y-104769900D02*
X154939483Y-104674662D01*
X155034721Y-103865138D02*
X154987102Y-103817519D01*
X154987102Y-103817519D02*
X154939483Y-103722281D01*
X154939483Y-103722281D02*
X154939483Y-103484186D01*
X154939483Y-103484186D02*
X154987102Y-103388948D01*
X154987102Y-103388948D02*
X155034721Y-103341329D01*
X155034721Y-103341329D02*
X155129959Y-103293710D01*
X155129959Y-103293710D02*
X155225197Y-103293710D01*
X155225197Y-103293710D02*
X155368054Y-103341329D01*
X155368054Y-103341329D02*
X155939483Y-103912757D01*
X155939483Y-103912757D02*
X155939483Y-103293710D01*
X158399140Y-105674662D02*
X158446759Y-105531805D01*
X158446759Y-105531805D02*
X158446759Y-105293710D01*
X158446759Y-105293710D02*
X158399140Y-105198472D01*
X158399140Y-105198472D02*
X158351520Y-105150853D01*
X158351520Y-105150853D02*
X158256282Y-105103234D01*
X158256282Y-105103234D02*
X158161044Y-105103234D01*
X158161044Y-105103234D02*
X158065806Y-105150853D01*
X158065806Y-105150853D02*
X158018187Y-105198472D01*
X158018187Y-105198472D02*
X157970568Y-105293710D01*
X157970568Y-105293710D02*
X157922949Y-105484186D01*
X157922949Y-105484186D02*
X157875330Y-105579424D01*
X157875330Y-105579424D02*
X157827711Y-105627043D01*
X157827711Y-105627043D02*
X157732473Y-105674662D01*
X157732473Y-105674662D02*
X157637235Y-105674662D01*
X157637235Y-105674662D02*
X157541997Y-105627043D01*
X157541997Y-105627043D02*
X157494378Y-105579424D01*
X157494378Y-105579424D02*
X157446759Y-105484186D01*
X157446759Y-105484186D02*
X157446759Y-105246091D01*
X157446759Y-105246091D02*
X157494378Y-105103234D01*
X158351520Y-104103234D02*
X158399140Y-104150853D01*
X158399140Y-104150853D02*
X158446759Y-104293710D01*
X158446759Y-104293710D02*
X158446759Y-104388948D01*
X158446759Y-104388948D02*
X158399140Y-104531805D01*
X158399140Y-104531805D02*
X158303901Y-104627043D01*
X158303901Y-104627043D02*
X158208663Y-104674662D01*
X158208663Y-104674662D02*
X158018187Y-104722281D01*
X158018187Y-104722281D02*
X157875330Y-104722281D01*
X157875330Y-104722281D02*
X157684854Y-104674662D01*
X157684854Y-104674662D02*
X157589616Y-104627043D01*
X157589616Y-104627043D02*
X157494378Y-104531805D01*
X157494378Y-104531805D02*
X157446759Y-104388948D01*
X157446759Y-104388948D02*
X157446759Y-104293710D01*
X157446759Y-104293710D02*
X157494378Y-104150853D01*
X157494378Y-104150853D02*
X157541997Y-104103234D01*
X158446759Y-103198472D02*
X158446759Y-103674662D01*
X158446759Y-103674662D02*
X157446759Y-103674662D01*
X159652778Y-105722281D02*
X159700397Y-105579424D01*
X159700397Y-105579424D02*
X159700397Y-105341329D01*
X159700397Y-105341329D02*
X159652778Y-105246091D01*
X159652778Y-105246091D02*
X159605158Y-105198472D01*
X159605158Y-105198472D02*
X159509920Y-105150853D01*
X159509920Y-105150853D02*
X159414682Y-105150853D01*
X159414682Y-105150853D02*
X159319444Y-105198472D01*
X159319444Y-105198472D02*
X159271825Y-105246091D01*
X159271825Y-105246091D02*
X159224206Y-105341329D01*
X159224206Y-105341329D02*
X159176587Y-105531805D01*
X159176587Y-105531805D02*
X159128968Y-105627043D01*
X159128968Y-105627043D02*
X159081349Y-105674662D01*
X159081349Y-105674662D02*
X158986111Y-105722281D01*
X158986111Y-105722281D02*
X158890873Y-105722281D01*
X158890873Y-105722281D02*
X158795635Y-105674662D01*
X158795635Y-105674662D02*
X158748016Y-105627043D01*
X158748016Y-105627043D02*
X158700397Y-105531805D01*
X158700397Y-105531805D02*
X158700397Y-105293710D01*
X158700397Y-105293710D02*
X158748016Y-105150853D01*
X159700397Y-104722281D02*
X158700397Y-104722281D01*
X158700397Y-104722281D02*
X158700397Y-104484186D01*
X158700397Y-104484186D02*
X158748016Y-104341329D01*
X158748016Y-104341329D02*
X158843254Y-104246091D01*
X158843254Y-104246091D02*
X158938492Y-104198472D01*
X158938492Y-104198472D02*
X159128968Y-104150853D01*
X159128968Y-104150853D02*
X159271825Y-104150853D01*
X159271825Y-104150853D02*
X159462301Y-104198472D01*
X159462301Y-104198472D02*
X159557539Y-104246091D01*
X159557539Y-104246091D02*
X159652778Y-104341329D01*
X159652778Y-104341329D02*
X159700397Y-104484186D01*
X159700397Y-104484186D02*
X159700397Y-104722281D01*
X159414682Y-103769900D02*
X159414682Y-103293710D01*
X159700397Y-103865138D02*
X158700397Y-103531805D01*
X158700397Y-103531805D02*
X159700397Y-103198472D01*
D11*
X156249030Y-148565501D02*
X156249030Y-147265501D01*
X156868078Y-148565501D02*
X156868078Y-147265501D01*
X156868078Y-147265501D02*
X157177602Y-147265501D01*
X157177602Y-147265501D02*
X157363316Y-147327406D01*
X157363316Y-147327406D02*
X157487126Y-147451216D01*
X157487126Y-147451216D02*
X157549031Y-147575025D01*
X157549031Y-147575025D02*
X157610935Y-147822644D01*
X157610935Y-147822644D02*
X157610935Y-148008358D01*
X157610935Y-148008358D02*
X157549031Y-148255977D01*
X157549031Y-148255977D02*
X157487126Y-148379787D01*
X157487126Y-148379787D02*
X157363316Y-148503597D01*
X157363316Y-148503597D02*
X157177602Y-148565501D01*
X157177602Y-148565501D02*
X156868078Y-148565501D01*
X158168078Y-147884549D02*
X158601412Y-147884549D01*
X158787126Y-148565501D02*
X158168078Y-148565501D01*
X158168078Y-148565501D02*
X158168078Y-147265501D01*
X158168078Y-147265501D02*
X158787126Y-147265501D01*
X158601412Y-146770263D02*
X158415697Y-146955977D01*
X159777602Y-147884549D02*
X159344268Y-147884549D01*
X159344268Y-148565501D02*
X159344268Y-147265501D01*
X159344268Y-147265501D02*
X159963316Y-147265501D01*
X160458554Y-148565501D02*
X160458554Y-147265501D01*
X160953793Y-147265501D02*
X161820459Y-148565501D01*
X161820459Y-147265501D02*
X160953793Y-148565501D01*
X163120459Y-147265501D02*
X163553792Y-148565501D01*
X163553792Y-148565501D02*
X163987126Y-147265501D01*
X164358555Y-147389311D02*
X164420459Y-147327406D01*
X164420459Y-147327406D02*
X164544269Y-147265501D01*
X164544269Y-147265501D02*
X164853793Y-147265501D01*
X164853793Y-147265501D02*
X164977602Y-147327406D01*
X164977602Y-147327406D02*
X165039507Y-147389311D01*
X165039507Y-147389311D02*
X165101412Y-147513120D01*
X165101412Y-147513120D02*
X165101412Y-147636930D01*
X165101412Y-147636930D02*
X165039507Y-147822644D01*
X165039507Y-147822644D02*
X164296650Y-148565501D01*
X164296650Y-148565501D02*
X165101412Y-148565501D01*
X166649030Y-148070263D02*
X167639507Y-148070263D01*
X169249030Y-148565501D02*
X169249030Y-147265501D01*
X169868078Y-147698835D02*
X169868078Y-148565501D01*
X169868078Y-147822644D02*
X169929983Y-147760739D01*
X169929983Y-147760739D02*
X170053793Y-147698835D01*
X170053793Y-147698835D02*
X170239507Y-147698835D01*
X170239507Y-147698835D02*
X170363316Y-147760739D01*
X170363316Y-147760739D02*
X170425221Y-147884549D01*
X170425221Y-147884549D02*
X170425221Y-148565501D01*
X170858554Y-147698835D02*
X171353792Y-147698835D01*
X171044268Y-147265501D02*
X171044268Y-148379787D01*
X171044268Y-148379787D02*
X171106173Y-148503597D01*
X171106173Y-148503597D02*
X171229983Y-148565501D01*
X171229983Y-148565501D02*
X171353792Y-148565501D01*
X172282363Y-148503597D02*
X172158554Y-148565501D01*
X172158554Y-148565501D02*
X171910935Y-148565501D01*
X171910935Y-148565501D02*
X171787125Y-148503597D01*
X171787125Y-148503597D02*
X171725221Y-148379787D01*
X171725221Y-148379787D02*
X171725221Y-147884549D01*
X171725221Y-147884549D02*
X171787125Y-147760739D01*
X171787125Y-147760739D02*
X171910935Y-147698835D01*
X171910935Y-147698835D02*
X172158554Y-147698835D01*
X172158554Y-147698835D02*
X172282363Y-147760739D01*
X172282363Y-147760739D02*
X172344268Y-147884549D01*
X172344268Y-147884549D02*
X172344268Y-148008358D01*
X172344268Y-148008358D02*
X171725221Y-148132168D01*
X172901411Y-148565501D02*
X172901411Y-147698835D01*
X172901411Y-147946454D02*
X172963316Y-147822644D01*
X172963316Y-147822644D02*
X173025221Y-147760739D01*
X173025221Y-147760739D02*
X173149030Y-147698835D01*
X173149030Y-147698835D02*
X173272840Y-147698835D01*
X173520459Y-147698835D02*
X174015697Y-147698835D01*
X173706173Y-148565501D02*
X173706173Y-147451216D01*
X173706173Y-147451216D02*
X173768078Y-147327406D01*
X173768078Y-147327406D02*
X173891888Y-147265501D01*
X173891888Y-147265501D02*
X174015697Y-147265501D01*
X175006173Y-148565501D02*
X175006173Y-147884549D01*
X175006173Y-147884549D02*
X174944268Y-147760739D01*
X174944268Y-147760739D02*
X174820459Y-147698835D01*
X174820459Y-147698835D02*
X174572840Y-147698835D01*
X174572840Y-147698835D02*
X174449030Y-147760739D01*
X175006173Y-148503597D02*
X174882364Y-148565501D01*
X174882364Y-148565501D02*
X174572840Y-148565501D01*
X174572840Y-148565501D02*
X174449030Y-148503597D01*
X174449030Y-148503597D02*
X174387126Y-148379787D01*
X174387126Y-148379787D02*
X174387126Y-148255977D01*
X174387126Y-148255977D02*
X174449030Y-148132168D01*
X174449030Y-148132168D02*
X174572840Y-148070263D01*
X174572840Y-148070263D02*
X174882364Y-148070263D01*
X174882364Y-148070263D02*
X175006173Y-148008358D01*
X176182363Y-148503597D02*
X176058554Y-148565501D01*
X176058554Y-148565501D02*
X175810935Y-148565501D01*
X175810935Y-148565501D02*
X175687125Y-148503597D01*
X175687125Y-148503597D02*
X175625220Y-148441692D01*
X175625220Y-148441692D02*
X175563316Y-148317882D01*
X175563316Y-148317882D02*
X175563316Y-147946454D01*
X175563316Y-147946454D02*
X175625220Y-147822644D01*
X175625220Y-147822644D02*
X175687125Y-147760739D01*
X175687125Y-147760739D02*
X175810935Y-147698835D01*
X175810935Y-147698835D02*
X176058554Y-147698835D01*
X176058554Y-147698835D02*
X176182363Y-147760739D01*
X177234744Y-148503597D02*
X177110935Y-148565501D01*
X177110935Y-148565501D02*
X176863316Y-148565501D01*
X176863316Y-148565501D02*
X176739506Y-148503597D01*
X176739506Y-148503597D02*
X176677602Y-148379787D01*
X176677602Y-148379787D02*
X176677602Y-147884549D01*
X176677602Y-147884549D02*
X176739506Y-147760739D01*
X176739506Y-147760739D02*
X176863316Y-147698835D01*
X176863316Y-147698835D02*
X177110935Y-147698835D01*
X177110935Y-147698835D02*
X177234744Y-147760739D01*
X177234744Y-147760739D02*
X177296649Y-147884549D01*
X177296649Y-147884549D02*
X177296649Y-148008358D01*
X177296649Y-148008358D02*
X176677602Y-148132168D01*
X179277602Y-147884549D02*
X179463316Y-147946454D01*
X179463316Y-147946454D02*
X179525221Y-148008358D01*
X179525221Y-148008358D02*
X179587125Y-148132168D01*
X179587125Y-148132168D02*
X179587125Y-148317882D01*
X179587125Y-148317882D02*
X179525221Y-148441692D01*
X179525221Y-148441692D02*
X179463316Y-148503597D01*
X179463316Y-148503597D02*
X179339506Y-148565501D01*
X179339506Y-148565501D02*
X178844268Y-148565501D01*
X178844268Y-148565501D02*
X178844268Y-147265501D01*
X178844268Y-147265501D02*
X179277602Y-147265501D01*
X179277602Y-147265501D02*
X179401411Y-147327406D01*
X179401411Y-147327406D02*
X179463316Y-147389311D01*
X179463316Y-147389311D02*
X179525221Y-147513120D01*
X179525221Y-147513120D02*
X179525221Y-147636930D01*
X179525221Y-147636930D02*
X179463316Y-147760739D01*
X179463316Y-147760739D02*
X179401411Y-147822644D01*
X179401411Y-147822644D02*
X179277602Y-147884549D01*
X179277602Y-147884549D02*
X178844268Y-147884549D01*
X180329983Y-148565501D02*
X180206173Y-148503597D01*
X180206173Y-148503597D02*
X180144268Y-148441692D01*
X180144268Y-148441692D02*
X180082364Y-148317882D01*
X180082364Y-148317882D02*
X180082364Y-147946454D01*
X180082364Y-147946454D02*
X180144268Y-147822644D01*
X180144268Y-147822644D02*
X180206173Y-147760739D01*
X180206173Y-147760739D02*
X180329983Y-147698835D01*
X180329983Y-147698835D02*
X180515697Y-147698835D01*
X180515697Y-147698835D02*
X180639506Y-147760739D01*
X180639506Y-147760739D02*
X180701411Y-147822644D01*
X180701411Y-147822644D02*
X180763316Y-147946454D01*
X180763316Y-147946454D02*
X180763316Y-148317882D01*
X180763316Y-148317882D02*
X180701411Y-148441692D01*
X180701411Y-148441692D02*
X180639506Y-148503597D01*
X180639506Y-148503597D02*
X180515697Y-148565501D01*
X180515697Y-148565501D02*
X180329983Y-148565501D01*
X181877601Y-148565501D02*
X181877601Y-147884549D01*
X181877601Y-147884549D02*
X181815696Y-147760739D01*
X181815696Y-147760739D02*
X181691887Y-147698835D01*
X181691887Y-147698835D02*
X181444268Y-147698835D01*
X181444268Y-147698835D02*
X181320458Y-147760739D01*
X181877601Y-148503597D02*
X181753792Y-148565501D01*
X181753792Y-148565501D02*
X181444268Y-148565501D01*
X181444268Y-148565501D02*
X181320458Y-148503597D01*
X181320458Y-148503597D02*
X181258554Y-148379787D01*
X181258554Y-148379787D02*
X181258554Y-148255977D01*
X181258554Y-148255977D02*
X181320458Y-148132168D01*
X181320458Y-148132168D02*
X181444268Y-148070263D01*
X181444268Y-148070263D02*
X181753792Y-148070263D01*
X181753792Y-148070263D02*
X181877601Y-148008358D01*
X182496648Y-148565501D02*
X182496648Y-147698835D01*
X182496648Y-147946454D02*
X182558553Y-147822644D01*
X182558553Y-147822644D02*
X182620458Y-147760739D01*
X182620458Y-147760739D02*
X182744267Y-147698835D01*
X182744267Y-147698835D02*
X182868077Y-147698835D01*
X183858553Y-148565501D02*
X183858553Y-147265501D01*
X183858553Y-148503597D02*
X183734744Y-148565501D01*
X183734744Y-148565501D02*
X183487125Y-148565501D01*
X183487125Y-148565501D02*
X183363315Y-148503597D01*
X183363315Y-148503597D02*
X183301410Y-148441692D01*
X183301410Y-148441692D02*
X183239506Y-148317882D01*
X183239506Y-148317882D02*
X183239506Y-147946454D01*
X183239506Y-147946454D02*
X183301410Y-147822644D01*
X183301410Y-147822644D02*
X183363315Y-147760739D01*
X183363315Y-147760739D02*
X183487125Y-147698835D01*
X183487125Y-147698835D02*
X183734744Y-147698835D01*
X183734744Y-147698835D02*
X183858553Y-147760739D01*
X156249030Y-149977476D02*
X156682364Y-149977476D01*
X156868078Y-150658428D02*
X156249030Y-150658428D01*
X156249030Y-150658428D02*
X156249030Y-149358428D01*
X156249030Y-149358428D02*
X156868078Y-149358428D01*
X157363316Y-149482238D02*
X157425220Y-149420333D01*
X157425220Y-149420333D02*
X157549030Y-149358428D01*
X157549030Y-149358428D02*
X157858554Y-149358428D01*
X157858554Y-149358428D02*
X157982363Y-149420333D01*
X157982363Y-149420333D02*
X158044268Y-149482238D01*
X158044268Y-149482238D02*
X158106173Y-149606047D01*
X158106173Y-149606047D02*
X158106173Y-149729857D01*
X158106173Y-149729857D02*
X158044268Y-149915571D01*
X158044268Y-149915571D02*
X157301411Y-150658428D01*
X157301411Y-150658428D02*
X158106173Y-150658428D01*
X158910934Y-149358428D02*
X159034744Y-149358428D01*
X159034744Y-149358428D02*
X159158553Y-149420333D01*
X159158553Y-149420333D02*
X159220458Y-149482238D01*
X159220458Y-149482238D02*
X159282363Y-149606047D01*
X159282363Y-149606047D02*
X159344268Y-149853666D01*
X159344268Y-149853666D02*
X159344268Y-150163190D01*
X159344268Y-150163190D02*
X159282363Y-150410809D01*
X159282363Y-150410809D02*
X159220458Y-150534619D01*
X159220458Y-150534619D02*
X159158553Y-150596524D01*
X159158553Y-150596524D02*
X159034744Y-150658428D01*
X159034744Y-150658428D02*
X158910934Y-150658428D01*
X158910934Y-150658428D02*
X158787125Y-150596524D01*
X158787125Y-150596524D02*
X158725220Y-150534619D01*
X158725220Y-150534619D02*
X158663315Y-150410809D01*
X158663315Y-150410809D02*
X158601411Y-150163190D01*
X158601411Y-150163190D02*
X158601411Y-149853666D01*
X158601411Y-149853666D02*
X158663315Y-149606047D01*
X158663315Y-149606047D02*
X158725220Y-149482238D01*
X158725220Y-149482238D02*
X158787125Y-149420333D01*
X158787125Y-149420333D02*
X158910934Y-149358428D01*
X159839506Y-149482238D02*
X159901410Y-149420333D01*
X159901410Y-149420333D02*
X160025220Y-149358428D01*
X160025220Y-149358428D02*
X160334744Y-149358428D01*
X160334744Y-149358428D02*
X160458553Y-149420333D01*
X160458553Y-149420333D02*
X160520458Y-149482238D01*
X160520458Y-149482238D02*
X160582363Y-149606047D01*
X160582363Y-149606047D02*
X160582363Y-149729857D01*
X160582363Y-149729857D02*
X160520458Y-149915571D01*
X160520458Y-149915571D02*
X159777601Y-150658428D01*
X159777601Y-150658428D02*
X160582363Y-150658428D01*
X161758553Y-149358428D02*
X161139505Y-149358428D01*
X161139505Y-149358428D02*
X161077601Y-149977476D01*
X161077601Y-149977476D02*
X161139505Y-149915571D01*
X161139505Y-149915571D02*
X161263315Y-149853666D01*
X161263315Y-149853666D02*
X161572839Y-149853666D01*
X161572839Y-149853666D02*
X161696648Y-149915571D01*
X161696648Y-149915571D02*
X161758553Y-149977476D01*
X161758553Y-149977476D02*
X161820458Y-150101285D01*
X161820458Y-150101285D02*
X161820458Y-150410809D01*
X161820458Y-150410809D02*
X161758553Y-150534619D01*
X161758553Y-150534619D02*
X161696648Y-150596524D01*
X161696648Y-150596524D02*
X161572839Y-150658428D01*
X161572839Y-150658428D02*
X161263315Y-150658428D01*
X161263315Y-150658428D02*
X161139505Y-150596524D01*
X161139505Y-150596524D02*
X161077601Y-150534619D01*
X156063316Y-151451355D02*
X156496649Y-152751355D01*
X156496649Y-152751355D02*
X156929983Y-151451355D01*
X157363316Y-152751355D02*
X157363316Y-151884689D01*
X157363316Y-151451355D02*
X157301412Y-151513260D01*
X157301412Y-151513260D02*
X157363316Y-151575165D01*
X157363316Y-151575165D02*
X157425221Y-151513260D01*
X157425221Y-151513260D02*
X157363316Y-151451355D01*
X157363316Y-151451355D02*
X157363316Y-151575165D01*
X158539507Y-152689451D02*
X158415698Y-152751355D01*
X158415698Y-152751355D02*
X158168079Y-152751355D01*
X158168079Y-152751355D02*
X158044269Y-152689451D01*
X158044269Y-152689451D02*
X157982364Y-152627546D01*
X157982364Y-152627546D02*
X157920460Y-152503736D01*
X157920460Y-152503736D02*
X157920460Y-152132308D01*
X157920460Y-152132308D02*
X157982364Y-152008498D01*
X157982364Y-152008498D02*
X158044269Y-151946593D01*
X158044269Y-151946593D02*
X158168079Y-151884689D01*
X158168079Y-151884689D02*
X158415698Y-151884689D01*
X158415698Y-151884689D02*
X158539507Y-151946593D01*
X158910936Y-151884689D02*
X159406174Y-151884689D01*
X159096650Y-151451355D02*
X159096650Y-152565641D01*
X159096650Y-152565641D02*
X159158555Y-152689451D01*
X159158555Y-152689451D02*
X159282365Y-152751355D01*
X159282365Y-152751355D02*
X159406174Y-152751355D01*
X160025222Y-152751355D02*
X159901412Y-152689451D01*
X159901412Y-152689451D02*
X159839507Y-152627546D01*
X159839507Y-152627546D02*
X159777603Y-152503736D01*
X159777603Y-152503736D02*
X159777603Y-152132308D01*
X159777603Y-152132308D02*
X159839507Y-152008498D01*
X159839507Y-152008498D02*
X159901412Y-151946593D01*
X159901412Y-151946593D02*
X160025222Y-151884689D01*
X160025222Y-151884689D02*
X160210936Y-151884689D01*
X160210936Y-151884689D02*
X160334745Y-151946593D01*
X160334745Y-151946593D02*
X160396650Y-152008498D01*
X160396650Y-152008498D02*
X160458555Y-152132308D01*
X160458555Y-152132308D02*
X160458555Y-152503736D01*
X160458555Y-152503736D02*
X160396650Y-152627546D01*
X160396650Y-152627546D02*
X160334745Y-152689451D01*
X160334745Y-152689451D02*
X160210936Y-152751355D01*
X160210936Y-152751355D02*
X160025222Y-152751355D01*
X161015697Y-152751355D02*
X161015697Y-151884689D01*
X161015697Y-152132308D02*
X161077602Y-152008498D01*
X161077602Y-152008498D02*
X161139507Y-151946593D01*
X161139507Y-151946593D02*
X161263316Y-151884689D01*
X161263316Y-151884689D02*
X161387126Y-151884689D01*
X162810935Y-152751355D02*
X162810935Y-151451355D01*
X162810935Y-151451355D02*
X163120459Y-151451355D01*
X163120459Y-151451355D02*
X163306173Y-151513260D01*
X163306173Y-151513260D02*
X163429983Y-151637070D01*
X163429983Y-151637070D02*
X163491888Y-151760879D01*
X163491888Y-151760879D02*
X163553792Y-152008498D01*
X163553792Y-152008498D02*
X163553792Y-152194212D01*
X163553792Y-152194212D02*
X163491888Y-152441831D01*
X163491888Y-152441831D02*
X163429983Y-152565641D01*
X163429983Y-152565641D02*
X163306173Y-152689451D01*
X163306173Y-152689451D02*
X163120459Y-152751355D01*
X163120459Y-152751355D02*
X162810935Y-152751355D01*
X164606173Y-152689451D02*
X164482364Y-152751355D01*
X164482364Y-152751355D02*
X164234745Y-152751355D01*
X164234745Y-152751355D02*
X164110935Y-152689451D01*
X164110935Y-152689451D02*
X164049031Y-152565641D01*
X164049031Y-152565641D02*
X164049031Y-152070403D01*
X164049031Y-152070403D02*
X164110935Y-151946593D01*
X164110935Y-151946593D02*
X164234745Y-151884689D01*
X164234745Y-151884689D02*
X164482364Y-151884689D01*
X164482364Y-151884689D02*
X164606173Y-151946593D01*
X164606173Y-151946593D02*
X164668078Y-152070403D01*
X164668078Y-152070403D02*
X164668078Y-152194212D01*
X164668078Y-152194212D02*
X164049031Y-152318022D01*
X165163317Y-152689451D02*
X165287126Y-152751355D01*
X165287126Y-152751355D02*
X165534745Y-152751355D01*
X165534745Y-152751355D02*
X165658555Y-152689451D01*
X165658555Y-152689451D02*
X165720459Y-152565641D01*
X165720459Y-152565641D02*
X165720459Y-152503736D01*
X165720459Y-152503736D02*
X165658555Y-152379927D01*
X165658555Y-152379927D02*
X165534745Y-152318022D01*
X165534745Y-152318022D02*
X165349031Y-152318022D01*
X165349031Y-152318022D02*
X165225221Y-152256117D01*
X165225221Y-152256117D02*
X165163317Y-152132308D01*
X165163317Y-152132308D02*
X165163317Y-152070403D01*
X165163317Y-152070403D02*
X165225221Y-151946593D01*
X165225221Y-151946593D02*
X165349031Y-151884689D01*
X165349031Y-151884689D02*
X165534745Y-151884689D01*
X165534745Y-151884689D02*
X165658555Y-151946593D01*
X166834745Y-152689451D02*
X166710936Y-152751355D01*
X166710936Y-152751355D02*
X166463317Y-152751355D01*
X166463317Y-152751355D02*
X166339507Y-152689451D01*
X166339507Y-152689451D02*
X166277602Y-152627546D01*
X166277602Y-152627546D02*
X166215698Y-152503736D01*
X166215698Y-152503736D02*
X166215698Y-152132308D01*
X166215698Y-152132308D02*
X166277602Y-152008498D01*
X166277602Y-152008498D02*
X166339507Y-151946593D01*
X166339507Y-151946593D02*
X166463317Y-151884689D01*
X166463317Y-151884689D02*
X166710936Y-151884689D01*
X166710936Y-151884689D02*
X166834745Y-151946593D01*
X167391888Y-152751355D02*
X167391888Y-151451355D01*
X167949031Y-152751355D02*
X167949031Y-152070403D01*
X167949031Y-152070403D02*
X167887126Y-151946593D01*
X167887126Y-151946593D02*
X167763317Y-151884689D01*
X167763317Y-151884689D02*
X167577603Y-151884689D01*
X167577603Y-151884689D02*
X167453793Y-151946593D01*
X167453793Y-151946593D02*
X167391888Y-152008498D01*
X169063316Y-152689451D02*
X168939507Y-152751355D01*
X168939507Y-152751355D02*
X168691888Y-152751355D01*
X168691888Y-152751355D02*
X168568078Y-152689451D01*
X168568078Y-152689451D02*
X168506174Y-152565641D01*
X168506174Y-152565641D02*
X168506174Y-152070403D01*
X168506174Y-152070403D02*
X168568078Y-151946593D01*
X168568078Y-151946593D02*
X168691888Y-151884689D01*
X168691888Y-151884689D02*
X168939507Y-151884689D01*
X168939507Y-151884689D02*
X169063316Y-151946593D01*
X169063316Y-151946593D02*
X169125221Y-152070403D01*
X169125221Y-152070403D02*
X169125221Y-152194212D01*
X169125221Y-152194212D02*
X168506174Y-152318022D01*
X168568078Y-151575165D02*
X168815697Y-151389451D01*
X168815697Y-151389451D02*
X169063316Y-151575165D01*
X169682364Y-151884689D02*
X169682364Y-152751355D01*
X169682364Y-152008498D02*
X169744269Y-151946593D01*
X169744269Y-151946593D02*
X169868079Y-151884689D01*
X169868079Y-151884689D02*
X170053793Y-151884689D01*
X170053793Y-151884689D02*
X170177602Y-151946593D01*
X170177602Y-151946593D02*
X170239507Y-152070403D01*
X170239507Y-152070403D02*
X170239507Y-152751355D01*
X171353792Y-152689451D02*
X171229983Y-152751355D01*
X171229983Y-152751355D02*
X170982364Y-152751355D01*
X170982364Y-152751355D02*
X170858554Y-152689451D01*
X170858554Y-152689451D02*
X170796650Y-152565641D01*
X170796650Y-152565641D02*
X170796650Y-152070403D01*
X170796650Y-152070403D02*
X170858554Y-151946593D01*
X170858554Y-151946593D02*
X170982364Y-151884689D01*
X170982364Y-151884689D02*
X171229983Y-151884689D01*
X171229983Y-151884689D02*
X171353792Y-151946593D01*
X171353792Y-151946593D02*
X171415697Y-152070403D01*
X171415697Y-152070403D02*
X171415697Y-152194212D01*
X171415697Y-152194212D02*
X170796650Y-152318022D01*
X171910936Y-152689451D02*
X172034745Y-152751355D01*
X172034745Y-152751355D02*
X172282364Y-152751355D01*
X172282364Y-152751355D02*
X172406174Y-152689451D01*
X172406174Y-152689451D02*
X172468078Y-152565641D01*
X172468078Y-152565641D02*
X172468078Y-152503736D01*
X172468078Y-152503736D02*
X172406174Y-152379927D01*
X172406174Y-152379927D02*
X172282364Y-152318022D01*
X172282364Y-152318022D02*
X172096650Y-152318022D01*
X172096650Y-152318022D02*
X171972840Y-152256117D01*
X171972840Y-152256117D02*
X171910936Y-152132308D01*
X171910936Y-152132308D02*
X171910936Y-152070403D01*
X171910936Y-152070403D02*
X171972840Y-151946593D01*
X171972840Y-151946593D02*
X172096650Y-151884689D01*
X172096650Y-151884689D02*
X172282364Y-151884689D01*
X172282364Y-151884689D02*
X172406174Y-151946593D01*
X156991887Y-154720473D02*
X156929983Y-154782378D01*
X156929983Y-154782378D02*
X156744268Y-154844282D01*
X156744268Y-154844282D02*
X156620459Y-154844282D01*
X156620459Y-154844282D02*
X156434745Y-154782378D01*
X156434745Y-154782378D02*
X156310935Y-154658568D01*
X156310935Y-154658568D02*
X156249030Y-154534758D01*
X156249030Y-154534758D02*
X156187126Y-154287139D01*
X156187126Y-154287139D02*
X156187126Y-154101425D01*
X156187126Y-154101425D02*
X156249030Y-153853806D01*
X156249030Y-153853806D02*
X156310935Y-153729997D01*
X156310935Y-153729997D02*
X156434745Y-153606187D01*
X156434745Y-153606187D02*
X156620459Y-153544282D01*
X156620459Y-153544282D02*
X156744268Y-153544282D01*
X156744268Y-153544282D02*
X156929983Y-153606187D01*
X156929983Y-153606187D02*
X156991887Y-153668092D01*
X157549030Y-154844282D02*
X157549030Y-153544282D01*
X158106173Y-154844282D02*
X158106173Y-154163330D01*
X158106173Y-154163330D02*
X158044268Y-154039520D01*
X158044268Y-154039520D02*
X157920459Y-153977616D01*
X157920459Y-153977616D02*
X157734745Y-153977616D01*
X157734745Y-153977616D02*
X157610935Y-154039520D01*
X157610935Y-154039520D02*
X157549030Y-154101425D01*
X158725220Y-154844282D02*
X158725220Y-153977616D01*
X158725220Y-154225235D02*
X158787125Y-154101425D01*
X158787125Y-154101425D02*
X158849030Y-154039520D01*
X158849030Y-154039520D02*
X158972839Y-153977616D01*
X158972839Y-153977616D02*
X159096649Y-153977616D01*
X159529982Y-154844282D02*
X159529982Y-153977616D01*
X159529982Y-153544282D02*
X159468078Y-153606187D01*
X159468078Y-153606187D02*
X159529982Y-153668092D01*
X159529982Y-153668092D02*
X159591887Y-153606187D01*
X159591887Y-153606187D02*
X159529982Y-153544282D01*
X159529982Y-153544282D02*
X159529982Y-153668092D01*
X160087126Y-154782378D02*
X160210935Y-154844282D01*
X160210935Y-154844282D02*
X160458554Y-154844282D01*
X160458554Y-154844282D02*
X160582364Y-154782378D01*
X160582364Y-154782378D02*
X160644268Y-154658568D01*
X160644268Y-154658568D02*
X160644268Y-154596663D01*
X160644268Y-154596663D02*
X160582364Y-154472854D01*
X160582364Y-154472854D02*
X160458554Y-154410949D01*
X160458554Y-154410949D02*
X160272840Y-154410949D01*
X160272840Y-154410949D02*
X160149030Y-154349044D01*
X160149030Y-154349044D02*
X160087126Y-154225235D01*
X160087126Y-154225235D02*
X160087126Y-154163330D01*
X160087126Y-154163330D02*
X160149030Y-154039520D01*
X160149030Y-154039520D02*
X160272840Y-153977616D01*
X160272840Y-153977616D02*
X160458554Y-153977616D01*
X160458554Y-153977616D02*
X160582364Y-154039520D01*
X161015697Y-153977616D02*
X161510935Y-153977616D01*
X161201411Y-153544282D02*
X161201411Y-154658568D01*
X161201411Y-154658568D02*
X161263316Y-154782378D01*
X161263316Y-154782378D02*
X161387126Y-154844282D01*
X161387126Y-154844282D02*
X161510935Y-154844282D01*
X162129983Y-154844282D02*
X162006173Y-154782378D01*
X162006173Y-154782378D02*
X161944268Y-154720473D01*
X161944268Y-154720473D02*
X161882364Y-154596663D01*
X161882364Y-154596663D02*
X161882364Y-154225235D01*
X161882364Y-154225235D02*
X161944268Y-154101425D01*
X161944268Y-154101425D02*
X162006173Y-154039520D01*
X162006173Y-154039520D02*
X162129983Y-153977616D01*
X162129983Y-153977616D02*
X162315697Y-153977616D01*
X162315697Y-153977616D02*
X162439506Y-154039520D01*
X162439506Y-154039520D02*
X162501411Y-154101425D01*
X162501411Y-154101425D02*
X162563316Y-154225235D01*
X162563316Y-154225235D02*
X162563316Y-154596663D01*
X162563316Y-154596663D02*
X162501411Y-154720473D01*
X162501411Y-154720473D02*
X162439506Y-154782378D01*
X162439506Y-154782378D02*
X162315697Y-154844282D01*
X162315697Y-154844282D02*
X162129983Y-154844282D01*
X163120458Y-153977616D02*
X163120458Y-155277616D01*
X163120458Y-154039520D02*
X163244268Y-153977616D01*
X163244268Y-153977616D02*
X163491887Y-153977616D01*
X163491887Y-153977616D02*
X163615696Y-154039520D01*
X163615696Y-154039520D02*
X163677601Y-154101425D01*
X163677601Y-154101425D02*
X163739506Y-154225235D01*
X163739506Y-154225235D02*
X163739506Y-154596663D01*
X163739506Y-154596663D02*
X163677601Y-154720473D01*
X163677601Y-154720473D02*
X163615696Y-154782378D01*
X163615696Y-154782378D02*
X163491887Y-154844282D01*
X163491887Y-154844282D02*
X163244268Y-154844282D01*
X163244268Y-154844282D02*
X163120458Y-154782378D01*
X164296648Y-154844282D02*
X164296648Y-153544282D01*
X164853791Y-154844282D02*
X164853791Y-154163330D01*
X164853791Y-154163330D02*
X164791886Y-154039520D01*
X164791886Y-154039520D02*
X164668077Y-153977616D01*
X164668077Y-153977616D02*
X164482363Y-153977616D01*
X164482363Y-153977616D02*
X164358553Y-154039520D01*
X164358553Y-154039520D02*
X164296648Y-154101425D01*
X165968076Y-154782378D02*
X165844267Y-154844282D01*
X165844267Y-154844282D02*
X165596648Y-154844282D01*
X165596648Y-154844282D02*
X165472838Y-154782378D01*
X165472838Y-154782378D02*
X165410934Y-154658568D01*
X165410934Y-154658568D02*
X165410934Y-154163330D01*
X165410934Y-154163330D02*
X165472838Y-154039520D01*
X165472838Y-154039520D02*
X165596648Y-153977616D01*
X165596648Y-153977616D02*
X165844267Y-153977616D01*
X165844267Y-153977616D02*
X165968076Y-154039520D01*
X165968076Y-154039520D02*
X166029981Y-154163330D01*
X166029981Y-154163330D02*
X166029981Y-154287139D01*
X166029981Y-154287139D02*
X165410934Y-154410949D01*
X166587124Y-154844282D02*
X166587124Y-153977616D01*
X166587124Y-154225235D02*
X166649029Y-154101425D01*
X166649029Y-154101425D02*
X166710934Y-154039520D01*
X166710934Y-154039520D02*
X166834743Y-153977616D01*
X166834743Y-153977616D02*
X166958553Y-153977616D01*
X168320458Y-154782378D02*
X168506172Y-154844282D01*
X168506172Y-154844282D02*
X168815696Y-154844282D01*
X168815696Y-154844282D02*
X168939505Y-154782378D01*
X168939505Y-154782378D02*
X169001410Y-154720473D01*
X169001410Y-154720473D02*
X169063315Y-154596663D01*
X169063315Y-154596663D02*
X169063315Y-154472854D01*
X169063315Y-154472854D02*
X169001410Y-154349044D01*
X169001410Y-154349044D02*
X168939505Y-154287139D01*
X168939505Y-154287139D02*
X168815696Y-154225235D01*
X168815696Y-154225235D02*
X168568077Y-154163330D01*
X168568077Y-154163330D02*
X168444267Y-154101425D01*
X168444267Y-154101425D02*
X168382362Y-154039520D01*
X168382362Y-154039520D02*
X168320458Y-153915711D01*
X168320458Y-153915711D02*
X168320458Y-153791901D01*
X168320458Y-153791901D02*
X168382362Y-153668092D01*
X168382362Y-153668092D02*
X168444267Y-153606187D01*
X168444267Y-153606187D02*
X168568077Y-153544282D01*
X168568077Y-153544282D02*
X168877600Y-153544282D01*
X168877600Y-153544282D02*
X169063315Y-153606187D01*
X169620457Y-154844282D02*
X169620457Y-153977616D01*
X169620457Y-154101425D02*
X169682362Y-154039520D01*
X169682362Y-154039520D02*
X169806172Y-153977616D01*
X169806172Y-153977616D02*
X169991886Y-153977616D01*
X169991886Y-153977616D02*
X170115695Y-154039520D01*
X170115695Y-154039520D02*
X170177600Y-154163330D01*
X170177600Y-154163330D02*
X170177600Y-154844282D01*
X170177600Y-154163330D02*
X170239505Y-154039520D01*
X170239505Y-154039520D02*
X170363314Y-153977616D01*
X170363314Y-153977616D02*
X170549029Y-153977616D01*
X170549029Y-153977616D02*
X170672838Y-154039520D01*
X170672838Y-154039520D02*
X170734743Y-154163330D01*
X170734743Y-154163330D02*
X170734743Y-154844282D01*
X171353790Y-154844282D02*
X171353790Y-153977616D01*
X171353790Y-153544282D02*
X171291886Y-153606187D01*
X171291886Y-153606187D02*
X171353790Y-153668092D01*
X171353790Y-153668092D02*
X171415695Y-153606187D01*
X171415695Y-153606187D02*
X171353790Y-153544282D01*
X171353790Y-153544282D02*
X171353790Y-153668092D01*
X171787124Y-153977616D02*
X172282362Y-153977616D01*
X171972838Y-153544282D02*
X171972838Y-154658568D01*
X171972838Y-154658568D02*
X172034743Y-154782378D01*
X172034743Y-154782378D02*
X172158553Y-154844282D01*
X172158553Y-154844282D02*
X172282362Y-154844282D01*
X172715695Y-154844282D02*
X172715695Y-153544282D01*
X173272838Y-154844282D02*
X173272838Y-154163330D01*
X173272838Y-154163330D02*
X173210933Y-154039520D01*
X173210933Y-154039520D02*
X173087124Y-153977616D01*
X173087124Y-153977616D02*
X172901410Y-153977616D01*
X172901410Y-153977616D02*
X172777600Y-154039520D01*
X172777600Y-154039520D02*
X172715695Y-154101425D01*
D10*
X161207673Y-105722281D02*
X161207673Y-105103234D01*
X161207673Y-105103234D02*
X161588625Y-105436567D01*
X161588625Y-105436567D02*
X161588625Y-105293710D01*
X161588625Y-105293710D02*
X161636244Y-105198472D01*
X161636244Y-105198472D02*
X161683863Y-105150853D01*
X161683863Y-105150853D02*
X161779101Y-105103234D01*
X161779101Y-105103234D02*
X162017196Y-105103234D01*
X162017196Y-105103234D02*
X162112434Y-105150853D01*
X162112434Y-105150853D02*
X162160054Y-105198472D01*
X162160054Y-105198472D02*
X162207673Y-105293710D01*
X162207673Y-105293710D02*
X162207673Y-105579424D01*
X162207673Y-105579424D02*
X162160054Y-105674662D01*
X162160054Y-105674662D02*
X162112434Y-105722281D01*
X161207673Y-104817519D02*
X162207673Y-104484186D01*
X162207673Y-104484186D02*
X161207673Y-104150853D01*
X161207673Y-103912757D02*
X161207673Y-103293710D01*
X161207673Y-103293710D02*
X161588625Y-103627043D01*
X161588625Y-103627043D02*
X161588625Y-103484186D01*
X161588625Y-103484186D02*
X161636244Y-103388948D01*
X161636244Y-103388948D02*
X161683863Y-103341329D01*
X161683863Y-103341329D02*
X161779101Y-103293710D01*
X161779101Y-103293710D02*
X162017196Y-103293710D01*
X162017196Y-103293710D02*
X162112434Y-103341329D01*
X162112434Y-103341329D02*
X162160054Y-103388948D01*
X162160054Y-103388948D02*
X162207673Y-103484186D01*
X162207673Y-103484186D02*
X162207673Y-103769900D01*
X162207673Y-103769900D02*
X162160054Y-103865138D01*
X162160054Y-103865138D02*
X162112434Y-103912757D01*
X154685845Y-105341328D02*
X153685845Y-105341328D01*
X153685845Y-104674662D02*
X153685845Y-104484186D01*
X153685845Y-104484186D02*
X153733464Y-104388948D01*
X153733464Y-104388948D02*
X153828702Y-104293710D01*
X153828702Y-104293710D02*
X154019178Y-104246091D01*
X154019178Y-104246091D02*
X154352511Y-104246091D01*
X154352511Y-104246091D02*
X154542987Y-104293710D01*
X154542987Y-104293710D02*
X154638226Y-104388948D01*
X154638226Y-104388948D02*
X154685845Y-104484186D01*
X154685845Y-104484186D02*
X154685845Y-104674662D01*
X154685845Y-104674662D02*
X154638226Y-104769900D01*
X154638226Y-104769900D02*
X154542987Y-104865138D01*
X154542987Y-104865138D02*
X154352511Y-104912757D01*
X154352511Y-104912757D02*
X154019178Y-104912757D01*
X154019178Y-104912757D02*
X153828702Y-104865138D01*
X153828702Y-104865138D02*
X153733464Y-104769900D01*
X153733464Y-104769900D02*
X153685845Y-104674662D01*
X153685845Y-103912757D02*
X153685845Y-103293710D01*
X153685845Y-103293710D02*
X154066797Y-103627043D01*
X154066797Y-103627043D02*
X154066797Y-103484186D01*
X154066797Y-103484186D02*
X154114416Y-103388948D01*
X154114416Y-103388948D02*
X154162035Y-103341329D01*
X154162035Y-103341329D02*
X154257273Y-103293710D01*
X154257273Y-103293710D02*
X154495368Y-103293710D01*
X154495368Y-103293710D02*
X154590606Y-103341329D01*
X154590606Y-103341329D02*
X154638226Y-103388948D01*
X154638226Y-103388948D02*
X154685845Y-103484186D01*
X154685845Y-103484186D02*
X154685845Y-103769900D01*
X154685845Y-103769900D02*
X154638226Y-103865138D01*
X154638226Y-103865138D02*
X154590606Y-103912757D01*
X157193121Y-105341328D02*
X156193121Y-105341328D01*
X156193121Y-104674662D02*
X156193121Y-104484186D01*
X156193121Y-104484186D02*
X156240740Y-104388948D01*
X156240740Y-104388948D02*
X156335978Y-104293710D01*
X156335978Y-104293710D02*
X156526454Y-104246091D01*
X156526454Y-104246091D02*
X156859787Y-104246091D01*
X156859787Y-104246091D02*
X157050263Y-104293710D01*
X157050263Y-104293710D02*
X157145502Y-104388948D01*
X157145502Y-104388948D02*
X157193121Y-104484186D01*
X157193121Y-104484186D02*
X157193121Y-104674662D01*
X157193121Y-104674662D02*
X157145502Y-104769900D01*
X157145502Y-104769900D02*
X157050263Y-104865138D01*
X157050263Y-104865138D02*
X156859787Y-104912757D01*
X156859787Y-104912757D02*
X156526454Y-104912757D01*
X156526454Y-104912757D02*
X156335978Y-104865138D01*
X156335978Y-104865138D02*
X156240740Y-104769900D01*
X156240740Y-104769900D02*
X156193121Y-104674662D01*
X157193121Y-103293710D02*
X157193121Y-103865138D01*
X157193121Y-103579424D02*
X156193121Y-103579424D01*
X156193121Y-103579424D02*
X156335978Y-103674662D01*
X156335978Y-103674662D02*
X156431216Y-103769900D01*
X156431216Y-103769900D02*
X156478835Y-103865138D01*
D12*
X16516072Y-103799707D02*
X16516072Y-104241728D01*
X11471836Y-104137723D02*
X12459883Y-105489786D01*
D10*
X169589825Y-143481409D02*
X169732682Y-143529028D01*
X169732682Y-143529028D02*
X169970777Y-143529028D01*
X169970777Y-143529028D02*
X170066015Y-143481409D01*
X170066015Y-143481409D02*
X170113634Y-143433789D01*
X170113634Y-143433789D02*
X170161253Y-143338551D01*
X170161253Y-143338551D02*
X170161253Y-143243313D01*
X170161253Y-143243313D02*
X170113634Y-143148075D01*
X170113634Y-143148075D02*
X170066015Y-143100456D01*
X170066015Y-143100456D02*
X169970777Y-143052837D01*
X169970777Y-143052837D02*
X169780301Y-143005218D01*
X169780301Y-143005218D02*
X169685063Y-142957599D01*
X169685063Y-142957599D02*
X169637444Y-142909980D01*
X169637444Y-142909980D02*
X169589825Y-142814742D01*
X169589825Y-142814742D02*
X169589825Y-142719504D01*
X169589825Y-142719504D02*
X169637444Y-142624266D01*
X169637444Y-142624266D02*
X169685063Y-142576647D01*
X169685063Y-142576647D02*
X169780301Y-142529028D01*
X169780301Y-142529028D02*
X170018396Y-142529028D01*
X170018396Y-142529028D02*
X170161253Y-142576647D01*
X170494587Y-142529028D02*
X170732682Y-143529028D01*
X170732682Y-143529028D02*
X170923158Y-142814742D01*
X170923158Y-142814742D02*
X171113634Y-143529028D01*
X171113634Y-143529028D02*
X171351730Y-142529028D01*
X171685063Y-142624266D02*
X171732682Y-142576647D01*
X171732682Y-142576647D02*
X171827920Y-142529028D01*
X171827920Y-142529028D02*
X172066015Y-142529028D01*
X172066015Y-142529028D02*
X172161253Y-142576647D01*
X172161253Y-142576647D02*
X172208872Y-142624266D01*
X172208872Y-142624266D02*
X172256491Y-142719504D01*
X172256491Y-142719504D02*
X172256491Y-142814742D01*
X172256491Y-142814742D02*
X172208872Y-142957599D01*
X172208872Y-142957599D02*
X171637444Y-143529028D01*
X171637444Y-143529028D02*
X172256491Y-143529028D01*
X138107632Y-118570284D02*
X138250489Y-118617903D01*
X138250489Y-118617903D02*
X138488584Y-118617903D01*
X138488584Y-118617903D02*
X138583822Y-118570284D01*
X138583822Y-118570284D02*
X138631441Y-118522664D01*
X138631441Y-118522664D02*
X138679060Y-118427426D01*
X138679060Y-118427426D02*
X138679060Y-118332188D01*
X138679060Y-118332188D02*
X138631441Y-118236950D01*
X138631441Y-118236950D02*
X138583822Y-118189331D01*
X138583822Y-118189331D02*
X138488584Y-118141712D01*
X138488584Y-118141712D02*
X138298108Y-118094093D01*
X138298108Y-118094093D02*
X138202870Y-118046474D01*
X138202870Y-118046474D02*
X138155251Y-117998855D01*
X138155251Y-117998855D02*
X138107632Y-117903617D01*
X138107632Y-117903617D02*
X138107632Y-117808379D01*
X138107632Y-117808379D02*
X138155251Y-117713141D01*
X138155251Y-117713141D02*
X138202870Y-117665522D01*
X138202870Y-117665522D02*
X138298108Y-117617903D01*
X138298108Y-117617903D02*
X138536203Y-117617903D01*
X138536203Y-117617903D02*
X138679060Y-117665522D01*
X139012394Y-117617903D02*
X139250489Y-118617903D01*
X139250489Y-118617903D02*
X139440965Y-117903617D01*
X139440965Y-117903617D02*
X139631441Y-118617903D01*
X139631441Y-118617903D02*
X139869537Y-117617903D01*
X140679060Y-117951236D02*
X140679060Y-118617903D01*
X140440965Y-117570284D02*
X140202870Y-118284569D01*
X140202870Y-118284569D02*
X140821917Y-118284569D01*
X169681448Y-118740654D02*
X169824305Y-118788273D01*
X169824305Y-118788273D02*
X170062400Y-118788273D01*
X170062400Y-118788273D02*
X170157638Y-118740654D01*
X170157638Y-118740654D02*
X170205257Y-118693034D01*
X170205257Y-118693034D02*
X170252876Y-118597796D01*
X170252876Y-118597796D02*
X170252876Y-118502558D01*
X170252876Y-118502558D02*
X170205257Y-118407320D01*
X170205257Y-118407320D02*
X170157638Y-118359701D01*
X170157638Y-118359701D02*
X170062400Y-118312082D01*
X170062400Y-118312082D02*
X169871924Y-118264463D01*
X169871924Y-118264463D02*
X169776686Y-118216844D01*
X169776686Y-118216844D02*
X169729067Y-118169225D01*
X169729067Y-118169225D02*
X169681448Y-118073987D01*
X169681448Y-118073987D02*
X169681448Y-117978749D01*
X169681448Y-117978749D02*
X169729067Y-117883511D01*
X169729067Y-117883511D02*
X169776686Y-117835892D01*
X169776686Y-117835892D02*
X169871924Y-117788273D01*
X169871924Y-117788273D02*
X170110019Y-117788273D01*
X170110019Y-117788273D02*
X170252876Y-117835892D01*
X170586210Y-117788273D02*
X170824305Y-118788273D01*
X170824305Y-118788273D02*
X171014781Y-118073987D01*
X171014781Y-118073987D02*
X171205257Y-118788273D01*
X171205257Y-118788273D02*
X171443353Y-117788273D01*
X172348114Y-118788273D02*
X171776686Y-118788273D01*
X172062400Y-118788273D02*
X172062400Y-117788273D01*
X172062400Y-117788273D02*
X171967162Y-117931130D01*
X171967162Y-117931130D02*
X171871924Y-118026368D01*
X171871924Y-118026368D02*
X171776686Y-118073987D01*
X186710223Y-126060879D02*
X186376890Y-125584688D01*
X186138795Y-126060879D02*
X186138795Y-125060879D01*
X186138795Y-125060879D02*
X186519747Y-125060879D01*
X186519747Y-125060879D02*
X186614985Y-125108498D01*
X186614985Y-125108498D02*
X186662604Y-125156117D01*
X186662604Y-125156117D02*
X186710223Y-125251355D01*
X186710223Y-125251355D02*
X186710223Y-125394212D01*
X186710223Y-125394212D02*
X186662604Y-125489450D01*
X186662604Y-125489450D02*
X186614985Y-125537069D01*
X186614985Y-125537069D02*
X186519747Y-125584688D01*
X186519747Y-125584688D02*
X186138795Y-125584688D01*
X186995938Y-125060879D02*
X187329271Y-126060879D01*
X187329271Y-126060879D02*
X187662604Y-125060879D01*
X188519747Y-126060879D02*
X187948319Y-126060879D01*
X188234033Y-126060879D02*
X188234033Y-125060879D01*
X188234033Y-125060879D02*
X188138795Y-125203736D01*
X188138795Y-125203736D02*
X188043557Y-125298974D01*
X188043557Y-125298974D02*
X187948319Y-125346593D01*
D12*
X147243929Y-100115714D02*
X147243929Y-99115714D01*
X148053452Y-99591904D02*
X147720119Y-99591904D01*
X147720119Y-100115714D02*
X147720119Y-99115714D01*
X147720119Y-99115714D02*
X148196309Y-99115714D01*
X148529643Y-99210952D02*
X148577262Y-99163333D01*
X148577262Y-99163333D02*
X148672500Y-99115714D01*
X148672500Y-99115714D02*
X148910595Y-99115714D01*
X148910595Y-99115714D02*
X149005833Y-99163333D01*
X149005833Y-99163333D02*
X149053452Y-99210952D01*
X149053452Y-99210952D02*
X149101071Y-99306190D01*
X149101071Y-99306190D02*
X149101071Y-99401428D01*
X149101071Y-99401428D02*
X149053452Y-99544285D01*
X149053452Y-99544285D02*
X148482024Y-100115714D01*
X148482024Y-100115714D02*
X149101071Y-100115714D01*
D10*
X138156138Y-143249059D02*
X138298995Y-143296678D01*
X138298995Y-143296678D02*
X138537090Y-143296678D01*
X138537090Y-143296678D02*
X138632328Y-143249059D01*
X138632328Y-143249059D02*
X138679947Y-143201439D01*
X138679947Y-143201439D02*
X138727566Y-143106201D01*
X138727566Y-143106201D02*
X138727566Y-143010963D01*
X138727566Y-143010963D02*
X138679947Y-142915725D01*
X138679947Y-142915725D02*
X138632328Y-142868106D01*
X138632328Y-142868106D02*
X138537090Y-142820487D01*
X138537090Y-142820487D02*
X138346614Y-142772868D01*
X138346614Y-142772868D02*
X138251376Y-142725249D01*
X138251376Y-142725249D02*
X138203757Y-142677630D01*
X138203757Y-142677630D02*
X138156138Y-142582392D01*
X138156138Y-142582392D02*
X138156138Y-142487154D01*
X138156138Y-142487154D02*
X138203757Y-142391916D01*
X138203757Y-142391916D02*
X138251376Y-142344297D01*
X138251376Y-142344297D02*
X138346614Y-142296678D01*
X138346614Y-142296678D02*
X138584709Y-142296678D01*
X138584709Y-142296678D02*
X138727566Y-142344297D01*
X139060900Y-142296678D02*
X139298995Y-143296678D01*
X139298995Y-143296678D02*
X139489471Y-142582392D01*
X139489471Y-142582392D02*
X139679947Y-143296678D01*
X139679947Y-143296678D02*
X139918043Y-142296678D01*
X140203757Y-142296678D02*
X140822804Y-142296678D01*
X140822804Y-142296678D02*
X140489471Y-142677630D01*
X140489471Y-142677630D02*
X140632328Y-142677630D01*
X140632328Y-142677630D02*
X140727566Y-142725249D01*
X140727566Y-142725249D02*
X140775185Y-142772868D01*
X140775185Y-142772868D02*
X140822804Y-142868106D01*
X140822804Y-142868106D02*
X140822804Y-143106201D01*
X140822804Y-143106201D02*
X140775185Y-143201439D01*
X140775185Y-143201439D02*
X140727566Y-143249059D01*
X140727566Y-143249059D02*
X140632328Y-143296678D01*
X140632328Y-143296678D02*
X140346614Y-143296678D01*
X140346614Y-143296678D02*
X140251376Y-143249059D01*
X140251376Y-143249059D02*
X140203757Y-143201439D01*
D13*
%TO.C,SW2*%
X167535227Y-137597935D02*
X167535227Y-139097935D01*
X168785227Y-141597935D02*
X173285227Y-141597935D01*
X173285227Y-135097935D02*
X168785227Y-135097935D01*
X174535227Y-139097935D02*
X174535227Y-137597935D01*
D14*
%TO.C,G\u002A\u002A\u002A*%
G36*
X142108649Y-150016617D02*
G01*
X142124007Y-150059171D01*
X142146631Y-150123955D01*
X142175273Y-150207234D01*
X142208681Y-150305274D01*
X142245607Y-150414342D01*
X142284801Y-150530704D01*
X142325012Y-150650626D01*
X142364992Y-150770374D01*
X142403490Y-150886215D01*
X142439257Y-150994414D01*
X142471043Y-151091238D01*
X142497598Y-151172952D01*
X142517673Y-151235824D01*
X142530018Y-151276119D01*
X142533500Y-151289820D01*
X142529067Y-151296394D01*
X142513676Y-151301554D01*
X142484183Y-151305456D01*
X142437448Y-151308261D01*
X142370327Y-151310125D01*
X142279680Y-151311207D01*
X142162363Y-151311664D01*
X142098443Y-151311708D01*
X141984939Y-151311413D01*
X141881867Y-151310579D01*
X141793297Y-151309284D01*
X141723301Y-151307608D01*
X141675950Y-151305628D01*
X141655314Y-151303424D01*
X141654835Y-151303156D01*
X141654625Y-151284900D01*
X141662771Y-151246207D01*
X141674452Y-151205464D01*
X141690690Y-151155318D01*
X141714166Y-151084525D01*
X141743578Y-150996873D01*
X141777628Y-150896147D01*
X141815014Y-150786136D01*
X141854436Y-150670625D01*
X141894594Y-150553402D01*
X141934188Y-150438253D01*
X141971917Y-150328966D01*
X142006481Y-150229327D01*
X142036579Y-150143123D01*
X142060911Y-150074141D01*
X142078177Y-150026168D01*
X142087077Y-150002990D01*
X142087880Y-150001472D01*
X142101807Y-150000026D01*
X142108649Y-150016617D01*
G37*
G36*
X155047047Y-147572047D02*
G01*
X155035555Y-147605415D01*
X155016916Y-147662844D01*
X154992989Y-147738456D01*
X154965634Y-147826377D01*
X154936985Y-147919832D01*
X154908059Y-148014480D01*
X154880779Y-148102974D01*
X154857003Y-148179345D01*
X154838588Y-148237629D01*
X154827506Y-148271524D01*
X154816143Y-148306173D01*
X154797526Y-148364763D01*
X154773523Y-148441336D01*
X154746002Y-148529930D01*
X154717253Y-148623216D01*
X154682271Y-148736729D01*
X154641530Y-148868203D01*
X154598711Y-149005799D01*
X154557499Y-149137675D01*
X154530080Y-149225001D01*
X154497740Y-149327965D01*
X154458712Y-149452588D01*
X154415561Y-149590667D01*
X154370846Y-149734000D01*
X154327130Y-149874384D01*
X154295770Y-149975278D01*
X154207048Y-150260759D01*
X154125400Y-150522932D01*
X154048770Y-150768388D01*
X153975101Y-151003716D01*
X153920141Y-151178847D01*
X153891256Y-151271051D01*
X153862416Y-151363565D01*
X153836419Y-151447383D01*
X153816064Y-151513496D01*
X153810865Y-151530539D01*
X153794161Y-151585024D01*
X153770481Y-151661593D01*
X153742228Y-151752510D01*
X153711806Y-151850039D01*
X153689500Y-151921308D01*
X153660259Y-152014743D01*
X153624251Y-152130043D01*
X153583969Y-152259213D01*
X153541903Y-152394261D01*
X153500547Y-152527191D01*
X153475106Y-152609062D01*
X153433880Y-152741603D01*
X153388756Y-152886341D01*
X153342629Y-153034015D01*
X153298393Y-153175360D01*
X153258944Y-153301114D01*
X153240630Y-153359339D01*
X153202244Y-153481474D01*
X153159845Y-153616770D01*
X153116832Y-153754359D01*
X153076602Y-153883374D01*
X153043939Y-153988478D01*
X152953075Y-154281555D01*
X139007320Y-154281555D01*
X125061565Y-154281555D01*
X125144540Y-154019739D01*
X125172864Y-153929925D01*
X125207937Y-153818009D01*
X125247335Y-153691771D01*
X125288632Y-153558994D01*
X125329401Y-153427458D01*
X125355273Y-153343708D01*
X125391973Y-153224891D01*
X125428649Y-153106462D01*
X125463408Y-152994513D01*
X125494357Y-152895132D01*
X125519603Y-152814412D01*
X125535052Y-152765370D01*
X125563599Y-152674899D01*
X125592720Y-152582084D01*
X127434578Y-152582084D01*
X127447370Y-152612524D01*
X127458514Y-152619383D01*
X127485049Y-152620281D01*
X127538982Y-152614223D01*
X127617351Y-152601726D01*
X127717198Y-152583305D01*
X127835564Y-152559475D01*
X127969490Y-152530752D01*
X127978205Y-152528829D01*
X128045493Y-152515616D01*
X128104427Y-152507031D01*
X128146215Y-152504224D01*
X128157959Y-152505351D01*
X128183319Y-152517840D01*
X128227032Y-152545200D01*
X128282891Y-152582963D01*
X128344688Y-152626661D01*
X128406217Y-152671824D01*
X128461268Y-152713984D01*
X128503635Y-152748673D01*
X128526488Y-152770644D01*
X128536745Y-152797920D01*
X128547937Y-152855188D01*
X128559874Y-152941201D01*
X128572364Y-153054708D01*
X128576548Y-153097706D01*
X128588604Y-153224548D01*
X128598642Y-153323311D01*
X128607745Y-153397024D01*
X128617000Y-153448714D01*
X128627490Y-153481411D01*
X128640300Y-153498141D01*
X128656516Y-153501935D01*
X128677222Y-153495819D01*
X128703503Y-153482822D01*
X128712768Y-153477965D01*
X128773020Y-153434836D01*
X128827543Y-153369789D01*
X128879588Y-153278716D01*
X128893302Y-153249861D01*
X128934149Y-153153002D01*
X128979336Y-153031784D01*
X129026774Y-152892439D01*
X129074375Y-152741202D01*
X129120049Y-152584306D01*
X129136950Y-152522704D01*
X129171420Y-152400794D01*
X129201303Y-152308349D01*
X129227117Y-152243988D01*
X129249382Y-152206336D01*
X129259673Y-152196888D01*
X129272722Y-152205763D01*
X129296615Y-152236143D01*
X129326975Y-152282229D01*
X129338560Y-152301405D01*
X129408675Y-152411987D01*
X129494926Y-152534988D01*
X129590787Y-152661287D01*
X129638851Y-152721080D01*
X129688557Y-152779201D01*
X129746741Y-152843282D01*
X129809295Y-152909247D01*
X129872111Y-152973017D01*
X129931079Y-153030514D01*
X129982093Y-153077662D01*
X130021044Y-153110380D01*
X130043823Y-153124593D01*
X130045664Y-153124878D01*
X130072136Y-153113971D01*
X130105397Y-153086622D01*
X130138391Y-153050883D01*
X130164065Y-153014809D01*
X130175362Y-152986453D01*
X130173933Y-152978450D01*
X130157989Y-152960546D01*
X130123642Y-152926861D01*
X130075974Y-152882246D01*
X130021069Y-152832453D01*
X129916843Y-152735285D01*
X129824175Y-152639225D01*
X129734532Y-152534861D01*
X129639382Y-152412782D01*
X129633475Y-152404907D01*
X129589450Y-152343631D01*
X129586322Y-152339001D01*
X132294686Y-152339001D01*
X132314103Y-152371475D01*
X132344620Y-152384237D01*
X132397945Y-152389468D01*
X132466623Y-152387468D01*
X132543198Y-152378534D01*
X132620211Y-152362967D01*
X132637015Y-152358531D01*
X132802246Y-152297615D01*
X132950581Y-152212324D01*
X133079781Y-152105079D01*
X133187607Y-151978302D01*
X133271820Y-151834414D01*
X133330182Y-151675835D01*
X133349656Y-151587876D01*
X133361463Y-151506786D01*
X133363234Y-151450660D01*
X133354047Y-151414558D01*
X133332976Y-151393541D01*
X133311784Y-151385448D01*
X133269448Y-151387198D01*
X133236635Y-151417525D01*
X133212938Y-151476991D01*
X133201268Y-151538355D01*
X133167696Y-151676054D01*
X133107889Y-151806079D01*
X133025661Y-151925014D01*
X132924824Y-152029443D01*
X132809192Y-152115950D01*
X132682579Y-152181120D01*
X132548799Y-152221536D01*
X132424692Y-152233924D01*
X132367021Y-152243184D01*
X132323244Y-152267373D01*
X132297689Y-152301108D01*
X132294686Y-152339001D01*
X129586322Y-152339001D01*
X129542751Y-152274504D01*
X129496776Y-152203068D01*
X129454922Y-152134865D01*
X129420585Y-152075438D01*
X129397163Y-152030327D01*
X129388053Y-152005076D01*
X129388034Y-152004485D01*
X129396918Y-151985534D01*
X129421171Y-151947158D01*
X129457187Y-151894773D01*
X129468151Y-151879635D01*
X130325869Y-151879635D01*
X130336085Y-151899127D01*
X130363700Y-151935582D01*
X130404168Y-151984036D01*
X130452940Y-152039528D01*
X130505468Y-152097094D01*
X130557205Y-152151772D01*
X130603602Y-152198600D01*
X130640113Y-152232615D01*
X130662189Y-152248853D01*
X130664868Y-152249555D01*
X130682610Y-152239357D01*
X130719157Y-152210958D01*
X130770615Y-152167644D01*
X130833085Y-152112703D01*
X130895641Y-152055816D01*
X132295346Y-152055816D01*
X132308924Y-152092968D01*
X132347854Y-152115884D01*
X132409429Y-152124111D01*
X132490941Y-152117194D01*
X132566077Y-152101137D01*
X132666227Y-152068617D01*
X132752091Y-152024604D01*
X132834826Y-151962675D01*
X132882989Y-151918700D01*
X132961513Y-151831722D01*
X133018522Y-151739836D01*
X133027719Y-151720680D01*
X133059290Y-151642810D01*
X133083559Y-151564607D01*
X133098639Y-151494030D01*
X133102643Y-151439039D01*
X133099412Y-151418232D01*
X133074034Y-151383584D01*
X133033002Y-151364916D01*
X132998626Y-151366449D01*
X132974843Y-151387914D01*
X132953873Y-151430330D01*
X132939818Y-151483416D01*
X132936282Y-151522724D01*
X132925984Y-151571565D01*
X132898613Y-151634153D01*
X132859076Y-151702006D01*
X132812282Y-151766641D01*
X132766043Y-151816906D01*
X132674594Y-151889109D01*
X132580072Y-151935267D01*
X132472705Y-151959871D01*
X132449201Y-151962565D01*
X132372041Y-151975878D01*
X132322672Y-151998610D01*
X132298645Y-152032244D01*
X132295346Y-152055816D01*
X130895641Y-152055816D01*
X130902670Y-152049424D01*
X130908705Y-152043843D01*
X130988475Y-151969953D01*
X131083889Y-151881538D01*
X131185079Y-151787743D01*
X132295346Y-151787743D01*
X132302301Y-151825381D01*
X132326175Y-151847396D01*
X132371477Y-151855992D01*
X132431493Y-151854296D01*
X132532520Y-151835459D01*
X132595616Y-151807258D01*
X132694981Y-151731397D01*
X132770431Y-151636442D01*
X132819981Y-151525287D01*
X132835660Y-151457140D01*
X132840006Y-151414261D01*
X132832254Y-151388847D01*
X132808026Y-151368071D01*
X132804461Y-151365710D01*
X132756922Y-151347157D01*
X132718373Y-151357773D01*
X132691110Y-151396192D01*
X132679810Y-151439944D01*
X132652350Y-151530203D01*
X132601902Y-151605879D01*
X132533193Y-151662186D01*
X132450951Y-151694343D01*
X132424200Y-151698581D01*
X132354390Y-151714362D01*
X132311038Y-151743594D01*
X132295379Y-151785419D01*
X132295346Y-151787743D01*
X131185079Y-151787743D01*
X131187674Y-151785338D01*
X131292560Y-151688094D01*
X131391274Y-151596545D01*
X131416115Y-151573502D01*
X131494609Y-151499670D01*
X131564819Y-151431684D01*
X131623627Y-151372724D01*
X131667913Y-151325969D01*
X131694561Y-151294597D01*
X131701097Y-151282937D01*
X131690710Y-151263138D01*
X131662226Y-151225445D01*
X131619360Y-151174358D01*
X131565825Y-151114379D01*
X131531578Y-151077531D01*
X131362338Y-150898061D01*
X131284653Y-150968116D01*
X131242101Y-151006826D01*
X131180735Y-151063115D01*
X131104597Y-151133233D01*
X131017733Y-151213434D01*
X130924186Y-151299971D01*
X130828000Y-151389096D01*
X130733219Y-151477062D01*
X130643888Y-151560122D01*
X130564050Y-151634527D01*
X130497749Y-151696532D01*
X130449030Y-151742388D01*
X130447007Y-151744304D01*
X130397231Y-151793303D01*
X130357374Y-151836008D01*
X130332216Y-151867078D01*
X130325869Y-151879635D01*
X129468151Y-151879635D01*
X129501354Y-151833793D01*
X129505590Y-151828089D01*
X129727418Y-151523915D01*
X129925298Y-151239696D01*
X130099279Y-150975351D01*
X130203203Y-150806067D01*
X131383792Y-150806067D01*
X131393012Y-150827129D01*
X131416153Y-150858050D01*
X131456100Y-150904265D01*
X131480268Y-150931435D01*
X131571139Y-151033278D01*
X131643750Y-151113915D01*
X131700748Y-151175378D01*
X131744782Y-151219700D01*
X131778501Y-151248916D01*
X131804552Y-151265059D01*
X131825585Y-151270161D01*
X131844248Y-151266256D01*
X131863189Y-151255377D01*
X131883289Y-151240845D01*
X131901845Y-151228231D01*
X131907185Y-151230043D01*
X131898943Y-151250882D01*
X131879382Y-151290166D01*
X131849486Y-151367375D01*
X131844788Y-151427817D01*
X131863377Y-151470294D01*
X131903343Y-151493609D01*
X131962776Y-151496567D01*
X132039765Y-151477970D01*
X132121920Y-151442107D01*
X132178304Y-151413844D01*
X132216192Y-151398422D01*
X132244655Y-151393943D01*
X132272765Y-151398509D01*
X132295933Y-151405687D01*
X132347913Y-151416678D01*
X132377906Y-151409259D01*
X132383940Y-151384536D01*
X132374948Y-151361306D01*
X132361019Y-151324486D01*
X132362203Y-151287110D01*
X132380345Y-151241817D01*
X132417288Y-151181246D01*
X132421728Y-151174600D01*
X132471276Y-151087916D01*
X132494292Y-151015281D01*
X132490649Y-150957375D01*
X132469099Y-150922754D01*
X132443635Y-150901917D01*
X132415500Y-150891950D01*
X132378792Y-150893383D01*
X132327609Y-150906746D01*
X132256050Y-150932569D01*
X132225007Y-150944686D01*
X132209452Y-150948189D01*
X132214300Y-150936535D01*
X132238477Y-150908949D01*
X132265817Y-150876972D01*
X132273499Y-150855709D01*
X132264408Y-150834219D01*
X132259929Y-150827637D01*
X132235396Y-150796333D01*
X132228179Y-150787903D01*
X135038296Y-150787903D01*
X135040033Y-150927323D01*
X135045412Y-151059571D01*
X135054440Y-151177004D01*
X135066682Y-151269466D01*
X135126615Y-151525900D01*
X135213429Y-151767345D01*
X135326334Y-151992628D01*
X135464541Y-152200574D01*
X135627262Y-152390011D01*
X135813707Y-152559763D01*
X136023086Y-152708658D01*
X136042134Y-152720448D01*
X136235855Y-152823276D01*
X136452477Y-152909557D01*
X136687603Y-152977979D01*
X136936837Y-153027228D01*
X137156515Y-153053038D01*
X137225307Y-153055712D01*
X137316408Y-153055086D01*
X137421087Y-153051588D01*
X137530615Y-153045645D01*
X137636262Y-153037683D01*
X137729297Y-153028129D01*
X137766115Y-153023221D01*
X137991617Y-152977353D01*
X138212189Y-152907872D01*
X138302975Y-152868502D01*
X139859060Y-152868502D01*
X139860739Y-152886927D01*
X139873390Y-152900544D01*
X139899638Y-152910026D01*
X139942107Y-152916044D01*
X140003424Y-152919267D01*
X140086213Y-152920369D01*
X140193100Y-152920019D01*
X140326709Y-152918889D01*
X140442289Y-152917960D01*
X141023941Y-152913862D01*
X141043444Y-152874785D01*
X141055762Y-152847137D01*
X141077009Y-152796371D01*
X141104728Y-152728482D01*
X141136462Y-152649466D01*
X141155600Y-152601247D01*
X141191098Y-152512728D01*
X141226655Y-152426354D01*
X141258984Y-152349961D01*
X141284795Y-152291382D01*
X141293369Y-152273001D01*
X141338486Y-152179216D01*
X142090263Y-152175160D01*
X142266455Y-152174325D01*
X142413904Y-152173925D01*
X142535126Y-152174021D01*
X142632638Y-152174672D01*
X142708956Y-152175938D01*
X142766595Y-152177879D01*
X142808074Y-152180554D01*
X142835906Y-152184025D01*
X142852610Y-152188350D01*
X142860619Y-152193490D01*
X142873312Y-152217158D01*
X142892697Y-152263096D01*
X142915757Y-152323856D01*
X142931878Y-152369485D01*
X142975475Y-152496292D01*
X143010471Y-152597213D01*
X143038242Y-152675990D01*
X143060161Y-152736366D01*
X143077602Y-152782081D01*
X143091940Y-152816879D01*
X143104548Y-152844501D01*
X143111336Y-152858171D01*
X143143735Y-152921678D01*
X143726966Y-152921678D01*
X143858956Y-152921448D01*
X143980958Y-152920793D01*
X144089475Y-152919765D01*
X144181011Y-152918417D01*
X144252072Y-152916802D01*
X144299162Y-152914971D01*
X144318784Y-152912977D01*
X144319074Y-152912801D01*
X144320326Y-152908579D01*
X144319392Y-152899297D01*
X144315747Y-152883517D01*
X144308866Y-152859806D01*
X144298222Y-152826726D01*
X144283290Y-152782843D01*
X144263544Y-152726720D01*
X144238459Y-152656923D01*
X144207508Y-152572015D01*
X144170167Y-152470561D01*
X144125909Y-152351126D01*
X144074209Y-152212274D01*
X144014541Y-152052568D01*
X143946379Y-151870575D01*
X143869198Y-151664857D01*
X143782472Y-151433980D01*
X143685676Y-151176507D01*
X143595425Y-150936570D01*
X143542078Y-150794743D01*
X144811340Y-150794743D01*
X144811498Y-150931972D01*
X144812004Y-151048856D01*
X144812890Y-151147580D01*
X144814187Y-151230327D01*
X144815930Y-151299280D01*
X144818149Y-151356624D01*
X144820877Y-151404540D01*
X144824147Y-151445214D01*
X144827991Y-151480827D01*
X144832441Y-151513564D01*
X144836328Y-151538355D01*
X144865246Y-151700131D01*
X144895593Y-151837683D01*
X144929406Y-151958044D01*
X144968724Y-152068243D01*
X145015583Y-152175313D01*
X145028837Y-152202662D01*
X145068448Y-152280761D01*
X145102733Y-152340847D01*
X145138122Y-152391769D01*
X145181045Y-152442371D01*
X145237932Y-152501501D01*
X145267438Y-152530908D01*
X145369642Y-152625851D01*
X145469140Y-152703470D01*
X145575515Y-152770114D01*
X145698349Y-152832135D01*
X145769509Y-152863642D01*
X145877162Y-152904016D01*
X146004805Y-152942889D01*
X146141201Y-152977292D01*
X146275112Y-153004256D01*
X146339592Y-153014291D01*
X146409601Y-153020458D01*
X146502236Y-153023714D01*
X146609885Y-153024269D01*
X146724935Y-153022332D01*
X146839772Y-153018113D01*
X146946784Y-153011821D01*
X147038358Y-153003666D01*
X147106881Y-152993857D01*
X147110838Y-152993068D01*
X147358614Y-152928812D01*
X147585743Y-152841411D01*
X147793213Y-152730292D01*
X147982008Y-152594877D01*
X148153116Y-152434592D01*
X148242543Y-152332576D01*
X148336853Y-152204342D01*
X148413148Y-152070146D01*
X148474883Y-151922577D01*
X148525513Y-151754225D01*
X148539954Y-151694662D01*
X148545443Y-151669997D01*
X148550288Y-151645170D01*
X148554539Y-151618128D01*
X148558244Y-151586816D01*
X148561453Y-151549180D01*
X148564216Y-151503167D01*
X148566580Y-151446721D01*
X148568595Y-151377789D01*
X148570310Y-151294317D01*
X148571774Y-151194251D01*
X148573036Y-151075536D01*
X148574145Y-150936119D01*
X148575151Y-150773945D01*
X148575156Y-150772968D01*
X149473561Y-150772968D01*
X149473636Y-151028395D01*
X149473856Y-151275216D01*
X149474211Y-151511625D01*
X149474693Y-151735817D01*
X149475293Y-151945986D01*
X149476003Y-152140328D01*
X149476813Y-152317036D01*
X149477715Y-152474306D01*
X149478699Y-152610333D01*
X149479758Y-152723310D01*
X149480882Y-152811433D01*
X149482062Y-152872897D01*
X149483290Y-152905896D01*
X149483982Y-152911257D01*
X149501665Y-152913680D01*
X149547615Y-152915790D01*
X149618931Y-152917594D01*
X149712709Y-152919100D01*
X149826048Y-152920315D01*
X149956044Y-152921248D01*
X150099796Y-152921904D01*
X150254400Y-152922292D01*
X150416955Y-152922419D01*
X150584558Y-152922292D01*
X150754306Y-152921919D01*
X150923298Y-152921308D01*
X151088630Y-152920465D01*
X151247399Y-152919398D01*
X151396705Y-152918115D01*
X151533644Y-152916622D01*
X151655313Y-152914929D01*
X151758811Y-152913041D01*
X151841234Y-152910966D01*
X151899681Y-152908712D01*
X151931249Y-152906286D01*
X151936063Y-152904985D01*
X151940535Y-152882609D01*
X151944527Y-152834064D01*
X151947984Y-152764441D01*
X151950852Y-152678830D01*
X151953078Y-152582321D01*
X151954606Y-152480004D01*
X151955383Y-152376969D01*
X151955355Y-152278308D01*
X151954467Y-152189109D01*
X151952666Y-152114463D01*
X151949897Y-152059460D01*
X151946106Y-152029191D01*
X151945402Y-152026986D01*
X151928495Y-151984171D01*
X151267643Y-151980094D01*
X150606792Y-151976016D01*
X150602905Y-150311339D01*
X150602260Y-150046272D01*
X150601615Y-149810712D01*
X150600936Y-149602906D01*
X150600193Y-149421101D01*
X150599355Y-149263542D01*
X150598389Y-149128477D01*
X150597264Y-149014151D01*
X150595948Y-148918811D01*
X150594410Y-148840703D01*
X150592618Y-148778073D01*
X150590541Y-148729169D01*
X150588147Y-148692235D01*
X150585404Y-148665518D01*
X150582281Y-148647265D01*
X150578746Y-148635722D01*
X150574767Y-148629135D01*
X150572564Y-148627124D01*
X150549732Y-148621554D01*
X150500475Y-148616835D01*
X150429310Y-148612970D01*
X150340750Y-148609961D01*
X150239311Y-148607813D01*
X150129507Y-148606527D01*
X150015855Y-148606109D01*
X149902868Y-148606560D01*
X149795063Y-148607885D01*
X149696953Y-148610086D01*
X149613054Y-148613167D01*
X149547881Y-148617130D01*
X149505949Y-148621980D01*
X149492318Y-148626342D01*
X149489528Y-148636125D01*
X149487004Y-148660432D01*
X149484735Y-148700479D01*
X149482712Y-148757481D01*
X149480922Y-148832654D01*
X149479356Y-148927215D01*
X149478002Y-149042378D01*
X149476851Y-149179359D01*
X149475892Y-149339375D01*
X149475113Y-149523642D01*
X149474505Y-149733374D01*
X149474057Y-149969788D01*
X149473758Y-150234099D01*
X149473597Y-150527524D01*
X149473561Y-150772968D01*
X148575156Y-150772968D01*
X148576101Y-150586960D01*
X148577046Y-150373110D01*
X148578035Y-150130341D01*
X148578180Y-150093851D01*
X148579117Y-149839633D01*
X148579780Y-149615010D01*
X148580153Y-149418318D01*
X148580219Y-149247892D01*
X148579962Y-149102068D01*
X148579366Y-148979181D01*
X148578415Y-148877567D01*
X148577092Y-148795560D01*
X148575380Y-148731496D01*
X148573265Y-148683711D01*
X148570728Y-148650539D01*
X148567754Y-148630315D01*
X148564327Y-148621377D01*
X148563749Y-148620891D01*
X148543779Y-148617830D01*
X148496343Y-148615016D01*
X148425238Y-148612541D01*
X148334260Y-148610495D01*
X148227205Y-148608969D01*
X148107869Y-148608054D01*
X148017906Y-148607825D01*
X147872304Y-148607943D01*
X147754945Y-148608527D01*
X147662810Y-148609702D01*
X147592881Y-148611590D01*
X147542142Y-148614318D01*
X147507573Y-148618008D01*
X147486158Y-148622785D01*
X147474879Y-148628773D01*
X147473480Y-148630239D01*
X147469978Y-148641730D01*
X147466943Y-148668217D01*
X147464357Y-148711245D01*
X147462203Y-148772357D01*
X147460462Y-148853100D01*
X147459117Y-148955017D01*
X147458149Y-149079655D01*
X147457542Y-149228557D01*
X147457277Y-149403268D01*
X147457337Y-149605333D01*
X147457703Y-149836297D01*
X147458015Y-149970577D01*
X147458595Y-150203935D01*
X147459047Y-150408231D01*
X147459322Y-150585665D01*
X147459374Y-150738437D01*
X147459155Y-150868747D01*
X147458618Y-150978794D01*
X147457715Y-151070779D01*
X147456401Y-151146901D01*
X147454626Y-151209360D01*
X147452345Y-151260356D01*
X147449509Y-151302088D01*
X147446072Y-151336757D01*
X147441986Y-151366562D01*
X147437204Y-151393703D01*
X147431679Y-151420380D01*
X147426361Y-151444338D01*
X147399310Y-151552693D01*
X147370769Y-151637721D01*
X147337181Y-151707289D01*
X147294987Y-151769262D01*
X147261402Y-151809042D01*
X147176793Y-151885695D01*
X147074266Y-151945441D01*
X146948648Y-151991144D01*
X146916595Y-151999804D01*
X146798234Y-152023463D01*
X146691123Y-152028657D01*
X146581305Y-152015410D01*
X146515529Y-152000485D01*
X146363152Y-151948541D01*
X146234356Y-151876980D01*
X146129732Y-151786398D01*
X146049868Y-151677389D01*
X145995355Y-151550551D01*
X145972741Y-151452385D01*
X145969736Y-151417726D01*
X145966878Y-151353213D01*
X145964186Y-151260255D01*
X145961682Y-151140261D01*
X145959385Y-150994638D01*
X145957316Y-150824795D01*
X145955493Y-150632140D01*
X145953939Y-150418081D01*
X145952672Y-150184026D01*
X145951914Y-149993772D01*
X145951037Y-149753085D01*
X145950127Y-149541797D01*
X145949146Y-149358047D01*
X145948058Y-149199974D01*
X145946825Y-149065714D01*
X145945410Y-148953407D01*
X145943777Y-148861190D01*
X145941888Y-148787202D01*
X145939706Y-148729581D01*
X145937194Y-148686465D01*
X145934315Y-148655992D01*
X145931032Y-148636300D01*
X145927308Y-148625527D01*
X145924609Y-148622411D01*
X145904247Y-148619010D01*
X145857493Y-148616040D01*
X145788714Y-148613515D01*
X145702276Y-148611446D01*
X145602544Y-148609846D01*
X145493884Y-148608728D01*
X145380662Y-148608103D01*
X145267243Y-148607984D01*
X145157994Y-148608384D01*
X145057279Y-148609314D01*
X144969465Y-148610787D01*
X144898918Y-148612815D01*
X144850002Y-148615411D01*
X144827085Y-148618587D01*
X144825995Y-148619308D01*
X144824880Y-148636343D01*
X144823699Y-148682377D01*
X144822470Y-148755147D01*
X144821216Y-148852389D01*
X144819956Y-148971842D01*
X144818710Y-149111243D01*
X144817500Y-149268328D01*
X144816346Y-149440835D01*
X144815268Y-149626502D01*
X144814286Y-149823065D01*
X144813536Y-149998724D01*
X144812628Y-150239162D01*
X144811937Y-150450522D01*
X144811497Y-150634988D01*
X144811340Y-150794743D01*
X143542078Y-150794743D01*
X143514118Y-150720408D01*
X143435129Y-150510341D01*
X143359251Y-150308479D01*
X143287276Y-150116931D01*
X143219995Y-149937807D01*
X143158200Y-149773216D01*
X143102683Y-149625267D01*
X143054236Y-149496071D01*
X143013650Y-149387735D01*
X142981718Y-149302371D01*
X142959230Y-149242087D01*
X142947118Y-149209370D01*
X142888176Y-149049450D01*
X142838560Y-148917627D01*
X142797643Y-148812363D01*
X142764799Y-148732119D01*
X142739401Y-148675358D01*
X142720823Y-148640540D01*
X142710025Y-148627124D01*
X142687271Y-148621667D01*
X142637614Y-148617023D01*
X142565386Y-148613191D01*
X142474916Y-148610172D01*
X142370534Y-148607966D01*
X142256570Y-148606572D01*
X142137354Y-148605991D01*
X142017217Y-148606223D01*
X141900488Y-148607267D01*
X141791497Y-148609124D01*
X141694575Y-148611793D01*
X141614052Y-148615275D01*
X141554257Y-148619570D01*
X141519521Y-148624677D01*
X141513367Y-148627124D01*
X141495645Y-148650416D01*
X141471894Y-148694516D01*
X141446648Y-148750811D01*
X141441376Y-148763893D01*
X141384825Y-148907457D01*
X141327291Y-149054005D01*
X141266944Y-149208224D01*
X141201956Y-149374798D01*
X141130496Y-149558416D01*
X141050735Y-149763762D01*
X140998997Y-149897124D01*
X140948747Y-150026687D01*
X140900646Y-150150691D01*
X140856199Y-150265261D01*
X140816909Y-150366519D01*
X140784281Y-150450589D01*
X140759818Y-150513594D01*
X140745026Y-150551658D01*
X140744264Y-150553616D01*
X140723274Y-150607859D01*
X140695284Y-150680626D01*
X140664403Y-150761220D01*
X140642208Y-150819339D01*
X140606848Y-150911658D01*
X140566415Y-151016554D01*
X140527285Y-151117511D01*
X140509473Y-151163216D01*
X140483317Y-151230758D01*
X140449041Y-151320171D01*
X140409465Y-151424043D01*
X140367413Y-151534960D01*
X140325707Y-151645510D01*
X140316044Y-151671216D01*
X140275079Y-151779891D01*
X140233298Y-151890073D01*
X140193462Y-151994526D01*
X140158332Y-152086014D01*
X140130670Y-152157300D01*
X140125134Y-152171401D01*
X140091323Y-152258147D01*
X140052518Y-152359152D01*
X140014492Y-152459328D01*
X139993516Y-152515278D01*
X139963825Y-152594494D01*
X139934512Y-152671848D01*
X139909239Y-152737721D01*
X139893601Y-152777672D01*
X139878116Y-152814545D01*
X139865728Y-152844598D01*
X139859060Y-152868502D01*
X138302975Y-152868502D01*
X138420508Y-152817533D01*
X138609247Y-152709090D01*
X138619292Y-152702402D01*
X138704881Y-152638245D01*
X138799540Y-152556194D01*
X138895936Y-152463561D01*
X138986738Y-152367661D01*
X139064615Y-152275807D01*
X139112577Y-152210311D01*
X139234623Y-152003320D01*
X139335865Y-151780463D01*
X139416894Y-151539724D01*
X139478299Y-151279089D01*
X139520673Y-150996541D01*
X139541732Y-150745330D01*
X139545663Y-150658611D01*
X139545690Y-150598367D01*
X139541613Y-150560027D01*
X139533229Y-150539026D01*
X139532588Y-150538222D01*
X139525768Y-150533556D01*
X139512186Y-150529534D01*
X139489698Y-150526110D01*
X139456161Y-150523237D01*
X139409433Y-150520870D01*
X139347371Y-150518961D01*
X139267832Y-150517465D01*
X139168673Y-150516335D01*
X139047751Y-150515525D01*
X138902923Y-150514989D01*
X138732046Y-150514679D01*
X138532978Y-150514551D01*
X138437602Y-150514539D01*
X138256584Y-150514674D01*
X138084426Y-150515064D01*
X137923730Y-150515686D01*
X137777098Y-150516518D01*
X137647129Y-150517537D01*
X137536425Y-150518722D01*
X137447587Y-150520049D01*
X137383215Y-150521497D01*
X137345911Y-150523042D01*
X137337547Y-150524027D01*
X137330069Y-150530007D01*
X137324244Y-150543829D01*
X137319872Y-150568948D01*
X137316754Y-150608822D01*
X137314691Y-150666908D01*
X137313482Y-150746663D01*
X137312928Y-150851545D01*
X137312823Y-150952201D01*
X137313006Y-151078910D01*
X137313690Y-151177817D01*
X137315075Y-151252378D01*
X137317359Y-151306050D01*
X137320742Y-151342291D01*
X137325425Y-151364557D01*
X137331606Y-151376306D01*
X137337547Y-151380375D01*
X137359215Y-151382874D01*
X137407828Y-151385127D01*
X137479074Y-151387042D01*
X137568635Y-151388531D01*
X137672198Y-151389500D01*
X137785447Y-151389862D01*
X137789917Y-151389862D01*
X137902347Y-151390283D01*
X138004253Y-151391470D01*
X138091541Y-151393310D01*
X138160118Y-151395692D01*
X138205890Y-151398501D01*
X138224765Y-151401626D01*
X138224965Y-151401840D01*
X138227892Y-151428958D01*
X138220653Y-151476857D01*
X138205284Y-151537539D01*
X138183823Y-151603003D01*
X138158309Y-151665249D01*
X138157327Y-151667357D01*
X138087528Y-151779810D01*
X137990215Y-151878346D01*
X137866270Y-151962119D01*
X137829121Y-151981714D01*
X137697700Y-152038389D01*
X137568507Y-152073721D01*
X137431482Y-152089712D01*
X137289740Y-152089058D01*
X137108211Y-152068618D01*
X136945770Y-152025280D01*
X136798770Y-151957601D01*
X136663567Y-151864140D01*
X136615571Y-151822526D01*
X136480273Y-151678099D01*
X136371305Y-151516848D01*
X136288574Y-151338622D01*
X136247902Y-151210108D01*
X136233655Y-151152077D01*
X136223566Y-151098698D01*
X136216968Y-151042540D01*
X136213191Y-150976168D01*
X136211569Y-150892150D01*
X136211379Y-150803708D01*
X136214277Y-150657022D01*
X136223545Y-150532915D01*
X136241001Y-150423041D01*
X136268462Y-150319049D01*
X136307746Y-150212593D01*
X136360669Y-150095324D01*
X136369607Y-150076878D01*
X136411468Y-149994002D01*
X136447782Y-149930921D01*
X136484889Y-149878515D01*
X136529132Y-149827667D01*
X136576360Y-149779575D01*
X136659915Y-149702526D01*
X136738354Y-149644146D01*
X136821699Y-149598599D01*
X136919976Y-149560048D01*
X136992735Y-149537119D01*
X137121889Y-149508638D01*
X137261773Y-149494476D01*
X137402158Y-149494748D01*
X137532816Y-149509568D01*
X137617623Y-149530094D01*
X137763965Y-149584907D01*
X137885411Y-149650852D01*
X137987615Y-149732427D01*
X138076231Y-149834129D01*
X138155506Y-149957955D01*
X138197772Y-150029931D01*
X138229760Y-150076722D01*
X138254028Y-150101650D01*
X138271110Y-150108139D01*
X138293357Y-150102455D01*
X138340255Y-150086524D01*
X138407561Y-150062024D01*
X138491030Y-150030636D01*
X138586417Y-149994039D01*
X138689477Y-149953914D01*
X138795966Y-149911940D01*
X138901639Y-149869798D01*
X139002251Y-149829166D01*
X139093559Y-149791724D01*
X139171316Y-149759153D01*
X139231280Y-149733133D01*
X139269204Y-149715342D01*
X139280289Y-149708757D01*
X139288456Y-149694975D01*
X139286272Y-149673221D01*
X139271882Y-149637719D01*
X139243431Y-149582694D01*
X139234568Y-149566423D01*
X139095342Y-149338609D01*
X138942251Y-149138656D01*
X138774633Y-148966087D01*
X138591822Y-148820425D01*
X138393155Y-148701191D01*
X138177968Y-148607910D01*
X137945598Y-148540104D01*
X137758300Y-148505488D01*
X137622472Y-148491468D01*
X137468574Y-148484719D01*
X137304572Y-148484895D01*
X137138431Y-148491652D01*
X136978118Y-148504642D01*
X136831597Y-148523521D01*
X136706835Y-148547943D01*
X136691624Y-148551768D01*
X136459928Y-148624296D01*
X136234453Y-148718730D01*
X136024925Y-148830824D01*
X135961421Y-148870650D01*
X135886300Y-148926082D01*
X135799365Y-149000467D01*
X135707024Y-149087355D01*
X135615684Y-149180298D01*
X135531749Y-149272844D01*
X135461627Y-149358544D01*
X135423170Y-149412570D01*
X135311863Y-149605600D01*
X135214459Y-149818802D01*
X135134669Y-150042793D01*
X135076205Y-150268191D01*
X135067624Y-150311413D01*
X135054866Y-150403068D01*
X135045720Y-150518131D01*
X135040194Y-150648958D01*
X135038296Y-150787903D01*
X132228179Y-150787903D01*
X132196055Y-150750382D01*
X132145837Y-150693976D01*
X132088673Y-150631302D01*
X132028493Y-150566552D01*
X131969227Y-150503914D01*
X131914806Y-150447578D01*
X131869162Y-150401733D01*
X131836223Y-150370570D01*
X131824925Y-150362050D01*
X131951469Y-150362050D01*
X131961785Y-150380293D01*
X131989720Y-150415129D01*
X132030756Y-150461850D01*
X132080375Y-150515748D01*
X132134059Y-150572115D01*
X132187289Y-150626244D01*
X132235547Y-150673428D01*
X132274315Y-150708958D01*
X132299074Y-150728127D01*
X132304735Y-150730119D01*
X132320789Y-150718734D01*
X132356767Y-150688661D01*
X132409715Y-150642519D01*
X132476676Y-150582923D01*
X132554698Y-150512491D01*
X132640824Y-150433838D01*
X132680519Y-150397308D01*
X132820625Y-150268022D01*
X132939451Y-150158239D01*
X133038735Y-150066310D01*
X133120215Y-149990586D01*
X133185629Y-149929416D01*
X133236717Y-149881153D01*
X133275215Y-149844147D01*
X133302863Y-149816749D01*
X133321399Y-149797309D01*
X133332561Y-149784178D01*
X133338087Y-149775706D01*
X133339425Y-149772155D01*
X133330808Y-149755477D01*
X133304842Y-149721135D01*
X133265875Y-149673970D01*
X133218254Y-149618822D01*
X133166328Y-149560534D01*
X133114443Y-149503946D01*
X133066949Y-149453900D01*
X133028192Y-149415237D01*
X133002521Y-149392798D01*
X132995434Y-149389124D01*
X132981034Y-149399328D01*
X132946837Y-149428123D01*
X132895912Y-149472784D01*
X132831330Y-149530586D01*
X132756161Y-149598803D01*
X132673473Y-149674710D01*
X132666331Y-149681305D01*
X132512724Y-149823355D01*
X132380895Y-149945605D01*
X132269521Y-150049314D01*
X132177279Y-150135743D01*
X132102844Y-150206151D01*
X132044894Y-150261800D01*
X132002105Y-150303949D01*
X131973154Y-150333860D01*
X131956716Y-150352792D01*
X131951469Y-150362005D01*
X131951469Y-150362050D01*
X131824925Y-150362050D01*
X131824865Y-150362005D01*
X131819922Y-150358278D01*
X131819543Y-150358232D01*
X131795331Y-150368899D01*
X131771179Y-150390085D01*
X131737303Y-150413245D01*
X131698521Y-150412312D01*
X131676250Y-150410302D01*
X131653565Y-150417149D01*
X131625000Y-150436428D01*
X131585090Y-150471716D01*
X131537357Y-150517759D01*
X131482903Y-150572666D01*
X131447977Y-150612573D01*
X131428605Y-150643098D01*
X131420815Y-150669856D01*
X131420023Y-150683651D01*
X131412313Y-150732378D01*
X131395583Y-150771770D01*
X131385610Y-150789426D01*
X131383792Y-150806067D01*
X130203203Y-150806067D01*
X130249409Y-150730801D01*
X130375740Y-150505967D01*
X130478319Y-150300767D01*
X130544908Y-150146691D01*
X130570132Y-150078755D01*
X130597919Y-149996559D01*
X130626652Y-149905765D01*
X130654715Y-149812035D01*
X130680494Y-149721032D01*
X130702372Y-149638418D01*
X130718734Y-149569857D01*
X130727963Y-149521010D01*
X130729230Y-149500696D01*
X130721052Y-149471112D01*
X130703137Y-149456088D01*
X130672694Y-149456426D01*
X130626933Y-149472928D01*
X130563064Y-149506395D01*
X130478295Y-149557631D01*
X130434703Y-149585338D01*
X130308282Y-149668470D01*
X130200024Y-149744702D01*
X130101627Y-149820642D01*
X130004789Y-149902903D01*
X129901208Y-149998094D01*
X129827972Y-150068438D01*
X129665064Y-150232139D01*
X129505994Y-150403241D01*
X129345607Y-150587575D01*
X129178752Y-150790969D01*
X129090304Y-150902895D01*
X129057878Y-150944385D01*
X129065757Y-150639585D01*
X129072273Y-150467457D01*
X129082840Y-150319664D01*
X129098459Y-150189432D01*
X129120127Y-150069982D01*
X129148843Y-149954540D01*
X129182990Y-149844116D01*
X129274871Y-149603569D01*
X129383545Y-149383653D01*
X129492188Y-149206767D01*
X129669138Y-148970227D01*
X129866042Y-148755969D01*
X130080948Y-148564949D01*
X130311907Y-148398120D01*
X130556967Y-148256440D01*
X130814178Y-148140861D01*
X131081591Y-148052340D01*
X131357254Y-147991832D01*
X131639217Y-147960292D01*
X131925530Y-147958675D01*
X132027059Y-147965411D01*
X132317078Y-148003523D01*
X132592008Y-148067647D01*
X132854168Y-148158762D01*
X133105879Y-148277848D01*
X133349458Y-148425885D01*
X133587227Y-148603853D01*
X133636920Y-148645361D01*
X133710487Y-148707774D01*
X133764063Y-148752551D01*
X133801402Y-148782386D01*
X133826261Y-148799971D01*
X133842395Y-148808001D01*
X133853559Y-148809169D01*
X133861966Y-148806772D01*
X133878308Y-148789120D01*
X133901241Y-148750323D01*
X133926088Y-148698399D01*
X133928613Y-148692523D01*
X133973644Y-148586570D01*
X133904310Y-148526219D01*
X133853841Y-148485315D01*
X133783613Y-148432487D01*
X133700349Y-148372424D01*
X133610772Y-148309814D01*
X133521606Y-148249344D01*
X133439574Y-148195703D01*
X133371401Y-148153578D01*
X133362037Y-148148110D01*
X133154161Y-148041253D01*
X132929004Y-147949316D01*
X132697042Y-147875991D01*
X132468755Y-147824970D01*
X132425069Y-147817860D01*
X132328180Y-147806986D01*
X132207963Y-147799484D01*
X132072169Y-147795350D01*
X131928549Y-147794578D01*
X131784852Y-147797162D01*
X131648830Y-147803097D01*
X131528234Y-147812379D01*
X131474202Y-147818524D01*
X131180212Y-147871417D01*
X130898782Y-147952054D01*
X130628048Y-148061197D01*
X130366146Y-148199609D01*
X130111213Y-148368053D01*
X130085561Y-148386929D01*
X130023154Y-148437138D01*
X129946273Y-148504872D01*
X129861067Y-148584161D01*
X129773682Y-148669035D01*
X129690269Y-148753523D01*
X129616974Y-148831656D01*
X129560522Y-148896755D01*
X129391763Y-149123191D01*
X129250187Y-149355536D01*
X129134980Y-149596301D01*
X129045325Y-149848002D01*
X128980406Y-150113150D01*
X128939408Y-150394259D01*
X128921516Y-150693843D01*
X128921216Y-150866675D01*
X128925482Y-151117210D01*
X128809743Y-151273075D01*
X128748602Y-151353238D01*
X128677745Y-151442812D01*
X128607797Y-151528490D01*
X128569490Y-151573885D01*
X128513489Y-151637104D01*
X128463810Y-151687276D01*
X128412493Y-151731054D01*
X128351576Y-151775086D01*
X128273100Y-151826025D01*
X128251481Y-151839572D01*
X128137538Y-151912510D01*
X128018812Y-151991773D01*
X127901275Y-152073128D01*
X127790904Y-152152346D01*
X127693672Y-152225192D01*
X127615555Y-152287437D01*
X127597341Y-152302891D01*
X127542183Y-152358280D01*
X127496040Y-152419109D01*
X127461200Y-152480162D01*
X127439951Y-152536225D01*
X127434578Y-152582084D01*
X125592720Y-152582084D01*
X125600592Y-152556995D01*
X125645271Y-152414100D01*
X125696875Y-152248658D01*
X125754643Y-152063110D01*
X125817815Y-151859898D01*
X125885631Y-151641466D01*
X125957329Y-151410255D01*
X126012070Y-151233555D01*
X126169243Y-150727174D01*
X126313525Y-150264447D01*
X126342678Y-150170998D01*
X126378578Y-150055679D01*
X126418740Y-149926487D01*
X126460679Y-149791421D01*
X126501910Y-149658476D01*
X126527245Y-149576693D01*
X126564067Y-149457898D01*
X126600846Y-149339491D01*
X126635686Y-149227558D01*
X126666691Y-149128186D01*
X126691963Y-149047462D01*
X126707426Y-148998355D01*
X126725977Y-148939423D01*
X126751967Y-148856412D01*
X126783592Y-148755108D01*
X126819050Y-148641295D01*
X126856536Y-148520759D01*
X126894245Y-148399283D01*
X126895086Y-148396570D01*
X126934077Y-148270955D01*
X126974060Y-148142356D01*
X127012956Y-148017446D01*
X127048685Y-147902893D01*
X127079171Y-147805369D01*
X127100878Y-147736170D01*
X127170946Y-147513432D01*
X141120035Y-147513432D01*
X155069123Y-147513432D01*
X155047047Y-147572047D01*
G37*
D13*
%TO.C,SW4*%
X136028737Y-112786784D02*
X136028737Y-114286784D01*
X137278737Y-116786784D02*
X141778737Y-116786784D01*
X141778737Y-110286784D02*
X137278737Y-110286784D01*
X143028737Y-114286784D02*
X143028737Y-112786784D01*
D14*
%TO.C,G\u002A\u002A\u002A*%
G36*
X152789126Y-123165275D02*
G01*
X152901916Y-123184075D01*
X153065390Y-123216882D01*
X153214855Y-123246649D01*
X153363398Y-123273870D01*
X153484745Y-123293790D01*
X153511141Y-123297529D01*
X153618266Y-123317061D01*
X153666321Y-123341927D01*
X153658795Y-123376686D01*
X153605844Y-123421272D01*
X153562524Y-123448360D01*
X153519209Y-123462091D01*
X153462549Y-123461553D01*
X153379192Y-123445831D01*
X153255790Y-123414012D01*
X153174873Y-123391774D01*
X152969974Y-123331106D01*
X152816260Y-123277009D01*
X152717002Y-123230813D01*
X152675474Y-123193852D01*
X152674380Y-123188020D01*
X152684187Y-123167899D01*
X152719492Y-123160100D01*
X152789126Y-123165275D01*
G37*
G36*
X152853730Y-122246173D02*
G01*
X152931925Y-122324291D01*
X153029710Y-122445521D01*
X153214959Y-122658487D01*
X153416938Y-122832601D01*
X153626232Y-122961351D01*
X153833427Y-123038221D01*
X153906167Y-123052005D01*
X154068022Y-123048152D01*
X154255029Y-122999737D01*
X154453116Y-122910938D01*
X154528431Y-122867434D01*
X154634926Y-122813451D01*
X154716216Y-122794903D01*
X154762803Y-122812899D01*
X154770193Y-122839151D01*
X154742829Y-122904194D01*
X154668008Y-122982207D01*
X154556638Y-123063632D01*
X154438533Y-123129794D01*
X154217431Y-123210275D01*
X153982625Y-123246049D01*
X153753302Y-123235595D01*
X153596755Y-123196610D01*
X153406286Y-123115093D01*
X153239527Y-123018062D01*
X153111948Y-122915186D01*
X153069581Y-122867115D01*
X152991437Y-122751231D01*
X152912914Y-122614620D01*
X152844670Y-122477829D01*
X152797366Y-122361406D01*
X152785301Y-122319125D01*
X152778452Y-122242573D01*
X152801917Y-122218595D01*
X152853730Y-122246173D01*
G37*
G36*
X140136422Y-130873708D02*
G01*
X140177983Y-130956946D01*
X140233503Y-131100870D01*
X140299782Y-131297984D01*
X140358201Y-131471355D01*
X140419558Y-131638034D01*
X140477550Y-131781843D01*
X140525871Y-131886602D01*
X140537285Y-131907557D01*
X140664992Y-132070701D01*
X140827693Y-132184627D01*
X141019732Y-132247672D01*
X141235452Y-132258172D01*
X141469197Y-132214466D01*
X141522779Y-132197307D01*
X141629489Y-132163717D01*
X141719004Y-132141009D01*
X141762282Y-132134746D01*
X141811381Y-132149613D01*
X141814848Y-132188822D01*
X141780549Y-132244286D01*
X141716351Y-132307916D01*
X141630122Y-132371624D01*
X141529728Y-132427324D01*
X141445568Y-132460347D01*
X141249263Y-132509915D01*
X141081995Y-132523124D01*
X140954295Y-132508642D01*
X140771807Y-132453039D01*
X140616240Y-132360839D01*
X140484461Y-132227490D01*
X140373342Y-132048437D01*
X140279750Y-131819126D01*
X140200556Y-131535004D01*
X140162672Y-131357166D01*
X140123863Y-131141536D01*
X140102538Y-130985071D01*
X140097994Y-130888075D01*
X140109523Y-130850853D01*
X140136422Y-130873708D01*
G37*
G36*
X161384390Y-127324766D02*
G01*
X161444389Y-127421156D01*
X161505227Y-127575640D01*
X161566224Y-127786754D01*
X161626697Y-128053029D01*
X161636367Y-128101101D01*
X161667609Y-128257640D01*
X161695140Y-128393166D01*
X161716410Y-128495297D01*
X161728866Y-128551648D01*
X161730350Y-128557285D01*
X161756609Y-128572073D01*
X161826271Y-128570318D01*
X161946426Y-128551593D01*
X162001500Y-128540995D01*
X162189026Y-128510604D01*
X162318967Y-128504198D01*
X162390779Y-128520061D01*
X162403917Y-128556477D01*
X162357835Y-128611731D01*
X162251988Y-128684107D01*
X162085831Y-128771888D01*
X162076323Y-128776463D01*
X161883638Y-128853068D01*
X161728764Y-128880021D01*
X161611482Y-128857339D01*
X161560010Y-128820868D01*
X161510571Y-128746327D01*
X161459667Y-128626051D01*
X161409420Y-128471060D01*
X161361951Y-128292373D01*
X161319380Y-128101011D01*
X161283829Y-127907992D01*
X161257418Y-127724336D01*
X161242268Y-127561063D01*
X161240500Y-127429192D01*
X161254234Y-127339744D01*
X161269638Y-127312139D01*
X161325912Y-127287938D01*
X161384390Y-127324766D01*
G37*
G36*
X141921609Y-128767604D02*
G01*
X142296631Y-128808853D01*
X142678598Y-128849463D01*
X143060382Y-128888770D01*
X143434858Y-128926108D01*
X143794897Y-128960811D01*
X144133373Y-128992215D01*
X144443159Y-129019654D01*
X144717129Y-129042463D01*
X144948154Y-129059975D01*
X145129109Y-129071527D01*
X145221732Y-129075697D01*
X145331794Y-129081728D01*
X145412402Y-129090944D01*
X145448006Y-129101484D01*
X145448518Y-129102840D01*
X145419848Y-129115955D01*
X145344213Y-129129563D01*
X145237178Y-129142131D01*
X145114307Y-129152124D01*
X144991164Y-129158010D01*
X144885464Y-129158322D01*
X144797068Y-129154447D01*
X144665218Y-129147239D01*
X144508865Y-129137784D01*
X144371105Y-129128810D01*
X144237101Y-129118650D01*
X144079714Y-129104508D01*
X143893262Y-129085755D01*
X143672067Y-129061760D01*
X143410446Y-129031893D01*
X143102721Y-128995523D01*
X142743211Y-128952020D01*
X142414282Y-128911631D01*
X142161135Y-128878131D01*
X141969844Y-128847711D01*
X141839783Y-128820248D01*
X141770329Y-128795618D01*
X141757385Y-128780886D01*
X141786366Y-128764316D01*
X141867459Y-128762830D01*
X141921609Y-128767604D01*
G37*
G36*
X143715897Y-129791525D02*
G01*
X144010963Y-129793664D01*
X144364427Y-129797457D01*
X144439713Y-129798377D01*
X144829618Y-129803849D01*
X145161057Y-129810003D01*
X145438127Y-129817112D01*
X145664923Y-129825452D01*
X145845538Y-129835297D01*
X145984069Y-129846922D01*
X146084612Y-129860600D01*
X146151260Y-129876607D01*
X146188109Y-129895217D01*
X146199257Y-129916343D01*
X146169262Y-129925424D01*
X146084344Y-129932366D01*
X145952101Y-129937233D01*
X145780134Y-129940089D01*
X145576041Y-129940999D01*
X145347422Y-129940028D01*
X145101875Y-129937241D01*
X144847001Y-129932701D01*
X144590398Y-129926475D01*
X144339667Y-129918626D01*
X144102405Y-129909218D01*
X143886212Y-129898318D01*
X143853198Y-129896387D01*
X143647983Y-129884279D01*
X143458274Y-129873396D01*
X143294983Y-129864339D01*
X143169024Y-129857709D01*
X143091310Y-129854108D01*
X143078998Y-129853707D01*
X143009778Y-129842469D01*
X142977621Y-129818401D01*
X142977336Y-129815730D01*
X142994957Y-129807080D01*
X143050136Y-129800332D01*
X143146347Y-129795443D01*
X143287061Y-129792373D01*
X143475754Y-129791081D01*
X143715897Y-129791525D01*
G37*
G36*
X143300454Y-127811589D02*
G01*
X143569713Y-127824178D01*
X143892909Y-127843817D01*
X144166006Y-127862879D01*
X144505244Y-127885204D01*
X144810326Y-127899293D01*
X145106303Y-127905742D01*
X145418225Y-127905142D01*
X145714405Y-127899538D01*
X145935670Y-127895158D01*
X146141624Y-127893126D01*
X146322265Y-127893380D01*
X146467588Y-127895855D01*
X146567588Y-127900490D01*
X146605907Y-127905129D01*
X146690888Y-127935126D01*
X146717606Y-127971272D01*
X146689827Y-128011565D01*
X146611314Y-128054000D01*
X146485835Y-128096575D01*
X146317153Y-128137287D01*
X146109035Y-128174131D01*
X146096860Y-128175955D01*
X145926029Y-128194789D01*
X145711306Y-128208590D01*
X145468747Y-128217247D01*
X145214407Y-128220648D01*
X144964342Y-128218683D01*
X144734607Y-128211240D01*
X144541258Y-128198208D01*
X144447533Y-128187393D01*
X144142029Y-128141321D01*
X143853516Y-128093826D01*
X143587834Y-128046161D01*
X143350819Y-127999580D01*
X143148312Y-127955339D01*
X142986150Y-127914691D01*
X142870171Y-127878891D01*
X142806213Y-127849193D01*
X142795596Y-127832465D01*
X142832701Y-127816489D01*
X142930306Y-127807708D01*
X143086771Y-127806087D01*
X143300454Y-127811589D01*
G37*
G36*
X143867063Y-131206953D02*
G01*
X143902712Y-131250308D01*
X143915094Y-131328777D01*
X143904029Y-131419329D01*
X143869361Y-131498891D01*
X143790167Y-131575647D01*
X143662016Y-131656893D01*
X143497438Y-131735562D01*
X143352705Y-131790297D01*
X143179404Y-131832997D01*
X142966502Y-131861477D01*
X142735530Y-131874820D01*
X142508018Y-131872107D01*
X142305498Y-131852419D01*
X142230094Y-131838197D01*
X142103428Y-131804236D01*
X141943028Y-131753500D01*
X141761198Y-131690704D01*
X141570245Y-131620565D01*
X141382472Y-131547799D01*
X141210186Y-131477121D01*
X141065690Y-131413250D01*
X140961291Y-131360899D01*
X140923694Y-131337480D01*
X140880555Y-131296577D01*
X140892284Y-131276679D01*
X140959777Y-131277850D01*
X141083932Y-131300153D01*
X141265646Y-131343649D01*
X141358457Y-131368016D01*
X141635932Y-131441215D01*
X141862426Y-131498188D01*
X142046869Y-131540723D01*
X142198194Y-131570607D01*
X142325330Y-131589627D01*
X142437210Y-131599570D01*
X142528833Y-131602228D01*
X142820421Y-131584301D01*
X143106871Y-131531493D01*
X143372389Y-131448146D01*
X143601181Y-131338598D01*
X143683969Y-131284783D01*
X143773670Y-131230255D01*
X143844354Y-131205571D01*
X143867063Y-131206953D01*
G37*
G36*
X145641949Y-130716749D02*
G01*
X145890321Y-130723035D01*
X146105250Y-130733977D01*
X146273941Y-130749676D01*
X146308740Y-130754563D01*
X146471452Y-130783679D01*
X146619001Y-130817373D01*
X146739917Y-130852300D01*
X146822732Y-130885115D01*
X146855978Y-130912474D01*
X146856154Y-130914223D01*
X146830805Y-130926606D01*
X146753642Y-130938288D01*
X146622984Y-130949357D01*
X146437152Y-130959902D01*
X146194467Y-130970013D01*
X145893251Y-130979779D01*
X145531824Y-130989288D01*
X145369984Y-130993041D01*
X145103461Y-131000445D01*
X144810480Y-131011002D01*
X144512030Y-131023793D01*
X144229100Y-131037903D01*
X143982678Y-131052416D01*
X143931068Y-131055873D01*
X143623432Y-131075486D01*
X143352212Y-131089532D01*
X143121805Y-131097938D01*
X142936608Y-131100634D01*
X142801019Y-131097548D01*
X142719436Y-131088610D01*
X142695809Y-131075841D01*
X142725982Y-131050639D01*
X142812932Y-131019238D01*
X142951300Y-130982749D01*
X143135728Y-130942281D01*
X143360861Y-130898945D01*
X143621339Y-130853850D01*
X143911805Y-130808106D01*
X144166006Y-130771254D01*
X144346316Y-130751690D01*
X144569959Y-130736185D01*
X144824140Y-130724839D01*
X145096063Y-130717751D01*
X145372932Y-130715021D01*
X145641949Y-130716749D01*
G37*
G36*
X140427697Y-129314192D02*
G01*
X140403151Y-129390256D01*
X140340370Y-129515539D01*
X140333323Y-129528334D01*
X140268717Y-129642730D01*
X140208646Y-129745254D01*
X140165147Y-129815405D01*
X140162093Y-129819967D01*
X140114369Y-129905759D01*
X140072436Y-130004801D01*
X140071447Y-130007652D01*
X140051137Y-130079603D01*
X140059685Y-130127416D01*
X140105683Y-130177293D01*
X140135426Y-130202792D01*
X140246173Y-130274954D01*
X140404039Y-130348841D01*
X140594060Y-130418452D01*
X140801271Y-130477787D01*
X140850242Y-130489453D01*
X140992436Y-130522004D01*
X141155995Y-130559476D01*
X141280353Y-130587987D01*
X141410646Y-130624819D01*
X141487188Y-130662015D01*
X141507529Y-130697211D01*
X141469216Y-130728047D01*
X141436757Y-130738675D01*
X141365109Y-130748046D01*
X141248144Y-130753119D01*
X141102938Y-130754144D01*
X140946572Y-130751370D01*
X140796122Y-130745046D01*
X140668668Y-130735421D01*
X140599996Y-130726460D01*
X140351665Y-130666346D01*
X140138560Y-130580867D01*
X139967180Y-130474181D01*
X139844024Y-130350442D01*
X139775591Y-130213810D01*
X139771282Y-130196370D01*
X139774605Y-130075175D01*
X139829540Y-129928127D01*
X139933307Y-129760283D01*
X140083128Y-129576702D01*
X140152097Y-129503313D01*
X140276207Y-129381908D01*
X140363796Y-129309959D01*
X140414436Y-129287407D01*
X140427697Y-129314192D01*
G37*
G36*
X149015725Y-128858520D02*
G01*
X149182649Y-128900883D01*
X149206641Y-128908967D01*
X149399552Y-128982200D01*
X149533469Y-129049399D01*
X149611459Y-129112423D01*
X149636530Y-129169871D01*
X149642362Y-129245059D01*
X149653523Y-129347795D01*
X149658161Y-129384766D01*
X149665869Y-129476928D01*
X149651571Y-129535378D01*
X149605485Y-129587760D01*
X149577927Y-129611552D01*
X149510504Y-129659824D01*
X149439877Y-129684768D01*
X149341712Y-129693209D01*
X149285835Y-129693471D01*
X149158903Y-129685630D01*
X149037747Y-129666919D01*
X148975363Y-129650214D01*
X148816566Y-129572923D01*
X148691873Y-129471587D01*
X148605762Y-129355350D01*
X148570620Y-129255757D01*
X148807208Y-129255757D01*
X148843783Y-129335262D01*
X148923625Y-129408720D01*
X149046807Y-129465816D01*
X149089440Y-129477554D01*
X149251317Y-129502047D01*
X149378389Y-129491815D01*
X149423235Y-129474778D01*
X149474718Y-129415936D01*
X149475339Y-129324280D01*
X149437911Y-129227744D01*
X149404374Y-129175966D01*
X149358310Y-129140443D01*
X149285547Y-129115265D01*
X149171913Y-129094521D01*
X149092164Y-129083550D01*
X148956379Y-129084100D01*
X148863578Y-129119861D01*
X148813831Y-129180518D01*
X148807208Y-129255757D01*
X148570620Y-129255757D01*
X148562714Y-129233353D01*
X148567205Y-129114739D01*
X148623716Y-129008650D01*
X148648601Y-128983223D01*
X148763852Y-128897674D01*
X148881176Y-128856778D01*
X149015725Y-128858520D01*
G37*
G36*
X160682437Y-127224812D02*
G01*
X160751506Y-127299726D01*
X160795290Y-127367653D01*
X160871473Y-127524723D01*
X160926618Y-127705191D01*
X160963803Y-127922036D01*
X160984928Y-128167047D01*
X160988565Y-128408223D01*
X160966738Y-128603742D01*
X160916704Y-128766238D01*
X160835720Y-128908344D01*
X160819160Y-128930753D01*
X160701625Y-129039182D01*
X160554049Y-129108374D01*
X160395089Y-129132928D01*
X160243401Y-129107443D01*
X160228690Y-129101659D01*
X160119583Y-129026868D01*
X160011761Y-128899956D01*
X159909695Y-128731283D01*
X159817859Y-128531209D01*
X159740726Y-128310092D01*
X159682768Y-128078293D01*
X159648458Y-127846170D01*
X159641858Y-127742445D01*
X159640281Y-127623865D01*
X159647266Y-127554480D01*
X159665255Y-127521221D01*
X159684834Y-127512612D01*
X159720549Y-127519908D01*
X159757069Y-127560784D01*
X159797189Y-127641387D01*
X159843703Y-127767864D01*
X159899406Y-127946361D01*
X159930308Y-128052603D01*
X160023247Y-128347328D01*
X160115853Y-128580008D01*
X160208592Y-128751153D01*
X160301928Y-128861276D01*
X160396323Y-128910887D01*
X160492244Y-128900498D01*
X160590155Y-128830620D01*
X160613851Y-128805224D01*
X160707176Y-128651924D01*
X160754022Y-128459119D01*
X160754258Y-128229329D01*
X160707751Y-127965075D01*
X160666037Y-127817997D01*
X160635543Y-127704356D01*
X160606209Y-127567511D01*
X160592644Y-127489549D01*
X160580151Y-127342898D01*
X160593275Y-127248494D01*
X160628532Y-127208434D01*
X160682437Y-127224812D01*
G37*
G36*
X142129439Y-126585647D02*
G01*
X142283017Y-126591338D01*
X142406238Y-126602772D01*
X142515178Y-126621533D01*
X142625915Y-126649207D01*
X142645197Y-126654660D01*
X142903086Y-126739509D01*
X143105527Y-126831569D01*
X143259528Y-126934410D01*
X143334292Y-127005746D01*
X143422466Y-127140350D01*
X143452082Y-127279129D01*
X143422602Y-127413964D01*
X143366972Y-127501117D01*
X143284708Y-127578863D01*
X143209995Y-127616826D01*
X143153198Y-127616528D01*
X143124682Y-127579493D01*
X143134814Y-127507243D01*
X143151664Y-127469491D01*
X143191369Y-127357319D01*
X143178635Y-127264293D01*
X143140864Y-127205242D01*
X143040588Y-127110747D01*
X142900675Y-127026048D01*
X142711140Y-126945433D01*
X142646139Y-126922235D01*
X142521781Y-126882567D01*
X142411245Y-126857035D01*
X142293243Y-126842574D01*
X142146489Y-126836121D01*
X142038912Y-126834835D01*
X141795939Y-126840584D01*
X141601985Y-126864337D01*
X141444815Y-126911377D01*
X141312193Y-126986992D01*
X141191884Y-127096465D01*
X141071650Y-127245081D01*
X141063641Y-127256092D01*
X140936600Y-127428175D01*
X140840228Y-127550625D01*
X140771767Y-127626694D01*
X140728460Y-127659631D01*
X140719553Y-127661593D01*
X140703521Y-127634678D01*
X140709675Y-127564268D01*
X140710580Y-127559930D01*
X140764334Y-127377567D01*
X140845322Y-127187923D01*
X140943758Y-127009221D01*
X141049854Y-126859683D01*
X141132638Y-126774159D01*
X141221125Y-126704859D01*
X141305208Y-126654593D01*
X141397366Y-126620385D01*
X141510081Y-126599259D01*
X141655832Y-126588238D01*
X141847099Y-126584345D01*
X141929429Y-126584116D01*
X142129439Y-126585647D01*
G37*
G36*
X150404258Y-127421281D02*
G01*
X150502692Y-127443395D01*
X150617761Y-127471453D01*
X150741555Y-127487991D01*
X150757637Y-127488889D01*
X150907516Y-127524257D01*
X151040082Y-127609862D01*
X151150059Y-127734550D01*
X151232172Y-127887165D01*
X151281146Y-128056552D01*
X151291708Y-128231557D01*
X151258581Y-128401024D01*
X151225261Y-128477794D01*
X151110386Y-128631741D01*
X150948379Y-128759104D01*
X150750399Y-128856020D01*
X150527602Y-128918626D01*
X150291147Y-128943059D01*
X150052191Y-128925458D01*
X149976285Y-128910145D01*
X149761639Y-128835128D01*
X149572635Y-128721447D01*
X149420708Y-128578020D01*
X149317291Y-128413766D01*
X149306653Y-128387843D01*
X149274918Y-128286414D01*
X149274635Y-128278754D01*
X149494074Y-128278754D01*
X149545197Y-128403260D01*
X149659746Y-128534350D01*
X149818019Y-128635695D01*
X150007415Y-128704780D01*
X150215333Y-128739092D01*
X150429173Y-128736116D01*
X150636334Y-128693337D01*
X150757171Y-128645099D01*
X150922408Y-128537787D01*
X151036574Y-128406202D01*
X151096761Y-128257284D01*
X151100064Y-128097970D01*
X151049687Y-127946859D01*
X150988196Y-127857475D01*
X150898116Y-127783795D01*
X150769120Y-127719749D01*
X150590879Y-127659269D01*
X150531646Y-127642396D01*
X150334459Y-127618848D01*
X150125189Y-127648985D01*
X149916684Y-127729115D01*
X149721793Y-127855543D01*
X149686337Y-127885394D01*
X149561316Y-128019267D01*
X149497532Y-128149275D01*
X149494074Y-128278754D01*
X149274635Y-128278754D01*
X149271769Y-128201238D01*
X149291578Y-128107197D01*
X149362798Y-127925497D01*
X149475288Y-127771734D01*
X149636458Y-127637817D01*
X149816702Y-127533829D01*
X150014294Y-127457159D01*
X150216325Y-127418828D01*
X150404258Y-127421281D01*
G37*
G36*
X158739602Y-127626035D02*
G01*
X158834950Y-127692449D01*
X158934510Y-127813844D01*
X158948673Y-127835427D01*
X159026901Y-127968762D01*
X159112020Y-128132340D01*
X159199108Y-128314538D01*
X159283241Y-128503730D01*
X159359498Y-128688293D01*
X159422954Y-128856601D01*
X159468686Y-128997030D01*
X159491773Y-129097955D01*
X159493592Y-129122137D01*
X159477621Y-129178658D01*
X159450311Y-129194351D01*
X159405148Y-129171299D01*
X159336635Y-129111260D01*
X159258127Y-129027906D01*
X159182978Y-128934913D01*
X159148154Y-128884976D01*
X159119771Y-128845886D01*
X159088375Y-128827344D01*
X159036905Y-128827257D01*
X158948297Y-128843532D01*
X158898000Y-128854292D01*
X158696117Y-128897815D01*
X158673483Y-129079006D01*
X158642872Y-129242995D01*
X158599786Y-129359563D01*
X158547451Y-129425160D01*
X158489092Y-129436237D01*
X158427936Y-129389245D01*
X158411839Y-129366870D01*
X158390606Y-129326736D01*
X158376844Y-129275730D01*
X158369794Y-129202471D01*
X158368700Y-129095576D01*
X158372803Y-128943664D01*
X158376826Y-128841003D01*
X158394346Y-128560172D01*
X158419988Y-128313276D01*
X158711572Y-128313276D01*
X158712963Y-128452674D01*
X158716738Y-128565639D01*
X158722300Y-128639640D01*
X158728217Y-128662578D01*
X158765296Y-128651609D01*
X158835768Y-128624506D01*
X158853340Y-128617253D01*
X158923292Y-128585379D01*
X158960141Y-128563425D01*
X158961819Y-128560770D01*
X158950722Y-128526901D01*
X158921657Y-128450954D01*
X158880963Y-128348496D01*
X158834977Y-128235095D01*
X158790038Y-128126319D01*
X158752485Y-128037737D01*
X158728656Y-127984916D01*
X158724145Y-127977007D01*
X158719146Y-128000785D01*
X158715090Y-128075207D01*
X158712420Y-128188357D01*
X158711572Y-128313276D01*
X158419988Y-128313276D01*
X158422178Y-128292190D01*
X158458378Y-128051073D01*
X158501005Y-127850836D01*
X158526030Y-127764584D01*
X158580423Y-127661311D01*
X158653187Y-127615392D01*
X158739602Y-127626035D01*
G37*
G36*
X157458245Y-127831878D02*
G01*
X157578086Y-127862539D01*
X157675240Y-127907682D01*
X157738585Y-127963880D01*
X157757000Y-128027710D01*
X157742631Y-128067008D01*
X157717545Y-128088862D01*
X157669840Y-128093390D01*
X157584153Y-128080778D01*
X157529257Y-128069592D01*
X157338894Y-128051251D01*
X157183450Y-128084785D01*
X157062322Y-128170590D01*
X156974908Y-128309060D01*
X156927453Y-128464623D01*
X156903136Y-128667952D01*
X156912369Y-128863473D01*
X156950774Y-129044378D01*
X157013975Y-129203862D01*
X157097593Y-129335118D01*
X157197253Y-129431340D01*
X157308575Y-129485721D01*
X157427184Y-129491455D01*
X157548702Y-129441736D01*
X157553701Y-129438402D01*
X157630712Y-129365034D01*
X157711751Y-129254683D01*
X157785559Y-129127172D01*
X157840881Y-129002325D01*
X157866458Y-128899966D01*
X157867039Y-128886631D01*
X157867086Y-128803342D01*
X157596039Y-128803342D01*
X157441429Y-128798507D01*
X157346935Y-128783149D01*
X157310798Y-128755988D01*
X157331259Y-128715745D01*
X157403305Y-128663131D01*
X157555166Y-128588376D01*
X157708497Y-128545094D01*
X157849741Y-128534492D01*
X157965343Y-128557777D01*
X158034821Y-128606918D01*
X158076076Y-128702266D01*
X158083549Y-128833807D01*
X158061311Y-128987924D01*
X158013434Y-129151000D01*
X157943987Y-129309418D01*
X157857043Y-129449558D01*
X157756671Y-129557806D01*
X157748596Y-129564353D01*
X157647781Y-129628454D01*
X157527720Y-129682990D01*
X157413972Y-129717666D01*
X157350858Y-129724577D01*
X157303699Y-129714133D01*
X157223764Y-129689481D01*
X157194454Y-129679448D01*
X157055000Y-129599575D01*
X156929611Y-129467511D01*
X156827177Y-129293413D01*
X156800072Y-129228848D01*
X156757716Y-129075572D01*
X156728399Y-128884428D01*
X156713654Y-128678800D01*
X156715016Y-128482077D01*
X156734019Y-128317644D01*
X156738867Y-128295610D01*
X156798494Y-128141262D01*
X156893063Y-128002221D01*
X157008235Y-127897092D01*
X157073807Y-127861032D01*
X157194984Y-127827700D01*
X157326837Y-127819124D01*
X157458245Y-127831878D01*
G37*
G36*
X140421591Y-127067440D02*
G01*
X140469471Y-127089567D01*
X140458544Y-127131616D01*
X140388723Y-127192996D01*
X140259922Y-127273118D01*
X140072053Y-127371390D01*
X139969357Y-127420840D01*
X139836645Y-127488096D01*
X139717908Y-127556701D01*
X139629895Y-127616568D01*
X139599011Y-127643872D01*
X139559687Y-127693195D01*
X139536234Y-127746790D01*
X139524660Y-127822139D01*
X139520974Y-127936720D01*
X139520809Y-127986363D01*
X139523552Y-128123127D01*
X139536041Y-128225269D01*
X139564663Y-128319693D01*
X139615803Y-128433301D01*
X139637175Y-128476516D01*
X139717258Y-128618714D01*
X139815481Y-128767810D01*
X139910621Y-128891594D01*
X139910882Y-128891896D01*
X140007080Y-129009948D01*
X140057416Y-129090578D01*
X140062384Y-129138381D01*
X140022477Y-129157946D01*
X139939091Y-129153988D01*
X139809623Y-129114109D01*
X139663674Y-129033368D01*
X139518432Y-128923631D01*
X139391086Y-128796764D01*
X139353098Y-128749406D01*
X139241519Y-128599951D01*
X139153575Y-128793687D01*
X139077397Y-128971177D01*
X139019383Y-129126176D01*
X138983510Y-129247192D01*
X138973395Y-129314444D01*
X138994058Y-129385326D01*
X139049303Y-129485009D01*
X139129016Y-129598522D01*
X139223081Y-129710894D01*
X139282237Y-129771574D01*
X139372346Y-129872440D01*
X139408363Y-129946789D01*
X139393875Y-129992338D01*
X139332466Y-130006808D01*
X139227722Y-129987916D01*
X139083228Y-129933381D01*
X139051169Y-129918609D01*
X138871141Y-129805105D01*
X138737262Y-129660148D01*
X138654918Y-129491365D01*
X138629306Y-129321179D01*
X138650406Y-129203811D01*
X138707948Y-129058009D01*
X138793299Y-128898723D01*
X138897827Y-128740903D01*
X139012896Y-128599498D01*
X139090809Y-128522079D01*
X139131192Y-128481613D01*
X139145674Y-128442216D01*
X139136607Y-128382193D01*
X139114270Y-128305698D01*
X139085114Y-128177298D01*
X139068619Y-128040253D01*
X139067237Y-127998921D01*
X139087196Y-127774426D01*
X139149334Y-127586708D01*
X139257041Y-127432321D01*
X139413710Y-127307820D01*
X139622731Y-127209761D01*
X139887495Y-127134696D01*
X139925981Y-127126490D01*
X140149759Y-127085311D01*
X140314992Y-127065824D01*
X140421591Y-127067440D01*
G37*
G36*
X152672343Y-115802410D02*
G01*
X152896826Y-115915271D01*
X153131575Y-116087274D01*
X153375806Y-116318064D01*
X153628731Y-116607282D01*
X153784253Y-116808604D01*
X153902799Y-116983218D01*
X154036110Y-117204342D01*
X154177937Y-117459558D01*
X154322034Y-117736448D01*
X154462152Y-118022595D01*
X154592046Y-118305579D01*
X154705468Y-118572984D01*
X154796170Y-118812391D01*
X154804614Y-118836840D01*
X154882264Y-119050720D01*
X154949841Y-119206276D01*
X155009295Y-119306579D01*
X155062577Y-119354700D01*
X155111639Y-119353709D01*
X155126655Y-119343615D01*
X155188976Y-119259227D01*
X155232380Y-119123778D01*
X155257250Y-118934807D01*
X155263973Y-118689850D01*
X155258722Y-118497851D01*
X155249917Y-118313733D01*
X155240003Y-118131668D01*
X155230086Y-117970558D01*
X155221273Y-117849304D01*
X155219749Y-117831605D01*
X155211656Y-117718021D01*
X155214109Y-117653571D01*
X155228932Y-117625438D01*
X155249803Y-117620460D01*
X155287283Y-117647973D01*
X155338841Y-117722385D01*
X155398000Y-117831506D01*
X155458285Y-117963145D01*
X155513221Y-118105113D01*
X155523970Y-118136593D01*
X155552384Y-118275572D01*
X155564007Y-118456384D01*
X155560191Y-118660988D01*
X155542288Y-118871343D01*
X155511648Y-119069408D01*
X155469623Y-119237141D01*
X155434940Y-119325263D01*
X155377486Y-119419247D01*
X155306403Y-119505393D01*
X155236562Y-119567939D01*
X155184146Y-119591150D01*
X155156159Y-119608165D01*
X155157661Y-119667266D01*
X155161759Y-119687526D01*
X155188853Y-119854141D01*
X155209318Y-120068137D01*
X155223152Y-120316051D01*
X155230348Y-120584418D01*
X155230904Y-120859775D01*
X155224813Y-121128657D01*
X155212073Y-121377599D01*
X155192677Y-121593138D01*
X155166622Y-121761809D01*
X155162468Y-121780805D01*
X155106298Y-121977388D01*
X155030538Y-122174419D01*
X154943302Y-122354254D01*
X154852707Y-122499247D01*
X154805802Y-122556256D01*
X154651656Y-122677297D01*
X154468029Y-122753365D01*
X154271935Y-122779846D01*
X154081813Y-122752563D01*
X153862494Y-122658499D01*
X153660041Y-122513980D01*
X153473492Y-122317389D01*
X153301883Y-122067106D01*
X153144250Y-121761511D01*
X152999629Y-121398987D01*
X152867058Y-120977915D01*
X152749507Y-120513933D01*
X152662806Y-120122093D01*
X152594604Y-119782860D01*
X152544227Y-119489287D01*
X152511003Y-119234430D01*
X152494724Y-119017537D01*
X152854199Y-119017537D01*
X152854961Y-119096705D01*
X152865477Y-119275933D01*
X152889968Y-119403543D01*
X152932216Y-119489641D01*
X152996002Y-119544334D01*
X153028113Y-119559569D01*
X153101332Y-119584055D01*
X153150995Y-119576615D01*
X153206864Y-119530600D01*
X153221143Y-119516442D01*
X153284354Y-119423998D01*
X153320020Y-119295904D01*
X153329993Y-119123209D01*
X153325598Y-119012144D01*
X153302027Y-118864218D01*
X153255727Y-118739794D01*
X153193399Y-118647956D01*
X153121740Y-118597788D01*
X153047451Y-118598375D01*
X153027859Y-118608384D01*
X152945653Y-118673790D01*
X152892452Y-118754904D01*
X152863540Y-118865046D01*
X152854199Y-119017537D01*
X152494724Y-119017537D01*
X152494259Y-119011342D01*
X152493321Y-118813080D01*
X152507516Y-118632697D01*
X152536171Y-118463248D01*
X152546383Y-118418120D01*
X152587605Y-118256275D01*
X152639716Y-118067582D01*
X152693645Y-117884488D01*
X152712521Y-117823785D01*
X152762020Y-117674853D01*
X152805498Y-117568367D01*
X152852905Y-117486283D01*
X152914191Y-117410558D01*
X152975579Y-117346753D01*
X153091362Y-117240936D01*
X153173726Y-117187270D01*
X153221146Y-117184776D01*
X153232097Y-117232473D01*
X153205054Y-117329382D01*
X153147343Y-117457128D01*
X153100287Y-117561169D01*
X153048699Y-117692447D01*
X152996058Y-117839719D01*
X152945843Y-117991744D01*
X152901530Y-118137280D01*
X152866599Y-118265085D01*
X152844528Y-118363919D01*
X152838794Y-118422538D01*
X152845170Y-118433760D01*
X152880441Y-118423815D01*
X152945725Y-118400404D01*
X153077687Y-118380043D01*
X153205489Y-118416635D01*
X153327029Y-118504609D01*
X153440206Y-118638391D01*
X153542918Y-118812407D01*
X153633064Y-119021084D01*
X153708543Y-119258850D01*
X153767255Y-119520130D01*
X153807096Y-119799351D01*
X153825967Y-120090941D01*
X153821766Y-120389325D01*
X153796725Y-120657543D01*
X153748203Y-120922095D01*
X153680119Y-121129020D01*
X153591149Y-121280537D01*
X153479968Y-121378863D01*
X153345252Y-121426216D01*
X153337027Y-121427400D01*
X153210674Y-121444347D01*
X153278391Y-121589115D01*
X153434584Y-121878012D01*
X153608886Y-122118067D01*
X153797699Y-122305306D01*
X153997423Y-122435751D01*
X154075369Y-122469579D01*
X154236888Y-122517936D01*
X154369549Y-122525890D01*
X154492797Y-122492798D01*
X154569812Y-122453270D01*
X154691779Y-122348272D01*
X154799077Y-122187501D01*
X154888894Y-121976612D01*
X154958418Y-121721260D01*
X154974376Y-121639730D01*
X154993257Y-121512254D01*
X155006251Y-121367617D01*
X155013336Y-121198984D01*
X155014493Y-120999521D01*
X155009701Y-120762393D01*
X154998940Y-120480765D01*
X154982189Y-120147801D01*
X154969256Y-119920542D01*
X154949065Y-119577398D01*
X154818139Y-119446472D01*
X154721031Y-119332264D01*
X154622873Y-119180851D01*
X154520219Y-118985847D01*
X154409625Y-118740869D01*
X154322212Y-118527603D01*
X154095055Y-118015096D01*
X153837958Y-117545069D01*
X153554140Y-117122664D01*
X153246821Y-116753024D01*
X153146354Y-116649028D01*
X152929520Y-116446203D01*
X152738487Y-116296868D01*
X152569782Y-116199221D01*
X152419932Y-116151462D01*
X152285467Y-116151790D01*
X152222210Y-116169694D01*
X152177512Y-116200896D01*
X152133402Y-116262965D01*
X152088073Y-116361081D01*
X152039718Y-116500425D01*
X151986530Y-116686178D01*
X151926703Y-116923520D01*
X151861556Y-117203776D01*
X151819614Y-117383198D01*
X151779622Y-117542983D01*
X151744471Y-117672432D01*
X151717048Y-117760845D01*
X151701593Y-117796218D01*
X151634186Y-117836018D01*
X151555960Y-117821933D01*
X151507544Y-117783708D01*
X151463984Y-117701562D01*
X151431529Y-117572274D01*
X151411791Y-117410537D01*
X151406382Y-117231047D01*
X151416913Y-117048497D01*
X151422132Y-117004807D01*
X151490401Y-116662845D01*
X151597753Y-116366830D01*
X151743493Y-116118324D01*
X151892810Y-115949544D01*
X152068361Y-115822260D01*
X152257324Y-115755548D01*
X152458913Y-115749050D01*
X152672343Y-115802410D01*
G37*
G36*
X150492003Y-108472526D02*
G01*
X150634495Y-108481998D01*
X151039352Y-108521865D01*
X151390107Y-108576943D01*
X151693985Y-108650078D01*
X151958211Y-108744114D01*
X152190009Y-108861895D01*
X152396607Y-109006266D01*
X152585227Y-109180072D01*
X152683486Y-109288731D01*
X152818697Y-109464089D01*
X152904793Y-109622566D01*
X152946320Y-109779440D01*
X152947825Y-109949988D01*
X152924755Y-110099349D01*
X152897083Y-110215053D01*
X152856796Y-110359690D01*
X152809270Y-110516329D01*
X152759879Y-110668040D01*
X152714000Y-110797892D01*
X152677006Y-110888955D01*
X152668853Y-110905418D01*
X152642004Y-110964526D01*
X152597533Y-111072540D01*
X152539201Y-111219571D01*
X152470770Y-111395731D01*
X152396002Y-111591133D01*
X152318659Y-111795887D01*
X152242502Y-112000106D01*
X152171294Y-112193903D01*
X152108796Y-112367388D01*
X152064361Y-112494322D01*
X151947997Y-112866051D01*
X151836267Y-113287114D01*
X151732512Y-113744297D01*
X151673896Y-114038810D01*
X151647816Y-114182824D01*
X151618811Y-114352581D01*
X151588427Y-114537907D01*
X151558209Y-114728623D01*
X151529700Y-114914554D01*
X151504444Y-115085524D01*
X151483987Y-115231357D01*
X151469873Y-115341877D01*
X151463645Y-115406907D01*
X151464308Y-115419830D01*
X151487632Y-115401434D01*
X151546080Y-115344672D01*
X151632232Y-115257046D01*
X151738664Y-115146054D01*
X151810155Y-115070316D01*
X151924277Y-114950461D01*
X152024812Y-114850374D01*
X152122176Y-114761693D01*
X152226787Y-114676056D01*
X152349062Y-114585100D01*
X152499416Y-114480464D01*
X152688268Y-114353786D01*
X152771004Y-114298980D01*
X152948685Y-114182600D01*
X153111246Y-114078175D01*
X153250747Y-113990638D01*
X153359252Y-113924925D01*
X153428822Y-113885970D01*
X153449254Y-113877359D01*
X153517878Y-113865036D01*
X153604984Y-113848382D01*
X153673451Y-113840688D01*
X153706176Y-113848364D01*
X153706646Y-113850388D01*
X153685493Y-113879126D01*
X153627466Y-113942733D01*
X153540709Y-114032638D01*
X153433370Y-114140270D01*
X153398544Y-114174566D01*
X153262338Y-114311413D01*
X153161768Y-114422297D01*
X153085239Y-114522286D01*
X153021157Y-114626446D01*
X152961423Y-114742627D01*
X152901697Y-114870832D01*
X152851313Y-114988360D01*
X152818017Y-115076744D01*
X152810735Y-115101818D01*
X152803399Y-115142432D01*
X152810690Y-115157914D01*
X152840409Y-115144362D01*
X152900357Y-115097875D01*
X152998337Y-115014550D01*
X153016435Y-114998944D01*
X153323306Y-114774842D01*
X153662126Y-114602389D01*
X154027597Y-114482967D01*
X154414423Y-114417960D01*
X154817305Y-114408750D01*
X155148033Y-114442551D01*
X155319984Y-114471651D01*
X155501699Y-114505765D01*
X155664135Y-114539321D01*
X155725467Y-114553294D01*
X155971982Y-114612026D01*
X156067085Y-114533156D01*
X156116302Y-114489023D01*
X156202430Y-114408295D01*
X156317821Y-114298288D01*
X156454825Y-114166318D01*
X156605793Y-114019701D01*
X156693961Y-113933555D01*
X156856872Y-113776020D01*
X157017647Y-113624164D01*
X157166838Y-113486642D01*
X157294997Y-113372109D01*
X157392676Y-113289221D01*
X157424510Y-113264297D01*
X157794503Y-113011236D01*
X158213555Y-112765751D01*
X158668176Y-112534067D01*
X159144879Y-112322403D01*
X159630176Y-112136984D01*
X160110577Y-111984030D01*
X160323706Y-111926913D01*
X160664392Y-111873373D01*
X161018162Y-111879484D01*
X161382819Y-111944232D01*
X161756165Y-112066603D01*
X162136004Y-112245580D01*
X162520136Y-112480150D01*
X162906365Y-112769298D01*
X163292493Y-113112009D01*
X163625133Y-113451325D01*
X163963574Y-113836602D01*
X164278295Y-114232104D01*
X164561633Y-114627181D01*
X164805926Y-115011183D01*
X164993149Y-115352603D01*
X165176711Y-115771425D01*
X165316157Y-116201308D01*
X165410517Y-116633995D01*
X165458823Y-117061230D01*
X165460103Y-117474757D01*
X165413388Y-117866318D01*
X165327492Y-118199154D01*
X165253985Y-118418120D01*
X165343902Y-118511962D01*
X165412393Y-118603480D01*
X165492598Y-118743310D01*
X165578928Y-118919644D01*
X165665797Y-119120672D01*
X165747616Y-119334585D01*
X165786283Y-119446905D01*
X165836970Y-119612679D01*
X165861499Y-119722773D01*
X165860694Y-119777949D01*
X165835382Y-119778969D01*
X165786388Y-119726594D01*
X165714538Y-119621588D01*
X165620658Y-119464712D01*
X165505575Y-119256728D01*
X165434120Y-119121938D01*
X165351109Y-118963847D01*
X165278191Y-118825974D01*
X165220261Y-118717492D01*
X165182213Y-118647574D01*
X165169180Y-118625337D01*
X165144395Y-118639316D01*
X165095656Y-118688434D01*
X165074897Y-118712334D01*
X164998824Y-118788742D01*
X164898933Y-118871859D01*
X164846826Y-118909618D01*
X164762179Y-118971016D01*
X164699198Y-119023764D01*
X164678189Y-119046975D01*
X164637475Y-119087870D01*
X164566891Y-119139645D01*
X164549706Y-119150581D01*
X164444877Y-119215369D01*
X164476103Y-119373297D01*
X164489529Y-119582441D01*
X164455237Y-119818108D01*
X164375329Y-120068978D01*
X164326032Y-120181740D01*
X164234641Y-120364323D01*
X164148959Y-120516247D01*
X164073649Y-120630314D01*
X164013373Y-120699326D01*
X163979124Y-120717258D01*
X163953477Y-120713723D01*
X163940985Y-120696489D01*
X163942972Y-120655613D01*
X163960762Y-120581155D01*
X163995677Y-120463170D01*
X164025905Y-120365723D01*
X164088135Y-120160864D01*
X164132153Y-119999274D01*
X164160927Y-119865356D01*
X164177426Y-119743511D01*
X164184619Y-119618143D01*
X164185710Y-119526125D01*
X164185710Y-119269838D01*
X164038419Y-119290027D01*
X163811860Y-119297568D01*
X163549168Y-119266469D01*
X163260178Y-119200531D01*
X162954721Y-119103553D01*
X162642630Y-118979336D01*
X162333738Y-118831680D01*
X162037878Y-118664386D01*
X161764883Y-118481253D01*
X161590692Y-118344007D01*
X161401647Y-118177317D01*
X161240586Y-118018979D01*
X161098757Y-117857456D01*
X160967407Y-117681214D01*
X160837782Y-117478714D01*
X160701128Y-117238422D01*
X160583970Y-117017225D01*
X160376885Y-116633516D01*
X160180532Y-116303614D01*
X159990389Y-116020652D01*
X159801932Y-115777765D01*
X159669603Y-115628980D01*
X159439760Y-115385334D01*
X159208609Y-115440804D01*
X158870805Y-115544879D01*
X158529369Y-115696911D01*
X158179418Y-115899668D01*
X157816067Y-116155915D01*
X157510552Y-116402906D01*
X157169754Y-116692861D01*
X157290591Y-116789111D01*
X157424236Y-116899365D01*
X157561435Y-117018977D01*
X157688182Y-117135190D01*
X157790475Y-117235242D01*
X157843506Y-117292932D01*
X157909000Y-117381481D01*
X157972653Y-117484413D01*
X158023896Y-117582616D01*
X158052159Y-117656978D01*
X158054676Y-117674738D01*
X158064907Y-117709616D01*
X158099042Y-117699638D01*
X158162241Y-117642277D01*
X158197437Y-117604819D01*
X158299529Y-117520004D01*
X158394064Y-117497164D01*
X158481689Y-117536253D01*
X158524992Y-117581359D01*
X158556814Y-117626718D01*
X158575293Y-117674469D01*
X158582363Y-117740206D01*
X158579959Y-117839521D01*
X158572025Y-117960422D01*
X158549291Y-118178312D01*
X158511400Y-118374595D01*
X158453332Y-118561990D01*
X158370064Y-118753218D01*
X158256574Y-118960997D01*
X158107839Y-119198047D01*
X158047539Y-119288776D01*
X157892784Y-119529681D01*
X157779189Y-119734975D01*
X157704736Y-119914318D01*
X157667406Y-120077372D01*
X157665181Y-120233796D01*
X157696042Y-120393253D01*
X157757971Y-120565402D01*
X157773376Y-120601005D01*
X157835476Y-120741391D01*
X158234423Y-120606139D01*
X158566828Y-120500767D01*
X158865994Y-120423335D01*
X159152514Y-120369908D01*
X159446980Y-120336552D01*
X159728198Y-120320705D01*
X159914392Y-120314915D01*
X160051527Y-120313493D01*
X160153017Y-120317482D01*
X160232277Y-120327927D01*
X160302720Y-120345869D01*
X160374015Y-120370932D01*
X160537297Y-120445154D01*
X160717573Y-120546781D01*
X160890789Y-120660930D01*
X161032893Y-120772720D01*
X161052604Y-120790775D01*
X161180489Y-120949040D01*
X161284716Y-121153596D01*
X161362402Y-121391725D01*
X161410669Y-121650708D01*
X161426636Y-121917826D01*
X161407422Y-122180361D01*
X161389681Y-122279184D01*
X161366991Y-122390496D01*
X161351856Y-122474300D01*
X161346985Y-122515315D01*
X161347472Y-122517032D01*
X161376286Y-122534410D01*
X161442215Y-122573155D01*
X161495562Y-122604266D01*
X161626392Y-122691753D01*
X161782729Y-122813868D01*
X161949679Y-122957472D01*
X162112349Y-123109427D01*
X162255843Y-123256594D01*
X162327064Y-123337761D01*
X162548958Y-123653270D01*
X162718567Y-124000539D01*
X162834074Y-124374353D01*
X162893661Y-124769499D01*
X162901949Y-124987085D01*
X162895610Y-125158391D01*
X162878564Y-125341938D01*
X162853747Y-125512963D01*
X162824096Y-125646698D01*
X162823493Y-125648757D01*
X162817064Y-125667787D01*
X162814212Y-125683224D01*
X162820950Y-125695848D01*
X162843291Y-125706443D01*
X162887248Y-125715790D01*
X162958833Y-125724672D01*
X163064059Y-125733870D01*
X163208940Y-125744167D01*
X163399486Y-125756346D01*
X163641713Y-125771187D01*
X163872902Y-125785269D01*
X164490359Y-125832000D01*
X165080864Y-125894645D01*
X165635357Y-125971969D01*
X166144777Y-126062738D01*
X166521984Y-126146206D01*
X166891047Y-126249290D01*
X167202371Y-126363847D01*
X167455249Y-126489382D01*
X167648973Y-126625397D01*
X167782838Y-126771395D01*
X167856135Y-126926882D01*
X167868159Y-127091359D01*
X167868104Y-127091853D01*
X167856751Y-127161866D01*
X167834745Y-127221057D01*
X167793187Y-127282503D01*
X167723178Y-127359283D01*
X167615818Y-127464476D01*
X167612198Y-127467948D01*
X167417566Y-127638622D01*
X167189142Y-127809003D01*
X166924601Y-127980085D01*
X166621615Y-128152860D01*
X166277859Y-128328322D01*
X165891005Y-128507464D01*
X165458726Y-128691279D01*
X164978697Y-128880760D01*
X164448589Y-129076900D01*
X163866076Y-129280693D01*
X163228833Y-129493131D01*
X162534531Y-129715208D01*
X161855291Y-129925256D01*
X161620042Y-129996548D01*
X161393467Y-130064428D01*
X161185554Y-130125963D01*
X161006294Y-130178220D01*
X160865674Y-130218264D01*
X160773685Y-130243164D01*
X160766563Y-130244952D01*
X160653427Y-130275826D01*
X160591580Y-130301730D01*
X160570644Y-130328225D01*
X160573958Y-130348156D01*
X160606375Y-130486129D01*
X160614604Y-130664529D01*
X160600192Y-130866757D01*
X160564684Y-131076214D01*
X160509625Y-131276303D01*
X160480156Y-131355740D01*
X160365176Y-131590293D01*
X160220436Y-131809539D01*
X160054277Y-132005372D01*
X159875040Y-132169687D01*
X159691068Y-132294376D01*
X159510702Y-132371334D01*
X159415390Y-132390451D01*
X159341087Y-132413240D01*
X159307612Y-132469801D01*
X159305652Y-132478535D01*
X159264318Y-132551936D01*
X159202097Y-132598452D01*
X159122437Y-132622871D01*
X158998706Y-132645539D01*
X158849397Y-132664568D01*
X158692999Y-132678068D01*
X158548004Y-132684151D01*
X158432903Y-132680928D01*
X158414405Y-132678911D01*
X158296006Y-132659901D01*
X158158279Y-132632462D01*
X158019580Y-132600879D01*
X157898264Y-132569441D01*
X157812685Y-132542433D01*
X157792069Y-132533574D01*
X157724049Y-132511491D01*
X157626918Y-132493751D01*
X157596090Y-132490285D01*
X157469560Y-132468872D01*
X157312379Y-132428644D01*
X157145635Y-132376416D01*
X156990417Y-132319003D01*
X156867812Y-132263222D01*
X156834627Y-132244166D01*
X156650393Y-132100044D01*
X156465624Y-131902707D01*
X156287750Y-131660995D01*
X156146636Y-131425620D01*
X156086492Y-131315786D01*
X156038438Y-131229080D01*
X156009703Y-131178498D01*
X156004992Y-131170973D01*
X155972844Y-131171230D01*
X155888568Y-131177879D01*
X155762165Y-131189968D01*
X155603636Y-131206545D01*
X155438235Y-131224917D01*
X154555333Y-131313787D01*
X153614187Y-131385851D01*
X153067959Y-131418507D01*
X152777871Y-131432278D01*
X152530499Y-131439155D01*
X152306378Y-131439119D01*
X152086041Y-131432156D01*
X151850024Y-131418248D01*
X151839178Y-131417491D01*
X151296007Y-131379353D01*
X151085871Y-131563927D01*
X150895844Y-131728134D01*
X150697991Y-131894274D01*
X150499073Y-132057105D01*
X150305854Y-132211383D01*
X150125094Y-132351865D01*
X149963556Y-132473310D01*
X149828002Y-132570474D01*
X149725194Y-132638114D01*
X149661894Y-132670988D01*
X149655784Y-132672693D01*
X149586163Y-132678851D01*
X149487372Y-132678227D01*
X149452459Y-132676326D01*
X149379211Y-132670506D01*
X149255337Y-132659789D01*
X149092487Y-132645222D01*
X148902313Y-132627849D01*
X148696467Y-132608718D01*
X148639158Y-132603334D01*
X148257685Y-132567483D01*
X147930147Y-132536882D01*
X147648204Y-132510794D01*
X147403518Y-132488479D01*
X147187748Y-132469200D01*
X146992555Y-132452216D01*
X146809600Y-132436791D01*
X146630544Y-132422184D01*
X146447047Y-132407658D01*
X146308740Y-132396930D01*
X146010168Y-132371159D01*
X145763611Y-132344000D01*
X145571147Y-132315818D01*
X145434854Y-132286978D01*
X145356809Y-132257847D01*
X145339090Y-132228788D01*
X145340256Y-132226613D01*
X145388030Y-132186427D01*
X145432518Y-132161613D01*
X146046167Y-132161613D01*
X146082931Y-132165835D01*
X146092381Y-132165883D01*
X146256527Y-132167610D01*
X146467221Y-132173130D01*
X146715754Y-132181955D01*
X146993418Y-132193598D01*
X147291502Y-132207573D01*
X147601299Y-132223392D01*
X147914099Y-132240569D01*
X148221194Y-132258616D01*
X148513875Y-132277048D01*
X148783432Y-132295376D01*
X149021158Y-132313115D01*
X149218343Y-132329776D01*
X149366279Y-132344874D01*
X149421178Y-132351993D01*
X149528736Y-132366893D01*
X149617996Y-132377785D01*
X149652942Y-132381089D01*
X149700573Y-132360694D01*
X149784194Y-132299297D01*
X149897478Y-132201981D01*
X150028311Y-132079442D01*
X150304839Y-131822993D01*
X150624106Y-131546306D01*
X150973956Y-131259157D01*
X151342238Y-130971319D01*
X151716795Y-130692569D01*
X152019457Y-130478068D01*
X152224757Y-130336100D01*
X150811073Y-130336141D01*
X149397389Y-130336182D01*
X149229419Y-130449608D01*
X149135151Y-130511517D01*
X149005026Y-130594635D01*
X148856707Y-130687775D01*
X148717360Y-130773930D01*
X148416082Y-130959108D01*
X148064601Y-131176091D01*
X147665582Y-131423230D01*
X147221688Y-131698878D01*
X147182172Y-131723446D01*
X147019888Y-131823160D01*
X146894350Y-131895706D01*
X146789816Y-131947968D01*
X146690550Y-131986827D01*
X146580811Y-132019167D01*
X146444860Y-132051870D01*
X146416337Y-132058339D01*
X146239740Y-132099263D01*
X146121336Y-132129401D01*
X146057890Y-132149827D01*
X146046167Y-132161613D01*
X145432518Y-132161613D01*
X145484217Y-132132777D01*
X145617323Y-132070227D01*
X145775853Y-132003341D01*
X145948312Y-131936681D01*
X146123205Y-131874812D01*
X146289038Y-131822296D01*
X146434316Y-131783698D01*
X146480784Y-131773814D01*
X146574846Y-131743557D01*
X146650985Y-131699704D01*
X146652828Y-131698129D01*
X146711820Y-131654427D01*
X146804524Y-131593743D01*
X146903075Y-131533854D01*
X146980785Y-131488103D01*
X147102816Y-131415889D01*
X147259760Y-131322797D01*
X147442209Y-131214411D01*
X147640754Y-131096317D01*
X147827165Y-130985314D01*
X148044727Y-130856627D01*
X148266541Y-130727109D01*
X148480432Y-130603747D01*
X148674227Y-130493528D01*
X148835753Y-130403437D01*
X148928218Y-130353377D01*
X149292867Y-130160200D01*
X149724572Y-130116132D01*
X149933140Y-130099811D01*
X150200413Y-130087252D01*
X150522644Y-130078565D01*
X150896082Y-130073859D01*
X151204183Y-130073004D01*
X151549192Y-130074220D01*
X151835961Y-130077341D01*
X152068793Y-130082589D01*
X152251987Y-130090187D01*
X152389843Y-130100354D01*
X152486663Y-130113314D01*
X152546745Y-130129287D01*
X152570279Y-130143370D01*
X152579227Y-130181836D01*
X152548896Y-130243869D01*
X152476663Y-130332568D01*
X152359908Y-130451027D01*
X152196007Y-130602346D01*
X152138152Y-130653815D01*
X152000651Y-130775463D01*
X151872416Y-130889163D01*
X151763996Y-130985546D01*
X151685940Y-131055238D01*
X151659123Y-131079387D01*
X151563912Y-131165777D01*
X151755446Y-131150293D01*
X156146548Y-131150293D01*
X156162643Y-131200063D01*
X156205472Y-131287483D01*
X156266844Y-131398294D01*
X156338574Y-131518239D01*
X156412471Y-131633059D01*
X156473117Y-131718969D01*
X156648676Y-131913892D01*
X156864559Y-132093131D01*
X157101822Y-132243358D01*
X157341518Y-132351243D01*
X157397779Y-132369496D01*
X157475981Y-132392750D01*
X157389959Y-132324039D01*
X157336872Y-132268866D01*
X157304977Y-132212757D01*
X157302426Y-132173737D01*
X157318500Y-132166026D01*
X157351179Y-132179839D01*
X157423584Y-132216210D01*
X157520629Y-132267538D01*
X157529646Y-132272409D01*
X157782369Y-132386514D01*
X158073087Y-132478789D01*
X158211080Y-132511231D01*
X158317094Y-132530880D01*
X158364818Y-132533525D01*
X158353534Y-132519634D01*
X158282519Y-132489678D01*
X158258001Y-132480687D01*
X158106105Y-132425327D01*
X158003806Y-132385734D01*
X157941545Y-132357313D01*
X157909763Y-132335467D01*
X157898902Y-132315601D01*
X157898272Y-132307729D01*
X157913861Y-132293011D01*
X157965622Y-132292100D01*
X158061048Y-132305764D01*
X158207629Y-132334773D01*
X158250181Y-132343872D01*
X158507199Y-132395987D01*
X158724118Y-132432958D01*
X158895983Y-132454176D01*
X159017841Y-132459033D01*
X159084740Y-132446923D01*
X159085664Y-132446397D01*
X159099913Y-132427622D01*
X159058729Y-132417552D01*
X159008740Y-132415025D01*
X158910988Y-132406892D01*
X158831158Y-132390911D01*
X158821055Y-132387422D01*
X158758493Y-132362968D01*
X158821055Y-132345261D01*
X158885594Y-132332136D01*
X158986922Y-132316732D01*
X159070751Y-132306193D01*
X159301061Y-132264641D01*
X159492592Y-132192034D01*
X159665381Y-132078649D01*
X159806400Y-131949177D01*
X159964519Y-131772054D01*
X160080979Y-131600206D01*
X160169936Y-131410652D01*
X160212385Y-131290164D01*
X160278943Y-131019528D01*
X160293828Y-130768752D01*
X160256061Y-130521899D01*
X160164663Y-130263032D01*
X160146860Y-130223466D01*
X160089920Y-130108314D01*
X160041051Y-130036152D01*
X159986942Y-129991179D01*
X159927132Y-129962623D01*
X159783882Y-129927104D01*
X159602127Y-129914266D01*
X159401511Y-129923708D01*
X159201676Y-129955028D01*
X159105955Y-129979424D01*
X158889961Y-130056772D01*
X158642435Y-130168471D01*
X158378227Y-130306888D01*
X158112187Y-130464389D01*
X157929553Y-130584146D01*
X157716300Y-130728979D01*
X157545471Y-130841051D01*
X157409036Y-130924599D01*
X157298969Y-130983856D01*
X157207240Y-131023058D01*
X157125822Y-131046441D01*
X157046688Y-131058239D01*
X157028028Y-131059754D01*
X156890059Y-131072752D01*
X156736818Y-131091770D01*
X156662681Y-131102837D01*
X156524965Y-131120362D01*
X156380587Y-131131485D01*
X156310772Y-131133524D01*
X156218995Y-131136498D01*
X156159389Y-131143883D01*
X156146548Y-131150293D01*
X151755446Y-131150293D01*
X151798518Y-131146811D01*
X151900973Y-131140180D01*
X152052640Y-131132533D01*
X152240187Y-131124435D01*
X152450284Y-131116451D01*
X152669600Y-131109146D01*
X152729404Y-131107342D01*
X153425685Y-131086839D01*
X153281288Y-130914795D01*
X153126027Y-130691687D01*
X152987635Y-130416283D01*
X152868452Y-130097136D01*
X152770820Y-129742802D01*
X152697082Y-129361835D01*
X152649579Y-128962790D01*
X152636397Y-128678218D01*
X152879588Y-128678218D01*
X152883968Y-128937530D01*
X152897844Y-129160748D01*
X152924367Y-129365623D01*
X152966690Y-129569907D01*
X153027963Y-129791351D01*
X153111339Y-130047706D01*
X153134859Y-130116027D01*
X153203397Y-130306981D01*
X153265774Y-130461941D01*
X153333021Y-130605064D01*
X153416167Y-130760509D01*
X153481708Y-130875694D01*
X153594522Y-131071199D01*
X153788006Y-131071199D01*
X153892050Y-131067822D01*
X154040030Y-131058580D01*
X154213740Y-131044805D01*
X154394969Y-131027832D01*
X154430583Y-131024163D01*
X154593761Y-131006318D01*
X154790242Y-130983633D01*
X155008856Y-130957519D01*
X155238435Y-130929382D01*
X155467810Y-130900632D01*
X155685812Y-130872677D01*
X155881273Y-130846925D01*
X156043022Y-130824785D01*
X156159892Y-130807665D01*
X156200757Y-130800941D01*
X156301887Y-130782909D01*
X156162875Y-130623997D01*
X155999611Y-130403800D01*
X155862142Y-130144211D01*
X155749138Y-129841071D01*
X155659269Y-129490222D01*
X155591203Y-129087506D01*
X155550195Y-128709499D01*
X155532618Y-128433079D01*
X155530473Y-128325364D01*
X155779697Y-128325364D01*
X155787297Y-128546881D01*
X155807176Y-128787456D01*
X155837397Y-129026396D01*
X155876025Y-129243009D01*
X155897867Y-129336404D01*
X155963341Y-129555005D01*
X156050871Y-129798458D01*
X156151859Y-130045835D01*
X156257708Y-130276210D01*
X156359819Y-130468653D01*
X156370348Y-130486430D01*
X156449369Y-130616976D01*
X156505594Y-130702543D01*
X156548425Y-130751785D01*
X156587266Y-130773362D01*
X156631523Y-130775929D01*
X156678321Y-130769941D01*
X156766984Y-130758500D01*
X156889795Y-130744624D01*
X157006769Y-130732646D01*
X157121077Y-130720408D01*
X157187126Y-130706620D01*
X157218969Y-130684153D01*
X157224506Y-130666023D01*
X157344662Y-130666023D01*
X157354450Y-130695805D01*
X157354971Y-130695829D01*
X157390575Y-130679324D01*
X157461299Y-130636232D01*
X157544074Y-130581147D01*
X157629750Y-130518098D01*
X157689851Y-130466150D01*
X157710587Y-130438296D01*
X157689565Y-130384939D01*
X157638304Y-130314831D01*
X157574512Y-130247653D01*
X157515896Y-130203084D01*
X157491974Y-130195337D01*
X157447161Y-130220046D01*
X157411602Y-130298695D01*
X157403450Y-130328280D01*
X157370622Y-130471192D01*
X157350539Y-130587463D01*
X157344662Y-130666023D01*
X157224506Y-130666023D01*
X157230660Y-130645873D01*
X157233417Y-130617627D01*
X157260848Y-130410055D01*
X157305858Y-130259040D01*
X157370788Y-130160463D01*
X157457978Y-130110205D01*
X157526622Y-130101494D01*
X157596307Y-130125074D01*
X157679310Y-130184186D01*
X157755665Y-130261391D01*
X157805404Y-130339252D01*
X157808632Y-130347800D01*
X157838725Y-130344870D01*
X157915968Y-130316759D01*
X158031972Y-130267079D01*
X158178346Y-130199444D01*
X158346701Y-130117469D01*
X158367484Y-130107089D01*
X158652885Y-129967641D01*
X158893552Y-129858402D01*
X159097850Y-129776497D01*
X159274145Y-129719053D01*
X159430803Y-129683199D01*
X159576189Y-129666060D01*
X159658972Y-129663563D01*
X159907809Y-129684254D01*
X160111771Y-129746826D01*
X160273124Y-129852025D01*
X160296207Y-129873929D01*
X160404887Y-129982609D01*
X160817281Y-129881085D01*
X161026866Y-129828138D01*
X161261150Y-129766621D01*
X161513326Y-129698525D01*
X161776585Y-129625843D01*
X162044121Y-129550568D01*
X162309125Y-129474691D01*
X162564790Y-129400205D01*
X162804308Y-129329102D01*
X163020872Y-129263375D01*
X163207673Y-129205015D01*
X163357904Y-129156015D01*
X163464758Y-129118368D01*
X163521426Y-129094065D01*
X163528814Y-129087547D01*
X163516643Y-129056780D01*
X163484278Y-128983335D01*
X163437940Y-128881247D01*
X163422112Y-128846848D01*
X163347927Y-128678799D01*
X163292221Y-128530494D01*
X163252470Y-128387951D01*
X163226149Y-128237189D01*
X163210733Y-128064223D01*
X163203697Y-127855073D01*
X163202872Y-127708514D01*
X163455050Y-127708514D01*
X163456121Y-127922853D01*
X163459247Y-128088064D01*
X163465695Y-128217578D01*
X163476734Y-128324823D01*
X163493631Y-128423230D01*
X163517653Y-128526227D01*
X163540262Y-128611465D01*
X163589123Y-128785074D01*
X163627807Y-128905599D01*
X163660194Y-128980915D01*
X163690161Y-129018900D01*
X163721589Y-129027431D01*
X163742358Y-129021850D01*
X163792002Y-129002998D01*
X163886038Y-128968117D01*
X164010052Y-128922530D01*
X164123149Y-128881206D01*
X164621409Y-128696767D01*
X165065025Y-128526178D01*
X165459711Y-128366841D01*
X165811183Y-128216154D01*
X166125156Y-128071519D01*
X166407347Y-127930336D01*
X166663469Y-127790006D01*
X166899239Y-127647930D01*
X167047902Y-127550980D01*
X167271878Y-127394947D01*
X167440464Y-127265223D01*
X167554628Y-127160956D01*
X167615339Y-127081293D01*
X167626597Y-127041904D01*
X167602483Y-126984907D01*
X167538870Y-126907031D01*
X167448850Y-126821281D01*
X167345515Y-126740662D01*
X167282508Y-126700126D01*
X167105190Y-126615335D01*
X166870556Y-126533498D01*
X166583822Y-126455598D01*
X166250202Y-126382619D01*
X165874911Y-126315544D01*
X165463163Y-126255357D01*
X165020175Y-126203041D01*
X164551161Y-126159578D01*
X164326474Y-126142716D01*
X164190119Y-126134553D01*
X164100798Y-126134344D01*
X164043270Y-126144080D01*
X164002291Y-126165755D01*
X163975873Y-126188544D01*
X163919345Y-126235467D01*
X163882030Y-126255291D01*
X163846738Y-126275173D01*
X163781434Y-126325128D01*
X163723016Y-126374569D01*
X163660829Y-126432358D01*
X163617500Y-126486084D01*
X163585576Y-126551599D01*
X163557600Y-126644750D01*
X163526119Y-126781387D01*
X163521342Y-126803346D01*
X163495919Y-126931301D01*
X163477655Y-127054070D01*
X163465504Y-127185953D01*
X163458418Y-127341248D01*
X163455351Y-127534256D01*
X163455050Y-127708514D01*
X163202872Y-127708514D01*
X163202432Y-127630312D01*
X163204828Y-127382443D01*
X163211513Y-127186866D01*
X163223160Y-127033416D01*
X163240442Y-126911928D01*
X163254213Y-126848476D01*
X163278571Y-126744763D01*
X163293527Y-126668464D01*
X163295851Y-126636184D01*
X163264415Y-126641833D01*
X163192410Y-126665871D01*
X163118410Y-126694070D01*
X162737708Y-126823607D01*
X162351197Y-126913465D01*
X161974003Y-126960962D01*
X161621251Y-126963418D01*
X161605045Y-126962347D01*
X161504255Y-126956106D01*
X161445677Y-126955192D01*
X161432581Y-126961026D01*
X161468239Y-126975030D01*
X161555920Y-126998628D01*
X161698894Y-127033241D01*
X161848577Y-127068260D01*
X161979255Y-127100751D01*
X162085613Y-127131205D01*
X162153773Y-127155421D01*
X162171051Y-127165876D01*
X162156107Y-127184717D01*
X162088660Y-127195041D01*
X161978076Y-127197602D01*
X161833725Y-127193150D01*
X161664973Y-127182438D01*
X161481187Y-127166218D01*
X161291737Y-127145242D01*
X161105989Y-127120261D01*
X160933312Y-127092028D01*
X160783072Y-127061295D01*
X160741574Y-127051134D01*
X160625543Y-127017157D01*
X160474780Y-126967270D01*
X160378291Y-126932835D01*
X161233566Y-126932835D01*
X161276597Y-126937196D01*
X161321004Y-126932280D01*
X161315698Y-126921418D01*
X161251655Y-126917287D01*
X161237496Y-126921418D01*
X161233566Y-126932835D01*
X160378291Y-126932835D01*
X160312425Y-126909329D01*
X160214651Y-126872246D01*
X160066432Y-126816323D01*
X159966681Y-126783835D01*
X159906759Y-126772666D01*
X159878026Y-126780704D01*
X159873356Y-126788747D01*
X159843528Y-126836561D01*
X159785438Y-126905271D01*
X159757579Y-126934315D01*
X159643804Y-127015164D01*
X159526488Y-127039435D01*
X159415863Y-127006581D01*
X159353828Y-126955897D01*
X159310712Y-126895249D01*
X159282312Y-126814196D01*
X159263124Y-126694761D01*
X159257670Y-126641662D01*
X159249611Y-126555665D01*
X159407896Y-126555665D01*
X159432020Y-126628160D01*
X159472640Y-126712557D01*
X159519718Y-126789429D01*
X159563218Y-126839346D01*
X159582751Y-126848292D01*
X159614049Y-126828704D01*
X159670529Y-126780115D01*
X159686692Y-126764903D01*
X159773732Y-126681513D01*
X159597438Y-126592588D01*
X159504695Y-126548173D01*
X159436901Y-126520149D01*
X159410305Y-126514502D01*
X159407896Y-126555665D01*
X159249611Y-126555665D01*
X159235728Y-126407506D01*
X158981470Y-126239378D01*
X158853658Y-126149990D01*
X158730799Y-126055744D01*
X158633054Y-125972389D01*
X158605793Y-125945923D01*
X158484373Y-125820597D01*
X158292985Y-125980331D01*
X158182795Y-126066995D01*
X158041208Y-126170895D01*
X157890004Y-126276309D01*
X157800965Y-126335540D01*
X157670959Y-126421161D01*
X157584117Y-126483325D01*
X157530715Y-126531997D01*
X157501032Y-126577141D01*
X157485343Y-126628723D01*
X157478791Y-126665725D01*
X157438910Y-126826515D01*
X157375610Y-126982246D01*
X157297836Y-127115507D01*
X157214536Y-127208892D01*
X157190906Y-127225855D01*
X157046590Y-127283570D01*
X156905413Y-127282690D01*
X156778286Y-127225922D01*
X156676122Y-127115971D01*
X156663653Y-127095109D01*
X156600119Y-126982196D01*
X156428075Y-127053391D01*
X156306943Y-127102044D01*
X156160382Y-127158847D01*
X156032030Y-127207076D01*
X155808029Y-127289564D01*
X155807447Y-127605673D01*
X155804959Y-127772319D01*
X155798818Y-127945595D01*
X155790159Y-128096597D01*
X155786309Y-128143596D01*
X155779697Y-128325364D01*
X155530473Y-128325364D01*
X155527339Y-128167974D01*
X155533927Y-127925628D01*
X155551950Y-127717489D01*
X155580977Y-127555003D01*
X155595620Y-127505216D01*
X155621531Y-127421450D01*
X155633087Y-127366191D01*
X155631957Y-127355541D01*
X155599066Y-127359054D01*
X155521454Y-127378327D01*
X155413831Y-127409577D01*
X155375276Y-127421545D01*
X154942150Y-127539970D01*
X154462518Y-127638183D01*
X153949807Y-127713918D01*
X153417444Y-127764909D01*
X153293791Y-127772889D01*
X152959139Y-127792516D01*
X152918723Y-127969481D01*
X152901887Y-128081281D01*
X152889370Y-128245023D01*
X152881751Y-128450199D01*
X152879588Y-128678218D01*
X152636397Y-128678218D01*
X152630653Y-128554222D01*
X152630521Y-128537455D01*
X152630933Y-128358232D01*
X152634124Y-128190906D01*
X152639614Y-128050211D01*
X152646919Y-127950880D01*
X152650568Y-127924167D01*
X152673678Y-127795731D01*
X152462884Y-127776687D01*
X152309277Y-127758185D01*
X152179945Y-127733855D01*
X152085321Y-127706482D01*
X152035841Y-127678850D01*
X152032901Y-127661953D01*
X152078711Y-127633067D01*
X152181350Y-127597940D01*
X152335551Y-127557952D01*
X152536048Y-127514483D01*
X152752582Y-127473372D01*
X153156936Y-127395156D01*
X153515329Y-127312699D01*
X153844363Y-127221254D01*
X154160637Y-127116072D01*
X154480750Y-126992405D01*
X154582508Y-126949933D01*
X154780296Y-126870029D01*
X154930347Y-126818043D01*
X155030537Y-126794566D01*
X155078747Y-126800189D01*
X155083001Y-126810542D01*
X155057840Y-126855936D01*
X154988614Y-126926172D01*
X154884709Y-127013580D01*
X154755511Y-127110489D01*
X154610404Y-127209230D01*
X154542875Y-127251935D01*
X154430328Y-127322754D01*
X154342114Y-127380909D01*
X154288924Y-127419185D01*
X154278361Y-127430434D01*
X154310584Y-127427295D01*
X154391893Y-127411949D01*
X154510541Y-127386794D01*
X154654781Y-127354228D01*
X154677592Y-127348923D01*
X155279375Y-127189736D01*
X155862834Y-126998489D01*
X156007660Y-126941436D01*
X156772163Y-126941436D01*
X156794478Y-126977715D01*
X156848780Y-127029073D01*
X156854584Y-127033707D01*
X156956682Y-127084926D01*
X157066352Y-127095412D01*
X157161190Y-127064781D01*
X157191277Y-127039487D01*
X157228269Y-126982454D01*
X157273839Y-126891335D01*
X157318434Y-126788251D01*
X157352502Y-126695324D01*
X157366489Y-126634675D01*
X157366498Y-126633741D01*
X157340794Y-126636368D01*
X157271180Y-126663707D01*
X157168904Y-126710951D01*
X157069331Y-126760771D01*
X156947867Y-126825812D01*
X156850390Y-126882596D01*
X156788426Y-126924118D01*
X156772163Y-126941436D01*
X156007660Y-126941436D01*
X156421696Y-126778330D01*
X156949689Y-126532404D01*
X157440540Y-126263858D01*
X157887976Y-125975838D01*
X158285726Y-125671490D01*
X158601251Y-125380922D01*
X158697696Y-125286724D01*
X158781039Y-125212394D01*
X158839927Y-125167690D01*
X158859317Y-125159130D01*
X158895410Y-125181354D01*
X158888085Y-125247405D01*
X158837630Y-125356344D01*
X158758265Y-125486210D01*
X158694452Y-125585312D01*
X158647792Y-125661529D01*
X158625851Y-125702359D01*
X158625322Y-125705936D01*
X158715101Y-125759890D01*
X158847871Y-125836481D01*
X159011403Y-125928945D01*
X159193465Y-126030518D01*
X159381827Y-126134437D01*
X159564257Y-126233937D01*
X159728526Y-126322254D01*
X159862402Y-126392624D01*
X159919443Y-126421624D01*
X160139874Y-126527991D01*
X160357749Y-126626796D01*
X160565304Y-126715091D01*
X160754772Y-126789929D01*
X160918386Y-126848360D01*
X161048382Y-126887437D01*
X161136992Y-126904213D01*
X161174647Y-126898107D01*
X161167395Y-126881861D01*
X161148007Y-126879573D01*
X161089818Y-126862582D01*
X161031820Y-126829834D01*
X160985103Y-126779186D01*
X160998834Y-126736743D01*
X161071274Y-126703864D01*
X161200686Y-126681908D01*
X161223791Y-126679736D01*
X161333727Y-126670267D01*
X161485020Y-126657270D01*
X161656693Y-126642545D01*
X161808370Y-126629553D01*
X162006965Y-126612288D01*
X162152099Y-126597718D01*
X162252634Y-126583062D01*
X162317432Y-126565541D01*
X162355354Y-126542376D01*
X162366008Y-126525470D01*
X162506350Y-126525470D01*
X162528414Y-126531545D01*
X162582540Y-126525169D01*
X162675358Y-126505087D01*
X162813497Y-126470043D01*
X163003585Y-126418783D01*
X163051499Y-126405628D01*
X163205890Y-126361833D01*
X163311183Y-126327393D01*
X163379048Y-126296800D01*
X163421158Y-126264544D01*
X163449182Y-126225116D01*
X163454334Y-126215479D01*
X163467365Y-126183374D01*
X163700577Y-126183374D01*
X163740619Y-126183588D01*
X163755134Y-126179952D01*
X163827997Y-126164519D01*
X163865082Y-126160542D01*
X163901435Y-126140354D01*
X163904183Y-126128834D01*
X163879324Y-126102750D01*
X163821736Y-126097112D01*
X163756907Y-126109453D01*
X163710321Y-126137305D01*
X163703740Y-126148245D01*
X163700577Y-126183374D01*
X163467365Y-126183374D01*
X163481837Y-126147718D01*
X163484914Y-126106237D01*
X163483582Y-126104456D01*
X163446640Y-126095908D01*
X163360520Y-126086834D01*
X163238584Y-126078387D01*
X163112616Y-126072403D01*
X162760215Y-126058914D01*
X162770464Y-125945290D01*
X162768646Y-125911226D01*
X162751629Y-125928384D01*
X162717985Y-125999350D01*
X162666286Y-126126710D01*
X162656665Y-126151408D01*
X162604090Y-126285002D01*
X162558044Y-126398493D01*
X162524178Y-126478154D01*
X162509719Y-126508199D01*
X162506350Y-126525470D01*
X162366008Y-126525470D01*
X162375262Y-126510787D01*
X162386016Y-126467993D01*
X162389726Y-126447195D01*
X162404805Y-126371371D01*
X162430582Y-126251519D01*
X162463364Y-126104494D01*
X162497214Y-125956790D01*
X162587183Y-125530873D01*
X162646407Y-125154279D01*
X162674177Y-124821449D01*
X162669781Y-124526825D01*
X162632509Y-124264849D01*
X162561650Y-124029963D01*
X162456494Y-123816608D01*
X162316329Y-123619227D01*
X162179274Y-123469839D01*
X162066485Y-123364489D01*
X161921759Y-123238409D01*
X161763855Y-123107532D01*
X161613505Y-122989291D01*
X161266540Y-122725388D01*
X161154265Y-122940570D01*
X161026736Y-123160821D01*
X160861933Y-123407676D01*
X160670007Y-123666936D01*
X160461108Y-123924399D01*
X160401702Y-123993379D01*
X160121727Y-124290489D01*
X159846237Y-124536143D01*
X159578043Y-124728490D01*
X159319955Y-124865678D01*
X159074782Y-124945854D01*
X158925310Y-124966428D01*
X158797771Y-124969745D01*
X158701458Y-124958197D01*
X158605631Y-124925537D01*
X158514675Y-124882979D01*
X158402475Y-124817053D01*
X158269039Y-124722922D01*
X158136995Y-124616989D01*
X158088980Y-124574382D01*
X157833311Y-124347607D01*
X157596700Y-124156726D01*
X157360740Y-123987533D01*
X157165689Y-123861717D01*
X156938323Y-123716833D01*
X156747733Y-123584195D01*
X156574438Y-123448677D01*
X156398956Y-123295155D01*
X156227197Y-123133098D01*
X156095673Y-123002708D01*
X156004931Y-122903723D01*
X155947883Y-122827271D01*
X155917442Y-122764477D01*
X155910109Y-122736102D01*
X155888105Y-122653738D01*
X155859739Y-122627850D01*
X155818091Y-122652353D01*
X155816535Y-122653830D01*
X155778512Y-122679346D01*
X155697488Y-122727334D01*
X155585627Y-122790757D01*
X155464227Y-122857619D01*
X155313724Y-122942429D01*
X155162975Y-123032479D01*
X155032578Y-123115216D01*
X154963734Y-123162575D01*
X154770027Y-123320537D01*
X154557991Y-123522609D01*
X154337637Y-123757126D01*
X154118973Y-124012422D01*
X153912011Y-124276833D01*
X153726760Y-124538694D01*
X153578925Y-124776348D01*
X153431539Y-125054144D01*
X153297847Y-125345378D01*
X153184158Y-125634111D01*
X153096780Y-125904409D01*
X153044418Y-126126619D01*
X153015011Y-126286239D01*
X152984547Y-126444206D01*
X152957580Y-126577208D01*
X152945454Y-126633203D01*
X152905746Y-126809123D01*
X153095051Y-126827412D01*
X153225214Y-126845289D01*
X153356137Y-126872057D01*
X153473392Y-126903646D01*
X153562553Y-126935984D01*
X153609194Y-126965000D01*
X153612804Y-126973527D01*
X153588396Y-127008822D01*
X153542422Y-127041150D01*
X153479871Y-127058135D01*
X153367214Y-127072264D01*
X153216855Y-127083268D01*
X153041196Y-127090880D01*
X152852641Y-127094835D01*
X152663592Y-127094863D01*
X152486451Y-127090699D01*
X152333622Y-127082075D01*
X152222681Y-127069578D01*
X152147135Y-127058561D01*
X152076700Y-127052371D01*
X152001584Y-127051919D01*
X151911995Y-127058119D01*
X151798140Y-127071882D01*
X151650227Y-127094122D01*
X151458464Y-127125751D01*
X151264134Y-127158902D01*
X151008800Y-127203046D01*
X150768748Y-127245257D01*
X150534210Y-127287361D01*
X150295417Y-127331187D01*
X150042597Y-127378563D01*
X149765982Y-127431317D01*
X149455802Y-127491276D01*
X149102287Y-127560269D01*
X148764282Y-127626623D01*
X148515742Y-127675116D01*
X148257153Y-127724878D01*
X148004297Y-127772922D01*
X147772955Y-127816258D01*
X147578910Y-127851899D01*
X147497410Y-127866500D01*
X147333088Y-127896596D01*
X147191025Y-127924569D01*
X147082457Y-127948056D01*
X147018622Y-127964689D01*
X147006918Y-127969763D01*
X146990019Y-128012941D01*
X146969648Y-128106787D01*
X146947386Y-128239613D01*
X146924813Y-128399730D01*
X146903510Y-128575449D01*
X146885059Y-128755082D01*
X146871038Y-128926940D01*
X146865836Y-129012988D01*
X146861284Y-129306057D01*
X146881228Y-129582369D01*
X146928430Y-129867583D01*
X146983056Y-130101494D01*
X147064114Y-130426001D01*
X147125905Y-130693144D01*
X147168619Y-130905016D01*
X147192446Y-131063713D01*
X147197577Y-131171329D01*
X147184202Y-131229959D01*
X147152510Y-131241696D01*
X147102692Y-131208637D01*
X147081634Y-131187538D01*
X147015468Y-131095109D01*
X146942668Y-130957344D01*
X146870168Y-130789980D01*
X146804896Y-130608753D01*
X146761729Y-130461223D01*
X146737329Y-130345430D01*
X146710730Y-130183575D01*
X146684241Y-129991995D01*
X146660171Y-129787027D01*
X146645474Y-129638565D01*
X146626299Y-129412561D01*
X146614532Y-129232114D01*
X146609936Y-129080686D01*
X146612273Y-128941742D01*
X146621306Y-128798746D01*
X146631773Y-128684501D01*
X146650789Y-128517087D01*
X146673357Y-128354528D01*
X146696458Y-128216929D01*
X146714451Y-128133883D01*
X146738216Y-128037988D01*
X146752429Y-127968633D01*
X146754407Y-127946199D01*
X146765207Y-127900035D01*
X146801832Y-127825401D01*
X146851642Y-127743165D01*
X146901995Y-127674197D01*
X146940249Y-127639362D01*
X146940292Y-127639346D01*
X146998828Y-127646124D01*
X147029500Y-127673724D01*
X147051260Y-127696312D01*
X147082212Y-127705083D01*
X147134246Y-127698225D01*
X147219249Y-127673927D01*
X147349112Y-127630377D01*
X147376886Y-127620797D01*
X147539259Y-127567251D01*
X147711314Y-127514648D01*
X147864922Y-127471451D01*
X147918577Y-127457809D01*
X148152059Y-127401325D01*
X147918577Y-127293869D01*
X147777492Y-127232059D01*
X147607818Y-127162270D01*
X147440097Y-127096964D01*
X147394190Y-127079913D01*
X147258484Y-127028889D01*
X147135829Y-126980386D01*
X147044405Y-126941699D01*
X147015039Y-126927777D01*
X146979317Y-126911582D01*
X146935635Y-126897880D01*
X146876344Y-126885797D01*
X146793794Y-126874460D01*
X146680335Y-126862996D01*
X146528318Y-126850532D01*
X146330092Y-126836192D01*
X146078008Y-126819106D01*
X146042853Y-126816768D01*
X145757489Y-126795560D01*
X145532729Y-126773725D01*
X145366616Y-126750931D01*
X145257192Y-126726845D01*
X145202501Y-126701132D01*
X145200585Y-126673461D01*
X145200610Y-126673431D01*
X145255147Y-126633640D01*
X145363219Y-126577637D01*
X145379595Y-126570257D01*
X146027621Y-126570257D01*
X146027965Y-126583825D01*
X146076987Y-126591080D01*
X146172387Y-126594186D01*
X146311867Y-126595307D01*
X146361436Y-126595577D01*
X146584596Y-126600194D01*
X146776749Y-126613395D01*
X146954108Y-126638425D01*
X147132889Y-126678531D01*
X147329306Y-126736959D01*
X147559573Y-126816955D01*
X147669454Y-126857458D01*
X147930945Y-126957606D01*
X148139092Y-127043580D01*
X148300664Y-127118528D01*
X148422432Y-127185601D01*
X148511166Y-127247950D01*
X148514334Y-127250564D01*
X148537305Y-127270452D01*
X148558053Y-127285807D01*
X148583316Y-127295820D01*
X148619836Y-127299682D01*
X148674350Y-127296585D01*
X148753599Y-127285720D01*
X148864321Y-127266277D01*
X149013257Y-127237449D01*
X149207146Y-127198426D01*
X149452727Y-127148400D01*
X149577582Y-127122961D01*
X149803788Y-127077077D01*
X150023601Y-127032785D01*
X150225112Y-126992465D01*
X150396411Y-126958493D01*
X150525587Y-126933246D01*
X150578567Y-126923154D01*
X150707201Y-126899143D01*
X150873803Y-126868054D01*
X151054838Y-126834279D01*
X151194633Y-126808203D01*
X151341850Y-126779622D01*
X151386975Y-126770090D01*
X152799503Y-126770090D01*
X152815144Y-126785731D01*
X152830784Y-126770090D01*
X152815144Y-126754450D01*
X152799503Y-126770090D01*
X151386975Y-126770090D01*
X151465716Y-126753457D01*
X151553763Y-126732491D01*
X151593525Y-126719509D01*
X151594160Y-126718989D01*
X151578292Y-126699107D01*
X151518080Y-126667626D01*
X151462947Y-126645187D01*
X151291264Y-126573274D01*
X151080442Y-126472508D01*
X150842820Y-126349585D01*
X150590741Y-126211202D01*
X150336544Y-126064053D01*
X150092571Y-125914836D01*
X149961165Y-125830342D01*
X149454177Y-125497447D01*
X148882444Y-125686307D01*
X148463340Y-125823506D01*
X148050976Y-125956117D01*
X147655007Y-126081132D01*
X147285092Y-126195547D01*
X146950887Y-126296354D01*
X146662049Y-126380548D01*
X146558986Y-126409566D01*
X146341637Y-126470030D01*
X146182159Y-126515524D01*
X146078253Y-126548211D01*
X146027621Y-126570257D01*
X145379595Y-126570257D01*
X145518571Y-126507628D01*
X145714950Y-126425822D01*
X145946101Y-126334425D01*
X146205770Y-126235644D01*
X146487702Y-126131686D01*
X146785645Y-126024758D01*
X147093343Y-125917068D01*
X147404542Y-125810822D01*
X147712990Y-125708229D01*
X148012430Y-125611494D01*
X148296610Y-125522824D01*
X148559274Y-125444428D01*
X148794170Y-125378512D01*
X148995042Y-125327283D01*
X149052816Y-125313973D01*
X149229295Y-125277477D01*
X149358362Y-125259226D01*
X149452534Y-125259519D01*
X149524332Y-125278654D01*
X149586273Y-125316929D01*
X149598643Y-125326959D01*
X149650702Y-125361226D01*
X149750112Y-125418290D01*
X149888053Y-125493408D01*
X150055700Y-125581838D01*
X150244231Y-125678838D01*
X150390883Y-125752788D01*
X150621749Y-125869020D01*
X150868468Y-125994648D01*
X151114463Y-126121135D01*
X151343157Y-126239943D01*
X151537975Y-126342537D01*
X151593763Y-126372322D01*
X152092826Y-126640012D01*
X152360143Y-126601685D01*
X152527603Y-126577572D01*
X152642471Y-126558351D01*
X152713935Y-126539046D01*
X152751180Y-126514679D01*
X152763394Y-126480273D01*
X152759762Y-126430850D01*
X152753309Y-126388664D01*
X152749897Y-126249524D01*
X152772870Y-126068791D01*
X152786639Y-125999665D01*
X152840748Y-125749232D01*
X152593340Y-125498500D01*
X152422012Y-125331160D01*
X152263813Y-125193028D01*
X152106108Y-125076291D01*
X151936264Y-124973136D01*
X151741647Y-124875748D01*
X151509625Y-124776314D01*
X151282385Y-124687692D01*
X151124874Y-124626066D01*
X150969333Y-124561889D01*
X150836465Y-124503871D01*
X150764518Y-124469826D01*
X150637682Y-124397227D01*
X150503020Y-124305634D01*
X150371035Y-124204016D01*
X150252227Y-124101341D01*
X150157100Y-124006577D01*
X150096155Y-123928695D01*
X150079063Y-123884438D01*
X150082520Y-123853917D01*
X150106299Y-123849102D01*
X150167197Y-123868933D01*
X150189799Y-123877470D01*
X150257405Y-123893459D01*
X150301045Y-123869272D01*
X150316998Y-123848666D01*
X150393756Y-123784185D01*
X150503588Y-123766135D01*
X150650238Y-123794317D01*
X150740385Y-123826419D01*
X150948458Y-123897724D01*
X151118606Y-123929206D01*
X151260024Y-123922194D01*
X151310697Y-123908878D01*
X151418550Y-123851353D01*
X151474301Y-123762921D01*
X151485710Y-123673927D01*
X151469111Y-123600222D01*
X151416603Y-123526588D01*
X151324120Y-123450669D01*
X151187596Y-123370110D01*
X151002964Y-123282556D01*
X150766158Y-123185650D01*
X150473111Y-123077038D01*
X150426803Y-123060565D01*
X150172995Y-122967318D01*
X149967674Y-122883082D01*
X149798710Y-122801388D01*
X149653974Y-122715770D01*
X149521335Y-122619761D01*
X149389199Y-122507379D01*
X149117055Y-122221623D01*
X148899313Y-121905632D01*
X148737189Y-121561923D01*
X148631895Y-121193013D01*
X148586883Y-120844156D01*
X148585322Y-120587761D01*
X148607039Y-120285840D01*
X148650047Y-119950101D01*
X148712359Y-119592250D01*
X148791990Y-119223996D01*
X148886953Y-118857047D01*
X148971912Y-118574524D01*
X149171155Y-118055498D01*
X149428082Y-117556422D01*
X149739238Y-117083989D01*
X149747333Y-117073046D01*
X149760054Y-117049808D01*
X149764565Y-117018652D01*
X149758630Y-116972394D01*
X149740008Y-116903846D01*
X149706463Y-116805825D01*
X149655754Y-116671145D01*
X149585645Y-116492619D01*
X149498840Y-116275386D01*
X149333504Y-115847216D01*
X149200212Y-115465332D01*
X149097296Y-115123320D01*
X149023090Y-114814764D01*
X148975925Y-114533248D01*
X148954136Y-114272357D01*
X148952151Y-114171753D01*
X148947992Y-114075116D01*
X148937412Y-114009826D01*
X148926217Y-113991888D01*
X148894864Y-114014431D01*
X148837562Y-114073491D01*
X148767653Y-114155159D01*
X148568916Y-114356882D01*
X148322815Y-114538374D01*
X148043095Y-114692818D01*
X147743498Y-114813398D01*
X147437767Y-114893296D01*
X147222113Y-114921766D01*
X147087094Y-114935836D01*
X147009476Y-114954019D01*
X146991082Y-114973992D01*
X147006411Y-115021322D01*
X147032396Y-115107381D01*
X147054527Y-115182943D01*
X147093323Y-115290323D01*
X147148324Y-115381637D01*
X147233784Y-115478217D01*
X147285558Y-115528683D01*
X147396595Y-115628643D01*
X147514595Y-115726477D01*
X147614137Y-115801114D01*
X147614713Y-115801507D01*
X147718446Y-115889040D01*
X147763285Y-115964751D01*
X147752535Y-116023545D01*
X147689502Y-116060323D01*
X147577491Y-116069988D01*
X147450979Y-116054021D01*
X147270318Y-115994804D01*
X147119780Y-115890915D01*
X146991929Y-115736018D01*
X146912618Y-115595206D01*
X146855012Y-115467476D01*
X146823700Y-115360730D01*
X146811208Y-115243284D01*
X146809642Y-115158740D01*
X146806812Y-115036767D01*
X146797295Y-114965823D01*
X146778734Y-114934527D01*
X146762311Y-114930046D01*
X146712966Y-114919941D01*
X146621211Y-114893435D01*
X146503464Y-114855412D01*
X146450781Y-114837381D01*
X146333774Y-114797405D01*
X146242738Y-114767723D01*
X146190993Y-114752610D01*
X146184026Y-114751777D01*
X146171642Y-114781565D01*
X146141665Y-114852331D01*
X146108448Y-114930312D01*
X146037991Y-115104823D01*
X145980333Y-115272155D01*
X145932759Y-115444583D01*
X145892550Y-115634380D01*
X145856989Y-115853820D01*
X145823360Y-116115177D01*
X145800294Y-116322307D01*
X145783432Y-116445022D01*
X145763303Y-116514610D01*
X145736882Y-116540503D01*
X145730045Y-116541273D01*
X145683749Y-116511393D01*
X145646741Y-116426463D01*
X145620828Y-116293544D01*
X145607815Y-116119697D01*
X145606688Y-116059166D01*
X145609187Y-115924788D01*
X145621459Y-115808504D01*
X145647627Y-115688201D01*
X145691815Y-115541763D01*
X145717527Y-115464831D01*
X145778463Y-115297847D01*
X145849168Y-115122746D01*
X145918610Y-114966191D01*
X145952133Y-114897911D01*
X146007650Y-114788648D01*
X146049947Y-114701609D01*
X146072280Y-114650821D01*
X146074134Y-114644099D01*
X146050694Y-114617358D01*
X145991000Y-114569465D01*
X145948724Y-114539104D01*
X145853696Y-114446144D01*
X145755088Y-114301523D01*
X145657051Y-114115661D01*
X145563736Y-113898976D01*
X145479294Y-113661891D01*
X145407878Y-113414824D01*
X145353638Y-113168195D01*
X145324836Y-112973104D01*
X145306084Y-112620590D01*
X145329861Y-112274886D01*
X145398194Y-111929850D01*
X145513110Y-111579342D01*
X145676637Y-111217222D01*
X145890800Y-110837349D01*
X146102452Y-110517075D01*
X146478408Y-110517075D01*
X146738300Y-110427024D01*
X146873062Y-110382031D01*
X147045350Y-110326959D01*
X147232538Y-110268933D01*
X147404204Y-110217370D01*
X147565409Y-110170742D01*
X147691414Y-110138123D01*
X147800507Y-110117013D01*
X147910974Y-110104910D01*
X148041105Y-110099312D01*
X148209186Y-110097718D01*
X148279429Y-110097643D01*
X148506199Y-110100814D01*
X148686847Y-110113545D01*
X148837620Y-110140458D01*
X148974762Y-110186178D01*
X149114518Y-110255328D01*
X149273134Y-110352530D01*
X149347436Y-110401596D01*
X149462260Y-110486464D01*
X149601360Y-110601513D01*
X149752278Y-110735122D01*
X149902559Y-110875669D01*
X150039743Y-111011532D01*
X150151375Y-111131090D01*
X150220157Y-111215786D01*
X150281400Y-111301876D01*
X150562927Y-111034122D01*
X150795083Y-110821073D01*
X151020455Y-110628982D01*
X151234287Y-110460888D01*
X151431821Y-110319830D01*
X151608299Y-110208847D01*
X151758966Y-110130978D01*
X151879063Y-110089261D01*
X151963833Y-110086736D01*
X152002690Y-110114441D01*
X152008857Y-110144627D01*
X151988811Y-110182801D01*
X151936605Y-110234313D01*
X151846293Y-110304518D01*
X151711927Y-110398765D01*
X151611321Y-110466651D01*
X151348277Y-110645423D01*
X151128887Y-110801351D01*
X150942483Y-110942619D01*
X150778396Y-111077411D01*
X150625955Y-111213911D01*
X150577430Y-111259729D01*
X150472064Y-111366771D01*
X150364588Y-111486830D01*
X150262371Y-111610243D01*
X150172779Y-111727345D01*
X150103182Y-111828473D01*
X150060946Y-111903963D01*
X150053440Y-111944150D01*
X150054557Y-111945547D01*
X150101976Y-111953935D01*
X150196490Y-111940069D01*
X150327898Y-111906808D01*
X150485997Y-111857014D01*
X150660584Y-111793548D01*
X150803947Y-111735416D01*
X150997613Y-111655965D01*
X151142155Y-111604085D01*
X151243961Y-111578499D01*
X151309423Y-111577931D01*
X151344930Y-111601103D01*
X151354430Y-111625462D01*
X151338881Y-111696226D01*
X151272068Y-111777173D01*
X151163188Y-111862404D01*
X151021440Y-111946022D01*
X150856018Y-112022130D01*
X150676121Y-112084830D01*
X150609848Y-112102918D01*
X150406022Y-112137367D01*
X150187508Y-112137320D01*
X150171062Y-112136124D01*
X149935600Y-112118074D01*
X149891640Y-112218220D01*
X149770022Y-112490581D01*
X149648457Y-112754123D01*
X149531356Y-112999824D01*
X149423128Y-113218664D01*
X149328186Y-113401622D01*
X149250940Y-113539677D01*
X149224416Y-113582753D01*
X149163612Y-113684815D01*
X149136243Y-113755698D01*
X149136530Y-113812970D01*
X149142077Y-113832999D01*
X149155749Y-113886076D01*
X149179438Y-113990696D01*
X149211039Y-114137026D01*
X149248448Y-114315232D01*
X149289559Y-114515481D01*
X149312587Y-114629471D01*
X149402064Y-115039915D01*
X149501539Y-115433491D01*
X149607850Y-115799512D01*
X149717835Y-116127294D01*
X149828333Y-116406149D01*
X149857517Y-116470959D01*
X149910607Y-116577456D01*
X149986909Y-116720286D01*
X150077059Y-116882372D01*
X150171695Y-117046633D01*
X150191930Y-117080934D01*
X150311104Y-117283231D01*
X150401193Y-117439599D01*
X150465948Y-117557362D01*
X150509121Y-117643844D01*
X150534464Y-117706367D01*
X150545726Y-117752255D01*
X150547287Y-117774636D01*
X150533021Y-117816249D01*
X150487323Y-117815216D01*
X150405836Y-117770417D01*
X150335290Y-117720063D01*
X150269127Y-117674868D01*
X150226952Y-117654515D01*
X150221282Y-117655199D01*
X150198797Y-117701517D01*
X150168819Y-117792699D01*
X150135606Y-117912163D01*
X150103414Y-118043325D01*
X150076501Y-118169602D01*
X150059121Y-118274409D01*
X150056641Y-118296606D01*
X150054251Y-118454888D01*
X150072501Y-118619249D01*
X150107517Y-118767734D01*
X150155425Y-118878389D01*
X150160736Y-118886472D01*
X150199270Y-118968636D01*
X150194952Y-119030483D01*
X150149434Y-119058829D01*
X150139083Y-119059376D01*
X150026277Y-119032426D01*
X149917329Y-118962048D01*
X149836512Y-118863951D01*
X149836178Y-118863342D01*
X149801527Y-118755179D01*
X149784877Y-118601729D01*
X149784706Y-118417141D01*
X149799490Y-118215563D01*
X149827705Y-118011146D01*
X149867829Y-117818038D01*
X149918338Y-117650389D01*
X149977708Y-117522348D01*
X149981146Y-117516822D01*
X150017660Y-117453500D01*
X150022529Y-117408213D01*
X149994612Y-117351800D01*
X149973391Y-117318632D01*
X149926498Y-117252601D01*
X149892792Y-117216478D01*
X149887598Y-117214197D01*
X149861203Y-117238422D01*
X149808449Y-117304322D01*
X149736981Y-117401058D01*
X149654447Y-117517791D01*
X149568494Y-117643686D01*
X149486768Y-117767902D01*
X149416917Y-117879603D01*
X149410157Y-117890877D01*
X149206252Y-118288676D01*
X149041906Y-118728907D01*
X148918789Y-119204218D01*
X148838569Y-119707260D01*
X148802917Y-120230682D01*
X148803886Y-120560854D01*
X148812094Y-120772371D01*
X148823461Y-120935294D01*
X148839636Y-121063572D01*
X148862269Y-121171155D01*
X148885254Y-121249031D01*
X149025786Y-121586700D01*
X149211019Y-121880680D01*
X149441431Y-122131538D01*
X149717499Y-122339837D01*
X149890390Y-122437184D01*
X149980945Y-122477713D01*
X150115864Y-122531505D01*
X150279917Y-122592787D01*
X150457875Y-122655784D01*
X150544626Y-122685225D01*
X150728450Y-122749282D01*
X150910015Y-122817185D01*
X151072600Y-122882369D01*
X151199487Y-122938267D01*
X151239333Y-122958036D01*
X151442610Y-123086605D01*
X151603969Y-123233753D01*
X151718558Y-123392590D01*
X151781526Y-123556224D01*
X151788019Y-123717766D01*
X151785382Y-123733505D01*
X151734089Y-123862384D01*
X151640055Y-123982239D01*
X151521929Y-124071994D01*
X151462923Y-124097942D01*
X151358880Y-124116201D01*
X151213381Y-124121026D01*
X151045803Y-124113584D01*
X150875526Y-124095041D01*
X150721926Y-124066563D01*
X150659432Y-124049588D01*
X150569926Y-124024826D01*
X150508037Y-124013610D01*
X150492097Y-124015222D01*
X150510025Y-124035191D01*
X150570370Y-124073198D01*
X150641894Y-124111611D01*
X150847472Y-124191947D01*
X151107746Y-124253301D01*
X151417429Y-124294462D01*
X151454429Y-124297717D01*
X151671022Y-124321172D01*
X151831517Y-124350069D01*
X151934778Y-124383635D01*
X151979670Y-124421096D01*
X151965057Y-124461679D01*
X151889804Y-124504611D01*
X151802865Y-124534918D01*
X151635624Y-124585326D01*
X151819963Y-124652540D01*
X151991624Y-124730249D01*
X152186253Y-124842676D01*
X152385720Y-124977367D01*
X152571894Y-125121872D01*
X152726645Y-125263737D01*
X152757518Y-125296473D01*
X152839742Y-125385854D01*
X152903806Y-125453584D01*
X152939939Y-125489415D01*
X152944444Y-125492476D01*
X152959365Y-125464452D01*
X152997732Y-125390444D01*
X153054530Y-125280177D01*
X153124743Y-125143380D01*
X153164737Y-125065287D01*
X153308775Y-124792558D01*
X153442368Y-124560887D01*
X153576959Y-124352726D01*
X153723993Y-124150527D01*
X153894912Y-123936741D01*
X153921611Y-123904633D01*
X154182167Y-123612762D01*
X154458543Y-123340118D01*
X154742242Y-123093461D01*
X155024765Y-122879547D01*
X155297615Y-122705134D01*
X155552291Y-122576979D01*
X155629579Y-122546472D01*
X155742025Y-122500579D01*
X155824466Y-122457435D01*
X155863562Y-122424269D01*
X155865021Y-122418964D01*
X155884836Y-122308864D01*
X155939208Y-122166802D01*
X156017601Y-122012772D01*
X156834725Y-122012772D01*
X156861808Y-122096430D01*
X156935991Y-122196017D01*
X157046673Y-122303285D01*
X157183253Y-122409984D01*
X157335131Y-122507864D01*
X157491706Y-122588674D01*
X157642379Y-122644166D01*
X157648025Y-122645714D01*
X157818581Y-122675952D01*
X158005920Y-122684203D01*
X158179937Y-122670015D01*
X158251036Y-122654786D01*
X158381170Y-122594740D01*
X158509387Y-122496264D01*
X158611443Y-122379366D01*
X158637529Y-122335817D01*
X158668611Y-122285160D01*
X158705574Y-122260650D01*
X158763897Y-122260284D01*
X158859061Y-122282060D01*
X158920404Y-122299228D01*
X158969277Y-122301019D01*
X159014628Y-122267416D01*
X159070323Y-122189004D01*
X159143355Y-122088251D01*
X159204111Y-122043865D01*
X159260966Y-122053156D01*
X159318920Y-122109163D01*
X159369670Y-122165468D01*
X159411989Y-122178331D01*
X159473661Y-122155325D01*
X159478978Y-122152779D01*
X159565435Y-122078294D01*
X159598658Y-122007590D01*
X159637802Y-121929921D01*
X159696788Y-121908817D01*
X159779054Y-121943932D01*
X159831976Y-121984130D01*
X159905787Y-122035268D01*
X159969056Y-122061440D01*
X159978131Y-122062332D01*
X160060795Y-122036396D01*
X160157520Y-121966472D01*
X160254104Y-121864385D01*
X160310612Y-121785542D01*
X160383040Y-121637361D01*
X160401450Y-121497347D01*
X160365304Y-121352753D01*
X160286316Y-121209126D01*
X160151676Y-121052242D01*
X159981088Y-120938478D01*
X159771270Y-120866729D01*
X159518942Y-120835888D01*
X159220823Y-120844849D01*
X159209196Y-120845900D01*
X158806527Y-120895081D01*
X158431353Y-120964828D01*
X158091000Y-121053038D01*
X157792796Y-121157612D01*
X157544069Y-121276449D01*
X157410924Y-121361418D01*
X157187873Y-121533579D01*
X157020990Y-121685241D01*
X156908201Y-121818748D01*
X156847432Y-121936447D01*
X156834725Y-122012772D01*
X156017601Y-122012772D01*
X156020523Y-122007030D01*
X156121170Y-121843801D01*
X156233535Y-121691366D01*
X156287085Y-121628771D01*
X156347963Y-121555578D01*
X156363339Y-121520159D01*
X156343354Y-121516929D01*
X156293056Y-121528341D01*
X156195025Y-121550753D01*
X156062493Y-121581134D01*
X155908695Y-121616453D01*
X155876631Y-121623824D01*
X155674016Y-121669058D01*
X155525213Y-121698779D01*
X155423648Y-121713834D01*
X155362748Y-121715069D01*
X155335940Y-121703332D01*
X155333247Y-121693820D01*
X155346745Y-121674695D01*
X155392093Y-121648844D01*
X155476572Y-121613136D01*
X155607465Y-121564443D01*
X155755538Y-121512280D01*
X155867576Y-121473273D01*
X155958558Y-121441405D01*
X156010364Y-121423026D01*
X156012702Y-121422170D01*
X156026943Y-121395536D01*
X156015896Y-121329912D01*
X155998410Y-121277933D01*
X155978090Y-121217532D01*
X155969812Y-121195618D01*
X155965889Y-121181711D01*
X156146548Y-121181711D01*
X156146548Y-121277933D01*
X156158212Y-121349304D01*
X156199473Y-121370348D01*
X156274528Y-121348495D01*
X156299594Y-121327924D01*
X156284632Y-121300568D01*
X156405405Y-121300568D01*
X156420843Y-121308181D01*
X156489248Y-121299114D01*
X156584479Y-121280007D01*
X156683162Y-121249992D01*
X156809672Y-121199464D01*
X156937569Y-121139040D01*
X156944448Y-121135468D01*
X157163653Y-121020986D01*
X157127863Y-120673617D01*
X157087356Y-120394459D01*
X157025003Y-120150216D01*
X156994095Y-120060361D01*
X156938683Y-119910957D01*
X156898372Y-119811993D01*
X156866047Y-119755425D01*
X156834590Y-119733209D01*
X156796886Y-119737302D01*
X156745818Y-119759660D01*
X156733339Y-119765632D01*
X156622241Y-119818611D01*
X156609423Y-120416518D01*
X156601968Y-120667117D01*
X156590627Y-120862823D01*
X156573886Y-121011264D01*
X156550231Y-121120064D01*
X156518150Y-121196847D01*
X156476129Y-121249240D01*
X156438826Y-121276166D01*
X156405405Y-121300568D01*
X156284632Y-121300568D01*
X156281990Y-121295737D01*
X156235427Y-121254472D01*
X156146548Y-121181711D01*
X155965889Y-121181711D01*
X155916550Y-121006781D01*
X155883185Y-120783676D01*
X155870061Y-120545430D01*
X155877522Y-120311165D01*
X155896100Y-120172974D01*
X156119971Y-120172974D01*
X156121644Y-120283753D01*
X156137819Y-120411137D01*
X156166100Y-120488345D01*
X156192270Y-120516924D01*
X156266343Y-120539393D01*
X156338917Y-120503991D01*
X156402433Y-120415118D01*
X156415082Y-120387296D01*
X156452293Y-120252612D01*
X156453271Y-120127513D01*
X156421606Y-120024593D01*
X156360886Y-119956445D01*
X156286259Y-119935238D01*
X156200133Y-119962507D01*
X156144300Y-120042605D01*
X156119971Y-120172974D01*
X155896100Y-120172974D01*
X155905910Y-120100006D01*
X155947470Y-119951089D01*
X155941526Y-119912391D01*
X155882067Y-119887236D01*
X155868407Y-119884302D01*
X155806449Y-119862991D01*
X155770458Y-119835663D01*
X155772226Y-119814616D01*
X155797286Y-119810115D01*
X155803716Y-119782771D01*
X155794581Y-119711480D01*
X155774695Y-119623190D01*
X155756520Y-119550176D01*
X155746134Y-119488790D01*
X155744840Y-119426385D01*
X155753938Y-119350315D01*
X155774730Y-119247934D01*
X155808518Y-119106595D01*
X155841497Y-118974114D01*
X155884507Y-118793039D01*
X155922902Y-118614762D01*
X155953199Y-118456664D01*
X155971915Y-118336127D01*
X155974862Y-118308637D01*
X155991370Y-118128020D01*
X156005380Y-118000612D01*
X156019043Y-117917238D01*
X156034509Y-117868717D01*
X156053928Y-117845872D01*
X156079452Y-117839524D01*
X156084802Y-117839425D01*
X156148407Y-117868605D01*
X156198237Y-117949907D01*
X156232113Y-118073979D01*
X156247857Y-118231464D01*
X156243291Y-118413010D01*
X156235661Y-118487300D01*
X156214713Y-118606236D01*
X156178082Y-118765055D01*
X156130606Y-118944537D01*
X156077121Y-119125465D01*
X156067050Y-119157262D01*
X156017029Y-119318778D01*
X155974957Y-119464965D01*
X155944374Y-119582714D01*
X155928820Y-119658918D01*
X155927582Y-119673569D01*
X155931171Y-119721841D01*
X155952796Y-119742407D01*
X156008746Y-119741788D01*
X156074937Y-119732560D01*
X156309168Y-119679711D01*
X156427048Y-119632282D01*
X156963787Y-119632282D01*
X157039028Y-119780763D01*
X157140986Y-120035639D01*
X157208847Y-120320672D01*
X157237255Y-120610453D01*
X157236539Y-120717879D01*
X157225735Y-120993136D01*
X157335218Y-120945392D01*
X157442606Y-120899415D01*
X157554517Y-120852684D01*
X157561092Y-120849987D01*
X157677484Y-120802326D01*
X157601395Y-120711899D01*
X157523891Y-120586011D01*
X157478167Y-120425568D01*
X157461440Y-120220121D01*
X157461258Y-120185484D01*
X157466052Y-120080543D01*
X157482293Y-119977870D01*
X157513682Y-119867827D01*
X157563918Y-119740773D01*
X157636705Y-119587067D01*
X157735741Y-119397068D01*
X157831257Y-119221714D01*
X157924609Y-119048407D01*
X157989246Y-118917710D01*
X158029537Y-118819135D01*
X158049851Y-118742197D01*
X158054676Y-118685467D01*
X158051718Y-118604039D01*
X158036714Y-118570848D01*
X158000473Y-118571636D01*
X157984294Y-118576302D01*
X157928814Y-118594464D01*
X157910935Y-118601870D01*
X157893431Y-118627724D01*
X157849842Y-118692533D01*
X157788914Y-118783285D01*
X157776574Y-118801680D01*
X157642161Y-118982850D01*
X157480345Y-119171323D01*
X157309092Y-119347660D01*
X157146370Y-119492422D01*
X157116689Y-119515677D01*
X156963787Y-119632282D01*
X156427048Y-119632282D01*
X156528812Y-119591337D01*
X156738721Y-119463310D01*
X156943747Y-119291505D01*
X157148744Y-119071793D01*
X157358564Y-118800049D01*
X157578060Y-118472145D01*
X157602197Y-118433760D01*
X157697216Y-118283756D01*
X157788699Y-118142764D01*
X157867789Y-118024203D01*
X157925630Y-117941493D01*
X157937516Y-117925674D01*
X158028293Y-117808598D01*
X157961743Y-117722349D01*
X157914464Y-117667310D01*
X157833833Y-117579824D01*
X157730836Y-117471586D01*
X157616456Y-117354288D01*
X157607659Y-117345385D01*
X157258035Y-117030641D01*
X156889795Y-116774151D01*
X156504404Y-116576768D01*
X156103327Y-116439346D01*
X156017133Y-116418160D01*
X155885029Y-116391136D01*
X155722006Y-116362659D01*
X155543102Y-116334812D01*
X155363354Y-116309683D01*
X155197798Y-116289354D01*
X155061472Y-116275910D01*
X154969413Y-116271438D01*
X154960497Y-116271663D01*
X154853633Y-116276166D01*
X154913575Y-116208381D01*
X155011159Y-116128292D01*
X155154987Y-116047825D01*
X155641603Y-116047825D01*
X155652389Y-116060705D01*
X155677336Y-116067660D01*
X156029518Y-116156921D01*
X156327084Y-116250218D01*
X156577971Y-116350403D01*
X156790112Y-116460326D01*
X156819085Y-116477832D01*
X156897262Y-116523739D01*
X156952296Y-116551879D01*
X156964696Y-116555937D01*
X156990959Y-116531928D01*
X157035156Y-116469628D01*
X157063262Y-116423970D01*
X157183175Y-116257574D01*
X157350932Y-116078109D01*
X157555491Y-115893632D01*
X157785812Y-115712203D01*
X158030852Y-115541878D01*
X158279570Y-115390716D01*
X158520923Y-115266774D01*
X158743870Y-115178110D01*
X158789774Y-115164017D01*
X158896132Y-115133417D01*
X158981729Y-115108827D01*
X159021487Y-115097441D01*
X159029091Y-115075163D01*
X158989312Y-115031574D01*
X158911281Y-114972191D01*
X158804133Y-114902532D01*
X158676999Y-114828116D01*
X158539014Y-114754459D01*
X158399309Y-114687080D01*
X158267017Y-114631497D01*
X158224667Y-114616028D01*
X158112150Y-114580417D01*
X157962422Y-114537867D01*
X157799345Y-114495005D01*
X157710587Y-114473218D01*
X157526675Y-114426268D01*
X157395434Y-114384020D01*
X157307642Y-114342069D01*
X157254075Y-114296007D01*
X157225513Y-114241436D01*
X157226004Y-114151595D01*
X157282833Y-114073369D01*
X157389991Y-114013171D01*
X157459061Y-113992195D01*
X157634933Y-113973108D01*
X157848124Y-113986779D01*
X158084941Y-114029752D01*
X158331691Y-114098571D01*
X158574679Y-114189778D01*
X158800212Y-114299917D01*
X158890446Y-114353522D01*
X159124011Y-114520609D01*
X159372497Y-114732949D01*
X159623931Y-114979311D01*
X159866339Y-115248464D01*
X159941806Y-115339745D01*
X160027299Y-115438350D01*
X160101111Y-115500247D01*
X160185656Y-115541183D01*
X160263903Y-115565990D01*
X160373682Y-115593248D01*
X160452450Y-115595709D01*
X160521554Y-115567398D01*
X160602340Y-115502338D01*
X160649779Y-115457972D01*
X161061376Y-115105565D01*
X161503441Y-114804031D01*
X161861597Y-114606552D01*
X162152370Y-114471155D01*
X162413944Y-114375580D01*
X162662730Y-114317410D01*
X162915141Y-114294227D01*
X163187588Y-114303612D01*
X163496484Y-114343148D01*
X163567975Y-114355133D01*
X163685337Y-114375463D01*
X163635902Y-114238417D01*
X163600389Y-114062733D01*
X163602492Y-113957817D01*
X163618517Y-113814262D01*
X163378160Y-113580302D01*
X162961241Y-113195237D01*
X162559741Y-112867377D01*
X162170130Y-112594300D01*
X161788882Y-112373588D01*
X161412468Y-112202820D01*
X161317740Y-112167301D01*
X161194390Y-112125723D01*
X161102932Y-112105234D01*
X161017523Y-112102828D01*
X160912321Y-112115496D01*
X160895450Y-112118156D01*
X160370233Y-112226028D01*
X159827947Y-112382190D01*
X159283086Y-112580914D01*
X158750141Y-112816471D01*
X158243605Y-113083135D01*
X157866991Y-113315105D01*
X157544277Y-113556563D01*
X157221406Y-113852551D01*
X157210094Y-113863926D01*
X157066252Y-114012746D01*
X156952290Y-114141732D01*
X156854151Y-114269314D01*
X156757782Y-114413920D01*
X156649126Y-114593980D01*
X156635376Y-114617504D01*
X156525706Y-114805414D01*
X156442854Y-114946383D01*
X156382112Y-115047504D01*
X156338767Y-115115870D01*
X156308109Y-115158575D01*
X156285426Y-115182713D01*
X156266008Y-115195376D01*
X156246388Y-115203204D01*
X156181690Y-115236654D01*
X156123152Y-115276356D01*
X156094428Y-115300680D01*
X156089843Y-115317342D01*
X156118082Y-115328974D01*
X156187832Y-115338212D01*
X156307776Y-115347690D01*
X156373399Y-115352251D01*
X156703134Y-115382428D01*
X156983713Y-115423925D01*
X157211927Y-115476009D01*
X157384568Y-115537947D01*
X157498426Y-115609007D01*
X157498550Y-115609119D01*
X157536404Y-115651669D01*
X157527102Y-115688502D01*
X157502667Y-115717409D01*
X157430080Y-115760701D01*
X157311507Y-115775155D01*
X157306909Y-115775177D01*
X157119071Y-115783286D01*
X156887445Y-115805327D01*
X156628615Y-115838826D01*
X156359165Y-115881309D01*
X156095678Y-115930300D01*
X155854739Y-115983323D01*
X155771178Y-116004374D01*
X155679044Y-116030501D01*
X155641603Y-116047825D01*
X155154987Y-116047825D01*
X155160882Y-116044527D01*
X155352733Y-115960546D01*
X155576699Y-115879812D01*
X155822767Y-115805787D01*
X156080924Y-115741931D01*
X156341159Y-115691708D01*
X156458743Y-115674145D01*
X156593338Y-115655593D01*
X156671724Y-115642668D01*
X156699753Y-115633091D01*
X156683277Y-115624582D01*
X156628148Y-115614863D01*
X156615759Y-115612988D01*
X156445068Y-115596823D01*
X156231734Y-115591046D01*
X155994746Y-115595282D01*
X155753089Y-115609153D01*
X155525750Y-115632283D01*
X155505291Y-115634988D01*
X155237443Y-115670778D01*
X155021244Y-115698137D01*
X154846438Y-115717645D01*
X154702764Y-115729885D01*
X154579965Y-115735437D01*
X154467781Y-115734882D01*
X154355954Y-115728802D01*
X154234226Y-115717778D01*
X154167976Y-115710761D01*
X154009581Y-115694716D01*
X153864755Y-115682203D01*
X153749913Y-115674504D01*
X153683186Y-115672833D01*
X153614031Y-115669164D01*
X153581823Y-115655171D01*
X153581523Y-115653399D01*
X153606420Y-115612152D01*
X153674695Y-115544828D01*
X153680927Y-115539560D01*
X153939513Y-115539560D01*
X153942053Y-115550991D01*
X153995877Y-115547234D01*
X154035094Y-115542332D01*
X154116473Y-115533164D01*
X154242193Y-115520452D01*
X154394262Y-115505964D01*
X154535587Y-115493151D01*
X154719556Y-115476012D01*
X154937481Y-115454360D01*
X155161193Y-115431059D01*
X155349737Y-115410418D01*
X155788518Y-115360860D01*
X155886190Y-115215968D01*
X155965569Y-115101281D01*
X156052118Y-114980632D01*
X156084722Y-114936541D01*
X156185582Y-114802006D01*
X156017481Y-114822418D01*
X155817258Y-114852392D01*
X155588565Y-114895633D01*
X155355021Y-114947001D01*
X155140245Y-115001361D01*
X154991621Y-115045573D01*
X154871125Y-115089559D01*
X154720013Y-115151098D01*
X154552382Y-115223740D01*
X154382324Y-115301035D01*
X154223936Y-115376532D01*
X154091311Y-115443782D01*
X153998544Y-115496335D01*
X153980698Y-115508197D01*
X153939513Y-115539560D01*
X153680927Y-115539560D01*
X153776722Y-115458587D01*
X153902879Y-115360589D01*
X154043541Y-115257994D01*
X154189083Y-115157963D01*
X154329881Y-115067656D01*
X154456311Y-114994234D01*
X154493952Y-114974571D01*
X154640377Y-114906570D01*
X154806026Y-114838041D01*
X154927688Y-114793362D01*
X155029172Y-114755467D01*
X155097379Y-114722637D01*
X155120379Y-114700842D01*
X155118115Y-114698075D01*
X155075282Y-114688406D01*
X154983948Y-114677543D01*
X154858119Y-114666904D01*
X154731422Y-114658930D01*
X154347057Y-114661124D01*
X153988748Y-114712632D01*
X153646683Y-114816423D01*
X153311052Y-114975468D01*
X152974701Y-115190828D01*
X152865788Y-115266891D01*
X152774562Y-115326647D01*
X152713624Y-115362044D01*
X152696975Y-115368243D01*
X152679279Y-115340178D01*
X152673625Y-115265842D01*
X152678436Y-115160026D01*
X152692139Y-115037523D01*
X152713155Y-114913123D01*
X152739910Y-114801617D01*
X152764936Y-114730380D01*
X152800531Y-114643329D01*
X152820079Y-114582847D01*
X152821093Y-114566105D01*
X152787486Y-114574337D01*
X152716197Y-114619051D01*
X152615156Y-114693913D01*
X152492293Y-114792587D01*
X152355537Y-114908736D01*
X152212818Y-115036025D01*
X152093996Y-115147047D01*
X151959462Y-115271854D01*
X151826404Y-115388519D01*
X151707587Y-115486298D01*
X151615775Y-115554448D01*
X151592110Y-115569473D01*
X151503579Y-115625739D01*
X151450783Y-115678095D01*
X151417520Y-115748997D01*
X151390474Y-115848963D01*
X151353565Y-115972567D01*
X151315796Y-116035994D01*
X151274222Y-116041593D01*
X151225899Y-115991715D01*
X151220917Y-115984277D01*
X151179768Y-115882740D01*
X151151163Y-115728811D01*
X151135097Y-115531389D01*
X151131567Y-115299371D01*
X151140567Y-115041656D01*
X151162093Y-114767143D01*
X151196142Y-114484729D01*
X151221708Y-114320337D01*
X151292283Y-113970468D01*
X151391027Y-113580324D01*
X151513584Y-113163069D01*
X151655597Y-112731871D01*
X151812711Y-112299894D01*
X151980570Y-111880305D01*
X152154816Y-111486270D01*
X152170355Y-111453163D01*
X152273882Y-111224846D01*
X152373779Y-110988085D01*
X152466613Y-110752533D01*
X152548951Y-110527842D01*
X152617362Y-110323662D01*
X152668413Y-110149647D01*
X152698673Y-110015446D01*
X152705661Y-109947840D01*
X152679122Y-109829926D01*
X152605008Y-109693309D01*
X152491572Y-109547516D01*
X152347070Y-109402075D01*
X152179755Y-109266514D01*
X152031274Y-109169380D01*
X151848414Y-109070723D01*
X151665775Y-108991403D01*
X151472096Y-108928647D01*
X151256113Y-108879684D01*
X151006565Y-108841740D01*
X150712190Y-108812043D01*
X150522218Y-108797891D01*
X150026391Y-108781420D01*
X149570796Y-108803642D01*
X149144685Y-108866990D01*
X148737309Y-108973894D01*
X148337921Y-109126785D01*
X147935772Y-109328096D01*
X147778937Y-109418426D01*
X147601730Y-109531222D01*
X147409467Y-109666012D01*
X147212501Y-109814348D01*
X147021181Y-109967781D01*
X146845861Y-110117861D01*
X146696892Y-110256140D01*
X146584625Y-110374167D01*
X146541532Y-110428425D01*
X146478408Y-110517075D01*
X146102452Y-110517075D01*
X146157628Y-110433582D01*
X146167976Y-110418899D01*
X146367187Y-110157685D01*
X146579985Y-109922587D01*
X146815263Y-109706392D01*
X147081912Y-109501886D01*
X147388826Y-109301856D01*
X147744895Y-109099088D01*
X147888420Y-109023204D01*
X148130205Y-108900168D01*
X148332216Y-108804329D01*
X148508199Y-108730482D01*
X148671898Y-108673425D01*
X148837059Y-108627957D01*
X149017428Y-108588873D01*
X149054939Y-108581666D01*
X149445015Y-108516741D01*
X149800261Y-108477811D01*
X150142111Y-108463523D01*
X150492003Y-108472526D01*
G37*
D13*
%TO.C,SW1*%
X167535227Y-112786784D02*
X167535227Y-114286784D01*
X168785227Y-116786784D02*
X173285227Y-116786784D01*
X173285227Y-110286784D02*
X168785227Y-110286784D01*
X174535227Y-114286784D02*
X174535227Y-112786784D01*
%TO.C,RV1*%
X190629327Y-119636900D02*
X190629327Y-123573900D01*
X190629327Y-127940900D02*
X190629327Y-131876900D01*
X192279327Y-119636900D02*
X190629327Y-119636900D01*
X194778327Y-119636900D02*
X194019327Y-119636900D01*
X196899327Y-119636900D02*
X196519327Y-119636900D01*
X200670327Y-119636900D02*
X199349327Y-119636900D01*
X200670327Y-119636900D02*
X200670327Y-123573900D01*
X200670327Y-127940900D02*
X200670327Y-131876900D01*
X200670327Y-131876900D02*
X190629327Y-131876900D01*
D15*
%TO.C,IF2*%
X150004778Y-96913972D02*
X150004778Y-102679772D01*
X150004778Y-102679772D02*
X164508178Y-102679772D01*
X164508178Y-96913972D02*
X150004778Y-96913972D01*
X164508178Y-102679772D02*
X164508178Y-96913972D01*
D16*
X166667178Y-101502772D02*
G75*
G02*
X165905178Y-101502772I-381000J0D01*
G01*
X165905178Y-101502772D02*
G75*
G02*
X166667178Y-101502772I381000J0D01*
G01*
D13*
%TO.C,SW3*%
X136028737Y-137597935D02*
X136028737Y-139097935D01*
X137278737Y-141597935D02*
X141778737Y-141597935D01*
X141778737Y-135097935D02*
X137278737Y-135097935D01*
X143028737Y-139097935D02*
X143028737Y-137597935D01*
%TD*%
M02*
