%TF.GenerationSoftware,KiCad,Pcbnew,8.0.6*%
%TF.CreationDate,2025-07-22T18:05:31-04:00*%
%TF.ProjectId,receiver,72656365-6976-4657-922e-6b696361645f,rev?*%
%TF.SameCoordinates,Original*%
%TF.FileFunction,Other,User*%
%FSLAX46Y46*%
G04 Gerber Fmt 4.6, Leading zero omitted, Abs format (unit mm)*
G04 Created by KiCad (PCBNEW 8.0.6) date 2025-07-22 18:05:31*
%MOMM*%
%LPD*%
G01*
G04 APERTURE LIST*
%ADD10C,0.050000*%
G04 APERTURE END LIST*
D10*
%TO.C,BUZ_R2*%
X184890725Y-133913682D02*
X189450725Y-133913682D01*
X184890725Y-136153682D02*
X184890725Y-133913682D01*
X189450725Y-133913682D02*
X189450725Y-136153682D01*
X189450725Y-136153682D02*
X184890725Y-136153682D01*
%TO.C,Q1*%
X185604033Y-136899133D02*
X185604033Y-140739133D01*
X185604033Y-140739133D02*
X189004033Y-140739133D01*
X189004033Y-136899133D02*
X185604033Y-136899133D01*
X189004033Y-140739133D02*
X189004033Y-136899133D01*
%TO.C,BUZ_D1*%
X192506727Y-145959757D02*
X197206727Y-145959757D01*
X192506727Y-148259757D02*
X192506727Y-145959757D01*
X197206727Y-148259757D02*
X192506727Y-148259757D01*
X197206727Y-148259757D02*
X197206727Y-145959757D01*
%TO.C,J4*%
X110478989Y-113183887D02*
X110478989Y-124383887D01*
X110478989Y-124383887D02*
X114078989Y-124383887D01*
X114078989Y-113183887D02*
X110478989Y-113183887D01*
X114078989Y-124383887D02*
X114078989Y-113183887D01*
%TO.C,BUT_R2*%
X168954348Y-132041473D02*
X173514348Y-132041473D01*
X168954348Y-134281473D02*
X168954348Y-132041473D01*
X173514348Y-132041473D02*
X173514348Y-134281473D01*
X173514348Y-134281473D02*
X168954348Y-134281473D01*
%TO.C,LLS_R2*%
X121941495Y-122228631D02*
X126501495Y-122228631D01*
X121941495Y-124468631D02*
X121941495Y-122228631D01*
X126501495Y-122228631D02*
X126501495Y-124468631D01*
X126501495Y-124468631D02*
X121941495Y-124468631D01*
%TO.C,LLS_C2*%
X121893573Y-119183154D02*
X126493573Y-119183154D01*
X121893573Y-121483154D02*
X121893573Y-119183154D01*
X126493573Y-119183154D02*
X126493573Y-121483154D01*
X126493573Y-121483154D02*
X121893573Y-121483154D01*
%TO.C,BUZ_R1*%
X194282681Y-114648131D02*
X198842681Y-114648131D01*
X194282681Y-116888131D02*
X194282681Y-114648131D01*
X198842681Y-114648131D02*
X198842681Y-116888131D01*
X198842681Y-116888131D02*
X194282681Y-116888131D01*
%TO.C,U5*%
X122895487Y-118403423D02*
X122895487Y-113973423D01*
X125395487Y-113973423D02*
X122895487Y-113973423D01*
X125395487Y-118403423D02*
X122895487Y-118403423D01*
X125395487Y-118403423D02*
X125395487Y-113973423D01*
%TO.C,BUT_R4*%
X136933972Y-107078196D02*
X141493972Y-107078196D01*
X136933972Y-109318196D02*
X136933972Y-107078196D01*
X141493972Y-107078196D02*
X141493972Y-109318196D01*
X141493972Y-109318196D02*
X136933972Y-109318196D01*
%TO.C,BUT_R1*%
X168828196Y-107137561D02*
X173388196Y-107137561D01*
X168828196Y-109377561D02*
X168828196Y-107137561D01*
X173388196Y-107137561D02*
X173388196Y-109377561D01*
X173388196Y-109377561D02*
X168828196Y-109377561D01*
%TO.C,LLS_C1*%
X121866443Y-111329144D02*
X126466443Y-111329144D01*
X121866443Y-113629144D02*
X121866443Y-111329144D01*
X126466443Y-111329144D02*
X126466443Y-113629144D01*
X126466443Y-113629144D02*
X121866443Y-113629144D01*
%TO.C,BUT_R3*%
X137290166Y-131388451D02*
X141850166Y-131388451D01*
X137290166Y-133628451D02*
X137290166Y-131388451D01*
X141850166Y-131388451D02*
X141850166Y-133628451D01*
X141850166Y-133628451D02*
X137290166Y-133628451D01*
%TO.C,BZ1*%
X202150846Y-139669746D02*
G75*
G02*
X190150846Y-139669746I-6000000J0D01*
G01*
X190150846Y-139669746D02*
G75*
G02*
X202150846Y-139669746I6000000J0D01*
G01*
%TD*%
M02*
