M48
; DRILL file {KiCad 8.0.6} date 2025-07-22T18:05:35-0400
; FORMAT={-:-/ absolute / inch / decimal}
; #@! TF.CreationDate,2025-07-22T18:05:35-04:00
; #@! TF.GenerationSoftware,Kicad,Pcbnew,8.0.6
; #@! TF.FileFunction,Plated,1,2,PTH
FMAT,2
INCH
; #@! TA.AperFunction,Plated,PTH,ViaDrill
T1C0.0157
; #@! TA.AperFunction,Plated,PTH,ComponentDrill
T2C0.0220
; #@! TA.AperFunction,Plated,PTH,ComponentDrill
T3C0.0394
; #@! TA.AperFunction,Plated,PTH,ComponentDrill
T4C0.0433
; #@! TA.AperFunction,Plated,PTH,ComponentDrill
T5C0.0709
%
G90
G05
T1
X4.9514Y-4.2144
X5.0042Y-4.519
X5.0376Y-4.6668
X5.452Y-4.1898
X5.4624Y-5.1321
X6.0202Y-4.3529
X6.069Y-5.3281
X6.1192Y-5.3246
X6.1692Y-4.3518
X6.2171Y-4.4655
X6.2681Y-4.6195
X6.3634Y-4.1489
X6.3651Y-5.0692
X6.4139Y-4.6562
X6.7619Y-4.1851
X6.7669Y-5.1338
X7.3073Y-3.9414
X7.6661Y-4.0257
T2
X5.9697Y-3.9962
X6.019Y-3.9962
X6.0682Y-3.9962
X6.1174Y-3.9962
X6.1666Y-3.9962
X6.2158Y-3.9962
X6.265Y-3.9962
X6.3142Y-3.9962
X6.3634Y-3.9962
X6.4127Y-3.9962
T3
X4.4204Y-4.5261
X4.4204Y-4.6261
X4.4204Y-4.7261
X4.4204Y-4.8261
X7.6043Y-4.6755
X7.7027Y-4.6755
X7.8012Y-4.6755
T4
X5.3653Y-4.3814
X5.3653Y-4.5585
X5.3653Y-5.3582
X5.3653Y-5.5354
X5.6212Y-4.3814
X5.6212Y-4.5585
X5.6212Y-5.3582
X5.6212Y-5.5354
X6.6057Y-4.3814
X6.6057Y-4.5585
X6.6057Y-5.3582
X6.6057Y-5.5354
X6.8616Y-4.3814
X6.8616Y-4.5585
X6.8616Y-5.3582
X6.8616Y-5.5354
T5
G00X7.5295Y-4.9432
M15
G01X7.5295Y-4.9589
M16
G05
G00X7.876Y-4.9432
M15
G01X7.876Y-4.9589
M16
G05
M30
