%TF.GenerationSoftware,KiCad,Pcbnew,8.0.6*%
%TF.CreationDate,2025-07-22T18:05:31-04:00*%
%TF.ProjectId,receiver,72656365-6976-4657-922e-6b696361645f,rev?*%
%TF.SameCoordinates,Original*%
%TF.FileFunction,Soldermask,Top*%
%TF.FilePolarity,Negative*%
%FSLAX46Y46*%
G04 Gerber Fmt 4.6, Leading zero omitted, Abs format (unit mm)*
G04 Created by KiCad (PCBNEW 8.0.6) date 2025-07-22 18:05:31*
%MOMM*%
%LPD*%
G01*
G04 APERTURE LIST*
G04 Aperture macros list*
%AMRoundRect*
0 Rectangle with rounded corners*
0 $1 Rounding radius*
0 $2 $3 $4 $5 $6 $7 $8 $9 X,Y pos of 4 corners*
0 Add a 4 corners polygon primitive as box body*
4,1,4,$2,$3,$4,$5,$6,$7,$8,$9,$2,$3,0*
0 Add four circle primitives for the rounded corners*
1,1,$1+$1,$2,$3*
1,1,$1+$1,$4,$5*
1,1,$1+$1,$6,$7*
1,1,$1+$1,$8,$9*
0 Add four rect primitives between the rounded corners*
20,1,$1+$1,$2,$3,$4,$5,0*
20,1,$1+$1,$4,$5,$6,$7,0*
20,1,$1+$1,$6,$7,$8,$9,0*
20,1,$1+$1,$8,$9,$2,$3,0*%
G04 Aperture macros list end*
%ADD10C,2.076000*%
%ADD11C,3.276000*%
%ADD12RoundRect,0.038000X-0.850000X-0.850000X0.850000X-0.850000X0.850000X0.850000X-0.850000X0.850000X0*%
%ADD13O,1.776000X1.776000*%
%ADD14RoundRect,0.038000X-0.900000X0.900000X-0.900000X-0.900000X0.900000X-0.900000X0.900000X0.900000X0*%
%ADD15C,1.876000*%
%ADD16RoundRect,0.769000X-0.769000X1.269000X-0.769000X-1.269000X0.769000X-1.269000X0.769000X1.269000X0*%
%ADD17C,1.142800*%
G04 APERTURE END LIST*
D10*
%TO.C,SW2*%
X167785227Y-136097935D03*
X174285227Y-136097935D03*
X167785227Y-140597935D03*
X174285227Y-140597935D03*
%TD*%
D11*
%TO.C,HOLES2*%
X130093609Y-103260373D03*
X130093609Y-143260373D03*
X180093609Y-103260373D03*
X180093609Y-143260373D03*
%TD*%
D12*
%TO.C,J4*%
X112278989Y-122583887D03*
D13*
X112278989Y-120043887D03*
X112278989Y-117503887D03*
X112278989Y-114963887D03*
%TD*%
D10*
%TO.C,SW4*%
X136278737Y-111286784D03*
X142778737Y-111286784D03*
X136278737Y-115786784D03*
X142778737Y-115786784D03*
%TD*%
D11*
%TO.C,HOLES3*%
X110025189Y-100893649D03*
X110025189Y-150893649D03*
X200025189Y-100893649D03*
X200025189Y-150893649D03*
%TD*%
D10*
%TO.C,SW1*%
X167785227Y-111286784D03*
X174285227Y-111286784D03*
X167785227Y-115786784D03*
X174285227Y-115786784D03*
%TD*%
D14*
%TO.C,RV1*%
X198149327Y-118756900D03*
D15*
X195649327Y-118756900D03*
X193149327Y-118756900D03*
D16*
X200049327Y-125756900D03*
X191249327Y-125756900D03*
%TD*%
D17*
%TO.C,IF2*%
X162881478Y-101502772D03*
X161631478Y-101502772D03*
X160381478Y-101502772D03*
X159131478Y-101502772D03*
X157881478Y-101502772D03*
X156631478Y-101502772D03*
X155381478Y-101502772D03*
X154131478Y-101502772D03*
X152881478Y-101502772D03*
X151631478Y-101502772D03*
%TD*%
D10*
%TO.C,SW3*%
X136278737Y-136097935D03*
X142778737Y-136097935D03*
X136278737Y-140597935D03*
X142778737Y-140597935D03*
%TD*%
M02*
